<svg version="1.1" xmlns="http://www.w3.org/2000/svg" viewBox="0 0 543.6227416992188 126.2581787109375" width="543.6227416992188" height="126.2581787109375" class="excalidraw-svg">
  <!-- svg-source:excalidraw -->
  
  <defs>
    <style class="style-fonts">
      @font-face {
        font-family: "Virgil";
        src: url("https://excalidraw.com/Virgil.woff2");
      }
      @font-face {
        font-family: "Cascadia";
        src: url("https://excalidraw.com/Cascadia.woff2");
      }
      @font-face {
        font-family: "Assistant";
        src: url("https://excalidraw.com/Assistant-Regular.woff2");
      }
    </style>
    
  </defs>
  <rect x="0" y="0" width="543.6227416992188" height="126.2581787109375" fill="#ffffff"/><g transform="translate(10 88.87203979492188) rotate(0 18.62255859375 -39.43601989746094)" stroke="none"><path fill="#1e1e1e" d="M -0.52,-0.39 Q -0.52,-0.39 0.08,-1.90 0.69,-3.41 1.37,-4.52 2.04,-5.63 3.58,-8.60 5.11,-11.57 6.72,-14.73 8.32,-17.90 12.18,-24.33 16.03,-30.77 19.85,-37.86 23.66,-44.96 25.87,-51.03 28.08,-57.11 28.67,-60.56 29.27,-64.01 29.49,-67.34 29.72,-70.67 29.50,-72.61 29.28,-74.54 29.20,-75.70 29.13,-76.86 28.75,-77.43 28.38,-77.99 28.39,-78.20 28.40,-78.41 28.46,-78.61 28.52,-78.80 28.62,-78.98 28.73,-79.16 28.87,-79.31 29.02,-79.46 29.19,-79.56 29.37,-79.67 29.57,-79.74 29.76,-79.80 29.97,-79.82 30.18,-79.83 30.38,-79.79 30.59,-79.76 30.78,-79.68 30.96,-79.59 31.13,-79.47 31.29,-79.34 31.42,-79.18 31.55,-79.02 31.64,-78.83 31.73,-78.64 31.76,-78.44 31.80,-78.23 31.66,-76.72 31.52,-75.21 31.48,-69.68 31.44,-64.15 31.73,-57.40 32.02,-50.65 32.46,-45.59 32.89,-40.54 33.39,-36.52 33.89,-32.50 34.96,-27.38 36.03,-22.26 36.63,-18.10 37.23,-13.95 37.30,-12.16 37.38,-10.36 37.38,-10.26 37.38,-10.15 37.35,-10.05 37.32,-9.95 37.26,-9.86 37.20,-9.77 37.11,-9.71 37.03,-9.65 36.93,-9.62 36.83,-9.59 36.72,-9.59 36.61,-9.59 36.51,-9.63 36.41,-9.66 36.33,-9.73 36.25,-9.79 36.19,-9.88 36.13,-9.97 36.11,-10.08 36.08,-10.18 36.09,-10.28 36.10,-10.39 36.14,-10.49 36.18,-10.59 36.25,-10.67 36.32,-10.75 36.41,-10.80 36.50,-10.85 36.61,-10.87 36.71,-10.89 36.82,-10.88 36.92,-10.86 37.02,-10.82 37.11,-10.77 37.19,-10.70 37.26,-10.62 37.31,-10.53 37.36,-10.43 37.37,-10.33 37.39,-10.22 37.37,-10.12 37.35,-10.01 37.30,-9.92 37.25,-9.83 37.17,-9.76 37.09,-9.68 36.99,-9.64 36.89,-9.60 36.79,-9.59 36.68,-9.58 36.58,-9.61 36.48,-9.63 36.39,-9.69 36.30,-9.74 36.23,-9.83 36.16,-9.91 36.13,-10.01 36.09,-10.11 36.09,-10.11 36.09,-10.11 35.48,-11.80 34.87,-13.48 33.85,-17.51 32.83,-21.55 31.59,-26.80 30.35,-32.06 29.84,-36.15 29.34,-40.23 28.90,-45.37 28.46,-50.50 28.18,-57.34 27.89,-64.18 27.98,-69.89 28.07,-75.59 28.22,-76.79 28.38,-77.99 28.39,-78.20 28.40,-78.41 28.46,-78.61 28.52,-78.80 28.62,-78.98 28.73,-79.16 28.87,-79.31 29.02,-79.46 29.19,-79.56 29.37,-79.67 29.57,-79.74 29.76,-79.80 29.97,-79.82 30.18,-79.83 30.38,-79.79 30.59,-79.76 30.77,-79.68 30.96,-79.59 31.13,-79.47 31.29,-79.34 31.42,-79.18 31.55,-79.02 31.64,-78.83 31.73,-78.64 31.76,-78.44 31.80,-78.23 32.13,-77.78 32.46,-77.33 32.55,-76.10 32.64,-74.86 32.82,-72.64 33.00,-70.42 32.68,-66.93 32.35,-63.45 31.66,-59.76 30.96,-56.07 28.65,-49.79 26.34,-43.52 22.49,-36.36 18.63,-29.21 14.82,-22.87 11.01,-16.53 9.39,-13.36 7.78,-10.18 6.18,-7.12 4.59,-4.06 3.83,-2.84 3.08,-1.62 1.80,-0.61 0.52,0.39 0.47,0.45 0.41,0.50 0.34,0.55 0.28,0.59 0.20,0.61 0.13,0.64 0.05,0.64 -0.02,0.65 -0.10,0.64 -0.18,0.63 -0.25,0.59 -0.32,0.56 -0.39,0.52 -0.45,0.47 -0.50,0.41 -0.55,0.35 -0.58,0.27 -0.62,0.20 -0.63,0.13 -0.65,0.05 -0.65,-0.02 -0.64,-0.10 -0.62,-0.18 -0.60,-0.25 -0.56,-0.32 -0.52,-0.39 -0.52,-0.39 L -0.52,-0.39 Z"/></g><g transform="translate(28.62255859375 61.48590087890625) rotate(0 12.597625732421875 -1.095428466796875)" stroke="none"><path fill="#1e1e1e" d="M -0.08,-0.65 Q -0.08,-0.65 2.37,-1.50 4.82,-2.35 9.33,-3.04 13.84,-3.73 18.48,-3.73 23.12,-3.73 23.23,-3.72 23.33,-3.72 23.43,-3.68 23.53,-3.64 23.61,-3.57 23.69,-3.50 23.75,-3.41 23.80,-3.32 23.82,-3.21 23.84,-3.11 23.83,-3.00 23.82,-2.90 23.77,-2.80 23.73,-2.71 23.66,-2.63 23.58,-2.55 23.49,-2.50 23.39,-2.45 23.29,-2.44 23.18,-2.42 23.08,-2.44 22.97,-2.46 22.88,-2.51 22.79,-2.56 22.71,-2.64 22.64,-2.71 22.60,-2.81 22.55,-2.91 22.54,-3.01 22.53,-3.12 22.56,-3.22 22.58,-3.32 22.63,-3.42 22.69,-3.51 22.77,-3.57 22.85,-3.64 22.95,-3.68 23.05,-3.72 23.16,-3.72 23.26,-3.73 23.37,-3.70 23.47,-3.67 23.56,-3.61 23.64,-3.55 23.71,-3.47 23.77,-3.38 23.80,-3.28 23.84,-3.18 23.84,-3.07 23.84,-2.97 23.80,-2.87 23.77,-2.77 23.70,-2.68 23.64,-2.60 23.55,-2.54 23.46,-2.48 23.36,-2.45 23.25,-2.42 23.25,-2.42 23.25,-2.42 18.81,-1.50 14.37,-0.57 9.81,0.25 5.25,1.09 2.66,0.87 0.08,0.65 0.00,0.65 -0.07,0.65 -0.15,0.63 -0.23,0.61 -0.30,0.57 -0.37,0.54 -0.43,0.48 -0.48,0.43 -0.53,0.37 -0.58,0.30 -0.60,0.23 -0.63,0.15 -0.64,0.08 -0.65,0.00 -0.64,-0.07 -0.63,-0.15 -0.61,-0.22 -0.58,-0.30 -0.53,-0.36 -0.49,-0.43 -0.43,-0.48 -0.37,-0.53 -0.30,-0.57 -0.23,-0.61 -0.15,-0.63 -0.08,-0.65 -0.08,-0.65 L -0.08,-0.65 Z"/></g><g transform="translate(66.963134765625 47.2451171875) rotate(0 8.7635498046875 1.0954437255859375)" stroke="none"><path fill="#1e1e1e" d="M 0.36,-0.54 Q 0.36,-0.54 1.47,-0.31 2.58,-0.09 3.87,-0.26 5.16,-0.42 7.46,-0.44 9.75,-0.46 11.67,-0.40 13.59,-0.33 15.20,0.05 16.81,0.44 16.92,0.45 17.02,0.47 17.11,0.52 17.21,0.57 17.28,0.65 17.36,0.72 17.40,0.82 17.45,0.92 17.46,1.02 17.47,1.13 17.45,1.23 17.42,1.33 17.37,1.43 17.31,1.52 17.23,1.59 17.15,1.65 17.05,1.69 16.96,1.73 16.85,1.74 16.74,1.75 16.64,1.72 16.54,1.69 16.45,1.63 16.36,1.57 16.30,1.49 16.23,1.40 16.20,1.30 16.17,1.20 16.17,1.09 16.16,0.99 16.20,0.89 16.23,0.79 16.30,0.70 16.36,0.62 16.45,0.56 16.54,0.50 16.64,0.47 16.74,0.44 16.85,0.45 16.95,0.45 17.05,0.49 17.15,0.53 17.23,0.60 17.31,0.67 17.37,0.76 17.42,0.85 17.45,0.95 17.47,1.06 17.46,1.16 17.45,1.27 17.40,1.36 17.36,1.46 17.28,1.54 17.21,1.61 17.12,1.66 17.02,1.71 16.92,1.73 16.82,1.75 16.82,1.75 16.82,1.75 15.21,2.15 13.60,2.55 11.69,2.63 9.78,2.71 7.52,2.74 5.25,2.76 3.22,2.68 1.18,2.61 0.41,1.57 -0.36,0.54 -0.42,0.49 -0.48,0.44 -0.53,0.37 -0.57,0.31 -0.60,0.24 -0.63,0.16 -0.64,0.08 -0.65,0.01 -0.64,-0.06 -0.64,-0.14 -0.61,-0.22 -0.58,-0.29 -0.54,-0.36 -0.49,-0.42 -0.44,-0.48 -0.38,-0.53 -0.31,-0.57 -0.24,-0.61 -0.16,-0.63 -0.08,-0.65 -0.01,-0.65 0.06,-0.65 0.14,-0.63 0.22,-0.61 0.29,-0.58 0.36,-0.54 0.36,-0.54 L 0.36,-0.54 Z"/></g><g transform="translate(70.24945068359375 54.913238525390625) rotate(0 8.763580322265625 1.0954437255859375)" stroke="none"><path fill="#1e1e1e" d="M 0.58,-0.29 Q 0.58,-0.29 0.90,-0.14 1.23,0.01 2.93,-0.25 4.63,-0.51 6.97,-0.82 9.32,-1.13 12.68,-0.85 16.04,-0.56 16.15,-0.55 16.25,-0.54 16.35,-0.50 16.44,-0.45 16.52,-0.38 16.60,-0.31 16.65,-0.21 16.70,-0.12 16.72,-0.02 16.74,0.08 16.72,0.18 16.70,0.29 16.66,0.38 16.61,0.48 16.53,0.55 16.45,0.63 16.36,0.67 16.26,0.72 16.16,0.73 16.05,0.74 15.95,0.72 15.84,0.70 15.75,0.64 15.66,0.59 15.59,0.51 15.52,0.43 15.48,0.33 15.44,0.23 15.43,0.12 15.43,0.02 15.45,-0.07 15.48,-0.18 15.54,-0.27 15.60,-0.35 15.68,-0.42 15.77,-0.48 15.87,-0.52 15.97,-0.55 16.08,-0.55 16.18,-0.55 16.28,-0.52 16.38,-0.49 16.47,-0.42 16.55,-0.36 16.61,-0.27 16.67,-0.19 16.70,-0.08 16.73,0.01 16.73,0.11 16.72,0.22 16.68,0.32 16.65,0.42 16.58,0.50 16.51,0.58 16.42,0.64 16.33,0.69 16.22,0.72 16.12,0.74 16.12,0.74 16.12,0.74 12.94,1.43 9.77,2.12 7.24,2.48 4.71,2.84 2.37,2.67 0.02,2.50 -0.27,1.40 -0.58,0.29 -0.61,0.21 -0.64,0.14 -0.64,0.06 -0.65,-0.01 -0.64,-0.09 -0.63,-0.16 -0.60,-0.24 -0.57,-0.31 -0.52,-0.38 -0.48,-0.44 -0.42,-0.49 -0.36,-0.54 -0.29,-0.58 -0.22,-0.61 -0.14,-0.63 -0.06,-0.65 0.01,-0.65 0.09,-0.65 0.16,-0.62 0.24,-0.60 0.31,-0.57 0.38,-0.53 0.44,-0.47 0.50,-0.42 0.54,-0.35 0.58,-0.29 0.58,-0.29 L 0.58,-0.29 Z"/></g><g transform="translate(115.1627197265625 29.717987060546875) rotate(0 -7.668121337890625 28.481582641601562)" stroke="none"><path fill="#1e1e1e" d="M 0.20,0.62 Q 0.20,0.62 -0.56,1.44 -1.33,2.27 -3.11,3.26 -4.90,4.25 -6.38,6.95 -7.86,9.66 -9.48,14.23 -11.09,18.80 -11.45,24.04 -11.80,29.28 -11.05,34.53 -10.29,39.79 -7.73,44.44 -5.18,49.08 -4.29,51.33 -3.41,53.58 -3.37,53.68 -3.33,53.78 -3.33,53.88 -3.32,53.99 -3.35,54.09 -3.38,54.20 -3.44,54.28 -3.50,54.37 -3.59,54.43 -3.67,54.50 -3.77,54.53 -3.88,54.56 -3.98,54.56 -4.09,54.56 -4.19,54.52 -4.29,54.49 -4.37,54.42 -4.46,54.36 -4.51,54.27 -4.57,54.18 -4.60,54.08 -4.63,53.98 -4.62,53.87 -4.61,53.77 -4.57,53.67 -4.53,53.57 -4.46,53.49 -4.39,53.41 -4.30,53.35 -4.21,53.30 -4.11,53.28 -4.00,53.26 -3.90,53.27 -3.79,53.28 -3.70,53.33 -3.60,53.37 -3.52,53.45 -3.45,53.52 -3.40,53.62 -3.35,53.71 -3.33,53.82 -3.32,53.92 -3.34,54.02 -3.35,54.13 -3.41,54.22 -3.46,54.32 -3.53,54.39 -3.61,54.46 -3.71,54.50 -3.81,54.55 -3.91,54.56 -4.02,54.57 -4.12,54.54 -4.22,54.52 -4.31,54.46 -4.41,54.41 -4.47,54.33 -4.54,54.25 -4.54,54.25 -4.54,54.25 -6.08,52.38 -7.61,50.51 -10.75,45.46 -13.89,40.41 -14.67,34.71 -15.46,29.02 -15.00,23.31 -14.53,17.60 -12.74,12.71 -10.95,7.82 -8.86,4.57 -6.78,1.32 -4.61,0.15 -2.44,-1.01 -1.32,-0.81 -0.20,-0.62 -0.13,-0.63 -0.05,-0.65 0.02,-0.65 0.10,-0.64 0.18,-0.62 0.25,-0.60 0.32,-0.56 0.39,-0.52 0.45,-0.46 0.50,-0.41 0.55,-0.34 0.59,-0.28 0.61,-0.20 0.64,-0.13 0.64,-0.05 0.65,0.02 0.64,0.10 0.63,0.18 0.59,0.25 0.56,0.32 0.52,0.39 0.47,0.45 0.41,0.50 0.35,0.55 0.27,0.58 0.20,0.62 0.20,0.62 L 0.20,0.62 Z"/></g><g transform="translate(134.8807373046875 83.39480590820312) rotate(0 12.597625732421875 -27.386123657226562)" stroke="none"><path fill="#1e1e1e" d="M -0.29,-0.58 Q -0.29,-0.58 0.04,-1.30 0.39,-2.02 1.60,-4.40 2.82,-6.79 6.30,-12.95 9.77,-19.11 12.20,-23.32 14.63,-27.52 16.88,-32.68 19.13,-37.84 20.03,-41.82 20.93,-45.80 21.31,-48.42 21.69,-51.04 21.54,-52.28 21.39,-53.51 21.18,-54.09 20.96,-54.67 20.70,-54.86 20.44,-55.06 20.38,-55.27 20.32,-55.49 20.32,-55.71 20.31,-55.93 20.36,-56.14 20.41,-56.36 20.51,-56.56 20.61,-56.76 20.75,-56.92 20.90,-57.09 21.08,-57.22 21.26,-57.35 21.46,-57.43 21.67,-57.51 21.89,-57.54 22.11,-57.57 22.33,-57.55 22.55,-57.53 22.75,-57.45 22.96,-57.38 23.15,-57.26 23.33,-57.13 23.48,-56.97 23.63,-56.81 23.74,-56.62 23.84,-56.42 23.52,-53.75 23.19,-51.08 23.05,-44.63 22.90,-38.17 22.81,-31.92 22.73,-25.67 23.21,-19.95 23.70,-14.23 24.48,-9.36 25.27,-4.50 25.28,-4.39 25.29,-4.28 25.26,-4.18 25.24,-4.08 25.18,-3.99 25.13,-3.90 25.05,-3.83 24.96,-3.76 24.86,-3.73 24.76,-3.69 24.66,-3.68 24.55,-3.68 24.45,-3.71 24.35,-3.74 24.26,-3.80 24.17,-3.86 24.11,-3.95 24.05,-4.03 24.02,-4.14 23.98,-4.24 23.99,-4.34 23.99,-4.45 24.02,-4.55 24.06,-4.65 24.13,-4.73 24.19,-4.82 24.28,-4.87 24.37,-4.93 24.47,-4.96 24.57,-4.99 24.68,-4.98 24.79,-4.97 24.88,-4.93 24.98,-4.89 25.06,-4.82 25.14,-4.75 25.20,-4.66 25.25,-4.56 25.27,-4.46 25.29,-4.36 25.28,-4.25 25.26,-4.14 25.22,-4.05 25.17,-3.95 25.10,-3.88 25.02,-3.80 24.93,-3.75 24.83,-3.71 24.73,-3.69 24.62,-3.67 24.52,-3.69 24.41,-3.71 24.32,-3.76 24.23,-3.82 24.16,-3.89 24.08,-3.97 24.04,-4.07 24.00,-4.17 24.00,-4.17 24.00,-4.17 22.26,-9.03 20.53,-13.90 19.81,-19.80 19.09,-25.71 19.15,-31.99 19.20,-38.27 19.38,-44.99 19.56,-51.72 20.00,-53.39 20.44,-55.06 20.38,-55.27 20.32,-55.49 20.32,-55.71 20.31,-55.93 20.36,-56.14 20.41,-56.36 20.51,-56.56 20.61,-56.76 20.75,-56.92 20.90,-57.09 21.08,-57.22 21.26,-57.35 21.46,-57.43 21.67,-57.51 21.89,-57.54 22.11,-57.57 22.33,-57.55 22.55,-57.53 22.75,-57.45 22.96,-57.38 23.15,-57.26 23.33,-57.13 23.48,-56.97 23.63,-56.81 23.74,-56.62 23.84,-56.42 23.90,-56.45 23.95,-56.48 24.49,-55.19 25.02,-53.90 25.14,-52.21 25.27,-50.52 24.82,-47.75 24.38,-44.98 23.33,-40.72 22.29,-36.47 19.96,-31.13 17.62,-25.79 15.20,-21.61 12.78,-17.42 9.29,-11.24 5.80,-5.07 3.96,-2.15 2.12,0.76 1.21,0.67 0.29,0.58 0.21,0.61 0.14,0.64 0.06,0.64 -0.01,0.65 -0.09,0.64 -0.16,0.63 -0.24,0.60 -0.31,0.57 -0.38,0.52 -0.44,0.48 -0.49,0.42 -0.54,0.36 -0.58,0.29 -0.61,0.22 -0.63,0.14 -0.65,0.06 -0.65,-0.01 -0.65,-0.09 -0.62,-0.16 -0.60,-0.24 -0.57,-0.31 -0.53,-0.38 -0.47,-0.44 -0.42,-0.50 -0.35,-0.54 -0.29,-0.58 -0.29,-0.58 L -0.29,-0.58 Z"/></g><g transform="translate(179.79400634765625 71.34490966796875) rotate(0 2.190887451171875 17.527130126953125)" stroke="none"><path fill="#1e1e1e" d="M 0.64,-0.12 Q 0.64,-0.12 1.45,1.35 2.27,2.83 2.16,6.85 2.06,10.87 1.99,14.98 1.92,19.10 2.20,22.34 2.48,25.58 3.13,28.11 3.77,30.63 4.16,32.32 4.55,34.01 4.59,34.11 4.62,34.21 4.63,34.32 4.63,34.43 4.60,34.53 4.57,34.63 4.50,34.72 4.44,34.80 4.35,34.86 4.27,34.92 4.16,34.96 4.06,34.99 3.96,34.98 3.85,34.98 3.75,34.94 3.65,34.90 3.57,34.84 3.49,34.77 3.43,34.68 3.37,34.59 3.35,34.49 3.32,34.38 3.33,34.28 3.34,34.17 3.39,34.07 3.43,33.98 3.50,33.90 3.57,33.82 3.66,33.77 3.76,33.72 3.86,33.70 3.97,33.68 4.07,33.69 4.18,33.71 4.27,33.76 4.37,33.80 4.44,33.88 4.51,33.95 4.56,34.05 4.61,34.15 4.62,34.25 4.63,34.36 4.61,34.46 4.59,34.56 4.54,34.66 4.49,34.75 4.41,34.82 4.33,34.89 4.23,34.93 4.13,34.97 4.03,34.98 3.92,34.99 3.82,34.96 3.72,34.94 3.63,34.88 3.54,34.82 3.47,34.74 3.40,34.65 3.40,34.65 3.40,34.65 1.99,33.10 0.58,31.55 -0.27,28.72 -1.13,25.90 -1.41,22.47 -1.70,19.03 -1.61,14.87 -1.52,10.70 -1.27,7.08 -1.01,3.46 -0.82,1.79 -0.64,0.12 -0.64,0.04 -0.65,-0.02 -0.64,-0.10 -0.62,-0.18 -0.59,-0.25 -0.56,-0.33 -0.51,-0.39 -0.47,-0.45 -0.41,-0.50 -0.34,-0.55 -0.27,-0.59 -0.20,-0.62 -0.12,-0.63 -0.05,-0.65 0.02,-0.65 0.10,-0.64 0.18,-0.62 0.25,-0.60 0.32,-0.56 0.39,-0.52 0.45,-0.46 0.51,-0.41 0.55,-0.34 0.59,-0.27 0.61,-0.20 0.64,-0.12 0.64,-0.12 L 0.64,-0.12 Z"/></g><g transform="translate(187.46209716796875 46.149688720703125) rotate(0 -2.190887451171875 -1.0954437255859375)" stroke="none"><path fill="#1e1e1e" d="M -0.36,0.54 Q -0.36,0.54 -2.15,-0.81 -3.94,-2.17 -3.92,-2.28 -3.89,-2.38 -3.83,-2.47 -3.77,-2.56 -3.69,-2.62 -3.61,-2.69 -3.51,-2.72 -3.40,-2.76 -3.30,-2.76 -3.19,-2.76 -3.09,-2.73 -2.99,-2.70 -2.90,-2.64 -2.82,-2.57 -2.76,-2.49 -2.70,-2.40 -2.67,-2.30 -2.64,-2.20 -2.64,-2.09 -2.64,-1.98 -2.68,-1.88 -2.72,-1.79 -2.79,-1.70 -2.85,-1.62 -2.94,-1.56 -3.03,-1.51 -3.14,-1.48 -3.24,-1.46 -3.35,-1.47 -3.45,-1.48 -3.55,-1.52 -3.65,-1.56 -3.73,-1.64 -3.80,-1.71 -3.86,-1.80 -3.91,-1.89 -3.93,-2.00 -3.94,-2.10 -3.93,-2.21 -3.91,-2.31 -3.87,-2.41 -3.82,-2.50 -3.74,-2.58 -3.67,-2.65 -3.57,-2.70 -3.47,-2.74 -3.37,-2.76 -3.26,-2.77 -3.16,-2.75 -3.05,-2.73 -2.96,-2.68 -2.87,-2.62 -2.80,-2.54 -2.73,-2.46 -2.69,-2.36 -2.65,-2.27 -2.64,-2.16 -2.63,-2.05 -2.63,-2.05 -2.63,-2.05 -1.13,-1.30 0.36,-0.54 0.42,-0.49 0.48,-0.44 0.53,-0.37 0.57,-0.31 0.60,-0.24 0.63,-0.16 0.64,-0.08 0.65,-0.01 0.64,0.06 0.64,0.14 0.61,0.22 0.58,0.29 0.54,0.36 0.49,0.42 0.44,0.48 0.38,0.53 0.31,0.57 0.24,0.61 0.16,0.63 0.08,0.65 0.01,0.65 -0.06,0.65 -0.14,0.63 -0.22,0.61 -0.29,0.58 -0.36,0.54 -0.36,0.54 L -0.36,0.54 Z"/></g><g transform="translate(223.61181640625 40.672454833984375) rotate(0 -8.215850830078125 23.004348754882812)" stroke="none"><path fill="#1e1e1e" d="M 0,0.65 Q 0,0.65 -1.57,1.19 -3.14,1.73 -4.56,2.02 -5.98,2.31 -7.58,3.57 -9.19,4.82 -11.67,8.95 -14.15,13.09 -15.19,17.52 -16.23,21.96 -16.06,26.22 -15.89,30.49 -14.63,34.00 -13.38,37.52 -11.71,39.35 -10.04,41.18 -7.14,40.71 -4.24,40.25 -2.62,39.10 -1.00,37.96 -0.68,36.78 -0.36,35.61 -1.57,34.11 -2.78,32.62 -5.52,31.40 -8.27,30.19 -10.25,29.92 -12.23,29.65 -12.58,28.94 -12.93,28.23 -13.28,30.10 -13.64,31.98 -13.65,32.08 -13.66,32.19 -13.70,32.28 -13.74,32.38 -13.82,32.46 -13.89,32.54 -13.98,32.59 -14.07,32.64 -14.18,32.66 -14.28,32.68 -14.39,32.66 -14.49,32.64 -14.59,32.60 -14.68,32.55 -14.76,32.47 -14.83,32.39 -14.88,32.30 -14.92,32.20 -14.93,32.10 -14.95,31.99 -14.93,31.89 -14.90,31.78 -14.85,31.69 -14.80,31.60 -14.72,31.53 -14.64,31.46 -14.54,31.42 -14.44,31.38 -14.33,31.37 -14.23,31.37 -14.13,31.39 -14.02,31.42 -13.93,31.48 -13.85,31.54 -13.78,31.62 -13.71,31.70 -13.68,31.81 -13.64,31.91 -13.64,32.01 -13.64,32.12 -13.67,32.22 -13.71,32.32 -13.77,32.41 -13.83,32.49 -13.92,32.55 -14.01,32.61 -14.11,32.64 -14.21,32.67 -14.32,32.67 -14.43,32.66 -14.52,32.62 -14.62,32.59 -14.71,32.52 -14.79,32.45 -14.84,32.36 -14.90,32.27 -14.92,32.17 -14.95,32.06 -14.95,32.06 -14.95,32.06 -15.55,30.13 -16.16,28.20 -13.96,27.13 -11.76,26.06 -9.23,26.44 -6.69,26.82 -3.27,28.60 0.14,30.38 1.60,32.98 3.05,35.58 2.23,38.10 1.40,40.63 -1.14,42.26 -3.69,43.90 -7.65,44.04 -11.60,44.18 -14.20,41.51 -16.80,38.85 -18.18,34.75 -19.57,30.65 -19.68,25.89 -19.79,21.12 -18.52,16.17 -17.25,11.22 -14.29,6.61 -11.34,2.00 -9.05,0.47 -6.77,-1.05 -4.96,-1.39 -3.15,-1.73 -1.57,-1.19 0,-0.65 0.07,-0.64 0.15,-0.63 0.23,-0.60 0.30,-0.58 0.37,-0.53 0.43,-0.49 0.48,-0.43 0.54,-0.37 0.57,-0.30 0.61,-0.23 0.63,-0.15 0.65,-0.07 0.65,0.00 0.65,0.07 0.63,0.15 0.61,0.23 0.57,0.30 0.54,0.37 0.48,0.43 0.43,0.49 0.37,0.53 0.30,0.58 0.23,0.60 0.15,0.63 0.07,0.64 -0.00,0.65 -0.00,0.65 L 0,0.65 Z"/></g><g transform="translate(265.23870849609375 70.24948120117188) rotate(0 -2.190887451171875 23.004348754882812)" stroke="none"><path fill="#1e1e1e" d="M 0.65,0 Q 0.65,0 1.14,1.25 1.62,2.51 1.64,3.68 1.65,4.85 1.04,7.75 0.43,10.64 -0.09,14.86 -0.62,19.08 -1.18,24.66 -1.73,30.23 -1.99,34.15 -2.26,38.07 -2.96,41.33 -3.66,44.58 -3.68,44.68 -3.70,44.79 -3.75,44.88 -3.81,44.97 -3.89,45.04 -3.97,45.11 -4.07,45.15 -4.17,45.19 -4.27,45.20 -4.38,45.20 -4.48,45.18 -4.58,45.15 -4.67,45.09 -4.76,45.03 -4.82,44.95 -4.89,44.86 -4.92,44.76 -4.96,44.66 -4.96,44.56 -4.96,44.45 -4.93,44.35 -4.90,44.25 -4.83,44.16 -4.77,44.08 -4.68,44.02 -4.59,43.96 -4.49,43.93 -4.39,43.90 -4.28,43.90 -4.18,43.91 -4.08,43.95 -3.98,43.99 -3.90,44.05 -3.82,44.12 -3.76,44.21 -3.71,44.30 -3.68,44.41 -3.66,44.51 -3.67,44.61 -3.68,44.72 -3.72,44.82 -3.77,44.91 -3.84,44.99 -3.91,45.07 -4.00,45.12 -4.10,45.17 -4.20,45.19 -4.31,45.21 -4.41,45.19 -4.52,45.18 -4.61,45.13 -4.71,45.08 -4.78,45.00 -4.85,44.93 -4.90,44.83 -4.94,44.73 -4.96,44.63 -4.97,44.52 -4.97,44.52 -4.97,44.52 -5.38,41.19 -5.79,37.86 -5.57,33.86 -5.36,29.87 -4.79,24.23 -4.22,18.59 -3.59,14.22 -2.95,9.85 -2.30,7.34 -1.65,4.84 -1.64,3.67 -1.62,2.51 -1.14,1.25 -0.65,0 -0.64,-0.07 -0.63,-0.15 -0.60,-0.23 -0.58,-0.30 -0.53,-0.37 -0.49,-0.43 -0.43,-0.48 -0.37,-0.54 -0.30,-0.57 -0.23,-0.61 -0.15,-0.63 -0.07,-0.65 0.00,-0.65 0.07,-0.65 0.15,-0.63 0.23,-0.61 0.30,-0.57 0.37,-0.54 0.43,-0.48 0.49,-0.43 0.53,-0.37 0.58,-0.30 0.60,-0.23 0.63,-0.15 0.64,-0.07 0.65,0.00 0.65,0.00 L 0.65,0 Z"/></g><g transform="translate(263.04779052734375 42.86334228515625) rotate(0 0.000030517578125 -1.0954437255859375)" stroke="none"><path fill="#1e1e1e" d="M -0.58,0.29 Q -0.58,0.29 -0.21,0.18 0.14,0.08 0.12,0.00 0.09,-0.06 0.08,-0.14 0.07,-0.22 0.09,-0.30 0.10,-0.38 0.13,-0.45 0.16,-0.52 0.20,-0.59 0.25,-0.65 0.31,-0.70 0.37,-0.75 0.44,-0.79 0.51,-0.82 0.59,-0.84 0.66,-0.86 0.74,-0.86 0.82,-0.86 0.90,-0.84 0.98,-0.81 1.04,-0.78 1.11,-0.74 1.17,-0.68 1.23,-0.63 1.27,-0.57 1.32,-0.50 1.27,-0.57 1.23,-0.64 1.28,-0.55 1.34,-0.46 1.36,-0.35 1.39,-0.25 1.38,-0.14 1.37,-0.04 1.32,0.05 1.28,0.15 1.21,0.22 1.13,0.30 1.04,0.35 0.95,0.40 0.84,0.42 0.74,0.44 0.63,0.43 0.53,0.41 0.43,0.36 0.34,0.31 0.27,0.24 0.19,0.16 0.15,0.06 0.10,-0.02 0.09,-0.13 0.07,-0.23 0.10,-0.34 0.12,-0.44 0.17,-0.53 0.22,-0.62 0.30,-0.69 0.38,-0.76 0.48,-0.80 0.58,-0.84 0.69,-0.85 0.79,-0.86 0.90,-0.83 1.00,-0.80 1.09,-0.75 1.18,-0.69 1.24,-0.60 1.31,-0.52 1.34,-0.42 1.38,-0.32 1.38,-0.21 1.38,-0.11 1.35,-0.01 1.31,0.08 1.25,0.17 1.19,0.26 1.10,0.32 1.01,0.38 0.91,0.41 0.81,0.44 0.70,0.43 0.60,0.43 0.50,0.39 0.40,0.35 0.27,0.21 0.14,0.08 0.12,0.00 0.09,-0.06 0.08,-0.14 0.07,-0.22 0.09,-0.30 0.10,-0.38 0.13,-0.45 0.16,-0.52 0.20,-0.59 0.25,-0.65 0.31,-0.70 0.37,-0.75 0.44,-0.79 0.51,-0.82 0.59,-0.84 0.66,-0.86 0.74,-0.86 0.82,-0.86 0.90,-0.84 0.98,-0.81 1.04,-0.78 1.11,-0.74 1.17,-0.68 1.23,-0.63 1.27,-0.57 1.32,-0.50 0.95,-0.39 0.58,-0.29 0.61,-0.21 0.64,-0.14 0.64,-0.06 0.65,0.01 0.64,0.09 0.63,0.16 0.60,0.24 0.57,0.31 0.52,0.38 0.48,0.44 0.42,0.49 0.36,0.54 0.29,0.58 0.22,0.61 0.14,0.63 0.06,0.65 -0.01,0.65 -0.09,0.65 -0.16,0.62 -0.24,0.60 -0.31,0.57 -0.38,0.53 -0.44,0.47 -0.50,0.42 -0.54,0.35 -0.58,0.29 -0.58,0.29 L -0.58,0.29 Z"/></g><g transform="translate(286.05218505859375 62.58135986328125) rotate(0 11.502166748046875 -0.5477294921875)" stroke="none"><path fill="#1e1e1e" d="M 0,-0.65 Q 0,-0.65 1.57,-1.22 3.14,-1.80 6.33,-1.81 9.52,-1.83 12.68,-2.10 15.84,-2.36 18.72,-2.45 21.59,-2.54 21.70,-2.55 21.81,-2.56 21.91,-2.53 22.01,-2.50 22.10,-2.44 22.19,-2.38 22.25,-2.30 22.32,-2.21 22.35,-2.11 22.38,-2.01 22.39,-1.91 22.39,-1.80 22.35,-1.70 22.32,-1.60 22.25,-1.51 22.19,-1.43 22.10,-1.37 22.01,-1.31 21.91,-1.28 21.81,-1.25 21.70,-1.26 21.60,-1.26 21.50,-1.30 21.40,-1.34 21.32,-1.41 21.24,-1.48 21.18,-1.57 21.13,-1.66 21.10,-1.76 21.08,-1.87 21.09,-1.97 21.10,-2.08 21.15,-2.17 21.19,-2.27 21.27,-2.35 21.34,-2.43 21.43,-2.48 21.53,-2.53 21.63,-2.54 21.74,-2.56 21.84,-2.54 21.95,-2.53 22.04,-2.48 22.13,-2.43 22.21,-2.35 22.28,-2.27 22.32,-2.18 22.37,-2.08 22.38,-1.98 22.39,-1.87 22.37,-1.77 22.35,-1.66 22.29,-1.57 22.24,-1.48 22.16,-1.41 22.08,-1.34 21.98,-1.30 21.88,-1.26 21.88,-1.26 21.88,-1.26 19.03,-0.08 16.18,1.10 12.85,1.47 9.52,1.83 6.33,1.81 3.14,1.80 1.57,1.22 0,0.65 -0.07,0.64 -0.15,0.63 -0.23,0.60 -0.30,0.58 -0.37,0.53 -0.43,0.49 -0.48,0.43 -0.54,0.37 -0.57,0.30 -0.61,0.23 -0.63,0.15 -0.65,0.07 -0.65,-0.00 -0.65,-0.07 -0.63,-0.15 -0.61,-0.23 -0.57,-0.30 -0.54,-0.37 -0.48,-0.43 -0.43,-0.49 -0.37,-0.53 -0.30,-0.58 -0.23,-0.60 -0.15,-0.63 -0.07,-0.64 0.00,-0.65 0.00,-0.65 L 0,-0.65 Z"/></g><g transform="translate(324.39276123046875 35.195220947265625) rotate(0 6.5726318359375 28.481582641601562)" stroke="none"><path fill="#1e1e1e" d="M 0.56,0.33 Q 0.56,0.33 0.08,2.18 -0.39,4.03 -1.62,8.00 -2.85,11.97 -3.69,18.60 -4.52,25.24 -4.58,29.87 -4.64,34.50 -4.02,36.47 -3.40,38.43 -0.39,38.10 2.62,37.76 5.48,37.09 8.35,36.43 10.84,36.93 13.33,37.42 14.88,39.76 16.43,42.10 17.29,45.72 18.15,49.34 18.63,51.70 19.12,54.06 19.92,55.52 20.73,56.98 20.78,57.07 20.84,57.16 20.87,57.26 20.89,57.36 20.88,57.47 20.88,57.58 20.83,57.67 20.79,57.77 20.72,57.85 20.65,57.93 20.56,57.98 20.46,58.03 20.36,58.05 20.26,58.07 20.15,58.06 20.05,58.04 19.95,58.00 19.85,57.95 19.78,57.88 19.70,57.80 19.66,57.70 19.61,57.61 19.60,57.50 19.58,57.40 19.60,57.29 19.62,57.19 19.67,57.10 19.73,57.01 19.81,56.93 19.89,56.86 19.98,56.82 20.08,56.78 20.19,56.77 20.29,56.76 20.40,56.79 20.50,56.81 20.59,56.87 20.68,56.93 20.74,57.01 20.81,57.09 20.85,57.19 20.88,57.29 20.89,57.40 20.89,57.51 20.86,57.61 20.83,57.71 20.76,57.80 20.70,57.88 20.62,57.94 20.53,58.01 20.43,58.04 20.33,58.07 20.22,58.07 20.11,58.06 20.01,58.03 19.91,57.99 19.83,57.92 19.75,57.86 19.75,57.86 19.75,57.86 17.97,56.43 16.19,55.01 15.37,52.60 14.55,50.19 13.82,47.04 13.10,43.90 12.40,42.17 11.70,40.44 10.38,40.26 9.06,40.07 5.92,40.78 2.78,41.48 -0.92,41.41 -4.62,41.33 -6.46,37.97 -8.31,34.61 -8.25,29.69 -8.18,24.77 -7.24,17.81 -6.30,10.86 -4.84,6.56 -3.38,2.26 -1.97,0.96 -0.56,-0.33 -0.51,-0.40 -0.46,-0.46 -0.40,-0.51 -0.34,-0.56 -0.26,-0.59 -0.19,-0.62 -0.11,-0.64 -0.04,-0.65 0.03,-0.65 0.11,-0.64 0.19,-0.62 0.26,-0.59 0.33,-0.55 0.40,-0.51 0.45,-0.46 0.51,-0.40 0.55,-0.33 0.59,-0.27 0.62,-0.19 0.64,-0.12 0.65,-0.04 0.65,0.03 0.64,0.11 0.62,0.19 0.59,0.26 0.56,0.33 0.56,0.33 L 0.56,0.33 Z"/></g><g transform="translate(355.065185546875 37.3861083984375) rotate(0 6.57269287109375 29.029296875)" stroke="none"><path fill="#1e1e1e" d="M 0.42,-0.49 Q 0.42,-0.49 3.04,0.92 5.66,2.34 8.03,5.85 10.41,9.36 11.75,12.53 13.09,15.69 13.38,22.63 13.67,29.58 13.12,35.66 12.57,41.75 11.31,46.02 10.05,50.29 7.86,53.57 5.68,56.84 5.62,56.93 5.56,57.02 5.47,57.08 5.39,57.14 5.29,57.18 5.19,57.21 5.08,57.21 4.97,57.21 4.87,57.17 4.77,57.14 4.69,57.07 4.60,57.01 4.55,56.92 4.49,56.83 4.46,56.73 4.43,56.62 4.44,56.52 4.45,56.41 4.49,56.31 4.53,56.22 4.60,56.14 4.67,56.06 4.76,56.00 4.85,55.95 4.95,55.93 5.06,55.90 5.16,55.92 5.27,55.93 5.36,55.98 5.46,56.02 5.54,56.09 5.61,56.17 5.66,56.26 5.71,56.36 5.73,56.46 5.74,56.57 5.72,56.67 5.71,56.78 5.66,56.87 5.60,56.96 5.53,57.04 5.45,57.11 5.35,57.15 5.26,57.20 5.15,57.21 5.04,57.22 4.94,57.19 4.84,57.17 4.75,57.11 4.66,57.06 4.59,56.97 4.52,56.89 4.48,56.79 4.44,56.70 4.44,56.59 4.43,56.48 4.46,56.38 4.49,56.28 4.49,56.28 4.49,56.28 5.53,52.78 6.56,49.29 7.64,45.34 8.73,41.39 9.26,35.55 9.78,29.70 9.64,23.40 9.50,17.09 8.34,14.29 7.19,11.48 5.17,8.34 3.15,5.21 1.36,2.85 -0.42,0.49 -0.48,0.44 -0.53,0.38 -0.57,0.31 -0.61,0.24 -0.63,0.16 -0.65,0.08 -0.65,0.01 -0.65,-0.06 -0.63,-0.14 -0.61,-0.22 -0.58,-0.29 -0.54,-0.36 -0.49,-0.42 -0.44,-0.48 -0.37,-0.53 -0.31,-0.57 -0.24,-0.60 -0.16,-0.63 -0.08,-0.64 -0.01,-0.65 0.06,-0.64 0.14,-0.64 0.22,-0.61 0.29,-0.58 0.36,-0.54 0.42,-0.49 0.42,-0.49 L 0.42,-0.49 Z"/></g><g transform="translate(475.56414794921875 62.58135986328125) rotate(0 4.38177490234375 15.336227416992188)" stroke="none"><path fill="#1e1e1e" d="M -0.58,-0.29 Q -0.58,-0.29 -0.25,-1.69 0.06,-3.10 0.23,-4.32 0.39,-5.54 0.49,-5.70 0.60,-5.86 0.74,-5.99 0.88,-6.12 1.04,-6.21 1.21,-6.30 1.39,-6.35 1.57,-6.39 1.76,-6.40 1.95,-6.40 2.13,-6.36 2.32,-6.32 2.48,-6.23 2.65,-6.15 2.80,-6.03 2.94,-5.91 3.05,-5.75 3.16,-5.60 3.23,-5.42 3.30,-5.25 3.33,-5.06 3.35,-4.88 3.34,-4.69 3.32,-4.50 3.25,-4.32 3.19,-4.15 4.17,1.19 5.16,6.53 5.77,11.84 6.37,17.16 7.23,21.54 8.10,25.93 8.53,30.52 8.97,35.12 8.97,35.22 8.98,35.33 8.95,35.43 8.92,35.54 8.86,35.62 8.80,35.71 8.72,35.78 8.63,35.84 8.53,35.87 8.43,35.91 8.32,35.91 8.22,35.91 8.12,35.87 8.02,35.84 7.93,35.77 7.85,35.71 7.79,35.62 7.73,35.53 7.70,35.43 7.67,35.33 7.68,35.22 7.68,35.12 7.72,35.02 7.76,34.92 7.83,34.84 7.90,34.76 7.99,34.70 8.08,34.65 8.19,34.63 8.29,34.60 8.39,34.61 8.50,34.63 8.60,34.67 8.69,34.72 8.77,34.79 8.85,34.86 8.90,34.96 8.95,35.05 8.96,35.15 8.98,35.26 8.96,35.36 8.95,35.47 8.90,35.56 8.85,35.66 8.77,35.73 8.69,35.80 8.60,35.85 8.50,35.89 8.39,35.90 8.29,35.91 8.18,35.89 8.08,35.87 7.99,35.81 7.90,35.76 7.83,35.68 7.76,35.60 7.72,35.50 7.68,35.40 7.68,35.40 7.68,35.40 6.15,31.01 4.61,26.62 3.70,22.09 2.79,17.57 2.19,12.29 1.59,7.01 0.93,1.97 0.27,-3.06 0.33,-4.30 0.39,-5.54 0.49,-5.70 0.60,-5.86 0.74,-5.99 0.88,-6.12 1.04,-6.21 1.21,-6.30 1.39,-6.35 1.57,-6.39 1.76,-6.40 1.95,-6.40 2.13,-6.36 2.32,-6.32 2.48,-6.23 2.65,-6.15 2.80,-6.03 2.94,-5.91 3.05,-5.75 3.16,-5.60 3.23,-5.42 3.30,-5.25 3.33,-5.06 3.35,-4.88 3.34,-4.69 3.32,-4.50 3.25,-4.32 3.19,-4.15 2.82,-3.04 2.45,-1.93 1.51,-0.82 0.58,0.29 0.54,0.35 0.49,0.42 0.44,0.47 0.38,0.53 0.31,0.57 0.24,0.60 0.16,0.62 0.09,0.65 0.01,0.65 -0.06,0.65 -0.14,0.63 -0.22,0.61 -0.29,0.58 -0.36,0.54 -0.42,0.49 -0.48,0.44 -0.52,0.38 -0.57,0.31 -0.60,0.24 -0.63,0.16 -0.64,0.09 -0.65,0.01 -0.64,-0.06 -0.64,-0.14 -0.61,-0.21 -0.58,-0.29 -0.58,-0.29 L -0.58,-0.29 Z"/></g><g transform="translate(486.51861572265625 65.86770629882812) rotate(0 1.6431884765625 15.336227416992188)" stroke="none"><path fill="#1e1e1e" d="M 0.65,0 Q 0.65,0 1.18,3.77 1.71,7.55 1.72,11.36 1.72,15.17 1.99,19.24 2.25,23.31 2.84,26.22 3.42,29.14 3.44,29.24 3.46,29.35 3.44,29.45 3.43,29.56 3.38,29.65 3.34,29.75 3.26,29.82 3.19,29.90 3.09,29.94 2.99,29.99 2.89,30.01 2.78,30.02 2.68,30.00 2.58,29.98 2.48,29.93 2.39,29.88 2.32,29.80 2.25,29.72 2.21,29.62 2.16,29.52 2.16,29.42 2.15,29.31 2.17,29.21 2.20,29.11 2.26,29.02 2.31,28.93 2.40,28.86 2.48,28.79 2.58,28.76 2.68,28.72 2.78,28.72 2.89,28.71 2.99,28.74 3.09,28.78 3.18,28.84 3.27,28.90 3.33,28.99 3.39,29.07 3.42,29.17 3.45,29.28 3.45,29.38 3.45,29.49 3.41,29.59 3.37,29.69 3.31,29.77 3.24,29.85 3.15,29.91 3.06,29.97 2.96,29.99 2.86,30.02 2.75,30.01 2.64,30.00 2.55,29.96 2.45,29.92 2.37,29.85 2.29,29.78 2.24,29.68 2.19,29.59 2.19,29.59 2.19,29.59 0.59,26.59 -0.99,23.59 -1.36,19.38 -1.72,15.18 -1.72,11.36 -1.71,7.55 -1.18,3.77 -0.65,0 -0.64,-0.07 -0.63,-0.15 -0.60,-0.23 -0.58,-0.30 -0.53,-0.37 -0.49,-0.43 -0.43,-0.48 -0.37,-0.54 -0.30,-0.57 -0.23,-0.61 -0.15,-0.63 -0.07,-0.65 0.00,-0.65 0.07,-0.65 0.15,-0.63 0.23,-0.61 0.30,-0.57 0.37,-0.54 0.43,-0.48 0.49,-0.43 0.53,-0.37 0.58,-0.30 0.60,-0.23 0.63,-0.15 0.64,-0.07 0.65,0.00 0.65,0.00 L 0.65,0 Z"/></g><g transform="translate(463.51422119140625 58.1995849609375) rotate(0 19.17034912109375 0.5477142333984375)" stroke="none"><path fill="#1e1e1e" d="M 0.09,-0.65 Q 0.09,-0.65 2.37,-0.89 4.66,-1.14 8.33,-1.02 12.01,-0.91 16.11,-0.85 20.22,-0.79 24.79,-0.62 29.37,-0.44 33.49,-0.00 37.62,0.43 37.72,0.44 37.82,0.46 37.92,0.51 38.01,0.56 38.08,0.64 38.16,0.72 38.20,0.81 38.25,0.91 38.26,1.02 38.27,1.12 38.25,1.23 38.22,1.33 38.17,1.42 38.11,1.51 38.03,1.58 37.95,1.65 37.85,1.69 37.75,1.73 37.65,1.73 37.54,1.74 37.44,1.71 37.33,1.68 37.25,1.62 37.16,1.56 37.10,1.47 37.03,1.39 37.00,1.29 36.96,1.19 36.96,1.08 36.97,0.98 37.00,0.87 37.03,0.77 37.10,0.69 37.16,0.61 37.25,0.55 37.34,0.49 37.44,0.46 37.54,0.43 37.65,0.44 37.76,0.44 37.85,0.48 37.95,0.52 38.03,0.59 38.11,0.66 38.17,0.75 38.22,0.84 38.25,0.95 38.27,1.05 38.26,1.16 38.24,1.26 38.20,1.36 38.15,1.45 38.08,1.53 38.01,1.61 37.91,1.66 37.82,1.71 37.72,1.72 37.61,1.74 37.61,1.74 37.61,1.74 33.48,2.15 29.36,2.56 24.76,2.69 20.17,2.82 16.02,2.76 11.88,2.70 8.02,2.55 4.15,2.40 2.03,1.52 -0.09,0.65 -0.16,0.62 -0.24,0.60 -0.31,0.57 -0.38,0.53 -0.44,0.47 -0.50,0.42 -0.54,0.35 -0.58,0.29 -0.61,0.21 -0.64,0.14 -0.64,0.06 -0.65,-0.01 -0.64,-0.09 -0.63,-0.17 -0.60,-0.24 -0.57,-0.31 -0.52,-0.38 -0.48,-0.44 -0.42,-0.49 -0.36,-0.54 -0.29,-0.58 -0.21,-0.61 -0.14,-0.63 -0.06,-0.65 0.01,-0.65 0.09,-0.65 0.09,-0.65 L 0.09,-0.65 Z"/></g><g transform="translate(529.2410278320312 62.58135986328125) rotate(0 -0.5477294921875 2.190887451171875)" stroke="none"><path fill="#1e1e1e" d="M 0.65,0 Q 0.65,0 1.18,0.31 1.71,0.62 1.18,2.24 0.65,3.86 0.63,3.97 0.62,4.07 0.57,4.16 0.52,4.26 0.44,4.33 0.36,4.40 0.27,4.45 0.17,4.49 0.07,4.51 -0.03,4.52 -0.13,4.49 -0.24,4.47 -0.33,4.42 -0.42,4.36 -0.49,4.28 -0.56,4.20 -0.60,4.10 -0.64,4.00 -0.64,3.90 -0.65,3.79 -0.62,3.69 -0.59,3.59 -0.53,3.50 -0.47,3.41 -0.39,3.35 -0.30,3.28 -0.20,3.25 -0.10,3.21 0.00,3.21 0.10,3.21 0.20,3.25 0.30,3.28 0.39,3.35 0.47,3.41 0.53,3.50 0.59,3.59 0.62,3.69 0.65,3.79 0.64,3.90 0.64,4.00 0.60,4.10 0.56,4.20 0.49,4.28 0.42,4.36 0.33,4.42 0.24,4.47 0.13,4.49 0.03,4.52 -0.07,4.51 -0.17,4.49 -0.27,4.45 -0.36,4.40 -0.44,4.33 -0.52,4.26 -0.57,4.16 -0.62,4.07 -0.63,3.97 -0.65,3.86 -0.65,3.86 -0.65,3.86 -1.18,2.24 -1.71,0.62 -1.18,0.31 -0.65,0 -0.64,-0.07 -0.63,-0.15 -0.60,-0.23 -0.58,-0.30 -0.53,-0.37 -0.49,-0.43 -0.43,-0.48 -0.37,-0.54 -0.30,-0.57 -0.23,-0.61 -0.15,-0.63 -0.07,-0.65 0.00,-0.65 0.07,-0.65 0.15,-0.63 0.23,-0.61 0.30,-0.57 0.37,-0.54 0.43,-0.48 0.49,-0.43 0.53,-0.37 0.58,-0.30 0.60,-0.23 0.63,-0.15 0.64,-0.07 0.65,0.00 0.65,0.00 L 0.65,0 Z"/></g><g transform="translate(528.1455688476562 84.49026489257812) rotate(0 1.64312744140625 3.2863311767578125)" stroke="none"><path fill="#1e1e1e" d="M 0.20,-0.62 Q 0.20,-0.62 1.31,-0.79 2.41,-0.96 3.02,-0.88 3.63,-0.79 4.26,-0.76 4.88,-0.72 5.08,-0.66 5.29,-0.59 5.47,-0.48 5.65,-0.37 5.80,-0.22 5.95,-0.07 6.06,0.10 6.17,0.29 6.23,0.49 6.29,0.69 6.31,0.91 6.32,1.12 6.28,1.33 6.24,1.54 6.15,1.73 6.06,1.92 5.93,2.09 5.80,2.26 5.63,2.39 5.46,2.52 5.27,2.61 5.08,2.69 4.87,2.73 4.66,2.77 4.44,2.76 4.23,2.74 3.26,2.81 2.29,2.88 1.42,3.02 0.55,3.17 0.95,4.37 1.35,5.57 1.38,5.68 1.41,5.78 1.40,5.89 1.40,5.99 1.36,6.09 1.32,6.19 1.25,6.27 1.18,6.35 1.09,6.41 1.00,6.46 0.90,6.49 0.79,6.51 0.69,6.50 0.58,6.49 0.49,6.44 0.39,6.40 0.31,6.33 0.23,6.25 0.18,6.16 0.13,6.07 0.12,5.96 0.10,5.86 0.12,5.75 0.13,5.65 0.18,5.55 0.23,5.46 0.31,5.39 0.38,5.31 0.48,5.27 0.58,5.22 0.68,5.21 0.79,5.20 0.89,5.22 1.00,5.24 1.09,5.30 1.18,5.35 1.25,5.43 1.32,5.51 1.36,5.61 1.40,5.71 1.40,5.82 1.41,5.92 1.38,6.02 1.35,6.13 1.29,6.21 1.23,6.30 1.15,6.37 1.07,6.43 0.97,6.47 0.87,6.50 0.76,6.50 0.65,6.50 0.55,6.47 0.45,6.44 0.37,6.37 0.28,6.31 0.22,6.22 0.16,6.13 0.16,6.13 0.16,6.13 -1.11,4.27 -2.39,2.41 -1.77,1.33 -1.15,0.26 0.53,-0.22 2.22,-0.72 2.96,-0.71 3.71,-0.71 4.29,-0.72 4.88,-0.72 5.08,-0.66 5.29,-0.59 5.47,-0.48 5.65,-0.37 5.80,-0.22 5.95,-0.07 6.06,0.10 6.17,0.29 6.23,0.49 6.29,0.69 6.31,0.91 6.32,1.12 6.28,1.33 6.24,1.54 6.15,1.73 6.06,1.92 5.93,2.09 5.80,2.26 5.63,2.39 5.46,2.52 5.27,2.61 5.08,2.69 4.87,2.73 4.66,2.77 4.44,2.76 4.23,2.74 3.62,2.66 3.00,2.59 2.18,2.40 1.35,2.22 0.57,1.42 -0.20,0.62 -0.27,0.58 -0.35,0.55 -0.41,0.50 -0.47,0.45 -0.52,0.39 -0.56,0.32 -0.59,0.25 -0.63,0.18 -0.64,0.10 -0.65,0.02 -0.64,-0.05 -0.64,-0.13 -0.61,-0.20 -0.59,-0.28 -0.55,-0.34 -0.50,-0.41 -0.45,-0.46 -0.39,-0.52 -0.32,-0.56 -0.25,-0.60 -0.18,-0.62 -0.10,-0.64 -0.02,-0.65 0.05,-0.65 0.13,-0.63 0.20,-0.62 0.20,-0.62 L 0.20,-0.62 Z"/></g></svg>