<svg version="1.1" xmlns="http://www.w3.org/2000/svg" viewBox="0 0 1415.5971069335938 190.88943481445312" width="1415.5971069335938" height="190.88943481445312" class="excalidraw-svg">
  <!-- svg-source:excalidraw -->
  
  <defs>
    <style class="style-fonts">
      @font-face {
        font-family: "Virgil";
        src: url("https://excalidraw.com/Virgil.woff2");
      }
      @font-face {
        font-family: "Cascadia";
        src: url("https://excalidraw.com/Cascadia.woff2");
      }
      @font-face {
        font-family: "Assistant";
        src: url("https://excalidraw.com/Assistant-Regular.woff2");
      }
    </style>
    
  </defs>
  <rect x="0" y="0" width="1415.5971069335938" height="190.88943481445312" fill="#ffffff"/><g transform="translate(92.15838623046875 54.91325378417969) rotate(0 29.029296875 -13.145339965820312)" stroke="none"><path fill="#1e1e1e" d="M 0.36,-0.54 Q 0.36,-0.54 1.63,-0.13 2.90,0.27 3.55,2.44 4.20,4.61 4.42,7.40 4.63,10.18 4.70,12.28 4.78,14.38 5.10,15.37 5.41,16.36 5.58,16.57 5.75,16.78 5.78,16.97 5.81,17.17 5.80,17.37 5.78,17.57 5.72,17.76 5.65,17.95 5.55,18.11 5.44,18.28 5.30,18.42 5.15,18.56 4.98,18.66 4.81,18.76 4.61,18.81 4.42,18.87 4.22,18.88 4.02,18.88 3.83,18.84 3.63,18.80 3.45,18.72 3.27,18.63 3.12,18.50 2.97,18.38 2.85,18.22 2.73,18.06 2.65,17.88 2.57,17.69 2.93,15.49 3.29,13.28 4.39,6.87 5.48,0.46 6.58,-6.35 7.68,-13.17 8.77,-19.24 9.87,-25.31 10.63,-29.16 11.40,-33.01 11.76,-35.00 12.12,-36.99 13.26,-38.27 14.40,-39.55 16.41,-39.77 18.42,-40.00 22.51,-40.33 26.60,-40.66 31.07,-41.72 35.53,-42.79 39.68,-43.88 43.83,-44.96 47.85,-44.78 51.87,-44.59 54.19,-42.72 56.51,-40.85 57.52,-37.93 58.53,-35.00 58.84,-32.50 59.14,-30.00 58.88,-27.59 58.62,-25.18 58.61,-25.07 58.60,-24.97 58.56,-24.87 58.52,-24.77 58.45,-24.69 58.38,-24.61 58.29,-24.56 58.19,-24.51 58.09,-24.49 57.99,-24.46 57.88,-24.48 57.77,-24.49 57.68,-24.54 57.58,-24.58 57.51,-24.66 57.43,-24.73 57.38,-24.83 57.34,-24.92 57.32,-25.03 57.31,-25.13 57.33,-25.24 57.35,-25.34 57.40,-25.44 57.45,-25.53 57.53,-25.60 57.61,-25.67 57.70,-25.71 57.80,-25.76 57.91,-25.77 58.01,-25.78 58.12,-25.75 58.22,-25.73 58.31,-25.67 58.40,-25.61 58.47,-25.53 58.53,-25.45 58.57,-25.35 58.61,-25.25 58.61,-25.14 58.61,-25.04 58.58,-24.93 58.55,-24.83 58.49,-24.75 58.43,-24.66 58.34,-24.60 58.26,-24.53 58.16,-24.50 58.06,-24.47 57.95,-24.47 57.84,-24.48 57.74,-24.51 57.64,-24.55 57.56,-24.61 57.48,-24.68 57.42,-24.77 57.36,-24.86 57.34,-24.96 57.31,-25.06 57.31,-25.06 57.31,-25.06 56.64,-27.31 55.97,-29.55 55.60,-31.77 55.23,-33.99 54.65,-36.24 54.07,-38.49 52.66,-39.91 51.24,-41.33 47.95,-41.48 44.65,-41.63 40.49,-40.53 36.32,-39.44 31.60,-38.33 26.88,-37.23 22.69,-36.89 18.50,-36.56 17.34,-36.72 16.18,-36.87 15.77,-36.50 15.37,-36.12 15.06,-34.23 14.76,-32.33 13.96,-28.52 13.17,-24.71 12.07,-18.67 10.97,-12.64 9.87,-5.80 8.77,1.03 7.65,7.49 6.54,13.96 6.15,15.37 5.75,16.78 5.78,16.97 5.81,17.17 5.80,17.37 5.78,17.57 5.72,17.76 5.65,17.95 5.55,18.11 5.44,18.28 5.30,18.42 5.15,18.56 4.98,18.66 4.81,18.76 4.61,18.81 4.42,18.87 4.22,18.88 4.02,18.88 3.83,18.84 3.63,18.80 3.45,18.72 3.27,18.63 3.12,18.51 2.97,18.38 2.85,18.22 2.73,18.06 2.65,17.88 2.57,17.69 2.44,17.51 2.32,17.33 1.94,15.92 1.57,14.51 1.50,12.45 1.43,10.39 1.30,7.83 1.17,5.27 1.02,3.76 0.87,2.24 0.25,1.39 -0.36,0.54 -0.42,0.49 -0.48,0.44 -0.53,0.37 -0.57,0.31 -0.60,0.24 -0.63,0.16 -0.64,0.08 -0.65,0.01 -0.64,-0.06 -0.64,-0.14 -0.61,-0.22 -0.58,-0.29 -0.54,-0.36 -0.49,-0.42 -0.44,-0.48 -0.38,-0.53 -0.31,-0.57 -0.24,-0.61 -0.16,-0.63 -0.08,-0.65 -0.01,-0.65 0.06,-0.65 0.14,-0.63 0.22,-0.61 0.29,-0.58 0.36,-0.54 0.36,-0.54 L 0.36,-0.54 Z"/></g><g transform="translate(133.78533935546875 35.19523620605469) rotate(0 -1.095428466796875 18.07483673095703)" stroke="none"><path fill="#1e1e1e" d="M -0.58,0.29 Q -0.58,0.29 -1.51,-0.74 -2.44,-1.79 -3.05,-2.04 -3.66,-2.30 -4.88,-2.10 -6.11,-1.90 -7.07,-1.04 -8.04,-0.18 -9.10,1.06 -10.16,2.30 -10.55,3.07 -10.93,3.84 -9.89,5.49 -8.85,7.14 -7.20,9.49 -5.55,11.85 -3.57,14.44 -1.60,17.02 0.49,19.70 2.59,22.37 4.18,24.84 5.76,27.32 6.52,29.84 7.27,32.36 6.94,35.24 6.61,38.12 5.41,40.75 4.22,43.37 2.40,44.72 0.57,46.06 -1.72,45.75 -4.02,45.45 -5.69,42.54 -7.36,39.64 -7.67,36.31 -7.98,32.98 -6.77,29.47 -5.55,25.96 -3.08,22.23 -0.60,18.50 1.68,15.38 3.98,12.27 5.53,9.76 7.08,7.25 7.66,5.41 8.25,3.57 8.17,1.12 8.10,-1.32 7.23,-3.08 6.37,-4.83 5.24,-5.76 4.12,-6.68 3.14,-7.06 2.16,-7.43 1.39,-6.91 0.63,-6.38 -0.30,-5.09 -1.24,-3.81 -1.30,-3.72 -1.36,-3.63 -1.44,-3.56 -1.52,-3.50 -1.62,-3.46 -1.72,-3.42 -1.83,-3.42 -1.94,-3.42 -2.04,-3.45 -2.14,-3.48 -2.22,-3.54 -2.31,-3.61 -2.37,-3.69 -2.43,-3.78 -2.47,-3.88 -2.50,-3.98 -2.49,-4.09 -2.49,-4.19 -2.45,-4.29 -2.42,-4.39 -2.35,-4.48 -2.28,-4.56 -2.19,-4.62 -2.10,-4.67 -2.00,-4.70 -1.90,-4.72 -1.79,-4.71 -1.69,-4.71 -1.59,-4.66 -1.49,-4.62 -1.41,-4.55 -1.33,-4.48 -1.28,-4.39 -1.23,-4.29 -1.21,-4.19 -1.19,-4.08 -1.20,-3.98 -1.22,-3.87 -1.27,-3.78 -1.31,-3.68 -1.39,-3.61 -1.46,-3.53 -1.56,-3.49 -1.65,-3.44 -1.76,-3.43 -1.86,-3.41 -1.97,-3.43 -2.07,-3.45 -2.17,-3.51 -2.26,-3.56 -2.33,-3.64 -2.40,-3.72 -2.44,-3.81 -2.48,-3.91 -2.49,-4.02 -2.50,-4.12 -2.47,-4.23 -2.45,-4.33 -2.45,-4.33 -2.45,-4.33 -1.85,-6.62 -1.24,-8.90 0.54,-9.82 2.33,-10.75 4.38,-10.09 6.44,-9.44 8.02,-7.93 9.59,-6.43 10.64,-3.95 11.69,-1.48 11.67,1.57 11.65,4.63 10.87,6.87 10.10,9.10 8.46,11.73 6.82,14.36 4.57,17.41 2.32,20.47 0.03,23.83 -2.25,27.20 -3.36,30.02 -4.47,32.84 -4.32,35.50 -4.16,38.17 -3.26,40.48 -2.36,42.79 -1.57,42.90 -0.79,43.01 0.20,42.36 1.20,41.71 2.20,39.66 3.19,37.60 3.57,35.39 3.95,33.18 3.41,31.14 2.87,29.10 1.41,26.77 -0.05,24.44 -2.15,21.74 -4.26,19.04 -6.25,16.38 -8.24,13.72 -10.00,11.15 -11.75,8.59 -12.80,6.06 -13.85,3.53 -13.22,1.88 -12.59,0.24 -11.26,-1.23 -9.94,-2.72 -8.25,-3.82 -6.56,-4.93 -4.50,-4.90 -2.44,-4.87 -1.26,-4.06 -0.07,-3.24 0.25,-1.77 0.58,-0.29 0.61,-0.21 0.64,-0.14 0.64,-0.06 0.65,0.01 0.64,0.09 0.63,0.16 0.60,0.24 0.57,0.31 0.52,0.38 0.48,0.44 0.42,0.49 0.36,0.54 0.29,0.58 0.22,0.61 0.14,0.63 0.06,0.65 -0.01,0.65 -0.09,0.65 -0.16,0.62 -0.24,0.60 -0.31,0.57 -0.38,0.53 -0.44,0.47 -0.50,0.42 -0.54,0.35 -0.58,0.29 -0.58,0.29 L -0.58,0.29 Z"/></g><g transform="translate(232.3753662109375 74.63125610351562) rotate(0 15.33624267578125 -17.527114868164062)" stroke="none"><path fill="#1e1e1e" d="M -0.46,-0.46 Q -0.46,-0.46 0.20,-1.68 0.88,-2.89 2.81,-5.15 4.75,-7.41 6.83,-9.94 8.92,-12.48 11.08,-15.13 13.23,-17.78 16.07,-20.83 18.92,-23.88 20.68,-26.35 22.45,-28.82 23.84,-30.83 25.24,-32.84 25.75,-34.48 26.26,-36.11 26.83,-37.55 27.40,-39.00 27.59,-39.83 27.77,-40.66 27.89,-41.41 28.02,-42.16 28.27,-42.33 28.53,-42.51 28.58,-42.70 28.64,-42.89 28.73,-43.06 28.83,-43.23 28.96,-43.37 29.09,-43.52 29.26,-43.62 29.42,-43.73 29.60,-43.80 29.79,-43.86 29.98,-43.88 30.18,-43.90 30.37,-43.87 30.56,-43.84 30.74,-43.77 30.93,-43.69 31.08,-43.58 31.24,-43.46 31.37,-43.31 31.49,-43.16 31.58,-42.99 31.67,-42.81 31.71,-42.62 31.75,-42.43 31.75,-42.24 31.74,-42.04 31.57,-41.40 31.41,-40.76 31.08,-37.25 30.76,-33.73 29.97,-28.97 29.18,-24.20 28.53,-19.39 27.89,-14.58 27.29,-9.08 26.69,-3.59 26.04,-0.26 25.39,3.06 25.05,4.90 24.70,6.75 24.69,6.86 24.68,6.96 24.64,7.06 24.59,7.15 24.52,7.23 24.44,7.31 24.35,7.36 24.26,7.41 24.15,7.42 24.05,7.44 23.94,7.42 23.84,7.41 23.74,7.36 23.65,7.31 23.58,7.23 23.50,7.15 23.46,7.06 23.42,6.96 23.40,6.85 23.39,6.75 23.42,6.64 23.44,6.54 23.49,6.45 23.55,6.36 23.63,6.29 23.71,6.22 23.81,6.18 23.91,6.14 24.01,6.14 24.12,6.13 24.22,6.16 24.32,6.19 24.41,6.25 24.50,6.31 24.56,6.39 24.63,6.48 24.66,6.58 24.70,6.68 24.70,6.79 24.70,6.89 24.66,6.99 24.63,7.09 24.56,7.18 24.50,7.26 24.41,7.32 24.32,7.38 24.22,7.41 24.12,7.44 24.01,7.43 23.91,7.43 23.81,7.39 23.71,7.35 23.63,7.28 23.55,7.21 23.49,7.12 23.44,7.03 23.42,6.92 23.39,6.82 23.39,6.82 23.39,6.82 22.84,4.68 22.29,2.54 22.77,-0.70 23.25,-3.96 23.84,-9.50 24.42,-15.05 25.08,-19.91 25.74,-24.78 26.53,-29.44 27.33,-34.09 27.93,-38.30 28.53,-42.51 28.58,-42.70 28.64,-42.89 28.73,-43.06 28.83,-43.23 28.96,-43.37 29.09,-43.52 29.26,-43.62 29.42,-43.73 29.60,-43.79 29.79,-43.86 29.98,-43.88 30.18,-43.90 30.37,-43.87 30.56,-43.84 30.74,-43.77 30.93,-43.69 31.08,-43.58 31.24,-43.46 31.37,-43.31 31.49,-43.16 31.58,-42.99 31.67,-42.81 31.71,-42.62 31.75,-42.43 31.75,-42.24 31.74,-42.04 31.28,-41.62 30.83,-41.20 30.74,-40.55 30.66,-39.90 30.36,-38.91 30.06,-37.92 29.50,-36.57 28.93,-35.22 28.25,-33.25 27.57,-31.27 26.15,-29.23 24.74,-27.18 22.86,-24.57 20.98,-21.96 18.22,-18.97 15.45,-15.98 13.30,-13.31 11.15,-10.65 9.04,-8.09 6.93,-5.53 4.91,-3.20 2.89,-0.88 1.68,-0.20 0.46,0.46 0.40,0.51 0.33,0.56 0.26,0.59 0.19,0.62 0.11,0.64 0.03,0.65 -0.03,0.65 -0.11,0.64 -0.19,0.62 -0.26,0.59 -0.33,0.55 -0.40,0.51 -0.46,0.46 -0.51,0.40 -0.55,0.33 -0.59,0.26 -0.62,0.19 -0.64,0.11 -0.65,0.03 -0.65,-0.03 -0.64,-0.11 -0.62,-0.19 -0.59,-0.26 -0.56,-0.33 -0.51,-0.40 -0.46,-0.46 -0.46,-0.46 L -0.46,-0.46 Z"/></g><g transform="translate(64.77227783203125 148.02609252929688) rotate(0 9.8590087890625 1.643157958984375)" stroke="none"><path fill="#1e1e1e" d="M 0.54,-0.36 Q 0.54,-0.36 1.43,0.29 2.31,0.95 3.24,1.08 4.16,1.20 5.77,1.33 7.37,1.46 9.23,1.26 11.08,1.06 14.62,1.33 18.16,1.59 18.26,1.61 18.37,1.62 18.46,1.67 18.56,1.71 18.64,1.79 18.71,1.86 18.76,1.95 18.81,2.05 18.83,2.15 18.84,2.26 18.82,2.36 18.81,2.47 18.75,2.56 18.70,2.65 18.63,2.73 18.55,2.80 18.45,2.84 18.35,2.89 18.25,2.90 18.14,2.91 18.04,2.88 17.94,2.86 17.85,2.80 17.75,2.75 17.69,2.66 17.62,2.58 17.58,2.48 17.54,2.38 17.54,2.28 17.53,2.17 17.56,2.07 17.59,1.97 17.65,1.88 17.71,1.79 17.80,1.73 17.89,1.67 17.99,1.63 18.09,1.60 18.19,1.60 18.30,1.60 18.40,1.64 18.50,1.67 18.58,1.74 18.67,1.80 18.73,1.89 18.79,1.98 18.81,2.08 18.84,2.19 18.83,2.29 18.83,2.40 18.78,2.50 18.74,2.60 18.67,2.68 18.60,2.76 18.51,2.81 18.42,2.86 18.32,2.89 18.21,2.91 18.21,2.91 18.21,2.91 14.83,3.47 11.44,4.03 9.26,4.31 7.09,4.60 5.14,4.39 3.20,4.17 1.70,3.50 0.20,2.82 -0.17,1.59 -0.54,0.36 -0.58,0.29 -0.61,0.22 -0.63,0.14 -0.65,0.06 -0.65,-0.01 -0.65,-0.08 -0.63,-0.16 -0.61,-0.24 -0.57,-0.31 -0.53,-0.38 -0.48,-0.44 -0.42,-0.49 -0.36,-0.54 -0.29,-0.58 -0.22,-0.61 -0.14,-0.64 -0.06,-0.64 0.01,-0.65 0.08,-0.64 0.16,-0.63 0.24,-0.60 0.31,-0.57 0.37,-0.53 0.44,-0.48 0.49,-0.42 0.54,-0.36 0.54,-0.36 L 0.54,-0.36 Z"/></g><g transform="translate(99.8265380859375 165.55322265625) rotate(0 10.954437255859375 -13.693069458007812)" stroke="none"><path fill="#1e1e1e" d="M 0.63,0.15 Q 0.63,0.15 0.68,1.25 0.74,2.34 0.98,2.84 1.23,3.33 1.16,3.50 1.09,3.68 0.99,3.83 0.88,3.98 0.74,4.11 0.60,4.23 0.44,4.31 0.27,4.40 0.09,4.44 -0.08,4.49 -0.27,4.49 -0.45,4.49 -0.63,4.44 -0.82,4.40 -0.98,4.31 -1.14,4.22 -1.28,4.10 -1.42,3.98 -1.53,3.82 -1.63,3.67 -1.70,3.49 -1.76,3.32 -1.78,3.13 -1.81,2.95 -1.78,2.77 -1.76,2.58 -0.97,1.20 -0.19,-0.18 1.73,-2.64 3.66,-5.11 6.62,-9.54 9.59,-13.97 11.50,-16.81 13.40,-19.66 15.17,-22.15 16.93,-24.64 17.91,-26.82 18.90,-29.01 19.60,-31.17 20.30,-33.34 20.28,-34.32 20.26,-35.29 20.35,-35.48 20.44,-35.67 20.57,-35.83 20.70,-35.99 20.87,-36.11 21.04,-36.23 21.23,-36.31 21.42,-36.39 21.63,-36.42 21.83,-36.46 22.04,-36.44 22.24,-36.42 22.44,-36.35 22.64,-36.29 22.81,-36.17 22.99,-36.06 23.13,-35.91 23.27,-35.76 23.37,-35.58 23.48,-35.40 23.53,-35.20 23.59,-35.00 23.60,-34.79 23.60,-34.59 23.56,-34.38 23.52,-34.18 22.87,-32.64 22.23,-31.10 21.38,-27.45 20.53,-23.81 19.52,-18.77 18.51,-13.73 17.60,-7.26 16.69,-0.78 16.02,1.96 15.36,4.71 15.33,4.81 15.30,4.91 15.24,5.00 15.18,5.09 15.09,5.15 15.01,5.22 14.91,5.25 14.81,5.28 14.70,5.28 14.59,5.28 14.49,5.25 14.39,5.21 14.31,5.15 14.22,5.08 14.17,5.00 14.11,4.91 14.08,4.80 14.05,4.70 14.06,4.60 14.06,4.49 14.10,4.39 14.14,4.29 14.21,4.21 14.28,4.13 14.37,4.08 14.46,4.02 14.57,4.00 14.67,3.98 14.78,3.99 14.88,4.00 14.98,4.05 15.07,4.09 15.15,4.17 15.23,4.24 15.28,4.33 15.33,4.43 15.34,4.53 15.36,4.64 15.34,4.74 15.32,4.85 15.27,4.94 15.22,5.03 15.15,5.11 15.07,5.18 14.97,5.22 14.88,5.27 14.77,5.28 14.66,5.29 14.56,5.27 14.46,5.24 14.37,5.19 14.28,5.13 14.21,5.05 14.14,4.97 14.10,4.87 14.06,4.77 14.06,4.67 14.05,4.56 14.05,4.56 14.05,4.56 14.02,1.73 13.98,-1.09 14.56,-7.74 15.14,-14.40 16.15,-19.50 17.16,-24.60 18.10,-28.52 19.05,-32.43 19.65,-33.86 20.26,-35.29 20.35,-35.48 20.44,-35.67 20.57,-35.83 20.70,-35.99 20.87,-36.11 21.04,-36.23 21.23,-36.31 21.42,-36.39 21.63,-36.42 21.83,-36.46 22.04,-36.44 22.24,-36.42 22.44,-36.35 22.64,-36.29 22.81,-36.17 22.99,-36.06 23.13,-35.91 23.27,-35.76 23.37,-35.58 23.48,-35.40 23.53,-35.20 23.59,-35.00 23.60,-34.79 23.60,-34.59 23.56,-34.38 23.52,-34.18 23.48,-33.25 23.44,-32.32 22.61,-30.01 21.77,-27.69 20.64,-25.26 19.50,-22.82 17.75,-20.37 16.01,-17.92 14.10,-15.07 12.20,-12.22 9.16,-7.69 6.13,-3.17 4.30,-0.86 2.48,1.44 1.85,2.38 1.23,3.33 1.16,3.50 1.09,3.68 0.99,3.83 0.88,3.98 0.74,4.11 0.60,4.23 0.44,4.31 0.27,4.40 0.09,4.44 -0.08,4.49 -0.27,4.49 -0.45,4.49 -0.63,4.44 -0.81,4.40 -0.98,4.31 -1.14,4.22 -1.28,4.10 -1.42,3.98 -1.53,3.82 -1.63,3.67 -1.70,3.49 -1.76,3.32 -1.78,3.14 -1.81,2.95 -1.78,2.77 -1.76,2.58 -1.88,2.63 -2.00,2.69 -1.31,1.26 -0.63,-0.15 -0.60,-0.23 -0.58,-0.30 -0.53,-0.37 -0.49,-0.43 -0.43,-0.48 -0.37,-0.54 -0.30,-0.57 -0.23,-0.61 -0.15,-0.63 -0.07,-0.65 0.00,-0.65 0.08,-0.65 0.15,-0.63 0.23,-0.61 0.30,-0.57 0.37,-0.53 0.43,-0.48 0.49,-0.43 0.53,-0.36 0.58,-0.30 0.61,-0.22 0.63,-0.15 0.64,-0.07 0.65,0.00 0.64,0.08 0.63,0.15 0.63,0.15 L 0.63,0.15 Z"/></g><g transform="translate(222.516357421875 158.98052978515625) rotate(0 32.315643310546875 -14.24078369140625)" stroke="none"><path fill="#1e1e1e" d="M 0,-0.65 Q 0,-0.65 1.54,-0.61 3.09,-0.58 3.68,1.43 4.26,3.44 4.46,4.95 4.66,6.46 4.44,8.82 4.21,11.19 4.12,12.44 4.02,13.68 3.98,13.88 3.93,14.08 3.84,14.26 3.74,14.44 3.61,14.60 3.48,14.75 3.31,14.87 3.14,14.99 2.95,15.06 2.76,15.14 2.56,15.16 2.36,15.19 2.15,15.17 1.95,15.15 1.76,15.07 1.57,15.00 1.40,14.89 1.23,14.78 1.09,14.62 0.95,14.47 0.85,14.29 0.76,14.11 0.71,13.91 0.66,13.72 0.65,13.51 0.65,13.31 1.61,12.70 2.58,12.10 3.11,10.13 3.65,8.16 5.57,1.61 7.49,-4.93 8.94,-11.78 10.38,-18.62 11.63,-24.40 12.88,-30.17 13.73,-33.60 14.58,-37.02 15.34,-39.24 16.09,-41.46 17.66,-42.72 19.23,-43.98 21.73,-44.18 24.23,-44.37 27.13,-44.08 30.02,-43.78 34.77,-42.70 39.52,-41.62 43.91,-41.18 48.30,-40.75 51.83,-40.24 55.37,-39.72 58.01,-38.44 60.66,-37.15 62.39,-35.54 64.12,-33.93 64.20,-33.86 64.28,-33.79 64.34,-33.70 64.39,-33.61 64.41,-33.51 64.44,-33.40 64.42,-33.30 64.41,-33.19 64.37,-33.09 64.32,-33.00 64.25,-32.92 64.18,-32.84 64.08,-32.79 63.99,-32.74 63.89,-32.73 63.78,-32.71 63.68,-32.73 63.57,-32.74 63.48,-32.79 63.38,-32.84 63.31,-32.92 63.24,-33.00 63.19,-33.09 63.15,-33.19 63.14,-33.30 63.12,-33.40 63.15,-33.50 63.17,-33.61 63.23,-33.70 63.28,-33.79 63.36,-33.86 63.44,-33.93 63.54,-33.97 63.64,-34.01 63.75,-34.01 63.85,-34.02 63.95,-33.99 64.06,-33.96 64.14,-33.90 64.23,-33.84 64.30,-33.76 64.36,-33.67 64.39,-33.57 64.43,-33.47 64.43,-33.37 64.43,-33.26 64.39,-33.16 64.36,-33.06 64.30,-32.97 64.23,-32.89 64.14,-32.83 64.06,-32.77 63.95,-32.74 63.85,-32.71 63.75,-32.72 63.64,-32.72 63.54,-32.76 63.44,-32.80 63.44,-32.80 63.44,-32.80 61.34,-33.49 59.23,-34.19 57.03,-35.22 54.82,-36.26 51.38,-36.76 47.95,-37.26 43.35,-37.74 38.75,-38.21 34.20,-39.27 29.66,-40.32 26.99,-40.60 24.33,-40.89 22.63,-40.96 20.93,-41.04 20.04,-40.54 19.15,-40.04 18.56,-38.11 17.96,-36.18 17.12,-32.81 16.28,-29.44 15.03,-23.67 13.78,-17.90 12.31,-10.93 10.84,-3.95 8.86,2.73 6.89,9.43 5.46,11.55 4.02,13.68 3.98,13.88 3.93,14.08 3.84,14.26 3.74,14.44 3.61,14.60 3.48,14.75 3.31,14.87 3.14,14.99 2.95,15.06 2.76,15.14 2.56,15.16 2.36,15.19 2.15,15.17 1.95,15.15 1.76,15.07 1.57,15.00 1.40,14.89 1.23,14.78 1.09,14.62 0.95,14.47 0.85,14.29 0.76,14.11 0.71,13.91 0.66,13.72 0.65,13.51 0.65,13.31 0.76,12.06 0.88,10.82 1.14,8.82 1.40,6.82 1.26,5.47 1.11,4.11 0.89,2.34 0.67,0.58 0.33,0.61 0,0.65 -0.07,0.64 -0.15,0.63 -0.23,0.60 -0.30,0.58 -0.37,0.53 -0.43,0.49 -0.48,0.43 -0.54,0.37 -0.57,0.30 -0.61,0.23 -0.63,0.15 -0.65,0.07 -0.65,-0.00 -0.65,-0.07 -0.63,-0.15 -0.61,-0.23 -0.57,-0.30 -0.54,-0.37 -0.48,-0.43 -0.43,-0.49 -0.37,-0.53 -0.30,-0.58 -0.23,-0.60 -0.15,-0.63 -0.07,-0.64 0.00,-0.65 0.00,-0.65 L 0,-0.65 Z"/></g><g transform="translate(266.33416748046875 129.40353393554688) rotate(0 1.095458984375 25.195236206054688)" stroke="none"><path fill="#1e1e1e" d="M 0,0.65 Q 0,0.65 -1.56,1.11 -3.13,1.56 -4.24,1.86 -5.34,2.16 -6.26,2.85 -7.17,3.54 -6.91,4.79 -6.65,6.03 -5.31,8.02 -3.97,10.02 -2.13,12.49 -0.29,14.97 1.75,17.60 3.79,20.23 5.39,23.40 6.99,26.56 7.72,30.60 8.45,34.64 8.09,37.80 7.73,40.95 6.20,43.46 4.67,45.97 2.70,47.77 0.73,49.56 -1.77,49.35 -4.29,49.13 -5.84,47.50 -7.39,45.87 -8.31,43.82 -9.22,41.76 -9.62,39.48 -10.01,37.20 -9.50,35.01 -8.98,32.83 -7.66,31.12 -6.35,29.41 -3.23,26.81 -0.10,24.21 2.35,21.64 4.82,19.08 6.43,16.82 8.05,14.55 8.65,12.35 9.25,10.14 8.36,8.30 7.46,6.45 6.05,5.45 4.64,4.46 3.56,4.00 2.48,3.54 0.53,3.60 -1.41,3.67 -1.52,3.69 -1.62,3.72 -1.73,3.71 -1.83,3.70 -1.93,3.66 -2.03,3.61 -2.10,3.54 -2.18,3.47 -2.23,3.38 -2.29,3.28 -2.31,3.18 -2.32,3.08 -2.31,2.97 -2.29,2.87 -2.25,2.77 -2.20,2.68 -2.12,2.60 -2.05,2.53 -1.95,2.48 -1.86,2.43 -1.75,2.42 -1.65,2.41 -1.54,2.43 -1.44,2.45 -1.35,2.50 -1.25,2.55 -1.18,2.63 -1.11,2.71 -1.07,2.81 -1.03,2.91 -1.02,3.01 -1.01,3.12 -1.04,3.22 -1.07,3.33 -1.12,3.42 -1.18,3.50 -1.27,3.57 -1.35,3.64 -1.45,3.67 -1.55,3.71 -1.66,3.71 -1.76,3.71 -1.86,3.68 -1.96,3.65 -2.05,3.59 -2.14,3.52 -2.20,3.44 -2.26,3.35 -2.29,3.25 -2.32,3.15 -2.32,3.04 -2.31,2.93 -2.27,2.83 -2.24,2.74 -2.17,2.65 -2.10,2.57 -2.01,2.51 -1.92,2.46 -1.92,2.46 -1.92,2.46 0.86,1.38 3.66,0.30 5.25,0.95 6.85,1.61 8.76,3.26 10.67,4.90 11.68,7.77 12.69,10.63 11.84,13.60 10.99,16.57 9.19,19.06 7.38,21.55 4.77,24.25 2.16,26.95 -0.72,29.31 -3.61,31.68 -4.61,32.78 -5.60,33.87 -6.05,35.31 -6.50,36.75 -6.22,38.56 -5.94,40.37 -5.27,42.01 -4.60,43.64 -3.89,44.78 -3.18,45.91 -1.86,46.27 -0.55,46.62 0.57,45.32 1.69,44.01 2.98,42.19 4.28,40.36 4.63,37.77 4.98,35.18 4.44,31.62 3.89,28.05 2.49,25.19 1.08,22.33 -0.98,19.67 -3.04,17.01 -4.94,14.44 -6.84,11.87 -8.37,9.42 -9.91,6.96 -10.24,4.97 -10.56,2.99 -9.80,1.87 -9.04,0.76 -7.59,-0.07 -6.15,-0.90 -4.65,-1.23 -3.15,-1.56 -1.57,-1.11 0,-0.65 0.07,-0.64 0.15,-0.63 0.23,-0.60 0.30,-0.58 0.37,-0.53 0.43,-0.49 0.48,-0.43 0.54,-0.37 0.57,-0.30 0.61,-0.23 0.63,-0.15 0.65,-0.07 0.65,0.00 0.65,0.07 0.63,0.15 0.61,0.23 0.57,0.30 0.54,0.37 0.48,0.43 0.43,0.49 0.37,0.53 0.30,0.58 0.23,0.60 0.15,0.63 0.07,0.64 -0.00,0.65 -0.00,0.65 L 0,0.65 Z"/></g><g transform="translate(62.5814208984375 35.19523620605469) rotate(0 -24.647552490234375 61.344932556152344)" stroke="none"><path fill="#1e1e1e" d="M 0,-0.65 Q 0,-0.65 0.62,-1.10 1.25,-1.55 1.44,-1.53 1.63,-1.51 1.80,-1.44 1.98,-1.38 2.13,-1.27 2.29,-1.16 2.41,-1.02 2.54,-0.88 2.63,-0.71 2.71,-0.55 2.76,-0.37 2.80,-0.18 2.80,0.00 2.80,0.18 2.76,0.37 2.71,0.55 2.63,0.71 2.54,0.88 2.41,1.02 2.29,1.16 2.13,1.27 1.98,1.38 1.80,1.44 1.63,1.51 1.44,1.53 1.25,1.55 0.24,1.18 -0.76,0.80 -2.60,0.08 -4.44,-0.62 -6.89,-1.92 -9.33,-3.22 -11.67,-4.73 -14.01,-6.24 -15.89,-7.48 -17.77,-8.73 -18.39,-9.07 -19.00,-9.41 -19.58,-8.10 -20.17,-6.79 -20.77,-3.59 -21.37,-0.39 -21.66,7.54 -21.94,15.49 -22.38,24.92 -22.83,34.35 -23.01,44.00 -23.20,53.65 -23.59,63.13 -23.99,72.62 -24.79,83.59 -25.58,94.57 -26.56,102.42 -27.53,110.27 -28.90,116.19 -30.27,122.12 -31.90,125.76 -33.53,129.41 -36.68,131.50 -39.82,133.59 -42.25,134.13 -44.68,134.67 -47.08,134.56 -49.49,134.45 -50.40,134.08 -51.31,133.72 -51.52,133.68 -51.72,133.64 -51.91,133.56 -52.10,133.47 -52.26,133.35 -52.43,133.22 -52.56,133.05 -52.69,132.89 -52.77,132.70 -52.86,132.51 -52.89,132.31 -52.93,132.10 -52.92,131.89 -52.91,131.69 -52.85,131.49 -52.78,131.29 -52.68,131.11 -52.57,130.93 -52.42,130.78 -52.28,130.64 -52.10,130.53 -51.92,130.42 -51.72,130.36 -51.52,130.30 -51.31,130.28 -51.11,130.27 -50.09,130.11 -49.08,129.95 -45.72,129.56 -42.37,129.17 -35.84,129.02 -29.30,128.87 -23.39,128.95 -17.49,129.04 -14.98,129.39 -12.47,129.74 -12.36,129.76 -12.26,129.77 -12.16,129.82 -12.07,129.87 -12.00,129.95 -11.92,130.02 -11.88,130.12 -11.83,130.21 -11.82,130.32 -11.81,130.42 -11.83,130.53 -11.85,130.63 -11.90,130.72 -11.96,130.82 -12.04,130.89 -12.12,130.95 -12.21,131.00 -12.31,131.04 -12.42,131.04 -12.52,131.05 -12.63,131.02 -12.73,131.00 -12.82,130.94 -12.91,130.88 -12.97,130.79 -13.04,130.71 -13.07,130.61 -13.11,130.51 -13.11,130.40 -13.11,130.30 -13.08,130.20 -13.05,130.10 -12.98,130.01 -12.92,129.92 -12.83,129.86 -12.74,129.80 -12.64,129.77 -12.54,129.74 -12.43,129.75 -12.33,129.75 -12.23,129.79 -12.13,129.83 -12.05,129.90 -11.97,129.97 -11.91,130.06 -11.85,130.15 -11.83,130.25 -11.81,130.35 -11.82,130.46 -11.83,130.56 -11.87,130.66 -11.91,130.76 -11.99,130.84 -12.06,130.91 -12.15,130.97 -12.24,131.02 -12.35,131.03 -12.45,131.05 -12.45,131.05 -12.45,131.05 -14.95,131.46 -17.45,131.87 -23.33,132.10 -29.22,132.32 -35.59,132.49 -41.97,132.66 -45.29,133.04 -48.62,133.41 -49.96,133.56 -51.31,133.72 -51.52,133.68 -51.72,133.64 -51.91,133.56 -52.10,133.47 -52.26,133.35 -52.43,133.22 -52.56,133.05 -52.69,132.89 -52.77,132.70 -52.86,132.51 -52.89,132.31 -52.93,132.10 -52.92,131.89 -52.91,131.69 -52.85,131.49 -52.78,131.29 -52.68,131.11 -52.57,130.93 -52.42,130.78 -52.28,130.64 -52.10,130.53 -51.92,130.42 -51.72,130.36 -51.52,130.30 -51.31,130.28 -51.11,130.27 -50.17,130.65 -49.23,131.02 -47.28,131.17 -45.33,131.31 -43.45,130.98 -41.56,130.65 -39.01,129.20 -36.45,127.74 -35.04,124.54 -33.62,121.33 -32.28,115.59 -30.94,109.84 -29.98,102.08 -29.01,94.32 -28.21,83.40 -27.42,72.47 -27.02,63.03 -26.63,53.58 -26.44,43.88 -26.25,34.19 -25.80,24.78 -25.36,15.36 -25.04,7.14 -24.72,-1.07 -23.91,-4.80 -23.09,-8.53 -21.82,-10.19 -20.55,-11.84 -18.28,-11.74 -16.01,-11.63 -14.08,-10.36 -12.15,-9.08 -9.95,-7.62 -7.76,-6.16 -5.47,-4.92 -3.19,-3.68 -0.96,-2.62 1.25,-1.55 1.44,-1.53 1.63,-1.51 1.80,-1.44 1.98,-1.38 2.13,-1.27 2.29,-1.16 2.41,-1.02 2.54,-0.88 2.63,-0.71 2.71,-0.55 2.76,-0.37 2.80,-0.18 2.80,-0.00 2.80,0.18 2.76,0.37 2.71,0.55 2.63,0.71 2.54,0.88 2.41,1.02 2.29,1.16 2.13,1.27 1.98,1.38 1.80,1.44 1.63,1.51 1.44,1.53 1.25,1.55 0.62,1.10 0,0.65 -0.07,0.64 -0.15,0.63 -0.23,0.60 -0.30,0.58 -0.37,0.53 -0.43,0.49 -0.48,0.43 -0.54,0.37 -0.57,0.30 -0.61,0.23 -0.63,0.15 -0.65,0.07 -0.65,-0.00 -0.65,-0.07 -0.63,-0.15 -0.61,-0.23 -0.57,-0.30 -0.54,-0.37 -0.48,-0.43 -0.43,-0.49 -0.37,-0.53 -0.30,-0.58 -0.23,-0.60 -0.15,-0.63 -0.07,-0.64 0.00,-0.65 0.00,-0.65 L 0,-0.65 Z"/></g><g transform="translate(303.579345703125 45.05424499511719) rotate(0 12.597625732421875 62.98809051513672)" stroke="none"><path fill="#1e1e1e" d="M 0.12,-0.64 Q 0.12,-0.64 1.77,-0.69 3.42,-0.74 5.24,-0.63 7.06,-0.53 10.44,-1.76 13.82,-2.99 15.88,-4.10 17.93,-5.20 19.67,-6.58 21.41,-7.95 22.17,-8.82 22.92,-9.69 23.16,-9.72 23.41,-9.75 23.56,-9.89 23.71,-10.03 23.89,-10.13 24.07,-10.22 24.27,-10.27 24.46,-10.33 24.67,-10.33 24.87,-10.33 25.07,-10.29 25.27,-10.24 25.45,-10.15 25.64,-10.05 25.79,-9.92 25.95,-9.79 26.06,-9.62 26.18,-9.45 26.26,-9.26 26.33,-9.07 26.36,-8.87 26.39,-8.67 26.36,-8.46 26.34,-8.26 26.27,-8.07 26.20,-7.88 26.09,-7.71 25.97,-7.54 26.07,-4.81 26.17,-2.08 25.76,3.26 25.35,8.61 24.86,14.68 24.37,20.75 24.16,27.69 23.95,34.63 23.87,42.62 23.78,50.62 23.43,61.28 23.08,71.95 23.25,80.52 23.42,89.10 23.49,96.23 23.56,103.37 23.59,110.18 23.62,116.99 23.64,121.15 23.65,125.30 23.65,128.01 23.66,130.73 23.66,132.19 23.67,133.66 23.64,133.87 23.62,134.08 23.54,134.28 23.47,134.48 23.35,134.66 23.23,134.83 23.07,134.97 22.91,135.11 22.72,135.21 22.53,135.31 22.32,135.36 22.12,135.42 21.90,135.42 21.69,135.42 21.48,135.37 21.28,135.32 21.09,135.22 20.90,135.12 20.74,134.98 20.58,134.84 20.46,134.66 20.34,134.49 20.26,134.29 20.19,134.09 20.16,133.88 20.13,133.67 20.01,134.55 19.89,135.44 17.84,134.39 15.79,133.33 13.16,131.64 10.53,129.94 8.85,128.89 7.16,127.84 5.87,125.83 4.57,123.81 4.51,123.73 4.45,123.64 4.42,123.54 4.39,123.44 4.39,123.33 4.39,123.23 4.43,123.13 4.47,123.03 4.53,122.94 4.60,122.86 4.69,122.81 4.78,122.75 4.88,122.72 4.99,122.70 5.09,122.71 5.20,122.72 5.30,122.76 5.39,122.80 5.47,122.87 5.55,122.95 5.60,123.04 5.66,123.13 5.67,123.24 5.69,123.34 5.68,123.44 5.66,123.55 5.62,123.64 5.57,123.74 5.49,123.81 5.42,123.89 5.32,123.94 5.23,123.98 5.12,124.00 5.02,124.01 4.91,123.99 4.81,123.97 4.71,123.92 4.62,123.86 4.55,123.78 4.48,123.70 4.44,123.61 4.40,123.51 4.39,123.40 4.38,123.30 4.41,123.19 4.44,123.09 4.49,123.00 4.55,122.91 4.63,122.85 4.72,122.78 4.82,122.74 4.92,122.71 5.02,122.71 5.13,122.70 5.23,122.74 5.33,122.77 5.42,122.83 5.50,122.89 5.50,122.89 5.50,122.89 7.20,123.91 8.91,124.94 10.69,125.93 12.47,126.92 15.03,128.55 17.59,130.17 18.87,131.02 20.14,131.86 21.90,132.76 23.67,133.66 23.64,133.87 23.62,134.08 23.54,134.28 23.47,134.48 23.35,134.66 23.23,134.83 23.07,134.97 22.91,135.11 22.72,135.21 22.53,135.31 22.32,135.36 22.12,135.42 21.90,135.42 21.69,135.42 21.48,135.37 21.28,135.32 21.09,135.22 20.90,135.12 20.74,134.98 20.58,134.84 20.46,134.66 20.34,134.49 20.26,134.29 20.19,134.09 20.16,133.88 20.13,133.67 20.13,132.20 20.13,130.73 20.13,128.02 20.12,125.31 20.11,121.16 20.10,117.01 20.07,110.21 20.04,103.40 19.97,96.28 19.90,89.16 19.74,80.50 19.58,71.83 19.94,61.21 20.29,50.58 20.38,42.55 20.48,34.53 20.69,27.50 20.90,20.47 21.40,14.40 21.90,8.34 22.34,2.94 22.77,-2.46 23.03,-4.51 23.29,-6.57 23.35,-8.16 23.41,-9.75 23.56,-9.89 23.71,-10.03 23.89,-10.13 24.07,-10.22 24.27,-10.27 24.46,-10.33 24.67,-10.33 24.87,-10.33 25.07,-10.29 25.27,-10.24 25.45,-10.15 25.64,-10.05 25.79,-9.92 25.95,-9.79 26.06,-9.62 26.18,-9.45 26.26,-9.26 26.33,-9.07 26.36,-8.87 26.39,-8.67 26.36,-8.46 26.34,-8.26 26.27,-8.07 26.20,-7.88 26.09,-7.71 25.98,-7.54 25.54,-7.42 25.10,-7.29 24.27,-6.32 23.43,-5.34 21.43,-3.85 19.42,-2.37 17.11,-1.19 14.80,-0.02 10.87,1.15 6.94,2.32 4.91,2.16 2.87,2.00 1.37,1.32 -0.12,0.64 -0.20,0.61 -0.27,0.59 -0.34,0.55 -0.41,0.51 -0.46,0.45 -0.52,0.39 -0.56,0.32 -0.60,0.25 -0.62,0.18 -0.64,0.10 -0.65,0.02 -0.65,-0.05 -0.63,-0.12 -0.62,-0.20 -0.59,-0.27 -0.55,-0.34 -0.50,-0.41 -0.45,-0.47 -0.39,-0.51 -0.33,-0.56 -0.25,-0.59 -0.18,-0.63 -0.10,-0.64 -0.02,-0.65 0.04,-0.64 0.12,-0.64 0.12,-0.64 L 0.12,-0.64 Z"/></g><g transform="translate(385.73773193359375 106.399169921875) rotate(0 14.788482666015625 -1.6431732177734375)" stroke="none"><path fill="#1e1e1e" d="M -0.24,-0.60 Q -0.24,-0.60 1.12,-1.76 2.48,-2.92 5.18,-3.55 7.88,-4.18 11.07,-4.13 14.26,-4.09 17.49,-3.71 20.72,-3.33 23.06,-2.77 25.41,-2.20 27.57,-1.49 29.74,-0.77 29.84,-0.74 29.95,-0.71 30.03,-0.65 30.12,-0.59 30.18,-0.50 30.25,-0.42 30.28,-0.32 30.31,-0.22 30.31,-0.11 30.31,-0.00 30.27,0.09 30.24,0.19 30.17,0.27 30.11,0.35 30.02,0.41 29.93,0.47 29.83,0.50 29.72,0.53 29.62,0.52 29.51,0.51 29.41,0.47 29.32,0.43 29.24,0.36 29.16,0.29 29.10,0.20 29.05,0.11 29.03,0.00 29.01,-0.09 29.02,-0.20 29.03,-0.30 29.08,-0.40 29.12,-0.49 29.20,-0.57 29.27,-0.65 29.37,-0.69 29.46,-0.74 29.57,-0.76 29.67,-0.77 29.77,-0.76 29.88,-0.74 29.97,-0.69 30.07,-0.64 30.14,-0.56 30.21,-0.48 30.25,-0.38 30.30,-0.29 30.31,-0.18 30.32,-0.07 30.29,0.02 30.27,0.12 30.21,0.21 30.16,0.30 30.07,0.37 29.99,0.44 29.89,0.48 29.79,0.52 29.69,0.52 29.58,0.52 29.58,0.52 29.58,0.52 27.19,0.68 24.79,0.84 22.56,0.48 20.34,0.13 17.26,-0.17 14.18,-0.48 11.41,-0.57 8.65,-0.66 6.23,-0.13 3.81,0.40 2.02,0.50 0.24,0.60 0.16,0.63 0.09,0.65 0.01,0.65 -0.06,0.65 -0.14,0.63 -0.22,0.61 -0.29,0.58 -0.36,0.54 -0.42,0.49 -0.48,0.44 -0.52,0.37 -0.57,0.31 -0.60,0.24 -0.63,0.16 -0.64,0.09 -0.65,0.01 -0.64,-0.06 -0.64,-0.14 -0.61,-0.22 -0.58,-0.29 -0.54,-0.36 -0.49,-0.42 -0.44,-0.48 -0.38,-0.53 -0.31,-0.57 -0.24,-0.60 -0.24,-0.60 L -0.24,-0.60 Z"/></g><g transform="translate(398.883056640625 116.2581787109375) rotate(0 8.7635498046875 0.5477294921875)" stroke="none"><path fill="#1e1e1e" d="M 0,-0.65 Q 0,-0.65 1.57,-1.24 3.14,-1.83 5.70,-1.82 8.26,-1.82 10.61,-1.74 12.96,-1.65 14.83,-1.15 16.70,-0.65 16.80,-0.63 16.91,-0.62 17.00,-0.57 17.09,-0.52 17.17,-0.44 17.24,-0.36 17.29,-0.27 17.33,-0.17 17.34,-0.07 17.35,0.03 17.33,0.13 17.31,0.24 17.25,0.33 17.20,0.42 17.12,0.49 17.04,0.56 16.94,0.60 16.84,0.64 16.73,0.64 16.63,0.65 16.52,0.62 16.42,0.59 16.33,0.53 16.25,0.47 16.18,0.39 16.12,0.30 16.08,0.20 16.05,0.10 16.05,-0.00 16.05,-0.10 16.08,-0.20 16.12,-0.30 16.18,-0.39 16.25,-0.47 16.33,-0.53 16.42,-0.59 16.52,-0.62 16.63,-0.65 16.73,-0.64 16.84,-0.64 16.94,-0.60 17.04,-0.56 17.12,-0.49 17.20,-0.42 17.25,-0.33 17.31,-0.24 17.33,-0.13 17.35,-0.03 17.34,0.07 17.33,0.17 17.29,0.27 17.24,0.36 17.17,0.44 17.09,0.52 17.00,0.57 16.91,0.62 16.80,0.63 16.70,0.65 16.70,0.65 16.70,0.65 14.83,1.15 12.96,1.65 10.61,1.74 8.26,1.82 5.70,1.82 3.14,1.83 1.57,1.24 0,0.65 -0.07,0.64 -0.15,0.63 -0.23,0.60 -0.30,0.58 -0.37,0.53 -0.43,0.49 -0.48,0.43 -0.54,0.37 -0.57,0.30 -0.61,0.23 -0.63,0.15 -0.65,0.07 -0.65,-0.00 -0.65,-0.07 -0.63,-0.15 -0.61,-0.23 -0.57,-0.30 -0.54,-0.37 -0.48,-0.43 -0.43,-0.49 -0.37,-0.53 -0.30,-0.58 -0.23,-0.60 -0.15,-0.63 -0.07,-0.64 0.00,-0.65 0.00,-0.65 L 0,-0.65 Z"/></g><g transform="translate(482.13690185546875 120.63995361328125) rotate(0 31.22015380859375 -21.908889770507812)" stroke="none"><path fill="#1e1e1e" d="M 0.56,-0.33 Q 0.56,-0.33 1.86,1.03 3.15,2.40 3.66,4.21 4.16,6.01 4.36,7.31 4.57,8.62 4.59,8.81 4.61,9.00 4.59,9.19 4.57,9.38 4.50,9.56 4.43,9.74 4.33,9.90 4.22,10.05 4.07,10.18 3.93,10.31 3.76,10.40 3.59,10.48 3.41,10.53 3.22,10.58 3.03,10.58 2.84,10.58 2.66,10.53 2.47,10.49 2.30,10.40 2.13,10.31 1.99,10.18 1.85,10.06 1.74,9.90 1.63,9.74 1.56,9.57 1.49,9.39 1.71,8.61 1.93,7.84 2.08,6.29 2.23,4.73 2.37,1.19 2.50,-2.34 3.20,-6.82 3.90,-11.30 5.15,-16.69 6.40,-22.07 8.19,-27.86 9.98,-33.66 11.42,-37.36 12.86,-41.06 14.60,-41.39 16.33,-41.72 17.83,-40.41 19.33,-39.09 20.74,-38.47 22.15,-37.84 24.35,-38.19 26.55,-38.53 29.25,-40.13 31.94,-41.73 36.58,-45.24 41.22,-48.75 45.65,-50.99 50.08,-53.23 53.73,-52.86 57.39,-52.50 59.45,-50.16 61.51,-47.83 62.00,-45.01 62.49,-42.19 61.75,-38.33 61.00,-34.46 60.98,-34.36 60.95,-34.25 60.90,-34.16 60.84,-34.07 60.76,-34.00 60.68,-33.93 60.58,-33.90 60.48,-33.86 60.37,-33.85 60.27,-33.85 60.17,-33.88 60.06,-33.91 59.98,-33.97 59.89,-34.03 59.83,-34.11 59.76,-34.20 59.73,-34.30 59.69,-34.40 59.70,-34.50 59.70,-34.61 59.73,-34.71 59.77,-34.81 59.83,-34.89 59.89,-34.98 59.98,-35.04 60.07,-35.10 60.17,-35.12 60.28,-35.15 60.38,-35.15 60.49,-35.14 60.59,-35.10 60.69,-35.06 60.77,-34.99 60.85,-34.92 60.90,-34.83 60.96,-34.74 60.98,-34.63 61.00,-34.53 60.99,-34.43 60.98,-34.32 60.93,-34.22 60.88,-34.13 60.81,-34.05 60.74,-33.97 60.64,-33.93 60.55,-33.88 60.44,-33.86 60.34,-33.84 60.23,-33.86 60.13,-33.88 60.04,-33.93 59.94,-33.98 59.87,-34.06 59.80,-34.13 59.75,-34.23 59.71,-34.33 59.70,-34.43 59.69,-34.54 59.69,-34.54 59.69,-34.54 59.39,-38.12 59.09,-41.69 58.84,-43.76 58.59,-45.82 57.43,-47.56 56.27,-49.31 53.82,-49.64 51.36,-49.97 47.36,-47.93 43.35,-45.89 38.50,-42.30 33.66,-38.70 30.34,-36.91 27.03,-35.12 23.99,-34.89 20.94,-34.67 18.91,-35.69 16.87,-36.70 15.75,-37.73 14.62,-38.76 13.92,-35.71 13.21,-32.65 11.43,-26.98 9.64,-21.32 8.41,-16.05 7.18,-10.78 6.50,-6.49 5.82,-2.20 5.66,1.55 5.50,5.32 4.96,7.60 4.42,9.88 4.49,9.25 4.57,8.62 4.59,8.81 4.61,9.00 4.59,9.19 4.57,9.38 4.50,9.56 4.43,9.74 4.33,9.90 4.22,10.05 4.07,10.18 3.93,10.31 3.76,10.40 3.59,10.48 3.41,10.53 3.22,10.58 3.03,10.58 2.84,10.58 2.66,10.53 2.47,10.49 2.30,10.40 2.13,10.31 1.99,10.18 1.85,10.06 1.74,9.90 1.63,9.74 1.56,9.57 1.49,9.39 1.35,8.06 1.22,6.74 0.92,5.31 0.61,3.88 0.02,2.11 -0.56,0.33 -0.59,0.26 -0.62,0.19 -0.64,0.11 -0.65,0.03 -0.65,-0.04 -0.64,-0.12 -0.62,-0.19 -0.59,-0.27 -0.55,-0.33 -0.51,-0.40 -0.45,-0.46 -0.40,-0.51 -0.33,-0.55 -0.26,-0.59 -0.19,-0.62 -0.11,-0.64 -0.03,-0.65 0.04,-0.65 0.11,-0.64 0.19,-0.62 0.26,-0.59 0.34,-0.56 0.40,-0.51 0.46,-0.46 0.51,-0.40 0.56,-0.33 0.56,-0.33 L 0.56,-0.33 Z"/></g><g transform="translate(527.0501098632812 89.96749877929688) rotate(0 -2.19091796875 21.908889770507812)" stroke="none"><path fill="#1e1e1e" d="M -0.46,0.46 Q -0.46,0.46 -1.73,-0.11 -3.01,-0.68 -3.72,-0.88 -4.43,-1.07 -3.94,0.70 -3.45,2.49 -2.04,5.27 -0.62,8.04 0.95,11.52 2.54,15.00 3.86,18.75 5.19,22.50 5.49,27.76 5.79,33.02 5.24,36.63 4.69,40.24 2.97,42.73 1.25,45.21 -1.26,46.01 -3.78,46.81 -6.35,45.38 -8.92,43.96 -10.36,41.84 -11.81,39.72 -12.12,36.96 -12.42,34.19 -10.86,30.29 -9.30,26.39 -6.65,23.12 -4.00,19.84 -1.68,16.96 0.63,14.09 2.13,11.12 3.63,8.16 3.92,6.26 4.21,4.35 3.53,3.26 2.85,2.17 1.25,1.19 -0.35,0.21 -1.18,0.00 -2.01,-0.20 -2.80,0.81 -3.59,1.84 -3.63,1.94 -3.68,2.03 -3.75,2.11 -3.83,2.18 -3.92,2.23 -4.02,2.28 -4.12,2.29 -4.23,2.31 -4.33,2.29 -4.44,2.27 -4.53,2.21 -4.62,2.16 -4.69,2.08 -4.77,2.00 -4.81,1.91 -4.85,1.81 -4.86,1.70 -4.87,1.60 -4.84,1.49 -4.82,1.39 -4.76,1.30 -4.70,1.21 -4.62,1.15 -4.54,1.08 -4.44,1.04 -4.34,1.00 -4.23,1.00 -4.13,1.00 -4.02,1.03 -3.92,1.06 -3.84,1.12 -3.75,1.18 -3.69,1.27 -3.63,1.36 -3.59,1.46 -3.56,1.56 -3.57,1.67 -3.57,1.77 -3.60,1.87 -3.64,1.97 -3.71,2.05 -3.77,2.14 -3.86,2.19 -3.95,2.25 -4.06,2.28 -4.16,2.30 -4.26,2.30 -4.37,2.29 -4.47,2.25 -4.57,2.20 -4.65,2.13 -4.72,2.06 -4.78,1.97 -4.83,1.88 -4.85,1.77 -4.87,1.67 -4.86,1.56 -4.84,1.46 -4.84,1.46 -4.84,1.46 -3.66,-0.99 -2.48,-3.46 -0.43,-3.19 1.61,-2.92 3.82,-1.28 6.04,0.34 6.93,2.44 7.82,4.54 7.36,7.17 6.90,9.80 5.16,13.06 3.42,16.33 1.07,19.21 -1.26,22.09 -3.66,24.95 -6.06,27.82 -7.48,30.96 -8.91,34.09 -8.83,36.03 -8.75,37.97 -7.82,39.51 -6.88,41.04 -5.32,42.28 -3.76,43.53 -2.50,43.19 -1.24,42.86 0.00,41.20 1.25,39.54 1.76,36.36 2.27,33.18 2.09,28.39 1.92,23.61 0.65,20.02 -0.60,16.43 -2.16,13.01 -3.71,9.60 -5.24,6.53 -6.76,3.47 -7.25,1.36 -7.74,-0.74 -7.11,-2.11 -6.47,-3.48 -4.97,-3.89 -3.47,-4.30 -2.11,-3.70 -0.76,-3.09 -0.15,-1.77 0.46,-0.46 0.51,-0.40 0.56,-0.33 0.59,-0.26 0.62,-0.19 0.64,-0.11 0.65,-0.03 0.65,0.03 0.64,0.11 0.62,0.19 0.59,0.26 0.55,0.33 0.51,0.40 0.46,0.46 0.40,0.51 0.33,0.55 0.26,0.59 0.19,0.62 0.11,0.64 0.03,0.65 -0.03,0.65 -0.11,0.64 -0.19,0.62 -0.26,0.59 -0.33,0.56 -0.40,0.51 -0.46,0.46 -0.46,0.46 L -0.46,0.46 Z"/></g><g transform="translate(585.1087036132812 104.20828247070312) rotate(0 -9.311279296875 -0.0000152587890625)" stroke="none"><path fill="#1e1e1e" d="M 0.12,0.64 Q 0.12,0.64 -1.35,1.40 -2.84,2.17 -3.91,2.31 -4.98,2.44 -6.98,1.85 -8.98,1.25 -10.79,1.06 -12.61,0.86 -13.62,0.67 -14.63,0.48 -14.71,0.46 -14.79,0.44 -14.86,0.40 -14.93,0.36 -14.98,0.31 -15.04,0.26 -15.09,0.19 -15.13,0.13 -15.16,0.05 -15.19,-0.01 -15.20,-0.09 -15.21,-0.17 -15.20,-0.25 -15.19,-0.32 -15.16,-0.40 -15.13,-0.47 -15.09,-0.54 -15.04,-0.60 -14.98,-0.65 -14.92,-0.71 -14.85,-0.74 -14.78,-0.78 -14.71,-0.80 -14.63,-0.82 -14.55,-0.82 -14.47,-0.82 -14.27,-0.72 -14.07,-0.61 -14.01,-0.52 -13.95,-0.44 -13.93,-0.33 -13.90,-0.23 -13.90,-0.13 -13.91,-0.02 -13.95,0.07 -13.99,0.17 -14.06,0.25 -14.13,0.33 -14.22,0.38 -14.31,0.44 -14.42,0.46 -14.52,0.48 -14.63,0.47 -14.73,0.46 -14.83,0.41 -14.92,0.37 -15.00,0.29 -15.08,0.22 -15.13,0.12 -15.17,0.03 -15.19,-0.07 -15.21,-0.17 -15.19,-0.27 -15.17,-0.38 -15.12,-0.47 -15.07,-0.57 -14.99,-0.64 -14.92,-0.71 -14.82,-0.76 -14.72,-0.80 -14.62,-0.81 -14.51,-0.82 -14.41,-0.80 -14.30,-0.77 -14.21,-0.72 -14.12,-0.66 -14.05,-0.58 -13.99,-0.50 -13.95,-0.40 -13.91,-0.30 -13.90,-0.20 -13.90,-0.09 -13.93,0.00 -13.96,0.11 -14.02,0.19 -14.08,0.28 -14.16,0.34 -14.25,0.41 -14.35,0.44 -14.45,0.47 -14.56,0.47 -14.66,0.47 -14.76,0.44 -14.86,0.40 -14.75,0.44 -14.63,0.48 -14.71,0.46 -14.79,0.44 -14.86,0.40 -14.93,0.36 -14.98,0.31 -15.04,0.26 -15.09,0.19 -15.13,0.13 -15.16,0.05 -15.19,-0.01 -15.20,-0.09 -15.21,-0.17 -15.20,-0.25 -15.19,-0.32 -15.16,-0.40 -15.13,-0.47 -15.09,-0.54 -15.04,-0.60 -14.98,-0.65 -14.92,-0.71 -14.85,-0.74 -14.78,-0.78 -14.71,-0.80 -14.63,-0.82 -14.55,-0.82 -14.47,-0.82 -13.34,-1.58 -12.22,-2.33 -10.09,-2.04 -7.96,-1.75 -6.61,-1.20 -5.25,-0.65 -4.35,-0.78 -3.45,-0.91 -1.79,-0.77 -0.12,-0.64 -0.04,-0.64 0.02,-0.65 0.10,-0.64 0.18,-0.62 0.25,-0.59 0.33,-0.56 0.39,-0.51 0.45,-0.47 0.50,-0.41 0.55,-0.34 0.59,-0.27 0.62,-0.20 0.63,-0.12 0.65,-0.05 0.65,0.02 0.64,0.10 0.62,0.18 0.60,0.25 0.56,0.32 0.52,0.39 0.46,0.45 0.41,0.51 0.34,0.55 0.27,0.59 0.20,0.61 0.12,0.64 0.12,0.64 L 0.12,0.64 Z"/></g><g transform="translate(620.1630249023438 122.83084106445312) rotate(0 47.1041259765625 -31.767898559570312)" stroke="none"><path fill="#1e1e1e" d="M -0.60,-0.24 Q -0.60,-0.24 -0.46,-2.01 -0.32,-3.78 0.26,-5.11 0.86,-6.45 2.11,-8.38 3.36,-10.32 4.64,-12.16 5.92,-14.01 7.82,-13.73 9.72,-13.46 10.28,-11.28 10.84,-9.09 11.39,-6.24 11.93,-3.39 12.59,-1.25 13.25,0.89 13.83,-0.39 14.41,-1.68 15.40,-5.04 16.39,-8.40 18.12,-13.41 19.85,-18.42 22.79,-26.23 25.73,-34.04 28.57,-40.54 31.41,-47.04 33.88,-52.04 36.35,-57.03 38.71,-60.51 41.08,-64.00 43.27,-65.95 45.47,-67.91 48.34,-68.20 51.20,-68.49 54.77,-67.23 58.33,-65.96 63.29,-63.18 68.24,-60.40 72.69,-58.64 77.14,-56.89 80.87,-55.77 84.60,-54.66 88.61,-52.62 92.62,-50.59 92.71,-50.53 92.80,-50.48 92.87,-50.40 92.94,-50.32 92.99,-50.22 93.03,-50.13 93.03,-50.02 93.04,-49.91 93.02,-49.81 92.99,-49.71 92.93,-49.62 92.87,-49.53 92.79,-49.46 92.71,-49.40 92.61,-49.36 92.51,-49.33 92.40,-49.32 92.29,-49.32 92.19,-49.35 92.09,-49.39 92.01,-49.45 91.92,-49.51 91.86,-49.60 91.80,-49.69 91.77,-49.79 91.74,-49.89 91.74,-50.00 91.74,-50.10 91.78,-50.20 91.82,-50.30 91.89,-50.38 91.95,-50.46 92.04,-50.52 92.13,-50.58 92.24,-50.60 92.34,-50.63 92.45,-50.62 92.55,-50.61 92.65,-50.57 92.75,-50.52 92.82,-50.45 92.90,-50.38 92.95,-50.29 93.01,-50.19 93.03,-50.09 93.04,-49.99 93.03,-49.88 93.01,-49.77 92.97,-49.68 92.92,-49.59 92.84,-49.51 92.77,-49.44 92.67,-49.39 92.58,-49.34 92.47,-49.33 92.37,-49.32 92.26,-49.34 92.16,-49.36 92.16,-49.36 92.16,-49.36 87.93,-50.42 83.71,-51.48 79.77,-52.51 75.84,-53.55 71.14,-55.36 66.44,-57.18 61.73,-59.84 57.02,-62.49 54.14,-63.65 51.26,-64.81 49.34,-64.88 47.42,-64.95 45.77,-63.42 44.11,-61.89 41.87,-58.64 39.62,-55.40 37.18,-50.49 34.73,-45.59 31.92,-39.18 29.11,-32.76 26.19,-25.00 23.26,-17.24 21.56,-12.30 19.85,-7.35 18.69,-3.58 17.52,0.18 16.29,1.96 15.06,3.74 12.78,3.27 10.50,2.80 9.44,0.04 8.38,-2.71 7.85,-5.48 7.33,-8.25 6.85,-10.39 6.37,-12.53 7.30,-12.06 8.24,-11.58 7.25,-10.00 6.25,-8.42 5.12,-6.73 3.98,-5.04 3.41,-3.77 2.84,-2.51 1.72,-1.13 0.60,0.24 0.57,0.31 0.53,0.38 0.48,0.44 0.42,0.49 0.36,0.54 0.29,0.58 0.22,0.61 0.14,0.64 0.06,0.64 -0.01,0.65 -0.09,0.64 -0.16,0.63 -0.24,0.60 -0.31,0.57 -0.37,0.52 -0.44,0.48 -0.49,0.42 -0.54,0.36 -0.58,0.29 -0.61,0.22 -0.63,0.14 -0.65,0.06 -0.65,-0.01 -0.65,-0.09 -0.63,-0.16 -0.60,-0.24 -0.60,-0.24 L -0.60,-0.24 Z"/></g><g transform="translate(677.1261596679688 82.29937744140625) rotate(0 4.929443359375 25.742965698242188)" stroke="none"><path fill="#1e1e1e" d="M 0,0.65 Q 0,0.65 -1.81,1.16 -3.62,1.66 -4.63,2.47 -5.64,3.27 -5.99,4.02 -6.35,4.77 -6.50,6.47 -6.65,8.16 -5.82,11.89 -4.99,15.61 -3.13,19.31 -1.27,23.02 0.77,26.51 2.82,30.01 5.00,34.07 7.18,38.14 7.87,41.71 8.55,45.28 7.81,48.36 7.07,51.43 5.22,53.29 3.37,55.14 0.67,55.50 -2.02,55.86 -4.86,52.98 -7.70,50.11 -9.49,46.52 -11.28,42.94 -11.41,38.87 -11.54,34.81 -9.84,31.87 -8.15,28.93 -5.01,26.97 -1.87,25.01 2.23,23.01 6.34,21.00 10.07,17.77 13.79,14.53 15.60,11.73 17.40,8.92 17.81,7.07 18.21,5.23 17.53,3.81 16.85,2.39 16.07,1.52 15.30,0.64 13.73,-1.44 12.17,-3.52 12.09,-3.59 12.01,-3.67 11.96,-3.76 11.90,-3.85 11.88,-3.95 11.86,-4.06 11.87,-4.16 11.89,-4.27 11.93,-4.36 11.98,-4.46 12.05,-4.54 12.13,-4.61 12.22,-4.66 12.32,-4.71 12.42,-4.72 12.53,-4.74 12.63,-4.72 12.74,-4.70 12.83,-4.65 12.92,-4.60 12.99,-4.52 13.07,-4.44 13.11,-4.34 13.15,-4.25 13.16,-4.14 13.17,-4.04 13.15,-3.93 13.12,-3.83 13.07,-3.74 13.01,-3.65 12.93,-3.58 12.85,-3.51 12.75,-3.48 12.65,-3.44 12.54,-3.43 12.44,-3.43 12.33,-3.46 12.23,-3.49 12.14,-3.55 12.06,-3.61 11.99,-3.70 11.93,-3.78 11.90,-3.89 11.87,-3.99 11.87,-4.09 11.87,-4.20 11.91,-4.30 11.94,-4.40 12.01,-4.48 12.07,-4.57 12.16,-4.62 12.25,-4.68 12.35,-4.71 12.46,-4.74 12.56,-4.73 12.67,-4.72 12.77,-4.68 12.87,-4.64 12.87,-4.64 12.86,-4.64 15.50,-3.18 18.13,-1.72 19.23,-0.36 20.33,0.99 21.09,3.35 21.84,5.71 21.19,8.31 20.54,10.90 18.38,14.10 16.22,17.30 12.09,20.79 7.97,24.27 3.97,26.22 -0.01,28.16 -2.59,29.58 -5.17,31.00 -6.57,33.03 -7.96,35.07 -7.95,38.26 -7.95,41.46 -6.44,44.59 -4.94,47.71 -3.00,50.25 -1.06,52.79 0.07,52.55 1.22,52.31 2.47,51.28 3.73,50.25 4.37,48.01 5.01,45.78 4.51,42.77 4.00,39.77 1.89,35.78 -0.21,31.79 -2.32,28.18 -4.43,24.58 -6.43,20.47 -8.42,16.36 -9.26,12.07 -10.10,7.78 -9.74,5.45 -9.37,3.12 -8.50,1.81 -7.64,0.50 -5.79,-0.58 -3.93,-1.66 -1.96,-1.16 0,-0.65 0.07,-0.64 0.15,-0.63 0.23,-0.60 0.30,-0.58 0.37,-0.53 0.43,-0.49 0.48,-0.43 0.54,-0.37 0.57,-0.30 0.61,-0.23 0.63,-0.15 0.65,-0.07 0.65,0.00 0.65,0.07 0.63,0.15 0.61,0.23 0.57,0.30 0.54,0.37 0.48,0.43 0.43,0.49 0.37,0.53 0.30,0.58 0.23,0.60 0.15,0.63 0.07,0.64 -0.00,0.65 -0.00,0.65 L 0,0.65 Z"/></g><g transform="translate(774.6207885742188 104.20828247070312) rotate(0 14.24078369140625 0.5477294921875)" stroke="none"><path fill="#1e1e1e" d="M 0.62,0.20 Q 0.62,0.20 0.38,0.46 0.14,0.71 0.98,0.53 1.83,0.35 3.68,0.05 5.52,-0.25 8.58,-0.70 11.64,-1.15 14.49,-1.65 17.34,-2.15 19.24,-2.37 21.15,-2.60 23.15,-2.93 25.14,-3.27 27.02,-2.55 28.91,-1.83 29.01,-1.80 29.11,-1.77 29.20,-1.71 29.28,-1.65 29.35,-1.57 29.41,-1.48 29.44,-1.38 29.48,-1.28 29.48,-1.17 29.47,-1.07 29.44,-0.97 29.40,-0.87 29.34,-0.78 29.27,-0.70 29.19,-0.64 29.10,-0.58 28.99,-0.55 28.89,-0.53 28.79,-0.53 28.68,-0.54 28.58,-0.58 28.48,-0.62 28.40,-0.69 28.32,-0.76 28.27,-0.85 28.21,-0.94 28.19,-1.05 28.17,-1.15 28.18,-1.26 28.20,-1.36 28.24,-1.46 28.29,-1.55 28.36,-1.63 28.44,-1.71 28.53,-1.76 28.63,-1.80 28.73,-1.82 28.84,-1.84 28.94,-1.82 29.04,-1.80 29.14,-1.75 29.23,-1.70 29.30,-1.62 29.38,-1.54 29.42,-1.45 29.46,-1.35 29.47,-1.24 29.48,-1.14 29.46,-1.03 29.43,-0.93 29.38,-0.84 29.32,-0.75 29.24,-0.68 29.16,-0.61 29.06,-0.58 28.96,-0.54 28.86,-0.53 28.75,-0.53 28.75,-0.53 28.75,-0.53 27.25,-0.21 25.76,0.09 23.66,0.56 21.57,1.04 19.77,1.24 17.97,1.45 15.07,1.95 12.17,2.46 9.11,2.89 6.06,3.32 3.88,3.62 1.71,3.91 0.15,3.49 -1.40,3.06 -1.01,1.42 -0.62,-0.20 -0.58,-0.27 -0.55,-0.35 -0.50,-0.41 -0.45,-0.47 -0.39,-0.52 -0.32,-0.56 -0.25,-0.59 -0.18,-0.63 -0.10,-0.64 -0.02,-0.65 0.05,-0.64 0.13,-0.64 0.20,-0.61 0.28,-0.59 0.34,-0.55 0.41,-0.50 0.46,-0.45 0.52,-0.39 0.56,-0.32 0.60,-0.25 0.62,-0.18 0.64,-0.10 0.65,-0.02 0.65,0.05 0.63,0.13 0.62,0.20 0.62,0.20 L 0.62,0.20 Z"/></g><g transform="translate(857.8745727539062 129.40353393554688) rotate(0 14.78851318359375 -26.838424682617188)" stroke="none"><path fill="#1e1e1e" d="M 0.46,-0.46 Q 0.46,-0.46 1.15,-0.52 1.83,-0.57 1.96,-0.41 2.09,-0.25 2.17,-0.06 2.25,0.12 2.29,0.32 2.33,0.52 2.32,0.73 2.30,0.93 2.24,1.13 2.18,1.33 2.07,1.50 1.97,1.68 1.82,1.82 1.68,1.97 1.50,2.07 1.33,2.18 1.13,2.24 0.93,2.30 0.73,2.32 0.52,2.33 0.32,2.29 0.12,2.25 -0.06,2.17 -0.25,2.09 -0.41,1.96 -0.57,1.83 1.66,-2.58 3.90,-7.01 6.78,-11.24 9.67,-15.48 12.45,-20.08 15.24,-24.67 17.69,-28.84 20.14,-33.00 21.76,-36.88 23.38,-40.76 24.39,-43.66 25.40,-46.56 25.80,-48.65 26.20,-50.74 26.71,-52.41 27.22,-54.07 27.42,-55.05 27.61,-56.04 27.70,-56.22 27.79,-56.41 27.92,-56.58 28.05,-56.74 28.21,-56.87 28.38,-56.99 28.57,-57.08 28.76,-57.16 28.96,-57.20 29.17,-57.23 29.37,-57.22 29.58,-57.20 29.78,-57.14 29.98,-57.08 30.15,-56.97 30.33,-56.86 30.48,-56.71 30.62,-56.56 30.73,-56.38 30.84,-56.21 30.90,-56.01 30.96,-55.81 30.97,-55.60 30.98,-55.39 30.94,-55.19 30.90,-54.98 30.54,-54.56 30.19,-54.13 30.30,-52.58 30.42,-51.04 29.75,-44.79 29.08,-38.54 28.48,-32.45 27.88,-26.36 27.28,-20.93 26.67,-15.50 26.16,-11.36 25.66,-7.22 25.28,-5.46 24.90,-3.69 24.88,-3.58 24.86,-3.48 24.80,-3.39 24.75,-3.30 24.66,-3.23 24.58,-3.16 24.48,-3.12 24.39,-3.08 24.28,-3.08 24.17,-3.07 24.07,-3.10 23.97,-3.13 23.88,-3.19 23.79,-3.25 23.73,-3.34 23.67,-3.42 23.63,-3.52 23.60,-3.62 23.60,-3.73 23.60,-3.83 23.63,-3.94 23.67,-4.04 23.73,-4.12 23.80,-4.20 23.89,-4.26 23.97,-4.32 24.08,-4.35 24.18,-4.38 24.28,-4.37 24.39,-4.37 24.49,-4.33 24.59,-4.29 24.67,-4.22 24.75,-4.15 24.80,-4.06 24.86,-3.97 24.88,-3.86 24.90,-3.76 24.89,-3.65 24.88,-3.55 24.83,-3.45 24.79,-3.36 24.72,-3.28 24.64,-3.20 24.55,-3.15 24.45,-3.10 24.35,-3.09 24.24,-3.07 24.14,-3.09 24.04,-3.10 23.94,-3.16 23.85,-3.21 23.77,-3.28 23.70,-3.36 23.66,-3.46 23.61,-3.55 23.60,-3.66 23.59,-3.76 23.59,-3.76 23.59,-3.76 23.42,-5.56 23.25,-7.36 23.23,-11.61 23.21,-15.87 23.74,-21.29 24.27,-26.71 24.87,-32.82 25.47,-38.93 26.14,-45.07 26.82,-51.21 27.21,-53.62 27.61,-56.03 27.70,-56.22 27.79,-56.41 27.92,-56.58 28.05,-56.74 28.21,-56.87 28.38,-56.99 28.57,-57.08 28.76,-57.16 28.96,-57.20 29.17,-57.23 29.37,-57.22 29.58,-57.20 29.78,-57.14 29.98,-57.08 30.15,-56.97 30.33,-56.86 30.48,-56.71 30.62,-56.56 30.73,-56.39 30.84,-56.21 30.90,-56.01 30.96,-55.81 30.97,-55.60 30.98,-55.39 30.94,-55.19 30.90,-54.98 30.68,-54.01 30.45,-53.03 29.96,-51.57 29.46,-50.10 28.99,-47.79 28.53,-45.48 27.48,-42.48 26.44,-39.48 24.72,-35.40 23.00,-31.32 20.55,-27.13 18.10,-22.94 15.29,-18.26 12.47,-13.57 9.59,-9.31 6.70,-5.04 4.27,-2.81 1.83,-0.57 1.96,-0.41 2.09,-0.25 2.17,-0.06 2.25,0.12 2.29,0.32 2.33,0.52 2.32,0.73 2.30,0.93 2.24,1.13 2.18,1.33 2.08,1.50 1.97,1.68 1.82,1.82 1.68,1.97 1.50,2.07 1.33,2.18 1.13,2.24 0.93,2.30 0.73,2.32 0.52,2.33 0.32,2.29 0.12,2.25 -0.06,2.17 -0.25,2.09 -0.41,1.96 -0.57,1.83 -0.52,1.15 -0.46,0.46 -0.51,0.40 -0.56,0.33 -0.59,0.26 -0.62,0.19 -0.64,0.11 -0.65,0.03 -0.65,-0.03 -0.64,-0.11 -0.62,-0.19 -0.59,-0.26 -0.55,-0.33 -0.51,-0.40 -0.46,-0.46 -0.40,-0.51 -0.33,-0.55 -0.26,-0.59 -0.19,-0.62 -0.11,-0.64 -0.03,-0.65 0.03,-0.65 0.11,-0.64 0.19,-0.62 0.26,-0.59 0.33,-0.56 0.40,-0.51 0.46,-0.46 0.46,-0.46 L 0.46,-0.46 Z"/></g><g transform="translate(917.0286254882812 105.3037109375) rotate(0 -0.5477294921875 -1.6431427001953125)" stroke="none"><path fill="#1e1e1e" d="M -0.62,-0.20 Q -0.62,-0.20 -0.78,-1.31 -0.95,-2.41 -1.21,-2.89 -1.46,-3.36 -0.94,-3.90 -0.41,-4.44 -0.06,-3.14 0.29,-1.84 0.33,-1.74 0.38,-1.65 0.39,-1.54 0.40,-1.43 0.37,-1.33 0.35,-1.23 0.29,-1.14 0.23,-1.05 0.15,-0.98 0.07,-0.91 -0.02,-0.87 -0.12,-0.84 -0.23,-0.83 -0.33,-0.83 -0.43,-0.86 -0.54,-0.89 -0.62,-0.95 -0.71,-1.01 -0.77,-1.10 -0.83,-1.18 -0.87,-1.28 -0.90,-1.38 -0.90,-1.49 -0.90,-1.60 -0.86,-1.70 -0.83,-1.80 -0.76,-1.88 -0.69,-1.96 -0.61,-2.02 -0.52,-2.08 -0.41,-2.11 -0.31,-2.13 -0.20,-2.13 -0.10,-2.12 -0.00,-2.08 0.09,-2.04 0.17,-1.97 0.25,-1.90 0.30,-1.80 0.35,-1.71 0.37,-1.61 0.40,-1.50 0.38,-1.40 0.37,-1.29 0.32,-1.20 0.28,-1.10 0.20,-1.03 0.13,-0.95 0.03,-0.90 -0.05,-0.85 -0.16,-0.84 -0.26,-0.82 -0.37,-0.84 -0.47,-0.86 -0.56,-0.91 -0.66,-0.96 -0.73,-1.04 -0.80,-1.12 -0.80,-1.12 -0.80,-1.12 -2.03,-3.02 -3.26,-4.91 -2.49,-5.70 -1.72,-6.49 -0.37,-6.12 0.97,-5.75 1.67,-4.67 2.37,-3.59 2.29,-2.48 2.21,-1.36 1.41,-0.57 0.62,0.20 0.58,0.27 0.55,0.35 0.50,0.41 0.45,0.47 0.39,0.52 0.32,0.56 0.25,0.59 0.18,0.63 0.10,0.64 0.02,0.65 -0.05,0.64 -0.13,0.64 -0.20,0.61 -0.28,0.59 -0.34,0.55 -0.41,0.50 -0.46,0.45 -0.52,0.39 -0.56,0.32 -0.60,0.25 -0.62,0.18 -0.64,0.10 -0.65,0.02 -0.65,-0.05 -0.63,-0.13 -0.62,-0.20 -0.62,-0.20 L -0.62,-0.20 Z"/></g><g transform="translate(965.2282104492188 76.8221435546875) rotate(0 -4.92950439453125 24.099807739257812)" stroke="none"><path fill="#1e1e1e" d="M 0.29,0.58 Q 0.29,0.58 -0.06,1.33 -0.42,2.09 -1.32,3.56 -2.23,5.04 -3.23,8.38 -4.24,11.72 -5.63,18.19 -7.03,24.66 -7.30,29.82 -7.58,34.97 -7.12,38.61 -6.67,42.25 -5.61,44.99 -4.54,47.73 -4.50,47.83 -4.46,47.93 -4.46,48.04 -4.45,48.14 -4.48,48.25 -4.51,48.35 -4.57,48.44 -4.63,48.52 -4.71,48.59 -4.80,48.65 -4.90,48.68 -5.00,48.72 -5.11,48.72 -5.21,48.72 -5.31,48.68 -5.41,48.65 -5.50,48.58 -5.58,48.52 -5.64,48.43 -5.70,48.34 -5.73,48.24 -5.76,48.14 -5.75,48.03 -5.75,47.93 -5.71,47.83 -5.67,47.73 -5.60,47.65 -5.53,47.57 -5.44,47.51 -5.35,47.46 -5.24,47.44 -5.14,47.41 -5.03,47.43 -4.93,47.44 -4.83,47.48 -4.73,47.53 -4.66,47.60 -4.58,47.67 -4.53,47.77 -4.48,47.86 -4.47,47.97 -4.45,48.07 -4.47,48.18 -4.48,48.28 -4.53,48.38 -4.58,48.47 -4.66,48.54 -4.74,48.61 -4.84,48.66 -4.93,48.70 -5.04,48.71 -5.14,48.73 -5.25,48.70 -5.35,48.68 -5.44,48.62 -5.53,48.57 -5.60,48.49 -5.67,48.41 -5.67,48.41 -5.67,48.41 -7.91,45.61 -10.15,42.82 -10.71,38.80 -11.26,34.78 -10.95,29.33 -10.64,23.88 -9.17,17.24 -7.70,10.61 -6.42,6.82 -5.13,3.04 -3.61,1.10 -2.09,-0.83 -1.19,-0.70 -0.29,-0.58 -0.21,-0.61 -0.14,-0.64 -0.06,-0.64 0.01,-0.65 0.09,-0.64 0.16,-0.63 0.24,-0.60 0.31,-0.57 0.38,-0.52 0.44,-0.48 0.49,-0.42 0.54,-0.36 0.58,-0.29 0.61,-0.22 0.63,-0.14 0.65,-0.06 0.65,0.01 0.65,0.09 0.62,0.16 0.60,0.24 0.57,0.31 0.53,0.38 0.47,0.44 0.42,0.50 0.35,0.54 0.29,0.58 0.29,0.58 L 0.29,0.58 Z"/></g><g transform="translate(977.2781372070312 103.11282348632812) rotate(0 8.2158203125 1.0954437255859375)" stroke="none"><path fill="#1e1e1e" d="M 0.18,-0.63 Q 0.18,-0.63 2.54,-0.55 4.90,-0.48 6.64,-0.24 8.38,-0.00 11.59,-0.15 14.80,-0.31 14.90,-0.32 15.01,-0.32 15.11,-0.29 15.21,-0.27 15.30,-0.21 15.39,-0.15 15.45,-0.06 15.52,0.01 15.55,0.11 15.58,0.21 15.58,0.32 15.58,0.43 15.55,0.53 15.51,0.63 15.45,0.71 15.39,0.80 15.30,0.86 15.21,0.92 15.11,0.94 15.00,0.97 14.90,0.97 14.79,0.96 14.69,0.92 14.59,0.88 14.51,0.81 14.43,0.74 14.38,0.65 14.32,0.56 14.30,0.46 14.28,0.35 14.29,0.25 14.30,0.14 14.35,0.05 14.39,-0.04 14.47,-0.12 14.54,-0.19 14.63,-0.24 14.73,-0.29 14.83,-0.31 14.94,-0.33 15.04,-0.31 15.15,-0.29 15.24,-0.24 15.33,-0.19 15.41,-0.12 15.48,-0.04 15.52,0.05 15.57,0.15 15.58,0.25 15.59,0.36 15.57,0.46 15.54,0.56 15.49,0.65 15.43,0.75 15.35,0.81 15.27,0.88 15.17,0.92 15.07,0.96 15.07,0.96 15.07,0.96 11.51,2.27 7.95,3.59 5.93,3.29 3.91,3.00 1.86,1.81 -0.18,0.63 -0.25,0.60 -0.32,0.56 -0.38,0.52 -0.45,0.47 -0.50,0.41 -0.55,0.35 -0.58,0.28 -0.62,0.21 -0.63,0.13 -0.65,0.05 -0.65,-0.02 -0.64,-0.10 -0.62,-0.17 -0.60,-0.25 -0.56,-0.32 -0.52,-0.39 -0.47,-0.44 -0.41,-0.50 -0.35,-0.54 -0.28,-0.59 -0.20,-0.61 -0.13,-0.64 -0.05,-0.64 0.02,-0.65 0.10,-0.64 0.18,-0.63 0.18,-0.63 L 0.18,-0.63 Z"/></g><g transform="translate(1007.9506225585938 116.2581787109375) rotate(0 10.95440673828125 -17.527130126953125)" stroke="none"><path fill="#1e1e1e" d="M -0.57,-0.32 Q -0.57,-0.32 0.28,-2.76 1.14,-5.19 2.97,-7.77 4.81,-10.35 7.10,-13.93 9.39,-17.51 11.30,-20.88 13.21,-24.25 14.98,-27.28 16.76,-30.32 17.75,-33.06 18.74,-35.79 19.14,-37.28 19.54,-38.76 19.72,-39.73 19.90,-40.70 19.99,-40.90 20.07,-41.10 20.20,-41.27 20.33,-41.44 20.50,-41.58 20.67,-41.72 20.87,-41.81 21.06,-41.90 21.27,-41.94 21.49,-41.98 21.70,-41.97 21.92,-41.96 22.12,-41.90 22.33,-41.84 22.52,-41.73 22.71,-41.62 22.86,-41.47 23.02,-41.32 23.13,-41.14 23.24,-40.95 23.31,-40.75 23.38,-40.54 23.39,-40.33 23.41,-40.11 23.37,-39.90 23.34,-39.69 23.19,-37.61 23.03,-35.53 21.97,-29.62 20.91,-23.70 20.15,-18.09 19.39,-12.48 19.04,-8.25 18.70,-4.02 18.83,0.25 18.96,4.53 18.96,4.63 18.96,4.74 18.92,4.84 18.89,4.94 18.82,5.03 18.76,5.11 18.67,5.17 18.58,5.23 18.48,5.26 18.38,5.28 18.27,5.28 18.16,5.27 18.07,5.23 17.97,5.19 17.89,5.12 17.81,5.05 17.75,4.96 17.70,4.87 17.68,4.77 17.65,4.66 17.66,4.56 17.68,4.45 17.72,4.36 17.77,4.26 17.84,4.18 17.91,4.11 18.01,4.06 18.10,4.01 18.21,3.99 18.31,3.97 18.42,3.99 18.52,4.01 18.62,4.06 18.71,4.11 18.78,4.19 18.85,4.26 18.90,4.36 18.94,4.46 18.95,4.56 18.96,4.67 18.94,4.77 18.92,4.88 18.86,4.97 18.81,5.06 18.73,5.13 18.64,5.19 18.55,5.23 18.45,5.27 18.34,5.28 18.23,5.28 18.13,5.25 18.03,5.23 17.94,5.17 17.86,5.11 17.79,5.02 17.73,4.94 17.69,4.83 17.66,4.73 17.66,4.73 17.66,4.73 16.39,0.23 15.12,-4.27 15.43,-8.62 15.73,-12.98 16.51,-18.67 17.28,-24.35 18.35,-30.20 19.41,-36.05 19.75,-37.64 20.08,-39.23 19.99,-39.97 19.90,-40.70 19.99,-40.90 20.07,-41.10 20.20,-41.27 20.33,-41.44 20.50,-41.58 20.67,-41.72 20.87,-41.81 21.06,-41.90 21.27,-41.94 21.49,-41.98 21.70,-41.97 21.92,-41.96 22.12,-41.90 22.33,-41.84 22.52,-41.73 22.70,-41.62 22.86,-41.47 23.02,-41.32 23.13,-41.14 23.24,-40.95 23.31,-40.75 23.38,-40.54 23.39,-40.33 23.41,-40.11 23.37,-39.90 23.34,-39.69 23.13,-38.72 22.93,-37.76 22.42,-36.19 21.92,-34.61 20.77,-31.63 19.63,-28.65 17.87,-25.63 16.10,-22.61 14.14,-19.15 12.17,-15.70 9.79,-12.10 7.40,-8.50 5.65,-6.06 3.89,-3.62 2.23,-1.64 0.57,0.32 0.52,0.38 0.47,0.45 0.41,0.50 0.35,0.55 0.28,0.58 0.21,0.62 0.13,0.63 0.05,0.65 -0.02,0.65 -0.10,0.64 -0.17,0.62 -0.25,0.60 -0.32,0.56 -0.39,0.52 -0.44,0.47 -0.50,0.41 -0.54,0.35 -0.59,0.28 -0.61,0.20 -0.64,0.13 -0.64,0.05 -0.65,-0.02 -0.64,-0.10 -0.63,-0.17 -0.60,-0.25 -0.57,-0.32 -0.57,-0.32 L -0.57,-0.32 Z"/></g><g transform="translate(1050.6729125976562 73.53582763671875) rotate(0 7.6680908203125 24.099777221679688)" stroke="none"><path fill="#1e1e1e" d="M -0.65,0 Q -0.65,0 -1.14,-1.20 -1.62,-2.40 -1.81,-3.18 -2.00,-3.95 -1.34,-4.73 -0.68,-5.51 0.76,-5.43 2.22,-5.36 5.19,-3.24 8.17,-1.11 10.08,1.13 11.99,3.38 13.82,7.32 15.65,11.26 16.45,17.84 17.25,24.42 16.93,30.10 16.61,35.78 15.49,40.19 14.36,44.60 11.98,47.99 9.60,51.39 9.53,51.47 9.46,51.54 9.37,51.60 9.27,51.65 9.17,51.67 9.06,51.69 8.96,51.67 8.85,51.66 8.76,51.61 8.66,51.56 8.59,51.49 8.51,51.41 8.47,51.32 8.42,51.22 8.41,51.11 8.39,51.01 8.41,50.91 8.43,50.80 8.49,50.71 8.54,50.62 8.62,50.55 8.70,50.48 8.80,50.43 8.89,50.39 9.00,50.38 9.11,50.38 9.21,50.40 9.31,50.43 9.40,50.49 9.49,50.54 9.56,50.63 9.62,50.71 9.66,50.81 9.70,50.91 9.70,51.02 9.70,51.12 9.67,51.22 9.64,51.32 9.57,51.41 9.51,51.50 9.43,51.56 9.34,51.62 9.24,51.65 9.14,51.68 9.03,51.68 8.92,51.67 8.82,51.64 8.72,51.60 8.64,51.53 8.56,51.47 8.50,51.38 8.45,51.29 8.42,51.18 8.39,51.08 8.40,50.97 8.41,50.87 8.46,50.77 8.50,50.67 8.50,50.67 8.50,50.67 9.62,47.17 10.74,43.66 11.78,39.60 12.82,35.54 13.15,30.19 13.48,24.84 12.84,18.80 12.21,12.76 10.66,9.25 9.11,5.73 7.52,3.78 5.93,1.83 3.63,-0.01 1.32,-1.85 0.73,-2.21 0.14,-2.57 0.88,-2.60 1.62,-2.63 1.14,-1.31 0.65,0 0.64,0.07 0.63,0.15 0.60,0.23 0.58,0.30 0.53,0.37 0.49,0.43 0.43,0.48 0.37,0.54 0.30,0.57 0.23,0.61 0.15,0.63 0.07,0.65 -0.00,0.65 -0.07,0.65 -0.15,0.63 -0.23,0.61 -0.30,0.57 -0.37,0.54 -0.43,0.48 -0.49,0.43 -0.53,0.37 -0.58,0.30 -0.60,0.23 -0.63,0.15 -0.64,0.07 -0.65,-0.00 -0.65,-0.00 L -0.65,0 Z"/></g><g transform="translate(1093.3953247070312 83.39483642578125) rotate(0 12.59759521484375 1.0954437255859375)" stroke="none"><path fill="#1e1e1e" d="M 0,-0.65 Q 0,-0.65 1.25,-1.15 2.51,-1.65 4.00,-1.67 5.48,-1.69 7.80,-1.40 10.13,-1.11 13.19,-0.99 16.24,-0.86 18.61,-0.39 20.98,0.07 22.72,0.75 24.46,1.43 24.57,1.46 24.67,1.49 24.75,1.56 24.84,1.62 24.90,1.70 24.97,1.79 25.00,1.89 25.03,1.99 25.03,2.10 25.03,2.20 24.99,2.30 24.96,2.40 24.89,2.49 24.83,2.57 24.74,2.63 24.65,2.69 24.55,2.71 24.45,2.74 24.34,2.73 24.23,2.73 24.14,2.69 24.04,2.64 23.96,2.57 23.88,2.50 23.82,2.41 23.77,2.32 23.75,2.22 23.73,2.11 23.74,2.01 23.75,1.90 23.80,1.81 23.85,1.71 23.92,1.63 23.99,1.56 24.09,1.51 24.18,1.46 24.29,1.45 24.39,1.43 24.50,1.45 24.60,1.47 24.70,1.52 24.79,1.57 24.86,1.65 24.93,1.73 24.98,1.82 25.02,1.92 25.03,2.03 25.04,2.13 25.01,2.24 24.99,2.34 24.93,2.43 24.88,2.52 24.80,2.59 24.71,2.65 24.61,2.69 24.52,2.73 24.41,2.73 24.30,2.74 24.30,2.74 24.30,2.74 22.39,2.97 20.47,3.20 18.28,2.93 16.09,2.66 12.86,2.51 9.63,2.37 7.55,2.03 5.47,1.69 3.99,1.67 2.51,1.65 1.25,1.15 0,0.65 -0.07,0.64 -0.15,0.63 -0.23,0.60 -0.30,0.58 -0.37,0.53 -0.43,0.49 -0.48,0.43 -0.54,0.37 -0.57,0.30 -0.61,0.23 -0.63,0.15 -0.65,0.07 -0.65,-0.00 -0.65,-0.07 -0.63,-0.15 -0.61,-0.23 -0.57,-0.30 -0.54,-0.37 -0.48,-0.43 -0.43,-0.49 -0.37,-0.53 -0.30,-0.58 -0.23,-0.60 -0.15,-0.63 -0.07,-0.64 0.00,-0.65 0.00,-0.65 L 0,-0.65 Z"/></g><g transform="translate(1103.2543334960938 98.73104858398438) rotate(0 9.8590087890625 1.6431732177734375)" stroke="none"><path fill="#1e1e1e" d="M 0.65,0 Q 0.65,0 0.72,0.27 0.79,0.54 2.19,0.69 3.59,0.83 5.55,0.66 7.51,0.48 10.29,0.15 13.08,-0.18 16.19,-0.26 19.31,-0.34 19.42,-0.34 19.53,-0.35 19.63,-0.32 19.73,-0.29 19.82,-0.23 19.91,-0.17 19.97,-0.09 20.04,-0.00 20.07,0.09 20.10,0.19 20.10,0.29 20.10,0.40 20.07,0.50 20.04,0.60 19.97,0.69 19.91,0.77 19.82,0.83 19.73,0.89 19.63,0.92 19.53,0.95 19.42,0.94 19.31,0.93 19.22,0.90 19.12,0.86 19.04,0.79 18.96,0.72 18.90,0.63 18.85,0.54 18.82,0.43 18.80,0.33 18.81,0.22 18.82,0.12 18.87,0.02 18.91,-0.07 18.99,-0.14 19.06,-0.22 19.15,-0.27 19.25,-0.32 19.35,-0.34 19.46,-0.35 19.56,-0.34 19.67,-0.32 19.76,-0.27 19.85,-0.22 19.93,-0.14 20.00,-0.07 20.04,0.02 20.09,0.12 20.10,0.22 20.11,0.33 20.09,0.43 20.07,0.54 20.01,0.63 19.96,0.72 19.88,0.79 19.79,0.86 19.70,0.90 19.60,0.93 19.60,0.93 19.60,0.93 16.58,2.21 13.56,3.48 10.66,3.90 7.76,4.32 5.23,4.43 2.70,4.54 0.95,3.89 -0.79,3.23 -0.72,1.61 -0.65,0 -0.64,-0.07 -0.63,-0.15 -0.60,-0.23 -0.58,-0.30 -0.53,-0.37 -0.49,-0.43 -0.43,-0.48 -0.37,-0.54 -0.30,-0.57 -0.23,-0.61 -0.15,-0.63 -0.07,-0.65 0.00,-0.65 0.07,-0.65 0.15,-0.63 0.23,-0.61 0.30,-0.57 0.37,-0.54 0.43,-0.48 0.49,-0.43 0.53,-0.37 0.58,-0.30 0.60,-0.23 0.63,-0.15 0.64,-0.07 0.65,0.00 0.65,0.00 L 0.65,0 Z"/></g><g transform="translate(1189.7944946289062 70.24948120117188) rotate(0 -3.286376953125 25.742965698242188)" stroke="none"><path fill="#1e1e1e" d="M 0.20,0.62 Q 0.20,0.62 -0.60,1.34 -1.41,2.06 -5.30,3.16 -9.20,4.26 -12.11,5.07 -15.01,5.88 -16.37,6.03 -17.72,6.18 -16.67,7.45 -15.61,8.72 -13.39,10.48 -11.16,12.24 -7.33,15.25 -3.49,18.26 -0.80,21.23 1.89,24.20 3.16,27.27 4.43,30.34 4.31,33.80 4.19,37.26 1.80,41.46 -0.57,45.65 -2.92,48.37 -5.28,51.10 -7.75,52.08 -10.21,53.06 -12.52,52.02 -14.83,50.98 -16.52,47.72 -18.20,44.46 -18.54,41.64 -18.87,38.81 -17.65,35.76 -16.42,32.71 -12.90,29.42 -9.38,26.13 -5.72,23.24 -2.06,20.35 1.34,17.56 4.75,14.78 7.03,12.13 9.31,9.48 10.19,7.57 11.07,5.67 11.17,4.32 11.26,2.98 10.29,2.08 9.33,1.19 7.31,0.83 5.30,0.46 3.83,0.17 2.37,-0.11 1.06,0.91 -0.23,1.95 -0.30,2.03 -0.36,2.12 -0.45,2.18 -0.53,2.24 -0.63,2.27 -0.74,2.30 -0.84,2.30 -0.95,2.29 -1.05,2.26 -1.15,2.22 -1.23,2.15 -1.31,2.08 -1.37,1.99 -1.42,1.90 -1.45,1.80 -1.47,1.70 -1.46,1.59 -1.45,1.49 -1.41,1.39 -1.37,1.29 -1.30,1.21 -1.23,1.14 -1.13,1.08 -1.04,1.03 -0.94,1.01 -0.83,0.99 -0.73,1.01 -0.62,1.03 -0.53,1.07 -0.43,1.12 -0.36,1.20 -0.28,1.27 -0.24,1.37 -0.19,1.46 -0.18,1.57 -0.16,1.67 -0.18,1.78 -0.20,1.88 -0.26,1.98 -0.31,2.07 -0.39,2.14 -0.47,2.21 -0.57,2.25 -0.67,2.29 -0.77,2.30 -0.88,2.30 -0.98,2.28 -1.08,2.25 -1.17,2.19 -1.26,2.14 -1.33,2.05 -1.39,1.97 -1.43,1.87 -1.47,1.77 -1.47,1.66 -1.47,1.56 -1.44,1.45 -1.40,1.35 -1.40,1.35 -1.40,1.35 0.54,-1.07 2.50,-3.51 4.34,-3.29 6.18,-3.07 8.97,-2.23 11.76,-1.40 13.22,0.53 14.67,2.47 14.53,4.81 14.38,7.15 13.22,9.49 12.06,11.82 9.54,14.69 7.02,17.55 3.57,20.34 0.13,23.14 -3.43,25.95 -7.00,28.77 -10.12,31.50 -13.24,34.23 -14.31,36.45 -15.38,38.67 -15.18,40.84 -14.97,43.01 -13.91,45.59 -12.85,48.16 -11.66,48.98 -10.48,49.79 -9.16,49.22 -7.85,48.64 -5.75,46.23 -3.65,43.81 -1.48,40.35 0.67,36.89 0.88,34.20 1.09,31.51 0.17,28.99 -0.75,26.48 -3.20,23.73 -5.65,20.98 -9.50,17.94 -13.34,14.90 -15.84,12.79 -18.35,10.68 -19.49,8.66 -20.64,6.64 -19.98,5.22 -19.32,3.80 -17.58,3.29 -15.83,2.78 -12.93,2.04 -10.03,1.30 -6.20,0.25 -2.36,-0.80 -1.28,-0.71 -0.20,-0.62 -0.13,-0.63 -0.05,-0.65 0.02,-0.65 0.10,-0.64 0.18,-0.62 0.25,-0.60 0.32,-0.56 0.39,-0.52 0.45,-0.46 0.50,-0.41 0.55,-0.34 0.59,-0.28 0.61,-0.20 0.64,-0.13 0.64,-0.05 0.65,0.02 0.64,0.10 0.63,0.18 0.59,0.25 0.56,0.32 0.52,0.39 0.47,0.45 0.41,0.50 0.35,0.55 0.27,0.58 0.20,0.62 0.20,0.62 L 0.20,0.62 Z"/></g><g transform="translate(1222.6577758789062 97.6356201171875) rotate(0 11.50225830078125 -3.834075927734375)" stroke="none"><path fill="#1e1e1e" d="M 0.46,0.46 Q 0.46,0.46 0.41,1.04 0.37,1.63 0.24,1.74 0.10,1.84 -0.05,1.91 -0.20,1.98 -0.37,2.01 -0.54,2.04 -0.71,2.03 -0.88,2.02 -1.04,1.97 -1.21,1.92 -1.35,1.83 -1.50,1.74 -1.62,1.62 -1.74,1.50 -1.83,1.35 -1.92,1.21 -1.97,1.04 -2.02,0.88 -2.03,0.71 -2.04,0.54 -2.01,0.37 -1.98,0.20 -1.91,0.05 -1.84,-0.10 -1.74,-0.24 -1.63,-0.37 -1.20,-0.95 -0.78,-1.53 1.47,-2.86 3.72,-4.19 6.52,-5.66 9.31,-7.12 12.19,-8.11 15.07,-9.10 17.31,-9.51 19.55,-9.93 21.85,-9.62 24.16,-9.31 24.26,-9.30 24.37,-9.29 24.47,-9.26 24.57,-9.22 24.65,-9.15 24.73,-9.08 24.78,-8.99 24.84,-8.90 24.86,-8.79 24.89,-8.69 24.87,-8.58 24.86,-8.48 24.82,-8.38 24.77,-8.29 24.70,-8.21 24.63,-8.13 24.53,-8.08 24.44,-8.03 24.33,-8.01 24.23,-8.00 24.12,-8.01 24.02,-8.03 23.93,-8.08 23.83,-8.13 23.76,-8.21 23.69,-8.28 23.64,-8.38 23.60,-8.48 23.59,-8.58 23.57,-8.69 23.60,-8.79 23.62,-8.90 23.67,-8.99 23.73,-9.08 23.81,-9.15 23.89,-9.22 23.99,-9.26 24.09,-9.29 24.19,-9.30 24.30,-9.31 24.40,-9.28 24.50,-9.25 24.59,-9.19 24.68,-9.13 24.75,-9.05 24.81,-8.96 24.84,-8.86 24.88,-8.76 24.88,-8.65 24.88,-8.55 24.84,-8.45 24.81,-8.35 24.75,-8.26 24.68,-8.18 24.59,-8.12 24.51,-8.06 24.40,-8.03 24.30,-8.00 24.30,-8.00 24.30,-8.00 22.25,-7.21 20.20,-6.43 18.20,-6.06 16.21,-5.69 13.57,-4.82 10.94,-3.96 8.16,-2.55 5.39,-1.15 3.45,-0.17 1.50,0.80 0.93,1.22 0.37,1.63 0.24,1.74 0.10,1.84 -0.05,1.91 -0.20,1.98 -0.37,2.01 -0.54,2.04 -0.71,2.03 -0.88,2.02 -1.04,1.97 -1.21,1.92 -1.35,1.83 -1.50,1.74 -1.62,1.62 -1.74,1.50 -1.83,1.35 -1.92,1.21 -1.97,1.04 -2.02,0.88 -2.03,0.71 -2.04,0.54 -2.01,0.37 -1.98,0.20 -1.91,0.05 -1.84,-0.10 -1.74,-0.24 -1.63,-0.37 -1.04,-0.41 -0.46,-0.46 -0.40,-0.51 -0.33,-0.56 -0.26,-0.59 -0.19,-0.62 -0.11,-0.64 -0.03,-0.65 0.03,-0.65 0.11,-0.64 0.19,-0.62 0.26,-0.59 0.33,-0.55 0.40,-0.51 0.46,-0.46 0.51,-0.40 0.55,-0.33 0.59,-0.26 0.62,-0.19 0.64,-0.11 0.65,-0.03 0.65,0.03 0.64,0.11 0.62,0.19 0.59,0.26 0.56,0.33 0.51,0.40 0.46,0.46 0.46,0.46 L 0.46,0.46 Z"/></g><g transform="translate(1244.5667114257812 75.72671508789062) rotate(0 -2.19085693359375 15.883956909179688)" stroke="none"><path fill="#1e1e1e" d="M 0,0.65 Q 0,0.65 -0.54,0.46 -1.08,0.26 -1.16,2.72 -1.23,5.18 -1.33,9.03 -1.43,12.88 -0.94,17.26 -0.46,21.64 -0.08,25.74 0.28,29.84 0.29,29.95 0.29,30.05 0.26,30.16 0.23,30.26 0.17,30.34 0.11,30.43 0.02,30.49 -0.06,30.56 -0.16,30.59 -0.26,30.62 -0.36,30.62 -0.47,30.61 -0.57,30.58 -0.67,30.54 -0.75,30.48 -0.84,30.41 -0.89,30.32 -0.95,30.23 -0.98,30.13 -1.00,30.03 -1.00,29.92 -0.99,29.81 -0.95,29.72 -0.91,29.62 -0.84,29.54 -0.76,29.46 -0.67,29.41 -0.58,29.35 -0.48,29.33 -0.37,29.31 -0.27,29.33 -0.16,29.34 -0.07,29.39 0.02,29.43 0.10,29.51 0.17,29.58 0.22,29.68 0.27,29.77 0.28,29.88 0.30,29.98 0.28,30.09 0.26,30.19 0.21,30.28 0.15,30.38 0.08,30.45 0.00,30.52 -0.09,30.56 -0.19,30.61 -0.29,30.61 -0.40,30.62 -0.50,30.60 -0.61,30.57 -0.70,30.52 -0.79,30.46 -0.85,30.38 -0.92,30.30 -0.96,30.20 -0.99,30.10 -0.99,30.10 -0.99,30.10 -2.23,26.06 -3.46,22.03 -4.16,17.42 -4.86,12.81 -4.77,8.85 -4.68,4.88 -4.31,2.31 -3.95,-0.26 -1.97,-0.46 0,-0.65 0.07,-0.64 0.15,-0.63 0.23,-0.60 0.30,-0.58 0.37,-0.53 0.43,-0.49 0.48,-0.43 0.54,-0.37 0.57,-0.30 0.61,-0.23 0.63,-0.15 0.65,-0.07 0.65,0.00 0.65,0.07 0.63,0.15 0.61,0.23 0.57,0.30 0.54,0.37 0.48,0.43 0.43,0.49 0.37,0.53 0.30,0.58 0.23,0.60 0.15,0.63 0.07,0.64 -0.00,0.65 -0.00,0.65 L 0,0.65 Z"/></g><g transform="translate(1267.5711059570312 116.2581787109375) rotate(0 12.59759521484375 -17.527114868164062)" stroke="none"><path fill="#1e1e1e" d="M -0.42,-0.49 Q -0.42,-0.49 1.47,-2.73 3.38,-4.97 4.87,-6.64 6.36,-8.32 8.86,-12.40 11.35,-16.47 13.69,-20.74 16.03,-25.02 17.61,-28.40 19.20,-31.78 20.15,-34.43 21.11,-37.08 21.81,-38.89 22.52,-40.69 22.51,-41.16 22.51,-41.63 22.61,-41.81 22.71,-41.99 22.85,-42.14 23.00,-42.29 23.17,-42.40 23.35,-42.52 23.54,-42.58 23.74,-42.65 23.94,-42.67 24.15,-42.69 24.35,-42.65 24.56,-42.62 24.75,-42.54 24.94,-42.46 25.11,-42.34 25.27,-42.22 25.41,-42.06 25.54,-41.90 25.63,-41.71 25.72,-41.53 25.76,-41.32 25.81,-41.12 25.80,-40.91 25.79,-40.71 25.74,-40.51 25.68,-40.31 25.46,-36.33 25.24,-32.35 24.47,-27.05 23.70,-21.75 22.99,-14.53 22.28,-7.32 21.90,-2.99 21.52,1.32 21.03,3.15 20.54,4.97 20.52,5.07 20.49,5.18 20.44,5.27 20.38,5.36 20.30,5.43 20.22,5.50 20.12,5.53 20.02,5.57 19.91,5.58 19.81,5.58 19.71,5.55 19.60,5.52 19.52,5.46 19.43,5.40 19.36,5.32 19.30,5.23 19.27,5.13 19.23,5.03 19.24,4.92 19.24,4.82 19.27,4.72 19.31,4.62 19.37,4.53 19.44,4.45 19.52,4.39 19.61,4.33 19.72,4.30 19.82,4.28 19.92,4.28 20.03,4.29 20.13,4.33 20.23,4.37 20.31,4.44 20.39,4.51 20.44,4.60 20.50,4.69 20.52,4.80 20.54,4.90 20.53,5.01 20.51,5.11 20.47,5.21 20.42,5.30 20.35,5.38 20.28,5.46 20.18,5.50 20.09,5.55 19.98,5.57 19.88,5.59 19.77,5.57 19.67,5.55 19.58,5.50 19.48,5.45 19.41,5.37 19.34,5.29 19.29,5.20 19.25,5.10 19.24,4.99 19.23,4.89 19.23,4.89 19.23,4.89 18.97,3.02 18.71,1.14 18.87,-3.22 19.03,-7.60 19.60,-14.93 20.17,-22.26 20.93,-27.47 21.69,-32.67 22.01,-36.06 22.33,-39.45 22.42,-40.54 22.51,-41.63 22.61,-41.81 22.71,-41.99 22.85,-42.14 23.00,-42.29 23.17,-42.40 23.35,-42.52 23.54,-42.58 23.74,-42.65 23.94,-42.67 24.15,-42.69 24.35,-42.65 24.56,-42.62 24.75,-42.54 24.94,-42.46 25.11,-42.34 25.27,-42.22 25.41,-42.06 25.54,-41.90 25.63,-41.71 25.72,-41.53 25.76,-41.32 25.81,-41.12 25.80,-40.91 25.79,-40.71 25.74,-40.51 25.68,-40.31 25.67,-39.89 25.67,-39.48 24.89,-37.72 24.11,-35.97 23.05,-33.21 21.99,-30.44 20.32,-27.01 18.66,-23.58 16.30,-19.24 13.95,-14.90 11.33,-10.56 8.71,-6.22 7.07,-4.40 5.43,-2.58 2.93,-1.04 0.42,0.49 0.36,0.54 0.29,0.58 0.22,0.61 0.14,0.64 0.06,0.64 -0.01,0.65 -0.08,0.64 -0.16,0.63 -0.24,0.60 -0.31,0.57 -0.37,0.53 -0.44,0.48 -0.49,0.42 -0.54,0.36 -0.58,0.29 -0.61,0.22 -0.63,0.14 -0.65,0.06 -0.65,-0.01 -0.65,-0.08 -0.63,-0.16 -0.61,-0.24 -0.57,-0.31 -0.53,-0.38 -0.48,-0.44 -0.42,-0.49 -0.42,-0.49 L -0.42,-0.49 Z"/></g><g transform="translate(1311.3888549804688 92.15838623046875) rotate(0 12.0499267578125 -1.6431732177734375)" stroke="none"><path fill="#1e1e1e" d="M -0.15,-0.63 Q -0.15,-0.63 0.96,-1.48 2.09,-2.32 3.37,-2.47 4.65,-2.63 6.79,-2.69 8.94,-2.76 11.29,-3.09 13.65,-3.42 17.90,-3.53 22.15,-3.64 22.26,-3.64 22.36,-3.64 22.46,-3.61 22.56,-3.57 22.65,-3.51 22.73,-3.44 22.79,-3.35 22.85,-3.26 22.88,-3.16 22.91,-3.06 22.90,-2.95 22.89,-2.85 22.85,-2.75 22.81,-2.65 22.74,-2.57 22.67,-2.49 22.58,-2.44 22.49,-2.38 22.39,-2.36 22.28,-2.34 22.18,-2.35 22.07,-2.36 21.98,-2.41 21.88,-2.45 21.80,-2.53 21.73,-2.60 21.68,-2.69 21.63,-2.79 21.61,-2.89 21.60,-3.00 21.61,-3.10 21.63,-3.21 21.68,-3.30 21.73,-3.39 21.81,-3.47 21.89,-3.54 21.98,-3.58 22.08,-3.63 22.19,-3.64 22.29,-3.65 22.40,-3.62 22.50,-3.60 22.59,-3.55 22.68,-3.49 22.75,-3.41 22.82,-3.33 22.86,-3.23 22.89,-3.13 22.90,-3.02 22.90,-2.92 22.88,-2.81 22.85,-2.71 22.79,-2.63 22.73,-2.54 22.64,-2.47 22.56,-2.41 22.45,-2.38 22.35,-2.34 22.35,-2.34 22.35,-2.34 18.24,-1.15 14.13,0.04 11.58,0.39 9.03,0.74 7.04,0.78 5.04,0.83 3.99,0.95 2.94,1.06 1.55,0.85 0.15,0.63 0.08,0.64 0.00,0.65 -0.07,0.64 -0.15,0.63 -0.22,0.61 -0.30,0.58 -0.36,0.53 -0.43,0.49 -0.48,0.43 -0.53,0.37 -0.57,0.30 -0.61,0.23 -0.63,0.15 -0.65,0.08 -0.65,0.00 -0.65,-0.07 -0.63,-0.15 -0.61,-0.23 -0.57,-0.30 -0.54,-0.37 -0.48,-0.43 -0.43,-0.49 -0.37,-0.53 -0.30,-0.58 -0.23,-0.60 -0.15,-0.63 -0.15,-0.63 L -0.15,-0.63 Z"/></g><g transform="translate(1321.2478637695312 104.20828247070312) rotate(0 13.69305419921875 -4.92950439453125)" stroke="none"><path fill="#1e1e1e" d="M -0.36,-0.54 Q -0.36,-0.54 0.28,-1.64 0.92,-2.74 3.13,-3.44 5.33,-4.13 9.26,-5.62 13.19,-7.10 17.19,-8.19 21.19,-9.28 22.96,-9.48 24.73,-9.68 24.83,-9.70 24.94,-9.71 25.04,-9.69 25.15,-9.68 25.24,-9.63 25.33,-9.57 25.41,-9.50 25.48,-9.42 25.52,-9.32 25.57,-9.23 25.58,-9.12 25.59,-9.01 25.56,-8.91 25.54,-8.81 25.48,-8.72 25.43,-8.63 25.35,-8.56 25.26,-8.49 25.16,-8.45 25.07,-8.41 24.96,-8.41 24.85,-8.40 24.75,-8.43 24.65,-8.46 24.56,-8.52 24.47,-8.58 24.41,-8.67 24.35,-8.75 24.31,-8.86 24.28,-8.96 24.28,-9.06 24.28,-9.17 24.32,-9.27 24.35,-9.37 24.42,-9.45 24.48,-9.54 24.57,-9.60 24.66,-9.65 24.76,-9.68 24.87,-9.71 24.97,-9.70 25.08,-9.70 25.18,-9.66 25.28,-9.61 25.36,-9.55 25.44,-9.48 25.49,-9.38 25.54,-9.29 25.57,-9.19 25.59,-9.08 25.57,-8.98 25.56,-8.87 25.52,-8.78 25.47,-8.68 25.40,-8.61 25.32,-8.53 25.23,-8.48 25.13,-8.43 25.13,-8.43 25.13,-8.43 23.59,-7.55 22.04,-6.67 18.24,-5.22 14.44,-3.77 10.39,-2.24 6.34,-0.71 4.60,-0.24 2.85,0.22 1.60,0.38 0.36,0.54 0.29,0.58 0.22,0.61 0.14,0.63 0.06,0.65 -0.01,0.65 -0.08,0.65 -0.16,0.63 -0.24,0.61 -0.31,0.57 -0.38,0.53 -0.44,0.48 -0.49,0.42 -0.54,0.36 -0.58,0.29 -0.61,0.22 -0.64,0.14 -0.64,0.06 -0.65,-0.01 -0.64,-0.08 -0.63,-0.16 -0.60,-0.24 -0.57,-0.31 -0.53,-0.37 -0.48,-0.44 -0.42,-0.49 -0.36,-0.54 -0.36,-0.54 L -0.36,-0.54 Z"/></g><g transform="translate(1386.9745483398438 65.86770629882812) rotate(0 2.7386474609375 20.26573944091797)" stroke="none"><path fill="#1e1e1e" d="M -0.51,0.41 Q -0.51,0.41 -2.19,-0.83 -3.87,-2.07 -4.50,-3.14 -5.14,-4.22 -6.42,-4.00 -7.71,-3.78 -8.67,-1.93 -9.62,-0.09 -10.08,2.72 -10.53,5.53 -10.34,7.88 -10.16,10.23 -8.18,11.08 -6.20,11.93 -4.08,11.46 -1.95,11.00 0.38,9.41 2.72,7.81 3.92,5.45 5.12,3.08 5.65,0.92 6.17,-1.24 5.77,-3.51 5.36,-5.78 4.92,-7.02 4.47,-8.27 4.26,-8.57 4.05,-8.86 4.01,-9.07 3.97,-9.29 3.98,-9.50 3.98,-9.72 4.05,-9.93 4.11,-10.14 4.22,-10.33 4.32,-10.52 4.48,-10.67 4.63,-10.83 4.81,-10.95 4.99,-11.06 5.20,-11.13 5.41,-11.20 5.63,-11.22 5.84,-11.24 6.06,-11.20 6.27,-11.17 6.47,-11.08 6.67,-11.00 6.85,-10.86 7.02,-10.73 7.16,-10.57 7.30,-10.40 7.39,-10.20 7.48,-10.00 7.75,-8.41 8.01,-6.82 9.00,-4.51 9.98,-2.20 11.08,1.12 12.18,4.46 13.59,9.34 15.00,14.23 16.23,18.49 17.47,22.76 18.34,26.51 19.21,30.27 19.28,33.63 19.35,36.99 18.05,40.57 16.75,44.15 14.79,46.45 12.83,48.74 10.50,50.11 8.17,51.49 4.94,51.44 1.72,51.39 -0.75,50.23 -3.22,49.07 -4.78,46.07 -6.34,43.06 -6.39,42.97 -6.43,42.87 -6.45,42.77 -6.46,42.66 -6.44,42.56 -6.42,42.45 -6.37,42.36 -6.32,42.27 -6.24,42.20 -6.16,42.13 -6.06,42.09 -5.96,42.04 -5.86,42.04 -5.75,42.03 -5.65,42.05 -5.55,42.08 -5.46,42.13 -5.37,42.19 -5.30,42.27 -5.23,42.36 -5.20,42.46 -5.16,42.56 -5.16,42.66 -5.15,42.77 -5.19,42.87 -5.22,42.97 -5.28,43.06 -5.34,43.14 -5.43,43.21 -5.51,43.27 -5.62,43.30 -5.72,43.33 -5.82,43.33 -5.93,43.33 -6.03,43.29 -6.13,43.25 -6.21,43.19 -6.29,43.12 -6.35,43.03 -6.41,42.94 -6.43,42.84 -6.46,42.73 -6.45,42.63 -6.44,42.52 -6.40,42.43 -6.36,42.33 -6.29,42.25 -6.22,42.17 -6.12,42.12 -6.03,42.06 -5.93,42.04 -5.82,42.02 -5.72,42.04 -5.61,42.05 -5.52,42.10 -5.42,42.15 -5.35,42.22 -5.27,42.30 -5.27,42.30 -5.27,42.30 -3.37,44.10 -1.48,45.90 0.26,46.74 2.02,47.58 4.29,47.81 6.56,48.03 8.27,47.07 9.97,46.11 11.59,44.40 13.20,42.69 14.39,39.82 15.57,36.94 15.57,34.01 15.56,31.07 14.76,27.42 13.95,23.77 12.74,19.50 11.52,15.23 10.13,10.41 8.74,5.58 7.69,2.38 6.64,-0.82 5.54,-3.52 4.45,-6.23 4.25,-7.55 4.05,-8.86 4.01,-9.07 3.97,-9.29 3.98,-9.50 3.98,-9.72 4.05,-9.93 4.11,-10.14 4.22,-10.33 4.32,-10.52 4.48,-10.67 4.63,-10.83 4.81,-10.95 4.99,-11.06 5.20,-11.13 5.41,-11.20 5.62,-11.22 5.84,-11.24 6.06,-11.20 6.27,-11.17 6.47,-11.08 6.67,-11.00 6.85,-10.86 7.02,-10.73 7.16,-10.57 7.30,-10.40 7.39,-10.20 7.48,-10.00 7.67,-9.73 7.87,-9.45 8.36,-7.87 8.86,-6.29 9.19,-3.38 9.52,-0.48 8.81,2.10 8.10,4.70 6.40,7.60 4.71,10.50 1.70,12.42 -1.29,14.33 -4.33,14.71 -7.38,15.09 -10.14,13.47 -12.90,11.85 -13.50,8.40 -14.10,4.95 -13.42,1.52 -12.75,-1.90 -11.07,-4.37 -9.39,-6.85 -7.24,-7.48 -5.09,-8.11 -3.56,-7.06 -2.03,-6.00 -1.60,-5.11 -1.16,-4.22 -0.32,-2.31 0.51,-0.41 0.55,-0.34 0.59,-0.27 0.62,-0.20 0.64,-0.12 0.65,-0.04 0.65,0.03 0.64,0.11 0.62,0.18 0.59,0.26 0.56,0.33 0.51,0.39 0.46,0.45 0.40,0.50 0.34,0.55 0.27,0.59 0.20,0.62 0.12,0.63 0.04,0.65 -0.03,0.65 -0.11,0.64 -0.18,0.62 -0.26,0.60 -0.33,0.56 -0.39,0.52 -0.45,0.46 -0.51,0.41 -0.51,0.41 L -0.51,0.41 Z"/></g></svg>