<svg version="1.1" xmlns="http://www.w3.org/2000/svg" viewBox="0 0 438.4600524902344 340.9654235839844" width="438.4600524902344" height="340.9654235839844" class="excalidraw-svg">
  <!-- svg-source:excalidraw -->
  
  <defs>
    <style class="style-fonts">
      @font-face {
        font-family: "Virgil";
        src: url("https://excalidraw.com/Virgil.woff2");
      }
      @font-face {
        font-family: "Cascadia";
        src: url("https://excalidraw.com/Cascadia.woff2");
      }
      @font-face {
        font-family: "Assistant";
        src: url("https://excalidraw.com/Assistant-Regular.woff2");
      }
    </style>
    
  </defs>
  <rect x="0" y="0" width="438.4600524902344" height="340.9654235839844" fill="#ffffff"/><g transform="translate(20.9544677734375 52.72236633300781) rotate(0 3.2863311767578125 26.290679931640625)" stroke="none"><path fill="#1e1e1e" d="M 1.26,-0.36 Q 1.26,-0.36 2.79,1.58 4.32,3.53 4.93,5.76 5.54,7.99 5.87,15.57 6.19,23.15 6.30,27.50 6.40,31.85 6.40,35.59 6.41,39.33 6.41,42.99 6.42,46.65 6.83,48.26 7.23,49.87 7.25,50.08 7.27,50.29 7.22,50.50 7.17,50.71 7.06,50.89 6.94,51.07 6.78,51.20 6.61,51.33 6.42,51.41 6.22,51.48 6.00,51.49 5.79,51.50 5.59,51.44 5.38,51.37 5.21,51.25 5.04,51.13 4.91,50.96 4.79,50.78 4.73,50.58 4.66,50.38 4.67,50.17 4.67,49.95 4.74,49.75 4.82,49.55 4.95,49.39 5.08,49.22 5.26,49.11 5.44,48.99 5.64,48.94 5.85,48.89 6.06,48.90 6.27,48.92 6.47,49.00 6.66,49.08 6.82,49.23 6.98,49.37 7.09,49.55 7.19,49.74 7.23,49.94 7.27,50.15 7.25,50.36 7.22,50.57 7.13,50.76 7.03,50.96 6.88,51.11 6.73,51.26 6.54,51.35 6.35,51.45 6.14,51.48 5.93,51.51 5.72,51.47 5.52,51.43 5.33,51.33 5.14,51.22 5.00,51.07 4.86,50.91 4.77,50.71 4.69,50.52 4.69,50.52 4.69,50.52 4.28,48.91 3.87,47.30 1.95,43.37 0.02,39.45 -0.05,35.73 -0.14,32.01 -0.24,27.69 -0.35,23.37 -0.52,16.49 -0.69,9.61 -1.25,7.44 -1.80,5.28 -1.53,2.82 -1.26,0.36 -1.28,0.20 -1.31,0.04 -1.29,-0.10 -1.28,-0.26 -1.23,-0.41 -1.18,-0.56 -1.09,-0.70 -1.01,-0.83 -0.89,-0.94 -0.78,-1.05 -0.64,-1.13 -0.51,-1.21 -0.35,-1.25 -0.20,-1.29 -0.04,-1.30 0.11,-1.30 0.26,-1.27 0.42,-1.24 0.56,-1.17 0.70,-1.10 0.82,-1.00 0.95,-0.90 1.04,-0.77 1.13,-0.65 1.20,-0.50 1.26,-0.36 1.26,-0.36 L 1.26,-0.36 Z"/></g><g transform="translate(34.09979248046875 88.87205505371094) rotate(0 4.92950439453125 8.763557434082031)" stroke="none"><path fill="#1e1e1e" d="M 1.31,0 Q 1.31,0 2.24,2.51 3.18,5.03 3.48,7.14 3.79,9.25 4.39,10.76 4.99,12.28 6.89,13.20 8.79,14.12 9.00,14.13 9.22,14.14 9.41,14.22 9.61,14.30 9.77,14.44 9.93,14.58 10.04,14.77 10.15,14.95 10.19,15.16 10.23,15.37 10.21,15.58 10.18,15.79 10.09,15.98 10.00,16.17 9.85,16.32 9.71,16.48 9.52,16.57 9.33,16.67 9.12,16.70 8.91,16.74 8.70,16.70 8.49,16.66 8.30,16.56 8.12,16.46 7.97,16.30 7.83,16.15 7.74,15.96 7.65,15.76 7.63,15.55 7.61,15.34 7.66,15.13 7.71,14.92 7.82,14.74 7.93,14.56 8.09,14.43 8.26,14.29 8.45,14.21 8.65,14.14 8.86,14.13 9.08,14.12 9.28,14.18 9.49,14.24 9.66,14.36 9.83,14.48 9.96,14.65 10.09,14.82 10.15,15.02 10.22,15.22 10.22,15.44 10.22,15.65 10.15,15.85 10.08,16.05 9.95,16.22 9.81,16.39 9.64,16.50 9.46,16.62 9.26,16.68 9.05,16.73 9.05,16.73 9.05,16.73 6.30,17.42 3.54,18.10 1.43,16.47 -0.68,14.85 -1.60,12.50 -2.53,10.14 -2.85,7.59 -3.18,5.04 -2.24,2.52 -1.31,0 -1.29,-0.15 -1.27,-0.31 -1.21,-0.46 -1.16,-0.61 -1.07,-0.74 -0.98,-0.87 -0.86,-0.97 -0.74,-1.08 -0.60,-1.15 -0.46,-1.22 -0.31,-1.26 -0.15,-1.30 0.00,-1.30 0.15,-1.30 0.31,-1.26 0.46,-1.22 0.60,-1.15 0.74,-1.08 0.86,-0.97 0.98,-0.87 1.07,-0.74 1.16,-0.61 1.21,-0.46 1.27,-0.31 1.29,-0.15 1.31,0.00 1.31,0.00 L 1.31,0 Z"/></g><g transform="translate(45.05426025390625 74.63127136230469) rotate(0 -3.8340606689453125 -2.738616943359375)" stroke="none"><path fill="#1e1e1e" d="M -1.17,0.58 Q -1.17,0.58 -2.53,-0.26 -3.89,-1.12 -5.36,-2.20 -6.84,-3.28 -7.05,-3.24 -7.26,-3.20 -7.47,-3.23 -7.68,-3.26 -7.87,-3.36 -8.06,-3.45 -8.21,-3.60 -8.36,-3.76 -8.45,-3.95 -8.54,-4.14 -8.57,-4.35 -8.59,-4.56 -8.55,-4.77 -8.51,-4.98 -8.40,-5.16 -8.30,-5.35 -8.14,-5.49 -7.98,-5.63 -7.78,-5.71 -7.59,-5.79 -7.38,-5.81 -7.16,-5.82 -6.96,-5.77 -6.75,-5.71 -6.57,-5.60 -6.40,-5.48 -6.26,-5.32 -6.13,-5.15 -6.06,-4.95 -5.99,-4.75 -5.99,-4.54 -5.98,-4.32 -6.05,-4.12 -6.11,-3.92 -6.24,-3.75 -6.36,-3.58 -6.54,-3.45 -6.71,-3.33 -6.91,-3.27 -7.12,-3.21 -7.33,-3.22 -7.54,-3.23 -7.74,-3.30 -7.94,-3.38 -8.10,-3.51 -8.27,-3.65 -8.38,-3.83 -8.49,-4.01 -8.54,-4.21 -8.59,-4.42 -8.57,-4.63 -8.55,-4.84 -8.47,-5.04 -8.38,-5.23 -8.24,-5.39 -8.09,-5.54 -7.91,-5.65 -7.72,-5.75 -7.72,-5.75 -7.72,-5.75 -5.17,-6.49 -2.61,-7.24 -1.50,-6.52 -0.39,-5.81 0.48,-4.86 1.37,-3.91 1.27,-2.25 1.17,-0.58 1.22,-0.43 1.28,-0.28 1.29,-0.13 1.31,0.02 1.29,0.18 1.26,0.33 1.20,0.48 1.15,0.63 1.05,0.76 0.96,0.89 0.84,0.99 0.72,1.09 0.58,1.16 0.44,1.23 0.28,1.27 0.13,1.30 -0.02,1.30 -0.18,1.30 -0.33,1.25 -0.48,1.21 -0.62,1.14 -0.76,1.06 -0.88,0.95 -1.00,0.85 -1.08,0.71 -1.17,0.58 -1.17,0.58 L -1.17,0.58 Z"/></g><g transform="translate(49.43603515625 86.68116760253906) rotate(0 12.049896240234375 10.406723022460938)" stroke="none"><path fill="#1e1e1e" d="M 1.31,0 Q 1.31,0 2.10,2.83 2.89,5.66 2.89,7.12 2.89,8.57 3.50,9.99 4.12,11.40 4.57,11.77 5.02,12.13 5.08,12.50 5.15,12.88 5.13,13.25 5.11,13.63 5.00,13.99 4.88,14.35 4.69,14.68 4.49,15.00 4.22,15.27 3.96,15.54 3.63,15.73 3.31,15.93 2.95,16.04 2.59,16.16 2.21,16.18 1.83,16.20 1.46,16.13 1.08,16.07 0.74,15.91 0.39,15.76 0.10,15.52 -0.19,15.29 -0.43,14.99 -0.66,14.69 -0.81,14.35 -0.97,14.00 -0.95,12.65 -0.93,11.30 -0.10,9.55 0.71,7.79 1.82,6.43 2.92,5.06 5.21,4.28 7.50,3.49 9.42,4.41 11.34,5.34 12.57,7.81 13.79,10.28 14.19,11.95 14.59,13.62 14.74,14.54 14.89,15.46 14.93,15.84 14.97,16.21 14.92,16.59 14.87,16.96 14.73,17.31 14.58,17.66 14.36,17.97 14.14,18.27 13.86,18.52 13.57,18.76 13.23,18.93 12.90,19.10 12.53,19.19 12.16,19.27 11.78,19.26 11.41,19.26 11.04,19.16 10.68,19.06 10.35,18.88 10.01,18.70 9.74,18.44 9.46,18.19 9.25,17.87 9.04,17.56 8.91,17.20 8.79,16.85 8.84,15.79 8.88,14.73 9.42,11.43 9.96,8.13 12.72,6.28 15.49,4.43 17.85,5.21 20.20,6.00 21.71,8.10 23.22,10.21 23.87,11.15 24.53,12.09 24.82,14.05 25.11,16.01 25.08,17.80 25.05,19.59 25.09,19.80 25.13,20.01 25.10,20.22 25.07,20.43 24.98,20.62 24.88,20.81 24.73,20.96 24.58,21.11 24.39,21.21 24.20,21.30 23.99,21.33 23.78,21.36 23.57,21.32 23.36,21.28 23.18,21.18 22.99,21.07 22.85,20.91 22.71,20.76 22.62,20.56 22.54,20.37 22.52,20.15 22.51,19.94 22.56,19.74 22.61,19.53 22.72,19.35 22.84,19.17 23.00,19.04 23.17,18.90 23.37,18.83 23.57,18.76 23.78,18.75 23.99,18.75 24.19,18.81 24.40,18.87 24.57,18.99 24.74,19.12 24.87,19.29 24.99,19.46 25.05,19.67 25.12,19.87 25.11,20.08 25.10,20.29 25.03,20.49 24.96,20.69 24.83,20.86 24.69,21.02 24.51,21.14 24.33,21.25 24.13,21.30 23.92,21.36 23.71,21.34 23.50,21.32 23.30,21.24 23.11,21.15 22.95,21.01 22.79,20.87 22.69,20.69 22.58,20.50 22.58,20.50 22.58,20.50 20.95,18.07 19.32,15.63 18.52,14.58 17.73,13.53 16.54,11.87 15.36,10.21 15.21,11.49 15.07,12.76 14.98,14.11 14.89,15.46 14.93,15.84 14.97,16.21 14.92,16.59 14.87,16.96 14.73,17.31 14.58,17.66 14.36,17.97 14.14,18.27 13.86,18.52 13.57,18.76 13.23,18.93 12.90,19.10 12.53,19.19 12.16,19.27 11.78,19.26 11.41,19.26 11.04,19.16 10.68,19.06 10.35,18.88 10.02,18.70 9.74,18.44 9.46,18.19 9.25,17.87 9.04,17.56 8.92,17.20 8.79,16.85 8.66,15.92 8.53,14.99 8.28,13.80 8.03,12.60 7.79,10.88 7.55,9.17 6.28,10.65 5.02,12.13 5.08,12.50 5.15,12.88 5.13,13.25 5.11,13.63 5.00,13.99 4.88,14.35 4.69,14.68 4.49,15.00 4.22,15.27 3.96,15.54 3.63,15.73 3.31,15.93 2.95,16.04 2.59,16.16 2.21,16.18 1.83,16.20 1.46,16.13 1.09,16.07 0.74,15.91 0.39,15.76 0.10,15.52 -0.19,15.29 -0.43,14.99 -0.66,14.69 -0.81,14.35 -0.97,14.00 -0.75,14.27 -0.53,14.54 -0.97,13.56 -1.42,12.58 -2.15,10.71 -2.89,8.84 -2.89,7.25 -2.89,5.66 -2.10,2.83 -1.31,0 -1.29,-0.15 -1.27,-0.31 -1.21,-0.46 -1.16,-0.61 -1.07,-0.74 -0.98,-0.87 -0.86,-0.97 -0.74,-1.08 -0.60,-1.15 -0.46,-1.22 -0.31,-1.26 -0.15,-1.30 0.00,-1.30 0.15,-1.30 0.31,-1.26 0.46,-1.22 0.60,-1.15 0.74,-1.08 0.86,-0.97 0.98,-0.87 1.07,-0.74 1.16,-0.61 1.21,-0.46 1.27,-0.31 1.29,-0.15 1.31,0.00 1.31,0.00 L 1.31,0 Z"/></g><g transform="translate(12.190887451171875 127.21263122558594) rotate(0 11.502182006835938 4.92950439453125)" stroke="none"><path fill="#1e1e1e" d="M 0.47,-1.22 Q 0.47,-1.22 4.90,-0.54 9.34,0.13 12.39,1.49 15.44,2.84 18.70,5.38 21.96,7.92 22.14,8.04 22.31,8.16 22.44,8.33 22.57,8.50 22.64,8.70 22.70,8.90 22.70,9.12 22.70,9.33 22.63,9.53 22.57,9.73 22.44,9.90 22.31,10.07 22.13,10.19 21.95,10.31 21.75,10.36 21.54,10.42 21.33,10.41 21.12,10.39 20.92,10.31 20.73,10.23 20.56,10.10 20.40,9.96 20.29,9.78 20.19,9.59 20.14,9.39 20.10,9.18 20.12,8.97 20.14,8.76 20.23,8.56 20.32,8.37 20.47,8.22 20.62,8.06 20.80,7.96 20.99,7.87 21.20,7.83 21.41,7.80 21.62,7.83 21.83,7.87 22.02,7.97 22.21,8.07 22.35,8.22 22.50,8.38 22.58,8.57 22.67,8.76 22.70,8.98 22.72,9.19 22.67,9.39 22.63,9.60 22.52,9.78 22.41,9.96 22.24,10.10 22.08,10.24 21.88,10.32 21.69,10.39 21.47,10.41 21.26,10.42 21.06,10.36 20.85,10.30 20.85,10.30 20.85,10.30 16.89,9.47 12.92,8.65 9.98,7.40 7.03,6.16 3.27,3.69 -0.47,1.22 -0.61,1.15 -0.75,1.07 -0.86,0.97 -0.98,0.86 -1.07,0.73 -1.16,0.60 -1.22,0.45 -1.27,0.30 -1.29,0.15 -1.31,-0.00 -1.29,-0.16 -1.27,-0.32 -1.21,-0.46 -1.15,-0.61 -1.06,-0.74 -0.97,-0.87 -0.85,-0.97 -0.74,-1.08 -0.60,-1.15 -0.45,-1.23 -0.30,-1.26 -0.15,-1.30 0.00,-1.30 0.16,-1.30 0.31,-1.26 0.47,-1.22 0.47,-1.22 L 0.47,-1.22 Z"/></g><g transform="translate(31.908905029296875 125.02174377441406) rotate(0 -7.120391845703125 6.572669982910156)" stroke="none"><path fill="#1e1e1e" d="M 0.92,0.92 Q 0.92,0.92 -1.66,4.63 -4.24,8.34 -5.92,9.97 -7.60,11.60 -10.10,12.57 -12.60,13.54 -12.79,13.64 -12.98,13.74 -13.19,13.78 -13.40,13.81 -13.61,13.78 -13.82,13.75 -14.00,13.65 -14.19,13.55 -14.34,13.39 -14.48,13.24 -14.57,13.05 -14.66,12.86 -14.69,12.64 -14.71,12.43 -14.66,12.23 -14.62,12.02 -14.51,11.84 -14.40,11.65 -14.24,11.51 -14.08,11.38 -13.88,11.30 -13.68,11.22 -13.47,11.21 -13.26,11.20 -13.05,11.25 -12.85,11.31 -12.67,11.43 -12.50,11.55 -12.37,11.71 -12.24,11.88 -12.17,12.08 -12.10,12.29 -12.10,12.50 -12.10,12.71 -12.17,12.91 -12.24,13.11 -12.37,13.28 -12.49,13.45 -12.67,13.57 -12.84,13.69 -13.05,13.75 -13.25,13.81 -13.47,13.80 -13.68,13.78 -13.88,13.71 -14.07,13.63 -14.24,13.49 -14.40,13.35 -14.51,13.17 -14.62,12.99 -14.66,12.78 -14.71,12.57 -14.69,12.36 -14.66,12.15 -14.58,11.96 -14.49,11.77 -14.34,11.61 -14.20,11.46 -14.20,11.46 -14.20,11.46 -12.90,9.53 -11.60,7.60 -9.97,5.92 -8.34,4.24 -4.63,1.66 -0.92,-0.92 -0.80,-1.02 -0.67,-1.12 -0.53,-1.18 -0.39,-1.25 -0.23,-1.28 -0.07,-1.31 0.07,-1.30 0.23,-1.29 0.38,-1.24 0.53,-1.19 0.67,-1.11 0.80,-1.03 0.92,-0.92 1.03,-0.80 1.11,-0.67 1.19,-0.53 1.24,-0.38 1.29,-0.23 1.30,-0.07 1.31,0.07 1.28,0.23 1.25,0.39 1.18,0.53 1.12,0.67 1.02,0.80 0.92,0.92 0.92,0.92 L 0.92,0.92 Z"/></g><g transform="translate(36.290679931640625 129.4035186767578) rotate(0 10.954452514648438 1.6431732177734375)" stroke="none"><path fill="#1e1e1e" d="M 0.34,-1.26 Q 0.34,-1.26 4.06,-1.25 7.78,-1.24 10.31,-0.86 12.85,-0.47 14.80,0.31 16.74,1.10 18.74,1.07 20.74,1.04 20.95,1.04 21.16,1.04 21.37,1.11 21.57,1.18 21.74,1.31 21.90,1.44 22.02,1.62 22.14,1.79 22.20,2.00 22.25,2.20 22.24,2.41 22.23,2.63 22.15,2.82 22.07,3.02 21.93,3.18 21.79,3.34 21.61,3.45 21.43,3.56 21.22,3.61 21.01,3.65 20.80,3.63 20.59,3.60 20.40,3.51 20.20,3.42 20.05,3.27 19.90,3.13 19.80,2.94 19.70,2.75 19.67,2.54 19.63,2.33 19.67,2.12 19.70,1.91 19.80,1.73 19.90,1.54 20.06,1.39 20.21,1.25 20.41,1.16 20.60,1.07 20.81,1.05 21.02,1.03 21.23,1.07 21.44,1.12 21.62,1.23 21.80,1.34 21.94,1.50 22.07,1.67 22.15,1.86 22.23,2.06 22.24,2.27 22.25,2.49 22.19,2.69 22.13,2.90 22.01,3.07 21.89,3.25 21.72,3.37 21.56,3.50 21.35,3.57 21.15,3.64 21.15,3.64 21.15,3.64 18.80,4.30 16.46,4.96 14.19,5.41 11.92,5.85 9.00,5.44 6.07,5.02 2.86,3.14 -0.34,1.26 -0.49,1.20 -0.63,1.14 -0.76,1.05 -0.89,0.96 -0.99,0.84 -1.09,0.71 -1.16,0.57 -1.23,0.43 -1.27,0.28 -1.30,0.12 -1.30,-0.03 -1.29,-0.19 -1.25,-0.34 -1.21,-0.49 -1.13,-0.63 -1.06,-0.77 -0.95,-0.88 -0.84,-1.00 -0.71,-1.09 -0.58,-1.17 -0.43,-1.23 -0.28,-1.28 -0.12,-1.29 0.03,-1.31 0.18,-1.28 0.34,-1.26 0.34,-1.26 L 0.34,-1.26 Z"/></g><g transform="translate(54.91326904296875 125.02174377441406) rotate(0 6.0249481201171875 6.572669982910156)" stroke="none"><path fill="#1e1e1e" d="M 0.46,-1.22 Q 0.46,-1.22 3.27,-1.03 6.08,-0.83 8.40,0.69 10.72,2.22 11.98,3.89 13.24,5.56 13.40,8.02 13.57,10.48 12.31,12.20 11.06,13.92 7.83,13.67 4.60,13.43 4.40,13.35 4.20,13.28 4.03,13.14 3.87,13.01 3.75,12.83 3.64,12.65 3.59,12.45 3.54,12.24 3.56,12.03 3.57,11.82 3.66,11.62 3.74,11.43 3.89,11.27 4.03,11.11 4.21,11.01 4.40,10.90 4.61,10.86 4.82,10.82 5.03,10.85 5.24,10.88 5.43,10.98 5.62,11.07 5.77,11.22 5.92,11.37 6.01,11.56 6.10,11.76 6.13,11.97 6.16,12.18 6.12,12.39 6.08,12.59 5.97,12.78 5.87,12.96 5.71,13.10 5.55,13.25 5.36,13.33 5.16,13.41 4.95,13.43 4.74,13.45 4.53,13.39 4.32,13.34 4.15,13.23 3.97,13.11 3.83,12.95 3.70,12.78 3.63,12.58 3.56,12.38 3.55,12.17 3.55,11.96 3.61,11.75 3.67,11.55 3.80,11.38 3.92,11.20 4.10,11.08 4.27,10.96 4.47,10.90 4.67,10.83 4.89,10.84 5.10,10.85 5.10,10.85 5.10,10.85 6.64,10.08 8.19,9.31 7.80,8.12 7.41,6.94 5.70,5.78 3.99,4.61 1.76,2.92 -0.46,1.22 -0.60,1.15 -0.74,1.08 -0.86,0.97 -0.97,0.87 -1.07,0.74 -1.16,0.61 -1.21,0.46 -1.27,0.31 -1.29,0.16 -1.31,0.00 -1.29,-0.15 -1.27,-0.30 -1.22,-0.45 -1.16,-0.60 -1.07,-0.73 -0.98,-0.86 -0.86,-0.97 -0.74,-1.07 -0.61,-1.15 -0.47,-1.22 -0.31,-1.26 -0.16,-1.30 -0.00,-1.30 0.15,-1.30 0.30,-1.26 0.46,-1.22 0.46,-1.22 L 0.46,-1.22 Z"/></g><g transform="translate(75.72671508789062 126.1171875) rotate(0 7.6681060791015625 6.024955749511719)" stroke="none"><path fill="#1e1e1e" d="M -1.05,-0.78 Q -1.05,-0.78 -0.73,-2.52 -0.42,-4.25 0.41,-5.21 1.25,-6.18 2.71,-6.91 4.16,-7.65 5.85,-7.88 7.54,-8.12 8.80,-8.09 10.05,-8.05 11.59,-7.03 13.13,-6.01 13.80,-3.85 14.47,-1.69 14.61,-0.63 14.75,0.43 14.48,2.50 14.21,4.57 13.39,6.83 12.56,9.09 10.79,11.54 9.03,13.98 7.62,15.61 6.21,17.24 4.18,18.26 2.16,19.28 -0.04,19.20 -2.25,19.11 -3.67,17.74 -5.10,16.37 -4.83,14.38 -4.57,12.40 -2.80,11.12 -1.03,9.85 0.46,9.49 1.97,9.14 3.29,8.74 4.61,8.34 7.07,8.17 9.54,8.00 12.98,7.12 16.43,6.25 16.63,6.18 16.83,6.11 17.04,6.11 17.25,6.11 17.45,6.18 17.66,6.24 17.83,6.37 18.00,6.50 18.11,6.68 18.23,6.85 18.29,7.06 18.35,7.26 18.34,7.47 18.33,7.69 18.25,7.88 18.17,8.08 18.03,8.24 17.90,8.41 17.71,8.52 17.53,8.63 17.32,8.67 17.12,8.72 16.91,8.70 16.69,8.67 16.50,8.58 16.31,8.49 16.15,8.35 16.00,8.20 15.90,8.02 15.80,7.83 15.77,7.62 15.73,7.41 15.76,7.20 15.80,6.99 15.90,6.80 16.00,6.61 16.15,6.47 16.30,6.32 16.50,6.23 16.69,6.14 16.90,6.12 17.11,6.09 17.32,6.14 17.53,6.19 17.71,6.29 17.89,6.40 18.03,6.57 18.17,6.73 18.25,6.92 18.33,7.12 18.34,7.33 18.35,7.55 18.29,7.75 18.24,7.96 18.12,8.13 18.00,8.31 17.83,8.44 17.66,8.57 17.66,8.57 17.66,8.57 13.97,11.49 10.27,14.42 8.36,14.61 6.44,14.79 4.01,15.35 1.58,15.91 0.50,14.89 -0.57,13.86 0.71,13.58 2.00,13.31 3.19,11.90 4.38,10.49 5.76,8.74 7.15,6.99 7.81,5.31 8.46,3.64 8.61,1.52 8.76,-0.59 8.99,-1.64 9.23,-2.70 7.72,-2.46 6.21,-2.23 5.20,-1.51 4.19,-0.78 2.62,0.00 1.05,0.78 0.94,0.90 0.83,1.01 0.69,1.10 0.56,1.18 0.41,1.23 0.26,1.28 0.10,1.29 -0.05,1.31 -0.20,1.28 -0.36,1.26 -0.50,1.19 -0.65,1.13 -0.78,1.04 -0.90,0.94 -1.00,0.82 -1.10,0.70 -1.17,0.55 -1.24,0.41 -1.27,0.26 -1.30,0.10 -1.30,-0.05 -1.29,-0.20 -1.25,-0.36 -1.20,-0.51 -1.12,-0.65 -1.05,-0.78 -1.05,-0.78 L -1.05,-0.78 Z"/></g><g transform="translate(95.44473266601562 115.16273498535156) rotate(0 5.4772186279296875 -1.0954437255859375)" stroke="none"><path fill="#1e1e1e" d="M 0,-1.31 Q 0,-1.31 2.48,-2.09 4.97,-2.88 7.20,-2.95 9.42,-3.02 9.63,-3.06 9.84,-3.10 10.05,-3.07 10.26,-3.05 10.45,-2.95 10.64,-2.86 10.80,-2.71 10.95,-2.56 11.04,-2.37 11.14,-2.18 11.16,-1.97 11.19,-1.76 11.15,-1.55 11.11,-1.34 11.01,-1.16 10.91,-0.97 10.75,-0.83 10.59,-0.69 10.40,-0.60 10.20,-0.52 9.99,-0.50 9.78,-0.48 9.57,-0.53 9.37,-0.58 9.19,-0.70 9.01,-0.81 8.87,-0.98 8.74,-1.14 8.67,-1.34 8.59,-1.54 8.59,-1.75 8.58,-1.96 8.64,-2.17 8.70,-2.37 8.83,-2.54 8.95,-2.72 9.12,-2.84 9.29,-2.97 9.50,-3.03 9.70,-3.09 9.91,-3.09 10.13,-3.08 10.32,-3.01 10.52,-2.93 10.69,-2.80 10.86,-2.67 10.97,-2.49 11.09,-2.31 11.14,-2.11 11.19,-1.90 11.17,-1.69 11.16,-1.48 11.07,-1.28 10.99,-1.09 10.85,-0.93 10.71,-0.77 10.52,-0.66 10.34,-0.56 10.34,-0.56 10.34,-0.56 7.72,1.15 5.10,2.88 2.55,2.09 0,1.31 -0.15,1.29 -0.31,1.27 -0.46,1.21 -0.61,1.16 -0.74,1.07 -0.87,0.98 -0.97,0.86 -1.08,0.74 -1.15,0.60 -1.22,0.46 -1.26,0.31 -1.30,0.15 -1.30,-0.00 -1.30,-0.15 -1.26,-0.31 -1.22,-0.46 -1.15,-0.60 -1.08,-0.74 -0.97,-0.86 -0.87,-0.98 -0.74,-1.07 -0.61,-1.16 -0.46,-1.21 -0.31,-1.27 -0.15,-1.29 0.00,-1.31 0.00,-1.31 L 0,-1.31 Z"/></g><g transform="translate(103.11285400390625 102.01739501953125) rotate(0 -0.5477294921875 9.311286926269531)" stroke="none"><path fill="#1e1e1e" d="M 1.30,0.09 Q 1.30,0.09 1.78,4.55 2.25,9.02 1.75,11.48 1.25,13.94 0.75,15.87 0.25,17.81 0.20,18.01 0.16,18.22 0.05,18.40 -0.04,18.59 -0.20,18.73 -0.36,18.87 -0.56,18.95 -0.76,19.03 -0.97,19.04 -1.18,19.06 -1.39,19.00 -1.59,18.95 -1.77,18.83 -1.95,18.72 -2.08,18.55 -2.21,18.38 -2.28,18.18 -2.35,17.98 -2.35,17.77 -2.35,17.56 -2.29,17.35 -2.22,17.15 -2.10,16.98 -1.97,16.81 -1.80,16.69 -1.62,16.57 -1.42,16.51 -1.21,16.45 -1.00,16.46 -0.79,16.47 -0.59,16.54 -0.39,16.62 -0.23,16.75 -0.06,16.89 0.04,17.07 0.15,17.25 0.20,17.46 0.25,17.66 0.23,17.87 0.21,18.09 0.12,18.28 0.03,18.47 -0.10,18.63 -0.25,18.79 -0.43,18.89 -0.62,18.99 -0.83,19.03 -1.04,19.06 -1.25,19.03 -1.46,19.00 -1.65,18.90 -1.84,18.81 -1.98,18.65 -2.13,18.50 -2.22,18.31 -2.32,18.12 -2.34,17.91 -2.37,17.70 -2.37,17.70 -2.37,17.70 -2.71,15.70 -3.05,13.71 -3.28,11.16 -3.51,8.61 -2.41,4.25 -1.30,-0.09 -1.27,-0.24 -1.24,-0.40 -1.18,-0.54 -1.11,-0.69 -1.01,-0.81 -0.91,-0.93 -0.79,-1.03 -0.66,-1.13 -0.52,-1.19 -0.37,-1.25 -0.22,-1.28 -0.06,-1.31 0.09,-1.30 0.25,-1.28 0.40,-1.24 0.55,-1.19 0.68,-1.10 0.82,-1.02 0.93,-0.91 1.04,-0.79 1.12,-0.66 1.20,-0.52 1.24,-0.37 1.29,-0.22 1.30,-0.06 1.30,0.09 1.30,0.09 L 1.30,0.09 Z"/></g><g transform="translate(116.2581787109375 56.008697509765625) rotate(0 -4.38177490234375 18.074844360351562)" stroke="none"><path fill="#1e1e1e" d="M 0.67,1.12 Q 0.67,1.12 -0.49,2.71 -1.67,4.30 -3.09,7.05 -4.52,9.80 -5.11,13.04 -5.71,16.27 -6.00,18.30 -6.29,20.32 -6.09,22.45 -5.89,24.58 -5.31,26.93 -4.72,29.28 -4.64,30.82 -4.57,32.37 -2.21,32.94 0.13,33.50 0.33,33.58 0.53,33.65 0.69,33.79 0.85,33.93 0.96,34.11 1.07,34.29 1.12,34.50 1.16,34.71 1.14,34.92 1.12,35.13 1.03,35.32 0.94,35.51 0.80,35.67 0.65,35.82 0.46,35.92 0.28,36.02 0.07,36.06 -0.13,36.09 -0.34,36.06 -0.55,36.03 -0.74,35.93 -0.93,35.83 -1.08,35.67 -1.22,35.52 -1.31,35.33 -1.40,35.14 -1.43,34.92 -1.45,34.71 -1.40,34.51 -1.36,34.30 -1.25,34.12 -1.14,33.93 -0.98,33.80 -0.82,33.66 -0.62,33.58 -0.42,33.50 -0.21,33.49 -0.00,33.47 0.20,33.53 0.40,33.59 0.58,33.71 0.75,33.82 0.88,33.99 1.01,34.16 1.08,34.36 1.15,34.56 1.15,34.78 1.15,34.99 1.08,35.19 1.01,35.39 0.89,35.56 0.76,35.73 0.58,35.85 0.41,35.97 0.20,36.03 0.00,36.09 -0.20,36.08 -0.42,36.06 -0.42,36.06 -0.42,36.06 -3.67,35.41 -6.93,34.75 -8.72,32.81 -10.50,30.86 -11.33,27.96 -12.15,25.05 -12.31,22.23 -12.46,19.41 -12.10,17.19 -11.75,14.97 -10.82,11.19 -9.90,7.41 -8.56,4.71 -7.21,2.02 -5.92,0.75 -4.62,-0.52 -2.65,-0.82 -0.67,-1.12 -0.53,-1.19 -0.38,-1.25 -0.23,-1.28 -0.07,-1.31 0.08,-1.30 0.24,-1.29 0.39,-1.24 0.54,-1.19 0.67,-1.11 0.81,-1.03 0.92,-0.91 1.03,-0.80 1.11,-0.67 1.19,-0.53 1.24,-0.38 1.29,-0.23 1.30,-0.07 1.31,0.08 1.28,0.23 1.25,0.39 1.18,0.53 1.12,0.68 1.02,0.80 0.92,0.93 0.80,1.02 0.67,1.12 0.67,1.12 L 0.67,1.12 Z"/></g><g transform="translate(134.88076782226562 66.96315002441406) rotate(0 19.1702880859375 10.406723022460938)" stroke="none"><path fill="#1e1e1e" d="M -1.00,-0.84 Q -1.00,-0.84 -0.11,-3.29 0.77,-5.75 1.92,-7.00 3.08,-8.24 5.75,-9.13 8.43,-10.01 10.66,-9.53 12.90,-9.05 14.39,-6.96 15.88,-4.86 16.37,-2.48 16.85,-0.10 16.70,1.78 16.55,3.68 16.42,4.74 16.28,5.80 16.03,6.01 15.79,6.23 15.71,6.61 15.63,6.99 15.47,7.35 15.30,7.70 15.06,8.01 14.81,8.31 14.50,8.55 14.19,8.78 13.83,8.94 13.47,9.09 13.08,9.15 12.70,9.22 12.31,9.19 11.92,9.16 11.55,9.04 11.18,8.91 10.85,8.71 10.52,8.50 10.24,8.22 9.97,7.94 9.78,7.60 9.58,7.26 9.47,6.89 9.36,6.51 9.34,6.12 9.32,5.73 10.03,4.48 10.75,3.22 13.23,1.39 15.72,-0.42 18.29,-1.31 20.86,-2.19 23.00,-2.57 25.14,-2.94 26.33,-3.09 27.53,-3.23 28.75,-3.32 29.98,-3.40 32.03,-2.97 34.08,-2.55 35.79,-1.03 37.50,0.47 39.09,2.92 40.69,5.37 41.12,8.02 41.55,10.67 41.68,12.96 41.82,15.25 41.48,17.92 41.13,20.60 39.02,23.35 36.90,26.10 33.70,27.64 30.50,29.17 27.95,29.97 25.40,30.77 22.56,30.39 19.73,30.01 18.39,26.81 17.05,23.60 16.97,23.41 16.88,23.21 16.87,23.00 16.85,22.79 16.90,22.58 16.95,22.37 17.06,22.19 17.18,22.02 17.34,21.88 17.51,21.75 17.71,21.67 17.90,21.60 18.12,21.59 18.33,21.59 18.53,21.65 18.74,21.71 18.91,21.83 19.08,21.96 19.21,22.13 19.33,22.30 19.39,22.50 19.46,22.71 19.45,22.92 19.45,23.13 19.38,23.33 19.30,23.53 19.17,23.70 19.04,23.86 18.86,23.98 18.68,24.09 18.47,24.14 18.27,24.20 18.06,24.18 17.84,24.16 17.65,24.08 17.45,24.00 17.30,23.86 17.14,23.71 17.03,23.53 16.93,23.35 16.89,23.14 16.84,22.93 16.87,22.72 16.90,22.51 16.99,22.32 17.09,22.13 17.24,21.98 17.39,21.82 17.58,21.73 17.77,21.63 17.98,21.60 18.19,21.58 18.40,21.61 18.61,21.65 18.79,21.76 18.98,21.86 19.12,22.02 19.26,22.18 19.26,22.18 19.26,22.18 21.24,23.02 23.22,23.86 25.40,23.08 27.58,22.31 29.60,21.63 31.62,20.94 32.88,19.95 34.14,18.96 34.33,17.28 34.52,15.60 34.44,13.58 34.35,11.55 33.94,9.14 33.53,6.72 32.81,5.92 32.08,5.12 31.18,4.34 30.27,3.56 28.24,3.69 26.21,3.83 24.56,4.06 22.90,4.29 21.00,4.82 19.10,5.35 17.44,5.79 15.79,6.23 15.71,6.61 15.63,6.99 15.47,7.35 15.30,7.70 15.06,8.01 14.81,8.31 14.50,8.55 14.19,8.78 13.83,8.94 13.47,9.09 13.08,9.15 12.70,9.22 12.31,9.19 11.92,9.16 11.55,9.04 11.18,8.91 10.85,8.71 10.52,8.50 10.24,8.22 9.97,7.94 9.78,7.60 9.58,7.26 9.47,6.89 9.36,6.51 9.34,6.12 9.32,5.73 9.77,5.15 10.21,4.58 10.41,2.74 10.60,0.91 10.19,-1.49 9.77,-3.91 8.46,-3.85 7.15,-3.78 6.33,-2.79 5.52,-1.80 3.26,-0.48 1.00,0.84 0.89,0.94 0.77,1.05 0.64,1.13 0.50,1.21 0.35,1.25 0.19,1.29 0.03,1.30 -0.11,1.30 -0.27,1.27 -0.42,1.24 -0.57,1.17 -0.71,1.10 -0.83,1.00 -0.95,0.90 -1.05,0.77 -1.14,0.64 -1.20,0.49 -1.26,0.35 -1.28,0.19 -1.31,0.03 -1.29,-0.11 -1.28,-0.27 -1.23,-0.42 -1.18,-0.57 -1.09,-0.70 -1.00,-0.84 -1.00,-0.84 L -1.00,-0.84 Z"/></g><g transform="translate(190.74844360351562 28.62256622314453) rotate(0 6.02496337890625 -9.311283111572266)" stroke="none"><path fill="#1e1e1e" d="M -1.02,-0.82 Q -1.02,-0.82 -0.46,-2.95 0.10,-5.08 1.49,-7.21 2.89,-9.34 4.44,-11.83 6.00,-14.32 6.96,-16.00 7.93,-17.67 8.30,-18.09 8.67,-18.51 8.90,-18.81 9.13,-19.12 9.43,-19.36 9.73,-19.60 10.07,-19.77 10.42,-19.93 10.80,-20.01 11.17,-20.09 11.55,-20.07 11.94,-20.05 12.30,-19.95 12.67,-19.84 13.00,-19.65 13.34,-19.46 13.61,-19.19 13.89,-18.93 14.09,-18.60 14.30,-18.28 14.42,-17.92 14.54,-17.55 14.57,-17.17 14.60,-16.79 14.54,-16.41 14.48,-16.03 14.33,-15.68 14.18,-15.33 13.63,-13.19 13.08,-11.04 11.95,-9.65 10.81,-8.25 10.01,-6.45 9.20,-4.65 9.09,-4.47 8.98,-4.29 8.81,-4.16 8.65,-4.02 8.45,-3.95 8.25,-3.87 8.04,-3.86 7.83,-3.85 7.62,-3.91 7.42,-3.97 7.24,-4.09 7.07,-4.22 6.94,-4.39 6.82,-4.56 6.75,-4.76 6.69,-4.96 6.69,-5.18 6.69,-5.39 6.77,-5.59 6.84,-5.79 6.97,-5.96 7.10,-6.12 7.28,-6.24 7.45,-6.36 7.66,-6.41 7.87,-6.46 8.08,-6.45 8.29,-6.43 8.49,-6.35 8.68,-6.27 8.84,-6.13 9.00,-5.99 9.11,-5.81 9.21,-5.62 9.26,-5.42 9.30,-5.21 9.27,-5.00 9.25,-4.79 9.16,-4.59 9.06,-4.40 8.91,-4.25 8.77,-4.10 8.58,-4.00 8.39,-3.91 8.18,-3.87 7.97,-3.84 7.76,-3.88 7.55,-3.92 7.36,-4.02 7.18,-4.12 7.03,-4.28 6.89,-4.44 6.80,-4.63 6.72,-4.82 6.70,-5.04 6.68,-5.25 6.73,-5.45 6.77,-5.66 6.77,-5.66 6.77,-5.66 7.44,-7.40 8.10,-9.14 7.92,-10.62 7.73,-12.10 7.90,-14.01 8.06,-15.93 8.37,-17.22 8.67,-18.51 8.90,-18.81 9.13,-19.12 9.43,-19.36 9.73,-19.60 10.07,-19.77 10.42,-19.93 10.80,-20.01 11.17,-20.09 11.55,-20.07 11.94,-20.06 12.30,-19.95 12.67,-19.84 13.00,-19.65 13.34,-19.46 13.61,-19.19 13.89,-18.93 14.09,-18.60 14.30,-18.28 14.42,-17.92 14.54,-17.55 14.57,-17.17 14.60,-16.79 14.54,-16.41 14.48,-16.03 14.33,-15.68 14.18,-15.33 13.72,-14.93 13.25,-14.52 12.25,-12.79 11.24,-11.06 9.65,-8.49 8.06,-5.93 6.50,-3.57 4.93,-1.21 2.98,-0.19 1.02,0.82 0.91,0.93 0.79,1.04 0.66,1.12 0.52,1.20 0.37,1.24 0.22,1.29 0.06,1.30 -0.09,1.31 -0.24,1.27 -0.40,1.24 -0.54,1.18 -0.69,1.11 -0.81,1.01 -0.93,0.91 -1.03,0.79 -1.13,0.66 -1.19,0.52 -1.25,0.37 -1.28,0.22 -1.31,0.06 -1.30,-0.09 -1.28,-0.24 -1.24,-0.40 -1.19,-0.55 -1.10,-0.68 -1.02,-0.82 -1.02,-0.82 L -1.02,-0.82 Z"/></g><g transform="translate(191.84390258789062 36.290679931640625) rotate(0 9.8590087890625 0.00000762939453125)" stroke="none"><path fill="#1e1e1e" d="M 0.23,-1.29 Q 0.23,-1.29 3.87,-1.64 7.51,-1.99 9.52,-1.74 11.52,-1.49 12.63,-1.67 13.75,-1.85 14.99,-1.80 16.23,-1.75 17.30,-2.12 18.36,-2.49 18.50,-2.65 18.64,-2.82 18.82,-2.92 19.00,-3.03 19.21,-3.08 19.42,-3.12 19.63,-3.10 19.84,-3.07 20.03,-2.98 20.23,-2.89 20.38,-2.75 20.53,-2.60 20.63,-2.41 20.73,-2.22 20.76,-2.01 20.80,-1.80 20.76,-1.59 20.73,-1.38 20.63,-1.20 20.52,-1.01 20.37,-0.86 20.21,-0.72 20.02,-0.63 19.83,-0.54 19.62,-0.52 19.41,-0.50 19.20,-0.55 18.99,-0.59 18.81,-0.70 18.63,-0.81 18.49,-0.98 18.35,-1.14 18.28,-1.34 18.20,-1.54 18.19,-1.75 18.18,-1.96 18.24,-2.16 18.30,-2.37 18.42,-2.54 18.54,-2.72 18.71,-2.85 18.88,-2.97 19.08,-3.04 19.28,-3.11 19.49,-3.11 19.70,-3.10 19.91,-3.04 20.11,-2.97 20.27,-2.84 20.44,-2.71 20.56,-2.53 20.68,-2.35 20.73,-2.15 20.79,-1.94 20.78,-1.73 20.76,-1.52 20.69,-1.32 20.61,-1.13 20.61,-1.13 20.61,-1.13 18.92,1.53 17.22,4.19 15.91,4.41 14.60,4.63 12.67,4.85 10.74,5.08 8.54,4.79 6.33,4.51 3.05,2.90 -0.23,1.29 -0.38,1.24 -0.53,1.19 -0.67,1.11 -0.80,1.03 -0.92,0.92 -1.03,0.81 -1.11,0.67 -1.19,0.54 -1.24,0.38 -1.29,0.23 -1.30,0.08 -1.31,-0.07 -1.28,-0.23 -1.25,-0.38 -1.18,-0.53 -1.12,-0.67 -1.02,-0.80 -0.92,-0.92 -0.80,-1.02 -0.68,-1.12 -0.53,-1.18 -0.39,-1.25 -0.23,-1.28 -0.08,-1.31 0.07,-1.30 0.23,-1.29 0.23,-1.29 L 0.23,-1.29 Z"/></g><g transform="translate(181.98489379882812 50.53147888183594) rotate(0 9.311279296875 2.7386093139648438)" stroke="none"><path fill="#1e1e1e" d="M 0.16,-1.30 Q 0.16,-1.30 2.80,-1.93 5.44,-2.56 7.35,-2.07 9.26,-1.58 10.75,-0.99 12.24,-0.39 14.99,1.66 17.75,3.72 17.93,3.83 18.11,3.94 18.25,4.10 18.39,4.26 18.47,4.46 18.55,4.65 18.56,4.87 18.57,5.08 18.52,5.28 18.46,5.49 18.34,5.66 18.22,5.84 18.06,5.97 17.89,6.10 17.69,6.17 17.49,6.24 17.27,6.24 17.06,6.24 16.86,6.17 16.66,6.10 16.49,5.98 16.32,5.85 16.20,5.67 16.08,5.50 16.02,5.29 15.96,5.09 15.97,4.88 15.98,4.66 16.06,4.47 16.14,4.27 16.28,4.11 16.41,3.94 16.59,3.83 16.78,3.72 16.98,3.68 17.19,3.63 17.40,3.65 17.61,3.67 17.81,3.76 18.00,3.85 18.15,4.00 18.31,4.14 18.41,4.33 18.51,4.52 18.55,4.73 18.58,4.94 18.55,5.15 18.51,5.36 18.41,5.54 18.32,5.73 18.16,5.88 18.01,6.03 17.82,6.12 17.62,6.21 17.41,6.23 17.20,6.25 16.99,6.21 16.79,6.16 16.79,6.16 16.79,6.16 13.41,5.82 10.04,5.47 8.83,5.05 7.61,4.64 6.12,4.23 4.63,3.82 2.23,2.56 -0.16,1.30 -0.31,1.26 -0.47,1.22 -0.60,1.15 -0.74,1.07 -0.86,0.97 -0.98,0.86 -1.07,0.73 -1.16,0.60 -1.22,0.45 -1.27,0.30 -1.29,0.15 -1.31,-0.00 -1.29,-0.16 -1.27,-0.31 -1.21,-0.46 -1.16,-0.61 -1.07,-0.74 -0.97,-0.87 -0.86,-0.97 -0.74,-1.08 -0.60,-1.15 -0.46,-1.22 -0.30,-1.26 -0.15,-1.30 0.00,-1.30 0.16,-1.30 0.16,-1.30 L 0.16,-1.30 Z"/></g><g transform="translate(196.22567749023438 46.149688720703125) rotate(0 -3.83404541015625 6.0249481201171875)" stroke="none"><path fill="#1e1e1e" d="M 1.06,0.76 Q 1.06,0.76 0.16,3.44 -0.74,6.12 -1.79,7.74 -2.84,9.36 -4.47,10.71 -6.11,12.07 -6.25,12.22 -6.39,12.38 -6.58,12.48 -6.77,12.58 -6.97,12.62 -7.18,12.66 -7.39,12.63 -7.60,12.59 -7.79,12.50 -7.98,12.40 -8.13,12.25 -8.28,12.10 -8.37,11.91 -8.46,11.71 -8.49,11.50 -8.51,11.29 -8.47,11.08 -8.43,10.88 -8.32,10.69 -8.22,10.51 -8.06,10.37 -7.90,10.23 -7.70,10.15 -7.50,10.07 -7.29,10.05 -7.08,10.04 -6.87,10.09 -6.67,10.15 -6.49,10.26 -6.31,10.38 -6.18,10.55 -6.05,10.71 -5.98,10.91 -5.91,11.11 -5.91,11.33 -5.90,11.54 -5.97,11.74 -6.03,11.94 -6.16,12.11 -6.29,12.29 -6.46,12.41 -6.63,12.53 -6.84,12.59 -7.04,12.65 -7.25,12.64 -7.47,12.63 -7.67,12.56 -7.86,12.48 -8.03,12.34 -8.19,12.21 -8.30,12.03 -8.42,11.85 -8.46,11.64 -8.51,11.43 -8.49,11.22 -8.47,11.01 -8.39,10.82 -8.30,10.62 -8.30,10.62 -8.30,10.62 -7.84,8.80 -7.39,6.98 -6.47,4.83 -5.55,2.69 -3.31,0.96 -1.06,-0.76 -0.96,-0.88 -0.85,-0.99 -0.72,-1.08 -0.59,-1.17 -0.44,-1.22 -0.29,-1.28 -0.13,-1.29 0.02,-1.31 0.17,-1.29 0.33,-1.26 0.48,-1.21 0.62,-1.15 0.75,-1.06 0.88,-0.96 0.98,-0.84 1.09,-0.72 1.16,-0.58 1.23,-0.44 1.27,-0.29 1.30,-0.13 1.30,0.02 1.30,0.17 1.26,0.33 1.22,0.48 1.14,0.62 1.06,0.76 1.06,0.76 L 1.06,0.76 Z"/></g><g transform="translate(209.37100219726562 49.43601989746094) rotate(0 4.381805419921875 -2.7386093139648438)" stroke="none"><path fill="#1e1e1e" d="M -0.48,-1.21 Q -0.48,-1.21 0.75,-2.64 1.99,-4.06 4.47,-4.91 6.96,-5.76 7.14,-5.86 7.33,-5.96 7.54,-5.99 7.75,-6.02 7.96,-5.99 8.17,-5.95 8.36,-5.85 8.55,-5.75 8.69,-5.60 8.84,-5.44 8.92,-5.25 9.01,-5.05 9.03,-4.84 9.06,-4.63 9.01,-4.42 8.96,-4.22 8.85,-4.04 8.74,-3.85 8.58,-3.72 8.42,-3.58 8.22,-3.50 8.02,-3.43 7.81,-3.42 7.59,-3.41 7.39,-3.46 7.19,-3.52 7.01,-3.64 6.84,-3.76 6.71,-3.93 6.58,-4.10 6.51,-4.30 6.45,-4.51 6.45,-4.72 6.45,-4.93 6.52,-5.13 6.59,-5.33 6.72,-5.50 6.85,-5.67 7.02,-5.79 7.20,-5.91 7.41,-5.96 7.61,-6.02 7.82,-6.00 8.03,-5.99 8.23,-5.91 8.43,-5.83 8.59,-5.69 8.75,-5.55 8.86,-5.37 8.97,-5.19 9.01,-4.98 9.06,-4.77 9.03,-4.56 9.01,-4.35 8.92,-4.16 8.83,-3.97 8.68,-3.81 8.53,-3.66 8.53,-3.66 8.53,-3.66 6.41,-1.06 4.30,1.54 2.39,1.38 0.48,1.21 0.33,1.26 0.18,1.30 0.02,1.30 -0.13,1.30 -0.28,1.27 -0.44,1.23 -0.58,1.16 -0.72,1.09 -0.84,0.99 -0.96,0.88 -1.05,0.75 -1.15,0.63 -1.21,0.48 -1.26,0.33 -1.29,0.18 -1.31,0.02 -1.29,-0.13 -1.28,-0.29 -1.22,-0.44 -1.17,-0.58 -1.08,-0.72 -0.99,-0.85 -0.88,-0.96 -0.76,-1.06 -0.62,-1.14 -0.48,-1.21 -0.48,-1.21 L -0.48,-1.21 Z"/></g><g transform="translate(222.51638793945312 48.340576171875) rotate(0 9.311279296875 3.8340606689453125)" stroke="none"><path fill="#1e1e1e" d="M -0.41,-1.24 Q -0.41,-1.24 1.22,-2.62 2.86,-4.00 4.20,-4.55 5.55,-5.11 6.93,-5.37 8.31,-5.64 9.45,-5.35 10.60,-5.06 11.77,-3.64 12.95,-2.22 12.93,-1.12 12.90,-0.02 12.49,1.56 12.07,3.14 11.11,4.75 10.15,6.35 9.42,7.30 8.69,8.24 7.51,9.17 6.34,10.11 5.18,11.30 4.03,12.48 3.71,12.69 3.40,12.90 3.04,13.03 2.69,13.15 2.32,13.19 1.94,13.23 1.57,13.18 1.19,13.13 0.85,12.99 0.50,12.85 0.19,12.63 -0.11,12.41 -0.35,12.12 -0.60,11.84 -0.77,11.50 -0.94,11.16 -1.02,10.80 -1.10,10.43 -1.10,10.05 -1.09,9.68 -0.99,9.31 -0.90,8.95 -0.72,8.62 -0.53,8.29 -0.28,8.01 -0.03,7.73 0.95,7.03 1.94,6.33 3.70,6.02 5.46,5.70 7.69,5.38 9.93,5.05 13.24,3.98 16.56,2.91 16.76,2.84 16.96,2.77 17.17,2.76 17.38,2.76 17.58,2.83 17.79,2.89 17.96,3.02 18.13,3.15 18.25,3.32 18.37,3.50 18.43,3.70 18.49,3.91 18.48,4.12 18.47,4.33 18.39,4.53 18.31,4.73 18.18,4.89 18.04,5.05 17.86,5.16 17.68,5.28 17.47,5.32 17.27,5.37 17.05,5.35 16.84,5.33 16.65,5.24 16.46,5.15 16.30,5.01 16.14,4.86 16.04,4.68 15.94,4.49 15.91,4.28 15.87,4.07 15.90,3.86 15.93,3.65 16.03,3.46 16.13,3.27 16.28,3.13 16.44,2.98 16.63,2.89 16.82,2.80 17.03,2.77 17.24,2.75 17.45,2.79 17.66,2.84 17.84,2.94 18.02,3.05 18.16,3.21 18.30,3.37 18.38,3.57 18.46,3.77 18.48,3.98 18.49,4.19 18.43,4.39 18.38,4.60 18.26,4.78 18.14,4.95 17.98,5.08 17.81,5.21 17.81,5.21 17.81,5.21 14.61,7.67 11.42,10.13 8.84,11.19 6.26,12.25 5.14,12.37 4.03,12.48 3.71,12.69 3.40,12.90 3.05,13.03 2.69,13.15 2.32,13.19 1.94,13.23 1.57,13.18 1.20,13.13 0.85,12.99 0.50,12.85 0.19,12.63 -0.11,12.41 -0.35,12.12 -0.60,11.84 -0.77,11.50 -0.94,11.17 -1.02,10.80 -1.10,10.43 -1.10,10.05 -1.09,9.68 -0.99,9.31 -0.90,8.95 -0.72,8.62 -0.53,8.29 -0.28,8.01 -0.03,7.73 0.62,7.21 1.27,6.69 2.72,5.67 4.17,4.64 5.35,3.11 6.52,1.58 7.02,-0.41 7.52,-2.41 7.63,-1.07 7.73,0.26 6.21,0.87 4.69,1.48 2.55,1.36 0.41,1.24 0.26,1.27 0.10,1.30 -0.05,1.30 -0.21,1.29 -0.36,1.25 -0.51,1.20 -0.65,1.12 -0.78,1.04 -0.90,0.93 -1.01,0.83 -1.10,0.69 -1.18,0.56 -1.23,0.41 -1.28,0.26 -1.29,0.10 -1.31,-0.05 -1.28,-0.20 -1.26,-0.36 -1.19,-0.51 -1.13,-0.65 -1.04,-0.78 -0.94,-0.91 -0.82,-1.01 -0.70,-1.11 -0.55,-1.17 -0.41,-1.24 -0.41,-1.24 L -0.41,-1.24 Z"/></g><g transform="translate(263.0478210449219 42.86335754394531) rotate(0 9.311279296875 31.220184326171875)" stroke="none"><path fill="#1e1e1e" d="M 0.84,-1.00 Q 0.84,-1.00 3.36,-0.16 5.88,0.67 8.90,4.75 11.93,8.84 14.20,13.54 16.48,18.24 18.12,24.87 19.76,31.49 20.36,37.92 20.96,44.35 18.32,49.80 15.69,55.25 15.00,57.43 14.31,59.61 14.22,59.80 14.12,59.99 13.97,60.14 13.82,60.28 13.63,60.38 13.44,60.47 13.23,60.50 13.01,60.52 12.81,60.48 12.60,60.44 12.41,60.34 12.23,60.23 12.09,60.07 11.95,59.91 11.87,59.72 11.78,59.52 11.77,59.31 11.75,59.10 11.80,58.89 11.86,58.68 11.97,58.51 12.09,58.33 12.26,58.20 12.42,58.06 12.62,57.99 12.82,57.92 13.03,57.92 13.25,57.91 13.45,57.98 13.65,58.04 13.82,58.17 14.00,58.29 14.12,58.46 14.24,58.64 14.30,58.84 14.36,59.04 14.36,59.26 14.35,59.47 14.27,59.67 14.20,59.87 14.06,60.03 13.93,60.20 13.75,60.31 13.57,60.42 13.36,60.47 13.16,60.52 12.95,60.50 12.73,60.48 12.54,60.40 12.34,60.31 12.19,60.17 12.03,60.03 11.93,59.84 11.82,59.66 11.79,59.45 11.75,59.24 11.78,59.03 11.81,58.82 11.81,58.82 11.81,58.82 12.49,56.64 13.18,54.46 13.78,49.64 14.37,44.83 13.68,38.97 12.99,33.11 11.59,27.13 10.20,21.15 8.30,16.94 6.39,12.72 4.03,9.17 1.67,5.62 0.41,3.31 -0.84,1.00 -0.94,0.89 -1.05,0.77 -1.13,0.64 -1.21,0.50 -1.25,0.35 -1.29,0.19 -1.30,0.03 -1.30,-0.11 -1.27,-0.27 -1.24,-0.42 -1.17,-0.57 -1.10,-0.71 -1.00,-0.83 -0.90,-0.95 -0.77,-1.05 -0.64,-1.14 -0.49,-1.20 -0.35,-1.26 -0.19,-1.28 -0.03,-1.31 0.11,-1.29 0.27,-1.28 0.42,-1.23 0.57,-1.18 0.70,-1.09 0.84,-1.00 0.84,-1.00 L 0.84,-1.00 Z"/></g><g transform="translate(10 217.03912353515625) rotate(0 5.47723388671875 26.838409423828125)" stroke="none"><path fill="#1e1e1e" d="M 1.24,-0.41 Q 1.24,-0.41 3.12,2.11 4.99,4.64 6.10,12.43 7.21,20.22 7.95,24.62 8.68,29.02 9.20,33.16 9.72,37.29 10.07,41.93 10.42,46.57 10.94,48.52 11.46,50.46 11.48,50.67 11.50,50.88 11.45,51.09 11.40,51.30 11.29,51.48 11.18,51.66 11.01,51.79 10.85,51.93 10.65,52.01 10.45,52.08 10.24,52.09 10.03,52.10 9.83,52.04 9.62,51.98 9.45,51.86 9.27,51.74 9.15,51.57 9.02,51.40 8.95,51.20 8.89,51.00 8.89,50.78 8.89,50.57 8.96,50.37 9.03,50.17 9.16,50.00 9.29,49.83 9.47,49.72 9.65,49.60 9.85,49.54 10.06,49.49 10.27,49.50 10.48,49.52 10.68,49.60 10.88,49.68 11.04,49.82 11.20,49.96 11.30,50.14 11.41,50.33 11.46,50.53 11.50,50.74 11.47,50.95 11.45,51.16 11.36,51.36 11.26,51.55 11.12,51.70 10.97,51.85 10.78,51.95 10.59,52.05 10.38,52.08 10.17,52.11 9.96,52.07 9.75,52.04 9.57,51.94 9.38,51.83 9.24,51.68 9.09,51.52 9.00,51.33 8.92,51.13 8.92,51.13 8.92,51.13 8.40,49.19 7.88,47.25 5.80,42.74 3.72,38.23 2.97,34.17 2.23,30.11 1.46,25.62 0.68,21.12 -0.26,13.90 -1.21,6.69 -1.23,3.55 -1.24,0.41 -1.27,0.26 -1.30,0.10 -1.30,-0.05 -1.29,-0.21 -1.25,-0.36 -1.20,-0.51 -1.12,-0.65 -1.04,-0.78 -0.93,-0.90 -0.83,-1.01 -0.69,-1.10 -0.56,-1.18 -0.41,-1.23 -0.26,-1.28 -0.10,-1.29 0.05,-1.31 0.20,-1.28 0.36,-1.26 0.51,-1.19 0.65,-1.13 0.78,-1.04 0.91,-0.94 1.01,-0.82 1.11,-0.70 1.17,-0.55 1.24,-0.41 1.24,-0.41 L 1.24,-0.41 Z"/></g><g transform="translate(34.09979248046875 250.9979248046875) rotate(0 1.095458984375 12.049896240234375)" stroke="none"><path fill="#1e1e1e" d="M 1.30,0.14 Q 1.30,0.14 1.60,5.91 1.90,11.68 1.63,14.65 1.36,17.62 1.57,19.55 1.77,21.48 1.71,21.78 1.65,22.08 1.51,22.36 1.38,22.63 1.18,22.87 0.99,23.11 0.74,23.29 0.49,23.47 0.21,23.59 -0.07,23.71 -0.37,23.76 -0.67,23.80 -0.98,23.78 -1.29,23.75 -1.58,23.65 -1.87,23.55 -2.13,23.38 -2.39,23.22 -2.60,23.00 -2.81,22.77 -2.96,22.50 -3.11,22.24 -3.20,21.94 -3.28,21.64 -3.29,21.34 -3.30,21.03 -0.11,19.88 3.07,18.73 3.28,18.71 3.49,18.68 3.70,18.72 3.91,18.76 4.09,18.87 4.28,18.97 4.42,19.13 4.56,19.29 4.64,19.49 4.72,19.68 4.74,19.90 4.76,20.11 4.70,20.31 4.65,20.52 4.53,20.70 4.42,20.88 4.25,21.01 4.09,21.14 3.89,21.21 3.69,21.28 3.47,21.29 3.26,21.29 3.06,21.23 2.86,21.16 2.68,21.04 2.51,20.91 2.39,20.74 2.27,20.57 2.21,20.36 2.15,20.16 2.15,19.95 2.16,19.73 2.23,19.54 2.31,19.34 2.44,19.17 2.58,19.01 2.76,18.89 2.94,18.78 3.14,18.73 3.35,18.68 3.56,18.70 3.77,18.72 3.97,18.80 4.16,18.89 4.32,19.03 4.48,19.18 4.58,19.36 4.68,19.55 4.72,19.76 4.76,19.97 4.73,20.18 4.70,20.39 4.60,20.58 4.51,20.77 4.36,20.91 4.21,21.06 4.02,21.16 3.82,21.25 3.82,21.25 3.82,21.25 2.80,21.36 1.77,21.48 1.71,21.78 1.65,22.08 1.51,22.36 1.38,22.63 1.18,22.87 0.99,23.11 0.74,23.29 0.49,23.47 0.21,23.59 -0.07,23.71 -0.37,23.76 -0.67,23.80 -0.98,23.78 -1.29,23.75 -1.58,23.65 -1.87,23.55 -2.13,23.38 -2.39,23.22 -2.60,23.00 -2.81,22.77 -2.96,22.50 -3.11,22.24 -3.20,21.94 -3.28,21.65 -3.29,21.34 -3.30,21.03 -4.13,19.11 -4.95,17.20 -4.69,14.09 -4.42,10.98 -2.86,5.42 -1.30,-0.14 -1.26,-0.29 -1.23,-0.45 -1.16,-0.59 -1.08,-0.73 -0.98,-0.85 -0.88,-0.97 -0.75,-1.06 -0.62,-1.15 -0.47,-1.21 -0.32,-1.27 -0.17,-1.29 -0.01,-1.31 0.14,-1.29 0.30,-1.27 0.44,-1.22 0.59,-1.16 0.72,-1.08 0.86,-0.99 0.96,-0.87 1.07,-0.75 1.14,-0.61 1.22,-0.47 1.26,-0.32 1.30,-0.17 1.30,-0.01 1.30,0.14 1.30,0.14 L 1.30,0.14 Z"/></g><g transform="translate(38.481597900390625 237.85260009765625) rotate(0 -0.0000152587890625 -2.738616943359375)" stroke="none"><path fill="#1e1e1e" d="M -1.28,-0.25 Q -1.28,-0.25 -1.43,-1.10 -1.58,-1.96 -0.41,-2.57 0.75,-3.19 0.30,-1.28 -0.13,0.61 -0.28,0.64 -0.44,0.67 -0.60,0.66 -0.75,0.65 -0.90,0.60 -1.06,0.56 -1.19,0.47 -1.33,0.39 -1.44,0.28 -1.55,0.17 -1.63,0.03 -1.72,-0.09 -1.76,-0.24 -1.81,-0.39 -1.82,-0.55 -1.83,-0.71 -1.80,-0.87 -1.77,-1.02 -1.71,-1.17 -1.64,-1.31 -1.55,-1.44 -1.45,-1.56 -1.32,-1.66 -1.20,-1.76 -1.05,-1.82 -0.91,-1.89 -0.10,-1.49 0.70,-1.10 0.74,-0.89 0.78,-0.68 0.76,-0.47 0.73,-0.26 0.64,-0.07 0.55,0.11 0.40,0.26 0.25,0.42 0.06,0.51 -0.12,0.61 -0.33,0.64 -0.54,0.67 -0.75,0.63 -0.96,0.59 -1.14,0.49 -1.33,0.39 -1.47,0.23 -1.62,0.08 -1.70,-0.11 -1.79,-0.30 -1.81,-0.51 -1.83,-0.73 -1.78,-0.93 -1.73,-1.14 -1.62,-1.32 -1.50,-1.50 -1.34,-1.63 -1.18,-1.77 -0.98,-1.84 -0.78,-1.92 -0.57,-1.93 -0.35,-1.94 -0.15,-1.88 0.04,-1.81 0.22,-1.69 0.39,-1.57 0.52,-1.40 0.64,-1.23 0.71,-1.03 0.77,-0.82 0.77,-0.61 0.76,-0.40 0.69,-0.20 0.62,-0.00 0.49,0.16 0.36,0.33 0.18,0.44 0.00,0.56 -0.19,0.61 -0.40,0.67 -0.61,0.65 -0.82,0.64 -1.02,0.55 -1.21,0.47 -1.37,0.33 -1.53,0.19 -0.83,0.40 -0.13,0.61 -0.28,0.64 -0.44,0.67 -0.60,0.66 -0.75,0.65 -0.90,0.60 -1.06,0.56 -1.19,0.47 -1.33,0.39 -1.44,0.28 -1.55,0.17 -1.63,0.03 -1.72,-0.09 -1.76,-0.24 -1.81,-0.39 -1.82,-0.55 -1.83,-0.71 -1.80,-0.87 -1.77,-1.02 -1.71,-1.17 -1.64,-1.31 -1.55,-1.44 -1.45,-1.56 -1.32,-1.66 -1.20,-1.76 -1.05,-1.82 -0.91,-1.89 -2.24,-2.87 -3.57,-3.86 -1.64,-5.06 0.28,-6.27 1.56,-5.30 2.84,-4.33 2.06,-2.04 1.28,0.25 1.23,0.40 1.18,0.55 1.10,0.69 1.02,0.82 0.90,0.93 0.79,1.04 0.65,1.12 0.51,1.20 0.36,1.25 0.21,1.29 0.05,1.30 -0.10,1.30 -0.25,1.27 -0.41,1.24 -0.55,1.18 -0.69,1.11 -0.82,1.01 -0.94,0.91 -1.03,0.78 -1.13,0.66 -1.19,0.51 -1.26,0.37 -1.28,0.21 -1.31,0.05 -1.29,-0.09 -1.28,-0.25 -1.28,-0.25 L -1.28,-0.25 Z"/></g><g transform="translate(49.43603515625 255.37973022460938) rotate(0 8.7635498046875 8.215835571289062)" stroke="none"><path fill="#1e1e1e" d="M 1.30,0.11 Q 1.30,0.11 1.82,3.65 2.34,7.19 2.25,8.96 2.15,10.73 2.13,11.17 2.10,11.62 2.03,11.99 1.95,12.36 1.79,12.70 1.63,13.04 1.40,13.33 1.16,13.63 0.86,13.86 0.56,14.08 0.22,14.23 -0.12,14.38 -0.49,14.45 -0.86,14.51 -1.24,14.48 -1.61,14.45 -1.97,14.33 -2.33,14.22 -2.65,14.02 -2.97,13.82 -3.23,13.55 -3.49,13.28 -3.68,12.95 -3.87,12.63 -3.98,12.27 -4.09,11.91 -4.10,11.53 -4.12,11.15 -3.72,8.84 -3.32,6.53 -2.31,5.18 -1.31,3.83 0.23,3.05 1.78,2.27 3.97,2.76 6.17,3.26 7.32,4.64 8.47,6.02 8.90,8.53 9.34,11.04 9.44,12.56 9.55,14.08 9.61,14.38 9.66,14.68 9.64,15.06 9.62,15.44 9.51,15.81 9.40,16.17 9.20,16.50 9.01,16.83 8.74,17.10 8.47,17.37 8.14,17.57 7.82,17.77 7.45,17.88 7.09,18.00 6.71,18.02 6.33,18.04 5.96,17.98 5.58,17.91 5.23,17.75 4.88,17.60 4.58,17.37 4.28,17.13 4.05,16.83 3.81,16.53 3.65,16.19 3.49,15.84 3.42,15.46 3.35,15.09 3.81,13.58 4.27,12.07 5.02,9.89 5.77,7.70 7.26,5.64 8.75,3.57 11.32,2.61 13.89,1.65 15.84,2.70 17.79,3.75 19.10,6.71 20.42,9.67 20.04,12.39 19.66,15.12 19.68,15.33 19.69,15.55 19.64,15.75 19.58,15.96 19.46,16.13 19.35,16.31 19.18,16.44 19.01,16.57 18.81,16.64 18.61,16.71 18.40,16.71 18.18,16.71 17.98,16.65 17.78,16.58 17.61,16.45 17.44,16.33 17.32,16.15 17.20,15.98 17.14,15.77 17.08,15.57 17.09,15.36 17.10,15.15 17.18,14.95 17.25,14.75 17.39,14.59 17.53,14.42 17.71,14.31 17.89,14.20 18.09,14.15 18.30,14.11 18.51,14.13 18.72,14.15 18.92,14.23 19.11,14.32 19.27,14.47 19.42,14.61 19.52,14.80 19.63,14.98 19.66,15.19 19.70,15.40 19.67,15.61 19.63,15.82 19.54,16.01 19.44,16.20 19.28,16.35 19.13,16.50 18.94,16.59 18.75,16.68 18.54,16.70 18.33,16.73 18.12,16.68 17.91,16.64 17.73,16.53 17.54,16.42 17.40,16.26 17.27,16.10 17.19,15.91 17.11,15.71 17.11,15.71 17.11,15.71 15.67,13.85 14.24,11.99 14.01,9.83 13.77,7.66 12.71,8.76 11.66,9.86 10.66,12.27 9.66,14.68 9.64,15.06 9.62,15.44 9.51,15.81 9.40,16.17 9.20,16.50 9.01,16.83 8.74,17.10 8.47,17.37 8.14,17.57 7.82,17.77 7.45,17.88 7.09,18.00 6.71,18.02 6.33,18.04 5.96,17.98 5.58,17.91 5.23,17.75 4.88,17.60 4.58,17.37 4.28,17.13 4.05,16.83 3.81,16.53 3.65,16.19 3.49,15.84 3.42,15.47 3.35,15.09 3.33,14.79 3.31,14.49 3.23,13.12 3.15,11.74 2.59,10.51 2.03,9.27 2.06,10.45 2.10,11.62 2.03,11.99 1.95,12.36 1.79,12.70 1.63,13.04 1.40,13.33 1.16,13.63 0.86,13.86 0.56,14.08 0.22,14.23 -0.12,14.38 -0.49,14.45 -0.86,14.51 -1.24,14.48 -1.61,14.45 -1.97,14.33 -2.33,14.22 -2.65,14.02 -2.97,13.82 -3.23,13.55 -3.49,13.28 -3.68,12.95 -3.87,12.63 -3.98,12.27 -4.09,11.91 -4.10,11.53 -4.12,11.15 -4.03,10.71 -3.95,10.27 -3.77,8.46 -3.60,6.65 -2.45,3.26 -1.30,-0.11 -1.27,-0.27 -1.24,-0.42 -1.17,-0.57 -1.10,-0.71 -1.00,-0.83 -0.90,-0.95 -0.77,-1.05 -0.64,-1.14 -0.49,-1.20 -0.35,-1.26 -0.19,-1.28 -0.03,-1.31 0.11,-1.29 0.27,-1.28 0.42,-1.23 0.57,-1.18 0.70,-1.09 0.84,-1.00 0.94,-0.89 1.05,-0.77 1.13,-0.64 1.21,-0.50 1.25,-0.34 1.29,-0.19 1.30,-0.03 1.30,0.11 1.30,0.11 L 1.30,0.11 Z"/></g><g transform="translate(16.57269287109375 293.7203063964844) rotate(0 9.858993530273438 5.4772186279296875)" stroke="none"><path fill="#1e1e1e" d="M 0.74,-1.07 Q 0.74,-1.07 5.40,0.93 10.06,2.95 11.97,4.16 13.88,5.37 14.91,6.89 15.94,8.40 17.45,8.46 18.95,8.52 19.16,8.56 19.37,8.60 19.56,8.70 19.74,8.81 19.88,8.97 20.02,9.13 20.11,9.32 20.19,9.52 20.21,9.73 20.22,9.94 20.17,10.15 20.12,10.35 20.01,10.53 19.89,10.71 19.73,10.84 19.56,10.98 19.36,11.05 19.16,11.12 18.95,11.13 18.74,11.13 18.53,11.07 18.33,11.01 18.16,10.88 17.99,10.76 17.86,10.59 17.74,10.41 17.68,10.21 17.61,10.01 17.62,9.79 17.63,9.58 17.70,9.38 17.77,9.18 17.91,9.02 18.04,8.85 18.22,8.74 18.40,8.62 18.61,8.57 18.81,8.52 19.02,8.54 19.24,8.56 19.43,8.64 19.63,8.73 19.78,8.87 19.94,9.01 20.05,9.20 20.15,9.38 20.19,9.59 20.23,9.80 20.20,10.01 20.17,10.22 20.08,10.41 19.98,10.60 19.83,10.75 19.68,10.90 19.49,10.99 19.30,11.09 19.09,11.12 18.88,11.14 18.88,11.14 18.88,11.14 16.77,11.10 14.66,11.05 12.68,10.91 10.71,10.78 8.51,9.58 6.31,8.38 2.78,4.72 -0.74,1.07 -0.86,0.97 -0.98,0.86 -1.07,0.73 -1.16,0.60 -1.21,0.46 -1.27,0.31 -1.29,0.15 -1.31,-0.00 -1.29,-0.15 -1.27,-0.31 -1.21,-0.46 -1.16,-0.61 -1.07,-0.74 -0.98,-0.87 -0.86,-0.97 -0.74,-1.08 -0.60,-1.15 -0.46,-1.22 -0.31,-1.26 -0.15,-1.30 0.00,-1.30 0.16,-1.30 0.31,-1.26 0.46,-1.22 0.60,-1.15 0.74,-1.07 0.74,-1.07 L 0.74,-1.07 Z"/></g><g transform="translate(34.09979248046875 293.7203063964844) rotate(0 -6.0249481201171875 5.4772186279296875)" stroke="none"><path fill="#1e1e1e" d="M 0.85,0.99 Q 0.85,0.99 -0.74,3.59 -2.33,6.19 -3.56,7.29 -4.79,8.38 -7.71,9.83 -10.63,11.28 -10.78,11.42 -10.94,11.56 -11.14,11.65 -11.33,11.73 -11.54,11.75 -11.75,11.77 -11.96,11.71 -12.17,11.66 -12.35,11.55 -12.53,11.44 -12.66,11.27 -12.79,11.11 -12.87,10.91 -12.94,10.71 -12.95,10.49 -12.95,10.28 -12.89,10.08 -12.83,9.88 -12.70,9.70 -12.58,9.53 -12.41,9.41 -12.24,9.28 -12.03,9.22 -11.83,9.16 -11.62,9.16 -11.41,9.17 -11.21,9.24 -11.01,9.31 -10.84,9.44 -10.67,9.58 -10.56,9.76 -10.45,9.93 -10.39,10.14 -10.34,10.35 -10.36,10.56 -10.38,10.77 -10.46,10.97 -10.54,11.16 -10.68,11.32 -10.83,11.48 -11.01,11.58 -11.20,11.69 -11.40,11.73 -11.61,11.77 -11.82,11.74 -12.03,11.71 -12.22,11.62 -12.41,11.52 -12.57,11.37 -12.72,11.22 -12.81,11.03 -12.91,10.84 -12.93,10.63 -12.96,10.42 -12.92,10.21 -12.88,10.01 -12.78,9.82 -12.68,9.64 -12.68,9.64 -12.68,9.64 -10.85,6.64 -9.02,3.64 -7.75,2.50 -6.47,1.36 -3.66,0.18 -0.85,-0.99 -0.72,-1.08 -0.59,-1.17 -0.44,-1.22 -0.29,-1.28 -0.13,-1.29 0.02,-1.31 0.17,-1.29 0.33,-1.26 0.48,-1.21 0.62,-1.15 0.75,-1.06 0.88,-0.96 0.98,-0.84 1.09,-0.72 1.16,-0.58 1.23,-0.44 1.27,-0.29 1.30,-0.13 1.30,0.02 1.30,0.17 1.26,0.33 1.22,0.48 1.14,0.62 1.06,0.76 0.96,0.88 0.85,0.99 0.85,0.99 L 0.85,0.99 Z"/></g><g transform="translate(37.386138916015625 298.1020812988281) rotate(0 7.668121337890625 0.5477142333984375)" stroke="none"><path fill="#1e1e1e" d="M 0.18,-1.30 Q 0.18,-1.30 2.53,-2.03 4.89,-2.76 6.94,-2.47 8.99,-2.18 11.87,-1.21 14.75,-0.23 14.96,-0.19 15.17,-0.15 15.35,-0.04 15.54,0.05 15.68,0.21 15.82,0.37 15.91,0.56 15.99,0.76 16.01,0.97 16.03,1.18 15.97,1.39 15.92,1.59 15.81,1.77 15.70,1.95 15.53,2.08 15.36,2.22 15.17,2.29 14.97,2.36 14.75,2.37 14.54,2.38 14.34,2.32 14.14,2.25 13.96,2.13 13.79,2.01 13.67,1.83 13.54,1.66 13.48,1.46 13.42,1.26 13.42,1.04 13.43,0.83 13.50,0.63 13.57,0.43 13.70,0.27 13.84,0.10 14.02,-0.01 14.19,-0.12 14.40,-0.17 14.61,-0.22 14.82,-0.21 15.03,-0.19 15.23,-0.11 15.42,-0.02 15.58,0.11 15.74,0.25 15.84,0.43 15.95,0.62 15.99,0.83 16.03,1.04 16.00,1.25 15.97,1.46 15.88,1.65 15.78,1.84 15.63,1.99 15.48,2.14 15.29,2.24 15.10,2.33 14.89,2.36 14.68,2.39 14.68,2.39 14.68,2.39 11.65,3.18 8.61,3.98 6.26,4.00 3.92,4.02 1.86,2.66 -0.18,1.30 -0.33,1.25 -0.49,1.21 -0.63,1.14 -0.76,1.06 -0.88,0.95 -1.00,0.84 -1.08,0.71 -1.17,0.58 -1.22,0.43 -1.28,0.28 -1.29,0.12 -1.31,-0.02 -1.29,-0.18 -1.26,-0.34 -1.20,-0.48 -1.14,-0.63 -1.05,-0.76 -0.96,-0.89 -0.84,-0.99 -0.72,-1.09 -0.58,-1.16 -0.43,-1.23 -0.28,-1.27 -0.13,-1.30 0.02,-1.30 0.18,-1.30 0.18,-1.30 L 0.18,-1.30 Z"/></g><g transform="translate(50.531494140625 295.91119384765625) rotate(0 4.9294891357421875 4.92950439453125)" stroke="none"><path fill="#1e1e1e" d="M 0,-1.31 Q 0,-1.31 1.57,-2.26 3.14,-3.21 4.53,-3.19 5.92,-3.16 7.93,-2.18 9.95,-1.20 11.03,0.85 12.11,2.91 11.71,5.25 11.31,7.59 7.85,9.21 4.39,10.82 4.18,10.87 3.98,10.91 3.76,10.89 3.55,10.87 3.36,10.79 3.17,10.70 3.01,10.55 2.85,10.41 2.75,10.22 2.65,10.03 2.62,9.83 2.58,9.62 2.61,9.41 2.64,9.20 2.74,9.01 2.84,8.82 2.99,8.67 3.15,8.52 3.34,8.43 3.53,8.34 3.74,8.32 3.95,8.29 4.16,8.34 4.37,8.38 4.55,8.49 4.73,8.60 4.87,8.76 5.01,8.92 5.09,9.11 5.17,9.31 5.19,9.52 5.20,9.73 5.14,9.94 5.09,10.15 4.97,10.32 4.85,10.50 4.69,10.63 4.52,10.76 4.32,10.83 4.12,10.90 3.90,10.90 3.69,10.90 3.49,10.84 3.29,10.77 3.12,10.64 2.95,10.52 2.83,10.34 2.71,10.17 2.65,9.96 2.59,9.76 2.60,9.55 2.61,9.33 2.68,9.13 2.76,8.94 2.90,8.77 3.03,8.61 3.21,8.50 3.40,8.39 3.40,8.39 3.40,8.39 4.32,7.00 5.25,5.61 5.41,4.39 5.57,3.16 4.35,3.19 3.14,3.21 1.57,2.26 0,1.31 -0.15,1.29 -0.31,1.27 -0.46,1.21 -0.61,1.16 -0.74,1.07 -0.87,0.98 -0.97,0.86 -1.08,0.74 -1.15,0.60 -1.22,0.46 -1.26,0.31 -1.30,0.15 -1.30,-0.00 -1.30,-0.15 -1.26,-0.31 -1.22,-0.46 -1.15,-0.60 -1.08,-0.74 -0.97,-0.86 -0.87,-0.98 -0.74,-1.07 -0.61,-1.16 -0.46,-1.21 -0.31,-1.27 -0.15,-1.29 0.00,-1.31 0.00,-1.31 L 0,-1.31 Z"/></g><g transform="translate(66.96316528320312 291.5294189453125) rotate(0 10.406723022460938 8.7635498046875)" stroke="none"><path fill="#1e1e1e" d="M -0.84,-1.00 Q -0.84,-1.00 0.51,-3.36 1.87,-5.71 4.28,-6.38 6.68,-7.04 8.80,-6.76 10.92,-6.48 12.61,-5.03 14.31,-3.59 14.99,-2.02 15.67,-0.44 15.92,2.98 16.17,6.41 15.58,9.37 14.98,12.32 14.06,14.87 13.13,17.42 12.34,18.94 11.56,20.45 10.32,21.75 9.07,23.04 7.37,24.00 5.66,24.96 3.94,25.38 2.21,25.80 0.88,25.55 -0.45,25.31 -0.99,24.97 -1.52,24.62 -1.89,24.43 -2.26,24.24 -2.57,23.96 -2.88,23.69 -3.12,23.35 -3.35,23.01 -3.50,22.62 -3.65,22.23 -3.70,21.82 -3.75,21.40 -3.71,20.99 -3.66,20.58 -3.51,20.19 -3.36,19.80 -3.13,19.46 -2.89,19.11 -2.58,18.84 -2.27,18.56 -1.91,18.37 -1.54,18.17 -1.13,18.07 -0.73,17.97 -0.32,17.97 0.09,17.97 0.49,18.07 0.90,18.17 2.35,17.54 3.80,16.92 5.22,16.66 6.64,16.40 8.19,16.33 9.75,16.26 13.06,16.14 16.37,16.01 17.83,15.46 19.29,14.91 19.50,14.87 19.70,14.83 19.92,14.86 20.13,14.88 20.32,14.98 20.51,15.07 20.66,15.22 20.81,15.37 20.91,15.56 21.00,15.75 21.03,15.96 21.06,16.17 21.02,16.38 20.99,16.58 20.88,16.77 20.78,16.96 20.62,17.10 20.47,17.24 20.27,17.33 20.08,17.41 19.87,17.43 19.65,17.45 19.45,17.40 19.24,17.35 19.06,17.24 18.88,17.13 18.75,16.96 18.61,16.80 18.54,16.60 18.46,16.40 18.45,16.19 18.45,15.97 18.51,15.77 18.57,15.57 18.69,15.39 18.81,15.22 18.99,15.09 19.16,14.97 19.36,14.91 19.56,14.84 19.78,14.85 19.99,14.85 20.19,14.92 20.39,14.99 20.55,15.13 20.72,15.26 20.84,15.44 20.95,15.61 21.01,15.82 21.06,16.03 21.04,16.24 21.03,16.45 20.94,16.64 20.86,16.84 20.72,17.00 20.58,17.16 20.40,17.26 20.21,17.37 20.21,17.37 20.21,17.37 18.76,17.92 17.30,18.47 13.75,20.92 10.21,23.37 8.26,23.51 6.31,23.65 4.86,24.13 3.40,24.61 0.94,24.62 -1.52,24.62 -1.89,24.43 -2.26,24.24 -2.57,23.96 -2.88,23.69 -3.12,23.35 -3.35,23.01 -3.50,22.62 -3.65,22.23 -3.70,21.82 -3.75,21.40 -3.71,20.99 -3.66,20.58 -3.51,20.19 -3.36,19.80 -3.13,19.46 -2.89,19.11 -2.58,18.84 -2.27,18.56 -1.91,18.37 -1.54,18.17 -1.13,18.07 -0.73,17.97 -0.32,17.97 0.09,17.97 0.49,18.07 0.90,18.17 1.78,18.59 2.66,19.02 4.23,18.16 5.79,17.30 6.37,16.21 6.96,15.11 7.76,13.00 8.57,10.89 9.10,8.79 9.63,6.70 9.55,4.20 9.48,1.69 8.67,0.50 7.86,-0.67 6.77,-0.62 5.68,-0.57 3.26,0.21 0.84,1.00 0.70,1.09 0.57,1.18 0.42,1.23 0.27,1.28 0.11,1.29 -0.03,1.31 -0.19,1.28 -0.35,1.26 -0.49,1.20 -0.64,1.14 -0.77,1.05 -0.90,0.95 -1.00,0.83 -1.10,0.71 -1.17,0.57 -1.24,0.42 -1.27,0.27 -1.30,0.11 -1.30,-0.03 -1.29,-0.19 -1.25,-0.35 -1.21,-0.50 -1.13,-0.64 -1.05,-0.77 -0.94,-0.89 -0.84,-1.00 -0.84,-1.00 L -0.84,-1.00 Z"/></g><g transform="translate(86.68118286132812 277.2886047363281) rotate(0 6.572662353515625 0)" stroke="none"><path fill="#1e1e1e" d="M 0,-1.31 Q 0,-1.31 3.77,-1.31 7.55,-1.31 9.16,-1.31 10.77,-1.31 10.98,-1.27 11.19,-1.24 11.37,-1.14 11.56,-1.04 11.71,-0.89 11.85,-0.73 11.94,-0.54 12.03,-0.35 12.05,-0.14 12.08,0.07 12.03,0.27 11.99,0.48 11.88,0.66 11.77,0.85 11.60,0.98 11.44,1.12 11.25,1.20 11.05,1.28 10.84,1.29 10.62,1.30 10.42,1.24 10.21,1.19 10.04,1.07 9.86,0.95 9.73,0.78 9.61,0.61 9.54,0.41 9.47,0.21 9.47,-0.00 9.47,-0.21 9.54,-0.41 9.61,-0.61 9.73,-0.78 9.86,-0.95 10.04,-1.07 10.21,-1.19 10.42,-1.24 10.62,-1.30 10.84,-1.29 11.05,-1.28 11.25,-1.20 11.44,-1.12 11.61,-0.98 11.77,-0.84 11.88,-0.66 11.99,-0.48 12.03,-0.27 12.08,-0.07 12.05,0.14 12.03,0.35 11.94,0.54 11.85,0.73 11.71,0.89 11.56,1.04 11.37,1.14 11.18,1.24 10.98,1.27 10.77,1.31 10.77,1.31 10.77,1.31 9.16,1.31 7.55,1.31 3.77,1.31 0,1.31 -0.15,1.29 -0.31,1.27 -0.46,1.21 -0.61,1.16 -0.74,1.07 -0.87,0.98 -0.97,0.86 -1.08,0.74 -1.15,0.60 -1.22,0.46 -1.26,0.31 -1.30,0.15 -1.30,-0.00 -1.30,-0.15 -1.26,-0.31 -1.22,-0.46 -1.15,-0.60 -1.08,-0.74 -0.97,-0.86 -0.87,-0.98 -0.74,-1.07 -0.61,-1.16 -0.46,-1.21 -0.31,-1.27 -0.15,-1.29 0.00,-1.31 0.00,-1.31 L 0,-1.31 Z"/></g><g transform="translate(115.16275024414062 223.61181640625) rotate(0 -2.190887451171875 21.908905029296875)" stroke="none"><path fill="#1e1e1e" d="M 0.92,0.92 Q 0.92,0.92 0.32,2.80 -0.27,4.67 -0.80,6.06 -1.33,7.45 -1.84,10.39 -2.34,13.33 -2.57,17.34 -2.80,21.35 -2.31,25.68 -1.82,30.01 -1.04,32.96 -0.27,35.91 1.04,38.85 2.35,41.79 2.44,41.98 2.54,42.17 2.57,42.38 2.60,42.59 2.56,42.80 2.52,43.01 2.41,43.19 2.31,43.38 2.15,43.52 1.99,43.66 1.79,43.75 1.60,43.83 1.39,43.85 1.18,43.86 0.97,43.81 0.76,43.76 0.58,43.65 0.41,43.53 0.27,43.37 0.14,43.20 0.07,43.00 -0.00,42.80 -0.00,42.59 -0.01,42.38 0.04,42.17 0.11,41.97 0.23,41.80 0.35,41.63 0.53,41.50 0.70,41.38 0.90,41.32 1.11,41.25 1.32,41.26 1.53,41.27 1.73,41.34 1.93,41.41 2.09,41.55 2.26,41.68 2.37,41.86 2.49,42.04 2.54,42.24 2.59,42.45 2.57,42.66 2.56,42.87 2.47,43.07 2.39,43.26 2.25,43.42 2.10,43.58 1.92,43.68 1.74,43.79 1.53,43.83 1.32,43.87 1.11,43.84 0.90,43.81 0.71,43.72 0.52,43.62 0.37,43.47 0.22,43.32 0.22,43.32 0.22,43.32 -2.56,40.56 -5.35,37.79 -6.89,34.28 -8.44,30.78 -8.96,25.84 -9.48,20.91 -9.14,16.46 -8.79,12.01 -7.95,8.39 -7.10,4.76 -5.93,2.56 -4.75,0.36 -2.84,-0.28 -0.92,-0.92 -0.80,-1.02 -0.67,-1.12 -0.53,-1.18 -0.39,-1.25 -0.23,-1.28 -0.07,-1.31 0.07,-1.30 0.23,-1.29 0.38,-1.24 0.53,-1.19 0.67,-1.11 0.80,-1.03 0.92,-0.92 1.03,-0.80 1.11,-0.67 1.19,-0.53 1.24,-0.38 1.29,-0.23 1.30,-0.07 1.31,0.07 1.28,0.23 1.25,0.39 1.18,0.53 1.12,0.67 1.02,0.80 0.92,0.92 0.92,0.92 L 0.92,0.92 Z"/></g><g transform="translate(135.9761962890625 242.234375) rotate(0 16.431686401367188 10.954452514648438)" stroke="none"><path fill="#1e1e1e" d="M -1.20,-0.51 Q -1.20,-0.51 -1.08,-3.09 -0.95,-5.66 2.34,-7.52 5.64,-9.38 7.14,-8.33 8.64,-7.28 9.91,-5.49 11.17,-3.70 11.61,-1.94 12.04,-0.18 12.10,-1.24 12.16,-2.31 14.12,-2.87 16.07,-3.43 18.16,-3.69 20.24,-3.94 22.97,-3.00 25.70,-2.07 27.09,-1.26 28.48,-0.46 30.09,1.49 31.69,3.44 33.02,6.29 34.34,9.14 34.96,12.17 35.58,15.20 35.49,17.39 35.40,19.58 34.57,21.86 33.75,24.13 31.13,26.72 28.51,29.31 24.84,30.76 21.16,32.22 18.99,32.73 16.82,33.24 14.14,32.75 11.47,32.26 10.23,30.91 9.00,29.56 7.94,26.55 6.87,23.53 6.83,23.32 6.79,23.11 6.81,22.90 6.84,22.69 6.93,22.50 7.03,22.31 7.18,22.16 7.33,22.01 7.52,21.91 7.71,21.82 7.92,21.79 8.13,21.76 8.34,21.80 8.55,21.84 8.73,21.94 8.92,22.05 9.06,22.20 9.20,22.36 9.29,22.56 9.37,22.75 9.39,22.96 9.41,23.17 9.36,23.38 9.31,23.59 9.19,23.77 9.08,23.95 8.91,24.08 8.75,24.21 8.55,24.29 8.35,24.36 8.14,24.37 7.93,24.38 7.72,24.31 7.52,24.25 7.35,24.13 7.17,24.01 7.05,23.83 6.92,23.66 6.86,23.46 6.80,23.26 6.80,23.04 6.81,22.83 6.88,22.63 6.95,22.43 7.09,22.27 7.22,22.10 7.40,21.98 7.57,21.87 7.78,21.82 7.99,21.76 8.20,21.78 8.41,21.80 8.61,21.88 8.80,21.96 8.96,22.11 9.12,22.25 9.22,22.43 9.33,22.62 9.33,22.62 9.33,22.62 10.78,24.91 12.24,27.20 13.75,26.92 15.26,26.64 17.01,26.17 18.76,25.70 21.34,24.84 23.93,23.98 25.66,22.61 27.40,21.25 27.93,20.14 28.47,19.02 28.60,17.70 28.74,16.37 28.42,14.08 28.10,11.80 27.21,9.56 26.32,7.31 25.67,6.17 25.03,5.03 24.08,4.48 23.14,3.93 21.87,3.17 20.60,2.41 19.20,2.60 17.79,2.78 15.98,3.27 14.18,3.75 11.87,4.10 9.56,4.45 8.05,3.33 6.53,2.21 6.20,0.91 5.87,-0.39 5.33,-1.38 4.78,-2.37 3.52,-3.40 2.25,-4.44 3.49,-3.79 4.73,-3.15 2.97,-1.31 1.20,0.51 1.12,0.65 1.04,0.79 0.93,0.90 0.82,1.01 0.69,1.10 0.56,1.18 0.41,1.23 0.25,1.28 0.10,1.29 -0.05,1.31 -0.21,1.28 -0.36,1.26 -0.51,1.19 -0.65,1.13 -0.78,1.04 -0.91,0.94 -1.01,0.82 -1.11,0.69 -1.17,0.55 -1.24,0.41 -1.27,0.25 -1.30,0.10 -1.30,-0.05 -1.29,-0.21 -1.25,-0.36 -1.20,-0.51 -1.20,-0.51 L -1.20,-0.51 Z"/></g><g transform="translate(184.17581176757812 201.70291137695312) rotate(0 5.477203369140625 -6.5726776123046875)" stroke="none"><path fill="#1e1e1e" d="M -1.05,-0.78 Q -1.05,-0.78 -0.80,-2.56 -0.55,-4.35 1.12,-6.49 2.80,-8.63 4.04,-10.64 5.28,-12.66 5.76,-13.73 6.24,-14.80 6.76,-15.65 7.29,-16.50 7.48,-16.82 7.68,-17.14 7.95,-17.40 8.22,-17.67 8.54,-17.86 8.87,-18.05 9.23,-18.16 9.59,-18.27 9.97,-18.29 10.34,-18.31 10.71,-18.24 11.09,-18.17 11.43,-18.01 11.77,-17.85 12.07,-17.61 12.36,-17.38 12.59,-17.08 12.82,-16.78 12.97,-16.44 13.12,-16.09 13.19,-15.72 13.25,-15.35 13.23,-14.97 13.20,-14.60 13.08,-14.24 12.97,-13.88 12.88,-10.71 12.80,-7.55 11.99,-3.11 11.17,1.32 11.14,1.53 11.10,1.74 11.00,1.93 10.90,2.12 10.75,2.26 10.59,2.41 10.40,2.50 10.21,2.59 10.00,2.61 9.78,2.63 9.58,2.58 9.37,2.54 9.19,2.43 9.01,2.32 8.87,2.16 8.73,1.99 8.65,1.80 8.57,1.60 8.56,1.39 8.55,1.18 8.61,0.97 8.67,0.77 8.79,0.59 8.91,0.41 9.08,0.29 9.25,0.16 9.45,0.09 9.65,0.02 9.86,0.02 10.07,0.02 10.27,0.09 10.48,0.16 10.64,0.29 10.81,0.42 10.93,0.59 11.05,0.77 11.11,0.98 11.16,1.18 11.15,1.39 11.14,1.60 11.06,1.80 10.98,2.00 10.84,2.16 10.71,2.32 10.52,2.43 10.34,2.54 10.13,2.59 9.93,2.63 9.71,2.61 9.50,2.58 9.31,2.49 9.12,2.41 8.96,2.26 8.81,2.11 8.71,1.92 8.61,1.74 8.58,1.53 8.54,1.32 8.54,1.32 8.54,1.32 7.75,-3.13 6.95,-7.59 6.86,-9.78 6.77,-11.96 7.03,-14.23 7.29,-16.50 7.48,-16.82 7.68,-17.14 7.95,-17.40 8.22,-17.67 8.54,-17.86 8.87,-18.05 9.23,-18.16 9.59,-18.27 9.97,-18.29 10.34,-18.31 10.71,-18.24 11.09,-18.17 11.43,-18.01 11.77,-17.85 12.06,-17.62 12.36,-17.38 12.59,-17.08 12.82,-16.78 12.97,-16.44 13.12,-16.09 13.19,-15.72 13.25,-15.35 13.23,-14.97 13.20,-14.60 13.08,-14.24 12.97,-13.88 12.38,-13.05 11.79,-12.22 11.14,-10.83 10.48,-9.44 9.05,-7.14 7.61,-4.84 5.97,-2.76 4.33,-0.68 2.69,0.05 1.05,0.78 0.94,0.90 0.83,1.01 0.69,1.10 0.56,1.18 0.41,1.23 0.26,1.28 0.10,1.29 -0.05,1.31 -0.20,1.28 -0.36,1.26 -0.50,1.19 -0.65,1.13 -0.78,1.04 -0.90,0.94 -1.00,0.82 -1.10,0.70 -1.17,0.55 -1.24,0.41 -1.27,0.26 -1.30,0.10 -1.30,-0.05 -1.29,-0.20 -1.25,-0.36 -1.20,-0.51 -1.12,-0.65 -1.05,-0.78 -1.05,-0.78 L -1.05,-0.78 Z"/></g><g transform="translate(177.60311889648438 212.6573486328125) rotate(0 17.527130126953125 0.0000152587890625)" stroke="none"><path fill="#1e1e1e" d="M 0.13,-1.30 Q 0.13,-1.30 3.38,-2.09 6.64,-2.88 10.24,-3.10 13.84,-3.31 18.05,-3.40 22.26,-3.48 25.17,-3.67 28.08,-3.87 31.12,-2.17 34.17,-0.48 34.36,-0.39 34.56,-0.31 34.71,-0.16 34.87,-0.02 34.98,0.15 35.08,0.34 35.12,0.55 35.16,0.76 35.13,0.97 35.10,1.18 35.00,1.37 34.91,1.56 34.76,1.71 34.61,1.86 34.42,1.95 34.23,2.04 34.02,2.07 33.81,2.10 33.60,2.06 33.39,2.02 33.20,1.91 33.02,1.81 32.88,1.65 32.74,1.49 32.65,1.30 32.57,1.10 32.55,0.89 32.54,0.68 32.59,0.47 32.64,0.27 32.76,0.09 32.87,-0.08 33.04,-0.21 33.20,-0.35 33.40,-0.42 33.60,-0.49 33.81,-0.50 34.03,-0.50 34.23,-0.44 34.43,-0.38 34.60,-0.25 34.78,-0.13 34.90,0.03 35.02,0.21 35.09,0.41 35.15,0.61 35.14,0.83 35.13,1.04 35.06,1.24 34.99,1.44 34.85,1.60 34.72,1.77 34.54,1.88 34.36,2.00 34.15,2.05 33.95,2.10 33.74,2.08 33.52,2.06 33.52,2.06 33.52,2.06 31.11,2.38 28.69,2.71 25.54,3.21 22.40,3.70 18.29,3.78 14.18,3.85 10.06,3.99 5.95,4.14 2.91,2.72 -0.13,1.30 -0.28,1.27 -0.43,1.23 -0.58,1.16 -0.72,1.09 -0.84,0.99 -0.96,0.89 -1.05,0.76 -1.14,0.63 -1.20,0.48 -1.26,0.34 -1.29,0.18 -1.31,0.02 -1.29,-0.12 -1.28,-0.28 -1.22,-0.43 -1.17,-0.58 -1.08,-0.71 -1.00,-0.84 -0.88,-0.95 -0.76,-1.06 -0.63,-1.14 -0.49,-1.21 -0.33,-1.25 -0.18,-1.30 -0.02,-1.30 0.13,-1.30 0.13,-1.30 L 0.13,-1.30 Z"/></g><g transform="translate(167.74411010742188 223.61181640625) rotate(0 8.7635498046875 5.4772186279296875)" stroke="none"><path fill="#1e1e1e" d="M 0.65,-1.14 Q 0.65,-1.14 3.33,-0.72 6.02,-0.30 7.78,0.46 9.54,1.22 11.56,2.73 13.59,4.25 15.40,6.69 17.22,9.13 17.37,9.28 17.52,9.43 17.62,9.62 17.71,9.81 17.74,10.02 17.78,10.23 17.74,10.44 17.70,10.65 17.60,10.83 17.49,11.02 17.34,11.16 17.18,11.30 16.99,11.39 16.79,11.48 16.58,11.50 16.37,11.51 16.16,11.47 15.96,11.42 15.78,11.30 15.60,11.19 15.46,11.03 15.33,10.86 15.25,10.66 15.18,10.47 15.17,10.25 15.16,10.04 15.22,9.84 15.28,9.63 15.40,9.46 15.52,9.29 15.70,9.16 15.87,9.03 16.07,8.97 16.27,8.91 16.48,8.91 16.70,8.91 16.90,8.98 17.10,9.06 17.26,9.19 17.43,9.32 17.55,9.50 17.66,9.67 17.72,9.88 17.77,10.09 17.76,10.30 17.74,10.51 17.66,10.71 17.58,10.90 17.44,11.06 17.30,11.22 17.11,11.33 16.93,11.43 16.72,11.48 16.51,11.52 16.30,11.49 16.09,11.46 15.90,11.37 15.71,11.28 15.71,11.28 15.71,11.28 12.72,10.34 9.73,9.41 8.26,8.31 6.80,7.21 4.79,6.27 2.79,5.34 1.07,3.24 -0.65,1.14 -0.77,1.04 -0.90,0.95 -1.00,0.82 -1.10,0.70 -1.17,0.56 -1.24,0.42 -1.27,0.26 -1.30,0.11 -1.30,-0.04 -1.29,-0.20 -1.25,-0.35 -1.21,-0.50 -1.13,-0.64 -1.05,-0.78 -0.94,-0.89 -0.83,-1.01 -0.70,-1.09 -0.56,-1.18 -0.41,-1.23 -0.26,-1.28 -0.11,-1.29 0.04,-1.31 0.20,-1.28 0.35,-1.26 0.50,-1.20 0.65,-1.14 0.65,-1.14 L 0.65,-1.14 Z"/></g><g transform="translate(183.08035278320312 225.80270385742188) rotate(0 -4.38177490234375 4.92950439453125)" stroke="none"><path fill="#1e1e1e" d="M 0.92,0.92 Q 0.92,0.92 -0.81,3.58 -2.56,6.25 -4.94,8.13 -7.31,10.02 -7.45,10.18 -7.59,10.34 -7.78,10.45 -7.96,10.55 -8.17,10.59 -8.38,10.63 -8.59,10.61 -8.80,10.58 -8.99,10.49 -9.18,10.39 -9.33,10.25 -9.48,10.10 -9.58,9.91 -9.68,9.72 -9.71,9.51 -9.74,9.30 -9.70,9.09 -9.66,8.88 -9.56,8.69 -9.45,8.51 -9.30,8.36 -9.14,8.22 -8.95,8.14 -8.75,8.05 -8.54,8.03 -8.33,8.01 -8.12,8.06 -7.91,8.11 -7.73,8.22 -7.55,8.34 -7.42,8.50 -7.29,8.67 -7.21,8.87 -7.14,9.06 -7.13,9.28 -7.12,9.49 -7.18,9.69 -7.24,9.90 -7.37,10.07 -7.49,10.24 -7.66,10.37 -7.83,10.49 -8.03,10.56 -8.24,10.62 -8.45,10.62 -8.66,10.61 -8.86,10.54 -9.06,10.47 -9.23,10.34 -9.40,10.21 -9.51,10.03 -9.63,9.85 -9.68,9.64 -9.73,9.44 -9.72,9.23 -9.70,9.01 -9.62,8.82 -9.54,8.62 -9.54,8.62 -9.54,8.62 -7.89,5.59 -6.25,2.56 -3.58,0.81 -0.92,-0.92 -0.80,-1.02 -0.67,-1.12 -0.53,-1.18 -0.39,-1.25 -0.23,-1.28 -0.07,-1.31 0.07,-1.30 0.23,-1.29 0.38,-1.24 0.53,-1.19 0.67,-1.11 0.81,-1.03 0.92,-0.92 1.03,-0.80 1.11,-0.67 1.19,-0.53 1.24,-0.38 1.29,-0.23 1.30,-0.07 1.31,0.07 1.28,0.23 1.25,0.39 1.18,0.53 1.12,0.67 1.02,0.80 0.92,0.92 0.92,0.92 L 0.92,0.92 Z"/></g><g transform="translate(189.65298461914062 232.3753662109375) rotate(0 4.92950439453125 -0.5477142333984375)" stroke="none"><path fill="#1e1e1e" d="M 0,-1.31 Q 0,-1.31 2.19,-2.16 4.39,-3.01 6.50,-2.59 8.61,-2.18 8.82,-2.19 9.04,-2.20 9.24,-2.13 9.44,-2.07 9.62,-1.95 9.79,-1.83 9.92,-1.66 10.04,-1.49 10.11,-1.28 10.17,-1.08 10.17,-0.87 10.16,-0.66 10.09,-0.46 10.02,-0.26 9.89,-0.09 9.76,0.07 9.58,0.18 9.40,0.30 9.19,0.35 8.99,0.41 8.78,0.39 8.56,0.37 8.37,0.29 8.17,0.21 8.01,0.07 7.85,-0.06 7.75,-0.24 7.64,-0.43 7.60,-0.64 7.56,-0.85 7.58,-1.06 7.61,-1.27 7.70,-1.46 7.80,-1.65 7.95,-1.80 8.09,-1.95 8.28,-2.05 8.47,-2.14 8.68,-2.18 8.89,-2.21 9.10,-2.17 9.31,-2.13 9.50,-2.03 9.68,-1.92 9.83,-1.77 9.97,-1.61 10.06,-1.41 10.14,-1.22 10.16,-1.01 10.18,-0.80 10.13,-0.59 10.08,-0.38 9.97,-0.20 9.85,-0.02 9.69,0.10 9.53,0.24 9.33,0.31 9.13,0.39 9.13,0.39 9.13,0.39 6.77,1.70 4.42,3.01 2.21,2.16 0,1.31 -0.15,1.29 -0.31,1.27 -0.46,1.21 -0.61,1.16 -0.74,1.07 -0.87,0.98 -0.97,0.86 -1.08,0.74 -1.15,0.60 -1.22,0.46 -1.26,0.31 -1.30,0.15 -1.30,-0.00 -1.30,-0.15 -1.26,-0.31 -1.22,-0.46 -1.15,-0.60 -1.08,-0.74 -0.97,-0.86 -0.87,-0.98 -0.74,-1.07 -0.61,-1.16 -0.46,-1.21 -0.31,-1.27 -0.15,-1.29 0.00,-1.31 0.00,-1.31 L 0,-1.31 Z"/></g><g transform="translate(206.08468627929688 229.08901977539062) rotate(0 9.8590087890625 6.57269287109375)" stroke="none"><path fill="#1e1e1e" d="M -0.58,-1.17 Q -0.58,-1.17 0.91,-2.90 2.40,-4.63 3.77,-5.12 5.13,-5.60 7.56,-4.98 9.99,-4.35 11.04,-2.53 12.10,-0.70 12.06,1.71 12.03,4.13 10.92,6.97 9.81,9.80 8.29,12.03 6.77,14.26 5.65,15.59 4.52,16.93 4.06,17.01 3.59,17.10 3.32,17.38 3.04,17.66 2.70,17.86 2.36,18.06 1.99,18.18 1.61,18.30 1.22,18.32 0.82,18.34 0.43,18.27 0.05,18.20 -0.30,18.04 -0.66,17.88 -0.97,17.63 -1.28,17.39 -1.52,17.08 -1.77,16.77 -1.93,16.41 -2.09,16.05 -2.16,15.66 -2.23,15.27 -2.21,14.88 -2.18,14.49 -2.06,14.11 -1.95,13.73 -1.74,13.40 -1.54,13.06 0.39,12.47 2.32,11.89 3.44,11.56 4.56,11.24 7.06,11.10 9.55,10.97 11.74,11.75 13.93,12.54 15.91,11.09 17.89,9.64 18.08,9.53 18.26,9.43 18.47,9.39 18.68,9.35 18.89,9.37 19.10,9.40 19.29,9.50 19.48,9.59 19.63,9.74 19.78,9.89 19.88,10.08 19.97,10.27 20.00,10.48 20.03,10.69 19.99,10.90 19.95,11.11 19.85,11.29 19.75,11.48 19.59,11.62 19.43,11.76 19.24,11.85 19.04,11.93 18.83,11.95 18.62,11.97 18.41,11.92 18.21,11.87 18.03,11.75 17.85,11.64 17.71,11.47 17.58,11.31 17.50,11.11 17.43,10.91 17.42,10.70 17.42,10.49 17.48,10.28 17.54,10.08 17.66,9.91 17.79,9.73 17.96,9.61 18.13,9.48 18.33,9.42 18.54,9.36 18.75,9.36 18.96,9.37 19.16,9.44 19.36,9.51 19.53,9.65 19.69,9.78 19.81,9.96 19.92,10.14 19.98,10.34 20.03,10.55 20.01,10.76 20.00,10.97 19.91,11.17 19.83,11.36 19.69,11.52 19.55,11.68 19.55,11.68 19.55,11.68 17.02,13.88 14.49,16.09 12.20,16.97 9.91,17.86 7.80,17.97 5.69,18.08 3.38,18.32 1.06,18.56 2.33,17.83 3.59,17.10 3.32,17.38 3.04,17.66 2.70,17.86 2.36,18.06 1.99,18.18 1.61,18.30 1.22,18.32 0.82,18.34 0.43,18.27 0.05,18.20 -0.30,18.04 -0.66,17.88 -0.97,17.63 -1.28,17.39 -1.52,17.08 -1.77,16.77 -1.93,16.41 -2.09,16.05 -2.16,15.66 -2.23,15.27 -2.21,14.88 -2.18,14.49 -2.06,14.11 -1.95,13.73 -1.74,13.40 -1.54,13.06 -0.61,12.81 0.31,12.56 0.98,11.61 1.64,10.66 2.86,9.00 4.07,7.34 4.95,5.48 5.83,3.62 5.49,2.24 5.15,0.85 2.86,1.01 0.58,1.17 0.43,1.22 0.28,1.28 0.13,1.29 -0.02,1.31 -0.18,1.29 -0.33,1.26 -0.48,1.20 -0.63,1.15 -0.76,1.05 -0.89,0.96 -0.99,0.84 -1.09,0.72 -1.16,0.58 -1.23,0.44 -1.27,0.28 -1.30,0.13 -1.30,-0.02 -1.30,-0.18 -1.25,-0.33 -1.21,-0.48 -1.14,-0.62 -1.06,-0.76 -0.95,-0.88 -0.85,-1.00 -0.71,-1.08 -0.58,-1.17 -0.58,-1.17 L -0.58,-1.17 Z"/></g><g transform="translate(234.56625366210938 217.03912353515625) rotate(0 7.120391845703125 29.5770263671875)" stroke="none"><path fill="#1e1e1e" d="M 1.00,-0.84 Q 1.00,-0.84 3.40,0.36 5.80,1.56 7.84,4.35 9.88,7.15 11.90,12.47 13.92,17.80 15.07,24.29 16.22,30.77 16.33,37.13 16.43,43.49 15.54,47.80 14.65,52.11 12.62,55.27 10.59,58.43 10.47,58.60 10.34,58.77 10.17,58.90 10.00,59.02 9.79,59.08 9.59,59.14 9.38,59.13 9.16,59.13 8.96,59.05 8.77,58.98 8.60,58.84 8.44,58.71 8.32,58.53 8.21,58.35 8.16,58.14 8.11,57.94 8.13,57.72 8.15,57.51 8.23,57.32 8.32,57.12 8.46,56.97 8.61,56.81 8.79,56.71 8.98,56.60 9.19,56.56 9.40,56.53 9.61,56.56 9.82,56.59 10.01,56.68 10.20,56.78 10.34,56.93 10.49,57.08 10.59,57.27 10.68,57.46 10.71,57.67 10.73,57.88 10.69,58.09 10.65,58.30 10.54,58.49 10.44,58.67 10.28,58.81 10.12,58.95 9.92,59.03 9.73,59.12 9.52,59.13 9.30,59.15 9.10,59.09 8.89,59.04 8.71,58.93 8.54,58.81 8.40,58.64 8.27,58.48 8.20,58.28 8.13,58.08 8.12,57.86 8.12,57.65 8.18,57.45 8.25,57.25 8.25,57.25 8.25,57.25 9.23,54.47 10.20,51.69 9.82,47.67 9.44,43.65 9.27,37.82 9.10,31.99 8.12,26.10 7.14,20.21 5.63,15.69 4.13,11.17 2.31,8.58 0.49,5.99 -0.25,3.41 -1.00,0.84 -1.09,0.70 -1.18,0.57 -1.23,0.42 -1.28,0.27 -1.29,0.11 -1.31,-0.03 -1.28,-0.19 -1.26,-0.35 -1.20,-0.49 -1.14,-0.64 -1.05,-0.77 -0.95,-0.90 -0.83,-1.00 -0.71,-1.10 -0.57,-1.17 -0.42,-1.24 -0.27,-1.27 -0.11,-1.30 0.03,-1.30 0.19,-1.29 0.35,-1.25 0.50,-1.21 0.64,-1.13 0.77,-1.05 0.89,-0.94 1.00,-0.84 1.00,-0.84 L 1.00,-0.84 Z"/></g><g transform="translate(298.1020812988281 71.34492492675781) rotate(0 8.7635498046875 -1.0954437255859375)" stroke="none"><path fill="#1e1e1e" d="M -0.14,-1.30 Q -0.14,-1.30 2.60,-2.37 5.35,-3.45 6.90,-3.59 8.45,-3.73 10.23,-3.98 12.01,-4.23 14.24,-3.81 16.47,-3.39 16.69,-3.38 16.90,-3.37 17.10,-3.29 17.29,-3.21 17.46,-3.08 17.62,-2.94 17.73,-2.76 17.84,-2.57 17.88,-2.37 17.93,-2.16 17.91,-1.95 17.88,-1.74 17.79,-1.54 17.71,-1.35 17.56,-1.20 17.41,-1.04 17.23,-0.94 17.04,-0.84 16.83,-0.81 16.62,-0.77 16.41,-0.81 16.20,-0.84 16.01,-0.94 15.82,-1.04 15.68,-1.19 15.53,-1.35 15.44,-1.54 15.35,-1.73 15.33,-1.95 15.31,-2.16 15.35,-2.36 15.40,-2.57 15.51,-2.75 15.62,-2.94 15.78,-3.07 15.94,-3.21 16.14,-3.29 16.33,-3.37 16.55,-3.38 16.76,-3.39 16.96,-3.34 17.17,-3.28 17.34,-3.16 17.52,-3.04 17.65,-2.87 17.78,-2.70 17.85,-2.50 17.91,-2.30 17.91,-2.09 17.91,-1.88 17.85,-1.67 17.78,-1.47 17.65,-1.30 17.52,-1.13 17.35,-1.01 17.17,-0.90 16.97,-0.84 16.76,-0.78 16.76,-0.78 16.76,-0.78 14.89,0.08 13.02,0.95 10.99,1.44 8.95,1.94 7.47,2.06 5.98,2.19 3.06,1.74 0.14,1.30 -0.01,1.30 -0.17,1.30 -0.32,1.26 -0.47,1.22 -0.61,1.14 -0.75,1.07 -0.87,0.96 -0.99,0.86 -1.08,0.72 -1.16,0.59 -1.22,0.44 -1.27,0.30 -1.29,0.14 -1.31,-0.01 -1.29,-0.17 -1.27,-0.32 -1.21,-0.47 -1.15,-0.62 -1.06,-0.75 -0.97,-0.88 -0.85,-0.98 -0.73,-1.08 -0.59,-1.16 -0.45,-1.23 -0.29,-1.26 -0.14,-1.30 -0.14,-1.30 L -0.14,-1.30 Z"/></g><g transform="translate(299.1975402832031 83.39482116699219) rotate(0 10.954437255859375 -2.7386093139648438)" stroke="none"><path fill="#1e1e1e" d="M 0,-1.31 Q 0,-1.31 3.77,-2.23 7.55,-3.14 10.63,-2.62 13.71,-2.09 16.74,-3.91 19.78,-5.72 19.98,-5.80 20.17,-5.88 20.39,-5.89 20.60,-5.90 20.80,-5.85 21.01,-5.79 21.18,-5.67 21.36,-5.55 21.49,-5.38 21.62,-5.22 21.69,-5.02 21.76,-4.81 21.76,-4.60 21.76,-4.39 21.69,-4.19 21.62,-3.99 21.50,-3.82 21.37,-3.65 21.19,-3.53 21.02,-3.41 20.81,-3.35 20.61,-3.29 20.40,-3.30 20.18,-3.31 19.99,-3.39 19.79,-3.47 19.63,-3.61 19.46,-3.74 19.35,-3.92 19.24,-4.11 19.20,-4.31 19.15,-4.52 19.17,-4.73 19.19,-4.94 19.28,-5.14 19.37,-5.33 19.52,-5.48 19.66,-5.64 19.85,-5.74 20.04,-5.84 20.25,-5.87 20.46,-5.91 20.67,-5.88 20.88,-5.84 21.06,-5.74 21.25,-5.64 21.40,-5.49 21.55,-5.34 21.64,-5.14 21.73,-4.95 21.75,-4.74 21.77,-4.53 21.73,-4.32 21.68,-4.11 21.57,-3.93 21.46,-3.75 21.30,-3.61 21.14,-3.47 21.14,-3.47 21.14,-3.47 17.63,-1.31 14.12,0.84 10.84,1.99 7.56,3.14 3.78,2.23 0,1.31 -0.15,1.29 -0.31,1.27 -0.46,1.21 -0.61,1.16 -0.74,1.07 -0.87,0.98 -0.97,0.86 -1.08,0.74 -1.15,0.60 -1.22,0.46 -1.26,0.31 -1.30,0.15 -1.30,-0.00 -1.30,-0.15 -1.26,-0.31 -1.22,-0.46 -1.15,-0.60 -1.08,-0.74 -0.97,-0.86 -0.87,-0.98 -0.74,-1.07 -0.61,-1.16 -0.46,-1.21 -0.31,-1.27 -0.15,-1.29 0.00,-1.31 0.00,-1.31 L 0,-1.31 Z"/></g><g transform="translate(272.9068298339844 252.0933837890625) rotate(0 8.763580322265625 0.5477142333984375)" stroke="none"><path fill="#1e1e1e" d="M 0.18,-1.30 Q 0.18,-1.30 2.51,-1.87 4.84,-2.45 6.03,-2.34 7.22,-2.22 8.63,-2.48 10.04,-2.73 13.43,-2.01 16.81,-1.28 17.02,-1.25 17.23,-1.23 17.42,-1.14 17.62,-1.05 17.77,-0.90 17.92,-0.75 18.02,-0.56 18.12,-0.37 18.15,-0.16 18.18,0.04 18.15,0.25 18.11,0.46 18.01,0.64 17.91,0.83 17.75,0.97 17.60,1.12 17.40,1.21 17.21,1.29 17.00,1.31 16.79,1.33 16.58,1.29 16.37,1.24 16.19,1.13 16.01,1.02 15.87,0.85 15.74,0.69 15.66,0.49 15.58,0.29 15.57,0.08 15.56,-0.12 15.62,-0.32 15.68,-0.53 15.80,-0.70 15.92,-0.88 16.09,-1.00 16.26,-1.13 16.47,-1.20 16.67,-1.26 16.88,-1.26 17.09,-1.26 17.29,-1.19 17.49,-1.12 17.66,-0.99 17.83,-0.86 17.95,-0.68 18.07,-0.51 18.12,-0.30 18.18,-0.10 18.16,0.11 18.15,0.32 18.07,0.52 17.99,0.71 17.85,0.87 17.71,1.03 17.53,1.14 17.34,1.25 17.14,1.29 16.93,1.34 16.93,1.34 16.93,1.34 13.93,2.42 10.94,3.50 8.77,3.76 6.60,4.02 5.28,3.86 3.96,3.71 1.89,2.50 -0.18,1.30 -0.33,1.25 -0.49,1.21 -0.63,1.14 -0.76,1.06 -0.88,0.95 -1.00,0.84 -1.08,0.71 -1.17,0.58 -1.22,0.43 -1.28,0.28 -1.29,0.12 -1.31,-0.02 -1.29,-0.18 -1.26,-0.34 -1.20,-0.48 -1.14,-0.63 -1.05,-0.76 -0.96,-0.89 -0.84,-0.99 -0.72,-1.09 -0.58,-1.16 -0.43,-1.23 -0.28,-1.27 -0.13,-1.30 0.02,-1.30 0.18,-1.30 0.18,-1.30 L 0.18,-1.30 Z"/></g><g transform="translate(274.0022888183594 264.1432800292969) rotate(0 8.7635498046875 -0.5477294921875)" stroke="none"><path fill="#1e1e1e" d="M 0,-1.31 Q 0,-1.31 2.20,-2.38 4.40,-3.45 5.97,-3.45 7.54,-3.45 9.47,-3.43 11.41,-3.40 12.71,-2.22 14.02,-1.05 15.05,-1.86 16.07,-2.67 16.26,-2.78 16.44,-2.89 16.64,-2.94 16.85,-2.99 17.06,-2.97 17.27,-2.95 17.47,-2.86 17.66,-2.77 17.82,-2.63 17.97,-2.48 18.07,-2.30 18.18,-2.11 18.21,-1.90 18.25,-1.69 18.22,-1.48 18.19,-1.27 18.09,-1.08 17.99,-0.89 17.84,-0.75 17.69,-0.60 17.50,-0.51 17.30,-0.42 17.09,-0.39 16.88,-0.36 16.67,-0.41 16.47,-0.45 16.28,-0.56 16.10,-0.66 15.96,-0.82 15.82,-0.99 15.74,-1.18 15.66,-1.38 15.64,-1.59 15.63,-1.80 15.68,-2.01 15.74,-2.21 15.86,-2.39 15.97,-2.57 16.14,-2.70 16.31,-2.83 16.51,-2.90 16.71,-2.97 16.92,-2.97 17.13,-2.97 17.34,-2.91 17.54,-2.84 17.71,-2.72 17.88,-2.59 18.00,-2.42 18.12,-2.24 18.18,-2.04 18.24,-1.83 18.23,-1.62 18.22,-1.41 18.15,-1.21 18.07,-1.01 17.94,-0.85 17.80,-0.69 17.80,-0.69 17.80,-0.69 16.17,0.81 14.55,2.31 12.96,2.85 11.37,3.40 9.46,3.43 7.54,3.45 5.97,3.45 4.40,3.45 2.20,2.38 0,1.31 -0.15,1.29 -0.31,1.27 -0.46,1.21 -0.61,1.16 -0.74,1.07 -0.87,0.98 -0.97,0.86 -1.08,0.74 -1.15,0.60 -1.22,0.46 -1.26,0.31 -1.30,0.15 -1.30,-0.00 -1.30,-0.15 -1.26,-0.31 -1.22,-0.46 -1.15,-0.60 -1.08,-0.74 -0.97,-0.86 -0.87,-0.98 -0.74,-1.07 -0.61,-1.16 -0.46,-1.21 -0.31,-1.27 -0.15,-1.29 0.00,-1.31 0.00,-1.31 L 0,-1.31 Z"/></g><g transform="translate(224.70724487304688 75.72671508789062) rotate(0 6.57269287109375 6.572669982910156)" stroke="none"><path fill="#1e1e1e" d="M 0.92,-0.92 Q 0.92,-0.92 3.28,-0.13 5.63,0.66 7.64,3.57 9.66,6.48 11.34,8.88 13.02,11.28 13.15,11.44 13.28,11.61 13.36,11.80 13.43,12.00 13.44,12.22 13.45,12.43 13.39,12.63 13.33,12.84 13.20,13.01 13.08,13.18 12.91,13.31 12.74,13.43 12.53,13.50 12.33,13.56 12.12,13.55 11.91,13.55 11.71,13.48 11.51,13.41 11.34,13.27 11.17,13.14 11.06,12.96 10.94,12.79 10.89,12.58 10.84,12.37 10.85,12.16 10.87,11.95 10.95,11.75 11.03,11.56 11.18,11.40 11.32,11.24 11.50,11.14 11.68,11.03 11.89,10.99 12.10,10.95 12.31,10.97 12.52,11.00 12.71,11.09 12.91,11.19 13.06,11.34 13.21,11.49 13.30,11.68 13.40,11.87 13.43,12.08 13.46,12.29 13.42,12.50 13.38,12.70 13.28,12.89 13.17,13.08 13.02,13.22 12.86,13.36 12.66,13.45 12.47,13.53 12.26,13.55 12.05,13.57 11.84,13.52 11.63,13.47 11.45,13.36 11.27,13.24 11.27,13.24 11.27,13.24 8.44,11.64 5.60,10.04 3.13,7.84 0.66,5.63 -0.13,3.28 -0.92,0.92 -1.02,0.80 -1.12,0.67 -1.18,0.53 -1.25,0.39 -1.28,0.23 -1.31,0.07 -1.30,-0.07 -1.29,-0.23 -1.24,-0.38 -1.19,-0.53 -1.11,-0.67 -1.03,-0.80 -0.92,-0.92 -0.80,-1.03 -0.67,-1.11 -0.53,-1.19 -0.38,-1.24 -0.23,-1.29 -0.07,-1.30 0.07,-1.31 0.23,-1.28 0.39,-1.25 0.53,-1.18 0.67,-1.12 0.80,-1.02 0.92,-0.92 0.92,-0.92 L 0.92,-0.92 Z"/></g><g transform="translate(241.13894653320312 87.776611328125) rotate(0 -4.381805419921875 7.120391845703125)" stroke="none"><path fill="#1e1e1e" d="M 1.26,-0.36 Q 1.26,-0.36 2.77,1.59 4.29,3.54 4.63,5.63 4.96,7.72 5.05,9.87 5.14,12.02 3.48,13.97 1.83,15.92 -0.77,15.89 -3.37,15.87 -5.63,14.81 -7.89,13.76 -9.22,12.54 -10.56,11.32 -10.75,11.24 -10.94,11.15 -11.10,11.00 -11.25,10.86 -11.35,10.67 -11.45,10.48 -11.49,10.27 -11.52,10.06 -11.49,9.85 -11.45,9.64 -11.35,9.45 -11.26,9.27 -11.10,9.12 -10.95,8.97 -10.76,8.88 -10.56,8.79 -10.35,8.77 -10.14,8.75 -9.93,8.79 -9.73,8.84 -9.54,8.95 -9.36,9.06 -9.22,9.22 -9.08,9.38 -9.01,9.58 -8.93,9.77 -8.91,9.98 -8.90,10.20 -8.96,10.40 -9.02,10.61 -9.13,10.78 -9.25,10.96 -9.42,11.09 -9.59,11.22 -9.79,11.29 -9.99,11.35 -10.21,11.35 -10.42,11.35 -10.62,11.29 -10.82,11.22 -10.99,11.09 -11.16,10.96 -11.28,10.79 -11.40,10.61 -11.46,10.41 -11.51,10.20 -11.50,9.99 -11.49,9.78 -11.41,9.58 -11.34,9.38 -11.20,9.22 -11.06,9.06 -10.88,8.95 -10.70,8.84 -10.49,8.79 -10.28,8.75 -10.07,8.77 -9.86,8.79 -9.86,8.79 -9.86,8.79 -7.83,8.50 -5.81,8.21 -4.00,8.68 -2.19,9.15 -1.64,10.23 -1.09,11.30 -1.23,9.96 -1.37,8.62 -1.57,6.94 -1.77,5.27 -1.51,2.81 -1.26,0.36 -1.28,0.20 -1.31,0.04 -1.29,-0.10 -1.28,-0.26 -1.23,-0.41 -1.18,-0.56 -1.09,-0.70 -1.01,-0.83 -0.89,-0.94 -0.78,-1.05 -0.64,-1.13 -0.51,-1.21 -0.35,-1.25 -0.20,-1.29 -0.04,-1.30 0.11,-1.30 0.26,-1.27 0.42,-1.24 0.56,-1.17 0.70,-1.10 0.82,-1.00 0.95,-0.90 1.04,-0.77 1.13,-0.65 1.20,-0.50 1.26,-0.36 1.26,-0.36 L 1.26,-0.36 Z"/></g><g transform="translate(254.28427124023438 115.16273498535156) rotate(0 1.643157958984375 6.5726776123046875)" stroke="none"><path fill="#1e1e1e" d="M 0.25,1.28 Q 0.25,1.28 -0.95,2.44 -2.17,3.60 -2.46,5.30 -2.75,6.99 -2.87,8.44 -3.00,9.88 -2.46,11.21 -1.92,12.54 -0.47,12.30 0.96,12.06 2.84,10.71 4.72,9.36 5.42,8.27 6.13,7.17 6.20,5.75 6.27,4.34 4.71,3.24 3.15,2.14 2.22,1.53 1.29,0.92 0.04,1.15 -1.20,1.39 -2.20,2.04 -3.19,2.69 -3.31,3.35 -3.42,4.02 -3.51,4.15 -3.60,4.28 -3.72,4.39 -3.83,4.49 -3.97,4.57 -4.11,4.65 -4.27,4.69 -4.42,4.73 -4.58,4.73 -4.74,4.73 -4.89,4.70 -5.04,4.66 -5.19,4.59 -5.33,4.52 -5.45,4.41 -5.57,4.31 -5.66,4.18 -5.75,4.05 -5.81,3.90 -5.87,3.76 -5.89,3.60 -5.91,3.44 -5.89,3.29 -5.88,3.13 -5.82,2.98 -5.77,2.83 -4.25,1.62 -2.74,0.40 -2.55,0.30 -2.36,0.20 -2.15,0.17 -1.94,0.14 -1.73,0.18 -1.52,0.21 -1.33,0.31 -1.15,0.41 -1.00,0.57 -0.86,0.73 -0.77,0.92 -0.68,1.11 -0.66,1.32 -0.64,1.54 -0.69,1.74 -0.74,1.95 -0.85,2.13 -0.96,2.31 -1.12,2.45 -1.28,2.58 -1.48,2.66 -1.68,2.74 -1.89,2.75 -2.10,2.76 -2.31,2.70 -2.51,2.64 -2.69,2.52 -2.86,2.40 -2.99,2.23 -3.12,2.06 -3.18,1.85 -3.25,1.65 -3.25,1.44 -3.24,1.23 -3.17,1.03 -3.10,0.83 -2.97,0.66 -2.84,0.49 -2.67,0.37 -2.49,0.26 -2.29,0.20 -2.08,0.15 -1.87,0.16 -1.66,0.17 -1.46,0.25 -1.26,0.33 -1.10,0.47 -0.94,0.61 -0.83,0.80 -0.73,0.98 -0.68,1.19 -0.64,1.39 -0.66,1.61 -0.69,1.82 -0.78,2.01 -0.87,2.20 -1.02,2.35 -1.17,2.51 -1.17,2.51 -1.17,2.51 -2.29,3.26 -3.42,4.02 -3.51,4.15 -3.60,4.28 -3.72,4.39 -3.83,4.49 -3.97,4.57 -4.11,4.65 -4.27,4.69 -4.42,4.73 -4.58,4.73 -4.74,4.73 -4.89,4.70 -5.04,4.66 -5.19,4.59 -5.33,4.52 -5.45,4.41 -5.57,4.31 -5.66,4.18 -5.75,4.05 -5.81,3.91 -5.87,3.76 -5.89,3.60 -5.91,3.44 -5.89,3.29 -5.88,3.13 -5.82,2.98 -5.77,2.83 -6.18,2.21 -6.59,1.59 -6.30,0.29 -6.00,-1.00 -4.67,-2.76 -3.33,-4.52 -1.39,-5.11 0.54,-5.70 2.49,-5.53 4.43,-5.35 5.89,-4.52 7.35,-3.68 9.14,-2.24 10.92,-0.79 12.08,1.61 13.23,4.02 13.16,5.75 13.09,7.49 12.75,8.93 12.41,10.37 11.76,11.49 11.10,12.62 9.81,13.93 8.52,15.24 6.98,16.20 5.45,17.16 3.61,18.03 1.76,18.89 -0.21,18.93 -2.19,18.96 -4.50,17.86 -6.81,16.76 -7.95,14.84 -9.08,12.92 -9.35,11.09 -9.61,9.25 -9.38,7.35 -9.15,5.44 -8.38,3.10 -7.61,0.76 -5.87,-0.79 -4.12,-2.34 -2.19,-1.81 -0.25,-1.28 -0.09,-1.29 0.05,-1.31 0.21,-1.28 0.37,-1.25 0.51,-1.19 0.66,-1.13 0.78,-1.03 0.91,-0.94 1.01,-0.82 1.11,-0.69 1.18,-0.55 1.24,-0.41 1.27,-0.25 1.30,-0.10 1.30,0.05 1.29,0.21 1.25,0.36 1.20,0.51 1.12,0.65 1.04,0.79 0.93,0.90 0.82,1.02 0.69,1.10 0.55,1.18 0.40,1.23 0.25,1.28 0.25,1.28 L 0.25,1.28 Z"/></g><g transform="translate(277.2886047363281 106.399169921875) rotate(0 7.668121337890625 -0.5477218627929688)" stroke="none"><path fill="#1e1e1e" d="M 0.16,-1.30 Q 0.16,-1.30 2.78,-2.04 5.40,-2.79 7.18,-3.27 8.96,-3.75 11.71,-3.54 14.46,-3.32 14.67,-3.34 14.88,-3.36 15.09,-3.31 15.29,-3.26 15.47,-3.14 15.65,-3.03 15.79,-2.87 15.92,-2.70 16.00,-2.50 16.07,-2.30 16.08,-2.09 16.09,-1.88 16.03,-1.67 15.97,-1.47 15.84,-1.30 15.72,-1.12 15.55,-1.00 15.38,-0.87 15.17,-0.81 14.97,-0.75 14.76,-0.75 14.55,-0.75 14.35,-0.83 14.15,-0.90 13.98,-1.03 13.81,-1.16 13.70,-1.34 13.58,-1.52 13.53,-1.72 13.48,-1.93 13.49,-2.14 13.51,-2.35 13.59,-2.55 13.67,-2.74 13.81,-2.90 13.95,-3.06 14.14,-3.17 14.32,-3.27 14.53,-3.32 14.74,-3.36 14.95,-3.33 15.16,-3.30 15.35,-3.21 15.54,-3.12 15.69,-2.97 15.85,-2.82 15.94,-2.63 16.04,-2.44 16.07,-2.23 16.10,-2.02 16.06,-1.81 16.02,-1.60 15.92,-1.42 15.81,-1.23 15.66,-1.09 15.50,-0.94 15.31,-0.86 15.11,-0.77 15.11,-0.77 15.11,-0.77 12.77,1.12 10.43,3.03 7.55,3.54 4.67,4.05 2.25,2.67 -0.16,1.30 -0.31,1.26 -0.47,1.22 -0.60,1.15 -0.74,1.07 -0.86,0.97 -0.98,0.86 -1.07,0.73 -1.16,0.60 -1.22,0.45 -1.27,0.30 -1.29,0.15 -1.31,-0.00 -1.29,-0.16 -1.27,-0.31 -1.21,-0.46 -1.16,-0.61 -1.07,-0.74 -0.97,-0.87 -0.86,-0.97 -0.74,-1.08 -0.60,-1.15 -0.46,-1.22 -0.30,-1.26 -0.15,-1.30 0.00,-1.30 0.16,-1.30 0.16,-1.30 L 0.16,-1.30 Z"/></g><g transform="translate(286.0522155761719 94.34927368164062) rotate(0 -0.5477294921875 10.954452514648438)" stroke="none"><path fill="#1e1e1e" d="M 1.31,0.07 Q 1.31,0.07 1.77,5.47 2.23,10.87 2.18,13.62 2.12,16.36 1.69,18.61 1.26,20.87 1.23,21.08 1.21,21.29 1.12,21.48 1.03,21.67 0.88,21.83 0.74,21.98 0.55,22.08 0.36,22.18 0.15,22.21 -0.05,22.24 -0.26,22.21 -0.47,22.17 -0.66,22.07 -0.84,21.97 -0.99,21.82 -1.13,21.66 -1.22,21.47 -1.31,21.28 -1.33,21.06 -1.35,20.85 -1.31,20.65 -1.26,20.44 -1.15,20.26 -1.04,20.08 -0.88,19.94 -0.72,19.80 -0.52,19.72 -0.32,19.65 -0.11,19.64 0.09,19.63 0.30,19.68 0.50,19.74 0.68,19.86 0.85,19.98 0.98,20.15 1.11,20.32 1.18,20.52 1.24,20.72 1.24,20.94 1.24,21.15 1.17,21.35 1.10,21.55 0.97,21.72 0.85,21.89 0.67,22.01 0.49,22.12 0.29,22.18 0.08,22.24 -0.12,22.22 -0.33,22.21 -0.53,22.13 -0.73,22.05 -0.89,21.91 -1.05,21.78 -1.16,21.59 -1.27,21.41 -1.31,21.20 -1.36,21.00 -1.36,21.00 -1.36,21.00 -2.01,18.83 -2.66,16.66 -3.07,13.60 -3.49,10.54 -2.40,5.23 -1.31,-0.07 -1.28,-0.23 -1.25,-0.38 -1.18,-0.53 -1.12,-0.67 -1.02,-0.80 -0.93,-0.92 -0.80,-1.02 -0.68,-1.12 -0.53,-1.18 -0.39,-1.25 -0.23,-1.28 -0.08,-1.31 0.07,-1.30 0.23,-1.29 0.38,-1.24 0.53,-1.19 0.67,-1.11 0.80,-1.03 0.92,-0.92 1.03,-0.81 1.11,-0.67 1.19,-0.54 1.24,-0.38 1.29,-0.23 1.30,-0.08 1.31,0.07 1.31,0.07 L 1.31,0.07 Z"/></g><g transform="translate(213.75283813476562 265.23870849609375) rotate(0 6.024932861328125 9.311294555664062)" stroke="none"><path fill="#1e1e1e" d="M 1.11,-0.69 Q 1.11,-0.69 3.38,1.38 5.65,3.46 7.13,5.37 8.61,7.27 9.53,8.46 10.46,9.65 11.50,13.19 12.55,16.72 12.62,16.92 12.68,17.12 12.68,17.34 12.67,17.55 12.60,17.75 12.53,17.95 12.40,18.12 12.27,18.28 12.09,18.40 11.91,18.52 11.71,18.57 11.50,18.62 11.29,18.61 11.08,18.59 10.88,18.51 10.69,18.43 10.53,18.29 10.37,18.15 10.26,17.97 10.15,17.78 10.11,17.57 10.07,17.36 10.10,17.15 10.12,16.94 10.21,16.75 10.31,16.56 10.46,16.41 10.60,16.26 10.79,16.16 10.98,16.06 11.19,16.03 11.40,16.00 11.61,16.04 11.82,16.08 12.01,16.18 12.19,16.28 12.34,16.44 12.48,16.60 12.57,16.79 12.65,16.99 12.67,17.20 12.69,17.41 12.64,17.62 12.59,17.82 12.48,18.00 12.37,18.18 12.20,18.32 12.04,18.45 11.84,18.53 11.64,18.60 11.43,18.61 11.22,18.62 11.01,18.56 10.81,18.50 10.64,18.38 10.46,18.25 10.34,18.08 10.21,17.91 10.21,17.91 10.21,17.91 8.25,15.54 6.29,13.16 5.21,12.01 4.13,10.86 2.39,8.73 0.64,6.60 -0.23,3.65 -1.11,0.69 -1.18,0.55 -1.24,0.40 -1.27,0.25 -1.30,0.09 -1.30,-0.05 -1.29,-0.21 -1.25,-0.36 -1.20,-0.52 -1.12,-0.65 -1.04,-0.79 -0.93,-0.90 -0.82,-1.02 -0.69,-1.10 -0.55,-1.18 -0.40,-1.23 -0.25,-1.28 -0.09,-1.30 0.05,-1.31 0.21,-1.28 0.37,-1.25 0.51,-1.19 0.66,-1.13 0.78,-1.03 0.91,-0.94 1.01,-0.81 1.11,-0.69 1.11,-0.69 L 1.11,-0.69 Z"/></g><g transform="translate(232.37539672851562 277.2886047363281) rotate(0 -4.92950439453125 8.763565063476562)" stroke="none"><path fill="#1e1e1e" d="M 1.30,0.18 Q 1.30,0.18 1.83,2.51 2.36,4.83 2.26,6.92 2.16,9.01 1.45,11.57 0.74,14.13 -0.04,15.71 -0.82,17.29 -2.38,18.42 -3.95,19.56 -7.23,17.53 -10.51,15.50 -10.61,15.32 -10.72,15.14 -10.77,14.93 -10.81,14.72 -10.79,14.51 -10.76,14.30 -10.67,14.11 -10.58,13.91 -10.44,13.76 -10.29,13.61 -10.10,13.51 -9.91,13.41 -9.70,13.38 -9.49,13.34 -9.29,13.38 -9.08,13.41 -8.89,13.51 -8.70,13.61 -8.56,13.77 -8.41,13.92 -8.32,14.12 -8.23,14.31 -8.21,14.52 -8.19,14.73 -8.24,14.94 -8.28,15.15 -8.39,15.33 -8.50,15.51 -8.67,15.65 -8.83,15.78 -9.03,15.86 -9.23,15.94 -9.44,15.95 -9.65,15.96 -9.85,15.90 -10.06,15.84 -10.23,15.72 -10.41,15.60 -10.54,15.43 -10.66,15.26 -10.73,15.06 -10.80,14.86 -10.80,14.65 -10.80,14.44 -10.73,14.24 -10.66,14.03 -10.53,13.87 -10.40,13.70 -10.22,13.58 -10.05,13.46 -9.84,13.40 -9.64,13.35 -9.42,13.36 -9.21,13.37 -9.02,13.45 -8.82,13.53 -8.66,13.67 -8.50,13.81 -8.50,13.81 -8.50,13.81 -6.89,13.02 -5.28,12.24 -4.61,10.41 -3.95,8.59 -3.78,6.28 -3.62,3.98 -2.46,1.89 -1.30,-0.18 -1.25,-0.33 -1.21,-0.49 -1.14,-0.63 -1.06,-0.76 -0.95,-0.88 -0.84,-1.00 -0.71,-1.08 -0.58,-1.17 -0.43,-1.22 -0.28,-1.28 -0.12,-1.29 0.02,-1.31 0.18,-1.29 0.34,-1.26 0.48,-1.20 0.63,-1.14 0.76,-1.05 0.89,-0.96 0.99,-0.84 1.09,-0.72 1.16,-0.58 1.23,-0.43 1.27,-0.28 1.30,-0.13 1.30,0.02 1.30,0.18 1.30,0.18 L 1.30,0.18 Z"/></g><g transform="translate(243.32980346679688 309.0565185546875) rotate(0 -4.381744384765625 10.954452514648438)" stroke="none"><path fill="#1e1e1e" d="M 0,1.31 Q 0,1.31 -2.51,2.18 -5.02,3.06 -6.06,3.35 -7.10,3.63 -8.28,4.32 -9.45,5.00 -10.40,6.43 -11.35,7.87 -11.32,9.93 -11.28,11.99 -10.12,13.78 -8.96,15.57 -7.85,16.45 -6.74,17.34 -5.16,17.56 -3.58,17.79 -1.96,17.17 -0.34,16.54 0.42,15.65 1.20,14.77 1.72,13.45 2.24,12.13 2.49,11.04 2.73,9.96 2.84,8.53 2.94,7.10 2.26,6.28 1.57,5.45 0.51,5.02 -0.55,4.59 -1.96,4.33 -3.36,4.07 -4.52,3.75 -5.67,3.43 -7.11,3.24 -8.54,3.04 -8.75,3.10 -8.95,3.15 -9.16,3.13 -9.38,3.12 -9.57,3.04 -9.77,2.95 -9.93,2.81 -10.09,2.67 -10.19,2.49 -10.30,2.30 -10.34,2.09 -10.38,1.89 -10.35,1.68 -10.33,1.46 -10.23,1.27 -10.14,1.08 -9.99,0.93 -9.84,0.78 -9.65,0.68 -9.46,0.59 -9.25,0.56 -9.04,0.53 -8.83,0.57 -8.62,0.60 -8.44,0.71 -8.25,0.81 -8.11,0.97 -7.97,1.13 -7.88,1.32 -7.80,1.51 -7.78,1.73 -7.76,1.94 -7.81,2.14 -7.86,2.35 -7.97,2.53 -8.08,2.71 -8.25,2.84 -8.41,2.98 -8.61,3.05 -8.81,3.13 -9.02,3.14 -9.24,3.14 -9.44,3.08 -9.64,3.02 -9.82,2.90 -9.99,2.78 -10.12,2.60 -10.24,2.43 -10.30,2.23 -10.37,2.03 -10.36,1.82 -10.36,1.60 -10.29,1.40 -10.22,1.20 -10.08,1.04 -9.95,0.87 -9.77,0.75 -9.60,0.64 -9.60,0.64 -9.60,0.64 -7.47,-1.11 -5.34,-2.87 -3.57,-2.81 -1.80,-2.75 0.69,-2.12 3.19,-1.49 5.39,0.17 7.59,1.84 8.67,4.48 9.74,7.12 9.54,9.39 9.33,11.66 8.86,13.35 8.39,15.04 7.21,17.28 6.03,19.52 4.28,21.08 2.54,22.65 0.47,23.46 -1.58,24.27 -3.37,24.30 -5.16,24.33 -8.02,23.42 -10.87,22.50 -12.79,20.70 -14.71,18.90 -16.22,15.85 -17.73,12.81 -17.85,10.18 -17.97,7.54 -17.56,6.33 -17.16,5.12 -15.95,3.04 -14.73,0.95 -13.51,0.13 -12.29,-0.68 -10.40,-1.53 -8.51,-2.38 -6.78,-2.72 -5.05,-3.06 -2.52,-2.18 0,-1.31 0.15,-1.29 0.31,-1.27 0.46,-1.21 0.61,-1.16 0.74,-1.07 0.87,-0.98 0.97,-0.86 1.08,-0.74 1.15,-0.60 1.22,-0.46 1.26,-0.31 1.30,-0.15 1.30,0.00 1.30,0.15 1.26,0.31 1.22,0.46 1.15,0.60 1.08,0.74 0.97,0.86 0.87,0.98 0.74,1.07 0.61,1.16 0.46,1.21 0.31,1.27 0.15,1.29 -0.00,1.31 -0.00,1.31 L 0,1.31 Z"/></g><g transform="translate(254.28427124023438 299.197509765625) rotate(0 7.668121337890625 -2.190887451171875)" stroke="none"><path fill="#1e1e1e" d="M -0.14,-1.30 Q -0.14,-1.30 2.57,-2.69 5.28,-4.08 6.84,-4.21 8.39,-4.35 9.76,-4.34 11.13,-4.34 12.51,-4.62 13.89,-4.91 14.08,-5.01 14.26,-5.12 14.47,-5.16 14.68,-5.19 14.89,-5.16 15.10,-5.14 15.29,-5.04 15.48,-4.94 15.63,-4.79 15.78,-4.64 15.87,-4.45 15.97,-4.26 15.99,-4.05 16.02,-3.84 15.98,-3.63 15.94,-3.42 15.83,-3.24 15.73,-3.05 15.57,-2.91 15.41,-2.77 15.21,-2.69 15.02,-2.61 14.81,-2.59 14.59,-2.57 14.39,-2.63 14.18,-2.68 14.00,-2.79 13.83,-2.91 13.69,-3.08 13.56,-3.24 13.49,-3.44 13.42,-3.64 13.41,-3.85 13.41,-4.07 13.47,-4.27 13.54,-4.47 13.66,-4.64 13.79,-4.82 13.96,-4.94 14.13,-5.06 14.34,-5.12 14.54,-5.18 14.75,-5.18 14.96,-5.17 15.16,-5.10 15.36,-5.02 15.53,-4.89 15.69,-4.75 15.80,-4.57 15.92,-4.39 15.97,-4.19 16.02,-3.98 16.00,-3.77 15.98,-3.56 15.90,-3.36 15.81,-3.17 15.67,-3.01 15.53,-2.85 15.53,-2.85 15.53,-2.85 14.08,-0.89 12.63,1.05 10.82,1.80 9.01,2.55 7.53,2.68 6.05,2.82 3.09,2.06 0.14,1.30 -0.01,1.30 -0.17,1.30 -0.32,1.26 -0.47,1.22 -0.61,1.14 -0.75,1.07 -0.87,0.96 -0.99,0.86 -1.08,0.72 -1.16,0.59 -1.22,0.44 -1.27,0.30 -1.29,0.14 -1.31,-0.01 -1.29,-0.17 -1.27,-0.32 -1.21,-0.47 -1.15,-0.62 -1.06,-0.75 -0.97,-0.88 -0.85,-0.98 -0.73,-1.08 -0.59,-1.16 -0.45,-1.23 -0.29,-1.26 -0.14,-1.30 -0.14,-1.30 L -0.14,-1.30 Z"/></g><g transform="translate(390.1194763183594 86.68116760253906) rotate(0 6.024932861328125 -4.381782531738281)" stroke="none"><path fill="#1e1e1e" d="M -0.97,0.87 Q -0.97,0.87 -4.48,-1.63 -7.98,-4.15 -10.31,-5.49 -12.65,-6.83 -14.42,-6.71 -16.20,-6.60 -17.40,-6.67 -18.61,-6.74 -19.41,-6.00 -20.21,-5.27 -21.67,-4.12 -23.14,-2.98 -19.72,-3.67 -16.30,-4.36 -12.17,-4.74 -8.05,-5.11 -4.11,-5.87 -0.17,-6.63 2.63,-7.54 5.44,-8.45 8.60,-9.49 11.75,-10.53 14.24,-11.56 16.73,-12.59 18.69,-13.12 20.64,-13.65 23.38,-14.19 26.12,-14.72 27.62,-14.95 29.13,-15.18 30.85,-15.29 32.58,-15.40 34.34,-15.08 36.09,-14.77 37.54,-14.01 38.99,-13.24 40.01,-11.53 41.03,-9.82 40.64,-6.97 40.24,-4.12 38.85,-1.83 37.47,0.46 35.28,2.28 33.10,4.11 29.48,5.02 25.86,5.93 21.53,6.21 17.20,6.49 12.62,5.93 8.05,5.37 4.85,4.61 1.66,3.85 0.53,2.24 -0.60,0.63 -0.75,0.58 -0.90,0.54 -1.04,0.46 -1.18,0.38 -1.29,0.26 -1.40,0.15 -1.48,0.02 -1.57,-0.11 -1.62,-0.26 -1.66,-0.41 -1.68,-0.57 -1.69,-0.72 -1.66,-0.88 -1.63,-1.04 -1.57,-1.18 -1.50,-1.33 -1.41,-1.45 -1.31,-1.58 -1.19,-1.67 -1.06,-1.77 -0.92,-1.84 -0.77,-1.91 -0.62,-1.94 -0.46,-1.96 -0.31,-1.96 -0.15,-1.95 0.37,-1.43 0.90,-0.91 0.91,-0.70 0.92,-0.49 0.86,-0.28 0.80,-0.08 0.67,0.08 0.55,0.26 0.38,0.38 0.21,0.51 0.01,0.57 -0.19,0.64 -0.40,0.63 -0.61,0.63 -0.81,0.56 -1.01,0.48 -1.18,0.35 -1.35,0.22 -1.46,0.04 -1.58,-0.13 -1.63,-0.33 -1.68,-0.54 -1.67,-0.75 -1.65,-0.96 -1.57,-1.16 -1.49,-1.35 -1.35,-1.51 -1.20,-1.67 -1.02,-1.78 -0.84,-1.88 -0.63,-1.93 -0.42,-1.97 -0.21,-1.94 -0.00,-1.91 0.18,-1.82 0.37,-1.73 0.53,-1.58 0.68,-1.43 0.77,-1.24 0.87,-1.05 0.90,-0.84 0.93,-0.63 0.89,-0.42 0.85,-0.21 0.75,-0.02 0.65,0.15 0.49,0.29 0.33,0.44 0.14,0.52 -0.05,0.61 -0.26,0.63 -0.47,0.65 -0.68,0.60 -0.88,0.55 -1.06,0.43 -1.24,0.32 -1.38,0.15 -1.51,-0.00 -1.06,0.31 -0.60,0.63 -0.75,0.58 -0.90,0.54 -1.04,0.46 -1.18,0.38 -1.29,0.26 -1.40,0.15 -1.48,0.02 -1.57,-0.11 -1.62,-0.26 -1.66,-0.41 -1.68,-0.57 -1.69,-0.72 -1.66,-0.88 -1.63,-1.04 -1.57,-1.18 -1.50,-1.33 -1.41,-1.45 -1.31,-1.58 -1.19,-1.67 -1.06,-1.77 -0.92,-1.84 -0.77,-1.91 -0.62,-1.94 -0.46,-1.96 -0.31,-1.96 -0.15,-1.95 1.43,-2.11 3.02,-2.26 5.97,-1.95 8.91,-1.63 12.85,-1.14 16.78,-0.65 20.63,-0.87 24.47,-1.09 26.75,-1.35 29.02,-1.61 30.33,-2.54 31.63,-3.47 32.54,-4.70 33.45,-5.93 34.29,-6.84 35.13,-7.74 34.03,-8.08 32.93,-8.42 31.55,-8.34 30.17,-8.27 28.81,-8.07 27.45,-7.86 24.93,-7.38 22.41,-6.91 20.89,-6.52 19.37,-6.14 16.64,-5.03 13.92,-3.92 10.73,-2.88 7.54,-1.85 4.32,-0.84 1.10,0.15 -3.21,0.94 -7.53,1.73 -12.47,2.03 -17.40,2.33 -22.09,1.04 -26.78,-0.25 -27.67,-2.22 -28.57,-4.20 -27.93,-5.90 -27.29,-7.60 -26.46,-8.32 -25.64,-9.04 -24.56,-9.83 -23.49,-10.62 -21.25,-11.75 -19.01,-12.88 -17.51,-12.89 -16.01,-12.90 -12.90,-12.63 -9.80,-12.37 -6.57,-10.40 -3.35,-8.44 -1.18,-4.66 0.97,-0.87 1.06,-0.74 1.15,-0.61 1.21,-0.47 1.27,-0.32 1.29,-0.16 1.31,-0.01 1.29,0.14 1.27,0.30 1.22,0.45 1.16,0.60 1.07,0.73 0.98,0.86 0.87,0.96 0.75,1.07 0.61,1.14 0.47,1.22 0.32,1.26 0.16,1.30 0.01,1.30 -0.14,1.30 -0.30,1.26 -0.45,1.23 -0.59,1.15 -0.73,1.08 -0.85,0.98 -0.97,0.87 -0.97,0.87 L -0.97,0.87 Z"/></g><g transform="translate(323.2973327636719 234.56625366210938) rotate(0 13.145355224609375 18.622573852539062)" stroke="none"><path fill="#1e1e1e" d="M 1.20,0.53 Q 1.20,0.53 0.63,3.66 0.07,6.79 -0.31,9.57 -0.70,12.35 -0.91,14.22 -1.12,16.08 -1.18,18.68 -1.24,21.28 -0.93,24.46 -0.62,27.64 0.11,31.08 0.85,34.51 1.97,36.91 3.08,39.31 5.10,40.57 7.11,41.82 8.11,42.44 9.11,43.05 11.04,42.56 12.96,42.08 15.43,40.56 17.89,39.03 19.45,37.34 21.01,35.64 22.56,33.18 24.11,30.71 24.99,27.74 25.87,24.77 26.28,22.86 26.69,20.96 26.53,17.99 26.37,15.02 25.43,11.75 24.49,8.48 23.25,5.99 22.00,3.50 19.54,1.17 17.07,-1.14 14.33,-2.69 11.59,-4.25 9.89,-4.91 8.19,-5.56 6.37,-4.85 4.55,-4.13 3.76,-2.95 2.97,-1.78 1.95,0.82 0.94,3.44 0.13,7.88 -0.68,12.33 -0.73,12.53 -0.79,12.74 -0.90,12.92 -1.02,13.09 -1.19,13.22 -1.36,13.35 -1.56,13.42 -1.76,13.49 -1.97,13.50 -2.18,13.50 -2.39,13.43 -2.59,13.37 -2.76,13.24 -2.93,13.11 -3.05,12.94 -3.17,12.76 -3.23,12.56 -3.29,12.35 -3.28,12.14 -3.27,11.93 -3.19,11.73 -3.12,11.53 -2.98,11.37 -2.84,11.21 -2.66,11.10 -2.48,10.98 -2.27,10.94 -2.07,10.89 -1.86,10.91 -1.64,10.93 -1.45,11.02 -1.26,11.11 -1.10,11.25 -0.95,11.39 -0.85,11.58 -0.74,11.77 -0.71,11.98 -0.67,12.19 -0.70,12.40 -0.74,12.61 -0.83,12.80 -0.93,12.98 -1.08,13.13 -1.24,13.28 -1.43,13.37 -1.62,13.46 -1.83,13.49 -2.04,13.51 -2.25,13.47 -2.46,13.42 -2.64,13.32 -2.83,13.21 -2.96,13.05 -3.10,12.89 -3.18,12.69 -3.26,12.49 -3.28,12.28 -3.29,12.07 -3.29,12.07 -3.29,12.07 -3.19,7.28 -3.09,2.48 -2.59,-1.25 -2.09,-5.00 -0.82,-6.93 0.45,-8.87 2.97,-10.63 5.49,-12.39 8.08,-12.13 10.67,-11.88 12.84,-11.00 15.02,-10.12 18.42,-8.06 21.83,-6.00 24.93,-2.79 28.04,0.42 29.53,3.55 31.03,6.67 32.08,10.70 33.13,14.73 33.22,18.55 33.30,22.36 32.81,24.58 32.31,26.80 31.06,30.56 29.81,34.32 27.83,37.32 25.85,40.32 23.53,42.59 21.22,44.86 17.55,46.75 13.87,48.63 10.25,48.74 6.62,48.86 4.93,47.93 3.24,46.99 0.40,44.60 -2.43,42.22 -3.84,39.01 -5.24,35.80 -6.00,31.97 -6.75,28.15 -6.99,24.61 -7.23,21.07 -7.10,18.24 -6.96,15.40 -6.71,13.38 -6.47,11.35 -5.79,7.94 -5.11,4.53 -3.15,2.00 -1.20,-0.53 -1.11,-0.66 -1.03,-0.80 -0.92,-0.91 -0.81,-1.03 -0.67,-1.11 -0.54,-1.19 -0.39,-1.24 -0.24,-1.29 -0.08,-1.30 0.07,-1.31 0.22,-1.28 0.38,-1.25 0.52,-1.19 0.67,-1.12 0.79,-1.02 0.92,-0.93 1.02,-0.80 1.12,-0.68 1.18,-0.54 1.25,-0.39 1.28,-0.24 1.31,-0.08 1.30,0.07 1.29,0.23 1.24,0.38 1.20,0.53 1.20,0.53 L 1.20,0.53 Z"/></g></svg>