<svg version="1.1" xmlns="http://www.w3.org/2000/svg" viewBox="0 0 641.1173706054688 461.4644012451172" width="641.1173706054688" height="461.4644012451172" class="excalidraw-svg">
  <!-- svg-source:excalidraw -->
  
  <defs>
    <style class="style-fonts">
      @font-face {
        font-family: "Virgil";
        src: url("https://excalidraw.com/Virgil.woff2");
      }
      @font-face {
        font-family: "Cascadia";
        src: url("https://excalidraw.com/Cascadia.woff2");
      }
      @font-face {
        font-family: "Assistant";
        src: url("https://excalidraw.com/Assistant-Regular.woff2");
      }
    </style>
    
  </defs>
  <rect x="0" y="0" width="641.1173706054688" height="461.4644012451172" fill="#ffffff"/><g transform="translate(37.3861083984375 46.149688720703125) rotate(0 6.02496337890625 32.315635681152344)" stroke="none"><path fill="#1e1e1e" d="M 1.27,0.29 Q 1.27,0.29 1.24,4.59 1.20,8.89 1.12,10.81 1.03,12.73 1.91,13.81 2.78,14.89 5.68,13.77 8.59,12.66 10.10,11.30 11.61,9.94 12.02,8.78 12.44,7.62 13.03,6.08 13.61,4.54 13.56,3.56 13.50,2.58 13.65,2.21 13.80,1.84 14.04,1.51 14.28,1.19 14.58,0.93 14.89,0.67 15.25,0.49 15.61,0.31 16.00,0.22 16.39,0.13 16.79,0.14 17.20,0.15 17.58,0.26 17.97,0.36 18.32,0.56 18.67,0.75 18.97,1.02 19.26,1.30 19.49,1.63 19.71,1.97 19.84,2.35 19.97,2.73 20.01,3.12 20.05,3.52 20.00,3.92 19.94,4.32 20.34,6.98 20.74,9.64 21.09,12.01 21.44,14.39 22.21,17.87 22.97,21.34 23.94,26.04 24.91,30.73 25.34,33.78 25.77,36.82 25.96,40.42 26.15,44.02 26.22,47.43 26.30,50.84 25.65,54.26 25.00,57.67 23.04,60.66 21.08,63.65 16.83,65.17 12.58,66.70 8.58,66.50 4.57,66.30 -0.09,63.74 -4.76,61.17 -7.53,57.33 -10.29,53.48 -8.65,48.46 -7.01,43.43 -6.62,41.57 -6.23,39.72 -6.16,39.52 -6.08,39.32 -5.94,39.16 -5.81,38.99 -5.63,38.88 -5.45,38.77 -5.24,38.72 -5.03,38.67 -4.82,38.69 -4.61,38.72 -4.42,38.80 -4.22,38.89 -4.07,39.03 -3.91,39.18 -3.81,39.36 -3.71,39.55 -3.67,39.76 -3.63,39.97 -3.67,40.18 -3.70,40.39 -3.80,40.58 -3.89,40.77 -4.05,40.92 -4.20,41.06 -4.39,41.15 -4.58,41.25 -4.79,41.27 -5.00,41.30 -5.21,41.25 -5.42,41.21 -5.60,41.10 -5.79,41.00 -5.93,40.83 -6.06,40.67 -6.15,40.48 -6.23,40.28 -6.24,40.07 -6.25,39.86 -6.20,39.65 -6.15,39.45 -6.03,39.27 -5.91,39.09 -5.74,38.96 -5.58,38.83 -5.38,38.76 -5.17,38.69 -4.96,38.69 -4.75,38.69 -4.55,38.75 -4.35,38.82 -4.17,38.94 -4.00,39.07 -3.88,39.25 -3.76,39.42 -3.70,39.62 -3.64,39.83 -3.65,40.04 -3.66,40.25 -3.66,40.25 -3.66,40.25 -4.05,42.11 -4.43,43.96 -4.61,47.68 -4.78,51.39 -2.93,53.28 -1.07,55.17 2.15,57.20 5.38,59.24 8.11,59.51 10.84,59.77 13.54,59.40 16.25,59.04 17.32,57.59 18.38,56.13 18.93,53.55 19.48,50.96 19.41,47.66 19.34,44.36 19.18,41.06 19.02,37.75 18.63,34.93 18.24,32.10 17.29,27.44 16.33,22.78 15.54,19.06 14.74,15.33 14.38,12.63 14.01,9.93 13.97,8.00 13.93,6.06 13.72,4.32 13.50,2.58 13.65,2.21 13.80,1.84 14.04,1.51 14.28,1.19 14.58,0.93 14.89,0.67 15.25,0.49 15.61,0.31 16.00,0.22 16.39,0.13 16.79,0.14 17.20,0.15 17.58,0.26 17.97,0.36 18.32,0.56 18.67,0.75 18.97,1.02 19.26,1.30 19.48,1.63 19.71,1.97 19.84,2.35 19.97,2.72 20.01,3.12 20.05,3.52 20.00,3.92 19.94,4.32 19.53,3.05 19.13,1.79 19.33,4.32 19.54,6.86 18.84,8.59 18.14,10.32 17.01,12.41 15.89,14.49 13.78,16.33 11.67,18.17 8.03,19.77 4.38,21.38 1.18,20.07 -2.02,18.77 -3.59,15.94 -5.16,13.12 -5.07,10.30 -4.98,7.48 -3.13,3.59 -1.27,-0.29 -1.22,-0.44 -1.17,-0.59 -1.08,-0.72 -0.99,-0.85 -0.87,-0.96 -0.76,-1.06 -0.62,-1.14 -0.48,-1.22 -0.33,-1.26 -0.17,-1.30 -0.01,-1.30 0.13,-1.30 0.29,-1.27 0.44,-1.23 0.58,-1.16 0.72,-1.09 0.85,-0.98 0.97,-0.88 1.06,-0.75 1.15,-0.62 1.21,-0.48 1.27,-0.33 1.29,-0.17 1.31,-0.01 1.29,0.13 1.27,0.29 1.27,0.29 L 1.27,0.29 Z"/></g><g transform="translate(76.8221435546875 46.149688720703125) rotate(0 9.8590087890625 0.5477218627929688)" stroke="none"><path fill="#1e1e1e" d="M 0,-1.31 Q 0,-1.31 2.51,-2.37 5.03,-3.43 6.73,-3.43 8.44,-3.43 10.42,-3.41 12.40,-3.39 13.88,-3.24 15.37,-3.09 17.31,-1.73 19.24,-0.37 19.44,-0.29 19.63,-0.20 19.79,-0.06 19.95,0.07 20.05,0.26 20.16,0.44 20.20,0.65 20.24,0.86 20.21,1.07 20.18,1.28 20.08,1.47 19.99,1.66 19.84,1.81 19.69,1.96 19.50,2.05 19.31,2.15 19.10,2.18 18.89,2.21 18.68,2.16 18.47,2.12 18.28,2.02 18.10,1.91 17.96,1.76 17.82,1.60 17.73,1.40 17.65,1.21 17.63,0.99 17.62,0.78 17.67,0.58 17.72,0.37 17.83,0.19 17.95,0.01 18.11,-0.11 18.28,-0.24 18.48,-0.31 18.68,-0.39 18.89,-0.39 19.10,-0.40 19.31,-0.34 19.51,-0.27 19.68,-0.15 19.85,-0.02 19.98,0.14 20.10,0.31 20.16,0.51 20.23,0.72 20.22,0.93 20.21,1.14 20.14,1.34 20.07,1.54 19.93,1.71 19.80,1.87 19.62,1.99 19.44,2.10 19.23,2.15 19.03,2.20 18.82,2.18 18.60,2.17 18.60,2.17 18.60,2.17 16.96,2.63 15.32,3.09 13.86,3.24 12.40,3.39 10.42,3.41 8.44,3.43 6.73,3.43 5.03,3.43 2.51,2.37 0,1.31 -0.15,1.29 -0.31,1.27 -0.46,1.21 -0.61,1.16 -0.74,1.07 -0.87,0.98 -0.97,0.86 -1.08,0.74 -1.15,0.60 -1.22,0.46 -1.26,0.31 -1.30,0.15 -1.30,-0.00 -1.30,-0.15 -1.26,-0.31 -1.22,-0.46 -1.15,-0.60 -1.08,-0.74 -0.97,-0.86 -0.87,-0.98 -0.74,-1.07 -0.61,-1.16 -0.46,-1.21 -0.31,-1.27 -0.15,-1.29 0.00,-1.31 0.00,-1.31 L 0,-1.31 Z"/></g><g transform="translate(79.01303100585938 56.008697509765625) rotate(0 12.597625732421875 -0.5477218627929688)" stroke="none"><path fill="#1e1e1e" d="M -0.11,-1.30 Q -0.11,-1.30 3.24,-2.69 6.61,-4.08 8.76,-4.22 10.91,-4.35 13.13,-4.31 15.35,-4.26 19.38,-3.33 23.42,-2.39 23.63,-2.36 23.84,-2.32 24.03,-2.23 24.21,-2.13 24.36,-1.97 24.51,-1.82 24.60,-1.63 24.69,-1.44 24.72,-1.23 24.74,-1.02 24.70,-0.81 24.65,-0.60 24.54,-0.42 24.44,-0.23 24.28,-0.09 24.11,0.03 23.92,0.11 23.72,0.19 23.51,0.21 23.30,0.22 23.09,0.17 22.89,0.11 22.71,-0.00 22.53,-0.11 22.40,-0.28 22.27,-0.45 22.20,-0.65 22.13,-0.85 22.13,-1.06 22.13,-1.28 22.20,-1.48 22.26,-1.68 22.39,-1.85 22.52,-2.02 22.69,-2.14 22.87,-2.26 23.07,-2.32 23.28,-2.38 23.49,-2.37 23.70,-2.36 23.90,-2.28 24.10,-2.21 24.26,-2.07 24.42,-1.93 24.53,-1.75 24.64,-1.57 24.69,-1.36 24.74,-1.16 24.72,-0.95 24.70,-0.73 24.61,-0.54 24.52,-0.35 24.38,-0.19 24.23,-0.04 24.04,0.05 23.86,0.16 23.65,0.19 23.44,0.23 23.44,0.23 23.44,0.23 19.48,1.23 15.52,2.24 13.43,2.40 11.35,2.56 9.29,2.69 7.24,2.82 3.68,2.06 0.11,1.30 -0.03,1.30 -0.19,1.29 -0.35,1.25 -0.50,1.21 -0.64,1.13 -0.77,1.05 -0.89,0.94 -1.00,0.84 -1.09,0.70 -1.18,0.57 -1.23,0.42 -1.28,0.27 -1.29,0.11 -1.31,-0.03 -1.28,-0.19 -1.26,-0.35 -1.20,-0.49 -1.14,-0.64 -1.05,-0.77 -0.95,-0.90 -0.83,-1.00 -0.71,-1.10 -0.57,-1.17 -0.42,-1.24 -0.27,-1.27 -0.11,-1.30 -0.11,-1.30 L -0.11,-1.30 Z"/></g><g transform="translate(146.9306640625 12.190887451171875) rotate(0 1.643157958984375 27.93384552001953)" stroke="none"><path fill="#1e1e1e" d="M 1.30,-0.14 Q 1.30,-0.14 2.42,2.59 3.55,5.34 3.71,7.89 3.87,10.43 4.27,16.51 4.67,22.58 5.09,29.25 5.50,35.92 5.60,39.74 5.70,43.55 5.12,48.59 4.54,53.63 4.51,53.84 4.48,54.05 4.39,54.24 4.29,54.43 4.14,54.58 3.99,54.73 3.80,54.83 3.61,54.92 3.40,54.95 3.19,54.98 2.98,54.94 2.77,54.90 2.59,54.79 2.40,54.69 2.26,54.53 2.12,54.37 2.04,54.17 1.95,53.98 1.94,53.77 1.92,53.55 1.97,53.35 2.02,53.14 2.14,52.96 2.25,52.79 2.42,52.65 2.58,52.52 2.78,52.45 2.98,52.37 3.20,52.37 3.41,52.36 3.61,52.43 3.81,52.49 3.99,52.61 4.16,52.74 4.28,52.91 4.41,53.08 4.47,53.29 4.53,53.49 4.52,53.70 4.52,53.92 4.44,54.12 4.37,54.31 4.24,54.48 4.10,54.65 3.92,54.76 3.74,54.87 3.54,54.92 3.33,54.97 3.12,54.96 2.91,54.94 2.71,54.85 2.52,54.77 2.36,54.63 2.20,54.48 2.10,54.30 1.99,54.11 1.95,53.91 1.91,53.70 1.91,53.70 1.91,53.70 1.09,48.77 0.27,43.84 -0.02,40.09 -0.32,36.33 -0.86,29.64 -1.39,22.95 -1.73,16.85 -2.08,10.75 -2.18,8.37 -2.29,5.99 -1.79,3.06 -1.30,0.14 -1.30,-0.01 -1.30,-0.17 -1.26,-0.32 -1.22,-0.47 -1.14,-0.61 -1.07,-0.75 -0.96,-0.87 -0.86,-0.99 -0.72,-1.08 -0.59,-1.16 -0.44,-1.22 -0.30,-1.27 -0.14,-1.29 0.01,-1.31 0.17,-1.29 0.32,-1.27 0.47,-1.21 0.62,-1.15 0.75,-1.06 0.88,-0.97 0.98,-0.85 1.08,-0.73 1.16,-0.59 1.23,-0.45 1.26,-0.29 1.30,-0.14 1.30,-0.14 L 1.30,-0.14 Z"/></g><g transform="translate(156.78961181640625 48.340576171875) rotate(0 6.57269287109375 7.120399475097656)" stroke="none"><path fill="#1e1e1e" d="M 1.30,-0.14 Q 1.30,-0.14 2.31,2.61 3.32,5.36 3.47,7.58 3.62,9.79 3.43,11.59 3.24,13.38 3.22,13.04 3.21,12.71 3.18,13.04 3.16,13.37 3.05,13.69 2.95,14.01 2.77,14.30 2.59,14.58 2.35,14.82 2.11,15.05 1.82,15.22 1.53,15.39 1.21,15.48 0.89,15.58 0.55,15.60 0.22,15.61 -0.10,15.55 -0.43,15.48 -0.74,15.34 -1.04,15.20 -1.30,14.99 -1.56,14.78 -1.77,14.51 -1.97,14.24 -2.10,13.93 -2.24,13.62 -2.29,13.29 -2.35,12.96 -2.29,9.87 -2.24,6.79 -1.28,4.71 -0.32,2.63 2.29,1.45 4.90,0.26 7.29,1.34 9.67,2.41 11.09,4.61 12.50,6.81 12.96,8.05 13.43,9.29 13.79,9.59 14.15,9.88 14.19,10.04 14.23,10.19 14.23,10.35 14.23,10.51 14.20,10.66 14.16,10.82 14.09,10.96 14.01,11.10 13.91,11.22 13.81,11.34 13.68,11.43 13.55,11.52 13.40,11.58 13.25,11.63 13.10,11.65 12.94,11.67 12.78,11.66 12.62,11.64 12.48,11.58 12.33,11.53 12.20,11.44 12.06,11.35 11.96,11.23 11.85,11.12 11.78,10.98 11.70,10.84 11.82,10.16 11.94,9.49 12.11,9.36 12.27,9.22 12.47,9.15 12.67,9.07 12.88,9.07 13.10,9.06 13.30,9.12 13.50,9.18 13.68,9.30 13.85,9.43 13.97,9.60 14.10,9.77 14.16,9.97 14.23,10.17 14.22,10.39 14.22,10.60 14.15,10.80 14.07,11.00 13.94,11.17 13.81,11.33 13.63,11.45 13.45,11.56 13.25,11.62 13.04,11.67 12.83,11.65 12.62,11.64 12.42,11.55 12.23,11.47 12.07,11.33 11.91,11.19 11.80,11.01 11.70,10.82 11.66,10.61 11.61,10.40 11.64,10.19 11.67,9.98 11.76,9.79 11.85,9.60 12.00,9.45 12.15,9.30 12.34,9.20 12.53,9.11 12.74,9.08 12.95,9.05 13.16,9.09 13.37,9.12 13.56,9.23 13.74,9.33 13.89,9.49 14.03,9.65 14.11,9.84 14.20,10.04 14.22,10.25 14.24,10.46 14.19,10.66 14.14,10.87 14.14,10.38 14.15,9.88 14.19,10.04 14.23,10.19 14.23,10.35 14.23,10.51 14.20,10.66 14.16,10.82 14.09,10.96 14.01,11.10 13.91,11.22 13.81,11.34 13.68,11.43 13.55,11.52 13.40,11.58 13.25,11.63 13.10,11.65 12.94,11.67 12.78,11.66 12.62,11.64 12.48,11.58 12.33,11.53 12.20,11.44 12.06,11.35 11.96,11.23 11.85,11.12 11.78,10.98 11.70,10.84 9.15,10.47 6.61,10.11 5.13,8.90 3.66,7.70 3.43,10.20 3.21,12.71 3.18,13.04 3.16,13.37 3.05,13.69 2.95,14.01 2.77,14.30 2.59,14.58 2.35,14.82 2.11,15.05 1.82,15.22 1.53,15.39 1.21,15.48 0.89,15.58 0.55,15.60 0.22,15.61 -0.10,15.55 -0.43,15.48 -0.74,15.34 -1.04,15.20 -1.30,14.99 -1.56,14.78 -1.77,14.51 -1.97,14.24 -2.10,13.93 -2.24,13.62 -2.29,13.29 -2.35,12.96 -2.09,11.55 -1.82,10.13 -1.94,8.05 -2.06,5.96 -1.68,3.05 -1.30,0.14 -1.30,-0.01 -1.30,-0.17 -1.26,-0.32 -1.22,-0.47 -1.14,-0.61 -1.07,-0.75 -0.96,-0.87 -0.86,-0.99 -0.72,-1.08 -0.59,-1.16 -0.44,-1.22 -0.30,-1.27 -0.14,-1.29 0.01,-1.31 0.17,-1.29 0.32,-1.27 0.47,-1.21 0.62,-1.15 0.75,-1.06 0.88,-0.97 0.98,-0.85 1.08,-0.73 1.16,-0.59 1.23,-0.45 1.26,-0.29 1.30,-0.14 1.30,-0.14 L 1.30,-0.14 Z"/></g><g transform="translate(189.65301513671875 10) rotate(0 -3.834075927734375 27.93384552001953)" stroke="none"><path fill="#1e1e1e" d="M 1.17,0.58 Q 1.17,0.58 1.10,2.90 1.04,5.22 -0.12,10.14 -1.28,15.05 -2.13,20.27 -2.98,25.48 -3.35,29.83 -3.72,34.18 -4.10,38.51 -4.49,42.85 -4.75,46.47 -5.00,50.10 -4.76,51.70 -4.53,53.30 -4.53,53.51 -4.53,53.73 -4.60,53.93 -4.67,54.13 -4.81,54.29 -4.94,54.46 -5.11,54.58 -5.29,54.69 -5.50,54.75 -5.70,54.80 -5.91,54.79 -6.13,54.77 -6.32,54.69 -6.52,54.61 -6.68,54.47 -6.84,54.33 -6.95,54.15 -7.05,53.96 -7.09,53.75 -7.14,53.55 -7.11,53.33 -7.09,53.12 -6.99,52.93 -6.90,52.74 -6.75,52.59 -6.60,52.44 -6.42,52.34 -6.23,52.24 -6.02,52.21 -5.81,52.18 -5.60,52.22 -5.39,52.26 -5.20,52.36 -5.02,52.46 -4.87,52.62 -4.73,52.77 -4.64,52.97 -4.55,53.16 -4.53,53.37 -4.51,53.58 -4.56,53.79 -4.61,54.00 -4.72,54.18 -4.84,54.36 -5.00,54.49 -5.16,54.63 -5.36,54.70 -5.56,54.78 -5.77,54.79 -5.99,54.80 -6.19,54.74 -6.39,54.68 -6.57,54.56 -6.74,54.43 -6.87,54.26 -6.99,54.09 -7.06,53.89 -7.12,53.69 -7.12,53.69 -7.12,53.69 -7.36,52.08 -7.60,50.48 -8.98,46.57 -10.37,42.65 -10.43,38.13 -10.49,33.61 -10.11,28.99 -9.72,24.37 -8.80,18.86 -7.87,13.35 -6.34,7.84 -4.82,2.33 -2.99,0.87 -1.17,-0.58 -1.08,-0.71 -0.99,-0.85 -0.88,-0.95 -0.76,-1.06 -0.62,-1.14 -0.48,-1.21 -0.33,-1.25 -0.18,-1.30 -0.02,-1.30 0.13,-1.30 0.28,-1.27 0.44,-1.23 0.58,-1.16 0.72,-1.09 0.84,-0.99 0.96,-0.88 1.05,-0.76 1.15,-0.63 1.20,-0.48 1.26,-0.33 1.29,-0.18 1.31,-0.02 1.29,0.13 1.28,0.28 1.22,0.43 1.17,0.58 1.17,0.58 L 1.17,0.58 Z"/></g><g transform="translate(197.32110595703125 51.62690734863281) rotate(0 7.668121337890625 4.3817901611328125)" stroke="none"><path fill="#1e1e1e" d="M -0.36,-1.26 Q -0.36,-1.26 1.61,-2.77 3.58,-4.28 6.22,-4.32 8.87,-4.36 10.32,-4.26 11.78,-4.16 13.78,-2.91 15.79,-1.65 16.72,-0.00 17.65,1.64 17.60,3.94 17.55,6.23 15.68,8.56 13.80,10.89 11.25,11.14 8.69,11.40 6.77,9.79 4.85,8.19 3.10,6.01 1.35,3.84 1.25,3.65 1.15,3.47 1.11,3.26 1.07,3.05 1.10,2.84 1.13,2.63 1.23,2.44 1.33,2.25 1.48,2.10 1.63,1.95 1.82,1.86 2.01,1.77 2.22,1.74 2.43,1.71 2.64,1.75 2.85,1.80 3.03,1.90 3.22,2.01 3.36,2.17 3.50,2.33 3.58,2.52 3.66,2.72 3.68,2.93 3.69,3.14 3.64,3.35 3.59,3.55 3.47,3.73 3.36,3.91 3.19,4.04 3.02,4.17 2.82,4.24 2.62,4.32 2.41,4.32 2.20,4.32 1.99,4.26 1.79,4.20 1.62,4.07 1.45,3.94 1.33,3.77 1.20,3.60 1.14,3.39 1.08,3.19 1.09,2.98 1.10,2.77 1.17,2.57 1.25,2.37 1.38,2.20 1.52,2.04 1.70,1.93 1.88,1.81 2.08,1.76 2.29,1.71 2.50,1.73 2.71,1.75 2.91,1.84 3.10,1.92 3.26,2.07 3.42,2.21 3.42,2.21 3.42,2.21 4.90,4.14 6.39,6.06 8.07,6.27 9.76,6.47 10.60,4.84 11.44,3.21 10.09,2.62 8.73,2.03 6.98,1.90 5.23,1.76 2.79,1.51 0.36,1.26 0.20,1.28 0.04,1.31 -0.10,1.29 -0.26,1.28 -0.41,1.23 -0.56,1.18 -0.70,1.09 -0.83,1.01 -0.94,0.89 -1.05,0.78 -1.13,0.64 -1.21,0.51 -1.25,0.35 -1.29,0.20 -1.30,0.04 -1.30,-0.11 -1.27,-0.26 -1.24,-0.42 -1.17,-0.56 -1.10,-0.70 -1.00,-0.82 -0.90,-0.95 -0.77,-1.04 -0.65,-1.13 -0.50,-1.20 -0.36,-1.26 -0.36,-1.26 L -0.36,-1.26 Z"/></g><g transform="translate(222.516357421875 46.149688720703125) rotate(0 5.477203369140625 7.668113708496094)" stroke="none"><path fill="#1e1e1e" d="M 1.30,0.10 Q 1.30,0.10 2.01,3.96 2.72,7.82 2.88,9.37 3.03,10.92 6.34,10.11 9.64,9.30 9.85,9.26 10.06,9.23 10.27,9.26 10.48,9.29 10.67,9.39 10.86,9.49 11.01,9.64 11.15,9.79 11.25,9.98 11.34,10.18 11.36,10.39 11.39,10.60 11.34,10.81 11.30,11.01 11.19,11.20 11.09,11.38 10.92,11.52 10.76,11.66 10.57,11.74 10.37,11.82 10.16,11.83 9.95,11.85 9.74,11.79 9.54,11.74 9.36,11.62 9.18,11.50 9.05,11.34 8.92,11.17 8.85,10.97 8.78,10.77 8.78,10.55 8.78,10.34 8.84,10.14 8.91,9.94 9.04,9.77 9.16,9.60 9.34,9.48 9.51,9.36 9.72,9.30 9.92,9.24 10.13,9.25 10.34,9.26 10.54,9.33 10.74,9.41 10.90,9.54 11.07,9.68 11.18,9.86 11.29,10.04 11.34,10.25 11.39,10.46 11.37,10.67 11.34,10.88 11.26,11.07 11.17,11.27 11.03,11.42 10.88,11.58 10.69,11.68 10.51,11.78 10.51,11.78 10.51,11.78 5.94,14.10 1.37,16.42 -1.09,14.14 -3.56,11.87 -3.77,9.58 -3.98,7.28 -2.64,3.58 -1.30,-0.10 -1.27,-0.26 -1.24,-0.41 -1.17,-0.56 -1.10,-0.70 -1.00,-0.82 -0.90,-0.94 -0.78,-1.04 -0.65,-1.13 -0.50,-1.20 -0.36,-1.26 -0.20,-1.28 -0.04,-1.31 0.10,-1.29 0.26,-1.28 0.41,-1.23 0.56,-1.18 0.69,-1.10 0.83,-1.01 0.94,-0.90 1.05,-0.78 1.13,-0.64 1.20,-0.51 1.25,-0.35 1.29,-0.20 1.30,-0.04 1.30,0.10 1.30,0.10 L 1.30,0.10 Z"/></g><g transform="translate(230.1844482421875 26.431671142578125) rotate(0 -1.095428466796875 -1.0954360961914062)" stroke="none"><path fill="#1e1e1e" d="M -1.21,0.48 Q -1.21,0.48 -2.41,-0.86 -3.60,-2.21 -3.68,-2.50 -3.76,-2.79 -3.76,-3.10 -3.77,-3.40 -3.70,-3.70 -3.63,-4.00 -3.50,-4.27 -3.36,-4.54 -3.16,-4.77 -2.96,-5.00 -2.72,-5.18 -2.47,-5.36 -2.19,-5.47 -1.90,-5.59 -1.60,-5.63 -1.30,-5.67 -1.00,-5.64 -0.69,-5.61 -0.41,-5.50 -0.12,-5.40 0.12,-5.23 0.38,-5.06 0.58,-4.84 0.79,-4.62 0.93,-4.35 1.08,-4.08 -0.16,-2.06 -1.42,-0.04 -1.30,-0.21 -1.18,-0.39 -1.01,-0.52 -0.85,-0.65 -0.65,-0.72 -0.44,-0.79 -0.23,-0.79 -0.02,-0.79 0.17,-0.72 0.37,-0.66 0.54,-0.53 0.71,-0.40 0.83,-0.23 0.96,-0.05 1.01,0.14 1.07,0.34 1.06,0.56 1.05,0.77 0.98,0.97 0.90,1.17 0.76,1.33 0.63,1.49 0.44,1.60 0.26,1.71 0.06,1.76 -0.14,1.81 -0.35,1.79 -0.56,1.77 -0.76,1.68 -0.95,1.59 -1.11,1.44 -1.26,1.30 -1.36,1.11 -1.46,0.93 -1.50,0.72 -1.54,0.51 -1.50,0.30 -1.47,0.09 -1.37,-0.09 -1.27,-0.28 -1.12,-0.43 -0.97,-0.57 -0.78,-0.67 -0.58,-0.76 -0.37,-0.78 -0.16,-0.80 0.04,-0.76 0.24,-0.72 0.43,-0.61 0.61,-0.50 0.75,-0.34 0.89,-0.18 0.97,0.01 1.05,0.21 1.06,0.42 1.07,0.63 1.02,0.83 0.96,1.04 0.96,1.04 0.96,1.04 -1.31,-0.58 -3.60,-2.21 -3.68,-2.50 -3.76,-2.79 -3.76,-3.10 -3.77,-3.40 -3.70,-3.70 -3.63,-4.00 -3.50,-4.27 -3.36,-4.54 -3.16,-4.77 -2.96,-5.00 -2.72,-5.18 -2.47,-5.36 -2.19,-5.47 -1.90,-5.59 -1.60,-5.63 -1.30,-5.67 -1.00,-5.64 -0.69,-5.61 -0.41,-5.50 -0.12,-5.40 0.12,-5.23 0.38,-5.06 0.58,-4.84 0.79,-4.62 0.93,-4.35 1.08,-4.08 1.15,-2.28 1.21,-0.48 1.26,-0.33 1.30,-0.18 1.30,-0.02 1.30,0.13 1.27,0.28 1.23,0.44 1.16,0.58 1.09,0.72 0.99,0.84 0.88,0.96 0.75,1.05 0.63,1.15 0.48,1.21 0.33,1.26 0.18,1.29 0.02,1.31 -0.13,1.29 -0.29,1.28 -0.44,1.22 -0.58,1.17 -0.72,1.08 -0.85,0.99 -0.96,0.88 -1.06,0.76 -1.14,0.62 -1.21,0.48 -1.21,0.48 L -1.21,0.48 Z"/></g><g transform="translate(240.04345703125 46.149688720703125) rotate(0 8.763580322265625 8.763557434082031)" stroke="none"><path fill="#1e1e1e" d="M 1.31,0 Q 1.31,0 2.26,3.46 3.21,6.92 3.21,8.71 3.21,10.50 3.22,10.94 3.23,11.39 3.18,11.77 3.13,12.16 3.00,12.53 2.86,12.89 2.64,13.21 2.41,13.53 2.12,13.79 1.83,14.05 1.49,14.23 1.14,14.41 0.76,14.50 0.38,14.60 -0.00,14.60 -0.38,14.60 -0.76,14.50 -1.14,14.41 -1.49,14.23 -1.83,14.05 -2.12,13.79 -2.41,13.53 -2.64,13.21 -2.86,12.89 -3.00,12.53 -3.13,12.16 -3.18,11.77 -3.23,11.39 -2.79,10.01 -2.34,8.63 -1.19,6.51 -0.04,4.39 2.07,2.44 4.18,0.49 6.25,-0.15 8.32,-0.80 10.15,-0.46 11.97,-0.12 13.79,1.75 15.60,3.62 16.42,6.66 17.23,9.69 17.67,12.70 18.11,15.71 18.17,15.91 18.23,16.12 18.22,16.33 18.21,16.54 18.14,16.74 18.06,16.94 17.92,17.10 17.79,17.26 17.61,17.38 17.43,17.49 17.22,17.53 17.01,17.58 16.80,17.56 16.59,17.54 16.40,17.45 16.20,17.37 16.05,17.22 15.89,17.08 15.79,16.89 15.69,16.70 15.65,16.49 15.61,16.29 15.65,16.08 15.68,15.87 15.78,15.68 15.87,15.49 16.03,15.34 16.18,15.19 16.37,15.10 16.56,15.01 16.77,14.98 16.99,14.96 17.19,15.00 17.40,15.05 17.58,15.15 17.77,15.26 17.91,15.42 18.05,15.58 18.13,15.78 18.21,15.98 18.22,16.19 18.23,16.40 18.18,16.61 18.13,16.81 18.01,16.99 17.89,17.17 17.72,17.30 17.55,17.43 17.35,17.50 17.15,17.57 16.94,17.57 16.73,17.57 16.53,17.50 16.32,17.44 16.15,17.31 15.98,17.18 15.86,17.01 15.74,16.84 15.74,16.84 15.74,16.84 13.49,14.17 11.23,11.51 10.56,9.63 9.89,7.74 9.07,6.84 8.26,5.94 6.93,6.86 5.61,7.78 4.42,9.58 3.23,11.39 3.18,11.77 3.13,12.16 3.00,12.53 2.86,12.89 2.64,13.21 2.41,13.53 2.12,13.79 1.83,14.05 1.49,14.23 1.14,14.41 0.76,14.50 0.38,14.60 0.00,14.60 -0.38,14.60 -0.76,14.50 -1.14,14.41 -1.49,14.23 -1.83,14.05 -2.12,13.79 -2.41,13.53 -2.64,13.21 -2.86,12.89 -3.00,12.53 -3.13,12.16 -3.18,11.77 -3.23,11.39 -3.22,10.94 -3.21,10.50 -3.21,8.71 -3.21,6.92 -2.26,3.46 -1.31,0 -1.29,-0.15 -1.27,-0.31 -1.21,-0.46 -1.16,-0.61 -1.07,-0.74 -0.98,-0.87 -0.86,-0.97 -0.74,-1.08 -0.60,-1.15 -0.46,-1.22 -0.31,-1.26 -0.15,-1.30 0.00,-1.30 0.15,-1.30 0.31,-1.26 0.46,-1.22 0.60,-1.15 0.74,-1.08 0.86,-0.97 0.98,-0.87 1.07,-0.74 1.16,-0.61 1.21,-0.46 1.27,-0.31 1.29,-0.15 1.31,0.00 1.31,0.00 L 1.31,0 Z"/></g><g transform="translate(274.00225830078125 47.24513244628906) rotate(0 10.40673828125 6.5726776123046875)" stroke="none"><path fill="#1e1e1e" d="M 0.55,-1.19 Q 0.55,-1.19 5.09,-0.27 9.64,0.63 12.16,2.18 14.69,3.73 16.50,5.80 18.32,7.87 19.63,9.70 20.94,11.53 21.08,11.69 21.22,11.85 21.29,12.05 21.37,12.25 21.38,12.46 21.39,12.67 21.34,12.88 21.28,13.08 21.16,13.26 21.04,13.43 20.87,13.56 20.70,13.69 20.50,13.76 20.30,13.82 20.09,13.82 19.87,13.82 19.67,13.76 19.47,13.69 19.30,13.56 19.13,13.43 19.02,13.25 18.90,13.08 18.84,12.87 18.78,12.67 18.80,12.46 18.81,12.24 18.89,12.05 18.97,11.85 19.10,11.69 19.24,11.53 19.42,11.42 19.61,11.31 19.81,11.26 20.02,11.22 20.23,11.24 20.44,11.26 20.64,11.35 20.83,11.44 20.98,11.59 21.14,11.73 21.24,11.92 21.33,12.11 21.37,12.32 21.40,12.53 21.37,12.74 21.33,12.95 21.23,13.14 21.13,13.32 20.98,13.47 20.82,13.62 20.63,13.70 20.44,13.79 20.23,13.82 20.02,13.84 19.81,13.79 19.60,13.75 19.42,13.64 19.24,13.53 19.24,13.53 19.24,13.53 17.29,12.58 15.33,11.62 13.25,10.59 11.16,9.55 8.94,8.24 6.73,6.92 3.09,4.05 -0.55,1.19 -0.68,1.10 -0.81,1.02 -0.93,0.91 -1.04,0.80 -1.12,0.66 -1.20,0.52 -1.24,0.37 -1.29,0.22 -1.30,0.06 -1.31,-0.09 -1.28,-0.24 -1.25,-0.40 -1.18,-0.54 -1.11,-0.69 -1.01,-0.81 -0.91,-0.93 -0.79,-1.03 -0.66,-1.13 -0.52,-1.19 -0.37,-1.25 -0.22,-1.28 -0.06,-1.31 0.09,-1.30 0.24,-1.28 0.39,-1.24 0.55,-1.19 0.55,-1.19 L 0.55,-1.19 Z"/></g><g transform="translate(289.3385009765625 48.340576171875) rotate(0 -4.92950439453125 3.8340606689453125)" stroke="none"><path fill="#1e1e1e" d="M 0.80,1.03 Q 0.80,1.03 -1.68,3.69 -4.17,6.34 -6.33,6.84 -8.49,7.34 -8.70,7.41 -8.90,7.48 -9.11,7.47 -9.32,7.47 -9.52,7.40 -9.72,7.33 -9.89,7.20 -10.06,7.07 -10.18,6.89 -10.30,6.72 -10.35,6.51 -10.40,6.30 -10.39,6.09 -10.38,5.88 -10.30,5.68 -10.22,5.49 -10.08,5.33 -9.94,5.17 -9.75,5.06 -9.57,4.95 -9.36,4.91 -9.15,4.86 -8.94,4.89 -8.73,4.92 -8.54,5.01 -8.35,5.10 -8.20,5.25 -8.04,5.39 -7.95,5.58 -7.85,5.77 -7.82,5.98 -7.78,6.19 -7.82,6.40 -7.86,6.61 -7.96,6.80 -8.06,6.98 -8.22,7.13 -8.37,7.27 -8.57,7.36 -8.76,7.45 -8.97,7.47 -9.18,7.49 -9.39,7.44 -9.60,7.39 -9.78,7.28 -9.96,7.17 -10.09,7.00 -10.23,6.84 -10.31,6.64 -10.38,6.44 -10.39,6.23 -10.40,6.02 -10.34,5.82 -10.28,5.61 -10.16,5.44 -10.04,5.26 -9.87,5.14 -9.70,5.01 -9.70,5.01 -9.70,5.01 -8.43,3.74 -7.16,2.47 -3.98,0.71 -0.80,-1.03 -0.67,-1.11 -0.53,-1.19 -0.38,-1.24 -0.23,-1.29 -0.07,-1.30 0.08,-1.31 0.23,-1.28 0.39,-1.25 0.53,-1.18 0.68,-1.12 0.80,-1.02 0.93,-0.92 1.02,-0.80 1.12,-0.67 1.19,-0.53 1.25,-0.38 1.28,-0.23 1.31,-0.07 1.30,0.08 1.29,0.24 1.24,0.39 1.19,0.54 1.11,0.67 1.03,0.81 0.91,0.92 0.80,1.03 0.80,1.03 L 0.80,1.03 Z"/></g><g transform="translate(312.34283447265625 11.095443725585938) rotate(0 2.7386474609375 26.838409423828125)" stroke="none"><path fill="#1e1e1e" d="M 1.27,-0.29 Q 1.27,-0.29 4.60,8.88 7.93,18.07 8.54,23.57 9.16,29.08 7.29,34.82 5.42,40.56 3.46,44.52 1.50,48.48 0.78,50.12 0.07,51.77 -0.04,51.95 -0.15,52.12 -0.32,52.26 -0.49,52.39 -0.69,52.46 -0.89,52.53 -1.10,52.54 -1.31,52.54 -1.51,52.48 -1.72,52.42 -1.89,52.29 -2.06,52.17 -2.18,51.99 -2.31,51.82 -2.37,51.62 -2.43,51.41 -2.42,51.20 -2.42,50.99 -2.34,50.79 -2.27,50.59 -2.14,50.43 -2.00,50.26 -1.82,50.15 -1.64,50.03 -1.44,49.98 -1.23,49.93 -1.02,49.95 -0.81,49.97 -0.61,50.05 -0.42,50.14 -0.26,50.28 -0.10,50.42 -0.00,50.61 0.10,50.80 0.14,51.00 0.17,51.21 0.14,51.42 0.12,51.63 0.02,51.82 -0.07,52.01 -0.22,52.16 -0.37,52.31 -0.56,52.41 -0.75,52.50 -0.96,52.53 -1.17,52.56 -1.38,52.51 -1.59,52.47 -1.77,52.37 -1.96,52.26 -2.10,52.10 -2.24,51.95 -2.32,51.75 -2.40,51.55 -2.42,51.34 -2.44,51.13 -2.38,50.92 -2.33,50.72 -2.33,50.72 -2.33,50.72 -1.62,49.08 -0.90,47.43 0.49,43.66 1.89,39.89 2.02,34.85 2.14,29.81 1.51,24.76 0.88,19.71 -0.19,10.00 -1.27,0.29 -1.29,0.14 -1.31,-0.01 -1.29,-0.17 -1.27,-0.33 -1.21,-0.47 -1.15,-0.62 -1.06,-0.75 -0.97,-0.88 -0.85,-0.98 -0.73,-1.09 -0.59,-1.16 -0.45,-1.23 -0.29,-1.26 -0.14,-1.30 0.01,-1.30 0.17,-1.30 0.32,-1.26 0.48,-1.22 0.62,-1.14 0.75,-1.07 0.87,-0.96 0.99,-0.85 1.08,-0.72 1.17,-0.59 1.22,-0.44 1.27,-0.29 1.27,-0.29 L 1.27,-0.29 Z"/></g><g transform="translate(26.431671142578125 234.5662384033203) rotate(0 7.120391845703125 30.124755859375)" stroke="none"><path fill="#1e1e1e" d="M 1.30,0.18 Q 1.30,0.18 1.86,2.44 2.43,4.71 4.10,6.13 5.77,7.55 7.62,7.49 9.47,7.44 10.82,5.79 12.16,4.14 12.71,2.49 13.25,0.84 13.52,-0.38 13.79,-1.61 13.61,-2.35 13.42,-3.09 13.56,-3.47 13.70,-3.85 13.93,-4.18 14.15,-4.51 14.45,-4.78 14.75,-5.05 15.11,-5.24 15.46,-5.42 15.85,-5.52 16.24,-5.62 16.64,-5.62 17.04,-5.63 17.43,-5.53 17.82,-5.44 18.18,-5.25 18.54,-5.07 18.84,-4.80 19.14,-4.54 19.37,-4.21 19.60,-3.88 19.75,-3.51 19.89,-3.13 19.94,-2.73 19.99,-2.33 19.95,-1.94 19.90,-1.54 19.94,1.19 19.97,3.93 19.99,7.83 20.01,11.74 20.63,17.30 21.25,22.86 21.53,26.96 21.80,31.06 21.92,35.36 22.03,39.66 22.08,44.01 22.13,48.36 21.49,51.82 20.85,55.28 19.75,58.01 18.66,60.73 15.96,62.77 13.27,64.80 8.68,64.77 4.09,64.74 0.69,60.85 -2.70,56.96 -1.77,50.35 -0.85,43.74 -0.67,41.21 -0.48,38.69 -0.43,38.48 -0.38,38.28 -0.27,38.10 -0.16,37.92 0.00,37.78 0.16,37.65 0.36,37.57 0.56,37.50 0.77,37.49 0.98,37.48 1.19,37.54 1.39,37.60 1.56,37.73 1.74,37.85 1.86,38.02 1.99,38.19 2.05,38.39 2.12,38.60 2.11,38.81 2.11,39.02 2.04,39.22 1.97,39.42 1.83,39.59 1.70,39.75 1.52,39.87 1.35,39.99 1.14,40.04 0.93,40.09 0.72,40.08 0.51,40.06 0.32,39.98 0.12,39.90 -0.03,39.76 -0.19,39.62 -0.30,39.43 -0.40,39.25 -0.44,39.04 -0.48,38.83 -0.46,38.62 -0.43,38.41 -0.34,38.22 -0.25,38.03 -0.10,37.88 0.04,37.72 0.23,37.63 0.42,37.53 0.63,37.50 0.84,37.47 1.05,37.51 1.26,37.55 1.45,37.65 1.63,37.75 1.78,37.91 1.92,38.07 2.00,38.26 2.09,38.46 2.11,38.67 2.13,38.88 2.13,38.88 2.13,38.88 1.94,41.41 1.76,43.93 1.81,49.21 1.87,54.49 3.83,56.35 5.80,58.20 7.91,58.35 10.02,58.49 11.23,57.97 12.44,57.46 13.12,55.66 13.80,53.87 14.38,51.14 14.96,48.41 14.91,44.13 14.87,39.85 14.76,35.69 14.65,31.53 14.39,27.59 14.13,23.64 13.49,17.69 12.86,11.73 12.89,7.81 12.92,3.88 12.94,2.05 12.97,0.22 13.19,-1.43 13.42,-3.09 13.56,-3.47 13.70,-3.85 13.93,-4.18 14.15,-4.51 14.45,-4.78 14.75,-5.05 15.11,-5.24 15.46,-5.42 15.85,-5.52 16.24,-5.62 16.64,-5.62 17.04,-5.63 17.43,-5.53 17.82,-5.44 18.18,-5.25 18.54,-5.07 18.84,-4.80 19.14,-4.54 19.37,-4.21 19.60,-3.88 19.75,-3.51 19.89,-3.13 19.94,-2.73 19.99,-2.33 19.95,-1.94 19.90,-1.54 20.03,-0.97 20.16,-0.41 19.69,1.42 19.22,3.27 18.03,5.89 16.83,8.51 14.08,10.97 11.34,13.44 8.59,13.84 5.84,14.24 3.96,13.47 2.08,12.71 -0.15,10.75 -2.39,8.79 -3.04,6.45 -3.69,4.10 -2.49,1.96 -1.30,-0.18 -1.25,-0.33 -1.21,-0.49 -1.14,-0.63 -1.06,-0.76 -0.95,-0.88 -0.84,-1.00 -0.71,-1.08 -0.58,-1.17 -0.43,-1.22 -0.28,-1.28 -0.12,-1.29 0.02,-1.31 0.18,-1.29 0.34,-1.26 0.48,-1.20 0.63,-1.14 0.76,-1.05 0.89,-0.96 0.99,-0.84 1.09,-0.72 1.16,-0.58 1.23,-0.43 1.27,-0.28 1.30,-0.13 1.30,0.02 1.30,0.18 1.30,0.18 L 1.30,0.18 Z"/></g><g transform="translate(63.67681884765625 190.7484588623047) rotate(0 1.643157958984375 12.049896240234375)" stroke="none"><path fill="#1e1e1e" d="M 1.26,-0.34 Q 1.26,-0.34 3.14,2.86 5.02,6.07 5.42,9.34 5.81,12.61 5.15,17.32 4.49,22.02 4.46,22.23 4.44,22.45 4.35,22.64 4.26,22.83 4.11,22.99 3.97,23.14 3.78,23.24 3.59,23.34 3.38,23.37 3.17,23.41 2.96,23.37 2.75,23.34 2.57,23.24 2.38,23.14 2.23,22.98 2.09,22.83 2.00,22.64 1.91,22.44 1.89,22.23 1.86,22.02 1.91,21.81 1.95,21.61 2.06,21.43 2.17,21.24 2.34,21.11 2.50,20.97 2.70,20.89 2.89,20.81 3.10,20.80 3.32,20.79 3.52,20.85 3.73,20.90 3.90,21.02 4.08,21.14 4.21,21.31 4.33,21.48 4.40,21.68 4.47,21.88 4.47,22.10 4.47,22.31 4.40,22.51 4.33,22.71 4.21,22.88 4.08,23.05 3.90,23.17 3.72,23.29 3.52,23.34 3.31,23.40 3.10,23.39 2.89,23.38 2.69,23.30 2.50,23.22 2.33,23.08 2.17,22.94 2.06,22.76 1.95,22.58 1.91,22.37 1.86,22.16 1.86,22.16 1.86,22.16 0.71,17.80 -0.42,13.43 -0.83,10.60 -1.24,7.78 -1.25,4.06 -1.26,0.34 -1.28,0.18 -1.31,0.03 -1.29,-0.12 -1.28,-0.28 -1.23,-0.43 -1.17,-0.58 -1.09,-0.71 -1.00,-0.84 -0.88,-0.95 -0.77,-1.06 -0.63,-1.13 -0.49,-1.21 -0.34,-1.25 -0.19,-1.29 -0.03,-1.30 0.12,-1.30 0.28,-1.27 0.43,-1.23 0.57,-1.16 0.71,-1.09 0.84,-0.99 0.96,-0.89 1.05,-0.76 1.14,-0.63 1.20,-0.49 1.26,-0.34 1.26,-0.34 L 1.26,-0.34 Z"/></g><g transform="translate(86.68115234375 231.27992248535156) rotate(0 9.8590087890625 -0.5477294921875)" stroke="none"><path fill="#1e1e1e" d="M -0.10,-1.30 Q -0.10,-1.30 3.92,-2.50 7.95,-3.69 12.76,-3.00 17.58,-2.32 17.79,-2.29 18.00,-2.27 18.19,-2.17 18.38,-2.08 18.53,-1.93 18.69,-1.79 18.78,-1.60 18.88,-1.41 18.91,-1.20 18.94,-0.99 18.91,-0.78 18.87,-0.57 18.77,-0.38 18.66,-0.20 18.51,-0.05 18.35,0.08 18.16,0.17 17.96,0.25 17.75,0.27 17.54,0.29 17.33,0.25 17.13,0.20 16.95,0.08 16.77,-0.02 16.63,-0.18 16.50,-0.35 16.42,-0.54 16.34,-0.74 16.34,-0.95 16.33,-1.17 16.39,-1.37 16.45,-1.57 16.57,-1.75 16.69,-1.92 16.86,-2.05 17.03,-2.18 17.23,-2.24 17.44,-2.31 17.65,-2.30 17.86,-2.30 18.06,-2.23 18.26,-2.16 18.43,-2.03 18.60,-1.90 18.71,-1.72 18.83,-1.54 18.88,-1.34 18.94,-1.13 18.92,-0.92 18.91,-0.71 18.83,-0.51 18.75,-0.31 18.61,-0.15 18.47,0.00 18.28,0.10 18.10,0.21 17.89,0.25 17.68,0.30 17.68,0.30 17.68,0.30 13.05,1.36 8.42,2.43 4.26,1.87 0.10,1.30 -0.05,1.30 -0.21,1.29 -0.36,1.25 -0.51,1.20 -0.65,1.12 -0.79,1.04 -0.90,0.93 -1.02,0.82 -1.10,0.69 -1.18,0.55 -1.23,0.40 -1.28,0.25 -1.29,0.09 -1.31,-0.05 -1.28,-0.21 -1.26,-0.37 -1.19,-0.51 -1.13,-0.66 -1.03,-0.78 -0.94,-0.91 -0.82,-1.01 -0.69,-1.11 -0.55,-1.18 -0.41,-1.24 -0.25,-1.27 -0.10,-1.30 -0.10,-1.30 L -0.10,-1.30 Z"/></g><g transform="translate(94.34927368164062 241.13893127441406) rotate(0 11.502166748046875 -1.6431732177734375)" stroke="none"><path fill="#1e1e1e" d="M -0.23,-1.29 Q -0.23,-1.29 3.04,-2.93 6.32,-4.57 8.52,-4.82 10.71,-5.07 13.00,-4.86 15.29,-4.65 18.36,-4.50 21.42,-4.35 21.63,-4.35 21.84,-4.35 22.04,-4.28 22.24,-4.22 22.41,-4.09 22.58,-3.96 22.70,-3.78 22.82,-3.61 22.88,-3.40 22.94,-3.20 22.93,-2.99 22.92,-2.77 22.84,-2.58 22.76,-2.38 22.62,-2.22 22.49,-2.05 22.30,-1.94 22.12,-1.83 21.92,-1.79 21.71,-1.74 21.50,-1.76 21.29,-1.79 21.09,-1.88 20.90,-1.96 20.74,-2.11 20.59,-2.26 20.49,-2.44 20.39,-2.63 20.35,-2.84 20.32,-3.05 20.35,-3.26 20.39,-3.47 20.49,-3.66 20.59,-3.84 20.74,-3.99 20.89,-4.14 21.09,-4.23 21.28,-4.32 21.49,-4.34 21.70,-4.36 21.91,-4.32 22.12,-4.27 22.30,-4.17 22.48,-4.06 22.62,-3.89 22.76,-3.73 22.84,-3.54 22.91,-3.34 22.93,-3.13 22.94,-2.91 22.88,-2.71 22.83,-2.50 22.71,-2.33 22.59,-2.15 22.42,-2.02 22.25,-1.89 22.05,-1.83 21.85,-1.76 21.85,-1.76 21.85,-1.76 18.71,-0.57 15.58,0.60 13.56,1.04 11.54,1.48 9.54,1.76 7.53,2.05 3.88,1.67 0.23,1.29 0.07,1.30 -0.08,1.31 -0.23,1.28 -0.39,1.25 -0.53,1.18 -0.68,1.12 -0.80,1.02 -0.92,0.92 -1.02,0.80 -1.12,0.67 -1.18,0.53 -1.25,0.38 -1.28,0.23 -1.31,0.07 -1.30,-0.08 -1.29,-0.23 -1.24,-0.38 -1.19,-0.54 -1.11,-0.67 -1.03,-0.81 -0.92,-0.92 -0.80,-1.03 -0.67,-1.11 -0.53,-1.19 -0.38,-1.24 -0.23,-1.29 -0.23,-1.29 L -0.23,-1.29 Z"/></g><g transform="translate(171.03045654296875 198.4165496826172) rotate(0 11.502166748046875 -20.265731811523438)" stroke="none"><path fill="#1e1e1e" d="M -1.12,-0.67 Q -1.12,-0.67 2.79,-9.03 6.70,-17.39 9.33,-21.70 11.95,-26.02 13.90,-30.23 15.85,-34.44 17.08,-36.70 18.30,-38.96 18.48,-39.25 18.66,-39.55 18.90,-39.88 19.13,-40.21 19.45,-40.47 19.76,-40.73 20.12,-40.92 20.49,-41.10 20.88,-41.19 21.28,-41.28 21.69,-41.27 22.10,-41.26 22.49,-41.15 22.89,-41.05 23.24,-40.85 23.60,-40.65 23.90,-40.38 24.20,-40.10 24.43,-39.76 24.65,-39.42 24.79,-39.03 24.92,-38.65 24.96,-38.24 25.00,-37.84 24.95,-37.43 24.89,-37.03 24.74,-36.65 24.58,-36.27 24.23,-33.47 23.87,-30.68 23.28,-27.08 22.68,-23.48 21.50,-19.23 20.33,-14.98 19.11,-11.20 17.89,-7.43 17.52,-5.84 17.15,-4.25 17.07,-4.05 16.99,-3.85 16.85,-3.69 16.71,-3.53 16.53,-3.42 16.35,-3.32 16.14,-3.27 15.93,-3.23 15.72,-3.25 15.51,-3.28 15.32,-3.37 15.13,-3.46 14.97,-3.61 14.82,-3.76 14.72,-3.95 14.62,-4.13 14.59,-4.34 14.56,-4.55 14.60,-4.76 14.63,-4.97 14.73,-5.16 14.84,-5.35 14.99,-5.49 15.15,-5.64 15.34,-5.72 15.53,-5.81 15.75,-5.83 15.96,-5.85 16.16,-5.80 16.37,-5.76 16.55,-5.65 16.73,-5.53 16.87,-5.37 17.01,-5.21 17.08,-5.01 17.16,-4.81 17.17,-4.60 17.18,-4.39 17.12,-4.18 17.06,-3.98 16.94,-3.80 16.82,-3.63 16.65,-3.50 16.48,-3.37 16.28,-3.31 16.07,-3.24 15.86,-3.25 15.65,-3.25 15.45,-3.32 15.25,-3.39 15.08,-3.52 14.91,-3.65 14.79,-3.82 14.68,-4.00 14.62,-4.21 14.57,-4.41 14.58,-4.62 14.59,-4.84 14.59,-4.84 14.59,-4.84 14.96,-6.43 15.33,-8.02 15.83,-11.75 16.34,-15.48 16.26,-19.97 16.18,-24.47 16.67,-28.12 17.17,-31.78 17.91,-35.66 18.66,-39.54 18.90,-39.88 19.13,-40.21 19.45,-40.47 19.76,-40.73 20.12,-40.92 20.49,-41.10 20.88,-41.19 21.28,-41.28 21.69,-41.27 22.10,-41.26 22.49,-41.15 22.89,-41.05 23.24,-40.85 23.60,-40.65 23.90,-40.38 24.20,-40.10 24.43,-39.76 24.65,-39.42 24.79,-39.03 24.92,-38.65 24.96,-38.24 25.00,-37.84 24.95,-37.43 24.89,-37.03 24.74,-36.65 24.58,-36.27 24.38,-35.99 24.17,-35.71 23.01,-33.65 21.85,-31.59 19.66,-27.11 17.48,-22.63 14.83,-18.36 12.18,-14.10 6.65,-6.71 1.12,0.67 1.02,0.80 0.93,0.92 0.80,1.02 0.68,1.12 0.53,1.18 0.39,1.25 0.23,1.28 0.08,1.31 -0.07,1.30 -0.23,1.29 -0.38,1.24 -0.53,1.19 -0.67,1.11 -0.80,1.03 -0.91,0.92 -1.03,0.81 -1.11,0.67 -1.19,0.54 -1.24,0.39 -1.29,0.24 -1.30,0.08 -1.31,-0.07 -1.28,-0.23 -1.25,-0.38 -1.19,-0.53 -1.12,-0.67 -1.12,-0.67 L -1.12,-0.67 Z"/></g><g transform="translate(164.457763671875 218.1345672607422) rotate(0 20.2657470703125 -2.190887451171875)" stroke="none"><path fill="#1e1e1e" d="M -0.18,-1.30 Q -0.18,-1.30 6.25,-3.46 12.69,-5.63 18.69,-6.34 24.70,-7.04 27.91,-7.30 31.13,-7.55 33.67,-6.58 36.21,-5.60 38.01,-5.12 39.80,-4.64 40.00,-4.59 40.21,-4.55 40.39,-4.44 40.57,-4.33 40.71,-4.16 40.85,-4.00 40.92,-3.80 41.00,-3.60 41.01,-3.39 41.02,-3.18 40.96,-2.98 40.91,-2.77 40.78,-2.60 40.66,-2.42 40.49,-2.29 40.32,-2.17 40.12,-2.10 39.92,-2.03 39.71,-2.03 39.50,-2.04 39.29,-2.11 39.09,-2.17 38.93,-2.30 38.76,-2.43 38.64,-2.61 38.52,-2.79 38.47,-2.99 38.41,-3.20 38.42,-3.41 38.44,-3.62 38.52,-3.82 38.60,-4.02 38.74,-4.18 38.87,-4.34 39.06,-4.45 39.24,-4.55 39.45,-4.60 39.66,-4.64 39.87,-4.62 40.08,-4.59 40.27,-4.50 40.46,-4.41 40.62,-4.27 40.77,-4.12 40.87,-3.93 40.96,-3.74 41.00,-3.53 41.03,-3.32 40.99,-3.11 40.96,-2.90 40.86,-2.72 40.76,-2.53 40.60,-2.38 40.45,-2.24 40.25,-2.15 40.06,-2.06 39.85,-2.04 39.64,-2.02 39.64,-2.02 39.64,-2.02 37.76,-1.77 35.88,-1.51 33.84,-0.91 31.81,-0.30 28.70,0.04 25.59,0.40 19.67,1.13 13.76,1.85 6.97,1.57 0.18,1.30 0.02,1.30 -0.13,1.30 -0.28,1.27 -0.43,1.23 -0.58,1.16 -0.72,1.09 -0.84,0.99 -0.96,0.89 -1.05,0.76 -1.14,0.63 -1.20,0.48 -1.26,0.34 -1.29,0.18 -1.31,0.02 -1.29,-0.12 -1.28,-0.28 -1.22,-0.43 -1.17,-0.58 -1.08,-0.71 -1.00,-0.85 -0.88,-0.95 -0.76,-1.06 -0.62,-1.14 -0.49,-1.21 -0.33,-1.25 -0.18,-1.30 -0.18,-1.30 L -0.18,-1.30 Z"/></g><g transform="translate(139.26251220703125 244.4252471923828) rotate(0 10.9544677734375 6.02496337890625)" stroke="none"><path fill="#1e1e1e" d="M -0.19,-1.29 Q -0.19,-1.29 3.77,-2.93 7.75,-4.56 11.73,-3.82 15.71,-3.08 18.58,-0.62 21.45,1.83 21.83,5.32 22.22,8.82 19.65,11.30 17.08,13.79 15.49,14.54 13.89,15.29 11.24,14.87 8.59,14.45 8.38,14.41 8.17,14.38 7.98,14.28 7.79,14.18 7.65,14.03 7.50,13.88 7.41,13.69 7.32,13.49 7.29,13.28 7.27,13.07 7.31,12.86 7.36,12.66 7.46,12.47 7.57,12.29 7.73,12.15 7.89,12.01 8.09,11.93 8.29,11.85 8.50,11.84 8.71,11.83 8.92,11.88 9.12,11.94 9.30,12.05 9.47,12.17 9.60,12.34 9.73,12.51 9.80,12.71 9.87,12.91 9.88,13.12 9.88,13.33 9.81,13.53 9.75,13.74 9.62,13.91 9.49,14.08 9.32,14.20 9.14,14.32 8.94,14.38 8.73,14.44 8.52,14.43 8.31,14.42 8.11,14.34 7.91,14.26 7.75,14.13 7.59,13.99 7.48,13.81 7.36,13.63 7.32,13.42 7.27,13.21 7.29,13.00 7.31,12.79 7.40,12.60 7.49,12.40 7.63,12.25 7.78,12.09 7.96,11.99 8.15,11.89 8.36,11.86 8.57,11.82 8.57,11.82 8.57,11.82 10.07,11.36 11.58,10.90 12.40,10.11 13.23,9.31 14.78,7.56 16.33,5.80 15.12,4.54 13.91,3.27 11.27,2.66 8.62,2.04 4.41,1.67 0.19,1.29 0.04,1.30 -0.11,1.30 -0.27,1.27 -0.42,1.24 -0.56,1.17 -0.71,1.10 -0.83,1.00 -0.95,0.90 -1.04,0.77 -1.14,0.64 -1.20,0.50 -1.26,0.35 -1.28,0.19 -1.31,0.04 -1.29,-0.11 -1.28,-0.27 -1.23,-0.42 -1.18,-0.57 -1.09,-0.70 -1.01,-0.83 -0.89,-0.94 -0.77,-1.05 -0.64,-1.13 -0.50,-1.21 -0.35,-1.25 -0.19,-1.29 -0.19,-1.29 L -0.19,-1.29 Z"/></g><g transform="translate(165.55322265625 246.6161346435547) rotate(0 4.38177490234375 6.5726776123046875)" stroke="none"><path fill="#1e1e1e" d="M 1.29,-0.23 Q 1.29,-0.23 2.87,3.05 4.45,6.34 4.02,7.94 3.59,9.55 5.23,7.16 6.86,4.76 7.01,4.61 7.16,4.46 7.35,4.37 7.55,4.27 7.76,4.25 7.97,4.22 8.17,4.26 8.38,4.30 8.57,4.40 8.75,4.51 8.90,4.66 9.04,4.82 9.12,5.02 9.21,5.21 9.22,5.42 9.24,5.64 9.19,5.84 9.14,6.05 9.02,6.23 8.91,6.41 8.74,6.54 8.58,6.67 8.38,6.75 8.18,6.82 7.97,6.82 7.75,6.83 7.55,6.77 7.35,6.71 7.17,6.58 7.00,6.46 6.88,6.29 6.75,6.11 6.69,5.91 6.63,5.71 6.64,5.49 6.64,5.28 6.71,5.08 6.79,4.88 6.92,4.72 7.05,4.55 7.23,4.44 7.41,4.32 7.62,4.27 7.82,4.22 8.04,4.24 8.25,4.25 8.44,4.34 8.64,4.42 8.80,4.56 8.95,4.71 9.06,4.89 9.16,5.08 9.20,5.29 9.24,5.49 9.21,5.70 9.19,5.92 9.09,6.11 9.00,6.30 9.00,6.30 9.00,6.30 6.88,9.13 4.76,11.97 2.81,12.30 0.86,12.62 -0.53,10.07 -1.93,7.51 -1.61,3.87 -1.29,0.23 -1.30,0.07 -1.31,-0.08 -1.28,-0.23 -1.25,-0.39 -1.18,-0.53 -1.12,-0.68 -1.02,-0.80 -0.92,-0.92 -0.80,-1.02 -0.67,-1.12 -0.53,-1.18 -0.38,-1.25 -0.23,-1.28 -0.07,-1.31 0.08,-1.30 0.23,-1.29 0.38,-1.24 0.54,-1.19 0.67,-1.11 0.81,-1.03 0.92,-0.92 1.03,-0.80 1.11,-0.67 1.19,-0.53 1.24,-0.38 1.29,-0.23 1.29,-0.23 L 1.29,-0.23 Z"/></g><g transform="translate(173.2213134765625 233.47080993652344) rotate(0 -2.190887451171875 -2.7386016845703125)" stroke="none"><path fill="#1e1e1e" d="M -1.30,0.18 Q -1.30,0.18 -2.65,-1.86 -4.01,-3.91 -4.88,-5.36 -5.75,-6.82 -5.84,-7.22 -5.94,-7.62 -5.93,-8.03 -5.92,-8.45 -5.82,-8.84 -5.71,-9.24 -5.51,-9.60 -5.31,-9.97 -5.03,-10.27 -4.75,-10.57 -4.41,-10.80 -4.07,-11.03 -3.68,-11.17 -3.29,-11.31 -2.88,-11.35 -2.47,-11.39 -2.06,-11.33 -1.65,-11.28 -1.27,-11.12 -0.89,-10.97 -0.55,-10.73 -0.22,-10.49 0.04,-10.18 0.31,-9.86 0.49,-9.49 0.68,-9.13 -0.07,-7.11 -0.82,-5.09 -0.28,-2.37 0.25,0.33 0.16,0.46 0.07,0.59 -0.04,0.70 -0.16,0.80 -0.30,0.88 -0.44,0.95 -0.59,0.99 -0.74,1.03 -0.90,1.03 -1.06,1.04 -1.21,1.00 -1.37,0.96 -1.51,0.89 -1.65,0.82 -1.77,0.71 -1.89,0.61 -1.98,0.48 -2.07,0.35 -2.13,0.20 -2.18,0.06 -2.21,-0.09 -2.23,-0.25 -2.21,-0.40 -2.19,-0.56 -2.14,-0.71 -2.08,-0.86 -1.12,-1.10 -0.17,-1.34 -0.01,-1.19 0.13,-1.04 0.23,-0.86 0.33,-0.67 0.36,-0.46 0.39,-0.25 0.35,-0.04 0.32,0.16 0.22,0.35 0.12,0.54 -0.03,0.68 -0.19,0.82 -0.38,0.91 -0.57,1.00 -0.79,1.02 -1.00,1.04 -1.20,0.99 -1.41,0.95 -1.59,0.83 -1.77,0.72 -1.91,0.56 -2.04,0.40 -2.12,0.20 -2.20,0.00 -2.21,-0.20 -2.22,-0.41 -2.16,-0.62 -2.10,-0.82 -1.98,-1.00 -1.86,-1.17 -1.69,-1.30 -1.52,-1.43 -1.31,-1.49 -1.11,-1.56 -0.90,-1.56 -0.69,-1.55 -0.49,-1.48 -0.29,-1.41 -0.12,-1.28 0.04,-1.15 0.16,-0.98 0.27,-0.80 0.33,-0.59 0.38,-0.39 0.37,-0.18 0.36,0.03 0.28,0.22 0.20,0.42 0.06,0.58 -0.07,0.74 -0.26,0.85 -0.44,0.96 -0.65,1.00 -0.85,1.04 -1.07,1.02 -1.28,0.99 -0.51,0.66 0.25,0.33 0.16,0.46 0.07,0.59 -0.04,0.70 -0.16,0.80 -0.30,0.88 -0.44,0.95 -0.59,0.99 -0.74,1.03 -0.90,1.03 -1.06,1.04 -1.21,1.00 -1.37,0.96 -1.51,0.89 -1.65,0.82 -1.77,0.71 -1.89,0.61 -1.98,0.48 -2.07,0.35 -2.13,0.20 -2.18,0.06 -2.21,-0.09 -2.23,-0.25 -2.21,-0.40 -2.19,-0.56 -2.14,-0.71 -2.08,-0.86 -3.92,-3.84 -5.75,-6.82 -5.84,-7.22 -5.94,-7.62 -5.93,-8.03 -5.92,-8.45 -5.82,-8.84 -5.71,-9.24 -5.51,-9.60 -5.31,-9.97 -5.03,-10.27 -4.75,-10.57 -4.41,-10.80 -4.07,-11.03 -3.68,-11.17 -3.29,-11.31 -2.88,-11.35 -2.47,-11.39 -2.06,-11.33 -1.65,-11.28 -1.27,-11.12 -0.89,-10.97 -0.55,-10.73 -0.22,-10.49 0.04,-10.18 0.31,-9.86 0.49,-9.49 0.68,-9.13 1.16,-8.65 1.64,-8.17 2.20,-6.54 2.75,-4.90 2.02,-2.54 1.30,-0.18 1.30,-0.02 1.30,0.13 1.27,0.28 1.23,0.43 1.16,0.58 1.09,0.72 0.99,0.84 0.89,0.96 0.76,1.05 0.63,1.14 0.48,1.20 0.34,1.26 0.18,1.29 0.02,1.31 -0.12,1.29 -0.28,1.28 -0.43,1.22 -0.58,1.17 -0.71,1.08 -0.85,1.00 -0.95,0.88 -1.06,0.76 -1.14,0.62 -1.21,0.49 -1.25,0.33 -1.30,0.18 -1.30,0.18 L -1.30,0.18 Z"/></g><g transform="translate(178.69854736328125 247.7115936279297) rotate(0 5.477203369140625 4.92950439453125)" stroke="none"><path fill="#1e1e1e" d="M 1.30,0.14 Q 1.30,0.14 1.90,3.08 2.49,6.01 2.37,7.53 2.25,9.05 2.16,9.43 2.08,9.80 1.90,10.14 1.73,10.48 1.48,10.77 1.23,11.06 0.91,11.28 0.60,11.50 0.24,11.64 -0.10,11.78 -0.48,11.83 -0.86,11.88 -1.24,11.83 -1.62,11.79 -1.98,11.66 -2.34,11.53 -2.66,11.31 -2.97,11.10 -3.23,10.82 -3.49,10.53 -3.67,10.19 -3.85,9.86 -3.94,9.49 -4.04,9.12 -4.04,8.73 -4.05,8.35 -3.34,6.30 -2.63,4.25 -1.66,2.08 -0.69,-0.08 1.43,-1.80 3.57,-3.51 6.20,-3.43 8.84,-3.34 10.30,-1.81 11.75,-0.27 12.47,2.60 13.19,5.47 13.08,8.20 12.96,10.92 13.02,11.12 13.08,11.32 13.07,11.54 13.06,11.75 12.99,11.95 12.91,12.15 12.78,12.31 12.64,12.48 12.46,12.59 12.28,12.70 12.08,12.75 11.87,12.80 11.66,12.78 11.45,12.76 11.25,12.68 11.06,12.59 10.90,12.45 10.75,12.30 10.64,12.12 10.54,11.93 10.50,11.72 10.46,11.51 10.49,11.30 10.52,11.09 10.62,10.90 10.72,10.72 10.87,10.57 11.02,10.42 11.21,10.32 11.40,10.23 11.61,10.20 11.82,10.18 12.03,10.22 12.24,10.26 12.42,10.37 12.61,10.47 12.75,10.63 12.89,10.79 12.97,10.99 13.05,11.18 13.07,11.40 13.08,11.61 13.03,11.81 12.98,12.02 12.86,12.20 12.75,12.38 12.58,12.51 12.41,12.64 12.21,12.71 12.01,12.78 11.80,12.79 11.59,12.79 11.38,12.73 11.18,12.66 11.01,12.54 10.84,12.41 10.72,12.24 10.59,12.06 10.59,12.06 10.59,12.06 8.72,9.60 6.84,7.14 6.93,4.69 7.02,2.25 5.94,2.65 4.86,3.05 4.22,4.37 3.57,5.68 2.91,7.37 2.25,9.05 2.16,9.43 2.08,9.80 1.90,10.14 1.73,10.48 1.48,10.77 1.23,11.06 0.91,11.28 0.60,11.50 0.24,11.64 -0.10,11.78 -0.48,11.83 -0.86,11.88 -1.24,11.83 -1.62,11.79 -1.98,11.66 -2.34,11.53 -2.66,11.31 -2.97,11.10 -3.23,10.82 -3.49,10.53 -3.67,10.20 -3.85,9.86 -3.94,9.49 -4.04,9.12 -4.04,8.74 -4.05,8.35 -3.90,6.83 -3.75,5.32 -2.53,2.58 -1.30,-0.14 -1.26,-0.29 -1.23,-0.45 -1.16,-0.59 -1.08,-0.73 -0.98,-0.85 -0.88,-0.97 -0.75,-1.06 -0.62,-1.15 -0.47,-1.21 -0.32,-1.27 -0.17,-1.29 -0.01,-1.31 0.14,-1.29 0.30,-1.27 0.44,-1.22 0.59,-1.16 0.72,-1.08 0.86,-0.99 0.96,-0.87 1.07,-0.75 1.14,-0.61 1.22,-0.47 1.26,-0.32 1.30,-0.17 1.30,-0.01 1.30,0.14 1.30,0.14 L 1.30,0.14 Z"/></g><g transform="translate(197.32110595703125 247.7115936279297) rotate(0 11.502166748046875 9.311279296875)" stroke="none"><path fill="#1e1e1e" d="M 0.92,-0.92 Q 0.92,-0.92 5.23,1.69 9.53,4.31 11.74,5.92 13.95,7.53 16.36,9.33 18.78,11.14 20.75,13.93 22.72,16.73 22.86,16.89 23.01,17.04 23.09,17.24 23.18,17.43 23.20,17.64 23.22,17.85 23.17,18.06 23.12,18.27 23.01,18.45 22.90,18.63 22.74,18.77 22.57,18.90 22.37,18.98 22.17,19.05 21.96,19.06 21.75,19.07 21.55,19.01 21.34,18.95 21.17,18.83 20.99,18.71 20.87,18.54 20.74,18.37 20.68,18.16 20.61,17.96 20.61,17.75 20.62,17.54 20.69,17.34 20.76,17.14 20.89,16.97 21.02,16.80 21.20,16.68 21.37,16.57 21.58,16.51 21.78,16.46 22.00,16.47 22.21,16.49 22.40,16.57 22.60,16.65 22.76,16.79 22.92,16.93 23.03,17.11 23.14,17.30 23.18,17.50 23.22,17.71 23.20,17.92 23.17,18.13 23.08,18.33 22.99,18.52 22.84,18.67 22.69,18.82 22.50,18.92 22.31,19.02 22.10,19.05 21.89,19.08 21.68,19.04 21.47,19.01 21.29,18.90 21.10,18.80 21.10,18.80 21.10,18.80 18.12,17.74 15.15,16.68 12.36,15.07 9.57,13.46 6.94,11.50 4.32,9.54 1.69,5.23 -0.92,0.92 -1.02,0.80 -1.12,0.67 -1.18,0.53 -1.25,0.39 -1.28,0.23 -1.31,0.07 -1.30,-0.07 -1.29,-0.23 -1.24,-0.38 -1.19,-0.53 -1.11,-0.67 -1.03,-0.80 -0.92,-0.92 -0.80,-1.03 -0.67,-1.11 -0.53,-1.19 -0.38,-1.24 -0.23,-1.29 -0.07,-1.30 0.07,-1.31 0.23,-1.28 0.39,-1.25 0.53,-1.18 0.67,-1.12 0.80,-1.02 0.92,-0.92 0.92,-0.92 L 0.92,-0.92 Z"/></g><g transform="translate(218.13458251953125 249.90248107910156) rotate(0 -8.763580322265625 9.8590087890625)" stroke="none"><path fill="#1e1e1e" d="M 0.89,0.96 Q 0.89,0.96 -2.54,5.45 -5.98,9.94 -8.00,12.03 -10.01,14.12 -12.75,16.59 -15.49,19.06 -15.64,19.22 -15.78,19.37 -15.97,19.47 -16.16,19.57 -16.37,19.60 -16.58,19.64 -16.79,19.60 -17.00,19.57 -17.19,19.47 -17.37,19.37 -17.52,19.21 -17.67,19.06 -17.75,18.87 -17.84,18.67 -17.87,18.46 -17.89,18.25 -17.84,18.04 -17.80,17.84 -17.69,17.65 -17.58,17.47 -17.42,17.34 -17.25,17.20 -17.06,17.12 -16.86,17.04 -16.65,17.03 -16.43,17.02 -16.23,17.08 -16.02,17.13 -15.85,17.25 -15.67,17.37 -15.54,17.54 -15.42,17.71 -15.35,17.91 -15.28,18.11 -15.28,18.33 -15.28,18.54 -15.35,18.74 -15.42,18.94 -15.55,19.11 -15.68,19.28 -15.85,19.40 -16.03,19.52 -16.23,19.57 -16.44,19.63 -16.65,19.62 -16.86,19.61 -17.06,19.53 -17.26,19.45 -17.42,19.31 -17.58,19.17 -17.69,18.99 -17.80,18.81 -17.84,18.60 -17.89,18.39 -17.87,18.18 -17.84,17.97 -17.75,17.78 -17.66,17.59 -17.66,17.59 -17.66,17.59 -16.12,13.76 -14.58,9.93 -12.48,7.55 -10.39,5.17 -5.64,2.10 -0.89,-0.96 -0.76,-1.05 -0.63,-1.15 -0.48,-1.20 -0.34,-1.26 -0.18,-1.29 -0.02,-1.31 0.13,-1.29 0.28,-1.28 0.43,-1.22 0.58,-1.17 0.71,-1.08 0.85,-1.00 0.95,-0.88 1.06,-0.76 1.14,-0.62 1.21,-0.49 1.25,-0.33 1.30,-0.18 1.30,-0.02 1.30,0.13 1.27,0.28 1.23,0.44 1.16,0.58 1.09,0.72 0.99,0.84 0.89,0.96 0.89,0.96 L 0.89,0.96 Z"/></g><g transform="translate(249.9024658203125 224.70726013183594) rotate(0 4.38177490234375 -1.6431732177734375)" stroke="none"><path fill="#1e1e1e" d="M -0.18,-1.30 Q -0.18,-1.30 1.88,-2.49 3.95,-3.69 5.43,-4.61 6.90,-5.53 7.27,-5.61 7.65,-5.70 8.03,-5.69 8.41,-5.68 8.78,-5.58 9.15,-5.48 9.49,-5.30 9.82,-5.12 10.11,-4.86 10.39,-4.60 10.60,-4.28 10.81,-3.96 10.94,-3.60 11.07,-3.24 11.11,-2.86 11.15,-2.48 11.10,-2.10 11.04,-1.72 10.90,-1.36 10.76,-1.01 10.54,-0.69 10.31,-0.38 10.02,-0.13 9.73,0.10 9.39,0.28 9.04,0.45 7.53,1.14 6.02,1.82 5.68,2.00 5.34,2.17 4.97,2.26 4.59,2.34 4.21,2.34 3.83,2.33 3.46,2.24 3.09,2.14 2.75,1.96 2.42,1.78 2.13,1.52 1.85,1.26 1.64,0.95 1.42,0.63 1.29,0.27 1.16,-0.08 1.12,-0.46 1.08,-0.84 1.13,-1.22 1.18,-1.60 1.32,-1.95 1.46,-2.31 1.68,-2.62 1.90,-2.93 2.19,-3.18 2.48,-3.43 1.90,-2.44 1.33,-1.45 0.80,-1.30 0.27,-1.16 0.30,-1.31 0.33,-1.47 0.39,-1.62 0.45,-1.76 0.55,-1.89 0.64,-2.01 0.76,-2.11 0.89,-2.21 1.03,-2.28 1.17,-2.35 1.33,-2.38 1.48,-2.41 1.64,-2.40 1.80,-2.40 1.95,-2.35 2.10,-2.31 2.24,-2.23 2.38,-2.15 2.49,-2.04 2.61,-1.93 2.69,-1.79 2.77,-1.66 2.82,-1.51 2.87,-1.36 2.89,-1.20 2.90,-1.04 2.42,-0.44 1.95,0.15 1.74,0.18 1.53,0.20 1.32,0.16 1.11,0.12 0.93,0.01 0.75,-0.09 0.61,-0.25 0.47,-0.41 0.39,-0.61 0.31,-0.80 0.29,-1.02 0.28,-1.23 0.33,-1.43 0.39,-1.64 0.50,-1.82 0.62,-1.99 0.79,-2.12 0.96,-2.25 1.16,-2.32 1.36,-2.39 1.57,-2.40 1.78,-2.40 1.99,-2.33 2.19,-2.27 2.36,-2.14 2.53,-2.01 2.65,-1.84 2.77,-1.67 2.83,-1.46 2.89,-1.26 2.88,-1.04 2.87,-0.83 2.79,-0.63 2.72,-0.44 2.58,-0.27 2.45,-0.11 2.27,-0.00 2.09,0.10 1.88,0.15 1.67,0.20 1.46,0.18 1.25,0.16 1.05,0.07 0.86,-0.00 0.70,-0.15 0.55,-0.29 0.45,-0.48 0.35,-0.67 0.31,-0.88 0.27,-1.09 0.30,-1.30 0.34,-1.51 0.43,-1.69 0.53,-1.88 0.68,-2.03 0.84,-2.18 0.55,-1.67 0.27,-1.16 0.30,-1.31 0.33,-1.47 0.39,-1.62 0.45,-1.76 0.55,-1.89 0.64,-2.01 0.76,-2.11 0.89,-2.21 1.03,-2.28 1.17,-2.35 1.33,-2.38 1.48,-2.41 1.64,-2.40 1.80,-2.40 1.95,-2.35 2.10,-2.31 2.24,-2.23 2.38,-2.15 2.49,-2.04 2.61,-1.93 2.69,-1.79 2.77,-1.66 2.82,-1.51 2.87,-1.36 2.89,-1.20 2.90,-1.04 5.14,-1.47 7.38,-1.89 6.70,-0.03 6.02,1.82 5.68,2.00 5.34,2.17 4.97,2.26 4.59,2.34 4.21,2.34 3.83,2.33 3.46,2.24 3.09,2.14 2.75,1.96 2.42,1.78 2.13,1.52 1.85,1.26 1.64,0.95 1.42,0.63 1.29,0.27 1.16,-0.08 1.12,-0.46 1.08,-0.84 1.13,-1.22 1.18,-1.60 1.32,-1.95 1.46,-2.31 1.68,-2.62 1.90,-2.93 2.19,-3.18 2.48,-3.43 3.14,-3.97 3.79,-4.51 5.35,-5.02 6.90,-5.53 7.27,-5.61 7.65,-5.70 8.03,-5.69 8.41,-5.68 8.78,-5.58 9.15,-5.48 9.49,-5.30 9.82,-5.12 10.11,-4.86 10.39,-4.60 10.60,-4.28 10.81,-3.96 10.94,-3.60 11.07,-3.24 11.11,-2.86 11.15,-2.48 11.10,-2.10 11.04,-1.72 10.90,-1.36 10.76,-1.01 10.54,-0.69 10.31,-0.38 10.02,-0.13 9.73,0.10 9.39,0.28 9.04,0.45 8.56,0.93 8.08,1.41 6.47,1.92 4.85,2.43 2.52,1.86 0.18,1.30 0.02,1.30 -0.13,1.30 -0.28,1.27 -0.43,1.23 -0.58,1.16 -0.72,1.09 -0.84,0.99 -0.96,0.89 -1.05,0.76 -1.14,0.63 -1.20,0.48 -1.26,0.34 -1.29,0.18 -1.31,0.02 -1.29,-0.12 -1.28,-0.28 -1.22,-0.43 -1.17,-0.58 -1.08,-0.71 -1.00,-0.85 -0.88,-0.95 -0.76,-1.06 -0.62,-1.14 -0.49,-1.21 -0.33,-1.25 -0.18,-1.30 -0.18,-1.30 L -0.18,-1.30 Z"/></g><g transform="translate(300.29296875 225.8026885986328) rotate(0 7.120391845703125 9.8590087890625)" stroke="none"><path fill="#1e1e1e" d="M 0.48,1.21 Q 0.48,1.21 -0.65,2.66 -1.79,4.11 -1.90,7.10 -2.00,10.09 -0.66,11.78 0.67,13.47 2.89,14.15 5.11,14.83 9.28,13.05 13.45,11.28 15.38,10.22 17.32,9.17 17.52,9.10 17.72,9.03 17.93,9.02 18.14,9.02 18.35,9.09 18.55,9.15 18.72,9.28 18.89,9.40 19.01,9.58 19.13,9.75 19.19,9.96 19.25,10.16 19.24,10.37 19.23,10.59 19.16,10.78 19.08,10.98 18.95,11.15 18.81,11.31 18.63,11.42 18.45,11.53 18.24,11.58 18.03,11.63 17.82,11.61 17.61,11.59 17.42,11.50 17.22,11.41 17.07,11.27 16.91,11.13 16.81,10.94 16.71,10.75 16.67,10.54 16.63,10.33 16.67,10.12 16.70,9.91 16.80,9.73 16.89,9.54 17.05,9.39 17.20,9.24 17.39,9.15 17.58,9.06 17.79,9.03 18.00,9.01 18.21,9.05 18.42,9.09 18.60,9.20 18.79,9.31 18.93,9.47 19.07,9.63 19.15,9.83 19.23,10.02 19.24,10.23 19.25,10.45 19.20,10.65 19.15,10.86 19.03,11.03 18.91,11.21 18.74,11.34 18.58,11.47 18.58,11.47 18.58,11.47 16.64,12.53 14.71,13.58 9.77,16.77 4.83,19.97 0.44,18.99 -3.94,18.02 -6.29,14.35 -8.63,10.67 -8.24,6.33 -7.85,1.99 -6.18,0.19 -4.50,-1.60 -2.49,-1.40 -0.48,-1.21 -0.33,-1.26 -0.18,-1.30 -0.02,-1.30 0.13,-1.30 0.28,-1.27 0.44,-1.23 0.58,-1.16 0.72,-1.09 0.84,-0.99 0.96,-0.88 1.05,-0.75 1.15,-0.63 1.21,-0.48 1.26,-0.33 1.29,-0.18 1.31,-0.02 1.29,0.13 1.28,0.29 1.22,0.44 1.17,0.58 1.08,0.72 0.99,0.85 0.88,0.96 0.76,1.06 0.62,1.14 0.48,1.21 0.48,1.21 L 0.48,1.21 Z"/></g><g transform="translate(324.39276123046875 231.27992248535156) rotate(0 5.477203369140625 4.38177490234375)" stroke="none"><path fill="#1e1e1e" d="M 1.06,0.76 Q 1.06,0.76 0.31,3.54 -0.43,6.32 -0.04,7.73 0.35,9.14 1.52,9.14 2.68,9.14 4.90,7.86 7.12,6.58 8.87,4.76 10.61,2.95 9.78,1.73 8.95,0.51 7.64,-0.16 6.33,-0.84 7.13,-2.11 7.93,-3.37 5.13,-1.52 2.34,0.31 2.14,0.38 1.93,0.44 1.72,0.43 1.51,0.42 1.31,0.35 1.11,0.27 0.95,0.14 0.78,0.00 0.67,-0.17 0.56,-0.35 0.51,-0.55 0.46,-0.76 0.47,-0.97 0.49,-1.18 0.58,-1.38 0.66,-1.57 0.81,-1.73 0.95,-1.89 1.14,-1.99 1.32,-2.09 1.53,-2.13 1.74,-2.17 1.95,-2.14 2.16,-2.11 2.35,-2.01 2.54,-1.92 2.69,-1.77 2.84,-1.61 2.93,-1.42 3.02,-1.23 3.05,-1.02 3.08,-0.81 3.04,-0.60 2.99,-0.39 2.89,-0.21 2.78,-0.03 2.62,0.11 2.46,0.25 2.27,0.33 2.07,0.41 1.86,0.43 1.65,0.44 1.44,0.39 1.24,0.34 1.06,0.22 0.88,0.10 0.75,-0.05 0.62,-0.22 0.55,-0.42 0.47,-0.62 0.47,-0.83 0.47,-1.04 0.53,-1.25 0.59,-1.45 0.72,-1.62 0.84,-1.79 1.02,-1.91 1.19,-2.04 1.19,-2.04 1.19,-2.04 1.98,-4.09 2.78,-6.15 6.38,-6.46 9.98,-6.77 12.29,-5.19 14.60,-3.61 16.02,-0.74 17.44,2.13 16.49,4.96 15.54,7.79 12.76,10.28 9.98,12.77 5.98,14.21 1.98,15.65 -1.08,14.64 -4.16,13.64 -5.79,10.65 -7.42,7.67 -6.64,5.08 -5.86,2.49 -3.46,0.86 -1.06,-0.76 -0.96,-0.88 -0.85,-0.99 -0.72,-1.08 -0.59,-1.17 -0.44,-1.22 -0.29,-1.28 -0.13,-1.29 0.02,-1.31 0.17,-1.29 0.33,-1.26 0.48,-1.21 0.62,-1.15 0.75,-1.06 0.88,-0.96 0.98,-0.84 1.09,-0.72 1.16,-0.58 1.23,-0.44 1.27,-0.29 1.30,-0.13 1.30,0.02 1.30,0.17 1.26,0.33 1.22,0.48 1.14,0.62 1.06,0.76 1.06,0.76 L 1.06,0.76 Z"/></g><g transform="translate(357.256103515625 221.42091369628906) rotate(0 8.215850830078125 10.954452514648438)" stroke="none"><path fill="#1e1e1e" d="M 0.62,-1.15 Q 0.62,-1.15 4.60,-0.20 8.58,0.73 10.88,2.30 13.18,3.86 15.20,6.97 17.23,10.07 17.31,13.51 17.39,16.95 15.35,19.46 13.31,21.97 10.41,22.93 7.51,23.89 5.50,23.95 3.50,24.01 2.11,22.04 0.72,20.08 0.59,19.91 0.46,19.74 0.40,19.54 0.33,19.34 0.33,19.12 0.33,18.91 0.40,18.71 0.47,18.51 0.60,18.34 0.73,18.17 0.91,18.06 1.08,17.94 1.29,17.88 1.49,17.83 1.71,17.84 1.92,17.85 2.12,17.93 2.31,18.01 2.47,18.15 2.63,18.29 2.74,18.47 2.85,18.66 2.89,18.86 2.94,19.07 2.91,19.28 2.89,19.49 2.80,19.69 2.71,19.88 2.56,20.03 2.41,20.18 2.22,20.28 2.04,20.38 1.83,20.41 1.62,20.45 1.41,20.41 1.20,20.37 1.01,20.27 0.82,20.17 0.68,20.02 0.53,19.86 0.45,19.67 0.36,19.47 0.34,19.26 0.32,19.05 0.36,18.84 0.41,18.64 0.52,18.46 0.63,18.28 0.80,18.14 0.96,18.00 1.16,17.93 1.35,17.85 1.57,17.84 1.78,17.83 1.98,17.89 2.19,17.95 2.36,18.07 2.54,18.19 2.54,18.19 2.54,18.19 4.11,18.04 5.67,17.88 7.25,17.47 8.84,17.06 9.93,16.33 11.03,15.61 11.07,14.40 11.12,13.20 10.10,11.31 9.08,9.42 7.17,8.12 5.26,6.82 2.31,3.98 -0.62,1.15 -0.75,1.06 -0.88,0.96 -0.98,0.84 -1.09,0.72 -1.16,0.58 -1.23,0.44 -1.27,0.29 -1.30,0.13 -1.30,-0.02 -1.30,-0.17 -1.26,-0.33 -1.22,-0.48 -1.14,-0.62 -1.06,-0.76 -0.96,-0.88 -0.85,-0.99 -0.72,-1.08 -0.59,-1.17 -0.44,-1.22 -0.29,-1.28 -0.13,-1.29 0.02,-1.31 0.17,-1.29 0.33,-1.26 0.48,-1.21 0.62,-1.15 0.62,-1.15 L 0.62,-1.15 Z"/></g><g transform="translate(391.21490478515625 234.5662384033203) rotate(0 11.502166748046875 4.3817901611328125)" stroke="none"><path fill="#1e1e1e" d="M 0.46,-1.22 Q 0.46,-1.22 7.08,1.29 13.69,3.81 16.50,4.88 19.31,5.95 19.50,6.06 19.68,6.16 19.82,6.32 19.96,6.48 20.04,6.68 20.12,6.87 20.14,7.09 20.15,7.30 20.10,7.50 20.04,7.71 19.93,7.89 19.81,8.06 19.64,8.20 19.48,8.33 19.28,8.40 19.08,8.47 18.86,8.47 18.65,8.47 18.45,8.41 18.25,8.35 18.08,8.22 17.90,8.09 17.78,7.92 17.66,7.74 17.60,7.54 17.54,7.34 17.55,7.12 17.56,6.91 17.63,6.71 17.71,6.52 17.84,6.35 17.98,6.19 18.16,6.08 18.34,5.96 18.55,5.91 18.75,5.87 18.96,5.89 19.18,5.91 19.37,5.99 19.56,6.08 19.72,6.22 19.88,6.37 19.98,6.55 20.08,6.74 20.12,6.95 20.16,7.16 20.13,7.37 20.09,7.58 20.00,7.77 19.90,7.95 19.75,8.10 19.60,8.25 19.41,8.34 19.21,8.44 19.00,8.46 18.79,8.49 18.58,8.45 18.38,8.40 18.38,8.40 18.38,8.40 15.57,7.33 12.75,6.26 6.14,3.74 -0.46,1.22 -0.60,1.15 -0.74,1.07 -0.86,0.97 -0.98,0.86 -1.07,0.73 -1.16,0.60 -1.21,0.46 -1.27,0.31 -1.29,0.15 -1.31,-0.00 -1.29,-0.15 -1.27,-0.31 -1.21,-0.46 -1.16,-0.61 -1.07,-0.74 -0.98,-0.87 -0.86,-0.97 -0.74,-1.08 -0.60,-1.15 -0.46,-1.22 -0.31,-1.26 -0.15,-1.30 0.00,-1.30 0.16,-1.30 0.31,-1.26 0.46,-1.22 0.46,-1.22 L 0.46,-1.22 Z"/></g><g transform="translate(408.74200439453125 234.5662384033203) rotate(0 -9.311279296875 8.215850830078125)" stroke="none"><path fill="#1e1e1e" d="M 0.83,1.01 Q 0.83,1.01 -4.15,5.86 -9.14,10.71 -12.71,13.35 -16.28,16.00 -16.45,16.12 -16.63,16.24 -16.83,16.30 -17.04,16.36 -17.25,16.35 -17.46,16.34 -17.66,16.26 -17.86,16.18 -18.02,16.05 -18.18,15.91 -18.29,15.73 -18.40,15.55 -18.45,15.34 -18.50,15.13 -18.48,14.92 -18.46,14.71 -18.37,14.52 -18.28,14.32 -18.14,14.17 -17.99,14.01 -17.80,13.91 -17.62,13.81 -17.41,13.77 -17.20,13.74 -16.99,13.77 -16.78,13.80 -16.59,13.90 -16.40,14.00 -16.25,14.15 -16.11,14.31 -16.02,14.50 -15.93,14.69 -15.90,14.90 -15.88,15.11 -15.92,15.32 -15.96,15.53 -16.07,15.71 -16.18,15.89 -16.34,16.03 -16.50,16.17 -16.70,16.25 -16.90,16.33 -17.11,16.35 -17.32,16.36 -17.53,16.30 -17.73,16.25 -17.91,16.13 -18.08,16.01 -18.21,15.84 -18.34,15.68 -18.41,15.47 -18.48,15.27 -18.48,15.06 -18.49,14.85 -18.42,14.65 -18.35,14.44 -18.23,14.27 -18.10,14.10 -18.10,14.10 -18.10,14.11 -15.18,10.51 -12.26,6.92 -6.55,2.95 -0.83,-1.01 -0.70,-1.09 -0.56,-1.18 -0.41,-1.23 -0.26,-1.28 -0.11,-1.29 0.04,-1.31 0.20,-1.28 0.36,-1.26 0.50,-1.20 0.65,-1.14 0.77,-1.04 0.90,-0.95 1.00,-0.82 1.10,-0.70 1.17,-0.56 1.24,-0.42 1.27,-0.26 1.30,-0.11 1.30,0.04 1.29,0.20 1.25,0.35 1.21,0.50 1.13,0.64 1.05,0.78 0.94,0.89 0.83,1.01 0.83,1.01 L 0.83,1.01 Z"/></g><g transform="translate(442.7008056640625 209.3710174560547) rotate(0 9.311309814453125 0.5477142333984375)" stroke="none"><path fill="#1e1e1e" d="M 0.08,-1.31 Q 0.08,-1.31 4.85,-1.71 9.63,-2.12 11.93,-1.78 14.22,-1.44 16.04,-0.84 17.86,-0.25 18.06,-0.20 18.27,-0.16 18.46,-0.05 18.64,0.04 18.78,0.21 18.92,0.37 19.00,0.56 19.08,0.76 19.09,0.97 19.11,1.18 19.05,1.39 19.00,1.59 18.88,1.77 18.76,1.95 18.59,2.08 18.43,2.21 18.23,2.28 18.03,2.35 17.81,2.35 17.60,2.35 17.40,2.29 17.20,2.22 17.03,2.09 16.86,1.97 16.73,1.79 16.61,1.62 16.55,1.41 16.50,1.21 16.50,1.00 16.51,0.79 16.59,0.59 16.67,0.39 16.80,0.23 16.94,0.06 17.12,-0.04 17.30,-0.15 17.51,-0.20 17.71,-0.25 17.93,-0.23 18.14,-0.20 18.33,-0.12 18.53,-0.03 18.68,0.10 18.84,0.25 18.94,0.44 19.04,0.62 19.08,0.83 19.11,1.04 19.08,1.25 19.05,1.46 18.95,1.65 18.85,1.84 18.70,1.99 18.55,2.13 18.36,2.23 18.16,2.32 17.95,2.34 17.74,2.37 17.74,2.37 17.74,2.37 15.85,2.80 13.95,3.23 11.61,3.31 9.26,3.38 4.58,2.34 -0.08,1.31 -0.24,1.28 -0.39,1.25 -0.54,1.18 -0.68,1.11 -0.81,1.02 -0.93,0.92 -1.03,0.79 -1.12,0.67 -1.19,0.52 -1.25,0.38 -1.28,0.22 -1.31,0.07 -1.30,-0.08 -1.29,-0.24 -1.24,-0.39 -1.19,-0.54 -1.11,-0.68 -1.02,-0.81 -0.91,-0.92 -0.80,-1.03 -0.66,-1.11 -0.53,-1.20 -0.38,-1.24 -0.22,-1.29 -0.07,-1.30 0.08,-1.31 0.08,-1.31 L 0.08,-1.31 Z"/></g><g transform="translate(449.27349853515625 223.61180114746094) rotate(0 9.8590087890625 -1.0954437255859375)" stroke="none"><path fill="#1e1e1e" d="M -0.18,-1.30 Q -0.18,-1.30 1.87,-2.60 3.93,-3.91 6.04,-4.33 8.14,-4.75 10.56,-4.63 12.97,-4.51 15.83,-3.53 18.70,-2.54 18.90,-2.48 19.10,-2.42 19.28,-2.30 19.45,-2.18 19.58,-2.01 19.70,-1.83 19.77,-1.63 19.83,-1.43 19.83,-1.22 19.83,-1.00 19.76,-0.80 19.68,-0.60 19.55,-0.44 19.42,-0.27 19.24,-0.15 19.07,-0.04 18.86,0.01 18.66,0.06 18.44,0.05 18.23,0.03 18.04,-0.04 17.84,-0.12 17.68,-0.26 17.52,-0.40 17.41,-0.59 17.31,-0.77 17.26,-0.98 17.22,-1.19 17.25,-1.40 17.27,-1.61 17.37,-1.80 17.46,-1.99 17.61,-2.14 17.76,-2.30 17.94,-2.39 18.13,-2.49 18.34,-2.52 18.55,-2.55 18.76,-2.51 18.97,-2.48 19.16,-2.37 19.35,-2.27 19.49,-2.11 19.63,-1.96 19.72,-1.76 19.80,-1.57 19.82,-1.36 19.84,-1.15 19.79,-0.94 19.75,-0.73 19.63,-0.55 19.52,-0.37 19.36,-0.24 19.19,-0.10 18.99,-0.03 18.80,0.04 18.58,0.05 18.37,0.06 18.37,0.06 18.37,0.06 15.89,0.37 13.40,0.69 11.43,1.19 9.45,1.70 7.16,2.18 4.87,2.65 2.53,1.97 0.18,1.30 0.02,1.30 -0.13,1.30 -0.28,1.27 -0.43,1.23 -0.58,1.16 -0.72,1.09 -0.84,0.99 -0.96,0.89 -1.05,0.76 -1.14,0.63 -1.20,0.48 -1.26,0.34 -1.29,0.18 -1.31,0.02 -1.29,-0.12 -1.28,-0.28 -1.22,-0.43 -1.17,-0.58 -1.08,-0.71 -1.00,-0.85 -0.88,-0.95 -0.76,-1.06 -0.62,-1.14 -0.49,-1.21 -0.33,-1.25 -0.18,-1.30 -0.18,-1.30 L -0.18,-1.30 Z"/></g><g transform="translate(525.9546508789062 217.0391387939453) rotate(0 7.66815185546875 8.7635498046875)" stroke="none"><path fill="#1e1e1e" d="M 1.09,0.72 Q 1.09,0.72 -0.06,4.01 -1.22,7.30 -1.51,8.49 -1.79,9.67 -1.04,10.97 -0.30,12.27 1.50,12.70 3.31,13.13 6.34,12.54 9.36,11.96 12.75,10.22 16.14,8.49 17.61,7.61 19.07,6.74 19.26,6.66 19.46,6.58 19.67,6.57 19.89,6.56 20.09,6.62 20.30,6.67 20.47,6.79 20.65,6.91 20.78,7.08 20.90,7.25 20.97,7.45 21.04,7.65 21.04,7.87 21.04,8.08 20.97,8.28 20.90,8.48 20.77,8.65 20.64,8.82 20.47,8.94 20.29,9.06 20.09,9.11 19.88,9.17 19.67,9.16 19.46,9.15 19.26,9.07 19.06,8.99 18.90,8.85 18.74,8.71 18.63,8.53 18.52,8.35 18.48,8.14 18.43,7.93 18.45,7.72 18.48,7.51 18.57,7.32 18.66,7.13 18.80,6.97 18.95,6.82 19.14,6.72 19.33,6.62 19.54,6.58 19.75,6.55 19.95,6.59 20.16,6.62 20.35,6.72 20.54,6.82 20.69,6.97 20.83,7.13 20.92,7.32 21.01,7.51 21.03,7.73 21.05,7.94 21.01,8.14 20.96,8.35 20.85,8.53 20.74,8.72 20.58,8.85 20.42,8.99 20.42,8.99 20.42,8.99 18.96,9.87 17.50,10.74 14.01,13.14 10.52,15.53 6.25,17.24 1.99,18.95 -1.50,17.39 -5.00,15.82 -6.35,12.41 -7.71,8.99 -7.02,6.51 -6.33,4.02 -3.71,1.65 -1.09,-0.72 -0.98,-0.84 -0.88,-0.96 -0.75,-1.06 -0.62,-1.15 -0.48,-1.21 -0.33,-1.26 -0.17,-1.29 -0.02,-1.31 0.13,-1.29 0.29,-1.28 0.44,-1.22 0.59,-1.17 0.72,-1.08 0.85,-0.99 0.96,-0.88 1.06,-0.76 1.14,-0.62 1.22,-0.48 1.26,-0.33 1.30,-0.17 1.30,-0.02 1.30,0.13 1.27,0.29 1.23,0.44 1.16,0.58 1.09,0.72 1.09,0.72 L 1.09,0.72 Z"/></g><g transform="translate(547.8635864257812 218.1345672607422) rotate(0 1.643157958984375 8.215835571289062)" stroke="none"><path fill="#1e1e1e" d="M 1.09,0.72 Q 1.09,0.72 -0.06,4.04 -1.22,7.36 -1.90,8.57 -2.57,9.79 -1.40,10.80 -0.23,11.82 1.53,11.72 3.30,11.63 4.37,10.59 5.43,9.55 4.54,8.92 3.64,8.29 0.76,8.39 -2.11,8.49 -2.31,8.57 -2.50,8.65 -2.72,8.66 -2.93,8.67 -3.13,8.62 -3.34,8.56 -3.51,8.44 -3.69,8.32 -3.82,8.16 -3.95,7.99 -4.02,7.79 -4.09,7.58 -4.09,7.37 -4.09,7.16 -4.02,6.96 -3.96,6.76 -3.83,6.59 -3.70,6.42 -3.53,6.30 -3.35,6.18 -3.15,6.12 -2.94,6.06 -2.73,6.07 -2.52,6.08 -2.32,6.16 -2.12,6.24 -1.96,6.37 -1.80,6.51 -1.69,6.69 -1.58,6.87 -1.53,7.08 -1.48,7.29 -1.50,7.50 -1.53,7.71 -1.61,7.90 -1.70,8.10 -1.85,8.25 -1.99,8.41 -2.18,8.51 -2.37,8.61 -2.58,8.64 -2.79,8.68 -3.00,8.65 -3.21,8.61 -3.39,8.51 -3.58,8.42 -3.73,8.26 -3.88,8.11 -3.97,7.92 -4.06,7.72 -4.08,7.51 -4.10,7.30 -4.06,7.09 -4.02,6.89 -3.91,6.70 -3.80,6.52 -3.64,6.38 -3.48,6.24 -3.48,6.24 -3.48,6.24 -1.14,4.18 1.18,2.11 2.97,1.99 4.77,1.87 6.44,2.61 8.12,3.36 9.56,5.15 11.00,6.95 11.02,9.60 11.04,12.26 9.25,14.43 7.46,16.60 5.96,17.21 4.45,17.82 1.83,18.00 -0.77,18.17 -2.67,17.16 -4.57,16.14 -5.76,14.78 -6.95,13.42 -7.57,11.15 -8.19,8.87 -7.26,6.42 -6.33,3.97 -3.71,1.62 -1.09,-0.72 -0.98,-0.84 -0.88,-0.96 -0.75,-1.06 -0.62,-1.15 -0.48,-1.21 -0.33,-1.26 -0.17,-1.29 -0.02,-1.31 0.13,-1.29 0.29,-1.28 0.44,-1.22 0.59,-1.17 0.72,-1.08 0.85,-0.99 0.96,-0.88 1.06,-0.76 1.14,-0.62 1.22,-0.48 1.26,-0.33 1.30,-0.17 1.30,-0.02 1.30,0.13 1.27,0.29 1.23,0.44 1.16,0.58 1.09,0.72 1.09,0.72 L 1.09,0.72 Z"/></g><g transform="translate(578.5360107421875 166.64866638183594) rotate(0 2.190887451171875 32.86334228515625)" stroke="none"><path fill="#1e1e1e" d="M 1.31,-0.04 Q 1.31,-0.04 2.66,9.36 4.02,18.78 4.15,24.70 4.29,30.62 4.84,37.43 5.39,44.23 5.17,49.76 4.95,55.30 5.23,59.53 5.52,63.75 5.51,63.97 5.49,64.18 5.41,64.37 5.33,64.57 5.18,64.73 5.04,64.89 4.86,64.99 4.67,65.10 4.47,65.14 4.26,65.18 4.05,65.15 3.84,65.13 3.65,65.03 3.45,64.94 3.30,64.79 3.15,64.64 3.06,64.45 2.96,64.26 2.93,64.05 2.90,63.84 2.94,63.63 2.98,63.42 3.08,63.24 3.19,63.05 3.34,62.91 3.50,62.77 3.70,62.68 3.89,62.60 4.10,62.58 4.31,62.56 4.52,62.61 4.73,62.66 4.91,62.77 5.09,62.89 5.22,63.05 5.35,63.22 5.43,63.41 5.50,63.61 5.51,63.83 5.52,64.04 5.46,64.24 5.39,64.44 5.27,64.62 5.15,64.79 4.98,64.92 4.80,65.04 4.60,65.10 4.40,65.17 4.19,65.16 3.97,65.16 3.77,65.09 3.57,65.01 3.41,64.88 3.24,64.75 3.13,64.57 3.01,64.39 2.96,64.19 2.91,63.98 2.91,63.98 2.91,63.98 2.46,59.80 2.01,55.62 0.58,50.24 -0.85,44.85 -1.67,37.81 -2.49,30.78 -2.63,24.89 -2.76,19.00 -2.03,9.52 -1.31,0.04 -1.29,-0.11 -1.28,-0.27 -1.23,-0.42 -1.18,-0.57 -1.09,-0.70 -1.01,-0.83 -0.89,-0.94 -0.78,-1.05 -0.64,-1.13 -0.50,-1.21 -0.35,-1.25 -0.20,-1.29 -0.04,-1.30 0.11,-1.30 0.26,-1.27 0.42,-1.24 0.56,-1.17 0.70,-1.10 0.83,-1.00 0.95,-0.90 1.04,-0.77 1.14,-0.64 1.20,-0.50 1.26,-0.35 1.28,-0.20 1.31,-0.04 1.31,-0.04 L 1.31,-0.04 Z"/></g><g transform="translate(574.1542358398438 221.42091369628906) rotate(0 14.78851318359375 -12.049896240234375)" stroke="none"><path fill="#1e1e1e" d="M -0.82,-1.01 Q -0.82,-1.01 7.67,-7.94 16.17,-14.87 19.79,-17.82 23.40,-20.76 23.58,-20.87 23.77,-20.97 23.98,-21.01 24.19,-21.05 24.40,-21.03 24.61,-21.00 24.80,-20.91 24.99,-20.81 25.14,-20.66 25.29,-20.51 25.39,-20.33 25.48,-20.14 25.51,-19.93 25.54,-19.71 25.50,-19.51 25.47,-19.30 25.36,-19.11 25.26,-18.93 25.10,-18.78 24.94,-18.64 24.75,-18.55 24.55,-18.47 24.34,-18.45 24.13,-18.43 23.93,-18.48 23.72,-18.53 23.54,-18.65 23.36,-18.76 23.22,-18.92 23.09,-19.09 23.02,-19.29 22.94,-19.49 22.93,-19.70 22.93,-19.91 22.99,-20.11 23.05,-20.32 23.17,-20.49 23.30,-20.66 23.47,-20.79 23.64,-20.91 23.84,-20.98 24.04,-21.04 24.26,-21.04 24.47,-21.03 24.67,-20.96 24.87,-20.89 25.04,-20.76 25.20,-20.63 25.32,-20.45 25.43,-20.27 25.49,-20.06 25.54,-19.86 25.52,-19.64 25.51,-19.43 25.42,-19.24 25.34,-19.04 25.20,-18.88 25.06,-18.72 25.06,-18.72 25.06,-18.72 21.45,-15.78 17.83,-12.83 9.33,-5.91 0.82,1.01 0.69,1.10 0.56,1.18 0.41,1.23 0.26,1.28 0.10,1.29 -0.05,1.31 -0.21,1.28 -0.36,1.26 -0.51,1.19 -0.65,1.13 -0.78,1.04 -0.91,0.94 -1.01,0.82 -1.11,0.70 -1.17,0.55 -1.24,0.41 -1.27,0.25 -1.30,0.10 -1.30,-0.05 -1.29,-0.21 -1.25,-0.36 -1.20,-0.51 -1.12,-0.65 -1.04,-0.79 -0.93,-0.90 -0.82,-1.01 -0.82,-1.01 L -0.82,-1.01 Z"/></g><g transform="translate(604.8267211914062 214.84825134277344) rotate(0 13.14532470703125 9.311279296875)" stroke="none"><path fill="#1e1e1e" d="M 0.83,-1.01 Q 0.83,-1.01 6.81,2.63 12.79,6.28 16.05,9.75 19.31,13.21 22.39,14.96 25.48,16.70 25.64,16.83 25.81,16.96 25.93,17.14 26.05,17.31 26.11,17.52 26.17,17.72 26.16,17.93 26.14,18.15 26.07,18.34 25.99,18.54 25.85,18.70 25.71,18.86 25.53,18.97 25.35,19.08 25.14,19.13 24.93,19.18 24.72,19.15 24.51,19.13 24.32,19.04 24.13,18.95 23.97,18.81 23.82,18.66 23.72,18.47 23.62,18.29 23.58,18.08 23.55,17.87 23.58,17.66 23.62,17.45 23.72,17.26 23.82,17.07 23.97,16.92 24.12,16.78 24.32,16.69 24.51,16.60 24.72,16.58 24.93,16.55 25.14,16.60 25.35,16.64 25.53,16.75 25.71,16.86 25.85,17.02 25.99,17.19 26.07,17.38 26.14,17.58 26.16,17.79 26.17,18.01 26.11,18.21 26.05,18.42 25.94,18.59 25.82,18.77 25.65,18.90 25.48,19.02 25.28,19.09 25.08,19.16 24.86,19.16 24.65,19.16 24.45,19.09 24.25,19.03 24.25,19.03 24.25,19.03 20.87,17.36 17.50,15.69 13.06,13.52 8.62,11.34 3.89,6.18 -0.83,1.01 -0.94,0.89 -1.05,0.78 -1.13,0.64 -1.21,0.50 -1.25,0.35 -1.29,0.20 -1.30,0.04 -1.30,-0.11 -1.27,-0.26 -1.24,-0.42 -1.17,-0.56 -1.10,-0.70 -1.00,-0.82 -0.90,-0.95 -0.77,-1.04 -0.65,-1.14 -0.50,-1.20 -0.35,-1.26 -0.20,-1.28 -0.04,-1.31 0.11,-1.29 0.26,-1.28 0.41,-1.23 0.56,-1.18 0.70,-1.09 0.83,-1.01 0.83,-1.01 L 0.83,-1.01 Z"/></g><g transform="translate(627.8310546875 214.84825134277344) rotate(0 -10.40673828125 11.502166748046875)" stroke="none"><path fill="#1e1e1e" d="M 0.86,0.98 Q 0.86,0.98 -4.09,6.14 -9.05,11.30 -12.26,14.66 -15.46,18.02 -16.70,19.68 -17.93,21.34 -18.08,21.48 -18.24,21.63 -18.43,21.72 -18.62,21.81 -18.83,21.84 -19.04,21.86 -19.25,21.82 -19.46,21.78 -19.64,21.67 -19.82,21.56 -19.96,21.40 -20.10,21.24 -20.18,21.04 -20.26,20.85 -20.28,20.63 -20.29,20.42 -20.24,20.22 -20.18,20.01 -20.06,19.83 -19.94,19.66 -19.78,19.53 -19.61,19.40 -19.41,19.33 -19.21,19.26 -19.00,19.25 -18.78,19.25 -18.58,19.32 -18.38,19.38 -18.21,19.51 -18.04,19.64 -17.92,19.81 -17.80,19.99 -17.74,20.19 -17.68,20.40 -17.69,20.61 -17.70,20.82 -17.77,21.02 -17.85,21.22 -17.99,21.38 -18.12,21.54 -18.30,21.66 -18.49,21.77 -18.69,21.81 -18.90,21.86 -19.11,21.84 -19.32,21.82 -19.52,21.73 -19.71,21.64 -19.87,21.50 -20.02,21.36 -20.12,21.17 -20.22,20.98 -20.26,20.77 -20.30,20.56 -20.26,20.35 -20.23,20.14 -20.13,19.95 -20.04,19.77 -20.04,19.77 -20.04,19.77 -18.80,18.11 -17.57,16.45 -14.96,12.02 -12.35,7.59 -6.61,3.30 -0.86,-0.98 -0.73,-1.07 -0.60,-1.16 -0.45,-1.21 -0.31,-1.27 -0.15,-1.29 0.00,-1.31 0.15,-1.29 0.31,-1.27 0.46,-1.21 0.61,-1.16 0.74,-1.07 0.87,-0.98 0.97,-0.86 1.08,-0.74 1.15,-0.60 1.22,-0.46 1.26,-0.30 1.30,-0.15 1.30,0.00 1.30,0.16 1.26,0.31 1.22,0.46 1.15,0.60 1.07,0.74 0.97,0.86 0.86,0.98 0.86,0.98 L 0.86,0.98 Z"/></g><g transform="translate(16.572662353515625 395.59666442871094) rotate(0 6.5726776123046875 27.933868408203125)" stroke="none"><path fill="#1e1e1e" d="M 1.30,0.13 Q 1.30,0.13 1.89,3.32 2.48,6.51 3.98,8.00 5.49,9.48 7.34,8.66 9.19,7.85 11.02,5.98 12.86,4.11 14.06,2.70 15.27,1.28 15.84,0.29 16.40,-0.68 16.70,-0.95 16.99,-1.21 17.33,-1.40 17.68,-1.58 18.06,-1.68 18.44,-1.78 18.83,-1.78 19.22,-1.79 19.61,-1.70 19.99,-1.61 20.34,-1.43 20.69,-1.25 20.98,-0.99 21.28,-0.73 21.50,-0.41 21.73,-0.09 21.87,0.26 22.02,0.63 22.07,1.02 22.12,1.41 22.07,1.80 22.03,2.19 21.90,2.56 21.76,2.92 21.54,3.25 21.32,3.57 21.42,5.17 21.53,6.76 21.42,9.79 21.30,12.83 21.24,17.00 21.19,21.18 21.47,23.71 21.74,26.24 21.87,29.73 22.00,33.22 22.04,36.90 22.08,40.58 21.77,43.92 21.45,47.27 20.13,50.21 18.80,53.14 15.95,55.11 13.10,57.07 9.13,56.87 5.17,56.66 3.00,56.11 0.82,55.57 -1.79,53.77 -4.42,51.97 -5.76,49.46 -7.10,46.95 -7.43,45.08 -7.76,43.20 -6.84,39.25 -5.93,35.31 -5.86,35.11 -5.80,34.91 -5.67,34.74 -5.54,34.57 -5.36,34.45 -5.19,34.33 -4.98,34.27 -4.78,34.22 -4.56,34.23 -4.35,34.24 -4.15,34.32 -3.96,34.40 -3.80,34.54 -3.63,34.67 -3.52,34.86 -3.42,35.04 -3.37,35.25 -3.32,35.45 -3.35,35.66 -3.37,35.88 -3.46,36.07 -3.55,36.26 -3.70,36.42 -3.84,36.57 -4.03,36.67 -4.22,36.77 -4.43,36.80 -4.64,36.84 -4.85,36.80 -5.06,36.77 -5.25,36.67 -5.43,36.57 -5.58,36.41 -5.72,36.26 -5.81,36.07 -5.90,35.87 -5.93,35.66 -5.95,35.45 -5.90,35.24 -5.86,35.03 -5.75,34.85 -5.64,34.67 -5.47,34.53 -5.31,34.40 -5.11,34.32 -4.92,34.24 -4.70,34.23 -4.49,34.22 -4.29,34.27 -4.08,34.33 -3.91,34.45 -3.73,34.57 -3.60,34.74 -3.47,34.91 -3.41,35.11 -3.34,35.31 -3.34,35.53 -3.34,35.74 -3.34,35.74 -3.34,35.74 -3.61,38.91 -3.87,42.08 -3.18,43.06 -2.49,44.05 -1.43,45.31 -0.37,46.56 1.15,47.70 2.69,48.83 4.39,49.25 6.08,49.68 8.25,50.27 10.41,50.87 11.62,50.27 12.83,49.68 13.65,48.07 14.46,46.47 14.73,43.57 15.00,40.68 14.94,37.08 14.87,33.48 14.75,30.23 14.64,26.99 14.34,24.03 14.04,21.08 14.11,16.79 14.17,12.51 14.36,8.97 14.54,5.43 14.87,3.73 15.20,2.03 15.80,0.67 16.40,-0.68 16.70,-0.95 16.99,-1.21 17.33,-1.40 17.68,-1.58 18.06,-1.68 18.44,-1.78 18.83,-1.78 19.22,-1.79 19.60,-1.70 19.99,-1.61 20.34,-1.43 20.69,-1.25 20.98,-0.99 21.28,-0.73 21.50,-0.41 21.73,-0.09 21.87,0.26 22.02,0.63 22.07,1.02 22.12,1.41 22.07,1.80 22.03,2.19 21.90,2.56 21.76,2.92 21.54,3.25 21.32,3.57 20.74,4.54 20.16,5.50 18.66,7.21 17.16,8.91 14.11,11.41 11.06,13.91 7.34,14.48 3.63,15.05 0.65,12.99 -2.32,10.93 -3.03,8.50 -3.73,6.07 -2.52,2.97 -1.30,-0.13 -1.27,-0.28 -1.23,-0.43 -1.16,-0.58 -1.09,-0.72 -0.99,-0.84 -0.89,-0.96 -0.76,-1.05 -0.63,-1.14 -0.48,-1.20 -0.34,-1.26 -0.18,-1.29 -0.02,-1.31 0.12,-1.29 0.28,-1.28 0.43,-1.22 0.58,-1.17 0.71,-1.08 0.84,-1.00 0.95,-0.88 1.06,-0.76 1.14,-0.63 1.21,-0.49 1.25,-0.33 1.30,-0.18 1.30,-0.02 1.30,0.13 1.30,0.13 L 1.30,0.13 Z"/></g><g transform="translate(49.436004638671875 345.2062225341797) rotate(0 2.1909027099609375 11.502166748046875)" stroke="none"><path fill="#1e1e1e" d="M 1.26,-0.36 Q 1.26,-0.36 2.76,1.59 4.26,3.55 4.82,6.50 5.37,9.45 5.60,12.64 5.82,15.83 5.67,18.72 5.53,21.62 5.52,21.83 5.51,22.04 5.44,22.24 5.36,22.44 5.23,22.60 5.09,22.77 4.91,22.88 4.73,22.99 4.52,23.04 4.32,23.09 4.10,23.07 3.89,23.05 3.70,22.96 3.50,22.88 3.35,22.73 3.19,22.59 3.09,22.40 2.99,22.21 2.95,22.01 2.91,21.80 2.94,21.59 2.98,21.38 3.07,21.19 3.17,21.00 3.32,20.85 3.47,20.70 3.67,20.61 3.86,20.52 4.07,20.49 4.28,20.47 4.49,20.51 4.70,20.55 4.88,20.66 5.06,20.77 5.20,20.93 5.34,21.09 5.42,21.28 5.51,21.48 5.52,21.69 5.53,21.90 5.48,22.11 5.43,22.31 5.31,22.49 5.19,22.67 5.03,22.80 4.86,22.93 4.66,23.00 4.46,23.07 4.24,23.07 4.03,23.08 3.83,23.01 3.63,22.95 3.46,22.82 3.29,22.69 3.16,22.52 3.04,22.35 2.98,22.14 2.92,21.94 2.92,21.94 2.92,21.94 2.10,19.30 1.27,16.65 0.37,13.66 -0.52,10.67 -1.13,7.96 -1.74,5.26 -1.50,2.81 -1.26,0.36 -1.28,0.20 -1.31,0.04 -1.29,-0.10 -1.28,-0.26 -1.23,-0.41 -1.18,-0.56 -1.09,-0.70 -1.01,-0.83 -0.89,-0.94 -0.78,-1.05 -0.64,-1.13 -0.51,-1.21 -0.35,-1.25 -0.20,-1.29 -0.04,-1.30 0.11,-1.30 0.26,-1.27 0.42,-1.24 0.56,-1.17 0.70,-1.10 0.82,-1.00 0.95,-0.90 1.04,-0.77 1.13,-0.65 1.20,-0.50 1.26,-0.36 1.26,-0.36 L 1.26,-0.36 Z"/></g><g transform="translate(61.48590087890625 341.91990661621094) rotate(0 2.1909027099609375 13.14532470703125)" stroke="none"><path fill="#1e1e1e" d="M 1.29,-0.23 Q 1.29,-0.23 2.71,3.08 4.14,6.40 4.42,8.58 4.70,10.76 5.05,13.85 5.40,16.94 5.46,18.62 5.53,20.30 5.47,22.63 5.41,24.95 5.42,25.16 5.44,25.37 5.39,25.58 5.33,25.79 5.22,25.96 5.10,26.14 4.93,26.27 4.77,26.41 4.57,26.48 4.37,26.55 4.15,26.55 3.94,26.56 3.74,26.49 3.54,26.43 3.37,26.30 3.19,26.18 3.07,26.00 2.95,25.83 2.89,25.63 2.83,25.42 2.84,25.21 2.84,25.00 2.92,24.80 2.99,24.60 3.13,24.44 3.26,24.27 3.44,24.16 3.62,24.05 3.83,24.00 4.04,23.95 4.25,23.97 4.46,23.98 4.65,24.07 4.85,24.16 5.00,24.30 5.16,24.44 5.26,24.63 5.37,24.81 5.41,25.02 5.44,25.23 5.41,25.44 5.38,25.65 5.29,25.84 5.19,26.03 5.04,26.18 4.89,26.33 4.70,26.42 4.50,26.52 4.29,26.54 4.08,26.57 3.87,26.53 3.67,26.49 3.48,26.38 3.30,26.27 3.16,26.11 3.02,25.95 2.94,25.76 2.85,25.56 2.85,25.56 2.85,25.56 1.68,23.22 0.50,20.87 0.20,19.29 -0.09,17.70 -0.60,14.60 -1.11,11.50 -1.36,9.47 -1.62,7.45 -1.45,3.84 -1.29,0.23 -1.30,0.07 -1.31,-0.08 -1.28,-0.23 -1.25,-0.39 -1.18,-0.53 -1.12,-0.68 -1.02,-0.80 -0.92,-0.92 -0.80,-1.02 -0.67,-1.12 -0.53,-1.18 -0.38,-1.25 -0.23,-1.28 -0.07,-1.31 0.08,-1.30 0.23,-1.29 0.38,-1.24 0.54,-1.19 0.67,-1.11 0.81,-1.03 0.92,-0.92 1.03,-0.80 1.11,-0.67 1.19,-0.53 1.24,-0.38 1.29,-0.23 1.29,-0.23 L 1.29,-0.23 Z"/></g><g transform="translate(80.10848999023438 396.69212341308594) rotate(0 10.954452514648438 0)" stroke="none"><path fill="#1e1e1e" d="M 0.21,-1.29 Q 0.21,-1.29 2.26,-2.02 4.32,-2.75 6.62,-2.98 8.92,-3.22 11.06,-3.29 13.20,-3.36 14.81,-3.53 16.41,-3.71 18.86,-3.03 21.31,-2.36 21.52,-2.34 21.73,-2.33 21.93,-2.24 22.12,-2.16 22.28,-2.01 22.44,-1.87 22.54,-1.69 22.65,-1.50 22.69,-1.29 22.73,-1.09 22.70,-0.87 22.67,-0.66 22.57,-0.47 22.48,-0.28 22.33,-0.13 22.18,0.01 21.99,0.10 21.80,0.19 21.59,0.22 21.38,0.25 21.17,0.21 20.96,0.17 20.77,0.07 20.59,-0.03 20.45,-0.19 20.31,-0.34 20.22,-0.54 20.14,-0.74 20.12,-0.95 20.11,-1.16 20.16,-1.37 20.21,-1.57 20.32,-1.75 20.44,-1.93 20.60,-2.06 20.77,-2.19 20.97,-2.27 21.17,-2.34 21.38,-2.35 21.59,-2.35 21.80,-2.29 22.00,-2.23 22.17,-2.10 22.34,-1.98 22.47,-1.81 22.59,-1.63 22.65,-1.43 22.72,-1.23 22.71,-1.01 22.70,-0.80 22.63,-0.60 22.56,-0.40 22.42,-0.24 22.29,-0.07 22.11,0.03 21.93,0.15 21.73,0.20 21.52,0.25 21.52,0.25 21.52,0.25 19.56,1.40 17.60,2.54 15.53,3.07 13.47,3.59 11.43,3.67 9.39,3.76 6.31,3.88 3.23,4.01 1.51,2.65 -0.21,1.29 -0.36,1.25 -0.51,1.20 -0.65,1.12 -0.79,1.04 -0.90,0.93 -1.02,0.82 -1.10,0.69 -1.18,0.55 -1.23,0.40 -1.28,0.25 -1.29,0.09 -1.31,-0.05 -1.28,-0.21 -1.25,-0.37 -1.19,-0.51 -1.13,-0.66 -1.03,-0.78 -0.94,-0.91 -0.82,-1.01 -0.69,-1.11 -0.55,-1.18 -0.41,-1.24 -0.25,-1.27 -0.10,-1.30 0.05,-1.30 0.21,-1.29 0.21,-1.29 L 0.21,-1.29 Z"/></g><g transform="translate(82.29937744140625 408.74205017089844) rotate(0 10.954452514648438 -2.190887451171875)" stroke="none"><path fill="#1e1e1e" d="M -0.14,-1.30 Q -0.14,-1.30 2.56,-2.70 5.28,-4.09 7.18,-4.23 9.08,-4.37 10.94,-4.66 12.80,-4.94 16.61,-5.13 20.43,-5.31 20.64,-5.34 20.85,-5.36 21.06,-5.32 21.27,-5.28 21.45,-5.17 21.63,-5.07 21.77,-4.91 21.91,-4.75 21.99,-4.55 22.08,-4.35 22.09,-4.14 22.10,-3.93 22.05,-3.72 22.00,-3.52 21.88,-3.34 21.76,-3.16 21.60,-3.03 21.43,-2.90 21.23,-2.83 21.03,-2.76 20.81,-2.76 20.60,-2.75 20.40,-2.82 20.20,-2.88 20.03,-3.01 19.86,-3.14 19.73,-3.31 19.61,-3.48 19.55,-3.69 19.49,-3.89 19.50,-4.10 19.51,-4.32 19.59,-4.52 19.66,-4.71 19.80,-4.88 19.93,-5.04 20.11,-5.15 20.29,-5.27 20.50,-5.31 20.71,-5.36 20.92,-5.34 21.13,-5.32 21.32,-5.24 21.52,-5.15 21.68,-5.01 21.83,-4.86 21.93,-4.68 22.04,-4.49 22.07,-4.28 22.11,-4.07 22.08,-3.86 22.05,-3.65 21.95,-3.46 21.85,-3.27 21.70,-3.12 21.55,-2.98 21.36,-2.88 21.17,-2.79 21.17,-2.79 21.17,-2.79 19.05,-1.24 16.93,0.30 15.48,0.98 14.03,1.66 11.81,2.12 9.59,2.58 7.82,2.70 6.05,2.83 3.09,2.07 0.14,1.30 -0.01,1.30 -0.17,1.30 -0.32,1.26 -0.47,1.22 -0.61,1.14 -0.75,1.07 -0.87,0.96 -0.99,0.86 -1.08,0.72 -1.16,0.59 -1.22,0.44 -1.27,0.30 -1.29,0.14 -1.31,-0.01 -1.29,-0.17 -1.27,-0.32 -1.21,-0.47 -1.15,-0.62 -1.06,-0.75 -0.97,-0.88 -0.85,-0.98 -0.73,-1.08 -0.59,-1.16 -0.45,-1.23 -0.29,-1.26 -0.14,-1.30 -0.14,-1.30 L -0.14,-1.30 Z"/></g><g transform="translate(130.49896240234375 372.5923309326172) rotate(0 8.7635498046875 -1.095428466796875)" stroke="none"><path fill="#1e1e1e" d="M 0,-1.31 Q 0,-1.31 2.51,-2.13 5.03,-2.96 6.46,-3.25 7.90,-3.54 10.07,-3.39 12.24,-3.24 14.26,-3.23 16.28,-3.23 16.49,-3.24 16.70,-3.26 16.91,-3.21 17.11,-3.16 17.29,-3.05 17.47,-2.93 17.60,-2.77 17.74,-2.60 17.81,-2.40 17.89,-2.20 17.89,-1.99 17.90,-1.78 17.84,-1.58 17.78,-1.37 17.65,-1.20 17.53,-1.03 17.36,-0.90 17.18,-0.78 16.98,-0.71 16.78,-0.65 16.57,-0.66 16.35,-0.66 16.15,-0.73 15.95,-0.81 15.79,-0.94 15.62,-1.07 15.51,-1.25 15.39,-1.43 15.34,-1.64 15.29,-1.84 15.30,-2.05 15.32,-2.26 15.40,-2.46 15.49,-2.66 15.63,-2.81 15.77,-2.97 15.96,-3.08 16.14,-3.18 16.35,-3.22 16.56,-3.26 16.77,-3.24 16.98,-3.21 17.17,-3.12 17.36,-3.02 17.51,-2.87 17.66,-2.72 17.76,-2.53 17.85,-2.34 17.88,-2.13 17.91,-1.92 17.87,-1.71 17.83,-1.50 17.73,-1.32 17.62,-1.13 17.47,-0.99 17.31,-0.85 17.11,-0.76 16.92,-0.68 16.92,-0.68 16.92,-0.68 14.74,0.38 12.57,1.44 10.77,1.86 8.97,2.28 7.01,2.62 5.04,2.96 2.52,2.13 0,1.31 -0.15,1.29 -0.31,1.27 -0.46,1.21 -0.61,1.16 -0.74,1.07 -0.87,0.98 -0.97,0.86 -1.08,0.74 -1.15,0.60 -1.22,0.46 -1.26,0.31 -1.30,0.15 -1.30,-0.00 -1.30,-0.15 -1.26,-0.31 -1.22,-0.46 -1.15,-0.60 -1.08,-0.74 -0.97,-0.86 -0.87,-0.98 -0.74,-1.07 -0.61,-1.16 -0.46,-1.21 -0.31,-1.27 -0.15,-1.29 0.00,-1.31 0.00,-1.31 L 0,-1.31 Z"/></g><g transform="translate(160.07598876953125 372.5923309326172) rotate(0 7.668121337890625 -18.62255859375)" stroke="none"><path fill="#1e1e1e" d="M -1.16,-0.61 Q -1.16,-0.61 1.32,-6.94 3.81,-13.27 5.44,-16.70 7.07,-20.14 8.36,-23.42 9.66,-26.71 10.16,-28.63 10.67,-30.56 11.18,-32.44 11.69,-34.31 11.84,-35.43 11.99,-36.54 12.14,-36.89 12.30,-37.23 12.53,-37.53 12.76,-37.83 13.05,-38.06 13.35,-38.30 13.69,-38.45 14.03,-38.61 14.40,-38.68 14.77,-38.75 15.15,-38.73 15.53,-38.71 15.89,-38.60 16.25,-38.49 16.57,-38.30 16.90,-38.10 17.16,-37.84 17.43,-37.57 17.63,-37.25 17.83,-36.93 17.94,-36.57 18.05,-36.21 18.08,-35.84 18.10,-35.46 18.04,-35.09 17.97,-34.72 17.90,-31.95 17.82,-29.19 17.71,-27.07 17.60,-24.96 17.40,-21.57 17.21,-18.19 15.93,-13.81 14.66,-9.43 14.60,-9.22 14.54,-9.02 14.42,-8.84 14.30,-8.67 14.13,-8.54 13.96,-8.41 13.76,-8.34 13.56,-8.28 13.35,-8.28 13.14,-8.28 12.94,-8.35 12.73,-8.41 12.57,-8.54 12.40,-8.67 12.28,-8.85 12.16,-9.02 12.10,-9.23 12.05,-9.43 12.06,-9.65 12.07,-9.86 12.15,-10.05 12.23,-10.25 12.37,-10.41 12.50,-10.58 12.69,-10.68 12.87,-10.79 13.08,-10.84 13.28,-10.88 13.49,-10.86 13.71,-10.84 13.90,-10.75 14.09,-10.66 14.24,-10.51 14.40,-10.37 14.50,-10.18 14.60,-9.99 14.63,-9.78 14.66,-9.57 14.63,-9.36 14.60,-9.15 14.50,-8.96 14.40,-8.78 14.24,-8.63 14.09,-8.48 13.89,-8.40 13.70,-8.31 13.49,-8.28 13.28,-8.26 13.07,-8.31 12.86,-8.35 12.68,-8.46 12.50,-8.57 12.36,-8.74 12.22,-8.90 12.15,-9.10 12.07,-9.29 12.06,-9.50 12.05,-9.72 12.05,-9.72 12.05,-9.72 11.73,-14.00 11.41,-18.28 11.31,-21.79 11.22,-25.30 11.34,-27.54 11.46,-29.78 11.92,-31.91 12.38,-34.04 12.18,-35.29 11.99,-36.54 12.14,-36.89 12.30,-37.23 12.53,-37.53 12.76,-37.83 13.05,-38.06 13.35,-38.30 13.69,-38.45 14.03,-38.61 14.40,-38.68 14.77,-38.75 15.15,-38.73 15.53,-38.71 15.89,-38.60 16.25,-38.49 16.57,-38.30 16.90,-38.10 17.16,-37.84 17.43,-37.57 17.63,-37.25 17.83,-36.93 17.94,-36.57 18.05,-36.21 18.08,-35.84 18.10,-35.46 18.04,-35.09 17.97,-34.72 17.65,-33.66 17.33,-32.59 16.73,-30.83 16.13,-29.06 15.50,-26.86 14.87,-24.65 13.50,-21.20 12.13,-17.74 10.46,-14.20 8.78,-10.65 4.97,-5.02 1.16,0.61 1.07,0.74 0.98,0.87 0.86,0.97 0.74,1.08 0.60,1.15 0.46,1.22 0.31,1.26 0.15,1.30 -0.00,1.30 -0.15,1.30 -0.31,1.26 -0.46,1.22 -0.60,1.15 -0.74,1.07 -0.86,0.97 -0.98,0.86 -1.07,0.73 -1.16,0.60 -1.21,0.46 -1.27,0.31 -1.29,0.15 -1.31,-0.00 -1.29,-0.15 -1.27,-0.31 -1.21,-0.46 -1.16,-0.61 -1.16,-0.61 L -1.16,-0.61 Z"/></g><g transform="translate(139.26251220703125 387.92857360839844) rotate(0 35.601959228515625 -5.47723388671875)" stroke="none"><path fill="#1e1e1e" d="M -0.41,-1.24 Q -0.41,-1.24 2.09,-3.18 4.59,-5.12 9.20,-5.96 13.80,-6.81 18.33,-7.15 22.86,-7.49 28.90,-7.63 34.94,-7.78 41.09,-8.44 47.25,-9.11 50.92,-9.37 54.60,-9.63 57.97,-9.81 61.34,-9.98 65.16,-10.72 68.99,-11.45 69.19,-11.50 69.40,-11.55 69.61,-11.53 69.82,-11.51 70.02,-11.42 70.21,-11.34 70.37,-11.19 70.52,-11.05 70.63,-10.86 70.73,-10.68 70.77,-10.47 70.80,-10.26 70.77,-10.05 70.74,-9.84 70.65,-9.65 70.55,-9.46 70.40,-9.31 70.24,-9.16 70.05,-9.07 69.86,-8.98 69.65,-8.95 69.44,-8.93 69.23,-8.97 69.02,-9.01 68.84,-9.12 68.66,-9.23 68.52,-9.38 68.38,-9.54 68.29,-9.74 68.21,-9.94 68.20,-10.15 68.18,-10.36 68.24,-10.57 68.29,-10.77 68.41,-10.95 68.52,-11.13 68.69,-11.26 68.86,-11.39 69.06,-11.46 69.26,-11.53 69.47,-11.53 69.68,-11.54 69.89,-11.47 70.09,-11.41 70.26,-11.28 70.43,-11.16 70.55,-10.98 70.67,-10.81 70.73,-10.60 70.79,-10.40 70.79,-10.19 70.78,-9.98 70.70,-9.78 70.63,-9.58 70.49,-9.41 70.36,-9.25 70.18,-9.14 70.00,-9.03 70.00,-9.03 70.00,-9.03 66.07,-6.54 62.15,-4.05 58.66,-3.35 55.16,-2.64 51.59,-2.32 48.02,-2.00 41.56,-1.30 35.09,-0.59 29.23,-0.48 23.36,-0.37 19.15,-0.10 14.94,0.16 10.84,0.75 6.73,1.34 3.57,1.29 0.41,1.24 0.26,1.27 0.10,1.30 -0.05,1.30 -0.21,1.29 -0.36,1.25 -0.51,1.20 -0.65,1.12 -0.78,1.04 -0.90,0.93 -1.01,0.83 -1.10,0.69 -1.18,0.56 -1.23,0.41 -1.28,0.26 -1.29,0.10 -1.31,-0.05 -1.28,-0.20 -1.26,-0.36 -1.19,-0.51 -1.13,-0.65 -1.04,-0.78 -0.94,-0.91 -0.82,-1.01 -0.70,-1.11 -0.55,-1.17 -0.41,-1.24 -0.41,-1.24 L -0.41,-1.24 Z"/></g><g transform="translate(134.8807373046875 410.9329071044922) rotate(0 7.120391845703125 4.929534912109375)" stroke="none"><path fill="#1e1e1e" d="M -0.48,-1.21 Q -0.48,-1.21 0.88,-2.70 2.25,-4.20 4.93,-3.92 7.61,-3.65 9.83,-2.68 12.04,-1.71 13.75,0.58 15.46,2.89 15.32,5.94 15.18,8.99 13.21,10.83 11.24,12.67 9.00,12.87 6.77,13.07 4.21,11.71 1.65,10.35 1.47,10.25 1.28,10.14 1.14,9.99 0.99,9.83 0.90,9.64 0.82,9.44 0.80,9.23 0.78,9.02 0.83,8.81 0.87,8.61 0.99,8.43 1.10,8.25 1.26,8.11 1.43,7.98 1.62,7.90 1.82,7.82 2.03,7.81 2.25,7.81 2.45,7.87 2.65,7.92 2.83,8.05 3.00,8.17 3.13,8.34 3.26,8.51 3.32,8.71 3.39,8.91 3.38,9.13 3.38,9.34 3.31,9.54 3.24,9.74 3.11,9.91 2.98,10.07 2.80,10.19 2.62,10.31 2.42,10.36 2.21,10.42 2.00,10.40 1.79,10.39 1.59,10.31 1.40,10.23 1.24,10.09 1.08,9.95 0.97,9.76 0.86,9.58 0.82,9.37 0.78,9.16 0.80,8.95 0.83,8.74 0.92,8.55 1.01,8.36 1.16,8.21 1.31,8.05 1.50,7.96 1.69,7.86 1.90,7.83 2.11,7.80 2.31,7.83 2.52,7.87 2.52,7.87 2.52,7.87 4.49,8.10 6.45,8.33 7.94,7.76 9.44,7.18 9.23,5.48 9.02,3.78 7.71,3.18 6.40,2.57 5.22,2.13 4.04,1.68 2.26,1.45 0.48,1.21 0.33,1.26 0.18,1.30 0.02,1.30 -0.13,1.30 -0.28,1.27 -0.44,1.23 -0.58,1.16 -0.72,1.09 -0.84,0.99 -0.96,0.88 -1.05,0.75 -1.15,0.63 -1.21,0.48 -1.26,0.33 -1.29,0.18 -1.31,0.02 -1.29,-0.13 -1.28,-0.29 -1.22,-0.44 -1.17,-0.58 -1.08,-0.72 -0.99,-0.85 -0.88,-0.96 -0.76,-1.06 -0.62,-1.14 -0.48,-1.21 -0.48,-1.21 L -0.48,-1.21 Z"/></g><g transform="translate(154.5987548828125 413.1238250732422) rotate(0 4.38177490234375 6.572662353515625)" stroke="none"><path fill="#1e1e1e" d="M 1.30,-0.13 Q 1.30,-0.13 2.50,2.93 3.70,5.99 3.73,7.45 3.77,8.90 5.44,8.50 7.12,8.10 7.32,8.04 7.53,7.98 7.74,7.98 7.95,7.99 8.15,8.06 8.35,8.14 8.52,8.27 8.68,8.41 8.79,8.58 8.91,8.76 8.96,8.97 9.01,9.18 8.99,9.39 8.97,9.60 8.89,9.80 8.80,9.99 8.66,10.15 8.52,10.31 8.33,10.41 8.15,10.51 7.94,10.55 7.73,10.59 7.52,10.56 7.31,10.53 7.12,10.44 6.93,10.34 6.78,10.19 6.63,10.04 6.54,9.85 6.44,9.66 6.41,9.45 6.39,9.24 6.43,9.03 6.47,8.82 6.57,8.64 6.68,8.45 6.84,8.31 7.00,8.17 7.19,8.09 7.39,8.00 7.60,7.99 7.81,7.97 8.02,8.02 8.22,8.07 8.40,8.19 8.58,8.30 8.71,8.47 8.85,8.64 8.92,8.84 8.99,9.04 9.00,9.25 9.00,9.46 8.94,9.66 8.87,9.87 8.75,10.04 8.62,10.21 8.45,10.33 8.28,10.46 8.28,10.46 8.28,10.46 5.68,12.09 3.09,13.73 0.55,12.01 -1.97,10.30 -2.20,8.45 -2.44,6.60 -1.87,3.36 -1.30,0.13 -1.30,-0.02 -1.30,-0.18 -1.25,-0.33 -1.21,-0.49 -1.14,-0.63 -1.06,-0.76 -0.95,-0.88 -0.84,-1.00 -0.71,-1.08 -0.58,-1.17 -0.43,-1.22 -0.28,-1.28 -0.12,-1.29 0.02,-1.31 0.18,-1.29 0.34,-1.26 0.48,-1.20 0.63,-1.14 0.76,-1.05 0.89,-0.96 0.99,-0.84 1.09,-0.72 1.16,-0.58 1.23,-0.43 1.27,-0.28 1.30,-0.13 1.30,-0.13 L 1.30,-0.13 Z"/></g><g transform="translate(158.98052978515625 405.45567321777344) rotate(0 -0.5477294921875 -2.19085693359375)" stroke="none"><path fill="#1e1e1e" d="M -1.31,0 Q -1.31,0 -2.21,-1.51 -3.10,-3.02 -3.44,-3.75 -3.77,-4.48 -3.72,-4.86 -3.68,-5.24 -3.54,-5.59 -3.41,-5.94 -3.19,-6.26 -2.98,-6.57 -2.70,-6.82 -2.41,-7.07 -2.08,-7.25 -1.74,-7.42 -1.37,-7.51 -1.00,-7.60 -0.62,-7.60 -0.25,-7.60 0.11,-7.51 0.48,-7.42 0.82,-7.25 1.15,-7.07 1.44,-6.82 1.72,-6.57 1.93,-6.26 2.15,-5.94 2.28,-5.59 2.42,-5.24 2.46,-4.86 2.51,-4.48 1.90,-2.41 1.30,-0.33 1.27,-0.12 1.24,0.08 1.15,0.27 1.05,0.46 0.90,0.61 0.75,0.76 0.56,0.85 0.37,0.95 0.16,0.97 -0.04,1.00 -0.25,0.96 -0.46,0.92 -0.64,0.82 -0.83,0.71 -0.97,0.56 -1.11,0.40 -1.19,0.20 -1.28,0.01 -1.29,-0.19 -1.31,-0.41 -1.26,-0.61 -1.21,-0.82 -1.10,-1.00 -0.98,-1.18 -0.81,-1.31 -0.65,-1.44 -0.45,-1.52 -0.25,-1.59 -0.04,-1.59 0.16,-1.60 0.37,-1.54 0.57,-1.48 0.74,-1.35 0.92,-1.23 1.04,-1.06 1.16,-0.88 1.23,-0.68 1.29,-0.48 1.28,-0.26 1.28,-0.05 1.20,0.14 1.13,0.34 1.00,0.50 0.86,0.67 0.68,0.78 0.51,0.90 0.30,0.95 0.09,1.00 -0.11,0.98 -0.32,0.97 -0.52,0.88 -0.71,0.80 -0.87,0.65 -1.03,0.51 -1.13,0.33 -1.24,0.14 -1.28,-0.06 -1.32,-0.26 -1.32,-0.26 -1.32,-0.26 -2.54,-2.37 -3.77,-4.48 -3.72,-4.86 -3.68,-5.24 -3.54,-5.59 -3.41,-5.94 -3.19,-6.26 -2.98,-6.57 -2.70,-6.82 -2.41,-7.07 -2.08,-7.25 -1.74,-7.42 -1.37,-7.51 -1.00,-7.60 -0.63,-7.60 -0.25,-7.60 0.11,-7.51 0.48,-7.42 0.82,-7.25 1.15,-7.07 1.44,-6.82 1.72,-6.57 1.93,-6.26 2.15,-5.94 2.28,-5.59 2.42,-5.24 2.46,-4.86 2.51,-4.48 2.81,-3.88 3.10,-3.27 2.21,-1.63 1.31,0 1.29,0.15 1.27,0.31 1.21,0.46 1.16,0.61 1.07,0.74 0.98,0.87 0.86,0.97 0.74,1.08 0.60,1.15 0.46,1.22 0.31,1.26 0.15,1.30 -0.00,1.30 -0.15,1.30 -0.31,1.26 -0.46,1.22 -0.60,1.15 -0.74,1.08 -0.86,0.97 -0.98,0.87 -1.07,0.74 -1.16,0.61 -1.21,0.46 -1.27,0.31 -1.29,0.15 -1.31,-0.00 -1.31,-0.00 L -1.31,0 Z"/></g><g transform="translate(167.74407958984375 415.31468200683594) rotate(0 6.57269287109375 5.477264404296875)" stroke="none"><path fill="#1e1e1e" d="M 1.31,0 Q 1.31,0 2.02,2.20 2.73,4.40 2.75,5.97 2.76,7.54 2.78,9.25 2.80,10.96 2.76,11.30 2.72,11.63 2.60,11.95 2.48,12.27 2.29,12.55 2.10,12.82 1.84,13.05 1.59,13.27 1.29,13.43 0.99,13.59 0.66,13.67 0.33,13.75 -0.00,13.75 -0.33,13.75 -0.66,13.67 -0.99,13.59 -1.29,13.43 -1.59,13.27 -1.84,13.05 -2.10,12.82 -2.29,12.55 -2.48,12.27 -2.60,11.95 -2.72,11.63 -2.76,11.30 -2.80,10.96 -2.83,9.70 -2.86,8.43 -2.60,6.02 -2.35,3.62 -1.01,1.38 0.31,-0.84 2.65,-2.00 4.99,-3.17 7.04,-2.64 9.08,-2.11 10.74,0.53 12.40,3.17 13.02,6.65 13.65,10.12 13.71,10.32 13.77,10.53 13.77,10.74 13.76,10.95 13.69,11.15 13.62,11.35 13.49,11.52 13.35,11.68 13.17,11.80 13.00,11.91 12.79,11.97 12.58,12.02 12.37,12.00 12.16,11.98 11.96,11.90 11.77,11.82 11.61,11.68 11.45,11.53 11.35,11.35 11.24,11.16 11.20,10.96 11.16,10.75 11.19,10.54 11.22,10.33 11.31,10.14 11.40,9.95 11.55,9.79 11.70,9.64 11.89,9.55 12.08,9.45 12.29,9.43 12.51,9.40 12.71,9.44 12.92,9.47 13.11,9.58 13.29,9.68 13.44,9.84 13.58,10.00 13.66,10.19 13.75,10.39 13.76,10.60 13.78,10.81 13.73,11.02 13.68,11.22 13.57,11.40 13.45,11.58 13.29,11.72 13.12,11.85 12.92,11.92 12.72,12.00 12.51,12.00 12.30,12.01 12.10,11.95 11.89,11.89 11.72,11.76 11.55,11.64 11.42,11.47 11.30,11.30 11.30,11.30 11.30,11.30 8.89,8.71 6.49,6.12 5.87,4.64 5.25,3.17 4.43,3.99 3.61,4.81 3.23,6.62 2.86,8.44 2.83,9.70 2.80,10.96 2.76,11.30 2.72,11.63 2.60,11.95 2.48,12.27 2.29,12.55 2.10,12.82 1.84,13.05 1.59,13.27 1.29,13.43 0.99,13.59 0.66,13.67 0.33,13.75 0.00,13.75 -0.33,13.75 -0.66,13.67 -0.99,13.59 -1.29,13.43 -1.59,13.27 -1.84,13.05 -2.10,12.82 -2.29,12.55 -2.48,12.27 -2.60,11.95 -2.72,11.63 -2.76,11.30 -2.80,10.96 -2.78,9.25 -2.76,7.54 -2.75,5.97 -2.73,4.40 -2.02,2.20 -1.31,0 -1.29,-0.15 -1.27,-0.31 -1.21,-0.46 -1.16,-0.61 -1.07,-0.74 -0.98,-0.87 -0.86,-0.97 -0.74,-1.08 -0.60,-1.15 -0.46,-1.22 -0.31,-1.26 -0.15,-1.30 0.00,-1.30 0.15,-1.30 0.31,-1.26 0.46,-1.22 0.60,-1.15 0.74,-1.08 0.86,-0.97 0.98,-0.87 1.07,-0.74 1.16,-0.61 1.21,-0.46 1.27,-0.31 1.29,-0.15 1.31,0.00 1.31,0.00 L 1.31,0 Z"/></g><g transform="translate(179.79400634765625 395.59666442871094) rotate(0 9.311279296875 0.547760009765625)" stroke="none"><path fill="#1e1e1e" d="M -1.27,-0.31 Q -1.27,-0.31 -1.73,-1.85 -2.20,-3.39 -1.13,-4.83 -0.06,-6.28 0.93,-6.93 1.93,-7.59 4.21,-8.18 6.49,-8.78 7.82,-7.94 9.15,-7.10 9.72,-5.20 10.29,-3.29 9.62,-0.63 8.95,2.02 7.88,3.84 6.80,5.65 5.88,6.57 4.96,7.49 4.35,8.07 3.74,8.65 3.49,8.84 3.25,9.02 2.96,9.14 2.68,9.26 2.37,9.30 2.07,9.35 1.76,9.32 1.45,9.30 1.16,9.20 0.87,9.10 0.61,8.93 0.35,8.76 0.14,8.54 -0.06,8.32 -0.22,8.05 -0.37,7.78 -0.45,7.48 -0.54,7.19 -0.55,6.88 -0.56,6.57 -0.49,6.27 -0.43,5.97 -0.30,5.69 -0.16,5.41 0.03,5.17 0.22,4.94 2.28,4.71 4.34,4.49 5.51,4.51 6.67,4.54 8.82,5.04 10.97,5.55 14.01,5.50 17.06,5.45 17.27,5.46 17.48,5.46 17.68,5.54 17.88,5.61 18.04,5.75 18.21,5.88 18.32,6.06 18.44,6.24 18.49,6.44 18.54,6.65 18.52,6.86 18.50,7.07 18.42,7.27 18.33,7.46 18.19,7.62 18.05,7.78 17.86,7.88 17.68,7.99 17.47,8.03 17.26,8.07 17.05,8.04 16.84,8.01 16.65,7.91 16.46,7.82 16.31,7.67 16.16,7.52 16.07,7.33 15.97,7.14 15.94,6.93 15.92,6.71 15.96,6.51 16.00,6.30 16.10,6.11 16.21,5.93 16.37,5.79 16.52,5.65 16.72,5.56 16.92,5.48 17.13,5.46 17.34,5.44 17.55,5.50 17.75,5.55 17.93,5.66 18.11,5.78 18.24,5.94 18.37,6.11 18.45,6.31 18.52,6.51 18.53,6.72 18.53,6.93 18.47,7.14 18.40,7.34 18.28,7.51 18.16,7.68 17.98,7.81 17.81,7.93 17.61,7.99 17.40,8.06 17.40,8.06 17.40,8.06 14.15,8.85 10.90,9.64 8.58,10.06 6.26,10.48 5.00,9.56 3.74,8.65 3.49,8.84 3.25,9.02 2.96,9.14 2.68,9.26 2.37,9.30 2.07,9.35 1.76,9.32 1.45,9.30 1.16,9.20 0.87,9.10 0.61,8.93 0.35,8.76 0.14,8.54 -0.06,8.32 -0.22,8.05 -0.37,7.78 -0.45,7.48 -0.54,7.19 -0.55,6.88 -0.56,6.57 -0.49,6.27 -0.43,5.97 -0.30,5.69 -0.16,5.41 0.03,5.17 0.22,4.94 1.25,3.98 2.29,3.02 2.92,1.81 3.56,0.59 3.95,-0.88 4.34,-2.37 5.41,-2.90 6.47,-3.44 4.97,-2.54 3.46,-1.64 2.36,-0.66 1.27,0.31 1.21,0.46 1.16,0.61 1.07,0.74 0.98,0.87 0.86,0.97 0.74,1.08 0.60,1.15 0.46,1.22 0.30,1.26 0.15,1.30 -0.00,1.30 -0.16,1.30 -0.31,1.26 -0.46,1.22 -0.60,1.15 -0.74,1.07 -0.86,0.97 -0.98,0.86 -1.07,0.73 -1.16,0.60 -1.22,0.45 -1.27,0.30 -1.29,0.15 -1.31,-0.00 -1.29,-0.16 -1.27,-0.31 -1.27,-0.31 L -1.27,-0.31 Z"/></g><g transform="translate(201.702880859375 412.0283660888672) rotate(0 10.40673828125 2.738616943359375)" stroke="none"><path fill="#1e1e1e" d="M 0.31,-1.27 Q 0.31,-1.27 4.34,-1.32 8.37,-1.36 11.18,-0.43 14.00,0.49 15.62,1.42 17.23,2.35 18.75,3.19 20.27,4.02 20.47,4.10 20.66,4.17 20.83,4.31 20.99,4.44 21.10,4.62 21.22,4.80 21.27,5.01 21.31,5.22 21.29,5.43 21.27,5.64 21.19,5.83 21.10,6.03 20.96,6.18 20.81,6.34 20.63,6.44 20.44,6.55 20.23,6.58 20.02,6.62 19.81,6.59 19.60,6.56 19.41,6.46 19.22,6.36 19.08,6.21 18.93,6.06 18.83,5.87 18.74,5.68 18.72,5.46 18.69,5.25 18.73,5.05 18.78,4.84 18.88,4.65 18.99,4.47 19.15,4.33 19.31,4.19 19.51,4.11 19.70,4.03 19.92,4.01 20.13,4.00 20.33,4.05 20.54,4.11 20.72,4.22 20.89,4.34 21.02,4.51 21.16,4.68 21.23,4.88 21.30,5.08 21.30,5.29 21.30,5.50 21.24,5.70 21.17,5.91 21.05,6.08 20.92,6.25 20.75,6.37 20.57,6.49 20.37,6.55 20.16,6.61 19.95,6.60 19.74,6.59 19.74,6.59 19.74,6.59 17.60,6.68 15.47,6.76 14.02,6.45 12.57,6.15 9.66,5.65 6.74,5.14 3.21,3.21 -0.31,1.27 -0.46,1.21 -0.61,1.16 -0.74,1.07 -0.87,0.98 -0.97,0.86 -1.08,0.74 -1.15,0.60 -1.22,0.46 -1.26,0.30 -1.30,0.15 -1.30,-0.00 -1.30,-0.16 -1.26,-0.31 -1.22,-0.46 -1.15,-0.60 -1.07,-0.74 -0.97,-0.86 -0.86,-0.98 -0.73,-1.07 -0.60,-1.16 -0.45,-1.22 -0.30,-1.27 -0.15,-1.29 0.00,-1.31 0.16,-1.29 0.31,-1.27 0.31,-1.27 L 0.31,-1.27 Z"/></g><g transform="translate(221.4208984375 408.74205017089844) rotate(0 -8.2158203125 4.92950439453125)" stroke="none"><path fill="#1e1e1e" d="M 0.74,1.07 Q 0.74,1.07 -3.13,4.22 -7.01,7.36 -10.68,8.81 -14.34,10.27 -14.55,10.33 -14.75,10.40 -14.96,10.39 -15.17,10.39 -15.37,10.32 -15.57,10.25 -15.74,10.12 -15.91,9.98 -16.02,9.81 -16.14,9.63 -16.19,9.42 -16.25,9.22 -16.23,9.00 -16.22,8.79 -16.13,8.60 -16.05,8.40 -15.91,8.24 -15.77,8.08 -15.59,7.98 -15.40,7.87 -15.19,7.83 -14.99,7.78 -14.78,7.81 -14.56,7.84 -14.37,7.93 -14.18,8.02 -14.03,8.17 -13.88,8.32 -13.78,8.51 -13.69,8.70 -13.66,8.91 -13.62,9.12 -13.66,9.33 -13.70,9.54 -13.80,9.72 -13.91,9.91 -14.06,10.05 -14.22,10.20 -14.41,10.28 -14.61,10.37 -14.82,10.39 -15.03,10.41 -15.24,10.36 -15.45,10.31 -15.63,10.20 -15.81,10.08 -15.94,9.92 -16.07,9.75 -16.15,9.56 -16.23,9.36 -16.23,9.14 -16.24,8.93 -16.18,8.73 -16.12,8.52 -16.00,8.35 -15.88,8.18 -15.70,8.05 -15.53,7.93 -15.53,7.93 -15.53,7.93 -12.44,5.95 -9.35,3.97 -5.05,1.44 -0.74,-1.07 -0.60,-1.15 -0.46,-1.22 -0.31,-1.26 -0.16,-1.30 -0.00,-1.30 0.15,-1.30 0.31,-1.26 0.46,-1.22 0.60,-1.15 0.74,-1.08 0.86,-0.97 0.98,-0.87 1.07,-0.74 1.16,-0.61 1.21,-0.46 1.27,-0.31 1.29,-0.15 1.31,-0.00 1.29,0.15 1.27,0.31 1.21,0.46 1.16,0.60 1.07,0.73 0.98,0.86 0.86,0.97 0.74,1.07 0.74,1.07 L 0.74,1.07 Z"/></g></svg>