<svg version="1.1" xmlns="http://www.w3.org/2000/svg" viewBox="0 0 568.8180236816406 314.6747589111328" width="568.8180236816406" height="314.6747589111328" class="excalidraw-svg">
  <!-- svg-source:excalidraw -->
  
  <defs>
    <style class="style-fonts">
      @font-face {
        font-family: "Virgil";
        src: url("https://excalidraw.com/Virgil.woff2");
      }
      @font-face {
        font-family: "Cascadia";
        src: url("https://excalidraw.com/Cascadia.woff2");
      }
      @font-face {
        font-family: "Assistant";
        src: url("https://excalidraw.com/Assistant-Regular.woff2");
      }
    </style>
    
  </defs>
  <rect x="0" y="0" width="568.8180236816406" height="314.6747589111328" fill="#ffffff"/><g transform="translate(17.668121337890625 46.14970397949219) rotate(0 8.215835571289062 39.43601989746094)" stroke="none"><path fill="#1e1e1e" d="M 1.24,0.41 Q 1.24,0.41 1.27,3.56 1.29,6.72 0.98,9.21 0.66,11.69 0.80,14.05 0.93,16.41 3.08,17.52 5.22,18.64 7.62,17.18 10.03,15.71 11.95,13.78 13.88,11.84 14.91,9.97 15.94,8.10 16.70,6.40 17.45,4.70 17.33,3.39 17.22,2.08 17.29,1.65 17.36,1.23 17.54,0.84 17.71,0.45 17.97,0.10 18.23,-0.23 18.57,-0.49 18.90,-0.76 19.29,-0.94 19.68,-1.12 20.10,-1.20 20.52,-1.28 20.95,-1.26 21.38,-1.24 21.79,-1.12 22.20,-0.99 22.57,-0.77 22.94,-0.56 23.25,-0.25 23.55,0.04 23.78,0.40 24.00,0.77 24.14,1.17 24.27,1.58 24.30,2.01 24.33,2.44 24.38,4.02 24.43,5.61 24.12,8.32 23.80,11.03 23.69,15.06 23.58,19.09 23.83,23.23 24.09,27.37 24.80,31.18 25.52,35.00 26.16,40.28 26.81,45.57 27.09,50.09 27.37,54.60 27.48,58.76 27.59,62.91 26.65,67.02 25.70,71.12 24.37,73.83 23.04,76.54 19.64,78.49 16.23,80.44 12.69,80.47 9.15,80.50 5.39,78.67 1.63,76.84 -0.59,74.97 -2.83,73.10 -4.80,70.50 -6.76,67.90 -7.67,64.19 -8.59,60.48 -6.51,56.61 -4.43,52.74 -3.82,51.28 -3.20,49.83 -3.09,49.65 -2.98,49.47 -2.81,49.34 -2.65,49.20 -2.45,49.13 -2.25,49.05 -2.04,49.05 -1.83,49.04 -1.62,49.10 -1.42,49.16 -1.25,49.28 -1.07,49.41 -0.95,49.58 -0.82,49.75 -0.76,49.95 -0.69,50.15 -0.70,50.37 -0.70,50.58 -0.77,50.78 -0.85,50.98 -0.98,51.15 -1.11,51.31 -1.29,51.43 -1.47,51.54 -1.67,51.60 -1.88,51.65 -2.09,51.63 -2.30,51.62 -2.50,51.54 -2.69,51.45 -2.85,51.31 -3.01,51.17 -3.12,50.99 -3.22,50.80 -3.26,50.60 -3.31,50.39 -3.28,50.18 -3.25,49.97 -3.16,49.77 -3.07,49.58 -2.92,49.43 -2.77,49.28 -2.58,49.19 -2.39,49.09 -2.18,49.06 -1.97,49.03 -1.76,49.07 -1.55,49.11 -1.36,49.21 -1.18,49.31 -1.04,49.47 -0.89,49.63 -0.81,49.82 -0.72,50.01 -0.70,50.23 -0.68,50.44 -0.73,50.64 -0.78,50.85 -0.78,50.85 -0.78,50.85 -1.39,52.30 -2.01,53.76 -2.80,56.72 -3.60,59.68 -2.38,61.68 -1.17,63.68 0.38,65.61 1.93,67.55 3.53,68.95 5.14,70.34 7.45,71.75 9.76,73.16 11.61,73.40 13.46,73.64 15.32,73.12 17.18,72.59 17.88,70.96 18.57,69.33 19.42,66.19 20.26,63.05 20.15,59.05 20.03,55.05 19.78,50.75 19.52,46.46 18.91,41.39 18.29,36.32 17.53,32.07 16.76,27.81 16.50,23.34 16.24,18.86 16.40,14.49 16.55,10.12 16.86,7.87 17.17,5.62 17.20,3.85 17.22,2.08 17.29,1.65 17.36,1.23 17.54,0.84 17.71,0.45 17.97,0.11 18.23,-0.22 18.57,-0.49 18.90,-0.76 19.29,-0.94 19.68,-1.12 20.10,-1.20 20.52,-1.28 20.95,-1.26 21.38,-1.24 21.79,-1.12 22.20,-0.99 22.57,-0.77 22.94,-0.56 23.25,-0.26 23.55,0.04 23.78,0.40 24.00,0.77 24.14,1.17 24.27,1.58 24.30,2.01 24.33,2.44 24.29,3.23 24.26,4.02 24.02,5.72 23.77,7.43 22.78,9.50 21.78,11.57 20.18,14.13 18.58,16.68 15.79,19.22 13.00,21.77 8.76,23.43 4.52,25.09 0.87,23.77 -2.77,22.45 -4.26,19.76 -5.74,17.06 -5.89,13.91 -6.04,10.75 -5.56,7.68 -5.07,4.61 -3.16,2.10 -1.24,-0.41 -1.17,-0.55 -1.11,-0.70 -1.01,-0.82 -0.91,-0.94 -0.78,-1.04 -0.65,-1.13 -0.51,-1.19 -0.36,-1.26 -0.20,-1.28 -0.05,-1.31 0.10,-1.29 0.26,-1.28 0.41,-1.23 0.56,-1.18 0.69,-1.10 0.83,-1.01 0.93,-0.90 1.04,-0.78 1.12,-0.65 1.20,-0.51 1.25,-0.36 1.29,-0.21 1.30,-0.05 1.30,0.10 1.27,0.26 1.24,0.41 1.24,0.41 L 1.24,0.41 Z"/></g><g transform="translate(59.2950439453125 59.2950439453125) rotate(0 9.311279296875 -2.738616943359375)" stroke="none"><path fill="#1e1e1e" d="M -0.51,-1.20 Q -0.51,-1.20 1.25,-3.16 3.02,-5.12 4.84,-5.61 6.66,-6.09 8.39,-6.73 10.11,-7.37 11.93,-7.45 13.75,-7.52 15.88,-6.65 18.01,-5.79 18.22,-5.72 18.42,-5.66 18.59,-5.54 18.76,-5.41 18.89,-5.24 19.01,-5.07 19.07,-4.86 19.14,-4.66 19.13,-4.45 19.12,-4.24 19.05,-4.04 18.98,-3.84 18.84,-3.67 18.71,-3.51 18.53,-3.39 18.35,-3.28 18.15,-3.23 17.94,-3.17 17.73,-3.19 17.52,-3.21 17.32,-3.29 17.13,-3.38 16.97,-3.52 16.81,-3.66 16.71,-3.85 16.60,-4.03 16.56,-4.24 16.52,-4.45 16.55,-4.66 16.58,-4.87 16.67,-5.06 16.77,-5.25 16.92,-5.40 17.07,-5.55 17.26,-5.65 17.45,-5.74 17.66,-5.77 17.87,-5.80 18.08,-5.76 18.29,-5.72 18.47,-5.61 18.66,-5.51 18.80,-5.35 18.94,-5.19 19.03,-5.00 19.11,-4.80 19.13,-4.59 19.14,-4.38 19.09,-4.17 19.04,-3.96 18.93,-3.78 18.81,-3.61 18.65,-3.47 18.48,-3.34 18.28,-3.27 18.08,-3.19 17.87,-3.19 17.66,-3.18 17.66,-3.18 17.66,-3.18 16.24,-2.80 14.82,-2.42 13.74,-1.81 12.66,-1.20 10.54,-0.24 8.42,0.71 7.10,1.02 5.78,1.34 3.15,1.27 0.51,1.20 0.36,1.25 0.21,1.29 0.05,1.30 -0.10,1.30 -0.25,1.27 -0.41,1.24 -0.55,1.17 -0.69,1.11 -0.82,1.01 -0.94,0.91 -1.04,0.78 -1.13,0.65 -1.19,0.51 -1.26,0.36 -1.28,0.21 -1.31,0.05 -1.29,-0.10 -1.28,-0.26 -1.23,-0.41 -1.18,-0.56 -1.10,-0.69 -1.01,-0.82 -0.90,-0.93 -0.79,-1.04 -0.65,-1.12 -0.51,-1.20 -0.51,-1.20 L -0.51,-1.20 Z"/></g><g transform="translate(64.77227783203125 64.77226257324219) rotate(0 10.406723022460938 -1.6431655883789062)" stroke="none"><path fill="#1e1e1e" d="M -0.23,-1.29 Q -0.23,-1.29 3.04,-2.95 6.31,-4.61 9.08,-4.81 11.84,-5.01 15.50,-4.72 19.15,-4.43 19.37,-4.42 19.58,-4.41 19.77,-4.33 19.97,-4.25 20.13,-4.11 20.29,-3.97 20.40,-3.79 20.51,-3.60 20.55,-3.40 20.60,-3.19 20.57,-2.98 20.55,-2.77 20.46,-2.57 20.37,-2.38 20.22,-2.23 20.08,-2.08 19.89,-1.98 19.70,-1.88 19.49,-1.85 19.28,-1.81 19.07,-1.85 18.86,-1.88 18.67,-1.98 18.49,-2.09 18.34,-2.24 18.20,-2.40 18.11,-2.59 18.02,-2.78 18.00,-2.99 17.98,-3.21 18.02,-3.41 18.07,-3.62 18.18,-3.80 18.29,-3.98 18.45,-4.12 18.62,-4.26 18.82,-4.33 19.01,-4.41 19.23,-4.42 19.44,-4.43 19.64,-4.37 19.85,-4.31 20.02,-4.19 20.20,-4.07 20.32,-3.90 20.45,-3.73 20.52,-3.53 20.58,-3.33 20.58,-3.12 20.58,-2.90 20.51,-2.70 20.44,-2.50 20.31,-2.33 20.18,-2.17 20.01,-2.05 19.83,-1.93 19.63,-1.87 19.42,-1.82 19.42,-1.82 19.42,-1.82 16.18,-0.83 12.94,0.16 10.24,1.12 7.53,2.09 3.88,1.69 0.23,1.29 0.07,1.30 -0.08,1.31 -0.23,1.28 -0.39,1.25 -0.53,1.18 -0.68,1.12 -0.80,1.02 -0.92,0.92 -1.02,0.80 -1.12,0.67 -1.18,0.53 -1.25,0.38 -1.28,0.23 -1.31,0.07 -1.30,-0.08 -1.29,-0.23 -1.24,-0.38 -1.19,-0.54 -1.11,-0.67 -1.03,-0.81 -0.92,-0.92 -0.80,-1.03 -0.67,-1.11 -0.53,-1.19 -0.38,-1.24 -0.23,-1.29 -0.23,-1.29 L -0.23,-1.29 Z"/></g><g transform="translate(105.30374145507812 48.34059143066406) rotate(0 6.572662353515625 7.120391845703125)" stroke="none"><path fill="#1e1e1e" d="M 1.14,0.63 Q 1.14,0.63 0.53,3.90 -0.07,7.16 1.24,8.21 2.55,9.26 4.31,9.63 6.07,9.99 8.19,10.03 10.31,10.07 12.15,10.19 13.98,10.31 15.63,9.68 17.29,9.05 17.49,8.99 17.69,8.93 17.90,8.93 18.12,8.94 18.32,9.01 18.52,9.08 18.68,9.21 18.85,9.35 18.96,9.52 19.08,9.70 19.13,9.91 19.18,10.11 19.17,10.33 19.15,10.54 19.07,10.73 18.98,10.93 18.84,11.09 18.70,11.25 18.52,11.35 18.33,11.46 18.12,11.50 17.92,11.54 17.71,11.51 17.49,11.48 17.30,11.39 17.11,11.30 16.96,11.15 16.81,11.00 16.72,10.81 16.62,10.62 16.59,10.41 16.56,10.20 16.60,9.99 16.64,9.78 16.74,9.59 16.85,9.41 17.00,9.27 17.16,9.12 17.36,9.04 17.55,8.95 17.76,8.94 17.98,8.92 18.18,8.97 18.39,9.02 18.57,9.13 18.75,9.25 18.88,9.41 19.01,9.58 19.09,9.77 19.16,9.97 19.17,10.19 19.18,10.40 19.11,10.60 19.05,10.81 18.93,10.98 18.81,11.15 18.64,11.28 18.46,11.40 18.46,11.40 18.46,11.40 16.74,12.46 15.02,13.53 12.78,14.96 10.53,16.39 7.48,16.55 4.44,16.71 1.46,15.88 -1.52,15.04 -3.84,12.75 -6.17,10.46 -6.19,7.32 -6.22,4.17 -3.68,1.76 -1.14,-0.63 -1.05,-0.76 -0.96,-0.89 -0.84,-0.99 -0.72,-1.09 -0.57,-1.16 -0.43,-1.23 -0.28,-1.27 -0.12,-1.30 0.03,-1.30 0.18,-1.29 0.34,-1.25 0.49,-1.21 0.63,-1.13 0.77,-1.06 0.88,-0.95 1.00,-0.84 1.09,-0.71 1.17,-0.58 1.22,-0.43 1.28,-0.28 1.29,-0.12 1.31,0.03 1.29,0.18 1.26,0.34 1.20,0.49 1.14,0.63 1.14,0.63 L 1.14,0.63 Z"/></g><g transform="translate(139.26254272460938 47.245147705078125) rotate(0 -0.5477294921875 7.120384216308594)" stroke="none"><path fill="#1e1e1e" d="M 0.51,1.20 Q 0.51,1.20 -1.27,3.10 -3.07,4.99 -4.12,5.61 -5.18,6.23 -5.62,7.23 -6.05,8.22 -4.89,9.87 -3.72,11.52 -1.89,12.12 -0.07,12.71 1.53,12.30 3.14,11.89 3.48,9.48 3.81,7.07 3.32,5.21 2.83,3.36 1.07,2.60 -0.67,1.84 -1.35,3.47 -2.03,5.10 -2.13,5.22 -2.22,5.35 -2.34,5.45 -2.46,5.56 -2.61,5.62 -2.75,5.69 -2.90,5.73 -3.06,5.76 -3.22,5.76 -3.38,5.75 -3.53,5.71 -3.68,5.67 -3.82,5.59 -3.96,5.51 -4.07,5.40 -4.19,5.30 -4.27,5.16 -4.36,5.03 -4.41,4.88 -4.46,4.73 -4.48,4.57 -4.49,4.42 -4.47,4.26 -4.44,4.10 -4.38,3.96 -4.32,3.81 -3.37,2.47 -2.42,1.13 -2.27,0.98 -2.12,0.83 -1.93,0.73 -1.74,0.64 -1.53,0.61 -1.32,0.58 -1.11,0.62 -0.90,0.66 -0.71,0.76 -0.53,0.86 -0.39,1.02 -0.24,1.18 -0.16,1.37 -0.07,1.57 -0.06,1.78 -0.04,1.99 -0.09,2.20 -0.14,2.41 -0.25,2.58 -0.37,2.76 -0.53,2.90 -0.70,3.03 -0.90,3.11 -1.10,3.18 -1.31,3.19 -1.52,3.19 -1.73,3.13 -1.93,3.07 -2.10,2.94 -2.27,2.82 -2.40,2.65 -2.52,2.48 -2.59,2.27 -2.65,2.07 -2.64,1.86 -2.64,1.65 -2.57,1.45 -2.49,1.25 -2.36,1.08 -2.23,0.91 -2.05,0.80 -1.87,0.68 -1.66,0.63 -1.46,0.58 -1.25,0.60 -1.03,0.61 -0.84,0.70 -0.64,0.78 -0.49,0.92 -0.33,1.06 -0.22,1.25 -0.12,1.43 -0.08,1.64 -0.04,1.85 -0.06,2.06 -0.09,2.27 -0.19,2.46 -0.28,2.65 -0.28,2.65 -0.28,2.65 -1.16,3.87 -2.03,5.10 -2.13,5.22 -2.22,5.35 -2.34,5.45 -2.46,5.56 -2.61,5.62 -2.75,5.69 -2.90,5.73 -3.06,5.76 -3.22,5.76 -3.37,5.75 -3.53,5.71 -3.68,5.67 -3.82,5.59 -3.96,5.51 -4.07,5.40 -4.19,5.30 -4.27,5.16 -4.36,5.03 -4.41,4.88 -4.46,4.73 -4.48,4.57 -4.49,4.42 -4.47,4.26 -4.44,4.10 -4.38,3.96 -4.32,3.81 -5.74,2.54 -7.16,1.28 -5.97,-1.11 -4.78,-3.50 -2.27,-4.29 0.23,-5.07 3.22,-4.20 6.21,-3.32 7.97,-0.87 9.74,1.57 10.34,4.53 10.94,7.50 10.33,11.08 9.73,14.66 7.88,16.45 6.03,18.25 3.91,18.95 1.78,19.64 -0.50,19.36 -2.79,19.08 -5.88,17.48 -8.96,15.87 -10.66,13.24 -12.35,10.61 -12.47,8.43 -12.59,6.26 -11.89,4.62 -11.19,2.98 -9.92,1.69 -8.64,0.40 -7.19,-0.40 -5.74,-1.21 -3.13,-1.21 -0.51,-1.20 -0.36,-1.25 -0.21,-1.29 -0.05,-1.30 0.10,-1.30 0.25,-1.27 0.41,-1.24 0.55,-1.17 0.69,-1.11 0.82,-1.01 0.94,-0.91 1.04,-0.78 1.13,-0.65 1.19,-0.51 1.26,-0.36 1.28,-0.21 1.31,-0.05 1.29,0.10 1.28,0.26 1.23,0.41 1.18,0.56 1.10,0.69 1.01,0.82 0.90,0.93 0.79,1.04 0.65,1.12 0.51,1.20 0.51,1.20 L 0.51,1.20 Z"/></g><g transform="translate(163.36233520507812 43.95880126953125) rotate(0 9.311279296875 11.502174377441406)" stroke="none"><path fill="#1e1e1e" d="M 0.14,-1.30 Q 0.14,-1.30 3.21,-2.05 6.28,-2.79 9.84,-0.53 13.40,1.71 15.86,4.45 18.32,7.19 19.57,10.45 20.82,13.71 20.40,16.94 19.97,20.16 17.57,22.13 15.17,24.09 12.28,23.94 9.38,23.79 6.53,21.57 3.68,19.36 3.52,19.21 3.37,19.07 3.26,18.88 3.16,18.70 3.13,18.49 3.09,18.28 3.12,18.07 3.15,17.86 3.25,17.67 3.35,17.48 3.50,17.33 3.65,17.18 3.84,17.09 4.04,17.00 4.25,16.98 4.46,16.95 4.67,16.99 4.87,17.04 5.06,17.14 5.24,17.25 5.38,17.41 5.52,17.57 5.60,17.77 5.68,17.97 5.70,18.18 5.71,18.39 5.65,18.60 5.60,18.80 5.48,18.98 5.37,19.15 5.20,19.29 5.03,19.42 4.83,19.49 4.63,19.56 4.42,19.56 4.20,19.56 4.00,19.50 3.80,19.43 3.63,19.30 3.46,19.18 3.34,19.00 3.22,18.83 3.16,18.62 3.10,18.42 3.11,18.21 3.12,18.00 3.19,17.80 3.27,17.60 3.40,17.44 3.54,17.27 3.72,17.16 3.90,17.05 4.11,17.00 4.32,16.95 4.53,16.97 4.74,16.99 4.93,17.08 5.13,17.17 5.13,17.17 5.13,17.17 7.36,18.31 9.59,19.46 10.64,18.93 11.69,18.40 12.72,17.10 13.74,15.81 13.18,13.85 12.63,11.89 10.83,9.76 9.04,7.63 7.05,5.84 5.05,4.05 2.45,2.68 -0.14,1.30 -0.29,1.26 -0.45,1.23 -0.59,1.16 -0.73,1.08 -0.85,0.98 -0.97,0.88 -1.06,0.75 -1.15,0.62 -1.21,0.47 -1.27,0.32 -1.29,0.17 -1.31,0.01 -1.29,-0.14 -1.27,-0.30 -1.22,-0.44 -1.16,-0.59 -1.08,-0.72 -0.99,-0.86 -0.87,-0.96 -0.75,-1.07 -0.61,-1.14 -0.47,-1.22 -0.32,-1.26 -0.17,-1.30 -0.01,-1.30 0.14,-1.30 0.14,-1.30 L 0.14,-1.30 Z"/></g><g transform="translate(211.56192016601562 22.049896240234375) rotate(0 -6.02496337890625 20.26573944091797)" stroke="none"><path fill="#1e1e1e" d="M 1.04,0.80 Q 1.04,0.80 -1.36,5.45 -3.77,10.10 -5.22,13.43 -6.67,16.76 -7.25,20.11 -7.84,23.47 -7.28,26.98 -6.73,30.48 -4.63,34.25 -2.52,38.01 -2.42,38.20 -2.31,38.38 -2.27,38.59 -2.23,38.80 -2.26,39.01 -2.29,39.22 -2.38,39.41 -2.48,39.60 -2.63,39.75 -2.78,39.90 -2.97,40.00 -3.16,40.09 -3.37,40.12 -3.58,40.15 -3.79,40.11 -4.00,40.07 -4.18,39.96 -4.37,39.86 -4.51,39.70 -4.65,39.54 -4.74,39.35 -4.82,39.15 -4.84,38.94 -4.85,38.73 -4.80,38.52 -4.75,38.32 -4.64,38.14 -4.52,37.96 -4.36,37.82 -4.19,37.69 -3.99,37.62 -3.79,37.55 -3.58,37.54 -3.37,37.53 -3.17,37.60 -2.96,37.66 -2.79,37.78 -2.62,37.91 -2.49,38.08 -2.37,38.25 -2.31,38.45 -2.24,38.66 -2.25,38.87 -2.26,39.08 -2.33,39.28 -2.40,39.48 -2.54,39.65 -2.67,39.81 -2.85,39.93 -3.03,40.04 -3.23,40.09 -3.44,40.14 -3.65,40.13 -3.86,40.11 -4.06,40.03 -4.25,39.94 -4.41,39.80 -4.57,39.66 -4.57,39.66 -4.57,39.66 -8.63,35.75 -12.70,31.84 -13.44,27.12 -14.17,22.41 -13.35,18.27 -12.54,14.13 -10.68,10.20 -8.82,6.27 -4.93,2.73 -1.04,-0.80 -0.93,-0.91 -0.81,-1.02 -0.68,-1.10 -0.54,-1.19 -0.39,-1.24 -0.24,-1.28 -0.09,-1.30 0.06,-1.31 0.22,-1.28 0.37,-1.25 0.52,-1.19 0.66,-1.12 0.79,-1.03 0.92,-0.93 1.01,-0.81 1.11,-0.68 1.18,-0.54 1.25,-0.40 1.28,-0.24 1.31,-0.09 1.30,0.06 1.29,0.22 1.24,0.37 1.20,0.52 1.12,0.66 1.04,0.80 1.04,0.80 L 1.04,0.80 Z"/></g><g transform="translate(224.70724487304688 63.67681884765625) rotate(0 12.597625732421875 -22.456626892089844)" stroke="none"><path fill="#1e1e1e" d="M -1.09,-0.72 Q -1.09,-0.72 2.76,-7.71 6.62,-14.69 10.37,-20.90 14.12,-27.11 16.32,-31.28 18.53,-35.45 19.66,-38.44 20.78,-41.43 21.16,-42.48 21.55,-43.53 21.73,-43.85 21.91,-44.18 22.16,-44.45 22.42,-44.72 22.73,-44.92 23.04,-45.13 23.39,-45.25 23.74,-45.37 24.11,-45.40 24.49,-45.44 24.85,-45.38 25.22,-45.33 25.56,-45.19 25.91,-45.04 26.21,-44.82 26.51,-44.60 26.75,-44.32 26.98,-44.03 27.15,-43.70 27.31,-43.37 27.39,-43.00 27.47,-42.64 27.46,-42.27 27.45,-41.90 27.35,-41.54 27.25,-41.18 26.70,-36.23 26.14,-31.28 25.21,-26.49 24.27,-21.70 23.80,-17.66 23.33,-13.61 22.30,-9.73 21.27,-5.85 21.20,-4.15 21.13,-2.45 21.09,-2.24 21.04,-2.03 20.94,-1.85 20.83,-1.67 20.67,-1.53 20.51,-1.39 20.31,-1.31 20.12,-1.23 19.90,-1.21 19.69,-1.20 19.49,-1.25 19.28,-1.31 19.10,-1.42 18.93,-1.54 18.80,-1.71 18.66,-1.88 18.59,-2.08 18.52,-2.28 18.52,-2.49 18.52,-2.70 18.58,-2.90 18.65,-3.11 18.77,-3.28 18.90,-3.45 19.08,-3.57 19.25,-3.69 19.45,-3.75 19.66,-3.81 19.87,-3.80 20.08,-3.79 20.28,-3.72 20.48,-3.64 20.64,-3.50 20.81,-3.37 20.92,-3.19 21.03,-3.01 21.08,-2.80 21.13,-2.59 21.11,-2.38 21.09,-2.17 21.00,-1.98 20.91,-1.78 20.77,-1.63 20.62,-1.47 20.44,-1.37 20.25,-1.27 20.04,-1.23 19.83,-1.19 19.62,-1.22 19.41,-1.26 19.22,-1.35 19.04,-1.45 18.89,-1.60 18.74,-1.75 18.65,-1.95 18.56,-2.14 18.53,-2.35 18.50,-2.56 18.50,-2.56 18.50,-2.56 18.57,-4.26 18.64,-5.96 17.95,-10.06 17.25,-14.17 17.55,-18.55 17.85,-22.94 18.74,-27.60 19.64,-32.26 20.33,-36.63 21.02,-41.00 21.28,-42.27 21.55,-43.53 21.73,-43.85 21.91,-44.18 22.16,-44.45 22.42,-44.72 22.73,-44.92 23.04,-45.13 23.39,-45.25 23.74,-45.37 24.11,-45.40 24.48,-45.44 24.85,-45.38 25.22,-45.33 25.56,-45.19 25.91,-45.04 26.21,-44.82 26.51,-44.60 26.75,-44.32 26.98,-44.03 27.15,-43.70 27.31,-43.37 27.39,-43.00 27.47,-42.64 27.46,-42.27 27.45,-41.90 27.35,-41.54 27.25,-41.18 26.56,-40.26 25.86,-39.33 24.47,-36.20 23.07,-33.06 20.82,-28.75 18.56,-24.44 14.79,-18.10 11.01,-11.76 6.05,-5.51 1.09,0.72 0.98,0.84 0.88,0.96 0.75,1.06 0.62,1.15 0.48,1.21 0.33,1.26 0.17,1.29 0.02,1.31 -0.13,1.29 -0.29,1.28 -0.44,1.22 -0.59,1.17 -0.72,1.08 -0.85,0.99 -0.96,0.88 -1.06,0.76 -1.14,0.62 -1.22,0.48 -1.26,0.33 -1.30,0.17 -1.30,0.02 -1.30,-0.13 -1.27,-0.29 -1.23,-0.44 -1.16,-0.58 -1.09,-0.72 -1.09,-0.72 L -1.09,-0.72 Z"/></g><g transform="translate(253.18881225585938 46.14970397949219) rotate(0 12.049896240234375 -3.2863388061523438)" stroke="none"><path fill="#1e1e1e" d="M -0.17,-1.30 Q -0.17,-1.30 4.41,-2.93 9.00,-4.56 11.51,-5.09 14.01,-5.61 16.05,-5.92 18.09,-6.24 20.29,-6.70 22.49,-7.16 22.69,-7.23 22.89,-7.31 23.10,-7.32 23.31,-7.32 23.52,-7.26 23.72,-7.20 23.89,-7.08 24.07,-6.96 24.19,-6.79 24.32,-6.61 24.38,-6.41 24.45,-6.21 24.44,-6.00 24.44,-5.78 24.37,-5.58 24.30,-5.38 24.16,-5.22 24.03,-5.05 23.85,-4.94 23.68,-4.82 23.47,-4.77 23.26,-4.71 23.05,-4.73 22.84,-4.74 22.65,-4.83 22.45,-4.91 22.29,-5.05 22.13,-5.19 22.02,-5.37 21.92,-5.56 21.88,-5.77 21.83,-5.98 21.86,-6.19 21.89,-6.40 21.98,-6.59 22.07,-6.78 22.22,-6.93 22.37,-7.08 22.56,-7.18 22.75,-7.27 22.96,-7.30 23.17,-7.33 23.38,-7.30 23.59,-7.26 23.78,-7.15 23.96,-7.05 24.11,-6.89 24.25,-6.74 24.33,-6.54 24.42,-6.35 24.44,-6.14 24.46,-5.93 24.41,-5.72 24.36,-5.51 24.24,-5.33 24.13,-5.15 23.97,-5.02 23.80,-4.88 23.80,-4.88 23.80,-4.88 21.71,-2.87 19.61,-0.85 17.51,-0.04 15.42,0.76 12.65,1.40 9.89,2.04 5.03,1.67 0.17,1.30 0.01,1.30 -0.14,1.30 -0.29,1.26 -0.45,1.23 -0.59,1.16 -0.73,1.08 -0.85,0.98 -0.97,0.88 -1.06,0.75 -1.15,0.62 -1.21,0.47 -1.27,0.32 -1.29,0.17 -1.31,0.01 -1.29,-0.14 -1.27,-0.29 -1.22,-0.44 -1.16,-0.59 -1.08,-0.72 -0.99,-0.85 -0.87,-0.96 -0.75,-1.07 -0.61,-1.14 -0.47,-1.22 -0.32,-1.26 -0.17,-1.30 -0.17,-1.30 L -0.17,-1.30 Z"/></g><g transform="translate(268.5250549316406 29.718017578125) rotate(0 -1.095428466796875 14.240791320800781)" stroke="none"><path fill="#1e1e1e" d="M 1.30,0.13 Q 1.30,0.13 1.67,6.22 2.03,12.31 1.74,15.45 1.45,18.58 1.06,20.77 0.66,22.95 0.76,24.98 0.86,27.02 0.90,27.23 0.94,27.44 0.91,27.65 0.88,27.86 0.79,28.05 0.69,28.24 0.54,28.39 0.39,28.54 0.20,28.63 0.01,28.73 -0.19,28.75 -0.40,28.78 -0.61,28.74 -0.82,28.70 -1.00,28.59 -1.19,28.49 -1.33,28.33 -1.47,28.17 -1.55,27.98 -1.64,27.78 -1.65,27.57 -1.67,27.36 -1.62,27.15 -1.56,26.94 -1.45,26.77 -1.33,26.59 -1.17,26.45 -1.00,26.32 -0.80,26.25 -0.60,26.18 -0.39,26.17 -0.18,26.17 0.02,26.23 0.22,26.29 0.39,26.42 0.56,26.54 0.69,26.72 0.81,26.89 0.87,27.09 0.93,27.30 0.93,27.51 0.92,27.72 0.84,27.92 0.77,28.12 0.64,28.29 0.50,28.45 0.32,28.56 0.14,28.68 -0.05,28.73 -0.26,28.78 -0.47,28.76 -0.68,28.74 -0.88,28.66 -1.07,28.57 -1.23,28.43 -1.39,28.29 -1.49,28.10 -1.60,27.92 -1.60,27.92 -1.60,27.92 -3.15,25.38 -4.71,22.84 -4.88,20.44 -5.04,18.03 -4.80,14.83 -4.55,11.62 -2.93,5.74 -1.30,-0.13 -1.27,-0.29 -1.23,-0.44 -1.16,-0.58 -1.09,-0.72 -0.98,-0.84 -0.88,-0.96 -0.75,-1.06 -0.62,-1.15 -0.48,-1.21 -0.33,-1.26 -0.17,-1.29 -0.02,-1.31 0.13,-1.29 0.29,-1.27 0.44,-1.22 0.59,-1.17 0.72,-1.08 0.85,-0.99 0.96,-0.87 1.06,-0.76 1.14,-0.62 1.22,-0.48 1.26,-0.33 1.30,-0.17 1.30,-0.02 1.30,0.13 1.30,0.13 L 1.30,0.13 Z"/></g><g transform="translate(287.1476135253906 30.813461303710938) rotate(0 10.9544677734375 10.954452514648438)" stroke="none"><path fill="#1e1e1e" d="M -0.72,-1.09 Q -0.72,-1.09 1.59,-3.75 3.91,-6.41 5.80,-7.56 7.69,-8.72 10.02,-9.63 12.34,-10.55 14.13,-10.65 15.93,-10.75 17.81,-9.90 19.70,-9.05 21.06,-7.12 22.42,-5.18 22.30,-2.21 22.18,0.74 18.71,6.61 15.24,12.48 12.21,16.71 9.18,20.94 7.23,23.40 5.29,25.86 2.29,28.12 -0.70,30.37 -2.74,31.36 -4.78,32.35 -7.08,32.65 -9.38,32.95 -11.26,31.65 -13.15,30.34 -13.41,28.07 -13.67,25.79 -11.80,23.55 -9.93,21.30 -7.79,20.39 -5.64,19.48 -1.85,19.40 1.93,19.31 5.21,20.01 8.49,20.71 12.51,21.90 16.53,23.09 21.49,24.61 26.44,26.14 28.65,26.44 30.86,26.73 31.07,26.80 31.27,26.86 31.44,26.98 31.61,27.11 31.74,27.28 31.86,27.45 31.93,27.65 31.99,27.86 31.98,28.07 31.98,28.28 31.90,28.48 31.83,28.68 31.70,28.85 31.57,29.01 31.39,29.13 31.21,29.24 31.00,29.29 30.80,29.34 30.58,29.33 30.37,29.31 30.18,29.23 29.98,29.14 29.82,29.00 29.66,28.86 29.56,28.67 29.46,28.49 29.41,28.28 29.37,28.07 29.40,27.86 29.43,27.65 29.53,27.46 29.62,27.27 29.77,27.12 29.92,26.97 30.11,26.88 30.30,26.78 30.51,26.75 30.72,26.72 30.93,26.76 31.14,26.80 31.32,26.91 31.51,27.01 31.65,27.17 31.79,27.33 31.88,27.52 31.96,27.72 31.98,27.93 32.00,28.14 31.95,28.35 31.89,28.55 31.78,28.73 31.67,28.91 31.50,29.05 31.33,29.18 31.14,29.25 30.94,29.33 30.72,29.33 30.51,29.34 30.51,29.34 30.51,29.34 28.30,29.04 26.09,28.74 20.65,28.86 15.21,28.99 11.07,28.35 6.92,27.72 4.33,27.10 1.74,26.48 -0.85,26.26 -3.46,26.03 -5.48,26.28 -7.49,26.52 -5.98,25.84 -4.47,25.16 -2.08,23.50 0.29,21.83 2.12,19.52 3.96,17.20 6.86,13.15 9.76,9.09 12.84,4.37 15.91,-0.34 16.38,-1.55 16.84,-2.76 15.67,-3.70 14.49,-4.63 12.73,-3.97 10.97,-3.31 9.20,-2.22 7.42,-1.14 4.07,-0.02 0.72,1.09 0.58,1.16 0.44,1.23 0.29,1.27 0.13,1.30 -0.02,1.30 -0.17,1.30 -0.33,1.26 -0.48,1.22 -0.62,1.14 -0.76,1.06 -0.88,0.96 -0.99,0.85 -1.08,0.72 -1.17,0.59 -1.22,0.44 -1.28,0.29 -1.29,0.13 -1.31,-0.02 -1.29,-0.17 -1.26,-0.33 -1.21,-0.48 -1.15,-0.62 -1.06,-0.75 -0.96,-0.88 -0.84,-0.98 -0.72,-1.09 -0.72,-1.09 L -0.72,-1.09 Z"/></g><g transform="translate(328.7745666503906 47.245147705078125) rotate(0 12.59759521484375 5.477226257324219)" stroke="none"><path fill="#1e1e1e" d="M 0.67,-1.12 Q 0.67,-1.12 5.95,0.78 11.23,2.69 13.68,3.82 16.14,4.96 18.45,6.22 20.77,7.49 22.54,8.01 24.31,8.52 24.51,8.56 24.72,8.60 24.91,8.70 25.09,8.81 25.24,8.96 25.38,9.12 25.46,9.32 25.55,9.51 25.56,9.72 25.58,9.93 25.53,10.14 25.48,10.35 25.37,10.53 25.25,10.71 25.09,10.84 24.92,10.97 24.72,11.05 24.52,11.12 24.31,11.13 24.10,11.13 23.89,11.07 23.69,11.01 23.52,10.89 23.35,10.76 23.22,10.59 23.10,10.42 23.03,10.21 22.97,10.01 22.98,9.80 22.98,9.59 23.06,9.39 23.13,9.19 23.26,9.02 23.39,8.86 23.57,8.74 23.75,8.63 23.96,8.57 24.16,8.52 24.38,8.54 24.59,8.56 24.78,8.64 24.98,8.72 25.14,8.86 25.29,9.01 25.40,9.19 25.50,9.38 25.54,9.58 25.59,9.79 25.56,10.00 25.53,10.21 25.43,10.40 25.34,10.60 25.19,10.75 25.04,10.90 24.85,10.99 24.66,11.09 24.45,11.11 24.24,11.14 24.24,11.14 24.24,11.14 21.84,11.55 19.45,11.96 16.37,11.58 13.30,11.19 10.48,9.92 7.66,8.64 3.49,4.88 -0.67,1.12 -0.80,1.02 -0.92,0.93 -1.02,0.80 -1.12,0.68 -1.18,0.53 -1.25,0.39 -1.28,0.23 -1.31,0.08 -1.30,-0.07 -1.29,-0.23 -1.24,-0.38 -1.19,-0.53 -1.11,-0.67 -1.03,-0.80 -0.92,-0.91 -0.81,-1.03 -0.67,-1.11 -0.54,-1.19 -0.39,-1.24 -0.24,-1.29 -0.08,-1.30 0.07,-1.31 0.23,-1.28 0.38,-1.25 0.53,-1.19 0.67,-1.12 0.67,-1.12 L 0.67,-1.12 Z"/></g><g transform="translate(348.4925842285156 47.245147705078125) rotate(0 -10.40673828125 7.120391845703125)" stroke="none"><path fill="#1e1e1e" d="M 0.64,1.14 Q 0.64,1.14 -3.92,4.80 -8.49,8.47 -10.79,10.18 -13.08,11.88 -16.00,13.12 -18.91,14.35 -19.09,14.46 -19.28,14.57 -19.48,14.62 -19.69,14.66 -19.90,14.64 -20.11,14.61 -20.31,14.52 -20.50,14.43 -20.65,14.29 -20.81,14.14 -20.90,13.95 -21.00,13.76 -21.04,13.55 -21.07,13.34 -21.03,13.13 -21.00,12.93 -20.90,12.74 -20.80,12.55 -20.64,12.41 -20.49,12.26 -20.30,12.17 -20.10,12.08 -19.89,12.06 -19.68,12.04 -19.47,12.09 -19.27,12.13 -19.08,12.24 -18.90,12.35 -18.77,12.52 -18.63,12.68 -18.55,12.88 -18.47,13.07 -18.46,13.29 -18.45,13.50 -18.51,13.70 -18.57,13.91 -18.69,14.08 -18.81,14.26 -18.98,14.39 -19.15,14.51 -19.35,14.58 -19.55,14.65 -19.76,14.65 -19.98,14.65 -20.18,14.58 -20.38,14.51 -20.55,14.38 -20.71,14.25 -20.83,14.07 -20.95,13.90 -21.01,13.69 -21.06,13.49 -21.05,13.27 -21.04,13.06 -20.96,12.87 -20.88,12.67 -20.74,12.51 -20.60,12.35 -20.60,12.35 -20.60,12.35 -18.75,9.57 -16.89,6.78 -14.27,4.82 -11.66,2.86 -6.15,0.85 -0.64,-1.14 -0.49,-1.20 -0.35,-1.26 -0.19,-1.28 -0.03,-1.31 0.11,-1.29 0.27,-1.28 0.42,-1.23 0.57,-1.18 0.70,-1.09 0.84,-1.00 0.95,-0.89 1.05,-0.77 1.13,-0.63 1.21,-0.50 1.25,-0.34 1.29,-0.19 1.30,-0.03 1.30,0.12 1.27,0.27 1.24,0.42 1.17,0.57 1.10,0.71 1.00,0.83 0.89,0.95 0.77,1.05 0.64,1.14 0.64,1.14 L 0.64,1.14 Z"/></g><g transform="translate(350.6834411621094 13.286346435546875) rotate(0 10.40673828125 2.7386016845703125)" stroke="none"><path fill="#1e1e1e" d="M -0.46,-1.22 Q -0.46,-1.22 1.74,-3.01 3.95,-4.80 6.34,-5.26 8.73,-5.72 11.12,-4.61 13.51,-3.50 14.16,-1.51 14.81,0.46 13.46,3.36 12.11,6.25 10.31,7.87 8.51,9.49 6.87,10.25 5.24,11.01 4.42,11.28 3.61,11.56 3.21,11.67 2.82,11.77 2.42,11.78 2.01,11.79 1.61,11.70 1.22,11.61 0.86,11.43 0.49,11.25 0.18,10.99 -0.12,10.73 -0.36,10.40 -0.59,10.07 -0.75,9.70 -0.90,9.32 -0.96,8.92 -1.02,8.52 -0.98,8.12 -0.94,7.71 -0.80,7.33 -0.67,6.95 -0.45,6.61 -0.22,6.27 0.06,5.99 0.36,5.72 0.72,5.52 1.07,5.32 2.55,5.28 4.03,5.24 5.33,5.26 6.62,5.27 9.11,5.40 11.61,5.52 13.62,6.02 15.64,6.52 17.76,6.98 19.88,7.44 20.09,7.48 20.30,7.51 20.48,7.61 20.67,7.71 20.82,7.87 20.96,8.02 21.05,8.21 21.14,8.41 21.16,8.62 21.18,8.83 21.14,9.04 21.09,9.25 20.98,9.43 20.87,9.61 20.71,9.75 20.55,9.88 20.35,9.96 20.15,10.04 19.94,10.05 19.73,10.06 19.52,10.00 19.32,9.95 19.14,9.83 18.97,9.71 18.84,9.54 18.71,9.37 18.64,9.17 18.58,8.97 18.58,8.75 18.58,8.54 18.65,8.34 18.71,8.14 18.84,7.97 18.97,7.80 19.15,7.68 19.32,7.56 19.53,7.51 19.73,7.45 19.95,7.46 20.16,7.47 20.36,7.55 20.55,7.63 20.71,7.77 20.88,7.91 20.99,8.09 21.09,8.27 21.14,8.48 21.18,8.69 21.16,8.90 21.14,9.11 21.05,9.30 20.96,9.50 20.81,9.65 20.67,9.80 20.48,9.90 20.29,10.00 20.08,10.04 19.87,10.07 19.87,10.07 19.87,10.07 17.75,10.53 15.62,10.98 13.60,11.46 11.57,11.95 9.00,12.04 6.44,12.13 5.02,11.85 3.61,11.56 3.21,11.67 2.82,11.77 2.42,11.78 2.01,11.79 1.62,11.70 1.22,11.61 0.86,11.43 0.49,11.25 0.18,10.99 -0.12,10.73 -0.36,10.40 -0.59,10.07 -0.75,9.70 -0.90,9.32 -0.96,8.92 -1.02,8.52 -0.98,8.12 -0.94,7.71 -0.80,7.33 -0.67,6.95 -0.45,6.61 -0.22,6.27 0.06,5.99 0.36,5.72 0.72,5.52 1.07,5.32 2.80,4.92 4.53,4.51 5.62,3.75 6.71,2.98 8.05,1.66 9.40,0.34 7.76,0.68 6.12,1.03 3.29,1.13 0.46,1.22 0.30,1.26 0.15,1.30 -0.00,1.30 -0.16,1.30 -0.31,1.26 -0.47,1.22 -0.61,1.15 -0.75,1.07 -0.86,0.97 -0.98,0.86 -1.07,0.73 -1.16,0.60 -1.22,0.45 -1.27,0.30 -1.29,0.15 -1.31,-0.00 -1.29,-0.16 -1.27,-0.31 -1.21,-0.46 -1.16,-0.61 -1.07,-0.74 -0.97,-0.87 -0.86,-0.97 -0.74,-1.08 -0.60,-1.15 -0.46,-1.22 -0.46,-1.22 L -0.46,-1.22 Z"/></g><g transform="translate(383.5467834472656 10) rotate(0 2.7386474609375 25.19524383544922)" stroke="none"><path fill="#1e1e1e" d="M 1.25,-0.37 Q 1.25,-0.37 3.87,4.67 6.49,9.72 7.20,13.42 7.91,17.12 8.52,21.55 9.13,25.98 8.72,31.27 8.31,36.57 5.61,40.80 2.92,45.02 2.10,46.73 1.29,48.43 1.17,48.61 1.05,48.78 0.87,48.91 0.70,49.03 0.50,49.10 0.30,49.16 0.09,49.16 -0.12,49.16 -0.32,49.09 -0.52,49.02 -0.68,48.89 -0.85,48.76 -0.97,48.58 -1.09,48.40 -1.14,48.20 -1.19,47.99 -1.18,47.78 -1.17,47.57 -1.09,47.37 -1.00,47.17 -0.86,47.01 -0.73,46.85 -0.54,46.75 -0.36,46.64 -0.15,46.60 0.05,46.55 0.26,46.58 0.47,46.60 0.66,46.70 0.85,46.79 1.01,46.94 1.16,47.08 1.26,47.27 1.35,47.46 1.38,47.67 1.42,47.88 1.38,48.09 1.34,48.30 1.24,48.49 1.14,48.67 0.98,48.82 0.83,48.96 0.63,49.05 0.44,49.13 0.23,49.16 0.02,49.18 -0.18,49.13 -0.39,49.08 -0.57,48.97 -0.75,48.86 -0.89,48.69 -1.02,48.53 -1.10,48.33 -1.17,48.13 -1.18,47.92 -1.19,47.71 -1.13,47.50 -1.07,47.30 -1.07,47.30 -1.07,47.30 -0.26,45.59 0.55,43.89 1.68,40.09 2.81,36.29 2.52,31.60 2.23,26.92 1.64,22.67 1.05,18.42 0.43,15.05 -0.19,11.69 -0.72,6.03 -1.25,0.37 -1.28,0.21 -1.31,0.05 -1.29,-0.09 -1.28,-0.25 -1.23,-0.40 -1.18,-0.55 -1.10,-0.69 -1.02,-0.82 -0.90,-0.93 -0.79,-1.04 -0.65,-1.12 -0.51,-1.20 -0.36,-1.25 -0.21,-1.29 -0.05,-1.30 0.10,-1.30 0.25,-1.27 0.41,-1.24 0.55,-1.18 0.69,-1.11 0.82,-1.01 0.94,-0.91 1.03,-0.78 1.13,-0.66 1.19,-0.51 1.25,-0.37 1.25,-0.37 L 1.25,-0.37 Z"/></g><g transform="translate(33.004364013671875 236.7571563720703) rotate(0 4.38177490234375 32.86335754394531)" stroke="none"><path fill="#1e1e1e" d="M 1.27,0.31 Q 1.27,0.31 1.57,2.86 1.87,5.41 2.67,6.76 3.48,8.11 6.05,7.22 8.63,6.33 10.30,4.59 11.98,2.85 12.92,1.05 13.85,-0.75 14.30,-1.38 14.75,-2.01 15.01,-2.36 15.27,-2.70 15.60,-2.97 15.94,-3.24 16.33,-3.43 16.72,-3.61 17.14,-3.69 17.56,-3.78 17.99,-3.76 18.42,-3.74 18.84,-3.62 19.25,-3.50 19.62,-3.28 19.99,-3.06 20.30,-2.76 20.61,-2.47 20.84,-2.10 21.07,-1.74 21.21,-1.33 21.34,-0.92 21.38,-0.49 21.41,-0.06 21.34,0.36 21.27,0.78 21.10,1.18 20.93,1.58 21.20,6.12 21.47,10.67 21.38,14.22 21.29,17.77 21.25,21.48 21.22,25.18 21.20,30.85 21.19,36.52 20.86,42.50 20.54,48.47 19.75,53.07 18.96,57.67 18.26,60.10 17.55,62.52 15.92,64.74 14.29,66.96 10.81,68.46 7.33,69.96 3.46,69.79 -0.39,69.62 -4.14,67.09 -7.89,64.56 -9.12,59.60 -10.35,54.64 -8.78,49.38 -7.22,44.12 -6.77,42.06 -6.32,40.00 -6.25,39.81 -6.17,39.61 -6.03,39.45 -5.89,39.29 -5.71,39.18 -5.53,39.07 -5.32,39.02 -5.11,38.97 -4.90,39.00 -4.69,39.02 -4.50,39.11 -4.31,39.20 -4.15,39.34 -4.00,39.49 -3.90,39.68 -3.80,39.86 -3.76,40.07 -3.73,40.28 -3.76,40.49 -3.80,40.70 -3.89,40.89 -3.99,41.08 -4.15,41.22 -4.30,41.37 -4.49,41.46 -4.69,41.55 -4.90,41.57 -5.11,41.60 -5.32,41.55 -5.52,41.51 -5.71,41.40 -5.89,41.29 -6.03,41.13 -6.16,40.96 -6.24,40.77 -6.32,40.57 -6.33,40.36 -6.35,40.14 -6.29,39.94 -6.23,39.74 -6.11,39.56 -6.00,39.38 -5.83,39.25 -5.66,39.13 -5.46,39.06 -5.26,38.99 -5.04,38.99 -4.83,38.99 -4.63,39.06 -4.43,39.12 -4.26,39.25 -4.09,39.38 -3.97,39.56 -3.85,39.73 -3.79,39.94 -3.74,40.14 -3.75,40.35 -3.76,40.56 -3.76,40.56 -3.76,40.56 -4.21,42.62 -4.66,44.68 -5.21,49.12 -5.76,53.55 -4.54,56.57 -3.33,59.60 -1.34,61.03 0.63,62.45 2.86,62.72 5.09,62.98 7.06,62.53 9.02,62.07 9.82,61.18 10.63,60.29 11.20,58.35 11.77,56.41 12.52,52.24 13.26,48.07 13.59,42.28 13.91,36.50 13.93,30.80 13.95,25.11 13.99,21.34 14.03,17.58 14.13,13.93 14.22,10.28 14.48,6.64 14.74,3.00 14.74,0.49 14.75,-2.01 15.01,-2.36 15.27,-2.70 15.60,-2.97 15.93,-3.24 16.32,-3.43 16.71,-3.61 17.14,-3.69 17.56,-3.78 17.99,-3.76 18.42,-3.74 18.84,-3.62 19.25,-3.50 19.62,-3.28 19.99,-3.06 20.30,-2.77 20.61,-2.47 20.84,-2.10 21.07,-1.74 21.21,-1.33 21.34,-0.92 21.38,-0.49 21.41,-0.06 21.34,0.36 21.27,0.78 21.10,1.18 20.93,1.58 20.32,2.13 19.71,2.68 18.15,5.16 16.60,7.63 13.91,10.02 11.22,12.41 7.37,13.50 3.52,14.60 0.74,12.94 -2.03,11.28 -3.21,7.97 -4.39,4.66 -2.83,2.17 -1.27,-0.31 -1.21,-0.46 -1.16,-0.61 -1.07,-0.74 -0.98,-0.87 -0.86,-0.97 -0.74,-1.08 -0.60,-1.15 -0.46,-1.22 -0.30,-1.26 -0.15,-1.30 0.00,-1.30 0.16,-1.30 0.31,-1.26 0.46,-1.22 0.60,-1.15 0.74,-1.07 0.86,-0.97 0.98,-0.86 1.07,-0.73 1.16,-0.60 1.22,-0.45 1.27,-0.30 1.29,-0.15 1.31,0.00 1.29,0.16 1.27,0.31 1.27,0.31 L 1.27,0.31 Z"/></g><g transform="translate(69.154052734375 177.6031036376953) rotate(0 4.38177490234375 13.693069458007812)" stroke="none"><path fill="#1e1e1e" d="M 1.09,-0.72 Q 1.09,-0.72 3.84,1.54 6.59,3.81 7.87,6.88 9.15,9.96 9.94,13.26 10.72,16.56 10.97,18.64 11.23,20.72 10.16,23.93 9.09,27.14 9.00,27.33 8.91,27.53 8.77,27.68 8.62,27.84 8.44,27.94 8.25,28.04 8.04,28.07 7.83,28.11 7.62,28.08 7.41,28.04 7.22,27.94 7.03,27.84 6.89,27.69 6.74,27.54 6.65,27.34 6.56,27.15 6.54,26.94 6.51,26.73 6.56,26.52 6.60,26.31 6.71,26.13 6.82,25.95 6.98,25.81 7.14,25.67 7.34,25.59 7.53,25.51 7.75,25.50 7.96,25.49 8.16,25.55 8.37,25.60 8.55,25.72 8.72,25.84 8.85,26.01 8.98,26.18 9.05,26.38 9.12,26.58 9.12,26.79 9.12,27.00 9.05,27.20 8.99,27.41 8.86,27.58 8.73,27.75 8.55,27.87 8.38,27.99 8.17,28.04 7.97,28.10 7.76,28.09 7.55,28.08 7.35,28.00 7.15,27.92 6.99,27.79 6.83,27.65 6.72,27.47 6.60,27.29 6.56,27.08 6.51,26.87 6.53,26.66 6.56,26.45 6.56,26.45 6.56,26.45 5.93,24.10 5.30,21.75 4.88,19.96 4.46,18.17 3.66,15.33 2.87,12.48 1.92,10.00 0.96,7.52 -0.06,4.12 -1.09,0.72 -1.16,0.58 -1.23,0.44 -1.27,0.29 -1.30,0.13 -1.30,-0.02 -1.30,-0.17 -1.26,-0.33 -1.22,-0.48 -1.14,-0.62 -1.06,-0.76 -0.96,-0.88 -0.85,-0.99 -0.72,-1.08 -0.59,-1.17 -0.44,-1.22 -0.29,-1.28 -0.13,-1.29 0.02,-1.31 0.17,-1.29 0.33,-1.26 0.48,-1.21 0.62,-1.15 0.75,-1.06 0.88,-0.96 0.98,-0.84 1.09,-0.72 1.09,-0.72 L 1.09,-0.72 Z"/></g><g transform="translate(96.5401611328125 219.2300262451172) rotate(0 8.215835571289062 0)" stroke="none"><path fill="#1e1e1e" d="M 0,-1.31 Q 0,-1.31 2.20,-2.36 4.40,-3.42 5.97,-3.42 7.54,-3.42 9.46,-3.26 11.39,-3.10 13.66,-2.21 15.93,-1.31 16.14,-1.27 16.35,-1.24 16.53,-1.14 16.72,-1.04 16.87,-0.89 17.01,-0.73 17.10,-0.54 17.19,-0.35 17.21,-0.14 17.24,0.07 17.19,0.27 17.15,0.48 17.04,0.66 16.93,0.85 16.77,0.98 16.60,1.12 16.41,1.20 16.21,1.28 16.00,1.29 15.78,1.30 15.58,1.24 15.37,1.19 15.20,1.07 15.02,0.95 14.89,0.78 14.77,0.61 14.70,0.41 14.63,0.21 14.63,-0.00 14.63,-0.21 14.70,-0.41 14.77,-0.61 14.89,-0.78 15.02,-0.95 15.20,-1.07 15.37,-1.19 15.58,-1.24 15.78,-1.30 16.00,-1.29 16.21,-1.28 16.41,-1.20 16.60,-1.12 16.77,-0.98 16.93,-0.84 17.04,-0.66 17.15,-0.48 17.19,-0.27 17.24,-0.07 17.21,0.14 17.19,0.35 17.10,0.54 17.01,0.73 16.87,0.89 16.72,1.04 16.53,1.14 16.35,1.24 16.14,1.27 15.93,1.31 15.93,1.31 15.93,1.31 13.66,2.21 11.39,3.10 9.46,3.26 7.54,3.42 5.97,3.42 4.40,3.42 2.20,2.36 0,1.31 -0.15,1.29 -0.31,1.27 -0.46,1.21 -0.61,1.16 -0.74,1.07 -0.87,0.98 -0.97,0.86 -1.08,0.74 -1.15,0.60 -1.22,0.46 -1.26,0.31 -1.30,0.15 -1.30,-0.00 -1.30,-0.15 -1.26,-0.31 -1.22,-0.46 -1.15,-0.60 -1.08,-0.74 -0.97,-0.86 -0.87,-0.98 -0.74,-1.07 -0.61,-1.16 -0.46,-1.21 -0.31,-1.27 -0.15,-1.29 0.00,-1.31 0.00,-1.31 L 0,-1.31 Z"/></g><g transform="translate(96.5401611328125 233.47080993652344) rotate(0 12.049911499023438 -2.190887451171875)" stroke="none"><path fill="#1e1e1e" d="M 0,-1.31 Q 0,-1.31 2.51,-2.51 5.02,-3.72 6.39,-4.00 7.76,-4.29 10.40,-4.70 13.04,-5.10 14.64,-5.38 16.23,-5.66 19.37,-5.49 22.50,-5.31 22.71,-5.33 22.93,-5.35 23.13,-5.31 23.34,-5.26 23.52,-5.15 23.70,-5.03 23.84,-4.87 23.97,-4.71 24.05,-4.51 24.12,-4.31 24.13,-4.10 24.14,-3.89 24.08,-3.68 24.02,-3.48 23.90,-3.30 23.78,-3.13 23.61,-3.00 23.44,-2.88 23.24,-2.81 23.04,-2.75 22.82,-2.75 22.61,-2.75 22.41,-2.82 22.21,-2.89 22.04,-3.02 21.87,-3.15 21.76,-3.33 21.64,-3.51 21.59,-3.71 21.53,-3.92 21.55,-4.13 21.56,-4.34 21.64,-4.54 21.72,-4.73 21.86,-4.89 22.00,-5.05 22.18,-5.16 22.37,-5.27 22.58,-5.31 22.78,-5.36 22.99,-5.33 23.21,-5.31 23.40,-5.21 23.59,-5.12 23.74,-4.97 23.89,-4.83 23.99,-4.64 24.09,-4.45 24.12,-4.24 24.15,-4.03 24.12,-3.82 24.08,-3.61 23.98,-3.42 23.87,-3.24 23.72,-3.09 23.56,-2.95 23.37,-2.86 23.17,-2.77 23.17,-2.77 23.18,-2.77 20.61,-1.09 18.05,0.58 16.16,1.31 14.28,2.05 11.70,2.54 9.11,3.03 7.08,3.37 5.05,3.72 2.52,2.51 0,1.31 -0.15,1.29 -0.31,1.27 -0.46,1.21 -0.61,1.16 -0.74,1.07 -0.87,0.98 -0.97,0.86 -1.08,0.74 -1.15,0.60 -1.22,0.46 -1.26,0.31 -1.30,0.15 -1.30,-0.00 -1.30,-0.15 -1.26,-0.31 -1.22,-0.46 -1.15,-0.60 -1.08,-0.74 -0.97,-0.86 -0.87,-0.98 -0.74,-1.07 -0.61,-1.16 -0.46,-1.21 -0.31,-1.27 -0.15,-1.29 0.00,-1.31 0.00,-1.31 L 0,-1.31 Z"/></g><g transform="translate(154.59878540039062 225.8026885986328) rotate(0 8.7635498046875 2.1909027099609375)" stroke="none"><path fill="#1e1e1e" d="M 0.41,-1.24 Q 0.41,-1.24 2.59,-1.49 4.77,-1.73 6.53,-1.17 8.28,-0.61 10.48,-0.10 12.67,0.40 13.88,0.62 15.09,0.84 15.63,1.35 16.18,1.86 16.32,1.70 16.46,1.54 16.64,1.43 16.83,1.33 17.04,1.28 17.24,1.24 17.46,1.27 17.67,1.30 17.86,1.39 18.05,1.48 18.20,1.63 18.35,1.78 18.45,1.97 18.54,2.16 18.57,2.37 18.60,2.58 18.57,2.79 18.53,3.00 18.42,3.18 18.32,3.37 18.16,3.51 18.01,3.66 17.81,3.74 17.62,3.83 17.41,3.85 17.19,3.86 16.99,3.81 16.78,3.76 16.60,3.65 16.42,3.54 16.29,3.37 16.15,3.21 16.08,3.01 16.00,2.81 16.00,2.60 15.99,2.39 16.05,2.18 16.11,1.98 16.23,1.81 16.35,1.63 16.53,1.51 16.70,1.38 16.90,1.32 17.10,1.25 17.32,1.26 17.53,1.26 17.73,1.33 17.93,1.41 18.09,1.54 18.26,1.67 18.38,1.85 18.49,2.03 18.55,2.23 18.60,2.44 18.58,2.65 18.57,2.86 18.48,3.06 18.40,3.25 18.40,3.25 18.40,3.25 16.16,5.23 13.92,7.21 12.53,6.95 11.14,6.69 8.70,6.07 6.26,5.46 4.52,4.85 2.78,4.25 1.18,2.75 -0.41,1.24 -0.55,1.17 -0.70,1.11 -0.82,1.01 -0.94,0.91 -1.04,0.78 -1.13,0.65 -1.19,0.51 -1.26,0.36 -1.28,0.20 -1.31,0.05 -1.29,-0.10 -1.28,-0.26 -1.23,-0.41 -1.18,-0.56 -1.10,-0.69 -1.01,-0.83 -0.90,-0.93 -0.78,-1.04 -0.65,-1.12 -0.51,-1.20 -0.36,-1.25 -0.21,-1.29 -0.05,-1.30 0.10,-1.30 0.26,-1.27 0.41,-1.24 0.41,-1.24 L 0.41,-1.24 Z"/></g><g transform="translate(189.65298461914062 237.8525848388672) rotate(0 8.215850830078125 8.763565063476562)" stroke="none"><path fill="#1e1e1e" d="M -0.36,-1.26 Q -0.36,-1.26 1.75,-2.66 3.87,-4.05 6.79,-3.40 9.71,-2.74 11.99,-1.34 14.26,0.06 15.80,1.98 17.33,3.90 17.75,6.80 18.18,9.70 17.82,11.45 17.47,13.20 15.71,15.26 13.96,17.32 11.03,18.65 8.10,19.97 4.52,18.50 0.95,17.03 0.76,16.93 0.57,16.84 0.42,16.68 0.28,16.53 0.19,16.33 0.10,16.14 0.07,15.93 0.05,15.72 0.10,15.51 0.14,15.30 0.25,15.12 0.36,14.94 0.52,14.80 0.68,14.66 0.88,14.58 1.08,14.51 1.29,14.49 1.50,14.48 1.70,14.54 1.91,14.59 2.09,14.71 2.26,14.83 2.39,15.00 2.52,15.17 2.59,15.37 2.66,15.57 2.66,15.78 2.66,16.00 2.59,16.20 2.52,16.40 2.40,16.57 2.27,16.74 2.09,16.86 1.92,16.98 1.71,17.03 1.51,17.09 1.30,17.08 1.08,17.07 0.89,16.99 0.69,16.91 0.53,16.78 0.36,16.64 0.25,16.46 0.14,16.28 0.10,16.07 0.05,15.86 0.07,15.65 0.10,15.44 0.18,15.25 0.27,15.05 0.42,14.90 0.56,14.74 0.75,14.64 0.94,14.54 1.15,14.51 1.36,14.47 1.57,14.51 1.78,14.54 1.78,14.54 1.78,14.54 4.40,15.14 7.03,15.74 8.41,14.55 9.79,13.36 10.90,11.72 12.02,10.08 12.13,8.58 12.24,7.08 11.54,6.07 10.84,5.05 9.37,3.99 7.89,2.93 6.41,2.23 4.94,1.54 2.65,1.40 0.36,1.26 0.20,1.28 0.04,1.31 -0.10,1.29 -0.26,1.28 -0.41,1.23 -0.56,1.18 -0.70,1.09 -0.83,1.01 -0.94,0.89 -1.05,0.78 -1.13,0.64 -1.21,0.51 -1.25,0.35 -1.29,0.20 -1.30,0.04 -1.30,-0.11 -1.27,-0.26 -1.24,-0.42 -1.17,-0.56 -1.10,-0.70 -1.00,-0.82 -0.90,-0.95 -0.77,-1.04 -0.65,-1.13 -0.50,-1.20 -0.36,-1.26 -0.36,-1.26 L -0.36,-1.26 Z"/></g><g transform="translate(212.65737915039062 240.0435028076172) rotate(0 7.668121337890625 7.120391845703125)" stroke="none"><path fill="#1e1e1e" d="M 1.15,-0.62 Q 1.15,-0.62 3.94,3.12 6.73,6.87 7.18,8.06 7.63,9.24 10.52,8.15 13.40,7.07 13.61,7.01 13.81,6.96 14.03,6.98 14.24,7.00 14.43,7.08 14.63,7.16 14.79,7.31 14.95,7.45 15.05,7.63 15.16,7.82 15.20,8.03 15.24,8.23 15.21,8.44 15.18,8.66 15.09,8.85 14.99,9.04 14.84,9.19 14.69,9.34 14.50,9.43 14.31,9.53 14.10,9.56 13.89,9.58 13.68,9.55 13.47,9.51 13.29,9.40 13.10,9.30 12.96,9.14 12.82,8.98 12.73,8.79 12.65,8.59 12.63,8.38 12.61,8.17 12.67,7.96 12.72,7.76 12.83,7.58 12.94,7.40 13.11,7.26 13.28,7.13 13.47,7.06 13.67,6.98 13.89,6.98 14.10,6.97 14.30,7.03 14.51,7.09 14.68,7.22 14.85,7.34 14.97,7.51 15.10,7.69 15.16,7.89 15.22,8.09 15.22,8.30 15.21,8.52 15.14,8.72 15.07,8.92 14.94,9.08 14.80,9.25 14.62,9.36 14.44,9.48 14.44,9.48 14.44,9.48 10.94,11.15 7.45,12.83 4.76,11.16 2.08,9.49 0.46,5.06 -1.15,0.62 -1.21,0.47 -1.27,0.32 -1.29,0.17 -1.31,0.01 -1.29,-0.14 -1.27,-0.30 -1.22,-0.44 -1.16,-0.59 -1.08,-0.72 -0.99,-0.86 -0.87,-0.96 -0.75,-1.07 -0.61,-1.14 -0.47,-1.22 -0.32,-1.26 -0.17,-1.30 -0.01,-1.30 0.14,-1.30 0.29,-1.26 0.45,-1.23 0.59,-1.16 0.73,-1.08 0.85,-0.98 0.97,-0.88 1.06,-0.75 1.15,-0.62 1.15,-0.62 L 1.15,-0.62 Z"/></g><g transform="translate(225.80270385742188 214.84825134277344) rotate(0 -4.38177490234375 0.5477294921875)" stroke="none"><path fill="#1e1e1e" d="M -0.21,1.29 Q -0.21,1.29 -2.24,1.75 -4.26,2.22 -5.69,1.72 -7.11,1.22 -6.62,-0.62 -6.12,-2.48 -6.28,-1.14 -6.44,0.19 -4.76,-0.27 -3.07,-0.74 -2.86,-0.75 -2.65,-0.75 -2.45,-0.69 -2.24,-0.63 -2.07,-0.50 -1.90,-0.38 -1.77,-0.21 -1.65,-0.04 -1.59,0.16 -1.53,0.36 -1.53,0.57 -1.54,0.79 -1.61,0.99 -1.68,1.18 -1.82,1.35 -1.95,1.52 -2.13,1.63 -2.31,1.74 -2.51,1.80 -2.72,1.85 -2.93,1.83 -3.14,1.81 -3.34,1.73 -3.53,1.64 -3.69,1.50 -3.85,1.36 -3.96,1.18 -4.06,0.99 -4.10,0.78 -4.14,0.57 -4.11,0.36 -4.08,0.15 -3.99,-0.03 -3.89,-0.22 -3.74,-0.37 -3.59,-0.52 -3.40,-0.61 -3.21,-0.71 -3.00,-0.74 -2.79,-0.77 -2.58,-0.72 -2.37,-0.68 -2.19,-0.58 -2.00,-0.48 -1.86,-0.32 -1.72,-0.16 -1.64,0.03 -1.55,0.22 -1.53,0.43 -1.52,0.64 -1.57,0.85 -1.62,1.06 -1.74,1.24 -1.85,1.42 -2.02,1.55 -2.18,1.68 -2.38,1.75 -2.58,1.83 -2.58,1.83 -2.58,1.83 -4.73,2.09 -6.88,2.35 -8.64,0.97 -10.40,-0.40 -9.05,-2.53 -7.70,-4.66 -5.49,-4.07 -3.28,-3.48 -1.53,-2.38 0.21,-1.29 0.36,-1.25 0.51,-1.20 0.65,-1.12 0.79,-1.04 0.90,-0.93 1.02,-0.82 1.10,-0.69 1.18,-0.55 1.23,-0.40 1.28,-0.25 1.29,-0.09 1.31,0.05 1.28,0.21 1.25,0.37 1.19,0.51 1.13,0.66 1.03,0.78 0.94,0.91 0.82,1.01 0.69,1.11 0.55,1.18 0.41,1.24 0.25,1.27 0.10,1.30 -0.05,1.30 -0.21,1.29 -0.21,1.29 L -0.21,1.29 Z"/></g><g transform="translate(232.37539672851562 233.47080993652344) rotate(0 10.406707763671875 10.954452514648438)" stroke="none"><path fill="#1e1e1e" d="M 1.30,-0.10 Q 1.30,-0.10 2.45,3.92 3.59,7.96 3.73,10.36 3.88,12.75 3.94,14.71 4.01,16.66 3.99,17.02 3.97,17.38 3.86,17.73 3.75,18.07 3.56,18.38 3.37,18.69 3.11,18.95 2.85,19.21 2.54,19.39 2.23,19.58 1.88,19.69 1.54,19.79 1.17,19.81 0.81,19.83 0.46,19.77 0.10,19.70 -0.22,19.55 -0.55,19.40 -0.84,19.17 -1.12,18.95 -1.34,18.66 -1.57,18.37 -1.71,18.04 -1.86,17.71 -1.93,17.35 -1.99,17.00 -1.70,14.39 -1.42,11.78 0.47,8.57 2.36,5.37 4.74,3.43 7.12,1.49 10.63,2.06 14.14,2.63 16.55,5.65 18.96,8.67 19.94,11.33 20.92,13.98 21.24,17.10 21.56,20.22 21.60,20.42 21.65,20.63 21.62,20.84 21.60,21.05 21.51,21.25 21.42,21.44 21.27,21.59 21.12,21.74 20.93,21.84 20.75,21.94 20.54,21.97 20.33,22.01 20.12,21.97 19.91,21.93 19.72,21.83 19.53,21.73 19.39,21.58 19.24,21.42 19.16,21.23 19.07,21.03 19.05,20.82 19.03,20.61 19.07,20.40 19.12,20.20 19.23,20.02 19.34,19.83 19.50,19.70 19.67,19.56 19.87,19.48 20.06,19.41 20.28,19.40 20.49,19.39 20.69,19.45 20.90,19.50 21.07,19.63 21.25,19.75 21.37,19.92 21.50,20.09 21.57,20.29 21.63,20.49 21.63,20.70 21.63,20.91 21.56,21.12 21.49,21.32 21.36,21.48 21.23,21.65 21.06,21.77 20.88,21.89 20.67,21.94 20.47,22.00 20.26,21.99 20.04,21.97 19.85,21.89 19.65,21.81 19.49,21.67 19.33,21.53 19.22,21.35 19.11,21.17 19.11,21.17 19.11,21.17 17.29,18.79 15.46,16.41 14.39,14.44 13.32,12.46 12.37,10.52 11.42,8.59 9.66,8.79 7.90,8.99 6.37,11.06 4.84,13.13 4.42,14.89 4.01,16.66 3.99,17.02 3.97,17.38 3.86,17.73 3.75,18.07 3.56,18.38 3.37,18.69 3.11,18.95 2.85,19.21 2.54,19.39 2.23,19.58 1.88,19.69 1.54,19.79 1.18,19.81 0.81,19.83 0.46,19.77 0.10,19.70 -0.22,19.55 -0.55,19.40 -0.84,19.17 -1.12,18.95 -1.34,18.66 -1.57,18.38 -1.71,18.04 -1.86,17.71 -1.93,17.35 -1.99,17.00 -2.04,15.04 -2.08,13.09 -2.21,10.75 -2.33,8.41 -1.82,4.25 -1.30,0.10 -1.30,-0.05 -1.29,-0.21 -1.25,-0.36 -1.20,-0.51 -1.12,-0.65 -1.04,-0.79 -0.93,-0.90 -0.82,-1.02 -0.69,-1.10 -0.55,-1.18 -0.40,-1.23 -0.25,-1.28 -0.09,-1.29 0.05,-1.31 0.21,-1.28 0.37,-1.26 0.51,-1.19 0.66,-1.13 0.78,-1.03 0.91,-0.94 1.01,-0.82 1.11,-0.69 1.18,-0.55 1.24,-0.41 1.27,-0.25 1.30,-0.10 1.30,-0.10 L 1.30,-0.10 Z"/></g><g transform="translate(287.1476135253906 202.79835510253906) rotate(0 -4.38177490234375 31.220184326171875)" stroke="none"><path fill="#1e1e1e" d="M 1.17,0.58 Q 1.17,0.58 0.75,3.52 0.33,6.46 -1.31,11.73 -2.96,17.01 -3.64,24.35 -4.32,31.69 -4.37,37.61 -4.42,43.54 -3.64,48.38 -2.85,53.22 -1.73,57.24 -0.61,61.27 -0.56,61.47 -0.51,61.68 -0.53,61.89 -0.55,62.10 -0.64,62.30 -0.72,62.49 -0.87,62.65 -1.01,62.80 -1.20,62.91 -1.38,63.01 -1.59,63.05 -1.80,63.08 -2.01,63.05 -2.22,63.02 -2.41,62.92 -2.60,62.83 -2.75,62.67 -2.90,62.52 -2.99,62.33 -3.08,62.14 -3.11,61.93 -3.13,61.72 -3.09,61.51 -3.05,61.30 -2.94,61.12 -2.83,60.93 -2.67,60.79 -2.51,60.65 -2.32,60.57 -2.12,60.49 -1.91,60.48 -1.70,60.46 -1.49,60.52 -1.29,60.57 -1.11,60.69 -0.93,60.80 -0.80,60.97 -0.67,61.14 -0.60,61.34 -0.53,61.54 -0.53,61.75 -0.52,61.96 -0.59,62.17 -0.65,62.37 -0.78,62.54 -0.90,62.71 -1.08,62.83 -1.25,62.95 -1.46,63.01 -1.66,63.07 -1.87,63.07 -2.09,63.06 -2.28,62.98 -2.48,62.90 -2.65,62.77 -2.81,62.63 -2.92,62.45 -3.03,62.27 -3.03,62.27 -3.03,62.27 -5.23,58.31 -7.43,54.35 -9.15,48.96 -10.87,43.58 -10.91,37.30 -10.94,31.03 -10.09,23.01 -9.25,14.98 -7.31,9.30 -5.37,3.61 -3.27,1.51 -1.17,-0.58 -1.08,-0.71 -0.99,-0.85 -0.88,-0.95 -0.76,-1.06 -0.62,-1.14 -0.48,-1.21 -0.33,-1.25 -0.18,-1.30 -0.02,-1.30 0.13,-1.30 0.28,-1.27 0.44,-1.23 0.58,-1.16 0.72,-1.09 0.84,-0.99 0.96,-0.89 1.05,-0.76 1.15,-0.63 1.20,-0.48 1.26,-0.33 1.29,-0.18 1.31,-0.02 1.29,0.13 1.28,0.28 1.22,0.43 1.17,0.58 1.17,0.58 L 1.17,0.58 Z"/></g><g transform="translate(298.1020812988281 256.4751739501953) rotate(0 9.311279296875 -24.09979248046875)" stroke="none"><path fill="#1e1e1e" d="M -1.22,-0.47 Q -1.22,-0.47 3.27,-14.66 7.77,-28.84 7.95,-29.18 8.13,-29.51 8.38,-29.79 8.63,-30.08 8.95,-30.29 9.26,-30.50 9.61,-30.63 9.97,-30.77 10.35,-30.81 10.72,-30.85 11.10,-30.81 11.47,-30.76 11.83,-30.62 12.18,-30.48 12.49,-30.27 12.80,-30.05 13.05,-29.76 13.30,-29.48 13.48,-29.14 13.65,-28.81 13.74,-28.44 13.83,-28.07 13.82,-27.69 13.82,-27.31 13.73,-26.94 13.64,-26.58 14.08,-22.45 14.53,-18.32 14.54,-14.96 14.55,-11.59 13.93,-6.84 13.31,-2.09 13.28,-1.88 13.25,-1.67 13.16,-1.48 13.06,-1.29 12.91,-1.14 12.76,-0.99 12.57,-0.90 12.38,-0.81 12.17,-0.78 11.96,-0.75 11.75,-0.79 11.54,-0.84 11.36,-0.94 11.17,-1.05 11.03,-1.21 10.89,-1.36 10.81,-1.56 10.72,-1.76 10.71,-1.97 10.69,-2.18 10.75,-2.39 10.80,-2.59 10.91,-2.77 11.03,-2.95 11.20,-3.08 11.36,-3.21 11.56,-3.28 11.76,-3.36 11.97,-3.36 12.19,-3.37 12.39,-3.30 12.59,-3.24 12.76,-3.11 12.94,-2.99 13.06,-2.82 13.18,-2.64 13.24,-2.44 13.30,-2.23 13.30,-2.02 13.29,-1.81 13.21,-1.61 13.14,-1.41 13.01,-1.25 12.87,-1.08 12.69,-0.97 12.51,-0.86 12.31,-0.81 12.10,-0.76 11.89,-0.77 11.68,-0.79 11.48,-0.88 11.29,-0.96 11.13,-1.11 10.97,-1.25 10.87,-1.43 10.77,-1.62 10.73,-1.83 10.69,-2.04 10.69,-2.04 10.69,-2.04 9.87,-6.68 9.06,-11.32 8.74,-14.57 8.42,-17.83 8.09,-23.34 7.77,-28.84 7.95,-29.18 8.13,-29.51 8.38,-29.79 8.63,-30.08 8.95,-30.29 9.26,-30.50 9.61,-30.63 9.97,-30.77 10.35,-30.81 10.72,-30.85 11.10,-30.81 11.47,-30.76 11.83,-30.62 12.18,-30.48 12.49,-30.27 12.80,-30.05 13.05,-29.76 13.30,-29.48 13.48,-29.14 13.65,-28.81 13.74,-28.44 13.83,-28.07 13.82,-27.69 13.82,-27.31 13.73,-26.94 13.64,-26.58 7.43,-13.05 1.22,0.47 1.15,0.61 1.07,0.75 0.97,0.87 0.86,0.98 0.73,1.07 0.60,1.16 0.45,1.22 0.30,1.27 0.14,1.29 -0.00,1.31 -0.16,1.29 -0.32,1.27 -0.46,1.21 -0.61,1.15 -0.74,1.06 -0.87,0.97 -0.98,0.85 -1.08,0.73 -1.15,0.59 -1.23,0.45 -1.26,0.30 -1.30,0.15 -1.30,-0.00 -1.30,-0.16 -1.26,-0.31 -1.22,-0.47 -1.22,-0.47 L -1.22,-0.47 Z"/></g><g transform="translate(322.2018737792969 240.0435028076172) rotate(0 12.597625732421875 1.0954437255859375)" stroke="none"><path fill="#1e1e1e" d="M 0.16,-1.30 Q 0.16,-1.30 5.31,-1.62 10.46,-1.94 14.56,-1.36 18.66,-0.77 20.50,-0.92 22.35,-1.08 22.56,-1.06 22.77,-1.04 22.97,-0.96 23.16,-0.88 23.32,-0.73 23.48,-0.59 23.59,-0.41 23.69,-0.22 23.73,-0.01 23.77,0.18 23.74,0.40 23.72,0.61 23.62,0.80 23.53,0.99 23.38,1.14 23.23,1.29 23.04,1.38 22.85,1.48 22.64,1.51 22.43,1.54 22.22,1.50 22.01,1.46 21.82,1.35 21.64,1.25 21.50,1.09 21.35,0.93 21.27,0.74 21.19,0.54 21.17,0.33 21.15,0.12 21.20,-0.08 21.25,-0.28 21.37,-0.46 21.48,-0.64 21.65,-0.78 21.81,-0.91 22.01,-0.98 22.21,-1.06 22.42,-1.06 22.63,-1.07 22.84,-1.01 23.04,-0.95 23.21,-0.82 23.39,-0.70 23.51,-0.53 23.64,-0.35 23.70,-0.15 23.76,0.04 23.76,0.26 23.75,0.47 23.68,0.67 23.60,0.87 23.47,1.03 23.34,1.20 23.16,1.31 22.98,1.43 22.77,1.48 22.57,1.53 22.57,1.53 22.57,1.53 20.72,1.69 18.87,1.84 14.28,3.15 9.69,4.46 4.76,2.88 -0.16,1.30 -0.31,1.26 -0.47,1.22 -0.60,1.15 -0.74,1.07 -0.86,0.97 -0.98,0.86 -1.07,0.73 -1.16,0.60 -1.22,0.45 -1.27,0.30 -1.29,0.15 -1.31,-0.00 -1.29,-0.16 -1.27,-0.31 -1.21,-0.46 -1.16,-0.61 -1.07,-0.74 -0.97,-0.87 -0.86,-0.97 -0.74,-1.08 -0.60,-1.15 -0.46,-1.22 -0.30,-1.26 -0.15,-1.30 0.00,-1.30 0.16,-1.30 0.16,-1.30 L 0.16,-1.30 Z"/></g><g transform="translate(339.7289733886719 232.37538146972656) rotate(0 1.095458984375 10.954452514648438)" stroke="none"><path fill="#1e1e1e" d="M 1.31,0 Q 1.31,0 2.25,4.09 3.18,8.18 3.14,10.55 3.11,12.92 2.99,14.69 2.87,16.46 3.02,18.53 3.16,20.60 3.19,20.81 3.22,21.02 3.18,21.23 3.14,21.44 3.03,21.62 2.93,21.81 2.77,21.95 2.61,22.09 2.42,22.18 2.22,22.26 2.01,22.28 1.80,22.30 1.59,22.24 1.39,22.19 1.21,22.08 1.03,21.96 0.89,21.80 0.76,21.63 0.69,21.43 0.61,21.23 0.61,21.02 0.60,20.81 0.66,20.61 0.73,20.40 0.85,20.23 0.98,20.06 1.15,19.93 1.32,19.81 1.52,19.75 1.73,19.69 1.94,19.69 2.15,19.70 2.35,19.77 2.55,19.84 2.72,19.98 2.88,20.11 3.00,20.29 3.11,20.47 3.16,20.67 3.21,20.88 3.20,21.09 3.18,21.30 3.09,21.50 3.01,21.69 2.87,21.85 2.73,22.01 2.54,22.12 2.36,22.22 2.15,22.26 1.94,22.30 1.73,22.27 1.52,22.24 1.33,22.15 1.14,22.05 0.99,21.90 0.84,21.75 0.74,21.56 0.65,21.37 0.65,21.37 0.65,21.37 -0.48,19.28 -1.61,17.19 -2.36,15.06 -3.11,12.93 -3.14,10.56 -3.18,8.18 -2.25,4.09 -1.31,0 -1.29,-0.15 -1.27,-0.31 -1.21,-0.46 -1.16,-0.61 -1.07,-0.74 -0.98,-0.87 -0.86,-0.97 -0.74,-1.08 -0.60,-1.15 -0.46,-1.22 -0.31,-1.26 -0.15,-1.30 0.00,-1.30 0.15,-1.30 0.31,-1.26 0.46,-1.22 0.60,-1.15 0.74,-1.08 0.86,-0.97 0.98,-0.87 1.07,-0.74 1.16,-0.61 1.21,-0.46 1.27,-0.31 1.29,-0.15 1.31,0.00 1.31,0.00 L 1.31,0 Z"/></g><g transform="translate(353.9697570800781 223.61180114746094) rotate(0 16.97943115234375 10.9544677734375)" stroke="none"><path fill="#1e1e1e" d="M -0.72,-1.09 Q -0.72,-1.09 2.51,-4.43 5.75,-7.77 9.02,-9.03 12.28,-10.29 15.12,-10.04 17.96,-9.79 19.98,-7.64 22.01,-5.49 21.79,-0.89 21.57,3.70 20.35,7.75 19.14,11.81 17.95,14.55 16.77,17.29 14.63,21.05 12.49,24.81 10.47,27.24 8.45,29.68 6.28,30.97 4.11,32.27 3.09,32.69 2.06,33.12 1.68,33.27 1.29,33.42 0.88,33.47 0.47,33.52 0.06,33.48 -0.34,33.43 -0.73,33.29 -1.12,33.14 -1.46,32.91 -1.80,32.68 -2.08,32.37 -2.36,32.06 -2.55,31.70 -2.75,31.33 -2.85,30.93 -2.95,30.53 -2.96,30.12 -2.96,29.70 -2.86,29.30 -2.77,28.90 -2.58,28.53 -2.39,28.16 -2.12,27.85 -1.84,27.54 -1.51,27.30 -1.17,27.06 1.29,25.33 3.76,23.60 6.94,22.65 10.12,21.71 14.19,21.31 18.26,20.91 22.12,21.65 25.98,22.39 29.85,24.54 33.71,26.70 33.90,26.79 34.09,26.88 34.24,27.03 34.39,27.18 34.49,27.37 34.58,27.56 34.61,27.77 34.64,27.98 34.60,28.19 34.56,28.40 34.46,28.59 34.35,28.77 34.20,28.91 34.04,29.06 33.84,29.14 33.65,29.23 33.44,29.24 33.22,29.26 33.02,29.21 32.81,29.16 32.63,29.04 32.45,28.93 32.32,28.76 32.19,28.60 32.11,28.40 32.04,28.20 32.03,27.99 32.03,27.78 32.09,27.57 32.15,27.37 32.28,27.20 32.40,27.02 32.57,26.90 32.74,26.78 32.95,26.71 33.15,26.65 33.36,26.66 33.58,26.66 33.77,26.73 33.97,26.81 34.14,26.94 34.31,27.07 34.42,27.25 34.54,27.43 34.59,27.64 34.64,27.84 34.62,28.05 34.60,28.27 34.52,28.46 34.44,28.66 34.30,28.82 34.15,28.97 33.97,29.08 33.78,29.18 33.58,29.22 33.37,29.26 33.16,29.24 32.95,29.21 32.95,29.21 32.95,29.21 29.01,28.98 25.08,28.75 21.98,28.52 18.89,28.28 15.49,28.56 12.09,28.84 9.55,29.50 7.01,30.16 5.34,30.55 3.66,30.94 2.86,32.03 2.06,33.12 1.68,33.27 1.29,33.42 0.88,33.47 0.47,33.52 0.06,33.48 -0.34,33.43 -0.73,33.29 -1.12,33.14 -1.46,32.91 -1.80,32.68 -2.08,32.37 -2.36,32.06 -2.55,31.70 -2.75,31.33 -2.85,30.93 -2.95,30.53 -2.96,30.12 -2.96,29.70 -2.86,29.30 -2.77,28.90 -2.58,28.53 -2.39,28.16 -2.12,27.85 -1.84,27.54 -1.51,27.30 -1.17,27.06 -0.10,26.71 0.95,26.35 2.22,25.81 3.48,25.27 5.09,23.38 6.70,21.49 8.66,18.04 10.63,14.59 11.67,12.22 12.72,9.86 13.81,6.34 14.89,2.83 15.62,-0.00 16.35,-2.83 15.32,-3.44 14.30,-4.06 11.82,-3.18 9.35,-2.30 5.04,-0.60 0.72,1.09 0.58,1.16 0.44,1.23 0.29,1.27 0.13,1.30 -0.02,1.30 -0.17,1.30 -0.33,1.26 -0.48,1.22 -0.62,1.14 -0.76,1.06 -0.88,0.96 -0.99,0.85 -1.08,0.72 -1.17,0.59 -1.22,0.44 -1.28,0.29 -1.29,0.13 -1.31,-0.02 -1.29,-0.17 -1.26,-0.33 -1.21,-0.48 -1.15,-0.62 -1.06,-0.75 -0.96,-0.88 -0.84,-0.98 -0.72,-1.09 -0.72,-1.09 L -0.72,-1.09 Z"/></g><g transform="translate(394.5012512207031 237.8525848388672) rotate(0 13.145355224609375 6.0249481201171875)" stroke="none"><path fill="#1e1e1e" d="M 0.76,-1.06 Q 0.76,-1.06 5.80,1.19 10.84,3.46 13.49,5.05 16.15,6.65 18.08,7.66 20.00,8.68 22.51,9.16 25.03,9.65 25.24,9.68 25.45,9.71 25.63,9.81 25.82,9.91 25.97,10.06 26.12,10.21 26.21,10.41 26.30,10.60 26.32,10.81 26.35,11.02 26.30,11.23 26.26,11.44 26.15,11.62 26.04,11.80 25.88,11.94 25.72,12.08 25.53,12.16 25.33,12.24 25.12,12.25 24.90,12.27 24.70,12.21 24.49,12.16 24.32,12.04 24.14,11.92 24.01,11.75 23.88,11.58 23.81,11.38 23.74,11.18 23.74,10.97 23.74,10.76 23.80,10.56 23.87,10.35 24.00,10.18 24.13,10.01 24.30,9.89 24.47,9.77 24.68,9.71 24.88,9.66 25.10,9.67 25.31,9.67 25.51,9.75 25.70,9.83 25.87,9.97 26.03,10.10 26.14,10.28 26.25,10.46 26.30,10.67 26.35,10.88 26.33,11.09 26.30,11.30 26.22,11.49 26.13,11.69 25.98,11.84 25.84,12.00 25.65,12.10 25.47,12.20 25.26,12.24 25.05,12.27 25.05,12.27 25.05,12.27 21.89,12.80 18.73,13.33 15.74,12.94 12.75,12.55 9.77,10.84 6.79,9.13 3.01,5.10 -0.76,1.06 -0.88,0.96 -0.99,0.85 -1.08,0.72 -1.17,0.59 -1.22,0.44 -1.28,0.29 -1.29,0.13 -1.31,-0.02 -1.29,-0.17 -1.26,-0.33 -1.21,-0.48 -1.15,-0.62 -1.06,-0.75 -0.96,-0.88 -0.84,-0.98 -0.72,-1.09 -0.58,-1.16 -0.44,-1.23 -0.29,-1.27 -0.13,-1.30 0.02,-1.30 0.17,-1.30 0.33,-1.26 0.48,-1.22 0.62,-1.14 0.76,-1.06 0.76,-1.06 L 0.76,-1.06 Z"/></g><g transform="translate(410.9329528808594 238.9480438232422) rotate(0 -6.02496337890625 5.4772186279296875)" stroke="none"><path fill="#1e1e1e" d="M 0.82,1.02 Q 0.82,1.02 -1.71,4.31 -4.24,7.61 -6.02,8.67 -7.81,9.73 -9.16,10.36 -10.50,10.98 -10.64,11.14 -10.79,11.30 -10.97,11.40 -11.16,11.50 -11.37,11.54 -11.58,11.58 -11.79,11.55 -12.00,11.52 -12.19,11.43 -12.38,11.33 -12.53,11.18 -12.67,11.03 -12.77,10.84 -12.86,10.65 -12.89,10.43 -12.92,10.22 -12.87,10.02 -12.83,9.81 -12.73,9.62 -12.62,9.44 -12.46,9.30 -12.30,9.16 -12.11,9.07 -11.91,8.99 -11.70,8.98 -11.49,8.96 -11.28,9.01 -11.08,9.06 -10.90,9.18 -10.72,9.30 -10.59,9.46 -10.46,9.63 -10.38,9.83 -10.31,10.03 -10.31,10.24 -10.30,10.45 -10.37,10.66 -10.43,10.86 -10.56,11.03 -10.68,11.20 -10.85,11.33 -11.03,11.45 -11.23,11.51 -11.43,11.57 -11.65,11.56 -11.86,11.56 -12.06,11.48 -12.26,11.41 -12.42,11.27 -12.59,11.14 -12.70,10.96 -12.81,10.78 -12.86,10.57 -12.91,10.37 -12.89,10.15 -12.88,9.94 -12.79,9.75 -12.71,9.55 -12.71,9.55 -12.71,9.55 -12.05,7.09 -11.39,4.62 -9.87,3.54 -8.35,2.46 -4.58,0.72 -0.82,-1.02 -0.68,-1.10 -0.55,-1.19 -0.40,-1.24 -0.24,-1.28 -0.09,-1.30 0.06,-1.31 0.22,-1.28 0.37,-1.25 0.52,-1.19 0.66,-1.13 0.79,-1.03 0.91,-0.93 1.01,-0.81 1.11,-0.69 1.18,-0.54 1.24,-0.40 1.27,-0.24 1.31,-0.09 1.30,0.06 1.29,0.22 1.24,0.37 1.20,0.52 1.12,0.66 1.04,0.79 0.93,0.91 0.82,1.02 0.82,1.02 L 0.82,1.02 Z"/></g><g transform="translate(418.6010437011719 209.3710174560547) rotate(0 6.572662353515625 23.552078247070312)" stroke="none"><path fill="#1e1e1e" d="M 1.01,-0.83 Q 1.01,-0.83 4.73,1.91 8.45,4.66 10.17,7.65 11.90,10.63 13.35,15.31 14.80,19.99 15.09,26.05 15.38,32.11 14.31,36.77 13.25,41.43 10.74,41.91 8.23,42.38 8.18,42.53 8.14,42.68 8.05,42.82 7.97,42.95 7.85,43.06 7.74,43.17 7.60,43.25 7.47,43.33 7.32,43.38 7.16,43.42 7.01,43.43 6.85,43.44 6.69,43.40 6.54,43.37 6.39,43.31 6.25,43.24 6.13,43.14 6.00,43.04 5.91,42.92 5.81,42.79 5.75,42.64 5.69,42.50 5.66,42.34 5.63,42.19 5.65,42.03 5.66,41.87 5.68,42.20 5.70,42.54 5.67,42.33 5.63,42.12 5.67,41.91 5.70,41.70 5.80,41.51 5.91,41.32 6.06,41.18 6.22,41.03 6.41,40.95 6.60,40.86 6.81,40.84 7.03,40.82 7.23,40.86 7.44,40.91 7.62,41.02 7.80,41.13 7.94,41.29 8.08,41.46 8.15,41.65 8.23,41.85 8.24,42.06 8.25,42.28 8.19,42.48 8.13,42.69 8.01,42.86 7.89,43.04 7.72,43.16 7.55,43.29 7.35,43.36 7.15,43.42 6.94,43.42 6.72,43.42 6.52,43.35 6.32,43.28 6.15,43.15 5.99,43.02 5.87,42.85 5.75,42.67 5.69,42.46 5.64,42.26 5.65,42.05 5.67,41.84 5.75,41.64 5.83,41.44 5.96,41.28 6.10,41.12 6.29,41.01 6.47,40.90 6.68,40.86 6.88,40.81 7.09,40.84 7.31,40.86 7.50,40.95 7.69,41.04 7.84,41.19 8.00,41.34 8.12,41.86 8.23,42.38 8.18,42.53 8.14,42.68 8.05,42.82 7.97,42.95 7.85,43.06 7.74,43.17 7.60,43.25 7.47,43.33 7.32,43.38 7.16,43.42 7.01,43.43 6.85,43.44 6.69,43.41 6.54,43.37 6.39,43.31 6.25,43.24 6.13,43.14 6.00,43.04 5.91,42.92 5.81,42.79 5.75,42.64 5.69,42.50 5.66,42.34 5.63,42.19 5.65,42.03 5.66,41.87 6.22,41.00 6.78,40.13 7.41,36.24 8.04,32.36 7.88,27.19 7.71,22.03 6.61,18.08 5.51,14.14 4.20,11.67 2.88,9.19 0.93,5.01 -1.01,0.83 -1.10,0.69 -1.18,0.56 -1.23,0.41 -1.28,0.26 -1.29,0.10 -1.31,-0.05 -1.28,-0.20 -1.26,-0.36 -1.19,-0.50 -1.13,-0.65 -1.04,-0.78 -0.94,-0.90 -0.82,-1.00 -0.70,-1.10 -0.56,-1.17 -0.41,-1.24 -0.26,-1.27 -0.10,-1.30 0.05,-1.30 0.20,-1.29 0.36,-1.25 0.51,-1.20 0.65,-1.12 0.78,-1.05 0.90,-0.94 1.01,-0.83 1.01,-0.83 L 1.01,-0.83 Z"/></g><g transform="translate(397.7875671386719 202.79835510253906) rotate(0 8.76361083984375 3.8340606689453125)" stroke="none"><path fill="#1e1e1e" d="M -0.84,-1.00 Q -0.84,-1.00 0.43,-3.33 1.71,-5.67 4.32,-6.49 6.93,-7.32 9.06,-5.61 11.19,-3.90 10.90,-0.39 10.60,3.11 8.90,6.30 7.19,9.49 5.73,11.25 4.27,13.01 2.85,13.98 1.43,14.94 1.40,14.84 1.38,14.73 1.04,14.92 0.70,15.12 0.32,15.23 -0.05,15.33 -0.44,15.35 -0.84,15.36 -1.22,15.28 -1.60,15.20 -1.96,15.03 -2.31,14.86 -2.62,14.61 -2.92,14.36 -3.15,14.04 -3.39,13.73 -3.54,13.36 -3.69,13.00 -3.75,12.61 -3.81,12.23 -3.78,11.83 -3.75,11.44 -3.62,11.07 -3.49,10.70 -3.28,10.37 -3.07,10.04 -2.78,9.77 -2.50,9.49 -0.89,8.91 0.71,8.32 2.44,8.15 4.16,7.99 8.32,8.54 12.49,9.10 14.21,8.94 15.94,8.78 16.15,8.80 16.37,8.81 16.56,8.89 16.76,8.98 16.92,9.12 17.08,9.26 17.18,9.44 17.29,9.62 17.33,9.83 17.38,10.04 17.35,10.25 17.32,10.46 17.23,10.65 17.14,10.84 16.99,11.00 16.84,11.15 16.65,11.24 16.46,11.34 16.25,11.37 16.04,11.40 15.83,11.37 15.62,11.33 15.44,11.22 15.25,11.12 15.11,10.97 14.96,10.81 14.88,10.61 14.79,10.42 14.77,10.21 14.75,10.00 14.80,9.79 14.85,9.58 14.96,9.40 15.08,9.22 15.24,9.09 15.40,8.95 15.60,8.88 15.80,8.80 16.01,8.79 16.23,8.79 16.43,8.85 16.63,8.91 16.81,9.03 16.98,9.15 17.11,9.32 17.23,9.49 17.30,9.70 17.36,9.90 17.36,10.11 17.36,10.32 17.28,10.52 17.21,10.72 17.08,10.89 16.95,11.06 16.77,11.17 16.59,11.29 16.39,11.34 16.18,11.40 16.18,11.40 16.18,11.40 14.46,11.56 12.73,11.72 8.76,13.02 4.80,14.33 3.09,14.53 1.38,14.73 1.04,14.92 0.70,15.12 0.32,15.23 -0.05,15.33 -0.44,15.35 -0.84,15.36 -1.22,15.28 -1.60,15.20 -1.96,15.03 -2.31,14.86 -2.62,14.61 -2.92,14.36 -3.15,14.04 -3.39,13.73 -3.54,13.36 -3.69,13.00 -3.75,12.61 -3.81,12.23 -3.78,11.83 -3.75,11.44 -3.62,11.07 -3.49,10.70 -3.28,10.37 -3.07,10.04 -2.78,9.77 -2.50,9.50 -1.52,9.18 -0.53,8.87 0.53,7.65 1.60,6.43 2.88,4.09 4.17,1.75 5.00,0.56 5.84,-0.62 3.34,0.19 0.84,1.00 0.70,1.09 0.57,1.18 0.42,1.23 0.27,1.28 0.11,1.29 -0.03,1.31 -0.19,1.28 -0.35,1.26 -0.49,1.20 -0.64,1.14 -0.77,1.05 -0.90,0.95 -1.00,0.83 -1.10,0.71 -1.17,0.57 -1.24,0.42 -1.27,0.27 -1.30,0.11 -1.30,-0.03 -1.29,-0.19 -1.25,-0.35 -1.21,-0.50 -1.13,-0.64 -1.05,-0.77 -0.94,-0.89 -0.84,-1.00 -0.84,-1.00 L -0.84,-1.00 Z"/></g><g transform="translate(465.7051696777344 233.47080993652344) rotate(0 2.19091796875 -2.7386016845703125)" stroke="none"><path fill="#1e1e1e" d="M -1.27,-0.31 Q -1.27,-0.31 -1.98,-1.83 -2.70,-3.35 -2.55,-3.73 -2.40,-4.12 -2.16,-4.46 -1.93,-4.80 -1.62,-5.07 -1.31,-5.35 -0.94,-5.54 -0.57,-5.73 -0.17,-5.83 0.22,-5.93 0.64,-5.92 1.05,-5.92 1.45,-5.82 1.85,-5.72 2.22,-5.53 2.59,-5.33 2.89,-5.06 3.20,-4.78 3.44,-4.44 3.67,-4.10 3.82,-3.71 3.96,-3.33 4.01,-2.91 4.06,-2.50 4.01,-2.09 3.96,-1.68 2.92,-0.49 1.88,0.69 1.45,1.02 1.03,1.35 0.65,1.49 0.27,1.64 -0.12,1.68 -0.52,1.73 -0.92,1.68 -1.32,1.63 -1.70,1.49 -2.08,1.34 -2.41,1.11 -2.74,0.88 -3.01,0.58 -3.28,0.27 -3.47,-0.07 -3.65,-0.43 -3.75,-0.83 -3.84,-1.22 -3.84,-1.62 -3.84,-2.03 -3.74,-2.42 -3.65,-2.81 -3.46,-3.17 -3.27,-3.53 -3.00,-3.83 -2.73,-4.13 -2.40,-4.36 -2.06,-4.59 -0.35,-3.93 1.36,-3.28 1.57,-2.67 1.77,-2.06 1.92,-2.01 2.07,-1.96 2.21,-1.88 2.34,-1.79 2.45,-1.68 2.56,-1.57 2.64,-1.43 2.72,-1.30 2.77,-1.14 2.82,-0.99 2.82,-0.83 2.83,-0.68 2.80,-0.52 2.77,-0.36 2.70,-0.22 2.64,-0.08 2.54,0.04 2.44,0.16 2.31,0.26 2.19,0.35 2.04,0.42 1.90,0.48 1.74,0.51 1.59,0.53 1.43,0.52 1.27,0.51 1.49,0.52 1.71,0.52 1.50,0.52 1.29,0.51 1.09,0.44 0.88,0.37 0.72,0.24 0.55,0.11 0.44,-0.06 0.32,-0.24 0.27,-0.44 0.21,-0.65 0.23,-0.86 0.24,-1.07 0.33,-1.27 0.41,-1.47 0.55,-1.63 0.69,-1.79 0.87,-1.89 1.06,-2.00 1.27,-2.04 1.47,-2.08 1.69,-2.05 1.90,-2.03 2.09,-1.93 2.28,-1.84 2.43,-1.69 2.58,-1.54 2.68,-1.35 2.77,-1.16 2.80,-0.95 2.83,-0.74 2.80,-0.54 2.76,-0.33 2.65,-0.14 2.55,0.04 2.40,0.18 2.24,0.32 2.04,0.41 1.85,0.49 1.64,0.51 1.43,0.53 1.22,0.48 1.01,0.43 0.83,0.32 0.65,0.21 0.52,0.04 0.38,-0.11 0.31,-0.31 0.23,-0.51 0.23,-0.72 0.22,-0.93 0.28,-1.14 0.34,-1.34 0.46,-1.52 0.59,-1.69 0.76,-1.81 0.93,-1.94 1.35,-2.00 1.77,-2.06 1.92,-2.01 2.07,-1.96 2.21,-1.88 2.34,-1.79 2.45,-1.68 2.56,-1.57 2.64,-1.43 2.72,-1.30 2.77,-1.14 2.82,-0.99 2.82,-0.83 2.83,-0.68 2.80,-0.52 2.77,-0.37 2.70,-0.22 2.64,-0.08 2.54,0.04 2.44,0.16 2.31,0.26 2.19,0.35 2.04,0.42 1.90,0.48 1.74,0.51 1.59,0.53 1.43,0.52 1.27,0.51 1.15,0.93 1.03,1.35 0.65,1.49 0.27,1.64 -0.12,1.68 -0.52,1.73 -0.92,1.68 -1.32,1.63 -1.70,1.49 -2.08,1.34 -2.41,1.11 -2.74,0.88 -3.01,0.58 -3.28,0.28 -3.47,-0.07 -3.65,-0.43 -3.75,-0.83 -3.84,-1.22 -3.84,-1.62 -3.84,-2.03 -3.75,-2.42 -3.65,-2.81 -3.46,-3.17 -3.27,-3.53 -3.00,-3.83 -2.73,-4.13 -2.40,-4.36 -2.06,-4.59 -1.70,-4.97 -1.34,-5.36 -2.02,-4.35 -2.70,-3.35 -2.55,-3.73 -2.40,-4.12 -2.16,-4.46 -1.93,-4.80 -1.62,-5.07 -1.31,-5.35 -0.94,-5.54 -0.57,-5.73 -0.17,-5.83 0.22,-5.93 0.64,-5.92 1.05,-5.92 1.45,-5.82 1.85,-5.72 2.22,-5.53 2.59,-5.33 2.89,-5.06 3.20,-4.78 3.44,-4.44 3.67,-4.10 3.82,-3.71 3.96,-3.33 4.01,-2.91 4.06,-2.50 4.01,-2.09 3.96,-1.68 2.61,-0.68 1.27,0.31 1.21,0.46 1.16,0.61 1.07,0.74 0.98,0.87 0.86,0.97 0.74,1.08 0.60,1.15 0.46,1.22 0.30,1.26 0.15,1.30 -0.00,1.30 -0.16,1.30 -0.31,1.26 -0.46,1.22 -0.60,1.15 -0.74,1.07 -0.86,0.97 -0.98,0.86 -1.07,0.73 -1.16,0.60 -1.22,0.45 -1.27,0.30 -1.29,0.15 -1.31,-0.00 -1.29,-0.16 -1.27,-0.31 -1.27,-0.31 L -1.27,-0.31 Z"/></g><g transform="translate(502.9503479003906 195.13023376464844) rotate(0 4.929473876953125 26.290679931640625)" stroke="none"><path fill="#1e1e1e" d="M 1.25,0.37 Q 1.25,0.37 1.20,3.79 1.16,7.21 0.49,9.78 -0.16,12.36 -0.70,16.12 -1.23,19.89 -1.48,22.71 -1.72,25.54 -1.82,28.89 -1.93,32.25 -2.04,35.06 -2.15,37.88 -0.67,36.23 0.80,34.59 2.02,33.14 3.24,31.70 4.01,31.39 4.79,31.08 5.10,30.79 5.41,30.51 5.78,30.30 6.16,30.10 6.57,29.99 6.98,29.88 7.40,29.88 7.82,29.87 8.24,29.97 8.65,30.06 9.03,30.25 9.41,30.44 9.73,30.72 10.05,30.99 10.30,31.34 10.54,31.68 10.70,32.08 10.86,32.47 10.92,32.89 10.97,33.31 10.93,33.73 10.88,34.15 10.74,34.55 10.60,34.95 10.36,35.30 10.13,35.66 11.15,36.02 12.18,36.38 12.49,39.18 12.79,41.98 12.85,43.72 12.90,45.46 12.41,47.01 11.92,48.57 13.34,48.77 14.77,48.96 14.97,49.03 15.17,49.10 15.34,49.23 15.51,49.36 15.63,49.53 15.75,49.71 15.81,49.91 15.86,50.12 15.85,50.33 15.84,50.54 15.76,50.74 15.68,50.94 15.54,51.10 15.40,51.26 15.22,51.37 15.04,51.48 14.83,51.52 14.62,51.57 14.41,51.54 14.20,51.52 14.01,51.43 13.81,51.34 13.66,51.19 13.51,51.05 13.41,50.86 13.31,50.67 13.28,50.46 13.24,50.25 13.28,50.04 13.31,49.83 13.41,49.64 13.51,49.46 13.67,49.31 13.82,49.17 14.02,49.08 14.21,48.99 14.42,48.97 14.63,48.94 14.84,48.99 15.05,49.04 15.23,49.15 15.41,49.26 15.55,49.42 15.68,49.58 15.76,49.78 15.84,49.98 15.85,50.19 15.86,50.40 15.80,50.61 15.74,50.81 15.63,50.99 15.51,51.16 15.34,51.29 15.17,51.42 14.96,51.49 14.76,51.55 14.55,51.55 14.34,51.55 14.34,51.55 14.34,51.55 12.25,51.15 10.16,50.76 8.30,48.38 6.44,45.99 6.24,44.39 6.05,42.79 5.77,40.69 5.49,38.59 5.14,34.83 4.79,31.08 5.10,30.79 5.41,30.51 5.78,30.30 6.16,30.10 6.57,29.99 6.98,29.88 7.40,29.88 7.82,29.87 8.24,29.97 8.65,30.06 9.03,30.25 9.41,30.44 9.73,30.72 10.05,30.99 10.30,31.34 10.54,31.68 10.70,32.08 10.86,32.47 10.92,32.89 10.97,33.31 10.93,33.73 10.88,34.15 10.74,34.55 10.60,34.95 10.36,35.30 10.13,35.66 9.14,36.03 8.15,36.41 6.71,38.07 5.28,39.73 2.99,41.49 0.70,43.24 -1.70,43.43 -4.10,43.61 -6.38,41.09 -8.65,38.56 -8.67,35.30 -8.69,32.03 -8.57,28.48 -8.44,24.93 -8.16,21.89 -7.88,18.85 -7.18,14.73 -6.48,10.62 -5.71,8.00 -4.93,5.38 -3.09,2.50 -1.25,-0.37 -1.19,-0.52 -1.13,-0.66 -1.03,-0.79 -0.93,-0.91 -0.81,-1.01 -0.69,-1.11 -0.54,-1.18 -0.40,-1.24 -0.24,-1.27 -0.09,-1.31 0.06,-1.30 0.22,-1.29 0.37,-1.24 0.52,-1.20 0.66,-1.12 0.79,-1.04 0.91,-0.93 1.02,-0.82 1.10,-0.68 1.19,-0.55 1.24,-0.40 1.28,-0.25 1.30,-0.09 1.31,0.06 1.28,0.22 1.25,0.37 1.25,0.37 L 1.25,0.37 Z"/></g><g transform="translate(525.9546813964844 229.0890350341797) rotate(0 16.431671142578125 7.120391845703125)" stroke="none"><path fill="#1e1e1e" d="M 0.65,-1.14 Q 0.65,-1.14 7.81,1.68 14.97,4.50 18.16,6.44 21.35,8.39 24.32,8.80 27.28,9.21 28.84,9.02 30.40,8.83 30.61,8.84 30.82,8.85 31.02,8.92 31.22,9.00 31.38,9.13 31.55,9.27 31.66,9.45 31.77,9.63 31.82,9.84 31.87,10.05 31.84,10.26 31.82,10.47 31.74,10.66 31.65,10.86 31.51,11.01 31.36,11.17 31.18,11.27 30.99,11.37 30.78,11.41 30.57,11.45 30.36,11.41 30.15,11.38 29.96,11.28 29.77,11.19 29.62,11.03 29.48,10.88 29.38,10.69 29.29,10.50 29.27,10.29 29.24,10.08 29.29,9.87 29.33,9.66 29.44,9.48 29.54,9.29 29.70,9.15 29.86,9.02 30.06,8.93 30.26,8.85 30.47,8.84 30.68,8.83 30.89,8.88 31.09,8.93 31.27,9.05 31.45,9.17 31.58,9.34 31.71,9.50 31.78,9.70 31.85,9.90 31.85,10.12 31.85,10.33 31.79,10.53 31.72,10.73 31.60,10.90 31.47,11.08 31.29,11.20 31.12,11.32 30.92,11.38 30.71,11.44 30.71,11.44 30.71,11.44 29.15,11.62 27.60,11.81 23.23,13.11 18.86,14.41 15.17,12.51 11.48,10.61 5.41,5.87 -0.65,1.14 -0.77,1.04 -0.90,0.95 -1.00,0.82 -1.10,0.70 -1.17,0.56 -1.24,0.42 -1.27,0.26 -1.30,0.11 -1.30,-0.04 -1.29,-0.20 -1.25,-0.35 -1.21,-0.50 -1.13,-0.64 -1.05,-0.78 -0.94,-0.89 -0.83,-1.01 -0.70,-1.09 -0.56,-1.18 -0.41,-1.23 -0.26,-1.28 -0.11,-1.29 0.04,-1.31 0.20,-1.28 0.35,-1.26 0.50,-1.20 0.65,-1.14 0.65,-1.14 L 0.65,-1.14 Z"/></g><g transform="translate(548.9590148925781 223.61180114746094) rotate(0 -11.502166748046875 13.145339965820312)" stroke="none"><path fill="#1e1e1e" d="M 0.97,0.88 Q 0.97,0.88 -4.36,8.07 -9.70,15.27 -12.69,18.29 -15.68,21.30 -18.34,23.58 -21.00,25.86 -21.16,26.01 -21.32,26.15 -21.51,26.24 -21.70,26.33 -21.92,26.35 -22.13,26.37 -22.33,26.32 -22.54,26.27 -22.72,26.16 -22.90,26.05 -23.04,25.88 -23.17,25.72 -23.25,25.52 -23.32,25.32 -23.33,25.11 -23.34,24.90 -23.28,24.69 -23.22,24.49 -23.10,24.31 -22.98,24.14 -22.81,24.01 -22.64,23.89 -22.44,23.82 -22.23,23.76 -22.02,23.76 -21.81,23.76 -21.61,23.83 -21.41,23.90 -21.24,24.03 -21.07,24.16 -20.96,24.34 -20.84,24.52 -20.79,24.73 -20.73,24.93 -20.75,25.14 -20.76,25.35 -20.84,25.55 -20.92,25.75 -21.06,25.91 -21.20,26.07 -21.39,26.17 -21.57,26.28 -21.78,26.32 -21.98,26.37 -22.20,26.34 -22.41,26.32 -22.60,26.22 -22.79,26.13 -22.94,25.98 -23.09,25.84 -23.19,25.65 -23.29,25.46 -23.32,25.25 -23.35,25.04 -23.31,24.83 -23.28,24.62 -23.18,24.43 -23.07,24.25 -23.07,24.25 -23.07,24.25 -21.38,20.95 -19.68,17.64 -16.96,14.41 -14.23,11.17 -7.60,5.14 -0.97,-0.88 -0.85,-0.98 -0.73,-1.08 -0.59,-1.16 -0.45,-1.23 -0.29,-1.26 -0.14,-1.30 0.01,-1.30 0.17,-1.30 0.32,-1.26 0.47,-1.22 0.61,-1.14 0.75,-1.07 0.87,-0.96 0.99,-0.86 1.08,-0.72 1.16,-0.59 1.22,-0.44 1.27,-0.30 1.29,-0.14 1.31,0.01 1.29,0.17 1.27,0.32 1.21,0.47 1.15,0.62 1.06,0.75 0.97,0.88 0.97,0.88 L 0.97,0.88 Z"/></g></svg>