<svg version="1.1" xmlns="http://www.w3.org/2000/svg" viewBox="0 0 1067.9373474121094 171.17144775390625" width="1067.9373474121094" height="171.17144775390625" class="excalidraw-svg">
  <!-- svg-source:excalidraw -->
  
  <defs>
    <style class="style-fonts">
      @font-face {
        font-family: "Virgil";
        src: url("https://excalidraw.com/Virgil.woff2");
      }
      @font-face {
        font-family: "Cascadia";
        src: url("https://excalidraw.com/Cascadia.woff2");
      }
      @font-face {
        font-family: "Assistant";
        src: url("https://excalidraw.com/Assistant-Regular.woff2");
      }
    </style>
    
  </defs>
  <rect x="0" y="0" width="1067.9373474121094" height="171.17144775390625" fill="#ffffff"/><g transform="translate(10 42.86338806152344) rotate(0 7.120391845703125 35.05424499511719)" stroke="none"><path fill="#1e1e1e" d="M 1.27,-0.29 Q 1.27,-0.29 3.21,3.57 5.14,7.43 5.92,13.11 6.69,18.79 7.03,25.68 7.38,32.58 7.82,39.19 8.27,45.80 8.97,51.67 9.68,57.54 9.79,60.55 9.89,63.56 11.75,64.87 13.62,66.18 13.79,66.30 13.97,66.42 14.10,66.59 14.23,66.76 14.30,66.96 14.36,67.16 14.37,67.37 14.37,67.59 14.30,67.79 14.23,67.99 14.10,68.16 13.98,68.33 13.80,68.45 13.62,68.57 13.42,68.63 13.22,68.68 13.00,68.67 12.79,68.66 12.59,68.58 12.40,68.51 12.23,68.37 12.07,68.23 11.96,68.05 11.85,67.87 11.80,67.66 11.76,67.45 11.78,67.24 11.80,67.03 11.89,66.84 11.98,66.64 12.13,66.49 12.27,66.34 12.46,66.23 12.65,66.13 12.86,66.10 13.07,66.06 13.27,66.10 13.48,66.13 13.67,66.23 13.86,66.33 14.01,66.48 14.15,66.64 14.24,66.83 14.33,67.02 14.36,67.23 14.38,67.44 14.34,67.65 14.29,67.86 14.18,68.04 14.07,68.22 13.91,68.36 13.75,68.50 13.55,68.58 13.36,68.66 13.14,68.67 12.93,68.68 12.73,68.63 12.52,68.57 12.52,68.57 12.52,68.57 9.09,67.46 5.66,66.35 4.44,62.39 3.22,58.43 2.29,52.34 1.36,46.26 0.92,39.58 0.48,32.89 0.21,26.27 -0.04,19.66 -0.70,14.30 -1.37,8.93 -1.32,4.61 -1.27,0.29 -1.29,0.13 -1.31,-0.01 -1.29,-0.17 -1.27,-0.33 -1.21,-0.48 -1.15,-0.62 -1.06,-0.75 -0.96,-0.88 -0.84,-0.98 -0.72,-1.09 -0.58,-1.16 -0.44,-1.23 -0.29,-1.27 -0.13,-1.30 0.01,-1.30 0.17,-1.30 0.33,-1.26 0.48,-1.22 0.62,-1.14 0.76,-1.06 0.87,-0.96 0.99,-0.85 1.08,-0.72 1.17,-0.59 1.22,-0.44 1.27,-0.29 1.27,-0.29 L 1.27,-0.29 Z"/></g><g transform="translate(36.290679931640625 93.25386047363281) rotate(0 4.38177490234375 9.311286926269531)" stroke="none"><path fill="#1e1e1e" d="M 1.21,0.48 Q 1.21,0.48 1.47,2.41 1.72,4.33 1.24,6.38 0.76,8.42 0.88,10.48 1.00,12.54 1.40,13.54 1.80,14.55 4.33,13.60 6.86,12.64 8.15,11.83 9.44,11.03 9.64,10.95 9.83,10.86 10.04,10.85 10.26,10.83 10.46,10.89 10.67,10.94 10.84,11.06 11.02,11.17 11.15,11.34 11.29,11.51 11.36,11.71 11.43,11.91 11.43,12.12 11.43,12.33 11.37,12.54 11.31,12.74 11.18,12.91 11.05,13.08 10.88,13.20 10.71,13.32 10.50,13.38 10.30,13.44 10.09,13.44 9.87,13.43 9.67,13.35 9.48,13.28 9.31,13.14 9.15,13.01 9.04,12.83 8.92,12.65 8.87,12.44 8.82,12.23 8.84,12.02 8.86,11.81 8.95,11.62 9.04,11.42 9.18,11.26 9.32,11.11 9.51,11.01 9.70,10.90 9.90,10.87 10.11,10.83 10.32,10.86 10.53,10.89 10.72,10.99 10.91,11.08 11.06,11.23 11.21,11.39 11.30,11.58 11.39,11.77 11.42,11.98 11.45,12.19 11.40,12.40 11.36,12.61 11.26,12.79 11.15,12.98 10.99,13.12 10.83,13.26 10.83,13.26 10.83,13.26 9.54,14.06 8.25,14.87 4.94,17.56 1.63,20.26 -1.05,18.95 -3.75,17.64 -4.67,15.24 -5.58,12.84 -5.60,9.84 -5.61,6.84 -4.93,4.40 -4.24,1.95 -2.73,0.73 -1.21,-0.48 -1.14,-0.62 -1.06,-0.76 -0.96,-0.88 -0.85,-0.99 -0.72,-1.08 -0.58,-1.17 -0.44,-1.22 -0.29,-1.28 -0.13,-1.29 0.02,-1.31 0.18,-1.29 0.33,-1.26 0.48,-1.21 0.63,-1.15 0.75,-1.05 0.88,-0.96 0.99,-0.84 1.09,-0.72 1.16,-0.58 1.23,-0.44 1.27,-0.28 1.30,-0.13 1.30,0.02 1.30,0.18 1.26,0.33 1.21,0.48 1.21,0.48 L 1.21,0.48 Z"/></g><g transform="translate(50.531463623046875 69.15406799316406) rotate(0 -2.738616943359375 -2.190887451171875)" stroke="none"><path fill="#1e1e1e" d="M -1.05,0.78 Q -1.05,0.78 -2.61,0.01 -4.18,-0.75 -2.78,-1.19 -1.37,-1.63 -2.04,-0.74 -2.72,0.13 -2.83,0.02 -2.95,-0.08 -3.03,-0.21 -3.12,-0.35 -3.17,-0.50 -3.22,-0.65 -3.23,-0.80 -3.25,-0.96 -3.22,-1.12 -3.20,-1.27 -3.13,-1.42 -3.07,-1.56 -2.98,-1.69 -2.88,-1.82 -2.76,-1.92 -2.64,-2.02 -2.50,-2.09 -2.35,-2.16 -2.20,-2.19 -2.04,-2.22 -1.88,-2.21 -1.73,-2.21 -1.57,-2.16 -1.42,-2.12 -1.28,-2.04 -1.15,-1.96 -1.09,-1.91 -1.02,-1.86 -0.90,-1.69 -0.77,-1.52 -0.70,-1.31 -0.64,-1.11 -0.64,-0.90 -0.64,-0.69 -0.71,-0.49 -0.78,-0.29 -0.91,-0.12 -1.04,0.04 -1.22,0.16 -1.39,0.28 -1.60,0.33 -1.80,0.39 -2.01,0.37 -2.23,0.36 -2.42,0.28 -2.62,0.20 -2.78,0.06 -2.94,-0.07 -3.05,-0.25 -3.16,-0.44 -3.20,-0.64 -3.25,-0.85 -3.22,-1.06 -3.20,-1.27 -3.11,-1.47 -3.01,-1.66 -2.87,-1.81 -2.72,-1.96 -2.53,-2.06 -2.34,-2.16 -2.13,-2.19 -1.92,-2.22 -1.71,-2.19 -1.50,-2.15 -1.32,-2.05 -1.13,-1.95 -0.99,-1.79 -0.84,-1.64 -0.75,-1.45 -0.67,-1.25 -0.64,-1.04 -0.62,-0.83 -0.67,-0.62 -0.72,-0.41 -0.83,-0.23 -0.94,-0.05 -1.10,0.07 -1.27,0.21 -1.46,0.29 -1.66,0.36 -1.87,0.37 -2.09,0.38 -2.29,0.32 -2.50,0.27 -2.61,0.20 -2.72,0.13 -2.83,0.02 -2.95,-0.08 -3.03,-0.21 -3.12,-0.34 -3.17,-0.49 -3.22,-0.64 -3.23,-0.80 -3.25,-0.96 -3.22,-1.12 -3.20,-1.27 -3.13,-1.42 -3.07,-1.56 -2.98,-1.69 -2.88,-1.82 -2.76,-1.92 -2.64,-2.02 -2.50,-2.09 -2.35,-2.16 -2.20,-2.19 -2.04,-2.22 -1.88,-2.21 -1.73,-2.21 -1.57,-2.16 -1.42,-2.12 -1.28,-2.04 -1.15,-1.96 -3.21,-3.75 -5.27,-5.54 -2.43,-4.91 0.40,-4.28 0.72,-2.53 1.05,-0.78 1.12,-0.65 1.20,-0.51 1.25,-0.36 1.29,-0.20 1.30,-0.05 1.30,0.10 1.27,0.26 1.24,0.41 1.17,0.56 1.10,0.70 1.00,0.82 0.90,0.94 0.78,1.04 0.65,1.13 0.50,1.19 0.36,1.26 0.20,1.28 0.05,1.31 -0.10,1.29 -0.26,1.28 -0.41,1.23 -0.56,1.18 -0.69,1.10 -0.83,1.01 -0.94,0.90 -1.05,0.78 -1.05,0.78 L -1.05,0.78 Z"/></g><g transform="translate(62.58135986328125 94.34930419921875) rotate(0 13.145355224609375 10.954460144042969)" stroke="none"><path fill="#1e1e1e" d="M 1.28,-0.25 Q 1.28,-0.25 2.17,1.20 3.06,2.66 3.23,3.72 3.40,4.77 3.47,6.25 3.54,7.73 2.76,9.71 1.97,11.69 2.51,10.69 3.05,9.69 3.02,10.00 2.99,10.31 2.89,10.61 2.78,10.91 2.61,11.17 2.44,11.43 2.21,11.65 1.98,11.86 1.71,12.02 1.43,12.17 1.13,12.25 0.83,12.34 0.52,12.34 0.20,12.35 -0.10,12.29 -0.40,12.22 -0.68,12.08 -0.97,11.94 -1.21,11.74 -1.45,11.54 -1.63,11.28 -1.82,11.03 -1.94,10.74 -2.06,10.45 -2.10,10.14 -2.15,9.83 -2.27,8.65 -2.39,7.47 -1.80,5.18 -1.21,2.89 0.03,0.57 1.29,-1.73 3.08,-3.86 4.87,-5.98 7.36,-6.07 9.86,-6.16 11.13,-4.66 12.41,-3.16 12.88,-0.59 13.36,1.98 13.49,4.24 13.61,6.51 13.66,7.76 13.71,9.01 13.73,9.22 13.75,9.42 13.73,9.76 13.70,10.11 13.59,10.43 13.49,10.76 13.30,11.05 13.12,11.34 12.88,11.57 12.63,11.81 12.33,11.98 12.04,12.16 11.71,12.25 11.38,12.35 11.04,12.36 10.70,12.38 10.36,12.31 10.03,12.25 9.72,12.10 9.41,11.95 9.14,11.74 8.88,11.52 8.67,11.25 8.46,10.98 8.33,10.66 8.19,10.35 8.13,10.01 8.08,9.67 9.00,7.91 9.92,6.14 10.71,4.67 11.50,3.20 12.81,0.84 14.12,-1.50 16.53,-2.98 18.94,-4.46 21.03,-3.86 23.13,-3.26 24.87,0.11 26.61,3.49 27.15,8.56 27.68,13.63 27.73,16.85 27.78,20.06 27.62,23.48 27.46,26.90 27.44,27.11 27.43,27.32 27.35,27.52 27.26,27.71 27.12,27.87 26.98,28.03 26.80,28.14 26.62,28.25 26.41,28.29 26.20,28.33 25.99,28.31 25.78,28.28 25.59,28.19 25.40,28.10 25.24,27.95 25.09,27.80 24.99,27.61 24.90,27.42 24.87,27.21 24.83,27.00 24.87,26.79 24.91,26.58 25.01,26.40 25.11,26.21 25.27,26.07 25.43,25.92 25.62,25.84 25.81,25.75 26.03,25.73 26.24,25.71 26.44,25.76 26.65,25.81 26.83,25.92 27.01,26.03 27.15,26.20 27.28,26.36 27.36,26.56 27.43,26.76 27.44,26.97 27.45,27.18 27.39,27.39 27.33,27.59 27.21,27.76 27.09,27.94 26.92,28.06 26.75,28.19 26.54,28.25 26.34,28.32 26.13,28.32 25.92,28.31 25.72,28.24 25.52,28.17 25.35,28.04 25.18,27.91 25.06,27.73 24.95,27.56 24.89,27.35 24.84,27.14 24.84,27.14 24.84,27.14 24.05,23.96 23.27,20.78 22.28,17.53 21.30,14.29 20.89,10.09 20.47,5.90 19.83,3.76 19.19,1.62 17.84,3.80 16.50,5.98 15.13,7.70 13.75,9.42 13.73,9.76 13.70,10.10 13.59,10.43 13.49,10.76 13.30,11.05 13.12,11.34 12.88,11.57 12.63,11.81 12.33,11.98 12.04,12.16 11.71,12.25 11.38,12.35 11.04,12.36 10.70,12.38 10.36,12.31 10.03,12.25 9.72,12.10 9.41,11.95 9.14,11.74 8.88,11.52 8.67,11.25 8.46,10.98 8.33,10.66 8.19,10.35 8.13,10.01 8.08,9.67 8.06,9.47 8.03,9.26 7.97,8.06 7.90,6.85 7.78,4.83 7.65,2.80 8.01,0.48 8.36,-1.83 7.25,-0.35 6.14,1.13 5.02,2.85 3.89,4.57 3.33,5.84 2.77,7.11 2.91,8.40 3.05,9.69 3.02,10.00 2.99,10.31 2.89,10.61 2.78,10.91 2.61,11.17 2.44,11.43 2.21,11.65 1.98,11.86 1.71,12.02 1.44,12.17 1.13,12.25 0.83,12.34 0.52,12.34 0.20,12.35 -0.10,12.29 -0.40,12.22 -0.68,12.08 -0.97,11.94 -1.21,11.74 -1.45,11.54 -1.63,11.28 -1.82,11.03 -1.94,10.74 -2.06,10.45 -2.10,10.14 -2.15,9.83 -1.83,8.89 -1.52,7.94 -1.66,5.79 -1.80,3.63 -1.54,1.94 -1.28,0.25 -1.29,0.09 -1.31,-0.05 -1.28,-0.21 -1.25,-0.37 -1.19,-0.51 -1.13,-0.66 -1.03,-0.78 -0.94,-0.91 -0.82,-1.01 -0.69,-1.11 -0.55,-1.18 -0.41,-1.24 -0.25,-1.27 -0.10,-1.30 0.05,-1.30 0.21,-1.29 0.36,-1.25 0.51,-1.20 0.65,-1.12 0.79,-1.04 0.90,-0.93 1.02,-0.82 1.10,-0.69 1.18,-0.55 1.23,-0.40 1.28,-0.25 1.28,-0.25 L 1.28,-0.25 Z"/></g><g transform="translate(24.24078369140625 139.26255798339844) rotate(0 6.572662353515625 9.311286926269531)" stroke="none"><path fill="#1e1e1e" d="M 1.29,-0.21 Q 1.29,-0.21 2.32,1.55 3.35,3.32 3.57,5.52 3.78,7.71 3.90,10.22 4.01,12.73 4.05,14.10 4.10,15.46 4.13,15.72 4.16,15.98 4.12,16.35 4.08,16.72 3.96,17.07 3.83,17.42 3.62,17.73 3.42,18.04 3.15,18.29 2.87,18.55 2.55,18.72 2.22,18.90 1.86,19.00 1.50,19.09 1.13,19.10 0.76,19.11 0.40,19.02 0.03,18.94 -0.29,18.77 -0.62,18.61 -0.90,18.37 -1.19,18.12 -1.40,17.82 -1.62,17.52 -1.76,17.18 -1.89,16.83 -1.95,16.46 -2.00,16.09 -1.98,14.91 -1.97,13.73 -1.96,11.98 -1.95,10.24 -1.59,7.93 -1.23,5.62 0.24,3.42 1.72,1.22 4.74,0.93 7.75,0.63 9.34,2.58 10.94,4.52 11.79,7.56 12.65,10.59 13.16,13.41 13.68,16.22 13.80,16.39 13.93,16.56 14.00,16.76 14.07,16.96 14.07,17.17 14.07,17.39 14.00,17.59 13.93,17.79 13.80,17.96 13.67,18.13 13.49,18.24 13.32,18.36 13.11,18.42 12.91,18.47 12.69,18.46 12.48,18.45 12.29,18.37 12.09,18.29 11.93,18.15 11.77,18.01 11.66,17.83 11.55,17.65 11.50,17.44 11.46,17.23 11.48,17.02 11.51,16.81 11.60,16.62 11.69,16.43 11.83,16.27 11.98,16.12 12.17,16.02 12.36,15.92 12.57,15.89 12.78,15.86 12.98,15.89 13.19,15.93 13.38,16.03 13.57,16.13 13.71,16.28 13.86,16.44 13.95,16.63 14.04,16.82 14.06,17.03 14.08,17.24 14.03,17.45 13.99,17.66 13.88,17.84 13.77,18.02 13.60,18.16 13.44,18.30 13.24,18.37 13.05,18.45 12.83,18.46 12.62,18.47 12.42,18.42 12.21,18.36 12.04,18.24 11.86,18.12 11.86,18.12 11.86,18.12 9.41,15.20 6.95,12.28 6.25,10.04 5.54,7.80 4.95,6.24 4.36,4.67 4.52,5.77 4.68,6.86 4.41,8.56 4.14,10.26 4.14,12.01 4.15,13.75 4.15,14.87 4.16,15.98 4.12,16.35 4.08,16.72 3.96,17.07 3.83,17.42 3.62,17.73 3.42,18.04 3.15,18.29 2.87,18.55 2.55,18.72 2.22,18.90 1.86,19.00 1.50,19.09 1.13,19.10 0.76,19.11 0.40,19.02 0.03,18.94 -0.29,18.77 -0.62,18.61 -0.90,18.37 -1.19,18.13 -1.40,17.82 -1.62,17.52 -1.76,17.18 -1.89,16.83 -1.95,16.46 -2.00,16.09 -1.99,15.83 -1.98,15.57 -1.98,14.22 -1.99,12.87 -1.99,10.48 -1.99,8.09 -2.04,6.16 -2.09,4.23 -1.69,2.22 -1.29,0.21 -1.30,0.05 -1.30,-0.10 -1.27,-0.25 -1.24,-0.41 -1.18,-0.55 -1.11,-0.69 -1.01,-0.82 -0.91,-0.94 -0.78,-1.03 -0.66,-1.13 -0.51,-1.19 -0.37,-1.26 -0.21,-1.28 -0.05,-1.31 0.09,-1.29 0.25,-1.28 0.40,-1.23 0.55,-1.18 0.69,-1.10 0.82,-1.02 0.93,-0.90 1.04,-0.79 1.12,-0.65 1.20,-0.51 1.25,-0.36 1.29,-0.21 1.29,-0.21 L 1.29,-0.21 Z"/></g><g transform="translate(40.672454833984375 143.64434814453125) rotate(0 12.049896240234375 -1.0954513549804688)" stroke="none"><path fill="#1e1e1e" d="M -0.16,-1.30 Q -0.16,-1.30 2.22,-2.67 4.61,-4.05 6.83,-4.43 9.06,-4.81 11.52,-4.68 13.98,-4.54 18.20,-3.54 22.41,-2.55 22.62,-2.49 22.83,-2.44 23.01,-2.33 23.18,-2.21 23.32,-2.05 23.45,-1.88 23.52,-1.68 23.60,-1.48 23.60,-1.27 23.61,-1.06 23.55,-0.86 23.48,-0.65 23.36,-0.48 23.23,-0.31 23.06,-0.18 22.89,-0.06 22.69,-0.00 22.48,0.05 22.27,0.05 22.06,0.04 21.86,-0.02 21.66,-0.09 21.49,-0.23 21.33,-0.36 21.21,-0.54 21.10,-0.72 21.05,-0.93 21.00,-1.13 21.02,-1.34 21.03,-1.56 21.12,-1.75 21.20,-1.95 21.34,-2.10 21.48,-2.26 21.67,-2.37 21.86,-2.47 22.06,-2.51 22.27,-2.55 22.48,-2.52 22.69,-2.49 22.88,-2.40 23.07,-2.30 23.22,-2.15 23.37,-2.00 23.47,-1.81 23.56,-1.62 23.59,-1.41 23.62,-1.20 23.58,-0.99 23.54,-0.78 23.43,-0.60 23.33,-0.41 23.17,-0.27 23.01,-0.13 22.82,-0.05 22.62,0.03 22.41,0.04 22.20,0.06 22.20,0.06 22.20,0.06 18.31,0.39 14.41,0.72 12.37,1.24 10.33,1.76 7.89,2.27 5.46,2.79 2.81,2.04 0.16,1.30 0.00,1.30 -0.15,1.30 -0.30,1.26 -0.46,1.22 -0.60,1.15 -0.74,1.08 -0.86,0.97 -0.97,0.87 -1.07,0.74 -1.16,0.61 -1.21,0.46 -1.27,0.31 -1.29,0.16 -1.31,0.00 -1.29,-0.15 -1.27,-0.30 -1.22,-0.45 -1.16,-0.60 -1.07,-0.73 -0.98,-0.86 -0.86,-0.97 -0.74,-1.07 -0.60,-1.15 -0.46,-1.22 -0.31,-1.26 -0.16,-1.30 -0.16,-1.30 L -0.16,-1.30 Z"/></g><g transform="translate(64.77224731445312 137.07167053222656) rotate(0 8.215835571289062 4.381782531738281)" stroke="none"><path fill="#1e1e1e" d="M 0.13,-1.30 Q 0.13,-1.30 3.37,-1.98 6.62,-2.65 9.07,-2.15 11.52,-1.65 13.98,-0.01 16.43,1.63 16.83,3.63 17.22,5.62 15.98,7.53 14.75,9.44 12.97,10.48 11.19,11.52 8.15,11.29 5.11,11.06 4.90,11.06 4.69,11.06 4.48,11.00 4.28,10.93 4.11,10.80 3.94,10.67 3.82,10.50 3.70,10.32 3.65,10.12 3.59,9.91 3.60,9.70 3.61,9.49 3.69,9.29 3.77,9.09 3.90,8.93 4.04,8.77 4.22,8.66 4.41,8.55 4.61,8.50 4.82,8.46 5.03,8.48 5.24,8.50 5.44,8.59 5.63,8.68 5.78,8.82 5.94,8.97 6.04,9.16 6.14,9.35 6.17,9.56 6.21,9.76 6.17,9.97 6.14,10.18 6.04,10.37 5.94,10.56 5.79,10.71 5.63,10.85 5.44,10.94 5.25,11.03 5.04,11.06 4.83,11.08 4.62,11.03 4.41,10.99 4.23,10.88 4.05,10.77 3.91,10.61 3.77,10.45 3.69,10.25 3.61,10.05 3.60,9.84 3.59,9.63 3.65,9.42 3.70,9.22 3.82,9.04 3.94,8.87 4.11,8.74 4.28,8.61 4.48,8.54 4.68,8.47 4.68,8.47 4.68,8.47 6.38,7.21 8.09,5.94 9.14,5.33 10.20,4.71 8.08,4.31 5.96,3.91 2.91,2.61 -0.13,1.30 -0.28,1.27 -0.43,1.23 -0.58,1.16 -0.72,1.09 -0.84,0.99 -0.96,0.89 -1.05,0.76 -1.14,0.63 -1.20,0.48 -1.26,0.34 -1.29,0.18 -1.31,0.02 -1.29,-0.12 -1.28,-0.28 -1.22,-0.43 -1.17,-0.58 -1.08,-0.71 -1.00,-0.84 -0.88,-0.95 -0.76,-1.06 -0.63,-1.14 -0.49,-1.21 -0.33,-1.25 -0.18,-1.30 -0.02,-1.30 0.13,-1.30 0.13,-1.30 L 0.13,-1.30 Z"/></g><g transform="translate(112.97186279296875 135.97622680664062) rotate(0 9.858978271484375 4.381782531738281)" stroke="none"><path fill="#1e1e1e" d="M -0.13,1.30 Q -0.13,1.30 -3.36,1.86 -6.59,2.42 -8.60,2.60 -10.61,2.79 -11.90,3.11 -13.19,3.44 -10.71,2.20 -8.22,0.96 -3.60,-0.24 1.01,-1.46 5.08,-2.02 9.16,-2.57 12.81,-2.81 16.47,-3.04 19.60,-3.14 22.73,-3.24 25.84,-2.96 28.94,-2.68 31.49,-1.85 34.04,-1.02 35.53,-0.27 37.01,0.47 38.48,2.45 39.95,4.43 39.32,6.87 38.69,9.31 35.46,10.73 32.22,12.15 28.27,12.58 24.31,13.02 20.15,13.18 15.98,13.34 12.48,13.09 8.97,12.83 6.17,12.32 3.36,11.82 1.63,10.15 -0.09,8.48 -0.60,5.36 -1.11,2.23 -1.10,2.02 -1.08,1.81 -1.00,1.61 -0.92,1.42 -0.78,1.26 -0.64,1.10 -0.45,0.99 -0.27,0.89 -0.06,0.85 0.14,0.81 0.35,0.83 0.56,0.86 0.75,0.95 0.94,1.05 1.09,1.19 1.24,1.34 1.34,1.53 1.44,1.72 1.47,1.93 1.50,2.14 1.46,2.35 1.42,2.56 1.32,2.75 1.21,2.93 1.06,3.08 0.90,3.22 0.70,3.30 0.51,3.39 0.30,3.41 0.09,3.43 -0.11,3.38 -0.32,3.33 -0.50,3.21 -0.68,3.10 -0.81,2.94 -0.95,2.77 -1.02,2.57 -1.09,2.37 -1.10,2.16 -1.11,1.95 -1.05,1.75 -0.99,1.54 -0.86,1.37 -0.74,1.20 -0.57,1.07 -0.40,0.95 -0.20,0.88 0.00,0.82 0.21,0.82 0.42,0.83 0.62,0.90 0.82,0.97 0.99,1.10 1.15,1.23 1.27,1.41 1.39,1.59 1.44,1.80 1.49,2.00 1.49,2.00 1.49,2.00 1.83,4.06 2.18,6.12 3.34,5.44 4.50,4.76 7.03,5.11 9.55,5.45 12.65,5.71 15.75,5.97 19.71,5.86 23.68,5.75 27.01,5.55 30.33,5.36 32.07,5.89 33.81,6.42 32.82,5.90 31.83,5.38 30.04,4.72 28.25,4.06 25.59,3.79 22.93,3.52 19.91,3.61 16.89,3.69 13.47,3.90 10.05,4.11 6.38,4.58 2.71,5.06 -2.00,6.29 -6.73,7.51 -9.88,8.17 -13.04,8.83 -15.32,8.45 -17.59,8.08 -18.74,6.37 -19.88,4.67 -19.35,2.64 -18.83,0.61 -16.88,-0.89 -14.93,-2.41 -13.02,-2.86 -11.11,-3.32 -8.55,-3.50 -6.00,-3.68 -2.93,-2.49 0.13,-1.30 0.28,-1.27 0.43,-1.23 0.58,-1.16 0.72,-1.09 0.84,-0.99 0.96,-0.89 1.05,-0.76 1.14,-0.63 1.20,-0.48 1.26,-0.34 1.29,-0.18 1.31,-0.02 1.29,0.12 1.28,0.28 1.22,0.43 1.17,0.58 1.08,0.71 1.00,0.84 0.88,0.95 0.76,1.06 0.63,1.14 0.49,1.21 0.33,1.25 0.18,1.30 0.02,1.30 -0.13,1.30 -0.13,1.30 L -0.13,1.30 Z"/></g><g transform="translate(158.98052978515625 42.86338806152344) rotate(0 -10.40673828125 34.50652313232422)" stroke="none"><path fill="#1e1e1e" d="M 0.78,1.05 Q 0.78,1.05 -0.10,2.48 -0.99,3.92 -2.27,5.30 -3.55,6.68 -4.84,8.69 -6.14,10.69 -7.99,13.48 -9.84,16.28 -11.42,20.32 -13.01,24.37 -14.31,30.06 -15.61,35.75 -15.62,42.62 -15.63,49.50 -14.97,54.17 -14.31,58.84 -12.73,61.47 -11.15,64.11 -10.17,65.28 -9.20,66.44 -9.09,66.62 -8.98,66.81 -8.94,67.01 -8.89,67.22 -8.92,67.43 -8.94,67.64 -9.03,67.84 -9.12,68.03 -9.27,68.18 -9.41,68.34 -9.60,68.43 -9.79,68.53 -10.00,68.57 -10.21,68.60 -10.42,68.56 -10.63,68.53 -10.82,68.43 -11.00,68.33 -11.15,68.17 -11.29,68.02 -11.38,67.82 -11.47,67.63 -11.49,67.42 -11.51,67.21 -11.47,67.00 -11.42,66.79 -11.31,66.61 -11.20,66.43 -11.04,66.29 -10.87,66.16 -10.67,66.08 -10.48,66.00 -10.26,65.99 -10.05,65.98 -9.85,66.04 -9.64,66.10 -9.47,66.22 -9.29,66.34 -9.17,66.51 -9.04,66.68 -8.97,66.88 -8.91,67.08 -8.91,67.29 -8.91,67.51 -8.98,67.71 -9.05,67.91 -9.18,68.08 -9.31,68.24 -9.48,68.36 -9.66,68.48 -9.86,68.54 -10.07,68.59 -10.28,68.58 -10.49,68.57 -10.69,68.49 -10.89,68.41 -11.05,68.27 -11.21,68.13 -11.21,68.13 -11.21,68.13 -12.19,66.96 -13.16,65.80 -16.18,62.95 -19.20,60.10 -20.47,54.83 -21.74,49.56 -21.83,41.94 -21.93,34.32 -20.47,28.13 -19.01,21.94 -17.07,17.31 -15.12,12.68 -13.12,9.86 -11.11,7.05 -9.26,4.76 -7.40,2.48 -5.72,1.16 -4.04,-0.14 -2.41,-0.59 -0.78,-1.05 -0.65,-1.12 -0.51,-1.20 -0.36,-1.25 -0.20,-1.29 -0.05,-1.30 0.10,-1.30 0.26,-1.27 0.41,-1.24 0.56,-1.17 0.70,-1.10 0.82,-1.00 0.94,-0.90 1.04,-0.78 1.13,-0.65 1.19,-0.50 1.26,-0.36 1.28,-0.20 1.31,-0.05 1.29,0.10 1.28,0.26 1.23,0.41 1.18,0.56 1.10,0.69 1.01,0.83 0.90,0.94 0.78,1.05 0.78,1.05 L 0.78,1.05 Z"/></g><g transform="translate(191.8438720703125 46.14971923828125) rotate(0 15.33624267578125 14.78851318359375)" stroke="none"><path fill="#1e1e1e" d="M -0.92,-0.92 Q -0.92,-0.92 -0.57,-2.59 -0.22,-4.26 1.76,-5.02 3.75,-5.78 6.28,-5.41 8.81,-5.04 10.84,-2.59 12.87,-0.13 13.33,1.89 13.78,3.92 15.09,2.53 16.41,1.14 18.34,0.81 20.28,0.47 23.15,1.01 26.01,1.54 28.26,3.05 30.51,4.56 31.68,6.95 32.86,9.34 33.27,11.71 33.69,14.08 33.54,16.97 33.39,19.85 31.84,22.85 30.30,25.85 28.22,28.11 26.14,30.38 23.41,32.13 20.68,33.87 17.55,34.69 14.43,35.52 10.80,35.05 7.17,34.59 4.50,32.50 1.84,30.42 1.96,25.04 2.08,19.67 2.10,19.46 2.13,19.24 2.22,19.05 2.31,18.86 2.45,18.71 2.60,18.55 2.79,18.45 2.97,18.35 3.18,18.32 3.39,18.28 3.60,18.32 3.81,18.35 4.00,18.45 4.19,18.55 4.33,18.71 4.48,18.86 4.57,19.05 4.66,19.25 4.68,19.46 4.70,19.67 4.66,19.88 4.61,20.08 4.50,20.27 4.39,20.45 4.23,20.59 4.07,20.72 3.87,20.80 3.67,20.88 3.46,20.89 3.25,20.90 3.04,20.85 2.84,20.79 2.66,20.67 2.49,20.55 2.36,20.38 2.23,20.21 2.16,20.01 2.10,19.81 2.10,19.60 2.10,19.38 2.16,19.18 2.23,18.98 2.36,18.81 2.49,18.64 2.67,18.52 2.84,18.40 3.05,18.35 3.25,18.29 3.46,18.30 3.68,18.31 3.87,18.39 4.07,18.47 4.23,18.61 4.39,18.75 4.50,18.93 4.61,19.11 4.66,19.32 4.70,19.53 4.70,19.53 4.70,19.53 5.33,23.56 5.95,27.60 7.09,27.72 8.22,27.83 10.56,28.11 12.89,28.38 14.92,27.98 16.94,27.57 18.91,26.43 20.89,25.28 22.47,23.71 24.05,22.14 25.19,20.56 26.33,18.97 26.57,17.00 26.80,15.03 26.64,13.39 26.48,11.74 26.32,10.62 26.15,9.50 25.23,8.67 24.31,7.84 22.70,7.32 21.08,6.80 19.88,6.95 18.68,7.11 17.34,7.62 16.00,8.14 14.02,8.86 12.04,9.58 10.92,9.20 9.79,8.83 8.62,5.98 7.45,3.13 6.93,1.68 6.41,0.24 5.21,0.36 4.00,0.48 2.46,0.70 0.92,0.92 0.80,1.02 0.67,1.12 0.53,1.18 0.39,1.25 0.23,1.28 0.07,1.31 -0.07,1.30 -0.23,1.29 -0.38,1.24 -0.53,1.19 -0.67,1.11 -0.81,1.03 -0.92,0.92 -1.03,0.80 -1.11,0.67 -1.19,0.53 -1.24,0.38 -1.29,0.23 -1.30,0.07 -1.31,-0.07 -1.28,-0.23 -1.25,-0.39 -1.18,-0.53 -1.12,-0.67 -1.02,-0.80 -0.92,-0.92 -0.92,-0.92 L -0.92,-0.92 Z"/></g><g transform="translate(232.3753662109375 24.240814208984375) rotate(0 7.6680908203125 6.024955749511719)" stroke="none"><path fill="#1e1e1e" d="M 1.31,0 Q 1.31,0 2.04,2.51 2.78,5.03 2.82,7.06 2.86,9.08 2.59,10.56 2.33,12.04 2.28,12.39 2.24,12.75 2.11,13.08 1.99,13.42 1.79,13.71 1.58,14.00 1.32,14.24 1.05,14.48 0.73,14.64 0.42,14.81 0.07,14.89 -0.27,14.98 -0.63,14.98 -0.98,14.98 -1.33,14.89 -1.68,14.81 -1.99,14.64 -2.31,14.48 -2.58,14.24 -2.84,14.00 -3.05,13.71 -3.25,13.41 -3.37,13.08 -3.50,12.75 -3.54,12.39 -3.59,12.04 -3.46,10.97 -3.32,9.90 -2.92,8.64 -2.51,7.38 -1.65,5.43 -0.79,3.48 0.99,1.09 2.79,-1.29 5.76,-2.91 8.72,-4.53 11.62,-3.66 14.52,-2.80 16.26,0.06 17.99,2.92 18.51,6.22 19.03,9.53 18.32,11.87 17.61,14.21 17.60,14.42 17.59,14.64 17.52,14.84 17.44,15.03 17.31,15.20 17.17,15.36 16.99,15.48 16.81,15.59 16.61,15.64 16.40,15.69 16.19,15.67 15.98,15.65 15.78,15.56 15.59,15.48 15.43,15.33 15.27,15.19 15.17,15.01 15.07,14.82 15.03,14.61 14.99,14.40 15.02,14.19 15.05,13.98 15.15,13.79 15.25,13.60 15.40,13.45 15.55,13.30 15.74,13.21 15.93,13.12 16.14,13.09 16.35,13.07 16.56,13.11 16.77,13.15 16.95,13.26 17.14,13.36 17.28,13.52 17.42,13.68 17.50,13.88 17.58,14.07 17.60,14.28 17.61,14.50 17.56,14.70 17.51,14.91 17.39,15.09 17.27,15.26 17.11,15.40 16.94,15.53 16.74,15.60 16.54,15.67 16.33,15.67 16.12,15.68 15.91,15.61 15.71,15.55 15.54,15.42 15.37,15.30 15.25,15.12 15.12,14.95 15.06,14.75 15.00,14.54 15.00,14.54 15.00,14.54 13.74,12.56 12.49,10.58 12.10,8.22 11.70,5.86 10.67,3.64 9.63,1.42 8.72,2.14 7.81,2.87 6.41,4.50 5.01,6.14 4.28,7.74 3.54,9.34 2.94,10.69 2.33,12.04 2.28,12.39 2.24,12.75 2.11,13.08 1.99,13.41 1.79,13.71 1.58,14.00 1.32,14.24 1.05,14.48 0.73,14.64 0.42,14.81 0.07,14.89 -0.27,14.98 -0.62,14.98 -0.98,14.98 -1.33,14.89 -1.68,14.81 -1.99,14.64 -2.31,14.48 -2.57,14.24 -2.84,14.00 -3.04,13.71 -3.25,13.42 -3.37,13.08 -3.50,12.75 -3.54,12.39 -3.59,12.04 -3.22,10.55 -2.86,9.05 -2.82,7.04 -2.78,5.03 -2.04,2.51 -1.31,0 -1.29,-0.15 -1.27,-0.31 -1.21,-0.46 -1.16,-0.61 -1.07,-0.74 -0.98,-0.87 -0.86,-0.97 -0.74,-1.08 -0.60,-1.15 -0.46,-1.22 -0.31,-1.26 -0.15,-1.30 0.00,-1.30 0.15,-1.30 0.31,-1.26 0.46,-1.22 0.60,-1.15 0.74,-1.08 0.86,-0.97 0.98,-0.87 1.07,-0.74 1.16,-0.61 1.21,-0.46 1.27,-0.31 1.29,-0.15 1.31,0.00 1.31,0.00 L 1.31,0 Z"/></g><g transform="translate(260.85693359375 59.29505920410156) rotate(0 10.954437255859375 -2.190887451171875)" stroke="none"><path fill="#1e1e1e" d="M -0.48,-1.21 Q -0.48,-1.21 0.76,-2.66 2.02,-4.11 3.94,-4.48 5.87,-4.84 7.98,-4.92 10.09,-4.99 12.23,-4.71 14.36,-4.42 17.27,-4.82 20.17,-5.23 20.39,-5.25 20.60,-5.28 20.80,-5.24 21.01,-5.20 21.20,-5.09 21.38,-4.99 21.52,-4.83 21.66,-4.67 21.75,-4.48 21.83,-4.28 21.85,-4.07 21.86,-3.86 21.81,-3.65 21.76,-3.44 21.64,-3.27 21.53,-3.09 21.36,-2.95 21.20,-2.82 21.00,-2.75 20.80,-2.68 20.59,-2.67 20.37,-2.67 20.17,-2.73 19.97,-2.79 19.80,-2.92 19.62,-3.04 19.50,-3.22 19.38,-3.39 19.31,-3.59 19.25,-3.80 19.26,-4.01 19.27,-4.22 19.34,-4.42 19.41,-4.62 19.55,-4.78 19.68,-4.95 19.86,-5.06 20.04,-5.18 20.25,-5.23 20.45,-5.28 20.67,-5.26 20.88,-5.24 21.07,-5.16 21.27,-5.07 21.42,-4.93 21.58,-4.79 21.69,-4.60 21.79,-4.42 21.83,-4.21 21.87,-4.00 21.84,-3.79 21.81,-3.58 21.71,-3.39 21.62,-3.20 21.47,-3.05 21.32,-2.90 21.13,-2.80 20.94,-2.71 20.94,-2.71 20.94,-2.71 17.72,-1.26 14.51,0.18 12.48,0.56 10.44,0.94 8.66,1.10 6.88,1.25 5.57,1.42 4.27,1.59 2.38,1.40 0.48,1.21 0.33,1.26 0.18,1.30 0.02,1.30 -0.13,1.30 -0.28,1.27 -0.44,1.23 -0.58,1.16 -0.72,1.09 -0.84,0.99 -0.96,0.88 -1.05,0.75 -1.15,0.63 -1.21,0.48 -1.26,0.33 -1.29,0.18 -1.31,0.02 -1.29,-0.13 -1.28,-0.29 -1.22,-0.44 -1.17,-0.58 -1.08,-0.72 -0.99,-0.85 -0.88,-0.96 -0.76,-1.06 -0.62,-1.14 -0.48,-1.21 -0.48,-1.21 L -0.48,-1.21 Z"/></g><g transform="translate(277.28863525390625 40.67250061035156) rotate(0 -2.19091796875 12.597618103027344)" stroke="none"><path fill="#1e1e1e" d="M 1.28,0.25 Q 1.28,0.25 1.78,1.99 2.28,3.73 1.51,6.70 0.74,9.66 0.09,12.68 -0.55,15.71 -0.97,17.83 -1.39,19.96 -2.19,22.12 -2.99,24.28 -3.04,24.49 -3.09,24.70 -3.21,24.88 -3.32,25.06 -3.48,25.19 -3.65,25.33 -3.85,25.40 -4.05,25.48 -4.26,25.48 -4.47,25.49 -4.67,25.43 -4.88,25.37 -5.05,25.25 -5.22,25.13 -5.35,24.95 -5.48,24.78 -5.54,24.58 -5.60,24.38 -5.60,24.17 -5.60,23.95 -5.52,23.75 -5.45,23.55 -5.32,23.39 -5.19,23.22 -5.01,23.10 -4.83,22.99 -4.63,22.93 -4.42,22.88 -4.21,22.90 -4.00,22.91 -3.80,22.99 -3.61,23.08 -3.45,23.22 -3.29,23.36 -3.18,23.54 -3.08,23.73 -3.03,23.93 -2.99,24.14 -3.02,24.35 -3.05,24.56 -3.14,24.75 -3.23,24.95 -3.38,25.10 -3.53,25.25 -3.72,25.35 -3.91,25.44 -4.12,25.47 -4.33,25.50 -4.54,25.46 -4.75,25.43 -4.93,25.32 -5.12,25.22 -5.26,25.06 -5.40,24.91 -5.49,24.71 -5.58,24.52 -5.60,24.31 -5.61,24.09 -5.61,24.09 -5.61,24.09 -6.09,21.72 -6.56,19.34 -6.44,16.93 -6.32,14.52 -5.68,11.32 -5.05,8.12 -4.30,5.34 -3.54,2.56 -2.41,1.15 -1.28,-0.25 -1.23,-0.40 -1.18,-0.55 -1.10,-0.69 -1.02,-0.82 -0.90,-0.93 -0.79,-1.04 -0.65,-1.12 -0.51,-1.20 -0.36,-1.25 -0.21,-1.29 -0.05,-1.30 0.10,-1.30 0.25,-1.27 0.41,-1.24 0.55,-1.18 0.69,-1.11 0.82,-1.01 0.94,-0.91 1.03,-0.78 1.13,-0.66 1.19,-0.51 1.26,-0.37 1.28,-0.21 1.31,-0.05 1.29,0.09 1.28,0.25 1.28,0.25 L 1.28,0.25 Z"/></g><g transform="translate(305.77020263671875 64.77229309082031) rotate(0 10.406707763671875 -15.336235046386719)" stroke="none"><path fill="#1e1e1e" d="M -0.92,-0.92 Q -0.92,-0.92 -0.18,-2.70 0.55,-4.47 2.87,-7.41 5.19,-10.35 7.42,-13.74 9.64,-17.14 11.52,-20.44 13.39,-23.74 14.79,-26.67 16.19,-29.59 16.69,-31.87 17.19,-34.14 17.43,-34.91 17.67,-35.68 17.79,-36.00 17.91,-36.32 18.10,-36.60 18.29,-36.89 18.55,-37.11 18.80,-37.34 19.10,-37.50 19.41,-37.66 19.74,-37.74 20.07,-37.83 20.41,-37.83 20.75,-37.83 21.08,-37.75 21.42,-37.67 21.72,-37.51 22.02,-37.36 22.28,-37.13 22.54,-36.90 22.73,-36.62 22.93,-36.34 23.05,-36.02 23.17,-35.71 23.22,-35.37 23.26,-35.03 23.22,-34.69 23.18,-34.35 23.35,-33.22 23.52,-32.09 23.57,-28.82 23.62,-25.56 23.60,-21.35 23.59,-17.15 21.90,-10.24 20.21,-3.32 19.81,-0.43 19.41,2.46 19.35,2.67 19.29,2.87 19.16,3.04 19.04,3.21 18.87,3.34 18.69,3.46 18.49,3.52 18.29,3.59 18.07,3.58 17.86,3.57 17.66,3.50 17.46,3.43 17.30,3.29 17.13,3.16 17.02,2.98 16.90,2.80 16.85,2.59 16.80,2.39 16.82,2.18 16.84,1.97 16.92,1.77 17.00,1.58 17.15,1.42 17.29,1.26 17.47,1.15 17.66,1.05 17.87,1.01 18.08,0.97 18.29,1.00 18.50,1.03 18.69,1.12 18.88,1.22 19.03,1.37 19.18,1.52 19.27,1.71 19.37,1.90 19.39,2.11 19.42,2.32 19.38,2.53 19.34,2.74 19.24,2.92 19.13,3.11 18.97,3.25 18.82,3.39 18.62,3.47 18.43,3.56 18.21,3.58 18.00,3.59 17.80,3.54 17.59,3.49 17.41,3.37 17.23,3.26 17.10,3.09 16.97,2.93 16.89,2.73 16.82,2.53 16.81,2.32 16.81,2.10 16.81,2.10 16.81,2.10 17.21,-0.78 17.61,-3.68 17.79,-10.41 17.97,-17.13 17.91,-21.30 17.86,-25.47 17.81,-28.58 17.76,-31.68 17.72,-33.68 17.67,-35.68 17.79,-36.00 17.91,-36.32 18.10,-36.60 18.29,-36.89 18.55,-37.11 18.80,-37.34 19.10,-37.50 19.41,-37.66 19.74,-37.74 20.07,-37.83 20.41,-37.83 20.75,-37.83 21.08,-37.75 21.42,-37.67 21.72,-37.51 22.02,-37.36 22.28,-37.13 22.54,-36.90 22.73,-36.62 22.93,-36.34 23.05,-36.02 23.17,-35.71 23.21,-35.37 23.26,-35.03 23.22,-34.69 23.18,-34.35 22.90,-33.59 22.61,-32.83 21.88,-30.03 21.16,-27.23 19.66,-24.13 18.17,-21.03 16.21,-17.58 14.25,-14.12 11.89,-10.51 9.54,-6.90 7.01,-3.73 4.48,-0.55 2.70,0.18 0.92,0.92 0.80,1.02 0.67,1.12 0.53,1.18 0.39,1.25 0.23,1.28 0.07,1.31 -0.07,1.30 -0.23,1.29 -0.38,1.24 -0.53,1.19 -0.67,1.11 -0.80,1.03 -0.92,0.92 -1.03,0.80 -1.11,0.67 -1.19,0.53 -1.24,0.38 -1.29,0.23 -1.30,0.07 -1.31,-0.07 -1.28,-0.23 -1.25,-0.39 -1.18,-0.53 -1.12,-0.67 -1.02,-0.80 -0.92,-0.92 -0.92,-0.92 L -0.92,-0.92 Z"/></g><g transform="translate(184.17578125 93.25386047363281) rotate(0 87.6356201171875 -3.8340530395507812)" stroke="none"><path fill="#1e1e1e" d="M -0.21,-1.29 Q -0.21,-1.29 1.53,-2.45 3.28,-3.62 6.97,-4.13 10.66,-4.65 15.61,-5.49 20.55,-6.34 27.19,-7.02 33.82,-7.71 43.91,-8.31 54.00,-8.92 63.93,-9.50 73.86,-10.08 84.44,-10.32 95.01,-10.57 105.49,-10.65 115.96,-10.73 125.55,-9.99 135.14,-9.25 146.69,-7.57 158.23,-5.89 163.16,-5.52 168.08,-5.14 168.29,-5.09 168.50,-5.04 168.68,-4.93 168.86,-4.82 168.99,-4.65 169.13,-4.49 169.20,-4.29 169.27,-4.09 169.28,-3.88 169.29,-3.66 169.23,-3.46 169.17,-3.26 169.04,-3.08 168.92,-2.91 168.75,-2.79 168.58,-2.66 168.37,-2.60 168.17,-2.53 167.96,-2.54 167.75,-2.54 167.55,-2.61 167.35,-2.69 167.18,-2.82 167.01,-2.95 166.90,-3.13 166.78,-3.31 166.73,-3.51 166.68,-3.72 166.69,-3.93 166.71,-4.14 166.79,-4.34 166.88,-4.53 167.02,-4.69 167.16,-4.85 167.34,-4.96 167.53,-5.06 167.73,-5.11 167.94,-5.15 168.15,-5.12 168.36,-5.09 168.56,-5.00 168.75,-4.90 168.90,-4.75 169.05,-4.61 169.14,-4.42 169.24,-4.23 169.27,-4.02 169.30,-3.80 169.26,-3.60 169.22,-3.39 169.12,-3.20 169.01,-3.02 168.86,-2.87 168.70,-2.73 168.50,-2.65 168.31,-2.56 168.10,-2.54 167.89,-2.52 167.89,-2.52 167.89,-2.52 162.96,-2.90 158.04,-3.27 146.41,-3.35 134.78,-3.43 125.40,-3.86 116.03,-4.29 105.59,-4.17 95.16,-4.04 84.70,-3.80 74.24,-3.56 64.31,-3.01 54.38,-2.45 44.43,-1.86 34.47,-1.28 28.03,-0.63 21.59,0.00 16.51,0.80 11.44,1.59 7.85,1.98 4.27,2.36 2.24,1.82 0.21,1.29 0.05,1.30 -0.10,1.30 -0.25,1.27 -0.41,1.24 -0.55,1.18 -0.69,1.11 -0.82,1.01 -0.94,0.91 -1.03,0.78 -1.13,0.66 -1.19,0.51 -1.25,0.37 -1.28,0.21 -1.31,0.05 -1.29,-0.09 -1.28,-0.25 -1.23,-0.40 -1.18,-0.55 -1.10,-0.69 -1.02,-0.82 -0.90,-0.93 -0.79,-1.04 -0.65,-1.12 -0.51,-1.20 -0.36,-1.25 -0.21,-1.29 -0.21,-1.29 L -0.21,-1.29 Z"/></g><g transform="translate(185.271240234375 111.87643432617188) rotate(0 9.858978271484375 10.954444885253906)" stroke="none"><path fill="#1e1e1e" d="M -0.67,-1.12 Q -0.67,-1.12 0.45,-2.81 1.58,-4.49 3.37,-5.29 5.15,-6.09 6.78,-6.49 8.40,-6.88 10.13,-6.71 11.86,-6.55 13.31,-6.05 14.76,-5.56 16.08,-4.43 17.40,-3.31 18.25,-2.10 19.10,-0.89 19.58,0.62 20.06,2.13 19.89,4.41 19.72,6.68 17.89,10.15 16.06,13.61 14.30,15.97 12.54,18.32 10.72,20.08 8.90,21.84 6.34,23.35 3.78,24.85 1.74,25.78 -0.29,26.71 -1.50,27.12 -2.71,27.53 -3.99,27.87 -5.27,28.21 -6.34,27.71 -7.40,27.20 -7.80,25.30 -8.20,23.39 -7.24,21.91 -6.28,20.42 -4.79,19.78 -3.31,19.14 -0.88,18.66 1.54,18.17 4.15,18.28 6.77,18.39 9.23,18.48 11.68,18.56 13.99,18.83 16.30,19.09 19.94,19.84 23.58,20.58 23.79,20.62 24.00,20.65 24.19,20.75 24.38,20.86 24.52,21.01 24.67,21.16 24.76,21.36 24.85,21.55 24.87,21.76 24.89,21.97 24.84,22.18 24.80,22.39 24.69,22.57 24.58,22.75 24.41,22.89 24.25,23.03 24.05,23.10 23.86,23.18 23.64,23.19 23.43,23.20 23.23,23.14 23.02,23.09 22.85,22.97 22.67,22.85 22.54,22.68 22.42,22.51 22.35,22.31 22.28,22.10 22.28,21.89 22.28,21.68 22.35,21.48 22.42,21.28 22.55,21.11 22.68,20.94 22.86,20.82 23.03,20.70 23.24,20.65 23.44,20.59 23.65,20.60 23.87,20.62 24.06,20.70 24.26,20.77 24.42,20.91 24.58,21.05 24.69,21.23 24.80,21.42 24.85,21.62 24.89,21.83 24.87,22.04 24.84,22.25 24.75,22.45 24.66,22.64 24.52,22.79 24.37,22.95 24.18,23.05 23.99,23.14 23.78,23.18 23.57,23.21 23.57,23.21 23.57,23.21 19.91,23.93 16.24,24.65 13.89,24.86 11.53,25.07 8.95,25.05 6.37,25.02 4.54,24.86 2.71,24.70 0.61,25.06 -1.48,25.43 -2.21,24.47 -2.94,23.52 -3.92,22.64 -4.90,21.77 -3.86,21.44 -2.82,21.11 -1.03,20.31 0.74,19.51 2.73,18.44 4.72,17.36 6.19,15.99 7.66,14.63 9.20,12.61 10.74,10.59 12.23,8.19 13.71,5.80 13.94,4.67 14.16,3.54 13.63,2.25 13.10,0.95 12.00,0.19 10.91,-0.56 9.25,-0.55 7.59,-0.54 6.15,0.08 4.70,0.71 2.69,0.92 0.67,1.12 0.53,1.19 0.38,1.25 0.23,1.28 0.07,1.31 -0.08,1.30 -0.24,1.29 -0.39,1.24 -0.54,1.19 -0.67,1.11 -0.81,1.03 -0.92,0.91 -1.03,0.80 -1.11,0.67 -1.19,0.53 -1.24,0.38 -1.29,0.23 -1.30,0.07 -1.31,-0.08 -1.28,-0.23 -1.25,-0.39 -1.18,-0.53 -1.12,-0.68 -1.02,-0.80 -0.92,-0.93 -0.80,-1.02 -0.67,-1.12 -0.67,-1.12 L -0.67,-1.12 Z"/></g><g transform="translate(213.7528076171875 122.83088684082031) rotate(0 1.095428466796875 0.5477218627929688)" stroke="none"><path fill="#1e1e1e" d="M 1.25,-0.39 Q 1.25,-0.39 1.27,-0.07 1.29,0.23 1.16,0.52 1.03,0.80 0.78,1.00 0.53,1.19 0.22,1.25 -0.07,1.31 -0.37,1.21 -0.67,1.12 -0.90,0.90 -1.12,0.67 -1.21,0.37 -1.31,0.07 -1.25,-0.23 -1.19,-0.53 -1.00,-0.78 -0.80,-1.03 -0.52,-1.16 -0.23,-1.29 0.07,-1.27 0.39,-1.25 0.65,-1.09 0.92,-0.92 1.09,-0.65 L 1.25,-0.39 Z"/></g><g transform="translate(224.70721435546875 114.06732177734375) rotate(0 10.40673828125 7.668121337890625)" stroke="none"><path fill="#1e1e1e" d="M -0.82,-1.02 Q -0.82,-1.02 0.26,-2.89 1.34,-4.76 2.32,-5.60 3.30,-6.43 4.89,-7.05 6.49,-7.67 8.31,-7.23 10.14,-6.79 11.07,-5.61 12.00,-4.43 12.47,-3.41 12.94,-2.38 12.88,-0.87 12.83,0.63 13.83,-0.48 14.83,-1.59 16.14,-1.25 17.45,-0.91 18.60,-0.37 19.75,0.15 21.06,1.73 22.37,3.32 22.92,5.21 23.47,7.09 23.66,8.84 23.86,10.60 23.62,12.90 23.39,15.20 22.46,17.22 21.53,19.24 19.77,20.73 18.01,22.22 15.62,22.87 13.23,23.53 10.98,23.69 8.74,23.86 5.94,22.89 3.15,21.91 2.78,17.92 2.41,13.93 2.39,13.72 2.37,13.51 2.42,13.30 2.47,13.10 2.58,12.92 2.70,12.74 2.86,12.60 3.03,12.47 3.23,12.39 3.42,12.32 3.64,12.31 3.85,12.31 4.05,12.37 4.26,12.43 4.43,12.55 4.60,12.68 4.73,12.85 4.85,13.02 4.92,13.22 4.98,13.42 4.97,13.64 4.97,13.85 4.90,14.05 4.83,14.25 4.69,14.42 4.56,14.58 4.38,14.70 4.20,14.81 4.00,14.86 3.79,14.92 3.58,14.90 3.37,14.88 3.17,14.80 2.98,14.72 2.82,14.58 2.66,14.44 2.55,14.25 2.45,14.07 2.41,13.86 2.37,13.65 2.39,13.44 2.42,13.23 2.52,13.04 2.61,12.85 2.76,12.70 2.91,12.55 3.10,12.45 3.29,12.36 3.50,12.33 3.71,12.30 3.92,12.33 4.13,12.37 4.31,12.48 4.50,12.58 4.64,12.74 4.78,12.90 4.87,13.09 4.95,13.29 4.95,13.29 4.95,13.29 6.38,16.39 7.81,19.50 8.00,18.38 8.19,17.26 9.99,17.09 11.79,16.92 12.99,16.78 14.19,16.65 15.50,15.41 16.81,14.18 17.09,12.64 17.38,11.10 17.31,9.76 17.25,8.41 17.07,6.78 16.89,5.14 15.36,4.67 13.83,4.20 12.28,4.38 10.72,4.57 9.54,3.90 8.35,3.24 7.80,1.98 7.24,0.72 7.09,-0.63 6.93,-2.00 5.94,-1.13 4.94,-0.26 2.88,0.37 0.82,1.02 0.68,1.10 0.55,1.19 0.40,1.24 0.24,1.28 0.09,1.30 -0.06,1.31 -0.22,1.28 -0.37,1.25 -0.52,1.19 -0.66,1.13 -0.79,1.03 -0.91,0.93 -1.01,0.81 -1.11,0.69 -1.18,0.54 -1.24,0.40 -1.27,0.24 -1.31,0.09 -1.30,-0.06 -1.29,-0.22 -1.24,-0.37 -1.20,-0.52 -1.12,-0.66 -1.04,-0.79 -0.93,-0.91 -0.82,-1.02 -0.82,-1.02 L -0.82,-1.02 Z"/></g><g transform="translate(258.666015625 97.63565063476562) rotate(0 4.381805419921875 2.7386016845703125)" stroke="none"><path fill="#1e1e1e" d="M 1.27,0.31 Q 1.27,0.31 1.58,1.73 1.90,3.15 1.75,4.47 1.60,5.79 1.59,6.39 1.58,7.00 1.52,7.31 1.45,7.62 1.32,7.91 1.18,8.20 0.97,8.45 0.77,8.70 0.51,8.89 0.26,9.08 -0.03,9.20 -0.32,9.33 -0.64,9.38 -0.96,9.43 -1.28,9.40 -1.60,9.38 -1.90,9.27 -2.20,9.17 -2.47,9.00 -2.74,8.83 -2.96,8.59 -3.19,8.36 -3.34,8.08 -3.50,7.81 -3.59,7.50 -3.68,7.19 -3.69,6.87 -3.70,6.55 -2.99,3.70 -2.29,0.86 -1.01,-1.18 0.25,-3.22 1.97,-4.43 3.69,-5.63 5.70,-5.27 7.70,-4.91 9.37,-2.04 11.05,0.81 11.34,3.07 11.63,5.34 11.33,7.13 11.03,8.92 11.03,9.14 11.03,9.35 10.96,9.55 10.90,9.75 10.77,9.92 10.64,10.09 10.46,10.21 10.29,10.33 10.08,10.39 9.88,10.44 9.67,10.43 9.46,10.42 9.26,10.34 9.06,10.27 8.90,10.13 8.74,9.99 8.63,9.81 8.52,9.63 8.47,9.42 8.42,9.21 8.45,9.00 8.47,8.79 8.56,8.60 8.65,8.40 8.79,8.25 8.94,8.10 9.13,8.00 9.31,7.90 9.52,7.86 9.73,7.83 9.94,7.86 10.15,7.89 10.34,7.99 10.53,8.09 10.67,8.25 10.82,8.40 10.91,8.59 11.00,8.79 11.02,9.00 11.05,9.21 11.00,9.42 10.96,9.62 10.85,9.81 10.74,9.99 10.58,10.13 10.41,10.26 10.22,10.34 10.02,10.42 9.81,10.43 9.60,10.45 9.39,10.39 9.19,10.33 9.01,10.21 8.83,10.09 8.70,9.93 8.58,9.76 8.51,9.56 8.44,9.35 8.44,9.35 8.44,9.35 7.60,7.91 6.76,6.46 6.16,4.85 5.57,3.24 5.24,1.57 4.92,-0.10 3.24,2.35 1.57,4.81 1.58,5.90 1.58,7.00 1.52,7.31 1.45,7.62 1.32,7.91 1.18,8.20 0.97,8.45 0.77,8.70 0.51,8.89 0.26,9.08 -0.03,9.20 -0.32,9.33 -0.64,9.38 -0.96,9.43 -1.28,9.40 -1.60,9.38 -1.90,9.27 -2.20,9.17 -2.47,9.00 -2.74,8.83 -2.96,8.59 -3.19,8.36 -3.34,8.08 -3.50,7.81 -3.59,7.50 -3.68,7.19 -3.69,6.87 -3.70,6.55 -3.66,5.95 -3.62,5.35 -3.39,3.62 -3.16,1.88 -2.21,0.78 -1.27,-0.31 -1.21,-0.46 -1.16,-0.61 -1.07,-0.74 -0.98,-0.87 -0.86,-0.97 -0.74,-1.08 -0.60,-1.15 -0.46,-1.22 -0.30,-1.26 -0.15,-1.30 0.00,-1.30 0.16,-1.30 0.31,-1.26 0.46,-1.22 0.60,-1.15 0.74,-1.07 0.86,-0.97 0.98,-0.86 1.07,-0.73 1.16,-0.60 1.22,-0.45 1.27,-0.30 1.29,-0.15 1.31,0.00 1.29,0.16 1.27,0.31 1.27,0.31 L 1.27,0.31 Z"/></g><g transform="translate(269.2168273925781 134.8807830810547) rotate(0 12.59759521484375 -3.8340606689453125)" stroke="none"><path fill="#1e1e1e" d="M -0.21,-1.29 Q -0.21,-1.29 1.54,-2.39 3.30,-3.49 6.33,-3.96 9.36,-4.42 12.84,-4.68 16.33,-4.94 19.66,-6.40 22.98,-7.86 23.18,-7.94 23.38,-8.02 23.59,-8.03 23.80,-8.04 24.01,-7.99 24.21,-7.93 24.39,-7.81 24.57,-7.69 24.69,-7.53 24.82,-7.36 24.89,-7.16 24.96,-6.96 24.96,-6.74 24.96,-6.53 24.90,-6.33 24.83,-6.13 24.70,-5.96 24.57,-5.79 24.40,-5.67 24.22,-5.55 24.02,-5.49 23.81,-5.43 23.60,-5.44 23.39,-5.45 23.19,-5.53 22.99,-5.61 22.83,-5.75 22.67,-5.88 22.56,-6.06 22.45,-6.24 22.40,-6.45 22.36,-6.66 22.38,-6.87 22.40,-7.08 22.49,-7.28 22.58,-7.47 22.72,-7.62 22.87,-7.78 23.05,-7.88 23.24,-7.98 23.45,-8.01 23.66,-8.05 23.87,-8.02 24.08,-7.98 24.27,-7.88 24.46,-7.79 24.60,-7.63 24.75,-7.48 24.84,-7.29 24.93,-7.09 24.95,-6.88 24.98,-6.67 24.93,-6.46 24.89,-6.26 24.78,-6.07 24.67,-5.89 24.51,-5.75 24.35,-5.61 24.35,-5.61 24.35,-5.61 20.77,-2.87 17.18,-0.12 13.70,0.62 10.22,1.37 7.24,1.80 4.25,2.23 2.23,1.76 0.21,1.29 0.05,1.30 -0.10,1.30 -0.25,1.27 -0.41,1.24 -0.55,1.18 -0.69,1.11 -0.82,1.01 -0.94,0.91 -1.03,0.78 -1.13,0.66 -1.19,0.51 -1.25,0.37 -1.28,0.21 -1.31,0.05 -1.29,-0.09 -1.28,-0.25 -1.23,-0.40 -1.18,-0.55 -1.10,-0.69 -1.02,-0.82 -0.90,-0.93 -0.79,-1.04 -0.65,-1.12 -0.51,-1.20 -0.36,-1.25 -0.21,-1.29 -0.21,-1.29 L -0.21,-1.29 Z"/></g><g transform="translate(287.8393859863281 114.06732177734375) rotate(0 0.547698974609375 13.145339965820312)" stroke="none"><path fill="#1e1e1e" d="M 1.31,0 Q 1.31,0 2.04,2.51 2.78,5.03 2.46,8.74 2.13,12.45 1.99,15.68 1.84,18.91 2.41,21.73 2.99,24.56 3.02,24.77 3.06,24.97 3.02,25.18 2.99,25.39 2.89,25.58 2.79,25.77 2.64,25.92 2.48,26.06 2.29,26.15 2.10,26.24 1.88,26.27 1.67,26.29 1.47,26.24 1.26,26.20 1.08,26.09 0.89,25.98 0.76,25.82 0.62,25.66 0.54,25.46 0.46,25.26 0.45,25.05 0.44,24.84 0.49,24.63 0.55,24.43 0.67,24.25 0.79,24.08 0.96,23.95 1.12,23.82 1.33,23.75 1.53,23.68 1.74,23.68 1.95,23.68 2.15,23.75 2.35,23.82 2.52,23.94 2.69,24.07 2.81,24.25 2.93,24.42 2.99,24.63 3.05,24.83 3.04,25.05 3.03,25.26 2.95,25.46 2.87,25.65 2.73,25.81 2.59,25.98 2.41,26.09 2.23,26.20 2.02,26.24 1.82,26.29 1.60,26.27 1.39,26.24 1.20,26.16 1.01,26.07 0.85,25.92 0.70,25.77 0.60,25.59 0.50,25.40 0.50,25.40 0.50,25.40 -0.94,22.29 -2.38,19.18 -2.89,15.58 -3.39,11.98 -3.09,8.50 -2.78,5.03 -2.04,2.51 -1.31,0 -1.29,-0.15 -1.27,-0.31 -1.21,-0.46 -1.16,-0.61 -1.07,-0.74 -0.98,-0.87 -0.86,-0.97 -0.74,-1.08 -0.60,-1.15 -0.46,-1.22 -0.31,-1.26 -0.15,-1.30 0.00,-1.30 0.15,-1.30 0.31,-1.26 0.46,-1.22 0.60,-1.15 0.74,-1.08 0.86,-0.97 0.98,-0.87 1.07,-0.74 1.16,-0.61 1.21,-0.46 1.27,-0.31 1.29,-0.15 1.31,0.00 1.31,0.00 L 1.31,0 Z"/></g><g transform="translate(307.5574035644531 138.1671142578125) rotate(0 7.668121337890625 -13.145339965820312)" stroke="none"><path fill="#1e1e1e" d="M -1.09,-0.72 Q -1.09,-0.72 -0.32,-2.94 0.44,-5.16 2.17,-8.39 3.90,-11.61 5.56,-15.18 7.22,-18.74 8.88,-21.95 10.55,-25.16 11.18,-25.88 11.81,-26.59 12.00,-26.87 12.20,-27.14 12.45,-27.37 12.71,-27.59 13.01,-27.74 13.31,-27.90 13.64,-27.98 13.97,-28.05 14.31,-28.05 14.65,-28.05 14.97,-27.96 15.30,-27.88 15.60,-27.72 15.90,-27.56 16.15,-27.33 16.40,-27.11 16.59,-26.82 16.78,-26.54 16.90,-26.23 17.02,-25.91 17.05,-25.57 17.09,-25.24 17.05,-24.90 17.00,-24.56 16.88,-24.25 16.76,-23.93 16.96,-21.42 17.16,-18.91 16.82,-14.62 16.47,-10.34 16.15,-7.07 15.83,-3.81 16.02,-1.56 16.22,0.68 16.25,0.89 16.29,1.10 16.25,1.31 16.21,1.52 16.11,1.71 16.01,1.90 15.86,2.04 15.70,2.19 15.51,2.27 15.31,2.36 15.10,2.38 14.89,2.40 14.68,2.36 14.48,2.31 14.30,2.20 14.11,2.09 13.98,1.92 13.84,1.76 13.76,1.56 13.69,1.37 13.68,1.15 13.67,0.94 13.73,0.74 13.78,0.53 13.90,0.36 14.03,0.18 14.20,0.06 14.37,-0.06 14.57,-0.13 14.77,-0.19 14.98,-0.19 15.19,-0.19 15.39,-0.12 15.60,-0.05 15.76,0.07 15.93,0.20 16.05,0.37 16.17,0.55 16.22,0.76 16.28,0.96 16.27,1.17 16.25,1.38 16.17,1.58 16.09,1.78 15.95,1.94 15.81,2.10 15.63,2.21 15.45,2.32 15.24,2.36 15.03,2.40 14.82,2.38 14.61,2.36 14.42,2.27 14.23,2.17 14.07,2.03 13.92,1.88 13.82,1.69 13.72,1.50 13.72,1.50 13.72,1.50 12.29,-1.19 10.85,-3.90 10.80,-7.34 10.76,-10.78 11.05,-14.86 11.35,-18.93 11.58,-22.76 11.81,-26.59 12.00,-26.87 12.20,-27.14 12.45,-27.37 12.71,-27.59 13.01,-27.74 13.31,-27.90 13.64,-27.98 13.97,-28.05 14.31,-28.05 14.65,-28.05 14.97,-27.96 15.30,-27.88 15.60,-27.72 15.90,-27.56 16.15,-27.33 16.40,-27.11 16.59,-26.82 16.78,-26.54 16.90,-26.23 17.02,-25.91 17.05,-25.57 17.09,-25.24 17.05,-24.90 17.00,-24.56 16.88,-24.25 16.76,-23.93 15.97,-23.26 15.18,-22.59 13.50,-19.58 11.83,-16.56 10.07,-12.90 8.31,-9.23 6.45,-5.81 4.59,-2.39 2.84,-0.83 1.09,0.72 0.98,0.84 0.88,0.96 0.75,1.06 0.62,1.15 0.48,1.21 0.33,1.26 0.17,1.29 0.02,1.31 -0.13,1.29 -0.29,1.28 -0.44,1.22 -0.59,1.17 -0.72,1.08 -0.85,0.99 -0.96,0.88 -1.06,0.76 -1.14,0.62 -1.22,0.48 -1.26,0.33 -1.30,0.17 -1.30,0.02 -1.30,-0.13 -1.27,-0.29 -1.23,-0.44 -1.16,-0.58 -1.09,-0.72 -1.09,-0.72 L -1.09,-0.72 Z"/></g><g transform="translate(382.0476989746094 54.91328430175781) rotate(0 6.02490234375 30.672462463378906)" stroke="none"><path fill="#1e1e1e" d="M 0.92,-0.92 Q 0.92,-0.92 3.10,0.05 5.28,1.04 7.51,4.47 9.73,7.90 11.38,13.07 13.02,18.23 13.71,24.04 14.40,29.84 13.70,36.01 13.00,42.19 11.55,47.05 10.10,51.92 6.72,56.05 3.33,60.18 3.19,60.34 3.06,60.50 2.87,60.61 2.69,60.72 2.48,60.77 2.28,60.81 2.06,60.79 1.85,60.76 1.66,60.67 1.47,60.58 1.32,60.43 1.16,60.29 1.06,60.10 0.96,59.91 0.93,59.70 0.90,59.49 0.93,59.28 0.97,59.07 1.07,58.89 1.17,58.70 1.33,58.55 1.48,58.41 1.67,58.32 1.87,58.23 2.08,58.21 2.29,58.19 2.50,58.23 2.70,58.28 2.89,58.39 3.07,58.50 3.20,58.67 3.34,58.83 3.42,59.03 3.50,59.22 3.51,59.44 3.52,59.65 3.46,59.85 3.40,60.06 3.28,60.23 3.16,60.41 2.99,60.53 2.82,60.66 2.62,60.73 2.42,60.80 2.20,60.79 1.99,60.79 1.79,60.72 1.59,60.66 1.42,60.53 1.25,60.40 1.13,60.22 1.02,60.04 0.96,59.84 0.91,59.63 0.92,59.42 0.93,59.21 1.01,59.01 1.09,58.82 1.09,58.82 1.09,58.82 2.79,54.59 4.50,50.37 5.52,45.89 6.53,41.42 7.20,35.97 7.86,30.53 7.32,25.31 6.78,20.09 5.53,15.62 4.27,11.14 2.64,8.20 1.01,5.25 0.04,3.09 -0.92,0.92 -1.02,0.80 -1.12,0.67 -1.18,0.53 -1.25,0.39 -1.28,0.23 -1.31,0.07 -1.30,-0.07 -1.29,-0.23 -1.24,-0.38 -1.19,-0.53 -1.11,-0.67 -1.03,-0.81 -0.92,-0.92 -0.80,-1.03 -0.67,-1.11 -0.53,-1.19 -0.38,-1.24 -0.23,-1.29 -0.07,-1.30 0.07,-1.31 0.23,-1.28 0.39,-1.25 0.53,-1.18 0.67,-1.12 0.80,-1.02 0.92,-0.92 0.92,-0.92 L 0.92,-0.92 Z"/></g><g transform="translate(418.1973571777344 81.20394897460938) rotate(0 11.502197265625 1.0954437255859375)" stroke="none"><path fill="#1e1e1e" d="M 0,-1.31 Q 0,-1.31 2.51,-2.13 5.03,-2.95 8.31,-2.86 11.59,-2.78 14.36,-2.12 17.14,-1.47 19.68,-0.42 22.22,0.63 22.42,0.72 22.61,0.80 22.77,0.94 22.92,1.09 23.03,1.27 23.13,1.46 23.17,1.67 23.21,1.88 23.18,2.09 23.15,2.30 23.05,2.49 22.96,2.68 22.81,2.83 22.65,2.98 22.46,3.07 22.27,3.16 22.06,3.19 21.85,3.22 21.64,3.18 21.43,3.13 21.25,3.03 21.07,2.92 20.93,2.76 20.78,2.60 20.70,2.41 20.62,2.21 20.60,2.00 20.59,1.79 20.64,1.58 20.69,1.38 20.81,1.20 20.92,1.02 21.09,0.89 21.26,0.76 21.46,0.68 21.66,0.61 21.87,0.61 22.08,0.60 22.28,0.67 22.49,0.73 22.66,0.86 22.83,0.98 22.95,1.15 23.08,1.33 23.14,1.53 23.20,1.74 23.19,1.95 23.18,2.16 23.11,2.36 23.03,2.56 22.90,2.72 22.77,2.89 22.59,3.00 22.41,3.11 22.20,3.16 21.99,3.21 21.78,3.19 21.57,3.18 21.57,3.18 21.57,3.18 19.10,2.95 16.64,2.73 14.11,2.75 11.58,2.78 8.31,2.86 5.03,2.95 2.51,2.13 0,1.31 -0.15,1.29 -0.31,1.27 -0.46,1.21 -0.61,1.16 -0.74,1.07 -0.87,0.98 -0.97,0.86 -1.08,0.74 -1.15,0.60 -1.22,0.46 -1.26,0.31 -1.30,0.15 -1.30,-0.00 -1.30,-0.15 -1.26,-0.31 -1.22,-0.46 -1.15,-0.60 -1.08,-0.74 -0.97,-0.86 -0.87,-0.98 -0.74,-1.07 -0.61,-1.16 -0.46,-1.21 -0.31,-1.27 -0.15,-1.29 0.00,-1.31 0.00,-1.31 L 0,-1.31 Z"/></g><g transform="translate(420.3882751464844 93.25384521484375) rotate(0 14.78851318359375 -0.0000152587890625)" stroke="none"><path fill="#1e1e1e" d="M -0.14,-1.30 Q -0.14,-1.30 2.59,-2.46 5.34,-3.62 9.90,-3.16 14.47,-2.69 18.85,-1.74 23.23,-0.79 25.09,-0.62 26.94,-0.45 27.15,-0.40 27.36,-0.35 27.53,-0.23 27.71,-0.12 27.84,0.04 27.98,0.21 28.05,0.41 28.12,0.61 28.12,0.82 28.13,1.03 28.06,1.23 28.00,1.44 27.87,1.61 27.75,1.78 27.57,1.90 27.40,2.03 27.20,2.09 26.99,2.15 26.78,2.14 26.57,2.13 26.37,2.06 26.17,1.98 26.01,1.85 25.84,1.71 25.73,1.53 25.62,1.35 25.57,1.15 25.52,0.94 25.54,0.73 25.55,0.52 25.64,0.32 25.73,0.13 25.87,-0.02 26.01,-0.18 26.20,-0.28 26.38,-0.38 26.59,-0.42 26.80,-0.46 27.01,-0.43 27.22,-0.40 27.41,-0.30 27.60,-0.21 27.75,-0.05 27.90,0.09 27.99,0.28 28.09,0.47 28.11,0.68 28.14,0.89 28.10,1.10 28.06,1.31 27.95,1.49 27.84,1.68 27.68,1.82 27.52,1.96 27.33,2.04 27.13,2.12 26.92,2.14 26.71,2.15 26.71,2.15 26.71,2.15 24.85,1.99 22.99,1.82 18.63,1.99 14.27,2.16 10.13,2.26 5.99,2.36 3.07,1.83 0.14,1.30 -0.01,1.30 -0.17,1.30 -0.32,1.26 -0.47,1.22 -0.61,1.14 -0.75,1.07 -0.87,0.96 -0.99,0.86 -1.08,0.72 -1.16,0.59 -1.22,0.44 -1.27,0.30 -1.29,0.14 -1.31,-0.01 -1.29,-0.17 -1.27,-0.32 -1.21,-0.47 -1.15,-0.62 -1.06,-0.75 -0.97,-0.88 -0.85,-0.98 -0.73,-1.08 -0.59,-1.16 -0.45,-1.23 -0.29,-1.26 -0.14,-1.30 -0.14,-1.30 L -0.14,-1.30 Z"/></g><g transform="translate(499.2603454589844 38.48158264160156) rotate(0 1.095428466796875 36.149696350097656)" stroke="none"><path fill="#1e1e1e" d="M 1.30,0.14 Q 1.30,0.14 1.89,3.07 2.48,6.01 2.70,11.71 2.93,17.42 2.70,25.39 2.46,33.37 2.32,40.78 2.18,48.19 2.23,54.38 2.29,60.58 3.14,65.23 4.00,69.88 4.02,70.09 4.04,70.30 3.99,70.51 3.94,70.71 3.83,70.89 3.72,71.07 3.56,71.21 3.39,71.35 3.19,71.42 3.00,71.50 2.78,71.51 2.57,71.52 2.37,71.46 2.16,71.40 1.99,71.28 1.81,71.16 1.69,70.99 1.56,70.82 1.50,70.61 1.43,70.41 1.43,70.20 1.44,69.99 1.51,69.79 1.58,69.58 1.71,69.42 1.84,69.25 2.01,69.13 2.19,69.02 2.40,68.96 2.60,68.91 2.81,68.92 3.03,68.93 3.22,69.02 3.42,69.10 3.58,69.24 3.74,69.37 3.85,69.56 3.95,69.74 4.00,69.95 4.04,70.16 4.02,70.37 3.99,70.58 3.90,70.77 3.81,70.96 3.66,71.12 3.51,71.27 3.32,71.37 3.13,71.46 2.92,71.49 2.71,71.53 2.50,71.49 2.30,71.45 2.11,71.35 1.92,71.25 1.78,71.09 1.63,70.94 1.55,70.74 1.46,70.55 1.46,70.55 1.46,70.55 -0.18,65.76 -1.83,60.97 -2.95,54.54 -4.07,48.11 -4.01,40.64 -3.95,33.17 -3.71,25.40 -3.47,17.62 -3.60,11.47 -3.74,5.32 -2.52,2.59 -1.30,-0.14 -1.26,-0.29 -1.23,-0.45 -1.16,-0.59 -1.08,-0.73 -0.98,-0.85 -0.88,-0.97 -0.75,-1.06 -0.62,-1.15 -0.47,-1.21 -0.32,-1.27 -0.17,-1.29 -0.01,-1.31 0.14,-1.29 0.30,-1.27 0.44,-1.22 0.59,-1.16 0.72,-1.08 0.86,-0.99 0.96,-0.87 1.07,-0.75 1.14,-0.61 1.22,-0.47 1.26,-0.32 1.30,-0.17 1.30,-0.01 1.30,0.14 1.30,0.14 L 1.30,0.14 Z"/></g><g transform="translate(517.8829040527344 94.34927368164062) rotate(0 2.73858642578125 7.668121337890625)" stroke="none"><path fill="#1e1e1e" d="M 1.30,0.18 Q 1.30,0.18 1.82,2.51 2.35,4.83 2.24,6.87 2.12,8.91 3.83,10.32 5.55,11.73 5.75,11.78 5.96,11.83 6.14,11.95 6.31,12.07 6.44,12.23 6.58,12.40 6.65,12.60 6.72,12.80 6.72,13.01 6.72,13.23 6.66,13.43 6.60,13.63 6.47,13.80 6.34,13.97 6.17,14.10 6.00,14.22 5.79,14.28 5.59,14.34 5.38,14.33 5.16,14.32 4.96,14.25 4.77,14.17 4.60,14.04 4.44,13.90 4.33,13.72 4.21,13.54 4.16,13.33 4.12,13.13 4.13,12.91 4.15,12.70 4.24,12.51 4.33,12.31 4.47,12.16 4.61,12.00 4.80,11.90 4.99,11.80 5.20,11.76 5.40,11.72 5.61,11.75 5.83,11.78 6.01,11.88 6.20,11.98 6.35,12.13 6.50,12.28 6.59,12.47 6.69,12.66 6.71,12.87 6.74,13.09 6.70,13.29 6.65,13.50 6.55,13.69 6.44,13.87 6.28,14.01 6.12,14.15 5.92,14.23 5.73,14.31 5.52,14.33 5.30,14.34 5.30,14.34 5.30,14.34 2.19,14.47 -0.92,14.60 -2.42,11.64 -3.92,8.68 -3.76,6.33 -3.61,3.98 -2.45,1.89 -1.30,-0.18 -1.25,-0.33 -1.21,-0.49 -1.14,-0.63 -1.06,-0.76 -0.95,-0.88 -0.84,-1.00 -0.71,-1.08 -0.58,-1.17 -0.43,-1.22 -0.28,-1.28 -0.12,-1.29 0.02,-1.31 0.18,-1.29 0.34,-1.26 0.48,-1.20 0.63,-1.14 0.76,-1.05 0.89,-0.96 0.99,-0.84 1.09,-0.72 1.16,-0.58 1.23,-0.43 1.27,-0.28 1.30,-0.13 1.30,0.02 1.30,0.18 1.30,0.18 L 1.30,0.18 Z"/></g><g transform="translate(524.4555358886719 65.86770629882812) rotate(0 -2.190887451171875 -4.38177490234375)" stroke="none"><path fill="#1e1e1e" d="M -1.27,0.31 Q -1.27,0.31 -2.42,-0.73 -3.58,-1.78 -3.76,-3.49 -3.95,-5.20 -2.82,-5.49 -1.70,-5.78 -1.05,-4.21 -0.39,-2.65 -0.29,-2.46 -0.19,-2.27 -0.15,-2.06 -0.12,-1.86 -0.15,-1.65 -0.18,-1.44 -0.28,-1.25 -0.38,-1.06 -0.53,-0.91 -0.68,-0.76 -0.87,-0.67 -1.07,-0.58 -1.28,-0.55 -1.49,-0.53 -1.70,-0.57 -1.90,-0.61 -2.09,-0.72 -2.27,-0.83 -2.41,-0.99 -2.55,-1.15 -2.63,-1.35 -2.71,-1.54 -2.72,-1.76 -2.74,-1.97 -2.68,-2.17 -2.63,-2.38 -2.51,-2.56 -2.39,-2.73 -2.23,-2.86 -2.06,-2.99 -1.86,-3.06 -1.66,-3.13 -1.45,-3.14 -1.23,-3.14 -1.03,-3.07 -0.83,-3.01 -0.66,-2.88 -0.49,-2.75 -0.37,-2.58 -0.25,-2.41 -0.19,-2.20 -0.13,-2.00 -0.14,-1.78 -0.15,-1.57 -0.22,-1.37 -0.30,-1.18 -0.43,-1.01 -0.57,-0.85 -0.75,-0.74 -0.93,-0.63 -1.14,-0.58 -1.35,-0.53 -1.56,-0.55 -1.77,-0.57 -1.96,-0.66 -2.16,-0.75 -2.31,-0.89 -2.47,-1.03 -2.47,-1.03 -2.47,-1.03 -3.55,-2.59 -4.64,-4.14 -5.03,-6.24 -5.43,-8.34 -4.18,-9.44 -2.93,-10.55 -0.75,-9.57 1.42,-8.58 1.79,-7.17 2.16,-5.75 2.24,-4.50 2.32,-3.25 1.79,-1.78 1.27,-0.31 1.29,-0.16 1.31,-0.00 1.29,0.15 1.27,0.31 1.22,0.45 1.16,0.60 1.07,0.73 0.98,0.86 0.86,0.97 0.74,1.07 0.60,1.15 0.46,1.22 0.31,1.26 0.16,1.30 0.00,1.30 -0.15,1.30 -0.30,1.26 -0.46,1.22 -0.60,1.15 -0.74,1.08 -0.86,0.97 -0.98,0.87 -1.07,0.74 -1.16,0.61 -1.21,0.46 -1.27,0.31 -1.27,0.31 L -1.27,0.31 Z"/></g><g transform="translate(537.6009216308594 95.44473266601562) rotate(0 13.14532470703125 1.643157958984375)" stroke="none"><path fill="#1e1e1e" d="M 1.30,0.18 Q 1.30,0.18 1.57,2.47 1.85,4.76 1.83,6.59 1.81,8.42 1.57,9.20 1.33,9.98 1.26,10.33 1.19,10.68 1.04,11.01 0.89,11.34 0.66,11.62 0.44,11.90 0.15,12.11 -0.12,12.33 -0.45,12.48 -0.78,12.62 -1.13,12.68 -1.49,12.74 -1.85,12.72 -2.20,12.69 -2.55,12.58 -2.89,12.47 -3.19,12.28 -3.50,12.09 -3.75,11.84 -4.00,11.58 -4.18,11.27 -4.37,10.96 -4.47,10.62 -4.57,10.27 -4.59,9.91 -4.61,9.56 -4.50,7.72 -4.39,5.89 -3.59,3.50 -2.80,1.11 -1.35,-1.12 0.09,-3.36 2.18,-4.59 4.28,-5.83 6.12,-5.42 7.97,-5.02 9.55,-2.45 11.14,0.10 11.66,2.21 12.18,4.33 12.37,5.48 12.55,6.63 12.62,6.80 12.69,6.97 12.70,7.33 12.72,7.69 12.64,8.04 12.57,8.39 12.42,8.72 12.26,9.04 12.04,9.32 11.81,9.60 11.52,9.82 11.24,10.03 10.90,10.17 10.57,10.31 10.22,10.37 9.86,10.43 9.51,10.40 9.15,10.37 8.81,10.26 8.47,10.14 8.16,9.95 7.86,9.76 7.61,9.50 7.36,9.24 7.18,8.93 7.00,8.62 6.90,8.27 6.80,7.93 8.02,5.38 9.23,2.83 10.92,0.27 12.61,-2.28 15.15,-4.64 17.68,-7.00 19.93,-7.86 22.18,-8.72 24.76,-7.88 27.34,-7.04 28.66,-3.39 29.98,0.25 29.32,4.24 28.66,8.23 28.63,8.44 28.60,8.65 28.50,8.84 28.41,9.03 28.26,9.18 28.11,9.33 27.92,9.42 27.73,9.52 27.51,9.55 27.30,9.57 27.10,9.53 26.89,9.49 26.70,9.39 26.52,9.28 26.38,9.12 26.24,8.96 26.15,8.77 26.07,8.57 26.05,8.36 26.04,8.15 26.09,7.94 26.14,7.74 26.26,7.56 26.37,7.38 26.54,7.25 26.71,7.11 26.91,7.04 27.11,6.97 27.32,6.96 27.53,6.96 27.73,7.02 27.94,7.09 28.11,7.21 28.28,7.34 28.40,7.51 28.53,7.68 28.59,7.89 28.65,8.09 28.64,8.30 28.63,8.51 28.56,8.71 28.49,8.91 28.35,9.08 28.22,9.24 28.04,9.36 27.86,9.47 27.65,9.52 27.45,9.57 27.23,9.55 27.02,9.53 26.83,9.45 26.63,9.36 26.48,9.22 26.32,9.08 26.21,8.89 26.11,8.71 26.07,8.50 26.03,8.29 26.03,8.29 26.03,8.29 25.21,5.05 24.40,1.82 22.98,-0.26 21.55,-2.35 19.52,-0.67 17.48,1.00 15.09,3.99 12.69,6.97 12.70,7.33 12.72,7.69 12.64,8.04 12.57,8.39 12.42,8.72 12.26,9.04 12.04,9.32 11.81,9.60 11.52,9.82 11.24,10.03 10.90,10.17 10.57,10.31 10.22,10.37 9.86,10.43 9.51,10.40 9.15,10.37 8.81,10.26 8.47,10.14 8.16,9.95 7.86,9.76 7.61,9.50 7.36,9.24 7.18,8.93 7.00,8.62 6.90,8.27 6.80,7.93 6.55,6.80 6.30,5.68 6.00,4.19 5.69,2.70 5.32,1.40 4.95,0.10 3.88,1.59 2.82,3.08 2.14,5.02 1.47,6.95 1.40,8.47 1.33,9.98 1.26,10.33 1.19,10.68 1.04,11.01 0.89,11.34 0.66,11.62 0.44,11.90 0.15,12.11 -0.12,12.33 -0.45,12.48 -0.78,12.62 -1.13,12.68 -1.49,12.74 -1.85,12.72 -2.20,12.69 -2.55,12.58 -2.89,12.47 -3.19,12.28 -3.50,12.09 -3.75,11.84 -4.00,11.58 -4.18,11.27 -4.37,10.96 -4.47,10.62 -4.57,10.27 -4.59,9.91 -4.61,9.56 -4.10,8.73 -3.60,7.91 -3.36,5.98 -3.11,4.05 -2.20,1.93 -1.30,-0.18 -1.25,-0.33 -1.21,-0.49 -1.14,-0.63 -1.06,-0.76 -0.95,-0.88 -0.84,-1.00 -0.71,-1.08 -0.58,-1.17 -0.43,-1.22 -0.28,-1.28 -0.12,-1.29 0.02,-1.31 0.18,-1.29 0.34,-1.26 0.48,-1.20 0.63,-1.14 0.76,-1.05 0.89,-0.96 0.99,-0.84 1.09,-0.72 1.16,-0.58 1.23,-0.43 1.27,-0.28 1.30,-0.13 1.30,0.02 1.30,0.18 1.30,0.18 L 1.30,0.18 Z"/></g><g transform="translate(501.4512023925781 125.02175903320312) rotate(0 6.572662353515625 13.145339965820312)" stroke="none"><path fill="#1e1e1e" d="M 1.30,-0.16 Q 1.30,-0.16 2.36,2.26 3.41,4.69 3.58,6.78 3.75,8.88 3.84,12.01 3.94,15.14 3.66,17.89 3.37,20.64 3.29,22.37 3.20,24.09 3.11,24.45 3.03,24.80 2.86,25.13 2.69,25.45 2.45,25.73 2.21,26.01 1.91,26.22 1.61,26.43 1.27,26.56 0.93,26.69 0.56,26.74 0.20,26.79 -0.15,26.74 -0.52,26.70 -0.86,26.58 -1.20,26.45 -1.51,26.24 -1.81,26.04 -2.06,25.76 -2.30,25.49 -2.47,25.17 -2.65,24.85 -2.74,24.49 -2.83,24.14 -2.83,23.77 -2.83,23.40 -2.91,21.38 -3.00,19.36 -2.03,15.30 -1.07,11.23 0.07,8.72 1.21,6.22 3.17,4.67 5.12,3.12 7.38,3.40 9.64,3.69 11.43,6.22 13.22,8.75 13.71,12.31 14.20,15.87 14.16,20.06 14.11,24.25 14.11,24.46 14.12,24.68 14.05,24.88 13.99,25.08 13.86,25.25 13.74,25.42 13.56,25.54 13.39,25.67 13.18,25.73 12.98,25.79 12.77,25.78 12.55,25.77 12.36,25.69 12.16,25.62 11.99,25.48 11.83,25.35 11.72,25.17 11.61,24.98 11.56,24.78 11.51,24.57 11.53,24.36 11.55,24.15 11.64,23.95 11.72,23.76 11.87,23.60 12.01,23.45 12.20,23.35 12.38,23.24 12.59,23.21 12.80,23.17 13.01,23.20 13.22,23.23 13.41,23.33 13.60,23.43 13.75,23.58 13.90,23.73 13.99,23.92 14.08,24.11 14.11,24.32 14.13,24.54 14.09,24.74 14.05,24.95 13.94,25.13 13.83,25.32 13.67,25.46 13.51,25.60 13.31,25.68 13.12,25.76 12.91,25.78 12.69,25.79 12.49,25.74 12.28,25.68 12.11,25.56 11.93,25.45 11.80,25.28 11.67,25.11 11.60,24.91 11.53,24.71 11.53,24.71 11.53,24.71 10.02,20.72 8.52,16.73 8.08,14.19 7.64,11.65 7.17,10.34 6.69,9.02 5.79,10.89 4.88,12.77 3.97,16.06 3.06,19.35 3.13,21.72 3.20,24.09 3.11,24.45 3.03,24.80 2.86,25.13 2.69,25.45 2.45,25.73 2.21,26.01 1.91,26.22 1.61,26.43 1.27,26.56 0.93,26.69 0.56,26.74 0.20,26.79 -0.15,26.74 -0.52,26.70 -0.86,26.58 -1.20,26.45 -1.51,26.24 -1.81,26.04 -2.06,25.76 -2.30,25.49 -2.47,25.17 -2.65,24.85 -2.74,24.49 -2.83,24.14 -2.83,23.77 -2.83,23.40 -2.67,21.69 -2.51,19.97 -2.21,17.61 -1.92,15.24 -1.93,12.25 -1.95,9.25 -2.05,7.32 -2.15,5.38 -1.73,2.77 -1.30,0.16 -1.30,0.00 -1.30,-0.15 -1.26,-0.30 -1.22,-0.46 -1.15,-0.60 -1.08,-0.74 -0.97,-0.86 -0.87,-0.97 -0.74,-1.07 -0.61,-1.16 -0.46,-1.21 -0.31,-1.27 -0.16,-1.29 -0.00,-1.31 0.15,-1.29 0.30,-1.27 0.45,-1.22 0.60,-1.16 0.73,-1.07 0.86,-0.98 0.97,-0.86 1.07,-0.74 1.15,-0.60 1.22,-0.46 1.26,-0.31 1.30,-0.16 1.30,-0.16 L 1.30,-0.16 Z"/></g><g transform="translate(517.8829040527344 137.0716552734375) rotate(0 10.9544677734375 2.190887451171875)" stroke="none"><path fill="#1e1e1e" d="M 0.58,-1.17 Q 0.58,-1.17 3.50,-0.81 6.41,-0.45 9.08,-0.21 11.76,0.01 15.78,0.07 19.81,0.13 20.02,0.13 20.23,0.13 20.43,0.19 20.64,0.26 20.81,0.38 20.98,0.51 21.10,0.68 21.22,0.86 21.28,1.06 21.34,1.26 21.34,1.48 21.33,1.69 21.25,1.89 21.18,2.09 21.04,2.25 20.91,2.41 20.73,2.53 20.55,2.64 20.34,2.69 20.13,2.74 19.92,2.72 19.71,2.70 19.51,2.61 19.32,2.53 19.16,2.38 19.01,2.24 18.90,2.05 18.80,1.87 18.76,1.66 18.73,1.45 18.76,1.24 18.79,1.03 18.89,0.84 18.98,0.65 19.13,0.50 19.29,0.35 19.48,0.26 19.67,0.17 19.88,0.14 20.09,0.11 20.30,0.16 20.51,0.20 20.69,0.31 20.87,0.41 21.01,0.57 21.15,0.73 21.24,0.93 21.32,1.12 21.33,1.34 21.35,1.55 21.29,1.75 21.24,1.96 21.12,2.14 21.01,2.32 20.84,2.45 20.67,2.58 20.47,2.65 20.27,2.72 20.27,2.72 20.27,2.72 15.84,4.31 11.41,5.90 7.53,5.69 3.66,5.48 1.53,3.33 -0.58,1.17 -0.71,1.08 -0.85,0.99 -0.95,0.88 -1.06,0.76 -1.14,0.62 -1.21,0.48 -1.25,0.33 -1.30,0.18 -1.30,0.02 -1.30,-0.13 -1.27,-0.28 -1.23,-0.44 -1.16,-0.58 -1.09,-0.72 -0.99,-0.84 -0.89,-0.96 -0.76,-1.05 -0.63,-1.15 -0.48,-1.20 -0.33,-1.26 -0.18,-1.29 -0.02,-1.31 0.13,-1.29 0.28,-1.28 0.43,-1.22 0.58,-1.17 0.58,-1.17 L 0.58,-1.17 Z"/></g><g transform="translate(533.2191467285156 133.78530883789062) rotate(0 9.858978271484375 8.215835571289062)" stroke="none"><path fill="#1e1e1e" d="M 0.34,-1.26 Q 0.34,-1.26 4.05,-1.21 7.75,-1.15 10.77,-0.43 13.79,0.29 16.25,1.80 18.70,3.31 20.01,5.75 21.32,8.18 20.70,10.73 20.08,13.28 17.50,15.16 14.92,17.03 12.91,16.52 10.90,16.01 9.56,14.20 8.22,12.38 8.12,12.20 8.01,12.01 7.97,11.80 7.93,11.59 7.96,11.38 7.99,11.17 8.09,10.98 8.18,10.79 8.34,10.64 8.49,10.49 8.68,10.40 8.87,10.31 9.08,10.28 9.29,10.25 9.50,10.29 9.71,10.33 9.89,10.44 10.08,10.54 10.22,10.70 10.36,10.86 10.44,11.06 10.52,11.25 10.54,11.46 10.56,11.68 10.50,11.88 10.45,12.09 10.34,12.27 10.22,12.45 10.06,12.58 9.89,12.71 9.69,12.78 9.49,12.85 9.28,12.86 9.06,12.86 8.86,12.80 8.66,12.74 8.49,12.61 8.31,12.49 8.19,12.32 8.07,12.14 8.01,11.94 7.95,11.74 7.95,11.52 7.96,11.31 8.03,11.11 8.11,10.91 8.24,10.75 8.38,10.58 8.56,10.47 8.73,10.36 8.94,10.30 9.15,10.25 9.36,10.27 9.57,10.29 9.77,10.38 9.96,10.46 10.12,10.60 10.28,10.75 10.28,10.75 10.28,10.75 11.33,11.37 12.39,11.99 13.46,11.26 14.54,10.54 14.79,9.43 15.04,8.32 13.64,7.33 12.24,6.35 9.17,5.64 6.09,4.93 2.87,3.10 -0.34,1.26 -0.49,1.20 -0.63,1.14 -0.76,1.05 -0.89,0.96 -0.99,0.84 -1.09,0.71 -1.16,0.57 -1.23,0.43 -1.27,0.28 -1.30,0.12 -1.30,-0.03 -1.29,-0.19 -1.25,-0.34 -1.21,-0.49 -1.13,-0.63 -1.06,-0.77 -0.95,-0.88 -0.84,-1.00 -0.71,-1.09 -0.58,-1.17 -0.43,-1.23 -0.28,-1.28 -0.12,-1.29 0.03,-1.31 0.18,-1.28 0.34,-1.26 0.34,-1.26 L 0.34,-1.26 Z"/></g><g transform="translate(582.5141296386719 132.68988037109375) rotate(0 13.1453857421875 3.83404541015625)" stroke="none"><path fill="#1e1e1e" d="M -0.36,1.26 Q -0.36,1.26 -2.81,1.51 -5.27,1.76 -7.42,1.22 -9.58,0.68 -10.79,0.71 -11.99,0.73 -12.67,2.65 -13.34,4.57 -12.75,5.67 -12.15,6.76 -9.70,6.25 -7.24,5.74 -4.35,4.78 -1.45,3.82 2.04,2.48 5.54,1.13 9.24,-0.38 12.95,-1.90 16.74,-2.64 20.54,-3.38 24.73,-3.69 28.92,-3.99 32.11,-3.80 35.30,-3.60 37.92,-2.80 40.54,-2.00 42.27,-0.82 43.99,0.35 44.56,3.64 45.13,6.94 43.16,8.69 41.19,10.45 36.57,11.78 31.95,13.11 26.71,13.27 21.47,13.42 16.32,12.79 11.17,12.17 7.17,11.04 3.16,9.90 1.28,5.80 -0.60,1.69 -0.74,1.64 -0.89,1.58 -1.02,1.49 -1.15,1.40 -1.26,1.29 -1.36,1.17 -1.44,1.03 -1.51,0.89 -1.55,0.73 -1.59,0.58 -1.59,0.42 -1.59,0.26 -1.56,0.11 -1.52,-0.03 -1.45,-0.17 -1.37,-0.31 -1.27,-0.43 -1.16,-0.55 -1.03,-0.64 -0.90,-0.73 -0.76,-0.79 -0.61,-0.85 -0.45,-0.87 -0.29,-0.89 -0.14,-0.87 0.01,-0.85 -0.53,-0.74 -1.07,-0.63 -0.88,-0.73 -0.69,-0.82 -0.48,-0.86 -0.27,-0.89 -0.06,-0.85 0.14,-0.81 0.32,-0.71 0.51,-0.61 0.65,-0.45 0.80,-0.30 0.88,-0.10 0.97,0.08 0.99,0.29 1.01,0.50 0.96,0.71 0.92,0.92 0.80,1.10 0.69,1.28 0.53,1.41 0.37,1.55 0.17,1.63 -0.02,1.70 -0.23,1.71 -0.45,1.72 -0.65,1.66 -0.85,1.60 -1.03,1.48 -1.20,1.36 -1.33,1.19 -1.46,1.02 -1.52,0.81 -1.59,0.61 -1.58,0.40 -1.58,0.19 -1.51,-0.00 -1.44,-0.20 -1.31,-0.37 -1.18,-0.54 -1.00,-0.66 -0.82,-0.77 -0.62,-0.83 -0.41,-0.88 -0.20,-0.87 0.00,-0.85 0.20,-0.77 0.39,-0.69 0.55,-0.55 0.71,-0.41 0.82,-0.23 0.93,-0.05 0.97,0.15 1.01,0.36 0.99,0.57 0.96,0.78 0.87,0.97 0.78,1.17 0.09,1.43 -0.59,1.69 -0.74,1.64 -0.89,1.58 -1.02,1.49 -1.15,1.40 -1.26,1.29 -1.36,1.17 -1.44,1.03 -1.51,0.89 -1.55,0.74 -1.59,0.58 -1.59,0.42 -1.59,0.26 -1.56,0.11 -1.52,-0.03 -1.45,-0.17 -1.37,-0.31 -1.27,-0.43 -1.16,-0.55 -1.03,-0.64 -0.90,-0.73 -0.76,-0.79 -0.61,-0.85 -0.45,-0.87 -0.30,-0.89 -0.14,-0.87 0.01,-0.85 2.73,1.39 5.44,3.64 8.75,4.27 12.05,4.89 16.69,5.44 21.33,5.99 25.78,5.94 30.22,5.90 33.59,5.27 36.95,4.64 38.94,3.27 40.93,1.90 39.65,3.09 38.38,4.28 36.60,3.65 34.81,3.02 32.09,2.82 29.36,2.62 25.56,2.87 21.75,3.12 18.59,3.67 15.43,4.23 11.67,5.77 7.90,7.31 4.20,8.72 0.49,10.13 -3.17,11.21 -6.85,12.28 -10.98,12.12 -15.10,11.96 -16.94,10.01 -18.77,8.06 -19.07,5.37 -19.37,2.69 -18.18,0.03 -16.99,-2.62 -15.06,-3.97 -13.12,-5.32 -10.57,-5.42 -8.02,-5.53 -5.78,-4.90 -3.54,-4.28 -1.59,-2.77 0.36,-1.26 0.50,-1.20 0.65,-1.13 0.77,-1.04 0.90,-0.95 1.00,-0.82 1.10,-0.70 1.17,-0.56 1.24,-0.42 1.27,-0.26 1.30,-0.11 1.30,0.04 1.29,0.20 1.25,0.35 1.21,0.51 1.13,0.64 1.05,0.78 0.94,0.89 0.83,1.01 0.70,1.09 0.56,1.18 0.41,1.23 0.26,1.28 0.10,1.29 -0.04,1.31 -0.20,1.28 -0.36,1.26 -0.36,1.26 L -0.36,1.26 Z"/></g><g transform="translate(627.4274597167969 33.00434875488281) rotate(0 -0.54779052734375 37.24513244628906)" stroke="none"><path fill="#1e1e1e" d="M -0.58,-1.17 Q -0.58,-1.17 -0.44,-2.46 -0.30,-3.75 0.09,-3.89 0.49,-4.03 0.90,-4.08 1.32,-4.12 1.74,-4.06 2.16,-4.00 2.55,-3.84 2.94,-3.69 3.28,-3.44 3.62,-3.19 3.90,-2.87 4.17,-2.55 4.36,-2.18 4.55,-1.80 4.64,-1.39 4.73,-0.98 4.72,-0.56 4.71,-0.14 4.61,0.26 4.50,0.67 4.29,1.04 4.09,1.41 3.80,1.72 3.52,2.03 3.17,2.26 2.82,2.49 1.51,5.58 0.20,8.67 -1.01,13.24 -2.23,17.81 -3.08,24.06 -3.92,30.32 -4.00,39.14 -4.07,47.97 -2.96,54.33 -1.85,60.70 -0.68,64.40 0.48,68.09 3.49,69.79 6.51,71.48 6.69,71.59 6.87,71.71 7.00,71.87 7.14,72.03 7.21,72.23 7.29,72.43 7.29,72.64 7.30,72.86 7.24,73.06 7.18,73.26 7.06,73.44 6.94,73.61 6.76,73.74 6.59,73.86 6.39,73.93 6.19,73.99 5.98,73.99 5.76,73.98 5.56,73.91 5.36,73.84 5.20,73.71 5.03,73.58 4.91,73.40 4.80,73.22 4.74,73.01 4.69,72.81 4.71,72.60 4.72,72.38 4.81,72.19 4.89,71.99 5.03,71.83 5.17,71.67 5.35,71.57 5.54,71.46 5.75,71.42 5.95,71.38 6.16,71.41 6.37,71.43 6.57,71.53 6.76,71.62 6.91,71.77 7.06,71.92 7.16,72.11 7.25,72.30 7.28,72.51 7.31,72.72 7.27,72.92 7.24,73.13 7.13,73.32 7.03,73.51 6.87,73.65 6.72,73.79 6.52,73.88 6.33,73.96 6.12,73.98 5.90,74.00 5.70,73.95 5.49,73.90 5.49,73.90 5.49,73.90 0.96,72.42 -3.56,70.95 -5.95,66.44 -8.35,61.94 -9.70,54.94 -11.06,47.94 -11.00,38.65 -10.95,29.36 -10.00,22.64 -9.06,15.92 -7.55,10.70 -6.04,5.49 -4.16,1.89 -2.28,-1.69 -1.29,-2.72 -0.30,-3.75 0.09,-3.89 0.49,-4.03 0.90,-4.08 1.32,-4.12 1.74,-4.06 2.16,-4.00 2.55,-3.84 2.94,-3.69 3.28,-3.44 3.62,-3.19 3.90,-2.87 4.17,-2.55 4.36,-2.18 4.55,-1.80 4.64,-1.39 4.73,-0.98 4.72,-0.56 4.71,-0.14 4.61,0.26 4.50,0.67 4.29,1.04 4.09,1.41 3.81,1.72 3.52,2.03 3.17,2.26 2.82,2.49 1.70,1.83 0.58,1.17 0.43,1.22 0.28,1.28 0.13,1.29 -0.02,1.31 -0.18,1.29 -0.33,1.26 -0.48,1.20 -0.63,1.15 -0.76,1.05 -0.89,0.96 -0.99,0.84 -1.09,0.72 -1.16,0.58 -1.23,0.44 -1.27,0.28 -1.30,0.13 -1.30,-0.02 -1.30,-0.18 -1.25,-0.33 -1.21,-0.48 -1.14,-0.62 -1.06,-0.76 -0.95,-0.88 -0.85,-1.00 -0.71,-1.08 -0.58,-1.17 -0.58,-1.17 L -0.58,-1.17 Z"/></g><g transform="translate(692.0586853027344 50.53147888183594) rotate(0 10.40673828125 -19.17029571533203)" stroke="none"><path fill="#1e1e1e" d="M -1.06,-0.77 Q -1.06,-0.77 0.82,-4.69 2.71,-8.61 4.70,-11.60 6.69,-14.59 8.46,-17.68 10.24,-20.76 11.93,-23.97 13.63,-27.17 14.95,-30.05 16.28,-32.94 16.78,-34.62 17.29,-36.30 17.11,-37.74 16.94,-39.18 16.96,-39.52 16.98,-39.86 17.08,-40.19 17.18,-40.51 17.36,-40.80 17.53,-41.10 17.77,-41.34 18.01,-41.58 18.30,-41.76 18.59,-41.93 18.92,-42.03 19.24,-42.14 19.58,-42.16 19.92,-42.18 20.26,-42.12 20.59,-42.06 20.90,-41.92 21.21,-41.78 21.48,-41.57 21.75,-41.36 21.96,-41.09 22.17,-40.83 22.31,-40.52 22.45,-40.21 22.51,-39.87 22.57,-39.54 21.98,-35.60 21.38,-31.66 20.81,-27.81 20.24,-23.96 19.93,-19.91 19.61,-15.87 18.82,-11.95 18.03,-8.03 17.45,-3.77 16.86,0.49 16.80,0.69 16.74,0.90 16.62,1.07 16.50,1.25 16.33,1.37 16.16,1.50 15.96,1.56 15.75,1.63 15.54,1.63 15.33,1.62 15.13,1.55 14.93,1.48 14.76,1.35 14.59,1.22 14.48,1.04 14.36,0.87 14.30,0.66 14.25,0.46 14.26,0.24 14.28,0.03 14.36,-0.15 14.44,-0.35 14.58,-0.51 14.72,-0.67 14.90,-0.78 15.09,-0.89 15.30,-0.93 15.50,-0.97 15.71,-0.95 15.93,-0.92 16.12,-0.83 16.31,-0.74 16.46,-0.59 16.61,-0.44 16.71,-0.25 16.81,-0.06 16.84,0.14 16.87,0.35 16.83,0.56 16.80,0.77 16.69,0.95 16.59,1.14 16.44,1.28 16.28,1.43 16.09,1.51 15.89,1.60 15.68,1.62 15.47,1.64 15.26,1.59 15.06,1.54 14.87,1.43 14.69,1.32 14.56,1.16 14.42,0.99 14.35,0.79 14.27,0.60 14.26,0.38 14.25,0.17 14.25,0.17 14.25,0.17 14.69,-3.96 15.13,-8.11 14.55,-12.16 13.98,-16.20 14.16,-20.52 14.34,-24.84 14.94,-28.81 15.54,-32.79 16.24,-35.99 16.94,-39.18 16.96,-39.52 16.98,-39.86 17.08,-40.19 17.18,-40.51 17.36,-40.80 17.53,-41.10 17.77,-41.34 18.01,-41.58 18.30,-41.76 18.59,-41.93 18.92,-42.03 19.24,-42.14 19.58,-42.16 19.92,-42.18 20.26,-42.12 20.59,-42.06 20.90,-41.92 21.21,-41.78 21.48,-41.57 21.75,-41.36 21.96,-41.09 22.17,-40.83 22.31,-40.52 22.45,-40.21 22.51,-39.87 22.57,-39.54 22.60,-38.75 22.63,-37.96 22.63,-36.38 22.63,-34.80 21.98,-32.71 21.33,-30.62 19.94,-27.60 18.55,-24.58 16.82,-21.29 15.10,-18.01 13.27,-14.73 11.44,-11.44 9.40,-8.34 7.36,-5.23 4.21,-2.23 1.06,0.77 0.95,0.88 0.84,1.00 0.71,1.09 0.58,1.17 0.43,1.23 0.28,1.28 0.12,1.29 -0.03,1.31 -0.18,1.28 -0.34,1.26 -0.49,1.20 -0.63,1.14 -0.76,1.05 -0.89,0.96 -0.99,0.84 -1.09,0.71 -1.16,0.57 -1.23,0.43 -1.27,0.28 -1.30,0.12 -1.30,-0.03 -1.29,-0.19 -1.25,-0.34 -1.21,-0.49 -1.13,-0.63 -1.06,-0.77 -1.06,-0.77 L -1.06,-0.77 Z"/></g><g transform="translate(690.9632263183594 70.24949645996094) rotate(0 16.43170166015625 -2.1908950805664062)" stroke="none"><path fill="#1e1e1e" d="M 0,-1.31 Q 0,-1.31 2.51,-2.24 5.03,-3.17 8.31,-3.19 11.58,-3.20 14.85,-3.17 18.11,-3.14 22.17,-3.46 26.23,-3.77 28.03,-4.31 29.83,-4.84 30.04,-4.87 30.25,-4.90 30.46,-4.86 30.66,-4.81 30.85,-4.71 31.03,-4.60 31.17,-4.44 31.31,-4.28 31.40,-4.09 31.48,-3.89 31.49,-3.68 31.51,-3.47 31.46,-3.26 31.40,-3.06 31.29,-2.88 31.17,-2.70 31.00,-2.57 30.84,-2.44 30.64,-2.37 30.44,-2.29 30.23,-2.29 30.01,-2.29 29.81,-2.35 29.61,-2.41 29.44,-2.54 29.26,-2.66 29.14,-2.84 29.02,-3.01 28.96,-3.22 28.90,-3.42 28.91,-3.63 28.91,-3.84 28.99,-4.04 29.06,-4.24 29.20,-4.41 29.33,-4.57 29.51,-4.68 29.69,-4.80 29.90,-4.85 30.11,-4.90 30.32,-4.88 30.53,-4.86 30.72,-4.77 30.92,-4.69 31.08,-4.54 31.23,-4.40 31.34,-4.21 31.44,-4.03 31.48,-3.82 31.51,-3.61 31.48,-3.40 31.45,-3.19 31.36,-3.00 31.26,-2.81 31.11,-2.66 30.96,-2.51 30.77,-2.42 30.58,-2.33 30.58,-2.33 30.58,-2.33 28.78,-1.79 26.98,-1.26 22.58,0.94 18.19,3.14 14.89,3.17 11.58,3.20 8.31,3.19 5.03,3.17 2.51,2.24 0,1.31 -0.15,1.29 -0.31,1.27 -0.46,1.21 -0.61,1.16 -0.74,1.07 -0.87,0.98 -0.97,0.86 -1.08,0.74 -1.15,0.60 -1.22,0.46 -1.26,0.31 -1.30,0.15 -1.30,-0.00 -1.30,-0.15 -1.26,-0.31 -1.22,-0.46 -1.15,-0.60 -1.08,-0.74 -0.97,-0.86 -0.87,-0.98 -0.74,-1.07 -0.61,-1.16 -0.46,-1.21 -0.31,-1.27 -0.15,-1.29 0.00,-1.31 0.00,-1.31 L 0,-1.31 Z"/></g><g transform="translate(699.7267761230469 95.44473266601562) rotate(0 13.14532470703125 0)" stroke="none"><path fill="#1e1e1e" d="M -1.28,-0.25 Q -1.28,-0.25 -1.80,-2.02 -2.33,-3.79 -1.40,-5.55 -0.47,-7.31 1.59,-9.68 3.66,-12.05 5.55,-13.72 7.45,-15.40 9.17,-16.28 10.89,-17.16 11.99,-17.52 13.10,-17.88 15.83,-17.26 18.55,-16.64 19.38,-14.92 20.21,-13.20 20.06,-10.67 19.90,-8.13 19.12,-5.40 18.35,-2.67 16.32,0.90 14.30,4.48 12.11,7.30 9.93,10.13 7.55,12.13 5.16,14.14 2.69,15.39 0.22,16.65 -1.58,17.20 -3.38,17.76 -4.49,18.00 -5.60,18.24 -6.90,18.26 -8.20,18.28 -8.06,18.18 -7.92,18.08 -8.33,18.08 -8.75,18.07 -9.15,17.97 -9.56,17.86 -9.92,17.67 -10.29,17.47 -10.60,17.19 -10.91,16.91 -11.14,16.57 -11.37,16.22 -11.52,15.83 -11.66,15.44 -11.71,15.03 -11.75,14.62 -11.70,14.20 -11.64,13.79 -11.49,13.40 -11.34,13.02 -11.10,12.68 -10.86,12.34 -10.55,12.06 -10.23,11.79 -9.86,11.60 -9.49,11.41 -9.09,11.32 -8.68,11.22 -5.80,9.86 -2.92,8.50 0.35,8.47 3.64,8.43 7.31,8.45 10.99,8.46 14.41,8.55 17.84,8.64 22.60,8.14 27.36,7.64 29.45,6.97 31.55,6.30 31.76,6.27 31.97,6.24 32.18,6.28 32.39,6.32 32.58,6.42 32.76,6.52 32.90,6.68 33.05,6.84 33.13,7.03 33.22,7.22 33.24,7.44 33.26,7.65 33.21,7.85 33.16,8.06 33.05,8.24 32.94,8.42 32.77,8.56 32.61,8.69 32.41,8.77 32.21,8.84 32.00,8.85 31.79,8.86 31.58,8.80 31.38,8.74 31.20,8.62 31.03,8.49 30.90,8.32 30.78,8.15 30.71,7.95 30.65,7.75 30.65,7.53 30.66,7.32 30.73,7.12 30.80,6.92 30.93,6.75 31.06,6.59 31.24,6.47 31.42,6.35 31.62,6.30 31.83,6.25 32.04,6.26 32.25,6.28 32.45,6.36 32.65,6.44 32.80,6.58 32.96,6.72 33.07,6.91 33.18,7.09 33.22,7.30 33.26,7.51 33.23,7.72 33.21,7.93 33.12,8.12 33.02,8.31 32.87,8.46 32.73,8.61 32.54,8.71 32.35,8.81 32.35,8.81 32.35,8.81 30.25,9.47 28.15,10.14 23.04,12.78 17.93,15.42 14.44,15.50 10.95,15.57 7.23,15.55 3.52,15.52 1.28,15.40 -0.95,15.27 -2.55,15.68 -4.14,16.09 -6.03,17.08 -7.92,18.08 -8.33,18.08 -8.75,18.07 -9.15,17.97 -9.56,17.86 -9.92,17.67 -10.29,17.47 -10.60,17.19 -10.91,16.91 -11.14,16.57 -11.37,16.22 -11.52,15.83 -11.66,15.44 -11.70,15.03 -11.75,14.62 -11.70,14.20 -11.64,13.79 -11.49,13.40 -11.34,13.02 -11.10,12.68 -10.86,12.34 -10.55,12.06 -10.23,11.79 -9.86,11.60 -9.49,11.41 -9.09,11.32 -8.68,11.22 -6.93,11.40 -5.17,11.57 -3.87,11.23 -2.57,10.88 -0.71,10.02 1.14,9.16 3.02,7.66 4.91,6.17 6.84,3.72 8.77,1.27 10.51,-1.62 12.25,-4.51 12.90,-6.65 13.56,-8.79 14.60,-10.47 15.63,-12.14 14.58,-11.86 13.52,-11.58 12.49,-11.15 11.46,-10.73 9.85,-9.34 8.24,-7.95 5.91,-5.22 3.59,-2.50 2.43,-1.12 1.28,0.25 1.23,0.40 1.18,0.55 1.10,0.69 1.02,0.82 0.90,0.93 0.79,1.04 0.65,1.12 0.51,1.20 0.36,1.25 0.21,1.29 0.05,1.30 -0.10,1.30 -0.25,1.27 -0.41,1.24 -0.55,1.18 -0.69,1.11 -0.82,1.01 -0.94,0.91 -1.03,0.78 -1.13,0.66 -1.19,0.51 -1.26,0.37 -1.28,0.21 -1.31,0.05 -1.29,-0.09 -1.28,-0.25 -1.28,-0.25 L -1.28,-0.25 Z"/></g><g transform="translate(754.4989929199219 33.00434875488281) rotate(0 6.57269287109375 37.245140075683594)" stroke="none"><path fill="#1e1e1e" d="M 1.00,-0.84 Q 1.00,-0.84 3.29,0.46 5.58,1.76 7.39,5.02 9.21,8.27 10.95,12.90 12.69,17.53 13.78,22.80 14.87,28.07 15.33,34.19 15.80,40.32 15.02,46.32 14.25,52.32 12.45,58.06 10.66,63.80 8.71,67.02 6.76,70.23 5.26,71.88 3.76,73.52 3.60,73.67 3.44,73.81 3.25,73.89 3.05,73.98 2.84,74.00 2.63,74.01 2.42,73.96 2.22,73.91 2.04,73.80 1.86,73.69 1.73,73.52 1.59,73.36 1.52,73.16 1.44,72.96 1.44,72.75 1.43,72.53 1.49,72.33 1.55,72.13 1.68,71.95 1.80,71.78 1.97,71.66 2.14,71.53 2.35,71.47 2.55,71.40 2.76,71.41 2.97,71.41 3.17,71.49 3.37,71.56 3.54,71.69 3.71,71.82 3.82,72.00 3.94,72.18 3.99,72.39 4.04,72.59 4.02,72.80 4.01,73.02 3.92,73.21 3.84,73.41 3.70,73.57 3.56,73.73 3.37,73.83 3.19,73.94 2.98,73.98 2.77,74.02 2.56,73.99 2.35,73.96 2.16,73.87 1.97,73.77 1.82,73.62 1.67,73.48 1.57,73.29 1.48,73.10 1.45,72.88 1.42,72.67 1.46,72.47 1.50,72.26 1.60,72.07 1.70,71.89 1.70,71.89 1.70,71.89 2.68,70.42 3.65,68.96 4.31,65.57 4.97,62.17 6.34,56.80 7.72,51.43 8.47,46.10 9.22,40.77 8.83,35.06 8.43,29.35 7.51,24.56 6.58,19.76 5.06,15.53 3.54,11.31 2.13,8.54 0.71,5.78 -0.14,3.31 -1.00,0.84 -1.09,0.70 -1.18,0.57 -1.23,0.42 -1.28,0.27 -1.29,0.11 -1.31,-0.03 -1.28,-0.19 -1.26,-0.35 -1.20,-0.49 -1.14,-0.64 -1.05,-0.77 -0.95,-0.90 -0.83,-1.00 -0.71,-1.10 -0.57,-1.17 -0.42,-1.24 -0.27,-1.27 -0.11,-1.30 0.03,-1.30 0.19,-1.29 0.35,-1.25 0.50,-1.21 0.64,-1.13 0.77,-1.05 0.89,-0.94 1.00,-0.84 1.00,-0.84 L 1.00,-0.84 Z"/></g><g transform="translate(813.6530456542969 75.72671508789062) rotate(0 14.24078369140625 -2.190887451171875)" stroke="none"><path fill="#1e1e1e" d="M 0,-1.31 Q 0,-1.31 2.20,-2.22 4.40,-3.14 6.28,-3.15 8.17,-3.16 10.67,-3.45 13.18,-3.74 16.20,-3.91 19.23,-4.08 22.85,-4.59 26.47,-5.11 26.68,-5.14 26.89,-5.17 27.10,-5.14 27.31,-5.10 27.50,-5.00 27.68,-4.90 27.83,-4.74 27.97,-4.58 28.06,-4.39 28.15,-4.20 28.17,-3.98 28.19,-3.77 28.14,-3.57 28.09,-3.36 27.98,-3.18 27.86,-3.00 27.70,-2.86 27.54,-2.73 27.34,-2.65 27.14,-2.57 26.93,-2.57 26.72,-2.56 26.51,-2.62 26.31,-2.68 26.13,-2.80 25.96,-2.92 25.83,-3.09 25.71,-3.26 25.64,-3.46 25.58,-3.67 25.58,-3.88 25.58,-4.09 25.65,-4.29 25.72,-4.49 25.85,-4.66 25.99,-4.83 26.16,-4.94 26.34,-5.06 26.55,-5.11 26.75,-5.17 26.96,-5.15 27.18,-5.14 27.37,-5.06 27.57,-4.98 27.73,-4.84 27.89,-4.70 27.99,-4.51 28.10,-4.33 28.14,-4.12 28.19,-3.91 28.16,-3.70 28.14,-3.49 28.04,-3.30 27.95,-3.11 27.80,-2.96 27.66,-2.80 27.47,-2.71 27.28,-2.61 27.28,-2.61 27.28,-2.61 23.64,-0.79 20.00,1.02 16.95,1.75 13.91,2.48 11.04,2.82 8.17,3.16 6.29,3.15 4.40,3.14 2.20,2.22 0,1.31 -0.15,1.29 -0.31,1.27 -0.46,1.21 -0.61,1.16 -0.74,1.07 -0.87,0.98 -0.97,0.86 -1.08,0.74 -1.15,0.60 -1.22,0.46 -1.26,0.31 -1.30,0.15 -1.30,-0.00 -1.30,-0.15 -1.26,-0.31 -1.22,-0.46 -1.15,-0.60 -1.08,-0.74 -0.97,-0.86 -0.87,-0.98 -0.74,-1.07 -0.61,-1.16 -0.46,-1.21 -0.31,-1.27 -0.15,-1.29 0.00,-1.31 0.00,-1.31 L 0,-1.31 Z"/></g><g transform="translate(822.4165954589844 86.68118286132812) rotate(0 11.502197265625 -0.5477294921875)" stroke="none"><path fill="#1e1e1e" d="M 0.36,-1.26 Q 0.36,-1.26 2.82,-1.55 5.28,-1.83 7.51,-1.57 9.75,-1.31 11.79,-1.01 13.84,-0.71 17.31,-2.15 20.78,-3.60 20.98,-3.67 21.18,-3.73 21.39,-3.73 21.61,-3.73 21.81,-3.66 22.01,-3.59 22.18,-3.46 22.35,-3.34 22.46,-3.16 22.58,-2.98 22.64,-2.78 22.69,-2.57 22.68,-2.36 22.67,-2.15 22.59,-1.95 22.51,-1.75 22.37,-1.59 22.23,-1.43 22.05,-1.32 21.87,-1.21 21.66,-1.17 21.45,-1.12 21.24,-1.15 21.03,-1.17 20.84,-1.26 20.65,-1.35 20.49,-1.50 20.34,-1.65 20.24,-1.83 20.14,-2.02 20.11,-2.23 20.08,-2.44 20.11,-2.65 20.15,-2.86 20.25,-3.05 20.35,-3.24 20.50,-3.38 20.66,-3.53 20.85,-3.61 21.04,-3.70 21.25,-3.73 21.47,-3.75 21.67,-3.70 21.88,-3.65 22.06,-3.54 22.24,-3.43 22.38,-3.27 22.52,-3.11 22.59,-2.91 22.67,-2.71 22.68,-2.50 22.69,-2.29 22.64,-2.08 22.58,-1.88 22.46,-1.70 22.34,-1.53 22.17,-1.40 22.00,-1.27 22.00,-1.27 22.00,-1.27 18.16,1.10 14.33,3.49 11.72,4.20 9.11,4.90 6.32,4.63 3.53,4.35 1.58,2.81 -0.36,1.26 -0.50,1.20 -0.65,1.13 -0.77,1.04 -0.90,0.95 -1.00,0.82 -1.10,0.70 -1.17,0.56 -1.24,0.42 -1.27,0.26 -1.30,0.11 -1.30,-0.04 -1.29,-0.20 -1.25,-0.35 -1.21,-0.51 -1.13,-0.64 -1.05,-0.78 -0.94,-0.89 -0.83,-1.01 -0.70,-1.09 -0.56,-1.18 -0.41,-1.23 -0.26,-1.28 -0.10,-1.29 0.04,-1.31 0.20,-1.28 0.36,-1.26 0.36,-1.26 L 0.36,-1.26 Z"/></g><g transform="translate(910.0522155761719 51.626922607421875) rotate(0 7.66815185546875 -15.336235046386719)" stroke="none"><path fill="#1e1e1e" d="M -1.20,-0.53 Q -1.20,-0.53 -0.65,-3.68 -0.10,-6.83 1.99,-11.24 4.10,-15.65 5.60,-18.78 7.10,-21.91 8.36,-24.50 9.63,-27.10 10.08,-28.61 10.53,-30.12 11.11,-31.60 11.69,-33.07 11.96,-33.85 12.23,-34.62 12.36,-34.97 12.50,-35.31 12.71,-35.61 12.92,-35.91 13.20,-36.15 13.48,-36.39 13.81,-36.56 14.14,-36.73 14.50,-36.81 14.85,-36.89 15.22,-36.89 15.59,-36.88 15.95,-36.79 16.30,-36.70 16.63,-36.52 16.95,-36.35 17.22,-36.10 17.50,-35.85 17.70,-35.55 17.91,-35.24 18.03,-34.90 18.16,-34.55 18.20,-34.19 18.24,-33.82 18.19,-33.46 18.14,-33.09 18.30,-29.97 18.46,-26.86 18.04,-21.87 17.63,-16.89 17.14,-12.67 16.65,-8.44 16.14,-4.76 15.63,-1.08 15.61,0.49 15.58,2.07 15.55,2.28 15.51,2.48 15.41,2.67 15.30,2.86 15.15,3.00 14.99,3.14 14.80,3.23 14.60,3.32 14.39,3.34 14.18,3.36 13.97,3.31 13.77,3.26 13.59,3.15 13.41,3.04 13.27,2.87 13.14,2.71 13.06,2.51 12.98,2.31 12.98,2.10 12.97,1.89 13.03,1.68 13.09,1.48 13.21,1.30 13.33,1.13 13.50,1.00 13.67,0.88 13.88,0.81 14.08,0.75 14.29,0.75 14.50,0.75 14.70,0.83 14.90,0.90 15.07,1.03 15.24,1.16 15.35,1.34 15.47,1.51 15.52,1.72 15.58,1.92 15.56,2.14 15.55,2.35 15.47,2.54 15.39,2.74 15.25,2.90 15.11,3.06 14.92,3.17 14.74,3.27 14.53,3.32 14.32,3.36 14.11,3.33 13.90,3.31 13.71,3.21 13.52,3.12 13.37,2.97 13.21,2.83 13.12,2.64 13.02,2.45 12.99,2.24 12.96,2.03 12.96,2.03 12.96,2.03 12.98,0.45 13.00,-1.11 12.61,-4.85 12.21,-8.58 11.98,-12.92 11.76,-17.26 11.95,-22.03 12.15,-26.81 12.14,-29.35 12.13,-31.88 12.18,-33.25 12.23,-34.62 12.36,-34.97 12.50,-35.31 12.71,-35.61 12.92,-35.91 13.20,-36.15 13.48,-36.39 13.81,-36.56 14.14,-36.73 14.50,-36.81 14.85,-36.89 15.22,-36.89 15.59,-36.88 15.95,-36.79 16.30,-36.70 16.63,-36.52 16.95,-36.35 17.22,-36.10 17.50,-35.86 17.70,-35.55 17.91,-35.24 18.03,-34.90 18.16,-34.55 18.20,-34.19 18.24,-33.82 18.19,-33.46 18.14,-33.09 17.75,-31.95 17.36,-30.81 16.84,-29.55 16.33,-28.30 15.70,-26.36 15.06,-24.42 13.77,-21.84 12.48,-19.27 10.92,-16.18 9.37,-13.09 7.25,-8.80 5.14,-4.50 3.17,-1.98 1.20,0.53 1.11,0.66 1.03,0.80 0.92,0.91 0.81,1.03 0.67,1.11 0.54,1.19 0.39,1.24 0.24,1.29 0.08,1.30 -0.07,1.31 -0.22,1.28 -0.38,1.25 -0.52,1.19 -0.67,1.12 -0.79,1.02 -0.92,0.93 -1.02,0.80 -1.12,0.68 -1.18,0.54 -1.25,0.39 -1.28,0.24 -1.31,0.08 -1.30,-0.07 -1.29,-0.23 -1.24,-0.38 -1.20,-0.53 -1.20,-0.53 L -1.20,-0.53 Z"/></g><g transform="translate(911.1476745605469 66.96315002441406) rotate(0 17.52716064453125 -3.2863311767578125)" stroke="none"><path fill="#1e1e1e" d="M 0,-1.31 Q 0,-1.31 2.83,-2.27 5.66,-3.24 9.07,-3.24 12.47,-3.25 15.53,-3.75 18.59,-4.25 23.23,-4.90 27.88,-5.56 29.82,-6.20 31.76,-6.85 31.97,-6.89 32.18,-6.92 32.39,-6.89 32.60,-6.85 32.79,-6.75 32.98,-6.65 33.12,-6.50 33.27,-6.34 33.36,-6.15 33.45,-5.96 33.47,-5.75 33.49,-5.53 33.44,-5.33 33.40,-5.12 33.29,-4.94 33.18,-4.76 33.02,-4.62 32.85,-4.48 32.66,-4.40 32.46,-4.32 32.25,-4.31 32.03,-4.30 31.83,-4.36 31.62,-4.42 31.45,-4.54 31.27,-4.66 31.15,-4.83 31.02,-5.00 30.95,-5.20 30.88,-5.40 30.88,-5.61 30.88,-5.82 30.95,-6.02 31.02,-6.23 31.15,-6.39 31.28,-6.56 31.45,-6.68 31.63,-6.80 31.84,-6.86 32.04,-6.91 32.25,-6.90 32.46,-6.89 32.66,-6.81 32.86,-6.73 33.02,-6.59 33.18,-6.46 33.29,-6.27 33.40,-6.09 33.45,-5.88 33.49,-5.68 33.47,-5.46 33.44,-5.25 33.35,-5.06 33.26,-4.87 33.12,-4.71 32.97,-4.56 32.78,-4.46 32.60,-4.36 32.60,-4.36 32.60,-4.36 30.65,-3.71 28.71,-3.06 24.22,-0.66 19.73,1.73 16.11,2.49 12.49,3.25 9.08,3.24 5.66,3.24 2.83,2.27 0,1.31 -0.15,1.29 -0.31,1.27 -0.46,1.21 -0.61,1.16 -0.74,1.07 -0.87,0.98 -0.97,0.86 -1.08,0.74 -1.15,0.60 -1.22,0.46 -1.26,0.31 -1.30,0.15 -1.30,-0.00 -1.30,-0.15 -1.26,-0.31 -1.22,-0.46 -1.15,-0.60 -1.08,-0.74 -0.97,-0.86 -0.87,-0.98 -0.74,-1.07 -0.61,-1.16 -0.46,-1.21 -0.31,-1.27 -0.15,-1.29 0.00,-1.31 0.00,-1.31 L 0,-1.31 Z"/></g><g transform="translate(916.6249694824219 85.58572387695312) rotate(0 17.52703857421875 7.1204071044921875)" stroke="none"><path fill="#1e1e1e" d="M -1.21,-0.48 Q -1.21,-0.48 -1.42,-2.43 -1.63,-4.39 -0.13,-6.17 1.37,-7.95 3.17,-9.10 4.97,-10.25 7.11,-11.08 9.25,-11.90 11.43,-12.55 13.61,-13.20 15.68,-13.19 17.74,-13.18 19.66,-12.34 21.58,-11.51 22.91,-10.18 24.25,-8.85 24.97,-6.52 25.69,-4.19 25.56,-1.75 25.43,0.68 24.65,3.17 23.87,5.66 22.10,8.24 20.32,10.82 17.97,13.45 15.62,16.08 12.22,18.62 8.82,21.16 6.11,22.85 3.41,24.54 1.62,25.57 -0.16,26.61 -1.86,27.19 -3.55,27.77 -4.42,28.02 -5.30,28.26 -5.71,28.34 -6.13,28.41 -6.55,28.39 -6.97,28.36 -7.37,28.24 -7.77,28.11 -8.14,27.89 -8.50,27.67 -8.79,27.38 -9.09,27.08 -9.31,26.72 -9.53,26.36 -9.65,25.95 -9.78,25.55 -9.80,25.13 -9.83,24.71 -9.75,24.30 -9.68,23.88 -9.50,23.50 -9.33,23.11 -9.07,22.78 -8.81,22.45 -8.48,22.19 -8.15,21.93 -7.76,21.76 -7.38,21.58 -8.48,22.30 -9.59,23.01 -8.32,21.21 -7.04,19.41 -4.88,18.37 -2.71,17.32 0.02,16.89 2.75,16.46 5.66,16.63 8.57,16.80 11.65,17.21 14.72,17.61 18.78,18.14 22.84,18.67 25.86,18.88 28.89,19.09 32.65,18.35 36.41,17.61 38.08,16.92 39.75,16.23 39.95,16.18 40.16,16.13 40.37,16.16 40.58,16.18 40.78,16.26 40.97,16.35 41.13,16.49 41.28,16.64 41.39,16.82 41.49,17.01 41.53,17.22 41.56,17.43 41.53,17.64 41.50,17.85 41.40,18.04 41.30,18.23 41.15,18.38 41.00,18.52 40.81,18.61 40.62,18.71 40.40,18.73 40.19,18.76 39.99,18.71 39.78,18.67 39.59,18.56 39.41,18.46 39.27,18.30 39.13,18.14 39.05,17.94 38.97,17.74 38.96,17.53 38.94,17.32 39.00,17.11 39.05,16.91 39.17,16.73 39.28,16.55 39.45,16.42 39.62,16.29 39.82,16.22 40.02,16.15 40.23,16.15 40.45,16.15 40.65,16.21 40.85,16.28 41.02,16.40 41.19,16.53 41.31,16.71 41.43,16.88 41.49,17.08 41.55,17.29 41.54,17.50 41.53,17.71 41.46,17.91 41.38,18.11 41.25,18.27 41.11,18.44 40.93,18.55 40.75,18.66 40.75,18.66 40.75,18.66 39.08,19.35 37.41,20.04 33.31,22.54 29.22,25.04 25.61,25.47 22.00,25.90 17.87,25.46 13.73,25.02 10.87,24.64 8.01,24.25 5.83,24.03 3.66,23.82 1.84,23.97 0.02,24.12 -1.66,24.37 -3.35,24.62 -4.33,26.44 -5.30,28.26 -5.71,28.34 -6.13,28.41 -6.55,28.39 -6.97,28.36 -7.37,28.24 -7.77,28.11 -8.14,27.89 -8.50,27.67 -8.79,27.38 -9.09,27.08 -9.31,26.72 -9.53,26.36 -9.65,25.95 -9.78,25.55 -9.80,25.13 -9.83,24.71 -9.75,24.30 -9.68,23.88 -9.50,23.50 -9.33,23.11 -9.07,22.78 -8.81,22.45 -8.48,22.19 -8.15,21.93 -7.76,21.76 -7.38,21.58 -6.46,21.47 -5.54,21.35 -4.50,21.08 -3.46,20.82 -1.78,19.85 -0.10,18.88 2.39,17.34 4.88,15.80 7.79,13.71 10.70,11.61 12.82,9.26 14.94,6.92 16.28,5.20 17.62,3.48 18.23,1.79 18.85,0.09 19.04,-1.38 19.24,-2.86 18.86,-4.30 18.47,-5.75 16.91,-6.33 15.35,-6.91 13.41,-6.35 11.47,-5.78 9.85,-5.24 8.23,-4.70 7.11,-4.12 5.99,-3.53 5.07,-2.72 4.15,-1.90 2.68,-0.71 1.21,0.48 1.14,0.62 1.06,0.76 0.96,0.88 0.85,0.99 0.72,1.08 0.58,1.17 0.44,1.22 0.29,1.28 0.13,1.29 -0.02,1.31 -0.18,1.29 -0.33,1.26 -0.48,1.21 -0.63,1.15 -0.75,1.05 -0.88,0.96 -0.99,0.84 -1.09,0.72 -1.16,0.58 -1.23,0.44 -1.27,0.28 -1.30,0.13 -1.30,-0.02 -1.30,-0.18 -1.26,-0.33 -1.21,-0.48 -1.21,-0.48 L -1.21,-0.48 Z"/></g><g transform="translate(936.3429870605469 139.26254272460938) rotate(0 39.98370361328125 -25.742965698242188)" stroke="none"><path fill="#1e1e1e" d="M -0.85,-0.99 Q -0.85,-0.99 0.87,-3.44 2.60,-5.88 9.26,-10.87 15.93,-15.85 23.83,-21.12 31.73,-26.39 45.60,-33.67 59.47,-40.95 65.17,-44.30 70.87,-47.65 71.07,-47.73 71.27,-47.81 71.48,-47.82 71.69,-47.83 71.89,-47.77 72.10,-47.71 72.27,-47.59 72.45,-47.47 72.58,-47.30 72.70,-47.13 72.77,-46.92 72.83,-46.72 72.83,-46.51 72.83,-46.30 72.76,-46.10 72.69,-45.90 72.56,-45.73 72.43,-45.56 72.25,-45.44 72.08,-45.33 71.87,-45.27 71.66,-45.22 71.45,-45.23 71.24,-45.24 71.04,-45.32 70.85,-45.40 70.69,-45.54 70.53,-45.68 70.42,-45.87 70.31,-46.05 70.27,-46.26 70.22,-46.46 70.25,-46.68 70.27,-46.89 70.36,-47.08 70.46,-47.27 70.60,-47.42 70.75,-47.58 70.94,-47.67 71.13,-47.77 71.34,-47.80 71.55,-47.84 71.76,-47.80 71.97,-47.76 72.15,-47.66 72.34,-47.56 72.49,-47.40 72.63,-47.25 72.72,-47.06 72.80,-46.86 72.83,-46.65 72.85,-46.44 72.80,-46.23 72.75,-46.02 72.64,-45.84 72.53,-45.66 72.36,-45.53 72.20,-45.39 72.20,-45.39 72.20,-45.39 66.50,-42.04 60.80,-38.68 47.84,-30.18 34.88,-21.67 27.09,-16.48 19.31,-11.29 12.76,-6.48 6.21,-1.66 3.53,-0.33 0.85,0.99 0.72,1.08 0.59,1.17 0.44,1.22 0.29,1.28 0.13,1.29 -0.02,1.31 -0.17,1.29 -0.33,1.26 -0.48,1.21 -0.62,1.15 -0.75,1.06 -0.88,0.96 -0.98,0.84 -1.09,0.72 -1.16,0.58 -1.23,0.44 -1.27,0.29 -1.30,0.13 -1.30,-0.02 -1.30,-0.17 -1.26,-0.33 -1.22,-0.48 -1.14,-0.62 -1.06,-0.76 -0.96,-0.88 -0.85,-0.99 -0.85,-0.99 L -0.85,-0.99 Z"/></g><g transform="translate(938.5337829589844 161.17144775390625) rotate(0 59.7017822265625 -43.27008056640625)" stroke="none"><path fill="#1e1e1e" d="M -0.85,-0.99 Q -0.85,-0.99 0.90,-3.40 2.66,-5.80 5.46,-8.23 8.26,-10.66 18.20,-19.32 28.13,-27.97 40.36,-36.74 52.59,-45.51 65.35,-53.17 78.10,-60.84 89.83,-68.43 101.56,-76.02 106.48,-79.35 111.39,-82.69 111.59,-82.78 111.78,-82.87 111.99,-82.89 112.20,-82.91 112.41,-82.87 112.62,-82.82 112.80,-82.71 112.98,-82.60 113.12,-82.44 113.26,-82.28 113.33,-82.08 113.41,-81.89 113.42,-81.67 113.44,-81.46 113.38,-81.26 113.32,-81.05 113.20,-80.88 113.08,-80.70 112.92,-80.57 112.75,-80.44 112.54,-80.37 112.34,-80.31 112.13,-80.31 111.92,-80.31 111.72,-80.37 111.52,-80.44 111.35,-80.57 111.18,-80.70 111.06,-80.88 110.94,-81.05 110.88,-81.26 110.82,-81.46 110.84,-81.67 110.85,-81.88 110.93,-82.08 111.00,-82.28 111.14,-82.44 111.28,-82.60 111.46,-82.71 111.64,-82.82 111.85,-82.87 112.06,-82.91 112.27,-82.89 112.48,-82.87 112.67,-82.78 112.87,-82.69 113.02,-82.54 113.18,-82.40 113.28,-82.21 113.37,-82.02 113.41,-81.81 113.44,-81.60 113.41,-81.39 113.38,-81.18 113.28,-81.00 113.18,-80.81 113.02,-80.66 112.87,-80.52 112.87,-80.52 112.87,-80.52 107.95,-77.18 103.03,-73.84 91.62,-65.73 80.21,-57.61 68.17,-49.08 56.13,-40.55 44.10,-31.96 32.07,-23.36 21.96,-14.88 11.85,-6.40 9.00,-4.07 6.14,-1.74 3.50,-0.37 0.85,0.99 0.72,1.08 0.59,1.17 0.44,1.22 0.29,1.28 0.13,1.29 -0.02,1.31 -0.17,1.29 -0.33,1.26 -0.48,1.21 -0.62,1.15 -0.75,1.06 -0.88,0.96 -0.98,0.84 -1.09,0.72 -1.16,0.58 -1.23,0.44 -1.27,0.29 -1.30,0.13 -1.30,-0.02 -1.30,-0.17 -1.26,-0.33 -1.22,-0.48 -1.14,-0.62 -1.06,-0.76 -0.96,-0.88 -0.85,-0.99 -0.85,-0.99 L -0.85,-0.99 Z"/></g></svg>