<svg version="1.1" xmlns="http://www.w3.org/2000/svg" viewBox="0 0 522.809326171875 319.0565185546875" width="522.809326171875" height="319.0565185546875" class="excalidraw-svg">
  <!-- svg-source:excalidraw -->
  
  <defs>
    <style class="style-fonts">
      @font-face {
        font-family: "Virgil";
        src: url("https://excalidraw.com/Virgil.woff2");
      }
      @font-face {
        font-family: "Cascadia";
        src: url("https://excalidraw.com/Cascadia.woff2");
      }
      @font-face {
        font-family: "Assistant";
        src: url("https://excalidraw.com/Assistant-Regular.woff2");
      }
    </style>
    
  </defs>
  <rect x="0" y="0" width="522.809326171875" height="319.0565185546875" fill="#ffffff"/><g transform="translate(23.145355224609375 64.77224731445312) rotate(0 4.9294891357421875 25.74298095703125)" stroke="none"><path fill="#1e1e1e" d="M 1.12,-0.67 Q 1.12,-0.67 3.63,2.02 6.14,4.72 7.53,5.58 8.91,6.44 10.25,5.94 11.59,5.44 13.24,4.26 14.89,3.07 16.36,0.62 17.83,-1.82 18.42,-3.46 19.00,-5.10 19.27,-6.22 19.54,-7.34 19.74,-7.67 19.94,-8.01 20.21,-8.29 20.48,-8.57 20.81,-8.77 21.14,-8.98 21.51,-9.10 21.88,-9.22 22.27,-9.25 22.66,-9.27 23.04,-9.21 23.42,-9.14 23.78,-8.99 24.14,-8.83 24.44,-8.60 24.75,-8.36 25.00,-8.06 25.24,-7.76 25.40,-7.40 25.57,-7.05 25.64,-6.67 25.72,-6.29 25.70,-5.90 25.68,-5.51 25.57,-5.14 25.46,-4.76 25.55,-5.87 25.64,-6.98 25.66,-4.44 25.67,-1.91 25.59,0.18 25.51,2.27 25.47,5.08 25.44,7.88 25.42,12.22 25.41,16.56 25.40,20.62 25.40,24.67 25.71,29.11 26.02,33.55 26.15,37.43 26.29,41.32 26.34,43.94 26.40,46.56 25.38,50.12 24.36,53.68 22.69,55.86 21.02,58.04 18.64,59.44 16.26,60.85 11.90,61.17 7.54,61.49 2.55,59.86 -2.43,58.23 -6.02,55.67 -9.60,53.12 -11.37,49.03 -13.15,44.94 -11.70,39.90 -10.25,34.86 -9.88,32.95 -9.50,31.04 -9.43,30.85 -9.36,30.65 -9.22,30.48 -9.09,30.32 -8.91,30.20 -8.73,30.09 -8.52,30.04 -8.32,29.99 -8.10,30.01 -7.89,30.02 -7.70,30.11 -7.50,30.19 -7.35,30.33 -7.19,30.48 -7.08,30.66 -6.98,30.85 -6.94,31.06 -6.90,31.27 -6.93,31.48 -6.96,31.69 -7.06,31.88 -7.15,32.07 -7.30,32.22 -7.45,32.37 -7.64,32.46 -7.83,32.55 -8.04,32.58 -8.26,32.61 -8.46,32.57 -8.67,32.53 -8.86,32.42 -9.04,32.32 -9.18,32.16 -9.32,32.00 -9.41,31.80 -9.49,31.61 -9.51,31.40 -9.52,31.18 -9.47,30.98 -9.42,30.77 -9.30,30.59 -9.19,30.42 -9.02,30.28 -8.86,30.15 -8.66,30.08 -8.46,30.01 -8.24,30.00 -8.03,30.00 -7.83,30.06 -7.63,30.12 -7.45,30.25 -7.28,30.37 -7.16,30.54 -7.04,30.72 -6.97,30.92 -6.91,31.12 -6.92,31.34 -6.93,31.55 -6.93,31.55 -6.93,31.55 -7.30,33.46 -7.67,35.36 -7.98,39.30 -8.29,43.23 -6.78,45.44 -5.27,47.66 -2.62,49.55 0.01,51.45 3.76,52.88 7.51,54.31 10.37,54.42 13.23,54.53 14.51,53.96 15.79,53.39 16.79,52.40 17.78,51.42 18.61,49.01 19.44,46.60 19.38,44.08 19.32,41.56 19.19,37.79 19.06,34.02 18.75,29.34 18.44,24.66 18.45,20.60 18.46,16.53 18.48,12.15 18.51,7.77 18.56,4.86 18.62,1.95 19.28,-1.25 19.93,-4.46 19.74,-5.90 19.54,-7.34 19.74,-7.67 19.94,-8.01 20.21,-8.29 20.48,-8.57 20.81,-8.77 21.14,-8.98 21.51,-9.10 21.88,-9.22 22.27,-9.25 22.66,-9.27 23.04,-9.21 23.42,-9.14 23.78,-8.99 24.13,-8.83 24.44,-8.60 24.75,-8.36 25.00,-8.06 25.24,-7.76 25.40,-7.40 25.57,-7.05 25.64,-6.67 25.72,-6.29 25.70,-5.90 25.68,-5.51 25.57,-5.14 25.46,-4.77 25.05,-3.71 24.65,-2.65 23.65,-0.64 22.65,1.35 20.39,4.52 18.13,7.69 15.44,9.34 12.75,11.00 9.82,11.25 6.89,11.50 4.15,9.68 1.41,7.86 0.14,4.27 -1.12,0.67 -1.19,0.53 -1.25,0.38 -1.28,0.23 -1.31,0.07 -1.30,-0.08 -1.29,-0.24 -1.24,-0.39 -1.19,-0.54 -1.11,-0.67 -1.03,-0.81 -0.91,-0.92 -0.80,-1.03 -0.67,-1.11 -0.53,-1.19 -0.38,-1.24 -0.23,-1.29 -0.07,-1.30 0.08,-1.31 0.23,-1.28 0.39,-1.25 0.53,-1.18 0.68,-1.12 0.80,-1.02 0.93,-0.92 1.02,-0.80 1.12,-0.67 1.12,-0.67 L 1.12,-0.67 Z"/></g><g transform="translate(59.2950439453125 62.58135986328125) rotate(0 11.502166748046875 -3.2863311767578125)" stroke="none"><path fill="#1e1e1e" d="M -0.31,-1.27 Q -0.31,-1.27 1.96,-2.86 4.23,-4.45 6.20,-5.01 8.16,-5.56 10.55,-6.24 12.94,-6.93 14.46,-7.08 15.98,-7.24 18.75,-7.39 21.52,-7.54 21.73,-7.56 21.94,-7.58 22.15,-7.53 22.36,-7.48 22.54,-7.37 22.72,-7.26 22.85,-7.09 22.99,-6.93 23.06,-6.73 23.14,-6.53 23.14,-6.32 23.15,-6.10 23.09,-5.90 23.03,-5.70 22.91,-5.52 22.78,-5.35 22.61,-5.22 22.44,-5.10 22.24,-5.03 22.04,-4.97 21.82,-4.97 21.61,-4.98 21.41,-5.05 21.21,-5.12 21.04,-5.25 20.88,-5.38 20.76,-5.56 20.65,-5.74 20.59,-5.95 20.54,-6.15 20.56,-6.36 20.57,-6.58 20.65,-6.77 20.74,-6.97 20.88,-7.13 21.02,-7.29 21.20,-7.39 21.38,-7.50 21.59,-7.54 21.80,-7.58 22.01,-7.56 22.22,-7.53 22.41,-7.44 22.60,-7.34 22.76,-7.19 22.91,-7.05 23.00,-6.86 23.10,-6.67 23.13,-6.46 23.16,-6.25 23.12,-6.04 23.08,-5.83 22.98,-5.64 22.88,-5.46 22.72,-5.31 22.56,-5.17 22.37,-5.08 22.18,-5.00 22.18,-5.00 22.18,-5.00 19.72,-3.80 17.27,-2.60 16.09,-2.01 14.92,-1.42 12.45,-0.35 9.97,0.71 7.90,1.32 5.83,1.93 3.07,1.60 0.31,1.27 0.16,1.29 0.00,1.31 -0.15,1.29 -0.31,1.27 -0.45,1.22 -0.60,1.16 -0.73,1.07 -0.86,0.98 -0.97,0.86 -1.07,0.74 -1.15,0.60 -1.22,0.46 -1.26,0.31 -1.30,0.16 -1.30,0.00 -1.30,-0.15 -1.26,-0.30 -1.22,-0.46 -1.15,-0.60 -1.08,-0.74 -0.97,-0.86 -0.87,-0.98 -0.74,-1.07 -0.61,-1.16 -0.46,-1.21 -0.31,-1.27 -0.31,-1.27 L -0.31,-1.27 Z"/></g><g transform="translate(66.963134765625 71.34494018554688) rotate(0 9.311294555664062 -0.5477294921875)" stroke="none"><path fill="#1e1e1e" d="M 0.21,-1.29 Q 0.21,-1.29 2.26,-1.98 4.30,-2.67 6.30,-2.73 8.29,-2.80 12.39,-2.91 16.48,-3.02 16.70,-3.03 16.91,-3.05 17.11,-3.00 17.32,-2.95 17.50,-2.83 17.68,-2.72 17.81,-2.55 17.94,-2.38 18.01,-2.18 18.09,-1.98 18.09,-1.77 18.10,-1.56 18.03,-1.36 17.97,-1.15 17.84,-0.98 17.72,-0.81 17.55,-0.69 17.37,-0.56 17.17,-0.50 16.97,-0.44 16.75,-0.45 16.54,-0.45 16.34,-0.53 16.14,-0.60 15.98,-0.74 15.81,-0.87 15.70,-1.05 15.59,-1.23 15.54,-1.44 15.49,-1.64 15.50,-1.85 15.52,-2.06 15.61,-2.26 15.69,-2.45 15.84,-2.61 15.98,-2.77 16.16,-2.87 16.35,-2.98 16.56,-3.02 16.77,-3.05 16.98,-3.03 17.19,-3.00 17.38,-2.90 17.57,-2.80 17.72,-2.65 17.87,-2.50 17.96,-2.31 18.05,-2.12 18.08,-1.91 18.11,-1.70 18.07,-1.49 18.03,-1.28 17.92,-1.10 17.82,-0.91 17.66,-0.77 17.50,-0.63 17.30,-0.55 17.11,-0.47 17.11,-0.47 17.11,-0.47 12.94,1.43 8.77,3.33 6.01,3.63 3.25,3.93 1.51,2.61 -0.21,1.29 -0.36,1.25 -0.51,1.20 -0.65,1.12 -0.79,1.04 -0.90,0.93 -1.02,0.82 -1.10,0.69 -1.18,0.55 -1.23,0.40 -1.28,0.25 -1.29,0.09 -1.31,-0.05 -1.28,-0.21 -1.25,-0.37 -1.19,-0.51 -1.13,-0.66 -1.03,-0.78 -0.94,-0.91 -0.82,-1.01 -0.69,-1.11 -0.55,-1.18 -0.41,-1.24 -0.25,-1.27 -0.10,-1.30 0.05,-1.30 0.21,-1.29 0.21,-1.29 L 0.21,-1.29 Z"/></g><g transform="translate(108.59005737304688 63.67681884765625) rotate(0 11.502182006835938 7.668121337890625)" stroke="none"><path fill="#1e1e1e" d="M 1.21,0.48 Q 1.21,0.48 0.84,3.97 0.47,7.47 0.34,8.64 0.21,9.82 1.62,10.43 3.03,11.05 5.35,11.03 7.67,11.01 10.52,10.66 13.37,10.31 17.27,9.06 21.16,7.80 22.80,7.10 24.44,6.40 24.65,6.35 24.85,6.30 25.06,6.31 25.28,6.33 25.47,6.42 25.67,6.50 25.82,6.64 25.98,6.78 26.09,6.97 26.19,7.15 26.23,7.36 26.27,7.57 26.24,7.78 26.21,7.99 26.12,8.18 26.02,8.37 25.87,8.52 25.72,8.67 25.53,8.77 25.34,8.86 25.13,8.89 24.92,8.92 24.71,8.88 24.50,8.84 24.32,8.73 24.13,8.63 23.99,8.47 23.85,8.31 23.76,8.11 23.68,7.92 23.66,7.71 23.65,7.50 23.70,7.29 23.75,7.08 23.87,6.90 23.98,6.73 24.15,6.59 24.31,6.46 24.51,6.39 24.71,6.31 24.92,6.31 25.14,6.30 25.34,6.37 25.54,6.43 25.72,6.55 25.89,6.68 26.01,6.85 26.13,7.02 26.20,7.23 26.26,7.43 26.25,7.64 26.25,7.86 26.17,8.05 26.10,8.25 25.96,8.42 25.83,8.58 25.65,8.70 25.47,8.81 25.47,8.81 25.47,8.81 23.83,9.51 22.19,10.22 18.37,12.26 14.54,14.30 11.09,15.80 7.63,17.29 4.02,17.15 0.40,17.01 -2.05,15.47 -4.51,13.93 -5.32,11.66 -6.14,9.39 -5.82,7.25 -5.51,5.12 -3.36,2.31 -1.21,-0.48 -1.14,-0.62 -1.06,-0.76 -0.96,-0.88 -0.85,-0.99 -0.72,-1.08 -0.58,-1.17 -0.44,-1.22 -0.29,-1.28 -0.13,-1.29 0.02,-1.31 0.18,-1.29 0.33,-1.26 0.48,-1.21 0.63,-1.15 0.75,-1.05 0.88,-0.96 0.99,-0.84 1.09,-0.72 1.16,-0.58 1.23,-0.44 1.27,-0.28 1.30,-0.13 1.30,0.02 1.30,0.18 1.26,0.33 1.21,0.48 1.21,0.48 L 1.21,0.48 Z"/></g><g transform="translate(143.644287109375 62.58135986328125) rotate(0 -2.19085693359375 9.8590087890625)" stroke="none"><path fill="#1e1e1e" d="M 0.75,1.07 Q 0.75,1.07 -1.85,4.05 -4.45,7.02 -5.89,8.40 -7.33,9.79 -7.67,10.86 -8.01,11.94 -6.94,13.37 -5.86,14.80 -3.77,14.79 -1.67,14.78 0.04,14.46 1.76,14.14 2.26,13.05 2.76,11.96 1.57,10.99 0.37,10.01 -0.71,9.73 -1.79,9.44 -2.94,9.21 -4.09,8.98 -4.22,9.15 -4.36,9.31 -4.53,9.43 -4.71,9.54 -4.92,9.59 -5.13,9.64 -5.34,9.63 -5.55,9.61 -5.74,9.53 -5.94,9.44 -6.10,9.30 -6.26,9.16 -6.36,8.97 -6.47,8.79 -6.51,8.58 -6.55,8.37 -6.52,8.16 -6.49,7.95 -6.40,7.76 -6.30,7.57 -6.15,7.42 -6.00,7.27 -5.81,7.17 -5.62,7.08 -5.41,7.05 -5.20,7.02 -4.99,7.06 -4.78,7.10 -4.60,7.21 -4.41,7.31 -4.27,7.47 -4.13,7.63 -4.04,7.82 -3.96,8.02 -3.94,8.23 -3.92,8.44 -3.98,8.65 -4.03,8.85 -4.14,9.03 -4.26,9.21 -4.42,9.34 -4.59,9.48 -4.79,9.55 -4.98,9.62 -5.20,9.63 -5.41,9.64 -5.61,9.57 -5.82,9.51 -5.99,9.39 -6.16,9.26 -6.29,9.09 -6.41,8.92 -6.47,8.72 -6.53,8.51 -6.53,8.30 -6.52,8.09 -6.45,7.89 -6.38,7.69 -6.38,7.69 -6.38,7.69 -3.18,5.34 0.02,2.98 2.18,3.69 4.34,4.39 6.39,6.40 8.45,8.41 8.48,11.80 8.51,15.18 6.27,17.64 4.03,20.10 0.79,20.72 -2.44,21.33 -6.10,20.56 -9.76,19.79 -11.87,17.23 -13.99,14.66 -14.00,12.12 -14.01,9.58 -12.94,7.43 -11.87,5.29 -10.00,3.54 -8.13,1.78 -4.44,0.35 -0.75,-1.07 -0.61,-1.15 -0.47,-1.22 -0.32,-1.26 -0.16,-1.30 -0.00,-1.30 0.14,-1.30 0.30,-1.26 0.45,-1.23 0.59,-1.15 0.73,-1.08 0.85,-0.98 0.97,-0.87 1.06,-0.74 1.15,-0.61 1.21,-0.47 1.27,-0.32 1.29,-0.16 1.31,-0.00 1.29,0.14 1.27,0.30 1.22,0.45 1.16,0.60 1.07,0.73 0.98,0.86 0.87,0.97 0.75,1.07 0.75,1.07 L 0.75,1.07 Z"/></g><g transform="translate(160.07598876953125 61.485931396484375) rotate(0 7.120391845703125 9.8590087890625)" stroke="none"><path fill="#1e1e1e" d="M 0.82,-1.02 Q 0.82,-1.02 3.01,-0.54 5.21,-0.06 7.58,2.11 9.94,4.28 11.23,5.50 12.52,6.73 14.00,9.02 15.48,11.32 15.56,13.58 15.64,15.85 14.95,17.44 14.25,19.03 12.16,20.30 10.07,21.57 7.82,21.71 5.58,21.84 3.78,19.41 1.99,16.98 1.86,16.81 1.74,16.64 1.68,16.43 1.61,16.23 1.61,16.02 1.62,15.81 1.69,15.61 1.76,15.41 1.89,15.24 2.03,15.07 2.20,14.96 2.38,14.84 2.59,14.79 2.79,14.74 3.00,14.75 3.22,14.77 3.41,14.85 3.61,14.93 3.77,15.07 3.93,15.21 4.03,15.40 4.14,15.58 4.18,15.79 4.22,16.00 4.20,16.21 4.17,16.42 4.08,16.61 3.98,16.80 3.83,16.95 3.69,17.10 3.50,17.20 3.31,17.30 3.10,17.33 2.89,17.36 2.68,17.32 2.47,17.28 2.28,17.18 2.10,17.07 1.95,16.92 1.81,16.76 1.72,16.57 1.64,16.37 1.62,16.16 1.60,15.95 1.65,15.74 1.70,15.53 1.81,15.35 1.93,15.17 2.09,15.04 2.25,14.91 2.45,14.83 2.65,14.76 2.86,14.75 3.08,14.74 3.28,14.80 3.48,14.86 3.66,14.98 3.83,15.11 3.83,15.11 3.83,15.11 5.54,15.45 7.26,15.79 8.39,14.94 9.53,14.10 8.68,12.84 7.82,11.59 6.57,10.39 5.32,9.19 3.20,7.14 1.08,5.09 0.13,3.06 -0.82,1.02 -0.93,0.91 -1.04,0.79 -1.12,0.66 -1.20,0.52 -1.24,0.37 -1.29,0.22 -1.30,0.06 -1.31,-0.09 -1.27,-0.24 -1.24,-0.40 -1.18,-0.54 -1.11,-0.69 -1.01,-0.81 -0.91,-0.93 -0.79,-1.03 -0.66,-1.13 -0.52,-1.19 -0.37,-1.25 -0.22,-1.28 -0.06,-1.31 0.09,-1.30 0.24,-1.28 0.40,-1.24 0.55,-1.19 0.68,-1.10 0.82,-1.02 0.82,-1.02 L 0.82,-1.02 Z"/></g><g transform="translate(175.4122314453125 15.47723388671875) rotate(0 9.8590087890625 9.859001159667969)" stroke="none"><path fill="#1e1e1e" d="M -0.84,-1.00 Q -0.84,-1.00 0.44,-3.32 1.73,-5.64 3.88,-6.52 6.03,-7.39 7.87,-7.00 9.71,-6.62 11.06,-5.18 12.41,-3.75 12.67,-2.01 12.93,-0.27 13.07,0.92 13.21,2.12 15.02,2.33 16.84,2.54 18.26,3.58 19.68,4.61 20.69,6.66 21.70,8.71 21.78,11.21 21.86,13.71 21.15,16.22 20.43,18.74 18.96,20.99 17.49,23.24 14.81,24.05 12.13,24.85 8.57,25.52 5.00,26.19 4.79,26.19 4.58,26.20 4.37,26.14 4.17,26.08 4.00,25.96 3.82,25.83 3.70,25.66 3.57,25.49 3.51,25.29 3.45,25.08 3.45,24.87 3.45,24.66 3.53,24.46 3.60,24.26 3.73,24.09 3.86,23.93 4.04,23.81 4.22,23.70 4.42,23.64 4.63,23.59 4.84,23.61 5.05,23.62 5.25,23.70 5.45,23.79 5.60,23.93 5.76,24.07 5.87,24.25 5.98,24.44 6.02,24.65 6.06,24.85 6.03,25.07 6.00,25.28 5.91,25.47 5.82,25.66 5.67,25.81 5.52,25.96 5.33,26.06 5.14,26.15 4.93,26.18 4.72,26.21 4.51,26.17 4.30,26.13 4.12,26.03 3.93,25.93 3.79,25.77 3.64,25.61 3.56,25.42 3.47,25.22 3.45,25.01 3.44,24.80 3.49,24.59 3.54,24.39 3.65,24.21 3.76,24.03 3.93,23.89 4.09,23.76 4.29,23.69 4.49,23.61 4.49,23.61 4.49,23.61 7.57,22.96 10.64,22.30 11.53,20.92 12.41,19.55 13.38,18.15 14.35,16.75 14.94,15.11 15.53,13.47 15.71,12.14 15.90,10.81 14.82,9.39 13.74,7.98 11.62,7.28 9.50,6.58 8.63,5.49 7.76,4.40 7.34,3.11 6.92,1.82 6.37,0.58 5.82,-0.65 3.33,0.17 0.84,1.00 0.70,1.09 0.57,1.18 0.42,1.23 0.27,1.28 0.11,1.29 -0.03,1.31 -0.19,1.28 -0.35,1.26 -0.49,1.20 -0.64,1.14 -0.77,1.05 -0.90,0.95 -1.00,0.83 -1.10,0.71 -1.17,0.57 -1.24,0.42 -1.27,0.27 -1.30,0.11 -1.30,-0.03 -1.29,-0.19 -1.25,-0.35 -1.21,-0.50 -1.13,-0.64 -1.05,-0.77 -0.94,-0.89 -0.84,-1.00 -0.84,-1.00 L -0.84,-1.00 Z"/></g><g transform="translate(203.893798828125 57.104156494140625) rotate(0 12.049896240234375 5.4772186279296875)" stroke="none"><path fill="#1e1e1e" d="M 0.51,-1.20 Q 0.51,-1.20 5.34,-0.28 10.16,0.62 13.74,2.36 17.31,4.10 20.32,6.56 23.33,9.02 23.50,9.16 23.67,9.29 23.78,9.47 23.90,9.64 23.95,9.85 24.00,10.05 23.99,10.27 23.97,10.48 23.89,10.67 23.81,10.87 23.67,11.03 23.52,11.19 23.34,11.29 23.16,11.40 22.95,11.44 22.74,11.48 22.53,11.46 22.32,11.43 22.13,11.34 21.94,11.24 21.78,11.09 21.63,10.94 21.54,10.76 21.44,10.57 21.41,10.36 21.38,10.15 21.42,9.94 21.46,9.73 21.56,9.54 21.66,9.36 21.82,9.21 21.98,9.07 22.17,8.98 22.37,8.90 22.58,8.88 22.79,8.86 23.00,8.91 23.20,8.96 23.38,9.07 23.56,9.19 23.70,9.35 23.83,9.52 23.91,9.72 23.98,9.91 23.99,10.13 24.00,10.34 23.94,10.54 23.87,10.75 23.75,10.92 23.63,11.09 23.46,11.22 23.29,11.34 23.08,11.41 22.88,11.47 22.67,11.47 22.46,11.46 22.26,11.39 22.06,11.32 22.06,11.32 22.06,11.32 18.71,10.25 15.37,9.18 11.42,8.05 7.46,6.92 3.47,4.06 -0.51,1.20 -0.65,1.12 -0.79,1.04 -0.90,0.93 -1.01,0.82 -1.10,0.69 -1.18,0.56 -1.23,0.41 -1.28,0.25 -1.29,0.10 -1.31,-0.05 -1.28,-0.21 -1.26,-0.36 -1.19,-0.51 -1.13,-0.65 -1.04,-0.78 -0.94,-0.91 -0.82,-1.01 -0.69,-1.11 -0.55,-1.17 -0.41,-1.24 -0.25,-1.27 -0.10,-1.30 0.05,-1.30 0.21,-1.29 0.36,-1.25 0.51,-1.20 0.51,-1.20 L 0.51,-1.20 Z"/></g><g transform="translate(230.1844482421875 53.81781005859375) rotate(0 -9.858978271484375 9.8590087890625)" stroke="none"><path fill="#1e1e1e" d="M 0.82,1.02 Q 0.82,1.02 -1.72,4.29 -4.27,7.57 -6.20,9.21 -8.14,10.85 -10.36,12.60 -12.58,14.34 -15.14,16.75 -17.69,19.16 -17.84,19.31 -17.99,19.46 -18.19,19.56 -18.38,19.65 -18.59,19.68 -18.80,19.70 -19.01,19.66 -19.21,19.62 -19.40,19.52 -19.58,19.41 -19.73,19.25 -19.87,19.10 -19.95,18.90 -20.03,18.70 -20.05,18.49 -20.07,18.28 -20.01,18.08 -19.96,17.87 -19.85,17.69 -19.73,17.51 -19.57,17.38 -19.40,17.25 -19.20,17.17 -19.00,17.10 -18.79,17.10 -18.58,17.09 -18.37,17.15 -18.17,17.22 -18.00,17.34 -17.83,17.47 -17.70,17.64 -17.58,17.81 -17.52,18.02 -17.46,18.22 -17.46,18.43 -17.47,18.64 -17.54,18.84 -17.62,19.04 -17.75,19.21 -17.88,19.37 -18.06,19.49 -18.24,19.60 -18.45,19.65 -18.66,19.70 -18.87,19.68 -19.08,19.67 -19.27,19.58 -19.47,19.50 -19.63,19.35 -19.78,19.21 -19.89,19.03 -19.99,18.84 -20.03,18.63 -20.07,18.42 -20.04,18.21 -20.01,18.00 -19.92,17.81 -19.82,17.62 -19.82,17.62 -19.82,17.62 -18.04,14.04 -16.27,10.47 -14.29,8.24 -12.32,6.02 -10.32,4.26 -8.32,2.50 -4.57,0.73 -0.82,-1.02 -0.68,-1.10 -0.55,-1.19 -0.40,-1.24 -0.24,-1.28 -0.09,-1.30 0.06,-1.31 0.22,-1.28 0.37,-1.25 0.52,-1.19 0.66,-1.13 0.79,-1.03 0.91,-0.93 1.01,-0.81 1.11,-0.69 1.18,-0.54 1.24,-0.40 1.27,-0.24 1.31,-0.09 1.30,0.06 1.29,0.22 1.24,0.37 1.20,0.52 1.12,0.66 1.04,0.79 0.93,0.91 0.82,1.02 0.82,1.02 L 0.82,1.02 Z"/></g><g transform="translate(28.62255859375 229.08901977539062) rotate(0 4.3817901611328125 39.98374938964844)" stroke="none"><path fill="#1e1e1e" d="M 1.29,0.21 Q 1.29,0.21 1.61,4.15 1.94,8.09 1.67,10.13 1.40,12.18 1.96,13.15 2.52,14.12 5.52,13.82 8.52,13.53 10.29,12.86 12.07,12.20 13.02,11.18 13.97,10.17 14.36,7.91 14.75,5.66 14.88,4.39 15.01,3.12 15.12,2.71 15.23,2.30 15.43,1.92 15.64,1.55 15.92,1.24 16.21,0.92 16.57,0.69 16.92,0.45 17.32,0.31 17.72,0.16 18.14,0.12 18.57,0.07 18.99,0.13 19.41,0.19 19.81,0.35 20.20,0.51 20.55,0.75 20.89,1.00 21.17,1.33 21.45,1.65 21.64,2.03 21.83,2.41 21.93,2.82 22.02,3.24 22.01,3.67 22.01,4.09 22.14,7.26 22.27,10.42 21.97,13.90 21.67,17.38 21.23,22.85 20.79,28.32 20.60,33.41 20.42,38.50 20.34,44.12 20.26,49.74 19.91,55.69 19.55,61.65 19.06,65.85 18.57,70.05 16.91,73.67 15.24,77.28 13.06,79.19 10.87,81.10 7.34,81.65 3.81,82.19 0.59,80.83 -2.63,79.48 -5.03,77.00 -7.44,74.53 -9.05,71.66 -10.65,68.78 -10.74,65.76 -10.83,62.74 -8.74,58.60 -6.65,54.46 -6.03,52.84 -5.42,51.22 -5.31,51.04 -5.20,50.85 -5.05,50.71 -4.89,50.57 -4.69,50.49 -4.49,50.41 -4.28,50.39 -4.07,50.38 -3.86,50.43 -3.66,50.48 -3.48,50.60 -3.30,50.72 -3.17,50.88 -3.04,51.05 -2.97,51.25 -2.90,51.45 -2.89,51.66 -2.89,51.88 -2.95,52.08 -3.02,52.28 -3.14,52.45 -3.27,52.62 -3.44,52.75 -3.62,52.87 -3.82,52.93 -4.03,52.99 -4.24,52.98 -4.45,52.97 -4.65,52.90 -4.85,52.82 -5.01,52.69 -5.18,52.55 -5.29,52.37 -5.40,52.19 -5.45,51.99 -5.50,51.78 -5.48,51.57 -5.46,51.36 -5.37,51.16 -5.29,50.97 -5.15,50.81 -5.00,50.65 -4.82,50.55 -4.63,50.45 -4.42,50.41 -4.21,50.37 -4.00,50.40 -3.79,50.43 -3.60,50.53 -3.41,50.63 -3.26,50.78 -3.11,50.93 -3.02,51.12 -2.93,51.31 -2.90,51.52 -2.88,51.74 -2.92,51.94 -2.96,52.15 -2.96,52.15 -2.96,52.15 -3.58,53.77 -4.19,55.39 -4.99,58.88 -5.79,62.37 -5.27,63.95 -4.75,65.53 -3.45,67.57 -2.14,69.61 -0.67,71.27 0.80,72.93 2.27,73.91 3.74,74.88 5.31,74.97 6.88,75.06 7.83,74.44 8.77,73.81 10.02,71.44 11.27,69.08 11.71,65.14 12.14,61.20 12.49,55.42 12.83,49.63 12.91,43.93 12.99,38.23 13.19,32.97 13.38,27.72 13.84,22.20 14.29,16.69 14.61,13.57 14.92,10.46 14.96,7.95 14.99,5.44 15.00,4.28 15.01,3.12 15.12,2.71 15.23,2.30 15.43,1.92 15.64,1.55 15.92,1.24 16.21,0.92 16.57,0.69 16.92,0.45 17.32,0.31 17.72,0.16 18.14,0.12 18.57,0.07 18.99,0.13 19.41,0.19 19.81,0.35 20.20,0.51 20.55,0.75 20.89,1.00 21.17,1.33 21.45,1.65 21.64,2.03 21.83,2.41 21.93,2.82 22.02,3.24 22.01,3.66 22.01,4.09 21.90,4.31 21.79,4.53 21.53,6.00 21.27,7.46 20.89,8.78 20.50,10.10 20.01,11.98 19.52,13.86 18.64,14.97 17.76,16.09 16.06,17.29 14.36,18.49 11.79,19.33 9.22,20.18 5.55,20.31 1.88,20.45 -0.45,18.98 -2.79,17.51 -3.89,14.69 -4.99,11.87 -4.72,9.45 -4.46,7.02 -2.87,3.40 -1.29,-0.21 -1.25,-0.36 -1.20,-0.51 -1.12,-0.65 -1.04,-0.79 -0.93,-0.90 -0.82,-1.02 -0.69,-1.10 -0.55,-1.18 -0.40,-1.23 -0.25,-1.28 -0.09,-1.29 0.05,-1.31 0.21,-1.28 0.37,-1.25 0.51,-1.19 0.66,-1.13 0.78,-1.03 0.91,-0.94 1.01,-0.82 1.11,-0.69 1.18,-0.55 1.24,-0.41 1.27,-0.25 1.30,-0.10 1.30,0.05 1.29,0.21 1.29,0.21 L 1.29,0.21 Z"/></g><g transform="translate(74.63125610351562 174.3167724609375) rotate(0 3.286346435546875 17.527130126953125)" stroke="none"><path fill="#1e1e1e" d="M 1.17,-0.58 Q 1.17,-0.58 3.39,1.45 5.60,3.49 6.84,6.60 8.07,9.71 8.60,13.90 9.12,18.08 9.08,21.38 9.04,24.69 8.80,26.72 8.55,28.75 7.75,31.44 6.94,34.13 6.88,34.33 6.81,34.53 6.68,34.70 6.56,34.87 6.38,34.99 6.21,35.11 6.00,35.17 5.80,35.23 5.59,35.22 5.38,35.21 5.18,35.13 4.98,35.06 4.82,34.92 4.65,34.79 4.54,34.60 4.43,34.42 4.38,34.22 4.34,34.01 4.36,33.80 4.38,33.59 4.47,33.39 4.55,33.20 4.70,33.04 4.84,32.89 5.03,32.79 5.22,32.69 5.43,32.65 5.63,32.61 5.84,32.65 6.05,32.68 6.24,32.78 6.43,32.87 6.58,33.03 6.73,33.18 6.82,33.37 6.91,33.56 6.93,33.78 6.96,33.99 6.91,34.19 6.87,34.40 6.76,34.59 6.65,34.77 6.49,34.91 6.33,35.05 6.14,35.13 5.94,35.21 5.73,35.22 5.52,35.23 5.31,35.18 5.10,35.12 4.93,35.01 4.75,34.89 4.62,34.72 4.49,34.55 4.42,34.35 4.35,34.15 4.35,33.94 4.35,33.73 4.35,33.73 4.35,33.73 4.33,31.32 4.32,28.92 3.90,26.99 3.47,25.06 3.01,22.00 2.55,18.94 2.09,15.57 1.62,12.20 0.52,9.39 -0.56,6.58 -0.87,3.58 -1.17,0.58 -1.22,0.43 -1.28,0.28 -1.29,0.13 -1.31,-0.02 -1.29,-0.18 -1.26,-0.33 -1.20,-0.48 -1.15,-0.63 -1.05,-0.76 -0.96,-0.89 -0.84,-0.99 -0.72,-1.09 -0.58,-1.16 -0.44,-1.23 -0.28,-1.27 -0.13,-1.30 0.02,-1.30 0.18,-1.30 0.33,-1.25 0.48,-1.21 0.62,-1.14 0.76,-1.06 0.88,-0.95 1.00,-0.85 1.08,-0.71 1.17,-0.58 1.17,-0.58 L 1.17,-0.58 Z"/></g><g transform="translate(94.34927368164062 222.516357421875) rotate(0 8.215835571289062 0.5477294921875)" stroke="none"><path fill="#1e1e1e" d="M 0.16,-1.30 Q 0.16,-1.30 2.81,-2.09 5.46,-2.88 7.77,-3.08 10.08,-3.27 11.55,-3.25 13.02,-3.24 15.00,-1.68 16.98,-0.13 17.12,0.01 17.27,0.17 17.36,0.36 17.45,0.55 17.47,0.76 17.49,0.98 17.44,1.18 17.40,1.39 17.29,1.57 17.18,1.75 17.02,1.89 16.85,2.03 16.66,2.11 16.46,2.18 16.25,2.20 16.03,2.21 15.83,2.15 15.62,2.09 15.45,1.97 15.27,1.85 15.15,1.68 15.02,1.51 14.95,1.31 14.88,1.11 14.88,0.90 14.88,0.69 14.95,0.48 15.02,0.28 15.15,0.11 15.28,-0.04 15.45,-0.16 15.63,-0.28 15.84,-0.34 16.04,-0.39 16.25,-0.38 16.47,-0.37 16.66,-0.29 16.86,-0.21 17.02,-0.07 17.18,0.05 17.29,0.24 17.40,0.42 17.45,0.63 17.49,0.83 17.47,1.05 17.44,1.26 17.35,1.45 17.26,1.64 17.12,1.80 16.97,1.95 16.78,2.05 16.59,2.15 16.39,2.18 16.18,2.21 15.97,2.18 15.76,2.14 15.57,2.04 15.38,1.94 15.38,1.94 15.38,1.94 14.38,2.70 13.38,3.46 11.98,3.63 10.57,3.80 7.59,3.97 4.61,4.14 2.22,2.72 -0.16,1.30 -0.31,1.26 -0.47,1.22 -0.60,1.15 -0.74,1.07 -0.86,0.97 -0.98,0.86 -1.07,0.73 -1.16,0.60 -1.22,0.45 -1.27,0.30 -1.29,0.15 -1.31,-0.00 -1.29,-0.16 -1.27,-0.31 -1.21,-0.46 -1.16,-0.61 -1.07,-0.74 -0.97,-0.87 -0.86,-0.97 -0.74,-1.08 -0.60,-1.15 -0.46,-1.22 -0.30,-1.26 -0.15,-1.30 0.00,-1.30 0.16,-1.30 0.16,-1.30 L 0.16,-1.30 Z"/></g><g transform="translate(92.15838623046875 242.234375) rotate(0 6.0249481201171875 -0.5477142333984375)" stroke="none"><path fill="#1e1e1e" d="M 0.21,-1.29 Q 0.21,-1.29 2.30,-2.18 4.39,-3.07 5.85,-2.70 7.31,-2.33 8.89,-2.50 10.47,-2.67 10.66,-2.77 10.85,-2.86 11.06,-2.89 11.28,-2.92 11.48,-2.88 11.69,-2.84 11.88,-2.74 12.06,-2.63 12.20,-2.47 12.35,-2.32 12.43,-2.12 12.51,-1.92 12.53,-1.71 12.55,-1.50 12.50,-1.30 12.45,-1.09 12.33,-0.91 12.22,-0.73 12.05,-0.60 11.89,-0.46 11.69,-0.39 11.49,-0.32 11.28,-0.31 11.06,-0.31 10.86,-0.37 10.66,-0.43 10.48,-0.55 10.31,-0.68 10.19,-0.85 10.06,-1.02 10.00,-1.23 9.94,-1.43 9.94,-1.64 9.95,-1.85 10.02,-2.05 10.10,-2.25 10.23,-2.42 10.36,-2.58 10.54,-2.70 10.72,-2.81 10.93,-2.87 11.13,-2.92 11.35,-2.90 11.56,-2.88 11.75,-2.80 11.95,-2.71 12.11,-2.57 12.26,-2.43 12.37,-2.25 12.47,-2.06 12.51,-1.85 12.55,-1.64 12.52,-1.43 12.50,-1.22 12.40,-1.03 12.31,-0.84 12.16,-0.69 12.01,-0.54 12.01,-0.54 12.01,-0.54 9.94,1.90 7.87,4.35 6.72,4.49 5.56,4.62 4.36,4.47 3.16,4.32 1.47,2.81 -0.21,1.29 -0.36,1.25 -0.51,1.20 -0.65,1.12 -0.79,1.04 -0.90,0.93 -1.02,0.82 -1.10,0.69 -1.18,0.55 -1.23,0.40 -1.28,0.25 -1.29,0.09 -1.31,-0.05 -1.28,-0.21 -1.25,-0.37 -1.19,-0.51 -1.13,-0.66 -1.03,-0.78 -0.94,-0.91 -0.82,-1.01 -0.69,-1.11 -0.55,-1.18 -0.41,-1.24 -0.25,-1.27 -0.10,-1.30 0.05,-1.30 0.21,-1.29 0.21,-1.29 L 0.21,-1.29 Z"/></g><g transform="translate(137.0716552734375 212.6573486328125) rotate(0 18.62255859375 9.859024047851562)" stroke="none"><path fill="#1e1e1e" d="M -1.17,-0.58 Q -1.17,-0.58 -1.12,-2.94 -1.07,-5.30 0.82,-7.47 2.72,-9.63 4.09,-11.05 5.46,-12.46 7.80,-13.70 10.14,-14.94 13.07,-15.08 16.01,-15.22 18.15,-13.87 20.30,-12.52 21.29,-10.17 22.28,-7.82 22.54,-6.26 22.81,-4.70 22.96,-2.61 23.12,-0.52 23.14,-0.41 23.16,-0.29 23.12,0.11 23.09,0.53 22.95,0.93 22.82,1.32 22.60,1.68 22.37,2.03 22.07,2.32 21.77,2.61 21.41,2.82 21.04,3.02 20.64,3.14 20.24,3.26 19.82,3.27 19.40,3.29 18.99,3.20 18.58,3.12 18.21,2.94 17.83,2.76 17.50,2.49 17.18,2.23 16.93,1.89 16.68,1.56 16.52,1.17 16.35,0.79 16.29,0.38 16.22,-0.03 17.92,-1.97 19.61,-3.92 20.92,-4.39 22.23,-4.86 23.70,-5.38 25.18,-5.90 26.82,-6.18 28.46,-6.45 30.74,-5.84 33.02,-5.22 34.78,-4.02 36.54,-2.81 37.95,0.13 39.36,3.08 39.82,6.34 40.29,9.59 40.14,11.81 39.98,14.03 39.23,17.03 38.47,20.02 36.04,23.89 33.60,27.76 31.03,29.89 28.46,32.02 26.30,33.19 24.15,34.35 21.56,34.78 18.98,35.20 17.01,34.33 15.05,33.46 14.22,31.58 13.38,29.70 13.32,29.49 13.25,29.29 13.26,29.08 13.26,28.87 13.33,28.67 13.40,28.47 13.54,28.30 13.67,28.13 13.85,28.02 14.02,27.90 14.23,27.85 14.44,27.80 14.65,27.81 14.86,27.83 15.06,27.91 15.25,27.99 15.41,28.13 15.57,28.27 15.68,28.46 15.78,28.64 15.82,28.85 15.87,29.06 15.84,29.27 15.81,29.48 15.72,29.67 15.63,29.86 15.48,30.01 15.33,30.16 15.14,30.26 14.95,30.36 14.74,30.39 14.53,30.42 14.32,30.38 14.11,30.34 13.92,30.24 13.74,30.13 13.60,29.98 13.45,29.82 13.37,29.63 13.28,29.43 13.26,29.22 13.24,29.01 13.29,28.80 13.34,28.59 13.46,28.41 13.57,28.23 13.73,28.10 13.90,27.97 14.10,27.89 14.30,27.82 14.51,27.81 14.72,27.80 14.92,27.86 15.13,27.92 15.30,28.04 15.47,28.17 15.60,28.34 15.73,28.51 15.73,28.51 15.72,28.51 16.75,28.85 17.77,29.19 19.30,28.72 20.82,28.25 22.42,27.32 24.01,26.38 25.82,25.04 27.63,23.70 29.56,20.89 31.50,18.08 32.14,15.73 32.78,13.38 32.95,11.92 33.12,10.46 32.87,8.02 32.61,5.58 31.57,3.51 30.52,1.44 28.99,1.12 27.45,0.80 26.00,1.27 24.56,1.75 23.44,2.13 22.32,2.52 22.74,1.11 23.16,-0.29 23.12,0.11 23.09,0.53 22.95,0.93 22.82,1.32 22.60,1.68 22.37,2.03 22.07,2.32 21.77,2.61 21.41,2.82 21.04,3.02 20.64,3.14 20.24,3.26 19.82,3.27 19.40,3.29 18.99,3.20 18.58,3.12 18.21,2.94 17.83,2.76 17.51,2.49 17.18,2.23 16.93,1.89 16.68,1.56 16.52,1.17 16.35,0.79 16.29,0.38 16.22,-0.03 16.21,-0.14 16.19,-0.25 16.09,-1.93 15.99,-3.61 15.83,-4.71 15.67,-5.81 15.44,-7.24 15.21,-8.67 14.07,-8.68 12.93,-8.68 11.62,-8.12 10.30,-7.57 9.00,-6.24 7.69,-4.91 6.27,-3.58 4.85,-2.24 3.01,-0.83 1.17,0.58 1.08,0.71 0.99,0.85 0.88,0.95 0.76,1.06 0.62,1.14 0.48,1.21 0.33,1.25 0.18,1.30 0.02,1.30 -0.13,1.30 -0.28,1.27 -0.44,1.23 -0.58,1.16 -0.72,1.09 -0.84,0.99 -0.96,0.89 -1.05,0.76 -1.15,0.63 -1.20,0.48 -1.26,0.33 -1.29,0.18 -1.31,0.02 -1.29,-0.13 -1.28,-0.28 -1.22,-0.43 -1.17,-0.58 -1.17,-0.58 L -1.17,-0.58 Z"/></g><g transform="translate(190.74847412109375 229.08901977539062) rotate(0 12.049896240234375 7.668121337890625)" stroke="none"><path fill="#1e1e1e" d="M 1.31,0 Q 1.31,0 2.36,3.43 3.41,6.86 3.90,8.02 4.39,9.19 5.32,9.87 6.26,10.56 7.89,10.65 9.53,10.75 13.43,9.91 17.34,9.07 19.13,8.32 20.93,7.57 21.14,7.52 21.34,7.47 21.56,7.49 21.77,7.51 21.96,7.59 22.16,7.68 22.31,7.82 22.47,7.96 22.57,8.15 22.68,8.34 22.71,8.54 22.75,8.75 22.72,8.96 22.69,9.17 22.59,9.36 22.50,9.55 22.35,9.70 22.19,9.85 22.00,9.94 21.81,10.04 21.60,10.06 21.39,10.09 21.18,10.05 20.97,10.01 20.79,9.90 20.61,9.79 20.47,9.63 20.33,9.47 20.24,9.28 20.16,9.08 20.15,8.87 20.13,8.66 20.18,8.45 20.24,8.25 20.35,8.07 20.47,7.89 20.64,7.76 20.80,7.63 21.00,7.56 21.20,7.48 21.42,7.48 21.63,7.48 21.83,7.54 22.03,7.61 22.20,7.73 22.38,7.86 22.50,8.03 22.62,8.20 22.68,8.41 22.74,8.61 22.73,8.82 22.73,9.04 22.65,9.24 22.58,9.43 22.44,9.60 22.31,9.76 22.13,9.88 21.95,9.99 21.95,9.99 21.95,9.99 20.15,10.74 18.35,11.49 13.80,14.20 9.24,16.91 5.80,16.45 2.36,16.00 0.24,13.90 -1.87,11.81 -2.64,9.40 -3.41,6.99 -2.36,3.49 -1.31,0 -1.29,-0.15 -1.27,-0.31 -1.21,-0.46 -1.16,-0.61 -1.07,-0.74 -0.98,-0.87 -0.86,-0.97 -0.74,-1.08 -0.60,-1.15 -0.46,-1.22 -0.31,-1.26 -0.15,-1.30 0.00,-1.30 0.15,-1.30 0.31,-1.26 0.46,-1.22 0.60,-1.15 0.74,-1.08 0.86,-0.97 0.98,-0.87 1.07,-0.74 1.16,-0.61 1.21,-0.46 1.27,-0.31 1.29,-0.15 1.31,0.00 1.31,0.00 L 1.31,0 Z"/></g><g transform="translate(214.8482666015625 230.18447875976562) rotate(0 3.83404541015625 8.215835571289062)" stroke="none"><path fill="#1e1e1e" d="M 1.17,0.58 Q 1.17,0.58 0.45,4.14 -0.26,7.70 -0.49,9.09 -0.73,10.47 0.64,11.40 2.01,12.33 3.34,11.95 4.67,11.56 6.09,9.87 7.52,8.18 8.06,7.03 8.60,5.87 7.28,5.76 5.96,5.64 4.82,5.69 3.69,5.74 2.64,6.09 1.59,6.44 0.17,6.85 -1.23,7.26 -0.33,8.39 0.56,9.53 0.66,9.72 0.76,9.90 0.80,10.11 0.83,10.32 0.80,10.53 0.77,10.74 0.67,10.93 0.57,11.12 0.42,11.27 0.26,11.41 0.07,11.51 -0.11,11.60 -0.32,11.62 -0.53,11.65 -0.74,11.60 -0.95,11.56 -1.13,11.45 -1.31,11.34 -1.45,11.18 -1.59,11.02 -1.67,10.82 -1.75,10.63 -1.76,10.41 -1.78,10.20 -1.72,10.00 -1.67,9.79 -1.55,9.61 -1.43,9.44 -1.26,9.31 -1.09,9.18 -0.89,9.11 -0.69,9.04 -0.48,9.04 -0.27,9.04 -0.07,9.10 0.13,9.17 0.30,9.30 0.47,9.42 0.59,9.60 0.71,9.77 0.77,9.98 0.82,10.18 0.81,10.39 0.80,10.61 0.73,10.80 0.65,11.00 0.51,11.17 0.38,11.33 0.20,11.44 0.01,11.55 -0.18,11.60 -0.39,11.64 -0.60,11.62 -0.81,11.60 -1.01,11.51 -1.20,11.43 -1.36,11.28 -1.51,11.14 -1.51,11.14 -1.51,11.14 -2.77,9.48 -4.02,7.82 -3.89,6.00 -3.75,4.17 -2.34,2.36 -0.93,0.54 1.42,-0.30 3.78,-1.15 6.23,-0.96 8.67,-0.76 11.26,0.88 13.85,2.53 14.37,5.37 14.89,8.21 13.55,10.67 12.21,13.12 9.20,15.47 6.19,17.82 3.01,18.05 -0.16,18.29 -2.50,16.89 -4.83,15.49 -5.90,12.74 -6.98,9.99 -6.51,7.44 -6.03,4.89 -3.60,2.15 -1.17,-0.58 -1.08,-0.71 -0.99,-0.85 -0.88,-0.95 -0.76,-1.06 -0.62,-1.14 -0.48,-1.21 -0.33,-1.25 -0.18,-1.30 -0.02,-1.30 0.13,-1.30 0.28,-1.27 0.44,-1.23 0.58,-1.16 0.72,-1.09 0.84,-0.99 0.96,-0.89 1.05,-0.76 1.15,-0.63 1.20,-0.48 1.26,-0.33 1.29,-0.18 1.31,-0.02 1.29,0.13 1.28,0.28 1.22,0.43 1.17,0.58 1.17,0.58 L 1.17,0.58 Z"/></g><g transform="translate(238.94805908203125 232.3753662109375) rotate(0 6.572662353515625 9.311279296875)" stroke="none"><path fill="#1e1e1e" d="M 0.65,-1.14 Q 0.65,-1.14 3.36,-0.76 6.06,-0.38 8.04,0.80 10.01,1.99 11.87,4.09 13.72,6.20 14.59,8.25 15.46,10.29 14.91,12.70 14.37,15.11 11.69,16.90 9.01,18.69 7.76,19.40 6.52,20.10 4.20,19.41 1.89,18.71 0.61,16.17 -0.66,13.62 -0.73,13.42 -0.79,13.22 -0.79,13.01 -0.79,12.79 -0.72,12.59 -0.64,12.39 -0.51,12.23 -0.38,12.06 -0.20,11.94 -0.03,11.83 0.17,11.77 0.37,11.72 0.59,11.73 0.80,11.75 0.99,11.83 1.19,11.91 1.35,12.05 1.51,12.19 1.62,12.38 1.72,12.56 1.77,12.77 1.81,12.98 1.78,13.19 1.76,13.40 1.66,13.59 1.57,13.78 1.42,13.93 1.27,14.09 1.08,14.18 0.89,14.28 0.68,14.31 0.47,14.34 0.26,14.30 0.06,14.26 -0.12,14.16 -0.31,14.06 -0.45,13.90 -0.59,13.75 -0.68,13.55 -0.77,13.36 -0.79,13.15 -0.80,12.93 -0.76,12.73 -0.71,12.52 -0.59,12.34 -0.48,12.16 -0.32,12.03 -0.15,11.89 0.04,11.82 0.23,11.74 0.45,11.73 0.66,11.72 0.86,11.78 1.07,11.84 1.24,11.97 1.41,12.09 1.54,12.26 1.67,12.43 1.67,12.43 1.67,12.43 2.61,13.60 3.55,14.76 4.67,13.86 5.80,12.96 7.06,11.74 8.33,10.51 7.33,9.11 6.33,7.70 4.54,6.56 2.74,5.42 1.04,3.28 -0.65,1.14 -0.77,1.04 -0.90,0.95 -1.00,0.82 -1.10,0.70 -1.17,0.56 -1.24,0.42 -1.27,0.26 -1.30,0.11 -1.30,-0.04 -1.29,-0.20 -1.25,-0.35 -1.21,-0.50 -1.13,-0.64 -1.05,-0.78 -0.94,-0.89 -0.83,-1.01 -0.70,-1.09 -0.56,-1.18 -0.41,-1.23 -0.26,-1.28 -0.11,-1.29 0.04,-1.31 0.20,-1.28 0.35,-1.26 0.50,-1.20 0.65,-1.14 0.65,-1.14 L 0.65,-1.14 Z"/></g><g transform="translate(268.52508544921875 236.75714111328125) rotate(0 14.24078369140625 6.0249481201171875)" stroke="none"><path fill="#1e1e1e" d="M 0.66,-1.13 Q 0.66,-1.13 4.99,0.11 9.33,1.35 11.77,2.54 14.21,3.73 16.80,4.86 19.39,6.00 21.17,7.28 22.95,8.57 25.15,9.09 27.35,9.62 27.56,9.66 27.77,9.69 27.95,9.80 28.14,9.90 28.28,10.06 28.43,10.21 28.51,10.41 28.60,10.60 28.62,10.81 28.64,11.02 28.59,11.23 28.54,11.44 28.43,11.62 28.32,11.80 28.15,11.93 27.99,12.07 27.79,12.14 27.59,12.22 27.38,12.23 27.17,12.23 26.96,12.17 26.76,12.11 26.58,11.99 26.41,11.87 26.28,11.70 26.16,11.53 26.09,11.33 26.03,11.12 26.03,10.91 26.04,10.70 26.11,10.50 26.18,10.30 26.31,10.13 26.44,9.96 26.62,9.85 26.80,9.73 27.00,9.68 27.21,9.62 27.42,9.64 27.63,9.65 27.83,9.74 28.02,9.82 28.18,9.96 28.34,10.10 28.45,10.28 28.56,10.46 28.60,10.67 28.64,10.88 28.61,11.09 28.59,11.30 28.50,11.49 28.40,11.69 28.26,11.84 28.11,11.99 27.92,12.09 27.73,12.18 27.52,12.21 27.31,12.24 27.31,12.24 27.31,12.24 24.30,12.69 21.29,13.13 18.93,12.80 16.56,12.46 13.83,11.27 11.10,10.09 8.44,8.77 5.77,7.46 2.55,4.29 -0.66,1.13 -0.78,1.03 -0.91,0.94 -1.01,0.82 -1.11,0.69 -1.18,0.55 -1.24,0.41 -1.27,0.25 -1.30,0.09 -1.30,-0.05 -1.29,-0.21 -1.25,-0.36 -1.20,-0.52 -1.12,-0.65 -1.04,-0.79 -0.93,-0.90 -0.82,-1.02 -0.69,-1.10 -0.55,-1.18 -0.40,-1.23 -0.25,-1.28 -0.09,-1.29 0.05,-1.31 0.21,-1.28 0.37,-1.25 0.51,-1.19 0.66,-1.13 0.66,-1.13 L 0.66,-1.13 Z"/></g><g transform="translate(294.81573486328125 233.4708251953125) rotate(0 -9.8590087890625 8.215835571289062)" stroke="none"><path fill="#1e1e1e" d="M 0.71,1.10 Q 0.71,1.10 -3.15,4.78 -7.02,8.46 -9.16,9.93 -11.30,11.41 -13.16,12.90 -15.02,14.40 -16.58,15.44 -18.14,16.48 -18.29,16.63 -18.44,16.78 -18.63,16.88 -18.82,16.97 -19.03,17.00 -19.24,17.03 -19.45,16.99 -19.66,16.96 -19.84,16.85 -20.03,16.75 -20.17,16.59 -20.31,16.43 -20.40,16.24 -20.48,16.05 -20.50,15.83 -20.52,15.62 -20.47,15.42 -20.42,15.21 -20.31,15.03 -20.20,14.85 -20.03,14.72 -19.87,14.58 -19.67,14.51 -19.47,14.43 -19.26,14.42 -19.04,14.42 -18.84,14.48 -18.64,14.54 -18.46,14.66 -18.29,14.79 -18.16,14.96 -18.04,15.13 -17.98,15.33 -17.91,15.53 -17.92,15.75 -17.92,15.96 -17.99,16.16 -18.07,16.36 -18.20,16.53 -18.33,16.69 -18.51,16.81 -18.69,16.92 -18.89,16.98 -19.10,17.03 -19.31,17.01 -19.52,17.00 -19.72,16.91 -19.91,16.83 -20.07,16.69 -20.23,16.55 -20.34,16.36 -20.44,16.18 -20.48,15.97 -20.52,15.76 -20.50,15.55 -20.47,15.34 -20.38,15.15 -20.28,14.96 -20.28,14.96 -20.28,14.96 -19.57,12.80 -18.86,10.63 -16.97,8.31 -15.08,5.99 -12.85,4.43 -10.61,2.87 -5.66,0.88 -0.71,-1.10 -0.56,-1.17 -0.42,-1.24 -0.27,-1.27 -0.11,-1.30 0.04,-1.30 0.20,-1.29 0.35,-1.25 0.50,-1.21 0.64,-1.13 0.78,-1.05 0.89,-0.94 1.01,-0.83 1.09,-0.70 1.18,-0.57 1.23,-0.42 1.28,-0.27 1.29,-0.11 1.31,0.04 1.28,0.19 1.26,0.35 1.20,0.50 1.14,0.64 1.04,0.77 0.95,0.90 0.83,1.00 0.71,1.10 0.71,1.10 L 0.71,1.10 Z"/></g><g transform="translate(321.1064453125 238.94802856445312) rotate(0 0.547698974609375 -2.190887451171875)" stroke="none"><path fill="#1e1e1e" d="M -1.27,-0.31 Q -1.27,-0.31 -1.76,-1.12 -2.25,-1.93 -1.31,-1.35 -0.37,-0.78 -1.75,-1.01 -3.12,-1.24 -3.35,-1.55 -3.57,-1.87 -3.72,-2.22 -3.86,-2.58 -3.91,-2.96 -3.97,-3.34 -3.93,-3.72 -3.89,-4.11 -3.76,-4.47 -3.64,-4.83 -3.43,-5.15 -3.21,-5.47 -2.93,-5.73 -2.65,-6.00 -2.31,-6.18 -1.98,-6.37 -1.61,-6.47 -1.23,-6.57 -0.85,-6.58 -0.46,-6.59 -0.09,-6.50 0.28,-6.42 0.62,-6.25 0.97,-6.08 1.26,-5.83 1.55,-5.58 1.52,-3.17 1.49,-0.76 1.41,-0.56 1.34,-0.36 1.20,-0.20 1.07,-0.03 0.89,0.07 0.71,0.18 0.50,0.23 0.30,0.28 0.08,0.26 -0.12,0.24 -0.31,0.16 -0.51,0.07 -0.66,-0.06 -0.82,-0.21 -0.92,-0.39 -1.02,-0.58 -1.06,-0.79 -1.10,-1.00 -1.07,-1.21 -1.04,-1.42 -0.94,-1.61 -0.85,-1.80 -0.69,-1.95 -0.54,-2.09 -0.35,-2.19 -0.16,-2.28 0.04,-2.31 0.25,-2.33 0.46,-2.29 0.67,-2.25 0.85,-2.14 1.04,-2.04 1.18,-1.88 1.32,-1.72 1.40,-1.52 1.48,-1.32 1.50,-1.11 1.51,-0.90 1.46,-0.69 1.40,-0.49 1.29,-0.31 1.17,-0.13 1.00,-0.00 0.84,0.12 0.64,0.19 0.44,0.26 0.22,0.27 0.01,0.27 -0.18,0.20 -0.38,0.14 -0.55,0.01 -0.73,-0.10 -0.85,-0.28 -0.97,-0.45 -1.03,-0.65 -1.09,-0.86 -1.08,-1.07 -1.07,-1.28 -1.07,-1.28 -1.07,-1.28 -2.10,-1.26 -3.12,-1.24 -3.34,-1.55 -3.57,-1.86 -3.71,-2.22 -3.86,-2.58 -3.91,-2.96 -3.97,-3.34 -3.93,-3.72 -3.89,-4.10 -3.77,-4.47 -3.64,-4.83 -3.43,-5.15 -3.21,-5.47 -2.93,-5.73 -2.65,-6.00 -2.31,-6.18 -1.98,-6.37 -1.61,-6.47 -1.23,-6.57 -0.85,-6.58 -0.46,-6.59 -0.09,-6.50 0.28,-6.42 0.62,-6.25 0.96,-6.08 1.26,-5.83 1.55,-5.58 0.60,-5.99 -0.34,-6.39 1.58,-4.75 3.51,-3.10 2.39,-1.39 1.27,0.31 1.21,0.46 1.16,0.61 1.07,0.74 0.98,0.87 0.86,0.97 0.74,1.08 0.60,1.15 0.46,1.22 0.30,1.26 0.15,1.30 -0.00,1.30 -0.16,1.30 -0.31,1.26 -0.46,1.22 -0.60,1.15 -0.74,1.07 -0.86,0.97 -0.98,0.86 -1.07,0.73 -1.16,0.60 -1.22,0.45 -1.27,0.30 -1.29,0.15 -1.31,-0.00 -1.29,-0.16 -1.27,-0.31 -1.27,-0.31 L -1.27,-0.31 Z"/></g><g transform="translate(353.96978759765625 194.0347900390625) rotate(0 -3.83404541015625 26.838409423828125)" stroke="none"><path fill="#1e1e1e" d="M 1.17,0.58 Q 1.17,0.58 0.58,3.43 -0.00,6.28 -1.28,10.95 -2.56,15.62 -3.42,21.87 -4.27,28.12 -4.34,31.94 -4.41,35.76 -4.16,38.85 -3.91,41.95 -3.07,44.92 -2.24,47.89 -0.61,49.86 1.01,51.82 1.15,51.99 1.28,52.16 1.35,52.36 1.42,52.56 1.42,52.77 1.43,52.98 1.36,53.19 1.30,53.39 1.18,53.56 1.05,53.73 0.88,53.85 0.70,53.98 0.50,54.04 0.30,54.10 0.08,54.09 -0.12,54.08 -0.32,54.01 -0.52,53.93 -0.68,53.80 -0.85,53.66 -0.96,53.48 -1.07,53.30 -1.12,53.10 -1.17,52.89 -1.15,52.68 -1.13,52.47 -1.05,52.27 -0.96,52.08 -0.82,51.92 -0.68,51.76 -0.49,51.66 -0.30,51.56 -0.09,51.52 0.10,51.48 0.31,51.51 0.52,51.54 0.71,51.64 0.90,51.73 1.05,51.89 1.20,52.04 1.29,52.23 1.39,52.42 1.41,52.63 1.44,52.84 1.40,53.05 1.36,53.26 1.25,53.44 1.15,53.63 0.99,53.77 0.83,53.91 0.63,53.99 0.44,54.07 0.22,54.09 0.01,54.10 -0.18,54.05 -0.39,54.00 -0.57,53.88 -0.75,53.77 -0.75,53.77 -0.75,53.77 -3.48,51.76 -6.21,49.74 -8.13,46.15 -10.05,42.56 -10.36,39.09 -10.66,35.63 -10.56,31.43 -10.46,27.23 -9.42,20.54 -8.39,13.85 -6.71,8.82 -5.03,3.78 -3.10,1.60 -1.17,-0.58 -1.08,-0.71 -0.99,-0.85 -0.88,-0.95 -0.76,-1.06 -0.62,-1.14 -0.48,-1.21 -0.33,-1.25 -0.18,-1.30 -0.02,-1.30 0.13,-1.30 0.28,-1.27 0.44,-1.23 0.58,-1.16 0.72,-1.09 0.84,-0.99 0.96,-0.89 1.05,-0.76 1.15,-0.63 1.20,-0.48 1.26,-0.33 1.29,-0.18 1.31,-0.02 1.29,0.13 1.28,0.28 1.22,0.43 1.17,0.58 1.17,0.58 L 1.17,0.58 Z"/></g><g transform="translate(367.1151123046875 230.18447875976562) rotate(0 9.8590087890625 0.5477294921875)" stroke="none"><path fill="#1e1e1e" d="M 0,-1.31 Q 0,-1.31 4.09,-2.20 8.18,-3.09 10.87,-2.61 13.56,-2.12 16.19,-1.26 18.83,-0.39 19.03,-0.32 19.23,-0.25 19.40,-0.12 19.57,0.00 19.68,0.18 19.80,0.36 19.85,0.56 19.91,0.77 19.89,0.98 19.88,1.19 19.80,1.39 19.72,1.58 19.58,1.74 19.44,1.91 19.25,2.01 19.07,2.12 18.86,2.16 18.65,2.20 18.44,2.18 18.23,2.15 18.04,2.06 17.85,1.97 17.70,1.82 17.54,1.67 17.45,1.48 17.35,1.29 17.32,1.08 17.29,0.87 17.32,0.67 17.36,0.46 17.46,0.27 17.57,0.08 17.72,-0.05 17.88,-0.19 18.07,-0.28 18.27,-0.37 18.48,-0.39 18.69,-0.41 18.90,-0.36 19.10,-0.31 19.28,-0.20 19.46,-0.09 19.60,0.07 19.73,0.23 19.81,0.43 19.89,0.63 19.90,0.84 19.90,1.05 19.84,1.26 19.78,1.46 19.66,1.63 19.54,1.81 19.37,1.94 19.20,2.06 19.00,2.13 18.79,2.19 18.58,2.19 18.37,2.19 18.37,2.19 18.37,2.19 15.96,2.15 13.55,2.12 10.87,2.61 8.18,3.09 4.09,2.20 0,1.31 -0.15,1.29 -0.31,1.27 -0.46,1.21 -0.61,1.16 -0.74,1.07 -0.87,0.98 -0.97,0.86 -1.08,0.74 -1.15,0.60 -1.22,0.46 -1.26,0.31 -1.30,0.15 -1.30,-0.00 -1.30,-0.15 -1.26,-0.31 -1.22,-0.46 -1.15,-0.60 -1.08,-0.74 -0.97,-0.86 -0.87,-0.98 -0.74,-1.07 -0.61,-1.16 -0.46,-1.21 -0.31,-1.27 -0.15,-1.29 0.00,-1.31 0.00,-1.31 L 0,-1.31 Z"/></g><g transform="translate(398.883056640625 231.27993774414062) rotate(0 6.024932861328125 9.858993530273438)" stroke="none"><path fill="#1e1e1e" d="M 0.31,-1.27 Q 0.31,-1.27 3.10,-1.50 5.88,-1.73 8.48,0.07 11.07,1.87 12.69,4.60 14.31,7.33 14.66,9.80 15.01,12.27 14.61,14.06 14.21,15.85 12.35,17.62 10.48,19.38 8.08,20.15 5.68,20.93 2.72,19.97 -0.23,19.00 -0.43,18.93 -0.63,18.86 -0.80,18.73 -0.97,18.60 -1.08,18.43 -1.20,18.25 -1.26,18.05 -1.31,17.84 -1.30,17.63 -1.29,17.42 -1.21,17.22 -1.13,17.02 -0.99,16.86 -0.85,16.70 -0.67,16.59 -0.48,16.48 -0.27,16.44 -0.07,16.40 0.13,16.42 0.34,16.45 0.54,16.54 0.73,16.63 0.88,16.77 1.04,16.92 1.13,17.11 1.23,17.30 1.26,17.51 1.30,17.72 1.26,17.93 1.23,18.14 1.12,18.32 1.02,18.51 0.87,18.66 0.71,18.80 0.52,18.89 0.33,18.98 0.11,19.00 -0.09,19.02 -0.29,18.97 -0.50,18.92 -0.68,18.81 -0.86,18.70 -1.00,18.54 -1.14,18.38 -1.21,18.18 -1.29,17.98 -1.30,17.77 -1.31,17.56 -1.25,17.35 -1.19,17.15 -1.07,16.97 -0.95,16.80 -0.78,16.67 -0.61,16.54 -0.41,16.48 -0.21,16.41 -0.00,16.41 0.21,16.41 0.21,16.41 0.21,16.41 2.17,16.30 4.13,16.18 5.40,15.38 6.67,14.59 7.61,13.70 8.54,12.80 8.53,11.49 8.51,10.18 7.78,8.47 7.06,6.75 5.62,5.50 4.18,4.25 1.93,2.76 -0.31,1.27 -0.46,1.21 -0.61,1.16 -0.74,1.07 -0.87,0.98 -0.97,0.86 -1.08,0.74 -1.15,0.60 -1.22,0.46 -1.26,0.30 -1.30,0.15 -1.30,-0.00 -1.30,-0.16 -1.26,-0.31 -1.22,-0.46 -1.15,-0.60 -1.07,-0.74 -0.97,-0.86 -0.86,-0.98 -0.73,-1.07 -0.60,-1.16 -0.45,-1.22 -0.30,-1.27 -0.15,-1.29 0.00,-1.31 0.16,-1.29 0.31,-1.27 0.31,-1.27 L 0.31,-1.27 Z"/></g><g transform="translate(418.60101318359375 230.18447875976562) rotate(0 6.02496337890625 9.8590087890625)" stroke="none"><path fill="#1e1e1e" d="M 1.30,-0.17 Q 1.30,-0.17 2.82,4.42 4.34,9.03 3.79,10.92 3.23,12.82 6.74,12.98 10.26,13.13 10.47,13.14 10.68,13.15 10.88,13.23 11.08,13.30 11.24,13.44 11.41,13.57 11.52,13.75 11.63,13.93 11.68,14.14 11.73,14.35 11.71,14.56 11.69,14.77 11.60,14.96 11.52,15.16 11.37,15.31 11.23,15.47 11.04,15.57 10.86,15.68 10.65,15.71 10.44,15.75 10.23,15.72 10.02,15.69 9.83,15.59 9.64,15.49 9.49,15.34 9.34,15.19 9.25,15.00 9.16,14.81 9.13,14.60 9.11,14.38 9.15,14.18 9.19,13.97 9.30,13.78 9.41,13.60 9.57,13.46 9.73,13.32 9.92,13.24 10.12,13.16 10.33,13.14 10.54,13.13 10.75,13.18 10.95,13.24 11.13,13.35 11.31,13.47 11.44,13.64 11.57,13.80 11.64,14.01 11.71,14.21 11.72,14.42 11.72,14.63 11.65,14.83 11.59,15.04 11.46,15.21 11.34,15.38 11.16,15.50 10.99,15.62 10.78,15.68 10.58,15.74 10.58,15.74 10.58,15.74 6.73,16.81 2.87,17.88 0.52,13.87 -1.82,9.86 -1.56,5.01 -1.30,0.17 -1.30,0.01 -1.30,-0.14 -1.26,-0.29 -1.23,-0.45 -1.16,-0.59 -1.08,-0.73 -0.98,-0.85 -0.88,-0.97 -0.75,-1.06 -0.62,-1.15 -0.47,-1.21 -0.32,-1.27 -0.17,-1.29 -0.01,-1.31 0.14,-1.29 0.29,-1.27 0.44,-1.22 0.59,-1.16 0.72,-1.08 0.85,-0.99 0.96,-0.87 1.07,-0.75 1.14,-0.61 1.22,-0.47 1.26,-0.32 1.30,-0.17 1.30,-0.17 L 1.30,-0.17 Z"/></g><g transform="translate(426.2691650390625 207.18014526367188) rotate(0 -4.38177490234375 -0.5477447509765625)" stroke="none"><path fill="#1e1e1e" d="M -1.05,0.78 Q -1.05,0.78 -2.49,0.22 -3.94,-0.34 -5.59,1.45 -7.24,3.24 -7.37,3.41 -7.50,3.57 -7.68,3.69 -7.85,3.81 -8.06,3.86 -8.27,3.92 -8.48,3.90 -8.69,3.89 -8.89,3.81 -9.08,3.73 -9.24,3.59 -9.40,3.45 -9.51,3.26 -9.62,3.08 -9.66,2.87 -9.70,2.66 -9.68,2.45 -9.65,2.24 -9.56,2.05 -9.47,1.86 -9.32,1.71 -9.17,1.55 -8.98,1.46 -8.80,1.36 -8.59,1.33 -8.37,1.29 -8.17,1.33 -7.96,1.37 -7.77,1.47 -7.58,1.57 -7.44,1.73 -7.30,1.88 -7.21,2.08 -7.12,2.27 -7.10,2.48 -7.08,2.70 -7.13,2.90 -7.18,3.11 -7.29,3.29 -7.40,3.47 -7.56,3.61 -7.73,3.74 -7.93,3.82 -8.12,3.89 -8.34,3.90 -8.55,3.91 -8.75,3.85 -8.96,3.79 -9.13,3.67 -9.31,3.55 -9.43,3.38 -9.56,3.21 -9.62,3.01 -9.69,2.80 -9.69,2.59 -9.68,2.38 -9.61,2.18 -9.54,1.98 -9.54,1.98 -9.54,1.98 -9.08,0.19 -8.61,-1.59 -7.65,-3.27 -6.70,-4.96 -5.09,-5.48 -3.48,-6.01 -1.65,-5.35 0.16,-4.69 0.60,-2.74 1.05,-0.78 1.12,-0.65 1.20,-0.51 1.25,-0.36 1.29,-0.20 1.30,-0.05 1.30,0.10 1.27,0.26 1.24,0.41 1.17,0.56 1.10,0.70 1.00,0.82 0.90,0.94 0.78,1.04 0.65,1.13 0.50,1.19 0.36,1.26 0.20,1.28 0.05,1.31 -0.10,1.29 -0.26,1.28 -0.41,1.23 -0.56,1.18 -0.69,1.10 -0.83,1.01 -0.94,0.90 -1.05,0.78 -1.05,0.78 L -1.05,0.78 Z"/></g><g transform="translate(433.937255859375 231.27993774414062) rotate(0 6.57269287109375 10.406723022460938)" stroke="none"><path fill="#1e1e1e" d="M 1.31,0 Q 1.31,0 2.14,2.83 2.98,5.66 2.98,7.18 2.98,8.70 3.00,9.98 3.02,11.25 3.04,11.48 3.06,11.71 3.02,12.08 2.98,12.44 2.84,12.79 2.71,13.14 2.50,13.44 2.29,13.74 2.02,13.99 1.74,14.24 1.41,14.41 1.08,14.58 0.72,14.67 0.36,14.76 -0.00,14.76 -0.37,14.76 -0.72,14.67 -1.08,14.58 -1.41,14.41 -1.74,14.23 -2.02,13.99 -2.29,13.74 -2.50,13.44 -2.71,13.14 -2.84,12.79 -2.98,12.44 -3.02,12.08 -3.06,11.71 -2.70,10.14 -2.33,8.58 -1.87,6.79 -1.41,4.99 -0.00,3.01 1.40,1.03 3.56,0.04 5.71,-0.94 8.05,-0.29 10.39,0.35 12.14,2.04 13.88,3.74 14.64,7.23 15.39,10.72 14.85,14.85 14.31,18.98 14.29,19.19 14.28,19.41 14.19,19.60 14.11,19.80 13.97,19.96 13.82,20.11 13.64,20.22 13.45,20.32 13.24,20.36 13.04,20.40 12.83,20.37 12.61,20.35 12.42,20.25 12.23,20.16 12.08,20.01 11.93,19.86 11.84,19.67 11.75,19.47 11.72,19.26 11.69,19.05 11.73,18.85 11.77,18.64 11.87,18.45 11.98,18.27 12.14,18.12 12.29,17.98 12.49,17.90 12.68,17.82 12.90,17.80 13.11,17.78 13.31,17.83 13.52,17.88 13.70,18.00 13.88,18.11 14.01,18.28 14.14,18.44 14.22,18.64 14.29,18.84 14.30,19.05 14.30,19.27 14.24,19.47 14.18,19.67 14.05,19.85 13.93,20.02 13.76,20.14 13.58,20.27 13.38,20.33 13.18,20.39 12.97,20.39 12.75,20.38 12.55,20.31 12.35,20.23 12.19,20.10 12.02,19.97 11.91,19.79 11.79,19.61 11.74,19.40 11.69,19.20 11.69,19.20 11.69,19.20 10.52,15.53 9.34,11.87 9.05,9.90 8.75,7.92 7.47,6.57 6.18,5.22 5.32,5.99 4.46,6.76 3.76,9.23 3.06,11.71 3.02,12.08 2.98,12.44 2.84,12.79 2.71,13.14 2.50,13.44 2.29,13.74 2.02,13.99 1.74,14.23 1.41,14.41 1.08,14.58 0.72,14.67 0.37,14.76 0.00,14.76 -0.36,14.76 -0.72,14.67 -1.08,14.58 -1.41,14.41 -1.74,14.24 -2.02,13.99 -2.29,13.74 -2.50,13.44 -2.71,13.14 -2.84,12.79 -2.98,12.44 -3.02,12.08 -3.06,11.71 -3.04,11.48 -3.02,11.25 -3.00,9.98 -2.98,8.70 -2.98,7.18 -2.98,5.66 -2.14,2.83 -1.31,0 -1.29,-0.15 -1.27,-0.31 -1.21,-0.46 -1.16,-0.61 -1.07,-0.74 -0.98,-0.87 -0.86,-0.97 -0.74,-1.08 -0.60,-1.15 -0.46,-1.22 -0.31,-1.26 -0.15,-1.30 0.00,-1.30 0.15,-1.30 0.31,-1.26 0.46,-1.22 0.60,-1.15 0.74,-1.08 0.86,-0.97 0.98,-0.87 1.07,-0.74 1.16,-0.61 1.21,-0.46 1.27,-0.31 1.29,-0.15 1.31,0.00 1.31,0.00 L 1.31,0 Z"/></g><g transform="translate(456.941650390625 232.3753662109375) rotate(0 14.788482666015625 7.668121337890625)" stroke="none"><path fill="#1e1e1e" d="M 0.62,-1.15 Q 0.62,-1.15 5.24,0.06 9.87,1.28 12.46,2.49 15.05,3.69 17.46,4.89 19.87,6.09 22.05,7.47 24.22,8.84 25.29,10.25 26.35,11.65 27.91,12.71 29.47,13.77 29.64,13.90 29.80,14.04 29.92,14.21 30.04,14.39 30.09,14.60 30.14,14.80 30.13,15.02 30.11,15.23 30.03,15.42 29.95,15.62 29.81,15.78 29.66,15.94 29.48,16.04 29.30,16.15 29.09,16.19 28.88,16.23 28.67,16.21 28.46,16.18 28.27,16.09 28.08,15.99 27.92,15.85 27.77,15.70 27.68,15.51 27.58,15.32 27.55,15.11 27.52,14.90 27.56,14.69 27.60,14.48 27.70,14.29 27.80,14.11 27.96,13.96 28.12,13.82 28.31,13.74 28.51,13.65 28.72,13.63 28.93,13.61 29.14,13.66 29.34,13.71 29.52,13.82 29.70,13.94 29.84,14.10 29.97,14.27 30.05,14.46 30.12,14.66 30.13,14.88 30.14,15.09 30.08,15.29 30.01,15.50 29.89,15.67 29.77,15.84 29.60,15.97 29.43,16.09 29.22,16.16 29.02,16.22 28.81,16.22 28.60,16.21 28.40,16.14 28.20,16.07 28.20,16.07 28.20,16.07 26.40,15.27 24.61,14.47 23.11,14.30 21.61,14.12 19.22,13.25 16.83,12.37 14.44,11.25 12.05,10.12 9.28,8.83 6.50,7.53 2.94,4.34 -0.62,1.15 -0.75,1.06 -0.88,0.97 -0.98,0.85 -1.08,0.73 -1.16,0.59 -1.23,0.45 -1.26,0.29 -1.30,0.14 -1.30,-0.01 -1.30,-0.17 -1.26,-0.32 -1.22,-0.47 -1.14,-0.61 -1.07,-0.75 -0.96,-0.87 -0.86,-0.99 -0.72,-1.08 -0.59,-1.16 -0.44,-1.22 -0.30,-1.27 -0.14,-1.29 0.01,-1.31 0.17,-1.29 0.32,-1.27 0.47,-1.21 0.62,-1.15 0.62,-1.15 L 0.62,-1.15 Z"/></g><g transform="translate(486.51861572265625 226.89813232421875) rotate(0 -8.7635498046875 10.954452514648438)" stroke="none"><path fill="#1e1e1e" d="M 0.92,0.92 Q 0.92,0.92 -2.22,5.33 -5.37,9.74 -7.27,11.83 -9.18,13.92 -12.24,17.37 -15.30,20.81 -15.44,20.97 -15.58,21.13 -15.76,21.24 -15.95,21.35 -16.15,21.39 -16.36,21.43 -16.57,21.41 -16.78,21.38 -16.98,21.29 -17.17,21.20 -17.32,21.05 -17.47,20.90 -17.57,20.71 -17.67,20.52 -17.70,20.31 -17.73,20.10 -17.69,19.89 -17.65,19.68 -17.55,19.50 -17.45,19.31 -17.29,19.17 -17.14,19.02 -16.94,18.94 -16.75,18.85 -16.54,18.83 -16.33,18.81 -16.12,18.86 -15.91,18.91 -15.73,19.02 -15.55,19.13 -15.42,19.29 -15.28,19.46 -15.21,19.66 -15.13,19.85 -15.12,20.07 -15.11,20.28 -15.17,20.48 -15.23,20.69 -15.35,20.86 -15.47,21.04 -15.65,21.16 -15.82,21.29 -16.02,21.35 -16.22,21.42 -16.43,21.42 -16.65,21.41 -16.85,21.34 -17.05,21.27 -17.21,21.14 -17.38,21.01 -17.50,20.83 -17.61,20.65 -17.67,20.45 -17.72,20.24 -17.71,20.03 -17.69,19.82 -17.61,19.62 -17.53,19.43 -17.53,19.43 -17.53,19.43 -15.57,14.78 -13.61,10.13 -11.68,7.75 -9.74,5.37 -5.33,2.22 -0.92,-0.92 -0.80,-1.02 -0.67,-1.12 -0.53,-1.18 -0.39,-1.25 -0.23,-1.28 -0.07,-1.31 0.07,-1.30 0.23,-1.29 0.38,-1.24 0.53,-1.19 0.67,-1.11 0.80,-1.03 0.92,-0.92 1.03,-0.80 1.11,-0.67 1.19,-0.53 1.24,-0.38 1.29,-0.23 1.30,-0.07 1.31,0.07 1.28,0.23 1.25,0.39 1.18,0.53 1.12,0.67 1.02,0.80 0.92,0.92 0.92,0.92 L 0.92,0.92 Z"/></g><g transform="translate(504.0457763671875 198.41656494140625) rotate(0 4.38177490234375 30.672470092773438)" stroke="none"><path fill="#1e1e1e" d="M 1.15,-0.62 Q 1.15,-0.62 3.98,2.32 6.82,5.28 8.44,10.21 10.05,15.14 10.44,22.90 10.82,30.66 10.27,36.83 9.72,42.99 7.95,48.33 6.17,53.68 5.02,56.98 3.87,60.28 3.78,60.47 3.68,60.66 3.54,60.82 3.39,60.97 3.20,61.06 3.01,61.16 2.80,61.19 2.59,61.22 2.38,61.18 2.17,61.15 1.98,61.04 1.80,60.94 1.65,60.78 1.51,60.63 1.42,60.43 1.34,60.24 1.32,60.03 1.30,59.82 1.35,59.61 1.40,59.40 1.51,59.22 1.62,59.04 1.79,58.91 1.95,58.77 2.15,58.70 2.35,58.62 2.56,58.61 2.77,58.61 2.98,58.67 3.18,58.73 3.35,58.85 3.53,58.97 3.65,59.14 3.78,59.31 3.84,59.52 3.91,59.72 3.91,59.93 3.90,60.14 3.83,60.34 3.76,60.54 3.63,60.71 3.50,60.88 3.32,60.99 3.14,61.11 2.93,61.16 2.73,61.22 2.52,61.20 2.31,61.19 2.11,61.10 1.91,61.02 1.75,60.88 1.59,60.74 1.49,60.56 1.38,60.37 1.34,60.17 1.30,59.96 1.32,59.75 1.35,59.54 1.35,59.54 1.35,59.54 2.12,56.35 2.89,53.15 2.80,47.77 2.71,42.39 3.17,36.67 3.63,30.94 3.43,24.07 3.23,17.19 1.98,12.88 0.73,8.57 -0.21,4.60 -1.15,0.62 -1.21,0.48 -1.26,0.33 -1.29,0.17 -1.31,0.02 -1.29,-0.13 -1.28,-0.29 -1.22,-0.44 -1.17,-0.59 -1.08,-0.72 -0.99,-0.85 -0.88,-0.96 -0.76,-1.06 -0.62,-1.14 -0.48,-1.22 -0.33,-1.26 -0.17,-1.30 -0.02,-1.30 0.13,-1.30 0.29,-1.27 0.44,-1.23 0.58,-1.16 0.72,-1.09 0.84,-0.98 0.96,-0.88 1.06,-0.75 1.15,-0.62 1.15,-0.62 L 1.15,-0.62 Z"/></g></svg>