<svg version="1.1" xmlns="http://www.w3.org/2000/svg" viewBox="0 0 55.05426025390625 75.86772155761719" width="55.05426025390625" height="75.86772155761719" class="excalidraw-svg">
  <!-- svg-source:excalidraw -->
  
  <defs>
    <style class="style-fonts">
      @font-face {
        font-family: "Virgil";
        src: url("https://excalidraw.com/Virgil.woff2");
      }
      @font-face {
        font-family: "Cascadia";
        src: url("https://excalidraw.com/Cascadia.woff2");
      }
      @font-face {
        font-family: "Assistant";
        src: url("https://excalidraw.com/Assistant-Regular.woff2");
      }
    </style>
    
  </defs>
  <rect x="0" y="0" width="55.05426025390625" height="75.86772155761719" fill="#ffffff"/><g transform="translate(17.668121337890625 35.19523620605469) rotate(0 6.0249481201171875 9.311294555664062)" stroke="none"><path fill="#1e1e1e" d="M 0.46,0.46 Q 0.46,0.46 0.53,0.80 0.61,1.14 0.92,1.83 1.23,2.53 1.62,4.20 2.00,5.88 2.49,8.20 2.98,10.52 3.19,12.17 3.39,13.82 4.02,14.86 4.65,15.91 5.85,14.58 7.05,13.24 7.72,11.54 8.38,9.84 10.16,6.63 11.94,3.43 11.99,3.34 12.05,3.25 12.13,3.18 12.21,3.11 12.31,3.07 12.41,3.03 12.51,3.03 12.62,3.02 12.72,3.05 12.82,3.08 12.91,3.14 13.00,3.20 13.06,3.28 13.13,3.37 13.16,3.47 13.19,3.57 13.19,3.67 13.19,3.78 13.16,3.88 13.13,3.98 13.06,4.07 13.00,4.15 12.91,4.21 12.82,4.27 12.72,4.30 12.62,4.33 12.51,4.32 12.40,4.31 12.31,4.28 12.21,4.24 12.13,4.17 12.05,4.10 11.99,4.01 11.94,3.92 11.91,3.81 11.89,3.71 11.90,3.60 11.91,3.50 11.96,3.40 12.00,3.30 12.08,3.23 12.15,3.15 12.24,3.10 12.34,3.05 12.44,3.03 12.55,3.02 12.65,3.03 12.76,3.05 12.85,3.10 12.94,3.15 13.02,3.23 13.09,3.31 13.13,3.40 13.18,3.50 13.19,3.60 13.20,3.71 13.18,3.81 13.16,3.92 13.16,3.92 13.16,3.92 12.24,7.46 11.32,11.01 10.49,13.04 9.67,15.07 8.37,16.73 7.08,18.39 5.79,18.75 4.50,19.12 3.24,18.28 1.98,17.44 1.18,15.86 0.37,14.28 0.17,12.71 -0.02,11.14 -0.49,8.85 -0.97,6.56 -1.37,4.80 -1.77,3.03 -1.82,1.57 -1.87,0.11 -1.16,-0.17 -0.46,-0.46 -0.40,-0.51 -0.33,-0.56 -0.26,-0.59 -0.19,-0.62 -0.11,-0.64 -0.03,-0.65 0.03,-0.65 0.11,-0.64 0.19,-0.62 0.26,-0.59 0.33,-0.55 0.40,-0.51 0.46,-0.46 0.51,-0.40 0.55,-0.33 0.59,-0.26 0.62,-0.19 0.64,-0.11 0.65,-0.03 0.65,0.03 0.64,0.11 0.62,0.19 0.59,0.26 0.56,0.33 0.51,0.40 0.46,0.46 0.46,0.46 L 0.46,0.46 Z"/></g><g transform="translate(34.09979248046875 64.77226257324219) rotate(0 4.92950439453125 -8.215835571289062)" stroke="none"><path fill="#1e1e1e" d="M -0.46,-0.46 Q -0.46,-0.46 -0.06,-1.32 0.33,-2.18 1.14,-3.34 1.95,-4.49 3.21,-6.83 4.47,-9.17 5.32,-10.82 6.18,-12.48 6.85,-13.81 7.51,-15.14 7.86,-16.06 8.20,-16.98 8.16,-16.92 8.12,-16.85 8.21,-17.03 8.29,-17.21 8.42,-17.36 8.54,-17.51 8.70,-17.63 8.85,-17.75 9.03,-17.83 9.21,-17.90 9.41,-17.94 9.60,-17.97 9.80,-17.95 9.99,-17.94 10.18,-17.87 10.37,-17.81 10.53,-17.71 10.70,-17.60 10.84,-17.46 10.97,-17.32 11.07,-17.15 11.17,-16.98 11.22,-16.79 11.28,-16.60 11.29,-16.41 11.29,-16.21 11.26,-16.02 11.22,-15.82 10.97,-14.94 10.72,-14.06 10.63,-12.27 10.55,-10.48 10.41,-8.10 10.27,-5.72 9.85,-3.37 9.43,-1.03 9.41,-0.92 9.39,-0.82 9.34,-0.72 9.29,-0.63 9.21,-0.56 9.13,-0.49 9.04,-0.44 8.94,-0.40 8.83,-0.39 8.73,-0.38 8.62,-0.40 8.52,-0.43 8.43,-0.48 8.34,-0.54 8.27,-0.62 8.20,-0.70 8.17,-0.80 8.13,-0.90 8.12,-1.01 8.12,-1.11 8.15,-1.22 8.18,-1.32 8.24,-1.40 8.30,-1.49 8.39,-1.55 8.47,-1.62 8.57,-1.65 8.67,-1.68 8.78,-1.68 8.89,-1.68 8.99,-1.65 9.09,-1.61 9.17,-1.55 9.25,-1.48 9.31,-1.39 9.37,-1.30 9.40,-1.20 9.42,-1.10 9.42,-0.99 9.41,-0.89 9.37,-0.79 9.33,-0.69 9.26,-0.61 9.19,-0.53 9.10,-0.47 9.01,-0.42 8.90,-0.40 8.80,-0.38 8.69,-0.39 8.59,-0.40 8.49,-0.45 8.40,-0.50 8.32,-0.57 8.24,-0.64 8.19,-0.74 8.15,-0.83 8.13,-0.94 8.11,-1.04 8.11,-1.04 8.11,-1.04 7.75,-3.41 7.38,-5.78 7.34,-8.22 7.30,-10.66 7.44,-12.80 7.58,-14.94 7.85,-15.90 8.12,-16.85 8.21,-17.03 8.29,-17.21 8.42,-17.36 8.54,-17.51 8.70,-17.63 8.85,-17.75 9.03,-17.83 9.21,-17.90 9.41,-17.94 9.60,-17.97 9.80,-17.95 9.99,-17.94 10.18,-17.87 10.37,-17.81 10.53,-17.71 10.70,-17.60 10.84,-17.46 10.97,-17.32 11.07,-17.15 11.17,-16.98 11.22,-16.79 11.28,-16.60 11.29,-16.41 11.30,-16.21 11.26,-16.02 11.22,-15.83 10.93,-15.64 10.64,-15.46 10.40,-14.62 10.16,-13.78 9.45,-12.44 8.74,-11.11 7.84,-9.46 6.94,-7.81 5.54,-5.34 4.15,-2.87 3.17,-1.60 2.18,-0.33 1.32,0.06 0.46,0.46 0.40,0.51 0.33,0.56 0.26,0.59 0.19,0.62 0.11,0.64 0.03,0.65 -0.03,0.65 -0.11,0.64 -0.19,0.62 -0.26,0.59 -0.33,0.55 -0.40,0.51 -0.46,0.46 -0.51,0.40 -0.55,0.33 -0.59,0.26 -0.62,0.19 -0.64,0.11 -0.65,0.03 -0.65,-0.03 -0.64,-0.11 -0.62,-0.19 -0.59,-0.26 -0.56,-0.33 -0.51,-0.40 -0.46,-0.46 -0.46,-0.46 L -0.46,-0.46 Z"/></g><g transform="translate(11.095458984375 16.572677612304688) rotate(0 9.311279296875 2.190887451171875)" stroke="none"><path fill="#1e1e1e" d="M 0.65,0 Q 0.65,0 0.63,-0.01 0.61,-0.02 1.74,0.04 2.87,0.11 4.69,0.54 6.50,0.96 8.41,1.13 10.31,1.29 12.21,1.74 14.11,2.20 16.40,2.91 18.70,3.62 18.80,3.65 18.91,3.67 19.00,3.73 19.08,3.79 19.15,3.87 19.21,3.96 19.25,4.06 19.28,4.16 19.29,4.26 19.29,4.37 19.25,4.47 19.22,4.57 19.16,4.66 19.09,4.74 19.01,4.80 18.92,4.86 18.82,4.89 18.72,4.92 18.61,4.92 18.50,4.91 18.40,4.88 18.31,4.84 18.22,4.77 18.14,4.70 18.09,4.61 18.03,4.52 18.01,4.42 17.98,4.31 17.99,4.21 18.00,4.10 18.05,4.01 18.09,3.91 18.16,3.83 18.23,3.75 18.33,3.70 18.42,3.65 18.53,3.63 18.63,3.62 18.74,3.63 18.84,3.65 18.93,3.70 19.03,3.74 19.10,3.82 19.18,3.90 19.22,3.99 19.27,4.09 19.28,4.19 19.29,4.30 19.27,4.40 19.25,4.51 19.20,4.60 19.14,4.69 19.06,4.76 18.98,4.83 18.88,4.87 18.79,4.91 18.68,4.92 18.57,4.93 18.57,4.93 18.57,4.93 15.99,5.16 13.41,5.40 11.70,5.07 9.99,4.73 7.85,4.53 5.71,4.33 3.93,3.90 2.16,3.47 0.77,3.01 -0.61,2.54 -0.63,1.27 -0.65,0 -0.64,-0.07 -0.63,-0.15 -0.60,-0.23 -0.58,-0.30 -0.53,-0.37 -0.49,-0.43 -0.43,-0.48 -0.37,-0.54 -0.30,-0.57 -0.23,-0.61 -0.15,-0.63 -0.07,-0.65 0.00,-0.65 0.07,-0.65 0.15,-0.63 0.23,-0.61 0.30,-0.57 0.37,-0.54 0.43,-0.48 0.49,-0.43 0.53,-0.37 0.58,-0.30 0.60,-0.23 0.63,-0.15 0.64,-0.07 0.65,0.00 0.65,0.00 L 0.65,0 Z"/></g><g transform="translate(33.004364013671875 10) rotate(0 3.8340606689453125 8.215843200683594)" stroke="none"><path fill="#1e1e1e" d="M 0.29,0.58 Q 0.29,0.58 -0.53,1.31 -1.36,2.04 -2.03,1.87 -2.69,1.69 -3.32,1.73 -3.95,1.76 -4.15,1.70 -4.35,1.64 -4.53,1.53 -4.71,1.42 -4.86,1.27 -5.01,1.12 -5.12,0.94 -5.23,0.76 -5.29,0.56 -5.36,0.36 -5.37,0.15 -5.38,-0.05 -5.35,-0.25 -5.31,-0.46 -5.22,-0.65 -5.14,-0.84 -5.01,-1.01 -4.88,-1.18 -4.71,-1.31 -4.55,-1.44 -4.36,-1.52 -4.17,-1.61 -3.96,-1.65 -3.75,-1.69 -3.54,-1.67 -3.33,-1.66 -2.47,-1.18 -1.60,-0.69 -0.08,-0.06 1.43,0.56 3.19,1.55 4.95,2.54 6.52,3.22 8.10,3.90 9.47,4.54 10.84,5.19 11.73,6.17 12.62,7.16 12.60,8.68 12.58,10.20 11.06,11.62 9.53,13.05 7.53,13.90 5.52,14.76 2.56,15.31 -0.40,15.85 -0.46,15.77 -0.53,15.68 -0.56,15.58 -0.60,15.48 -0.60,15.38 -0.60,15.27 -0.56,15.17 -0.53,15.07 -0.47,14.98 -0.40,14.90 -0.32,14.84 -0.23,14.78 -0.13,14.75 -0.02,14.72 0.07,14.73 0.18,14.73 0.28,14.77 0.38,14.81 0.46,14.88 0.54,14.95 0.59,15.04 0.65,15.13 0.67,15.23 0.70,15.34 0.68,15.44 0.67,15.55 0.63,15.64 0.58,15.74 0.51,15.82 0.44,15.90 0.35,15.95 0.25,16.00 0.15,16.01 0.04,16.03 -0.05,16.01 -0.16,16.00 -0.25,15.95 -0.35,15.90 -0.42,15.82 -0.49,15.74 -0.54,15.65 -0.58,15.55 -0.59,15.45 -0.61,15.34 -0.58,15.24 -0.56,15.13 -0.51,15.04 -0.45,14.95 -0.37,14.88 -0.29,14.81 -0.19,14.77 -0.09,14.73 0.00,14.73 0.11,14.72 0.21,14.75 0.31,14.78 0.40,14.84 0.49,14.90 0.49,14.90 0.49,14.90 2.34,13.21 4.20,11.52 5.81,10.90 7.42,10.27 8.36,9.29 9.30,8.31 8.00,7.71 6.71,7.11 4.97,6.34 3.22,5.58 1.62,4.67 0.02,3.75 -1.96,2.76 -3.95,1.76 -4.15,1.70 -4.35,1.64 -4.53,1.53 -4.71,1.42 -4.86,1.27 -5.01,1.12 -5.12,0.94 -5.23,0.76 -5.29,0.56 -5.36,0.36 -5.37,0.15 -5.38,-0.05 -5.35,-0.25 -5.31,-0.46 -5.22,-0.65 -5.14,-0.84 -5.01,-1.01 -4.88,-1.18 -4.71,-1.31 -4.55,-1.44 -4.36,-1.52 -4.17,-1.61 -3.96,-1.65 -3.75,-1.69 -3.54,-1.67 -3.33,-1.66 -2.84,-1.63 -2.34,-1.59 -1.74,-1.18 -1.15,-0.78 -0.72,-0.68 -0.29,-0.58 -0.21,-0.61 -0.14,-0.64 -0.06,-0.64 0.01,-0.65 0.09,-0.64 0.16,-0.63 0.24,-0.60 0.31,-0.57 0.38,-0.52 0.44,-0.48 0.49,-0.42 0.54,-0.36 0.58,-0.29 0.61,-0.22 0.63,-0.14 0.65,-0.06 0.65,0.01 0.65,0.09 0.62,0.16 0.60,0.24 0.57,0.31 0.53,0.38 0.47,0.44 0.42,0.50 0.35,0.54 0.29,0.58 0.29,0.58 L 0.29,0.58 Z"/></g></svg>